{
  "header": {
    "PPQ": 480,
    "bpm": 60,
    "timeSignature": [
      4,
      4
    ],
    "name": "System Setup"
  },
  "tempo": [
    {
      "absoluteTime": 0,
      "seconds": 0,
      "bpm": 60
    },
    {
      "absoluteTime": 240,
      "seconds": 0.5,
      "bpm": 225.00056250140625
    }
  ],
  "timeSignature": [
    {
      "absoluteTime": 0,
      "seconds": 0,
      "numerator": 1,
      "denominator": 3,
      "click": 24,
      "notesQ": 8
    },
    {
      "absoluteTime": 240,
      "seconds": 0.5,
      "numerator": 4,
      "denominator": 2,
      "click": 24,
      "notesQ": 8
    }
  ],
  "startTime": 0,
  "duration": 547.5,
  "tracks": [
    {
      "startTime": 0,
      "duration": 0,
      "length": 0,
      "notes": [],
      "controlChanges": {},
      "id": 0,
      "name": ""
    },
    {
      "startTime": 0,
      "duration": 0,
      "length": 0,
      "notes": [],
      "controlChanges": {},
      "id": 1,
      "name": "System Setup"
    },
    {
      "startTime": 4.5,
      "duration": 547.5,
      "length": 924,
      "notes": [
        {
          "name": "F5",
          "midi": 77,
          "time": 4.5,
          "velocity": 0.7874015748031497,
          "duration": 0.5
        },
        {
          "name": "F4",
          "midi": 65,
          "time": 4.5,
          "velocity": 0.30708661417322836,
          "duration": 0.5
        },
        {
          "name": "F5",
          "midi": 77,
          "time": 5,
          "velocity": 0.7874015748031497,
          "duration": 0.5
        },
        {
          "name": "F4",
          "midi": 65,
          "time": 5,
          "velocity": 0.30708661417322836,
          "duration": 0.5
        },
        {
          "name": "F5",
          "midi": 77,
          "time": 5.5,
          "velocity": 0.7874015748031497,
          "duration": 1
        },
        {
          "name": "F4",
          "midi": 65,
          "time": 5.5,
          "velocity": 0.30708661417322836,
          "duration": 1
        },
        {
          "name": "D#5",
          "midi": 75,
          "time": 6.5,
          "velocity": 0.7874015748031497,
          "duration": 0.5
        },
        {
          "name": "D#4",
          "midi": 63,
          "time": 6.5,
          "velocity": 0.30708661417322836,
          "duration": 0.5
        },
        {
          "name": "C5",
          "midi": 72,
          "time": 7,
          "velocity": 0.7874015748031497,
          "duration": 0.5
        },
        {
          "name": "C4",
          "midi": 60,
          "time": 7,
          "velocity": 0.30708661417322836,
          "duration": 0.5
        },
        {
          "name": "A#4",
          "midi": 70,
          "time": 7.5,
          "velocity": 0.7874015748031497,
          "duration": 0.5
        },
        {
          "name": "A#3",
          "midi": 58,
          "time": 7.5,
          "velocity": 0.30708661417322836,
          "duration": 0.5
        },
        {
          "name": "G#4",
          "midi": 68,
          "time": 8,
          "velocity": 0.7874015748031497,
          "duration": 0.5
        },
        {
          "name": "G#3",
          "midi": 56,
          "time": 8,
          "velocity": 0.30708661417322836,
          "duration": 0.5
        },
        {
          "name": "A#4",
          "midi": 70,
          "time": 8.5,
          "velocity": 0.7874015748031497,
          "duration": 0.5
        },
        {
          "name": "A#3",
          "midi": 58,
          "time": 8.5,
          "velocity": 0.30708661417322836,
          "duration": 0.5
        },
        {
          "name": "C5",
          "midi": 72,
          "time": 9,
          "velocity": 0.7874015748031497,
          "duration": 0.5
        },
        {
          "name": "C4",
          "midi": 60,
          "time": 9,
          "velocity": 0.30708661417322836,
          "duration": 0.5
        },
        {
          "name": "A#4",
          "midi": 70,
          "time": 9.5,
          "velocity": 0.7874015748031497,
          "duration": 1
        },
        {
          "name": "A#3",
          "midi": 58,
          "time": 9.5,
          "velocity": 0.30708661417322836,
          "duration": 1
        },
        {
          "name": "A#4",
          "midi": 70,
          "time": 10.5,
          "velocity": 0.7874015748031497,
          "duration": 0.5
        },
        {
          "name": "A#3",
          "midi": 58,
          "time": 10.5,
          "velocity": 0.30708661417322836,
          "duration": 0.5
        },
        {
          "name": "C5",
          "midi": 72,
          "time": 11,
          "velocity": 0.7874015748031497,
          "duration": 0.5
        },
        {
          "name": "C4",
          "midi": 60,
          "time": 11,
          "velocity": 0.30708661417322836,
          "duration": 0.5
        },
        {
          "name": "A#4",
          "midi": 70,
          "time": 11.5,
          "velocity": 0.7874015748031497,
          "duration": 1
        },
        {
          "name": "A#3",
          "midi": 58,
          "time": 11.5,
          "velocity": 0.30708661417322836,
          "duration": 1
        },
        {
          "name": "F5",
          "midi": 77,
          "time": 12.5,
          "velocity": 0.7874015748031497,
          "duration": 0.5
        },
        {
          "name": "F4",
          "midi": 65,
          "time": 12.5,
          "velocity": 0.30708661417322836,
          "duration": 0.5
        },
        {
          "name": "F5",
          "midi": 77,
          "time": 13,
          "velocity": 0.7874015748031497,
          "duration": 0.5
        },
        {
          "name": "F4",
          "midi": 65,
          "time": 13,
          "velocity": 0.30708661417322836,
          "duration": 0.5
        },
        {
          "name": "F5",
          "midi": 77,
          "time": 13.5,
          "velocity": 0.7874015748031497,
          "duration": 1
        },
        {
          "name": "F4",
          "midi": 65,
          "time": 13.5,
          "velocity": 0.30708661417322836,
          "duration": 1
        },
        {
          "name": "D#5",
          "midi": 75,
          "time": 14.5,
          "velocity": 0.7874015748031497,
          "duration": 0.5
        },
        {
          "name": "D#4",
          "midi": 63,
          "time": 14.5,
          "velocity": 0.30708661417322836,
          "duration": 0.5
        },
        {
          "name": "C5",
          "midi": 72,
          "time": 15,
          "velocity": 0.7874015748031497,
          "duration": 0.5
        },
        {
          "name": "C4",
          "midi": 60,
          "time": 15,
          "velocity": 0.30708661417322836,
          "duration": 0.5
        },
        {
          "name": "A#4",
          "midi": 70,
          "time": 15.5,
          "velocity": 0.7874015748031497,
          "duration": 0.5
        },
        {
          "name": "A#3",
          "midi": 58,
          "time": 15.5,
          "velocity": 0.30708661417322836,
          "duration": 0.5
        },
        {
          "name": "G#4",
          "midi": 68,
          "time": 16,
          "velocity": 0.7874015748031497,
          "duration": 0.5
        },
        {
          "name": "G#3",
          "midi": 56,
          "time": 16,
          "velocity": 0.30708661417322836,
          "duration": 0.5
        },
        {
          "name": "G5",
          "midi": 79,
          "time": 16.5,
          "velocity": 0.7874015748031497,
          "duration": 0.5
        },
        {
          "name": "G4",
          "midi": 67,
          "time": 16.5,
          "velocity": 0.30708661417322836,
          "duration": 0.5
        },
        {
          "name": "G#5",
          "midi": 80,
          "time": 17,
          "velocity": 0.7874015748031497,
          "duration": 0.5
        },
        {
          "name": "G#4",
          "midi": 68,
          "time": 17,
          "velocity": 0.30708661417322836,
          "duration": 0.5
        },
        {
          "name": "G5",
          "midi": 79,
          "time": 17.5,
          "velocity": 0.7874015748031497,
          "duration": 1
        },
        {
          "name": "G4",
          "midi": 67,
          "time": 17.5,
          "velocity": 0.30708661417322836,
          "duration": 1
        },
        {
          "name": "G5",
          "midi": 79,
          "time": 18.5,
          "velocity": 0.7874015748031497,
          "duration": 0.5
        },
        {
          "name": "G4",
          "midi": 67,
          "time": 18.5,
          "velocity": 0.30708661417322836,
          "duration": 0.5
        },
        {
          "name": "G#5",
          "midi": 80,
          "time": 19,
          "velocity": 0.7874015748031497,
          "duration": 0.5
        },
        {
          "name": "G#4",
          "midi": 68,
          "time": 19,
          "velocity": 0.30708661417322836,
          "duration": 0.5
        },
        {
          "name": "G5",
          "midi": 79,
          "time": 19.5,
          "velocity": 0.7874015748031497,
          "duration": 1
        },
        {
          "name": "G4",
          "midi": 67,
          "time": 19.5,
          "velocity": 0.30708661417322836,
          "duration": 1
        },
        {
          "name": "F5",
          "midi": 77,
          "time": 20.5,
          "velocity": 0.7874015748031497,
          "duration": 0.5
        },
        {
          "name": "F4",
          "midi": 65,
          "time": 20.5,
          "velocity": 0.2992125984251969,
          "duration": 0.5
        },
        {
          "name": "F5",
          "midi": 77,
          "time": 21,
          "velocity": 0.7874015748031497,
          "duration": 0.5
        },
        {
          "name": "F4",
          "midi": 65,
          "time": 21,
          "velocity": 0.2992125984251969,
          "duration": 0.5
        },
        {
          "name": "F5",
          "midi": 77,
          "time": 21.5,
          "velocity": 0.7874015748031497,
          "duration": 1
        },
        {
          "name": "F4",
          "midi": 65,
          "time": 21.5,
          "velocity": 0.2992125984251969,
          "duration": 1
        },
        {
          "name": "D#5",
          "midi": 75,
          "time": 22.5,
          "velocity": 0.7874015748031497,
          "duration": 0.5
        },
        {
          "name": "D#4",
          "midi": 63,
          "time": 22.5,
          "velocity": 0.2992125984251969,
          "duration": 0.5
        },
        {
          "name": "C5",
          "midi": 72,
          "time": 23,
          "velocity": 0.7874015748031497,
          "duration": 0.5
        },
        {
          "name": "C4",
          "midi": 60,
          "time": 23,
          "velocity": 0.2992125984251969,
          "duration": 0.5
        },
        {
          "name": "A#4",
          "midi": 70,
          "time": 23.5,
          "velocity": 0.7874015748031497,
          "duration": 0.5
        },
        {
          "name": "A#3",
          "midi": 58,
          "time": 23.5,
          "velocity": 0.2992125984251969,
          "duration": 0.5
        },
        {
          "name": "G#4",
          "midi": 68,
          "time": 24,
          "velocity": 0.7874015748031497,
          "duration": 0.5
        },
        {
          "name": "G#3",
          "midi": 56,
          "time": 24,
          "velocity": 0.2992125984251969,
          "duration": 0.5
        },
        {
          "name": "A#4",
          "midi": 70,
          "time": 24.5,
          "velocity": 0.7874015748031497,
          "duration": 0.5
        },
        {
          "name": "A#3",
          "midi": 58,
          "time": 24.5,
          "velocity": 0.2992125984251969,
          "duration": 0.5
        },
        {
          "name": "C5",
          "midi": 72,
          "time": 25,
          "velocity": 0.7874015748031497,
          "duration": 0.5
        },
        {
          "name": "C4",
          "midi": 60,
          "time": 25,
          "velocity": 0.2992125984251969,
          "duration": 0.5
        },
        {
          "name": "A#4",
          "midi": 70,
          "time": 25.5,
          "velocity": 0.7874015748031497,
          "duration": 1
        },
        {
          "name": "A#3",
          "midi": 58,
          "time": 25.5,
          "velocity": 0.2992125984251969,
          "duration": 1
        },
        {
          "name": "A#4",
          "midi": 70,
          "time": 26.5,
          "velocity": 0.7874015748031497,
          "duration": 0.5
        },
        {
          "name": "A#3",
          "midi": 58,
          "time": 26.5,
          "velocity": 0.2992125984251969,
          "duration": 0.5
        },
        {
          "name": "C5",
          "midi": 72,
          "time": 27,
          "velocity": 0.7874015748031497,
          "duration": 0.5
        },
        {
          "name": "C4",
          "midi": 60,
          "time": 27,
          "velocity": 0.2992125984251969,
          "duration": 0.5
        },
        {
          "name": "A#4",
          "midi": 70,
          "time": 27.5,
          "velocity": 0.7874015748031497,
          "duration": 1
        },
        {
          "name": "A#3",
          "midi": 58,
          "time": 27.5,
          "velocity": 0.2992125984251969,
          "duration": 1
        },
        {
          "name": "F5",
          "midi": 77,
          "time": 28.5,
          "velocity": 0.7874015748031497,
          "duration": 0.5
        },
        {
          "name": "F4",
          "midi": 65,
          "time": 28.5,
          "velocity": 0.30708661417322836,
          "duration": 0.5
        },
        {
          "name": "F5",
          "midi": 77,
          "time": 29,
          "velocity": 0.7874015748031497,
          "duration": 0.5
        },
        {
          "name": "F4",
          "midi": 65,
          "time": 29,
          "velocity": 0.30708661417322836,
          "duration": 0.5
        },
        {
          "name": "F5",
          "midi": 77,
          "time": 29.5,
          "velocity": 0.7874015748031497,
          "duration": 1
        },
        {
          "name": "F4",
          "midi": 65,
          "time": 29.5,
          "velocity": 0.30708661417322836,
          "duration": 1
        },
        {
          "name": "D#5",
          "midi": 75,
          "time": 30.5,
          "velocity": 0.7874015748031497,
          "duration": 0.5
        },
        {
          "name": "D#4",
          "midi": 63,
          "time": 30.5,
          "velocity": 0.30708661417322836,
          "duration": 0.5
        },
        {
          "name": "C5",
          "midi": 72,
          "time": 31,
          "velocity": 0.7874015748031497,
          "duration": 0.5
        },
        {
          "name": "C4",
          "midi": 60,
          "time": 31,
          "velocity": 0.30708661417322836,
          "duration": 0.5
        },
        {
          "name": "A#4",
          "midi": 70,
          "time": 31.5,
          "velocity": 0.7874015748031497,
          "duration": 0.5
        },
        {
          "name": "A#3",
          "midi": 58,
          "time": 31.5,
          "velocity": 0.30708661417322836,
          "duration": 0.5
        },
        {
          "name": "G#4",
          "midi": 68,
          "time": 32,
          "velocity": 0.7874015748031497,
          "duration": 0.5
        },
        {
          "name": "G#3",
          "midi": 56,
          "time": 32,
          "velocity": 0.30708661417322836,
          "duration": 0.5
        },
        {
          "name": "A#4",
          "midi": 70,
          "time": 32.5,
          "velocity": 0.7874015748031497,
          "duration": 0.5
        },
        {
          "name": "A#3",
          "midi": 58,
          "time": 32.5,
          "velocity": 0.30708661417322836,
          "duration": 0.5
        },
        {
          "name": "C5",
          "midi": 72,
          "time": 33,
          "velocity": 0.7874015748031497,
          "duration": 0.5
        },
        {
          "name": "C4",
          "midi": 60,
          "time": 33,
          "velocity": 0.30708661417322836,
          "duration": 0.5
        },
        {
          "name": "A#4",
          "midi": 70,
          "time": 33.5,
          "velocity": 0.7874015748031497,
          "duration": 0.5
        },
        {
          "name": "A#3",
          "midi": 58,
          "time": 33.5,
          "velocity": 0.30708661417322836,
          "duration": 0.5
        },
        {
          "name": "G#4",
          "midi": 68,
          "time": 34,
          "velocity": 0.7874015748031497,
          "duration": 0.75
        },
        {
          "name": "G#3",
          "midi": 56,
          "time": 34,
          "velocity": 0.30708661417322836,
          "duration": 0.75
        },
        {
          "name": "B4",
          "midi": 71,
          "time": 35,
          "velocity": 0.7874015748031497,
          "duration": 1.5
        },
        {
          "name": "F#4",
          "midi": 66,
          "time": 35,
          "velocity": 0.7874015748031497,
          "duration": 1.5
        },
        {
          "name": "D#4",
          "midi": 63,
          "time": 35,
          "velocity": 0.7874015748031497,
          "duration": 1.5
        },
        {
          "name": "A#4",
          "midi": 70,
          "time": 35,
          "velocity": 0.3228346456692913,
          "duration": 1.5
        },
        {
          "name": "F6",
          "midi": 89,
          "time": 36.5,
          "velocity": 0.7874015748031497,
          "duration": 0.5
        },
        {
          "name": "F6",
          "midi": 89,
          "time": 37,
          "velocity": 0.7874015748031497,
          "duration": 0.5
        },
        {
          "name": "F6",
          "midi": 89,
          "time": 37.5,
          "velocity": 0.7874015748031497,
          "duration": 1
        },
        {
          "name": "D#6",
          "midi": 87,
          "time": 38.5,
          "velocity": 0.7874015748031497,
          "duration": 0.5
        },
        {
          "name": "C6",
          "midi": 84,
          "time": 39,
          "velocity": 0.7874015748031497,
          "duration": 0.5
        },
        {
          "name": "A#5",
          "midi": 82,
          "time": 39.5,
          "velocity": 0.7874015748031497,
          "duration": 0.5
        },
        {
          "name": "G#5",
          "midi": 80,
          "time": 40,
          "velocity": 0.7874015748031497,
          "duration": 0.5
        },
        {
          "name": "A#5",
          "midi": 82,
          "time": 40.5,
          "velocity": 0.7874015748031497,
          "duration": 0.5
        },
        {
          "name": "C6",
          "midi": 84,
          "time": 41,
          "velocity": 0.7874015748031497,
          "duration": 0.5
        },
        {
          "name": "A#5",
          "midi": 82,
          "time": 41.5,
          "velocity": 0.7874015748031497,
          "duration": 1
        },
        {
          "name": "A#5",
          "midi": 82,
          "time": 42.5,
          "velocity": 0.7874015748031497,
          "duration": 0.5
        },
        {
          "name": "C6",
          "midi": 84,
          "time": 43,
          "velocity": 0.7874015748031497,
          "duration": 0.5
        },
        {
          "name": "A#5",
          "midi": 82,
          "time": 43.5,
          "velocity": 0.7874015748031497,
          "duration": 1
        },
        {
          "name": "F6",
          "midi": 89,
          "time": 44.5,
          "velocity": 0.7874015748031497,
          "duration": 0.5
        },
        {
          "name": "F6",
          "midi": 89,
          "time": 45,
          "velocity": 0.7874015748031497,
          "duration": 0.5
        },
        {
          "name": "F6",
          "midi": 89,
          "time": 45.5,
          "velocity": 0.7874015748031497,
          "duration": 1
        },
        {
          "name": "D#6",
          "midi": 87,
          "time": 46.5,
          "velocity": 0.7874015748031497,
          "duration": 0.5
        },
        {
          "name": "C6",
          "midi": 84,
          "time": 47,
          "velocity": 0.7874015748031497,
          "duration": 0.5
        },
        {
          "name": "A#5",
          "midi": 82,
          "time": 47.5,
          "velocity": 0.7874015748031497,
          "duration": 0.5
        },
        {
          "name": "G#5",
          "midi": 80,
          "time": 48,
          "velocity": 0.7874015748031497,
          "duration": 0.5
        },
        {
          "name": "G6",
          "midi": 91,
          "time": 48.5,
          "velocity": 0.7874015748031497,
          "duration": 0.5
        },
        {
          "name": "G#6",
          "midi": 92,
          "time": 49,
          "velocity": 0.7874015748031497,
          "duration": 0.5
        },
        {
          "name": "G6",
          "midi": 91,
          "time": 49.5,
          "velocity": 0.7874015748031497,
          "duration": 1
        },
        {
          "name": "G6",
          "midi": 91,
          "time": 50.5,
          "velocity": 0.7874015748031497,
          "duration": 0.5
        },
        {
          "name": "G#6",
          "midi": 92,
          "time": 51,
          "velocity": 0.7874015748031497,
          "duration": 0.5
        },
        {
          "name": "G6",
          "midi": 91,
          "time": 51.5,
          "velocity": 0.7874015748031497,
          "duration": 1
        },
        {
          "name": "F6",
          "midi": 89,
          "time": 53.5,
          "velocity": 0.7874015748031497,
          "duration": 1
        },
        {
          "name": "F6",
          "midi": 89,
          "time": 54.5,
          "velocity": 0.7874015748031497,
          "duration": 0.5
        },
        {
          "name": "D#6",
          "midi": 87,
          "time": 55,
          "velocity": 0.7874015748031497,
          "duration": 0.5
        },
        {
          "name": "C6",
          "midi": 84,
          "time": 55.5,
          "velocity": 0.7874015748031497,
          "duration": 0.5
        },
        {
          "name": "A#5",
          "midi": 82,
          "time": 56,
          "velocity": 0.7874015748031497,
          "duration": 0.5
        },
        {
          "name": "D#6",
          "midi": 87,
          "time": 56.5,
          "velocity": 0.7874015748031497,
          "duration": 1
        },
        {
          "name": "A#5",
          "midi": 82,
          "time": 57.5,
          "velocity": 0.7874015748031497,
          "duration": 1
        },
        {
          "name": "G#5",
          "midi": 80,
          "time": 58.5,
          "velocity": 0.7874015748031497,
          "duration": 0.5
        },
        {
          "name": "A#5",
          "midi": 82,
          "time": 59,
          "velocity": 0.7874015748031497,
          "duration": 0.5
        },
        {
          "name": "G#5",
          "midi": 80,
          "time": 59.5,
          "velocity": 0.7874015748031497,
          "duration": 0.5
        },
        {
          "name": "A#5",
          "midi": 82,
          "time": 60,
          "velocity": 0.7874015748031497,
          "duration": 0.5
        },
        {
          "name": "C6",
          "midi": 84,
          "time": 60.5,
          "velocity": 0.7874015748031497,
          "duration": 1
        },
        {
          "name": "F5",
          "midi": 77,
          "time": 61.5,
          "velocity": 0.7874015748031497,
          "duration": 1
        },
        {
          "name": "F5",
          "midi": 77,
          "time": 62.5,
          "velocity": 0.7874015748031497,
          "duration": 0.5
        },
        {
          "name": "F5",
          "midi": 77,
          "time": 63,
          "velocity": 0.7874015748031497,
          "duration": 0.5
        },
        {
          "name": "F5",
          "midi": 77,
          "time": 63.5,
          "velocity": 0.7874015748031497,
          "duration": 0.5
        },
        {
          "name": "D#5",
          "midi": 75,
          "time": 64,
          "velocity": 0.7874015748031497,
          "duration": 0.5
        },
        {
          "name": "F5",
          "midi": 77,
          "time": 64.5,
          "velocity": 0.7874015748031497,
          "duration": 1
        },
        {
          "name": "G#5",
          "midi": 80,
          "time": 65.5,
          "velocity": 0.7874015748031497,
          "duration": 1
        },
        {
          "name": "G#5",
          "midi": 80,
          "time": 66.5,
          "velocity": 0.7874015748031497,
          "duration": 2
        },
        {
          "name": "F6",
          "midi": 89,
          "time": 68.5,
          "velocity": 0.7874015748031497,
          "duration": 0.5
        },
        {
          "name": "F6",
          "midi": 89,
          "time": 69,
          "velocity": 0.7874015748031497,
          "duration": 0.5
        },
        {
          "name": "F6",
          "midi": 89,
          "time": 69.5,
          "velocity": 0.7874015748031497,
          "duration": 1
        },
        {
          "name": "D#6",
          "midi": 87,
          "time": 70.5,
          "velocity": 0.7874015748031497,
          "duration": 0.5
        },
        {
          "name": "C6",
          "midi": 84,
          "time": 71,
          "velocity": 0.7874015748031497,
          "duration": 0.5
        },
        {
          "name": "A#5",
          "midi": 82,
          "time": 71.5,
          "velocity": 0.7874015748031497,
          "duration": 0.5
        },
        {
          "name": "G#5",
          "midi": 80,
          "time": 72,
          "velocity": 0.7874015748031497,
          "duration": 0.5
        },
        {
          "name": "A#5",
          "midi": 82,
          "time": 72.5,
          "velocity": 0.7874015748031497,
          "duration": 0.5
        },
        {
          "name": "C6",
          "midi": 84,
          "time": 73,
          "velocity": 0.7874015748031497,
          "duration": 0.5
        },
        {
          "name": "A#5",
          "midi": 82,
          "time": 73.5,
          "velocity": 0.7874015748031497,
          "duration": 1
        },
        {
          "name": "A#5",
          "midi": 82,
          "time": 74.5,
          "velocity": 0.7874015748031497,
          "duration": 0.5
        },
        {
          "name": "C6",
          "midi": 84,
          "time": 75,
          "velocity": 0.7874015748031497,
          "duration": 0.5
        },
        {
          "name": "A#5",
          "midi": 82,
          "time": 75.5,
          "velocity": 0.7874015748031497,
          "duration": 1
        },
        {
          "name": "F6",
          "midi": 89,
          "time": 76.5,
          "velocity": 0.7874015748031497,
          "duration": 0.5
        },
        {
          "name": "F6",
          "midi": 89,
          "time": 77,
          "velocity": 0.7874015748031497,
          "duration": 0.5
        },
        {
          "name": "F6",
          "midi": 89,
          "time": 77.5,
          "velocity": 0.7874015748031497,
          "duration": 1
        },
        {
          "name": "D#6",
          "midi": 87,
          "time": 78.5,
          "velocity": 0.7874015748031497,
          "duration": 0.5
        },
        {
          "name": "C6",
          "midi": 84,
          "time": 79,
          "velocity": 0.7874015748031497,
          "duration": 0.5
        },
        {
          "name": "A#5",
          "midi": 82,
          "time": 79.5,
          "velocity": 0.7874015748031497,
          "duration": 0.5
        },
        {
          "name": "G#5",
          "midi": 80,
          "time": 80,
          "velocity": 0.7874015748031497,
          "duration": 0.5
        },
        {
          "name": "G6",
          "midi": 91,
          "time": 80.5,
          "velocity": 0.7874015748031497,
          "duration": 0.5
        },
        {
          "name": "G#6",
          "midi": 92,
          "time": 81,
          "velocity": 0.7874015748031497,
          "duration": 0.5
        },
        {
          "name": "G6",
          "midi": 91,
          "time": 81.5,
          "velocity": 0.7874015748031497,
          "duration": 1
        },
        {
          "name": "G6",
          "midi": 91,
          "time": 82.5,
          "velocity": 0.7874015748031497,
          "duration": 0.5
        },
        {
          "name": "G#6",
          "midi": 92,
          "time": 83,
          "velocity": 0.7874015748031497,
          "duration": 0.5
        },
        {
          "name": "G6",
          "midi": 91,
          "time": 83.5,
          "velocity": 0.7874015748031497,
          "duration": 1
        },
        {
          "name": "F6",
          "midi": 89,
          "time": 85.5,
          "velocity": 0.7874015748031497,
          "duration": 1
        },
        {
          "name": "F6",
          "midi": 89,
          "time": 86.5,
          "velocity": 0.7874015748031497,
          "duration": 0.5
        },
        {
          "name": "D#6",
          "midi": 87,
          "time": 87,
          "velocity": 0.7874015748031497,
          "duration": 0.5
        },
        {
          "name": "C6",
          "midi": 84,
          "time": 87.5,
          "velocity": 0.7874015748031497,
          "duration": 0.5
        },
        {
          "name": "A#5",
          "midi": 82,
          "time": 88,
          "velocity": 0.7874015748031497,
          "duration": 0.5
        },
        {
          "name": "D#6",
          "midi": 87,
          "time": 88.5,
          "velocity": 0.7874015748031497,
          "duration": 1
        },
        {
          "name": "A#5",
          "midi": 82,
          "time": 89.5,
          "velocity": 0.7874015748031497,
          "duration": 1
        },
        {
          "name": "G#5",
          "midi": 80,
          "time": 90.5,
          "velocity": 0.7874015748031497,
          "duration": 0.5
        },
        {
          "name": "A#5",
          "midi": 82,
          "time": 91,
          "velocity": 0.7874015748031497,
          "duration": 0.5
        },
        {
          "name": "G#5",
          "midi": 80,
          "time": 91.5,
          "velocity": 0.7874015748031497,
          "duration": 0.5
        },
        {
          "name": "A#5",
          "midi": 82,
          "time": 92,
          "velocity": 0.7874015748031497,
          "duration": 0.5
        },
        {
          "name": "C6",
          "midi": 84,
          "time": 92.5,
          "velocity": 0.7874015748031497,
          "duration": 1
        },
        {
          "name": "F5",
          "midi": 77,
          "time": 93.5,
          "velocity": 0.7874015748031497,
          "duration": 1
        },
        {
          "name": "F5",
          "midi": 77,
          "time": 94.5,
          "velocity": 0.7874015748031497,
          "duration": 0.5
        },
        {
          "name": "F5",
          "midi": 77,
          "time": 95,
          "velocity": 0.7874015748031497,
          "duration": 0.5
        },
        {
          "name": "F5",
          "midi": 77,
          "time": 95.5,
          "velocity": 0.7874015748031497,
          "duration": 0.5
        },
        {
          "name": "D#5",
          "midi": 75,
          "time": 96,
          "velocity": 0.7874015748031497,
          "duration": 0.5
        },
        {
          "name": "F5",
          "midi": 77,
          "time": 96.5,
          "velocity": 0.7874015748031497,
          "duration": 1
        },
        {
          "name": "F5",
          "midi": 77,
          "time": 97.5,
          "velocity": 0.7874015748031497,
          "duration": 1
        },
        {
          "name": "F5",
          "midi": 77,
          "time": 98.5,
          "velocity": 0.7874015748031497,
          "duration": 2
        },
        {
          "name": "A#4",
          "midi": 70,
          "time": 100.5,
          "velocity": 0.7874015748031497,
          "duration": 1
        },
        {
          "name": "F#4",
          "midi": 66,
          "time": 100.5,
          "velocity": 0.4330708661417323,
          "duration": 1
        },
        {
          "name": "A#4",
          "midi": 70,
          "time": 101.5,
          "velocity": 0.7874015748031497,
          "duration": 1
        },
        {
          "name": "F#4",
          "midi": 66,
          "time": 101.5,
          "velocity": 0.4330708661417323,
          "duration": 1
        },
        {
          "name": "A#4",
          "midi": 70,
          "time": 102.5,
          "velocity": 0.7874015748031497,
          "duration": 1
        },
        {
          "name": "F#4",
          "midi": 66,
          "time": 102.5,
          "velocity": 0.4251968503937008,
          "duration": 1
        },
        {
          "name": "F#4",
          "midi": 66,
          "time": 103.5,
          "velocity": 0.7874015748031497,
          "duration": 0.5
        },
        {
          "name": "D#4",
          "midi": 63,
          "time": 103.5,
          "velocity": 0.4251968503937008,
          "duration": 0.5
        },
        {
          "name": "A#4",
          "midi": 70,
          "time": 104,
          "velocity": 0.7874015748031497,
          "duration": 1
        },
        {
          "name": "F#4",
          "midi": 66,
          "time": 104,
          "velocity": 0.4409448818897638,
          "duration": 1
        },
        {
          "name": "A#4",
          "midi": 70,
          "time": 105,
          "velocity": 0.7874015748031497,
          "duration": 1
        },
        {
          "name": "F#4",
          "midi": 66,
          "time": 105,
          "velocity": 0.4409448818897638,
          "duration": 1
        },
        {
          "name": "B4",
          "midi": 71,
          "time": 106,
          "velocity": 0.7874015748031497,
          "duration": 0.5
        },
        {
          "name": "G#4",
          "midi": 68,
          "time": 106,
          "velocity": 0.4409448818897638,
          "duration": 0.5
        },
        {
          "name": "A#4",
          "midi": 70,
          "time": 106.5,
          "velocity": 0.7874015748031497,
          "duration": 1
        },
        {
          "name": "F#4",
          "midi": 66,
          "time": 106.5,
          "velocity": 0.4409448818897638,
          "duration": 1
        },
        {
          "name": "A#4",
          "midi": 70,
          "time": 108.5,
          "velocity": 0.7874015748031497,
          "duration": 1
        },
        {
          "name": "F#4",
          "midi": 66,
          "time": 108.5,
          "velocity": 0.4409448818897638,
          "duration": 1
        },
        {
          "name": "A#4",
          "midi": 70,
          "time": 109.5,
          "velocity": 0.7874015748031497,
          "duration": 0.75
        },
        {
          "name": "F#4",
          "midi": 66,
          "time": 109.5,
          "velocity": 0.4409448818897638,
          "duration": 0.75
        },
        {
          "name": "A#4",
          "midi": 70,
          "time": 110.25,
          "velocity": 0.7874015748031497,
          "duration": 0.25
        },
        {
          "name": "F#4",
          "midi": 66,
          "time": 110.25,
          "velocity": 0.4330708661417323,
          "duration": 0.25
        },
        {
          "name": "A#4",
          "midi": 70,
          "time": 110.5,
          "velocity": 0.7874015748031497,
          "duration": 1
        },
        {
          "name": "F#4",
          "midi": 66,
          "time": 110.5,
          "velocity": 0.4330708661417323,
          "duration": 1
        },
        {
          "name": "B4",
          "midi": 71,
          "time": 111.5,
          "velocity": 0.7874015748031497,
          "duration": 0.5
        },
        {
          "name": "G#4",
          "midi": 68,
          "time": 111.5,
          "velocity": 0.4330708661417323,
          "duration": 0.5
        },
        {
          "name": "C#5",
          "midi": 73,
          "time": 112,
          "velocity": 0.7874015748031497,
          "duration": 0.5
        },
        {
          "name": "A#4",
          "midi": 70,
          "time": 112,
          "velocity": 0.4015748031496063,
          "duration": 0.5
        },
        {
          "name": "B4",
          "midi": 71,
          "time": 113,
          "velocity": 0.7874015748031497,
          "duration": 0.5
        },
        {
          "name": "G#4",
          "midi": 68,
          "time": 113,
          "velocity": 0.4330708661417323,
          "duration": 0.5
        },
        {
          "name": "A#4",
          "midi": 70,
          "time": 114,
          "velocity": 0.7874015748031497,
          "duration": 0.5
        },
        {
          "name": "F#4",
          "midi": 66,
          "time": 114,
          "velocity": 0.4330708661417323,
          "duration": 0.5
        },
        {
          "name": "G#4",
          "midi": 68,
          "time": 114.5,
          "velocity": 0.7874015748031497,
          "duration": 1.5
        },
        {
          "name": "F4",
          "midi": 65,
          "time": 114.5,
          "velocity": 0.4330708661417323,
          "duration": 1.5
        },
        {
          "name": "A#4",
          "midi": 70,
          "time": 116.5,
          "velocity": 0.7874015748031497,
          "duration": 1
        },
        {
          "name": "F#4",
          "midi": 66,
          "time": 116.5,
          "velocity": 0.4251968503937008,
          "duration": 1
        },
        {
          "name": "A#4",
          "midi": 70,
          "time": 117.5,
          "velocity": 0.7874015748031497,
          "duration": 1
        },
        {
          "name": "F#4",
          "midi": 66,
          "time": 117.5,
          "velocity": 0.41732283464566927,
          "duration": 1
        },
        {
          "name": "A#4",
          "midi": 70,
          "time": 118.5,
          "velocity": 0.7874015748031497,
          "duration": 0.5
        },
        {
          "name": "F#4",
          "midi": 66,
          "time": 118.5,
          "velocity": 0.4094488188976378,
          "duration": 0.5
        },
        {
          "name": "A#4",
          "midi": 70,
          "time": 119,
          "velocity": 0.7874015748031497,
          "duration": 0.5
        },
        {
          "name": "F#4",
          "midi": 66,
          "time": 119,
          "velocity": 0.4094488188976378,
          "duration": 0.5
        },
        {
          "name": "B4",
          "midi": 71,
          "time": 119.5,
          "velocity": 0.7874015748031497,
          "duration": 0.5
        },
        {
          "name": "G#4",
          "midi": 68,
          "time": 119.5,
          "velocity": 0.4330708661417323,
          "duration": 0.5
        },
        {
          "name": "C#5",
          "midi": 73,
          "time": 120,
          "velocity": 0.7874015748031497,
          "duration": 0.5
        },
        {
          "name": "A#4",
          "midi": 70,
          "time": 120,
          "velocity": 0.4566929133858268,
          "duration": 0.5
        },
        {
          "name": "B4",
          "midi": 71,
          "time": 121,
          "velocity": 0.7874015748031497,
          "duration": 1
        },
        {
          "name": "G#4",
          "midi": 68,
          "time": 121,
          "velocity": 0.3937007874015748,
          "duration": 1
        },
        {
          "name": "A#4",
          "midi": 70,
          "time": 122,
          "velocity": 0.7874015748031497,
          "duration": 0.5
        },
        {
          "name": "F#4",
          "midi": 66,
          "time": 122,
          "velocity": 0.4330708661417323,
          "duration": 0.5
        },
        {
          "name": "G#4",
          "midi": 68,
          "time": 122.5,
          "velocity": 0.7874015748031497,
          "duration": 1.5
        },
        {
          "name": "F4",
          "midi": 65,
          "time": 122.5,
          "velocity": 0.44881889763779526,
          "duration": 1.5
        },
        {
          "name": "C#5",
          "midi": 73,
          "time": 124,
          "velocity": 0.7874015748031497,
          "duration": 1
        },
        {
          "name": "A#4",
          "midi": 70,
          "time": 124,
          "velocity": 0.4645669291338583,
          "duration": 1
        },
        {
          "name": "B4",
          "midi": 71,
          "time": 125,
          "velocity": 0.7874015748031497,
          "duration": 0.5
        },
        {
          "name": "G#4",
          "midi": 68,
          "time": 125,
          "velocity": 0.47244094488188976,
          "duration": 0.5
        },
        {
          "name": "A#4",
          "midi": 70,
          "time": 126,
          "velocity": 0.7874015748031497,
          "duration": 0.5
        },
        {
          "name": "F#4",
          "midi": 66,
          "time": 126,
          "velocity": 0.4409448818897638,
          "duration": 0.5
        },
        {
          "name": "G#4",
          "midi": 68,
          "time": 126.5,
          "velocity": 0.7874015748031497,
          "duration": 0.5
        },
        {
          "name": "F4",
          "midi": 65,
          "time": 126.5,
          "velocity": 0.4409448818897638,
          "duration": 0.5
        },
        {
          "name": "D#4",
          "midi": 63,
          "time": 127.5,
          "velocity": 0.7874015748031497,
          "duration": 0.5
        },
        {
          "name": "C#5",
          "midi": 73,
          "time": 128,
          "velocity": 0.7874015748031497,
          "duration": 0.5
        },
        {
          "name": "B4",
          "midi": 71,
          "time": 129,
          "velocity": 0.7874015748031497,
          "duration": 0.5
        },
        {
          "name": "A#4",
          "midi": 70,
          "time": 130,
          "velocity": 0.7874015748031497,
          "duration": 0.5
        },
        {
          "name": "G#4",
          "midi": 68,
          "time": 130.5,
          "velocity": 0.7874015748031497,
          "duration": 1.5
        },
        {
          "name": "A#4",
          "midi": 70,
          "time": 132.5,
          "velocity": 0.7874015748031497,
          "duration": 0.5
        },
        {
          "name": "F#4",
          "midi": 66,
          "time": 132.5,
          "velocity": 0.7874015748031497,
          "duration": 0.5
        },
        {
          "name": "A#4",
          "midi": 70,
          "time": 133,
          "velocity": 0.7874015748031497,
          "duration": 0.5
        },
        {
          "name": "F#4",
          "midi": 66,
          "time": 133,
          "velocity": 0.7874015748031497,
          "duration": 0.5
        },
        {
          "name": "F#4",
          "midi": 66,
          "time": 133.5,
          "velocity": 0.7874015748031497,
          "duration": 0.5
        },
        {
          "name": "A#4",
          "midi": 70,
          "time": 133.5,
          "velocity": 0.7874015748031497,
          "duration": 0.5
        },
        {
          "name": "A#4",
          "midi": 70,
          "time": 134,
          "velocity": 0.7874015748031497,
          "duration": 0.5
        },
        {
          "name": "F#4",
          "midi": 66,
          "time": 134,
          "velocity": 0.7874015748031497,
          "duration": 0.5
        },
        {
          "name": "A#4",
          "midi": 70,
          "time": 134.5,
          "velocity": 0.7874015748031497,
          "duration": 1
        },
        {
          "name": "F#4",
          "midi": 66,
          "time": 134.5,
          "velocity": 0.7874015748031497,
          "duration": 1
        },
        {
          "name": "F#4",
          "midi": 66,
          "time": 135.5,
          "velocity": 0.7874015748031497,
          "duration": 0.5
        },
        {
          "name": "D#4",
          "midi": 63,
          "time": 135.5,
          "velocity": 0.7874015748031497,
          "duration": 0.5
        },
        {
          "name": "A#4",
          "midi": 70,
          "time": 136,
          "velocity": 0.7874015748031497,
          "duration": 1
        },
        {
          "name": "F#4",
          "midi": 66,
          "time": 136,
          "velocity": 0.7874015748031497,
          "duration": 1
        },
        {
          "name": "A#4",
          "midi": 70,
          "time": 137,
          "velocity": 0.7874015748031497,
          "duration": 1
        },
        {
          "name": "F#4",
          "midi": 66,
          "time": 137,
          "velocity": 0.7874015748031497,
          "duration": 1
        },
        {
          "name": "B4",
          "midi": 71,
          "time": 138,
          "velocity": 0.7874015748031497,
          "duration": 0.5
        },
        {
          "name": "G#4",
          "midi": 68,
          "time": 138,
          "velocity": 0.7874015748031497,
          "duration": 0.5
        },
        {
          "name": "A#4",
          "midi": 70,
          "time": 138.5,
          "velocity": 0.7874015748031497,
          "duration": 1
        },
        {
          "name": "F#4",
          "midi": 66,
          "time": 138.5,
          "velocity": 0.7874015748031497,
          "duration": 1
        },
        {
          "name": "A#4",
          "midi": 70,
          "time": 140.5,
          "velocity": 0.7874015748031497,
          "duration": 1
        },
        {
          "name": "F#4",
          "midi": 66,
          "time": 140.5,
          "velocity": 0.7874015748031497,
          "duration": 1
        },
        {
          "name": "A#4",
          "midi": 70,
          "time": 141.5,
          "velocity": 0.7874015748031497,
          "duration": 0.75
        },
        {
          "name": "F#4",
          "midi": 66,
          "time": 141.5,
          "velocity": 0.7874015748031497,
          "duration": 0.75
        },
        {
          "name": "A#4",
          "midi": 70,
          "time": 142.25,
          "velocity": 0.7874015748031497,
          "duration": 0.25
        },
        {
          "name": "F#4",
          "midi": 66,
          "time": 142.25,
          "velocity": 0.7874015748031497,
          "duration": 0.25
        },
        {
          "name": "A#4",
          "midi": 70,
          "time": 142.5,
          "velocity": 0.7874015748031497,
          "duration": 1
        },
        {
          "name": "F#4",
          "midi": 66,
          "time": 142.5,
          "velocity": 0.7874015748031497,
          "duration": 1
        },
        {
          "name": "B4",
          "midi": 71,
          "time": 143.5,
          "velocity": 0.7874015748031497,
          "duration": 0.5
        },
        {
          "name": "G#4",
          "midi": 68,
          "time": 143.5,
          "velocity": 0.7874015748031497,
          "duration": 0.5
        },
        {
          "name": "C#5",
          "midi": 73,
          "time": 144,
          "velocity": 0.7874015748031497,
          "duration": 0.5
        },
        {
          "name": "A#4",
          "midi": 70,
          "time": 144,
          "velocity": 0.7874015748031497,
          "duration": 0.5
        },
        {
          "name": "B4",
          "midi": 71,
          "time": 145,
          "velocity": 0.7874015748031497,
          "duration": 0.5
        },
        {
          "name": "G#4",
          "midi": 68,
          "time": 145,
          "velocity": 0.7874015748031497,
          "duration": 0.5
        },
        {
          "name": "A#4",
          "midi": 70,
          "time": 146,
          "velocity": 0.7874015748031497,
          "duration": 0.5
        },
        {
          "name": "F#4",
          "midi": 66,
          "time": 146,
          "velocity": 0.7874015748031497,
          "duration": 0.5
        },
        {
          "name": "G#4",
          "midi": 68,
          "time": 146.5,
          "velocity": 0.7874015748031497,
          "duration": 1.5
        },
        {
          "name": "F4",
          "midi": 65,
          "time": 146.5,
          "velocity": 0.7874015748031497,
          "duration": 1.5
        },
        {
          "name": "A#4",
          "midi": 70,
          "time": 148.5,
          "velocity": 0.7874015748031497,
          "duration": 0.5
        },
        {
          "name": "F#4",
          "midi": 66,
          "time": 148.5,
          "velocity": 0.7874015748031497,
          "duration": 0.5
        },
        {
          "name": "A#4",
          "midi": 70,
          "time": 149,
          "velocity": 0.7874015748031497,
          "duration": 0.5
        },
        {
          "name": "F#4",
          "midi": 66,
          "time": 149,
          "velocity": 0.7874015748031497,
          "duration": 0.5
        },
        {
          "name": "A#4",
          "midi": 70,
          "time": 149.5,
          "velocity": 0.7874015748031497,
          "duration": 0.5
        },
        {
          "name": "F#4",
          "midi": 66,
          "time": 149.5,
          "velocity": 0.7874015748031497,
          "duration": 0.5
        },
        {
          "name": "A#4",
          "midi": 70,
          "time": 150,
          "velocity": 0.7874015748031497,
          "duration": 0.5
        },
        {
          "name": "F#4",
          "midi": 66,
          "time": 150,
          "velocity": 0.7874015748031497,
          "duration": 0.5
        },
        {
          "name": "A#4",
          "midi": 70,
          "time": 150.5,
          "velocity": 0.7874015748031497,
          "duration": 1
        },
        {
          "name": "F#4",
          "midi": 66,
          "time": 150.5,
          "velocity": 0.7874015748031497,
          "duration": 1
        },
        {
          "name": "B4",
          "midi": 71,
          "time": 151.5,
          "velocity": 0.7874015748031497,
          "duration": 0.5
        },
        {
          "name": "G#4",
          "midi": 68,
          "time": 151.5,
          "velocity": 0.7874015748031497,
          "duration": 0.5
        },
        {
          "name": "C#5",
          "midi": 73,
          "time": 152,
          "velocity": 0.7874015748031497,
          "duration": 0.5
        },
        {
          "name": "A#4",
          "midi": 70,
          "time": 152,
          "velocity": 0.7874015748031497,
          "duration": 0.5
        },
        {
          "name": "B4",
          "midi": 71,
          "time": 153,
          "velocity": 0.7874015748031497,
          "duration": 1
        },
        {
          "name": "G#4",
          "midi": 68,
          "time": 153,
          "velocity": 0.7874015748031497,
          "duration": 1
        },
        {
          "name": "A#4",
          "midi": 70,
          "time": 154,
          "velocity": 0.7874015748031497,
          "duration": 0.5
        },
        {
          "name": "F#4",
          "midi": 66,
          "time": 154,
          "velocity": 0.7874015748031497,
          "duration": 0.5
        },
        {
          "name": "G#4",
          "midi": 68,
          "time": 154.5,
          "velocity": 0.7874015748031497,
          "duration": 1.5
        },
        {
          "name": "F4",
          "midi": 65,
          "time": 154.5,
          "velocity": 0.7874015748031497,
          "duration": 1.5
        },
        {
          "name": "C#5",
          "midi": 73,
          "time": 156,
          "velocity": 0.7874015748031497,
          "duration": 1
        },
        {
          "name": "A#4",
          "midi": 70,
          "time": 156,
          "velocity": 0.7874015748031497,
          "duration": 1
        },
        {
          "name": "B4",
          "midi": 71,
          "time": 157,
          "velocity": 0.7874015748031497,
          "duration": 0.5
        },
        {
          "name": "G#4",
          "midi": 68,
          "time": 157,
          "velocity": 0.7874015748031497,
          "duration": 0.5
        },
        {
          "name": "A#4",
          "midi": 70,
          "time": 158,
          "velocity": 0.7874015748031497,
          "duration": 0.5
        },
        {
          "name": "F#4",
          "midi": 66,
          "time": 158,
          "velocity": 0.7874015748031497,
          "duration": 0.5
        },
        {
          "name": "G#4",
          "midi": 68,
          "time": 158.5,
          "velocity": 0.7874015748031497,
          "duration": 0.5
        },
        {
          "name": "F4",
          "midi": 65,
          "time": 158.5,
          "velocity": 0.7874015748031497,
          "duration": 0.5
        },
        {
          "name": "D#4",
          "midi": 63,
          "time": 159.5,
          "velocity": 0.7874015748031497,
          "duration": 0.5
        },
        {
          "name": "B3",
          "midi": 59,
          "time": 159.5,
          "velocity": 0.7874015748031497,
          "duration": 0.5
        },
        {
          "name": "C#5",
          "midi": 73,
          "time": 160,
          "velocity": 0.7874015748031497,
          "duration": 0.5
        },
        {
          "name": "A#4",
          "midi": 70,
          "time": 160,
          "velocity": 0.7874015748031497,
          "duration": 0.5
        },
        {
          "name": "A#4",
          "midi": 70,
          "time": 161,
          "velocity": 0.7874015748031497,
          "duration": 0.5
        },
        {
          "name": "G4",
          "midi": 67,
          "time": 161,
          "velocity": 0.7874015748031497,
          "duration": 0.5
        },
        {
          "name": "G4",
          "midi": 67,
          "time": 162,
          "velocity": 0.7874015748031497,
          "duration": 0.5
        },
        {
          "name": "D#4",
          "midi": 63,
          "time": 162,
          "velocity": 0.7874015748031497,
          "duration": 0.5
        },
        {
          "name": "D#4",
          "midi": 63,
          "time": 162.5,
          "velocity": 0.7874015748031497,
          "duration": 1
        },
        {
          "name": "A#3",
          "midi": 58,
          "time": 162.5,
          "velocity": 0.7874015748031497,
          "duration": 1
        },
        {
          "name": "A#4",
          "midi": 70,
          "time": 163.5,
          "velocity": 0.7874015748031497,
          "duration": 0.5
        },
        {
          "name": "G#4",
          "midi": 68,
          "time": 164,
          "velocity": 0.7874015748031497,
          "duration": 0.5
        },
        {
          "name": "A#4",
          "midi": 70,
          "time": 164.5,
          "velocity": 0.7874015748031497,
          "duration": 16
        },
        {
          "name": "A#4",
          "midi": 70,
          "time": 181.5,
          "velocity": 0.7874015748031497,
          "duration": 0.5
        },
        {
          "name": "A#4",
          "midi": 70,
          "time": 182,
          "velocity": 0.7874015748031497,
          "duration": 0.5
        },
        {
          "name": "A#4",
          "midi": 70,
          "time": 182.5,
          "velocity": 0.7874015748031497,
          "duration": 0.5
        },
        {
          "name": "B4",
          "midi": 71,
          "time": 183,
          "velocity": 0.7874015748031497,
          "duration": 0.5
        },
        {
          "name": "C#5",
          "midi": 73,
          "time": 183.5,
          "velocity": 0.7874015748031497,
          "duration": 0.5
        },
        {
          "name": "D#5",
          "midi": 75,
          "time": 184,
          "velocity": 0.7874015748031497,
          "duration": 0.5
        },
        {
          "name": "F5",
          "midi": 77,
          "time": 184.5,
          "velocity": 0.7874015748031497,
          "duration": 1
        },
        {
          "name": "F#5",
          "midi": 78,
          "time": 185.5,
          "velocity": 0.7874015748031497,
          "duration": 1
        },
        {
          "name": "C#5",
          "midi": 73,
          "time": 186.5,
          "velocity": 0.7874015748031497,
          "duration": 1
        },
        {
          "name": "B4",
          "midi": 71,
          "time": 187.5,
          "velocity": 0.7874015748031497,
          "duration": 1
        },
        {
          "name": "A#4",
          "midi": 70,
          "time": 188.5,
          "velocity": 0.7874015748031497,
          "duration": 5
        },
        {
          "name": "D#4",
          "midi": 63,
          "time": 194,
          "velocity": 0.7874015748031497,
          "duration": 1.5
        },
        {
          "name": "D#4",
          "midi": 63,
          "time": 195.5,
          "velocity": 0.7874015748031497,
          "duration": 0.5
        },
        {
          "name": "F4",
          "midi": 65,
          "time": 196,
          "velocity": 0.7874015748031497,
          "duration": 0.5
        },
        {
          "name": "F#4",
          "midi": 66,
          "time": 196.5,
          "velocity": 0.7874015748031497,
          "duration": 26.5
        },
        {
          "name": "A#4",
          "midi": 70,
          "time": 223,
          "velocity": 0.7874015748031497,
          "duration": 0.5
        },
        {
          "name": "G#4",
          "midi": 68,
          "time": 223.5,
          "velocity": 0.7874015748031497,
          "duration": 0.5
        },
        {
          "name": "F#4",
          "midi": 66,
          "time": 224,
          "velocity": 0.7874015748031497,
          "duration": 0.5
        },
        {
          "name": "D#4",
          "midi": 63,
          "time": 224.5,
          "velocity": 0.7874015748031497,
          "duration": 1
        },
        {
          "name": "A#3",
          "midi": 58,
          "time": 224.5,
          "velocity": 0.7874015748031497,
          "duration": 1
        },
        {
          "name": "A#3",
          "midi": 58,
          "time": 225.5,
          "velocity": 0.7874015748031497,
          "duration": 1
        },
        {
          "name": "D#4",
          "midi": 63,
          "time": 225.5,
          "velocity": 0.7874015748031497,
          "duration": 1
        },
        {
          "name": "D#4",
          "midi": 63,
          "time": 226.5,
          "velocity": 0.7874015748031497,
          "duration": 2
        },
        {
          "name": "A#3",
          "midi": 58,
          "time": 226.5,
          "velocity": 0.7874015748031497,
          "duration": 2
        },
        {
          "name": "F6",
          "midi": 89,
          "time": 228.5,
          "velocity": 0.7874015748031497,
          "duration": 0.5
        },
        {
          "name": "F6",
          "midi": 89,
          "time": 229,
          "velocity": 0.7874015748031497,
          "duration": 0.5
        },
        {
          "name": "F6",
          "midi": 89,
          "time": 229.5,
          "velocity": 0.7874015748031497,
          "duration": 1
        },
        {
          "name": "D#6",
          "midi": 87,
          "time": 230.5,
          "velocity": 0.7874015748031497,
          "duration": 0.5
        },
        {
          "name": "C6",
          "midi": 84,
          "time": 231,
          "velocity": 0.7874015748031497,
          "duration": 0.5
        },
        {
          "name": "A#5",
          "midi": 82,
          "time": 231.5,
          "velocity": 0.7874015748031497,
          "duration": 0.5
        },
        {
          "name": "G#5",
          "midi": 80,
          "time": 232,
          "velocity": 0.7874015748031497,
          "duration": 0.5
        },
        {
          "name": "A#5",
          "midi": 82,
          "time": 232.5,
          "velocity": 0.7874015748031497,
          "duration": 0.5
        },
        {
          "name": "C6",
          "midi": 84,
          "time": 233,
          "velocity": 0.7874015748031497,
          "duration": 0.5
        },
        {
          "name": "A#5",
          "midi": 82,
          "time": 233.5,
          "velocity": 0.7874015748031497,
          "duration": 1
        },
        {
          "name": "A#5",
          "midi": 82,
          "time": 234.5,
          "velocity": 0.7874015748031497,
          "duration": 0.5
        },
        {
          "name": "C6",
          "midi": 84,
          "time": 235,
          "velocity": 0.7874015748031497,
          "duration": 0.5
        },
        {
          "name": "A#5",
          "midi": 82,
          "time": 235.5,
          "velocity": 0.7874015748031497,
          "duration": 1
        },
        {
          "name": "F6",
          "midi": 89,
          "time": 236.5,
          "velocity": 0.7874015748031497,
          "duration": 0.5
        },
        {
          "name": "F6",
          "midi": 89,
          "time": 237,
          "velocity": 0.7874015748031497,
          "duration": 0.5
        },
        {
          "name": "F6",
          "midi": 89,
          "time": 237.5,
          "velocity": 0.7874015748031497,
          "duration": 1
        },
        {
          "name": "D#6",
          "midi": 87,
          "time": 238.5,
          "velocity": 0.7874015748031497,
          "duration": 0.5
        },
        {
          "name": "C6",
          "midi": 84,
          "time": 239,
          "velocity": 0.7874015748031497,
          "duration": 0.5
        },
        {
          "name": "A#5",
          "midi": 82,
          "time": 239.5,
          "velocity": 0.7874015748031497,
          "duration": 0.5
        },
        {
          "name": "G#5",
          "midi": 80,
          "time": 240,
          "velocity": 0.7874015748031497,
          "duration": 0.5
        },
        {
          "name": "G6",
          "midi": 91,
          "time": 240.5,
          "velocity": 0.7874015748031497,
          "duration": 0.5
        },
        {
          "name": "G#6",
          "midi": 92,
          "time": 241,
          "velocity": 0.7874015748031497,
          "duration": 0.5
        },
        {
          "name": "G6",
          "midi": 91,
          "time": 241.5,
          "velocity": 0.7874015748031497,
          "duration": 1
        },
        {
          "name": "G6",
          "midi": 91,
          "time": 242.5,
          "velocity": 0.7874015748031497,
          "duration": 0.5
        },
        {
          "name": "G#6",
          "midi": 92,
          "time": 243,
          "velocity": 0.7874015748031497,
          "duration": 0.5
        },
        {
          "name": "G6",
          "midi": 91,
          "time": 243.5,
          "velocity": 0.7874015748031497,
          "duration": 1
        },
        {
          "name": "F6",
          "midi": 89,
          "time": 245.5,
          "velocity": 0.7874015748031497,
          "duration": 0.5
        },
        {
          "name": "F6",
          "midi": 89,
          "time": 246,
          "velocity": 0.7874015748031497,
          "duration": 1
        },
        {
          "name": "D#6",
          "midi": 87,
          "time": 247,
          "velocity": 0.7874015748031497,
          "duration": 0.5
        },
        {
          "name": "C6",
          "midi": 84,
          "time": 247.5,
          "velocity": 0.7874015748031497,
          "duration": 0.5
        },
        {
          "name": "A#5",
          "midi": 82,
          "time": 248,
          "velocity": 0.7874015748031497,
          "duration": 0.5
        },
        {
          "name": "D#6",
          "midi": 87,
          "time": 248.5,
          "velocity": 0.7874015748031497,
          "duration": 1
        },
        {
          "name": "A#5",
          "midi": 82,
          "time": 249.5,
          "velocity": 0.7874015748031497,
          "duration": 1
        },
        {
          "name": "G#5",
          "midi": 80,
          "time": 250.5,
          "velocity": 0.7874015748031497,
          "duration": 0.5
        },
        {
          "name": "A#5",
          "midi": 82,
          "time": 251,
          "velocity": 0.7874015748031497,
          "duration": 0.5
        },
        {
          "name": "G#5",
          "midi": 80,
          "time": 251.5,
          "velocity": 0.7874015748031497,
          "duration": 0.5
        },
        {
          "name": "A#5",
          "midi": 82,
          "time": 252,
          "velocity": 0.7874015748031497,
          "duration": 0.5
        },
        {
          "name": "C6",
          "midi": 84,
          "time": 252.5,
          "velocity": 0.7874015748031497,
          "duration": 1
        },
        {
          "name": "F5",
          "midi": 77,
          "time": 253.5,
          "velocity": 0.7874015748031497,
          "duration": 1
        },
        {
          "name": "F5",
          "midi": 77,
          "time": 254.5,
          "velocity": 0.7874015748031497,
          "duration": 0.5
        },
        {
          "name": "F5",
          "midi": 77,
          "time": 255,
          "velocity": 0.7874015748031497,
          "duration": 0.5
        },
        {
          "name": "F5",
          "midi": 77,
          "time": 255.5,
          "velocity": 0.7874015748031497,
          "duration": 0.5
        },
        {
          "name": "D#5",
          "midi": 75,
          "time": 256,
          "velocity": 0.7874015748031497,
          "duration": 0.5
        },
        {
          "name": "F5",
          "midi": 77,
          "time": 256.5,
          "velocity": 0.7874015748031497,
          "duration": 1
        },
        {
          "name": "G#5",
          "midi": 80,
          "time": 257.5,
          "velocity": 0.7874015748031497,
          "duration": 1
        },
        {
          "name": "G#5",
          "midi": 80,
          "time": 258.5,
          "velocity": 0.7874015748031497,
          "duration": 2
        },
        {
          "name": "F6",
          "midi": 89,
          "time": 260.5,
          "velocity": 0.7874015748031497,
          "duration": 0.5
        },
        {
          "name": "F6",
          "midi": 89,
          "time": 261,
          "velocity": 0.7874015748031497,
          "duration": 0.5
        },
        {
          "name": "F6",
          "midi": 89,
          "time": 261.5,
          "velocity": 0.7874015748031497,
          "duration": 1
        },
        {
          "name": "D#6",
          "midi": 87,
          "time": 262.5,
          "velocity": 0.7874015748031497,
          "duration": 0.5
        },
        {
          "name": "C6",
          "midi": 84,
          "time": 263,
          "velocity": 0.7874015748031497,
          "duration": 0.5
        },
        {
          "name": "A#5",
          "midi": 82,
          "time": 263.5,
          "velocity": 0.7874015748031497,
          "duration": 0.5
        },
        {
          "name": "G#5",
          "midi": 80,
          "time": 264,
          "velocity": 0.7874015748031497,
          "duration": 0.5
        },
        {
          "name": "A#5",
          "midi": 82,
          "time": 264.5,
          "velocity": 0.7874015748031497,
          "duration": 0.5
        },
        {
          "name": "C6",
          "midi": 84,
          "time": 265,
          "velocity": 0.7874015748031497,
          "duration": 0.5
        },
        {
          "name": "A#5",
          "midi": 82,
          "time": 265.5,
          "velocity": 0.7874015748031497,
          "duration": 1
        },
        {
          "name": "A#5",
          "midi": 82,
          "time": 266.5,
          "velocity": 0.7874015748031497,
          "duration": 0.5
        },
        {
          "name": "C6",
          "midi": 84,
          "time": 267,
          "velocity": 0.7874015748031497,
          "duration": 0.5
        },
        {
          "name": "A#5",
          "midi": 82,
          "time": 267.5,
          "velocity": 0.7874015748031497,
          "duration": 1
        },
        {
          "name": "F6",
          "midi": 89,
          "time": 268.5,
          "velocity": 0.7874015748031497,
          "duration": 0.5
        },
        {
          "name": "F6",
          "midi": 89,
          "time": 269,
          "velocity": 0.7874015748031497,
          "duration": 0.5
        },
        {
          "name": "F6",
          "midi": 89,
          "time": 269.5,
          "velocity": 0.7874015748031497,
          "duration": 1
        },
        {
          "name": "D#6",
          "midi": 87,
          "time": 270.5,
          "velocity": 0.7874015748031497,
          "duration": 0.5
        },
        {
          "name": "C6",
          "midi": 84,
          "time": 271,
          "velocity": 0.7874015748031497,
          "duration": 0.5
        },
        {
          "name": "A#5",
          "midi": 82,
          "time": 271.5,
          "velocity": 0.7874015748031497,
          "duration": 0.5
        },
        {
          "name": "G#5",
          "midi": 80,
          "time": 272,
          "velocity": 0.7874015748031497,
          "duration": 0.5
        },
        {
          "name": "G6",
          "midi": 91,
          "time": 272.5,
          "velocity": 0.7874015748031497,
          "duration": 0.5
        },
        {
          "name": "G#6",
          "midi": 92,
          "time": 273,
          "velocity": 0.7874015748031497,
          "duration": 0.5
        },
        {
          "name": "G6",
          "midi": 91,
          "time": 273.5,
          "velocity": 0.7874015748031497,
          "duration": 1
        },
        {
          "name": "G6",
          "midi": 91,
          "time": 274.5,
          "velocity": 0.7874015748031497,
          "duration": 0.5
        },
        {
          "name": "G#6",
          "midi": 92,
          "time": 275,
          "velocity": 0.7874015748031497,
          "duration": 0.5
        },
        {
          "name": "G6",
          "midi": 91,
          "time": 275.5,
          "velocity": 0.7874015748031497,
          "duration": 1
        },
        {
          "name": "F6",
          "midi": 89,
          "time": 277.5,
          "velocity": 0.7874015748031497,
          "duration": 1
        },
        {
          "name": "F6",
          "midi": 89,
          "time": 278.5,
          "velocity": 0.7874015748031497,
          "duration": 0.5
        },
        {
          "name": "D#6",
          "midi": 87,
          "time": 279,
          "velocity": 0.7874015748031497,
          "duration": 0.5
        },
        {
          "name": "C6",
          "midi": 84,
          "time": 279.5,
          "velocity": 0.7874015748031497,
          "duration": 0.5
        },
        {
          "name": "A#5",
          "midi": 82,
          "time": 280,
          "velocity": 0.7874015748031497,
          "duration": 0.5
        },
        {
          "name": "D#6",
          "midi": 87,
          "time": 280.5,
          "velocity": 0.7874015748031497,
          "duration": 1
        },
        {
          "name": "A#5",
          "midi": 82,
          "time": 281.5,
          "velocity": 0.7874015748031497,
          "duration": 1
        },
        {
          "name": "G#5",
          "midi": 80,
          "time": 282.5,
          "velocity": 0.7874015748031497,
          "duration": 0.5
        },
        {
          "name": "A#5",
          "midi": 82,
          "time": 283,
          "velocity": 0.7874015748031497,
          "duration": 0.5
        },
        {
          "name": "G#5",
          "midi": 80,
          "time": 283.5,
          "velocity": 0.7874015748031497,
          "duration": 0.5
        },
        {
          "name": "A#5",
          "midi": 82,
          "time": 284,
          "velocity": 0.7874015748031497,
          "duration": 0.5
        },
        {
          "name": "C6",
          "midi": 84,
          "time": 284.5,
          "velocity": 0.7874015748031497,
          "duration": 1
        },
        {
          "name": "F5",
          "midi": 77,
          "time": 285.5,
          "velocity": 0.7874015748031497,
          "duration": 1
        },
        {
          "name": "F5",
          "midi": 77,
          "time": 286.5,
          "velocity": 0.7874015748031497,
          "duration": 0.5
        },
        {
          "name": "F5",
          "midi": 77,
          "time": 287,
          "velocity": 0.7874015748031497,
          "duration": 0.5
        },
        {
          "name": "F5",
          "midi": 77,
          "time": 287.5,
          "velocity": 0.7874015748031497,
          "duration": 0.5
        },
        {
          "name": "D#5",
          "midi": 75,
          "time": 288,
          "velocity": 0.7874015748031497,
          "duration": 0.5
        },
        {
          "name": "F5",
          "midi": 77,
          "time": 288.5,
          "velocity": 0.7874015748031497,
          "duration": 1
        },
        {
          "name": "F5",
          "midi": 77,
          "time": 289.5,
          "velocity": 0.7874015748031497,
          "duration": 1
        },
        {
          "name": "F5",
          "midi": 77,
          "time": 290.5,
          "velocity": 0.7874015748031497,
          "duration": 1
        },
        {
          "name": "C5",
          "midi": 72,
          "time": 291.5,
          "velocity": 0.7874015748031497,
          "duration": 1
        },
        {
          "name": "C4",
          "midi": 60,
          "time": 291.5,
          "velocity": 0.7874015748031497,
          "duration": 1
        },
        {
          "name": "G#4",
          "midi": 68,
          "time": 292.5,
          "velocity": 0.7874015748031497,
          "duration": 4
        },
        {
          "name": "G#3",
          "midi": 56,
          "time": 292.5,
          "velocity": 0.7874015748031497,
          "duration": 4
        },
        {
          "name": "G#5",
          "midi": 80,
          "time": 293.5,
          "velocity": 0.7874015748031497,
          "duration": 0.5
        },
        {
          "name": "C6",
          "midi": 84,
          "time": 294,
          "velocity": 0.7874015748031497,
          "duration": 0.5
        },
        {
          "name": "D#6",
          "midi": 87,
          "time": 294.5,
          "velocity": 0.7874015748031497,
          "duration": 3
        },
        {
          "name": "A#5",
          "midi": 82,
          "time": 294.5,
          "velocity": 0.7874015748031497,
          "duration": 3
        },
        {
          "name": "C6",
          "midi": 84,
          "time": 297.5,
          "velocity": 0.7874015748031497,
          "duration": 0.25
        },
        {
          "name": "G#5",
          "midi": 80,
          "time": 297.5,
          "velocity": 0.7874015748031497,
          "duration": 1
        },
        {
          "name": "C#6",
          "midi": 85,
          "time": 297.75,
          "velocity": 0.7874015748031497,
          "duration": 0.75
        },
        {
          "name": "A#5",
          "midi": 82,
          "time": 298.5,
          "velocity": 0.7874015748031497,
          "duration": 1
        },
        {
          "name": "G#5",
          "midi": 80,
          "time": 299.5,
          "velocity": 0.7874015748031497,
          "duration": 1
        },
        {
          "name": "G5",
          "midi": 79,
          "time": 300.5,
          "velocity": 0.7874015748031497,
          "duration": 2
        },
        {
          "name": "D#5",
          "midi": 75,
          "time": 300.5,
          "velocity": 0.7874015748031497,
          "duration": 2
        },
        {
          "name": "D#5",
          "midi": 75,
          "time": 303,
          "velocity": 0.7874015748031497,
          "duration": 1.5
        },
        {
          "name": "G5",
          "midi": 79,
          "time": 303.5,
          "velocity": 0.7874015748031497,
          "duration": 1.5
        },
        {
          "name": "G#5",
          "midi": 80,
          "time": 304,
          "velocity": 0.7874015748031497,
          "duration": 1.25
        },
        {
          "name": "A#5",
          "midi": 82,
          "time": 304.25,
          "velocity": 0.7874015748031497,
          "duration": 1.25
        },
        {
          "name": "D#5",
          "midi": 75,
          "time": 305.1666666666667,
          "velocity": 0.7874015748031497,
          "duration": 3.3333333333333712
        },
        {
          "name": "A#5",
          "midi": 82,
          "time": 305.8333333333333,
          "velocity": 0.7874015748031497,
          "duration": 2.6666666666667425
        },
        {
          "name": "C6",
          "midi": 84,
          "time": 306.5,
          "velocity": 0.7874015748031497,
          "duration": 2.000000000000057
        },
        {
          "name": "D#6",
          "midi": 87,
          "time": 307.1666666666667,
          "velocity": 0.7874015748031497,
          "duration": 1.3333333333333712
        },
        {
          "name": "F6",
          "midi": 89,
          "time": 307.83333333333337,
          "velocity": 0.7874015748031497,
          "duration": 0.6666666666666856
        },
        {
          "name": "D#6",
          "midi": 87,
          "time": 308.50000000000006,
          "velocity": 0.7874015748031497,
          "duration": 1.6666666666666856
        },
        {
          "name": "G6",
          "midi": 91,
          "time": 308.50000000000006,
          "velocity": 0.7874015748031497,
          "duration": 3
        },
        {
          "name": "D#6",
          "midi": 87,
          "time": 310.16666666666674,
          "velocity": 0.7874015748031497,
          "duration": 2.3333333333333144
        },
        {
          "name": "C6",
          "midi": 84,
          "time": 311.50000000000006,
          "velocity": 0.7874015748031497,
          "duration": 1
        },
        {
          "name": "C6",
          "midi": 84,
          "time": 314.50000000000006,
          "velocity": 0.7874015748031497,
          "duration": 0.75
        },
        {
          "name": "A#5",
          "midi": 82,
          "time": 315.25000000000006,
          "velocity": 0.7874015748031497,
          "duration": 0.75
        },
        {
          "name": "G#5",
          "midi": 80,
          "time": 316.00000000000006,
          "velocity": 0.7874015748031497,
          "duration": 0.25
        },
        {
          "name": "A#5",
          "midi": 82,
          "time": 316.25000000000006,
          "velocity": 0.7874015748031497,
          "duration": 0.25
        },
        {
          "name": "C6",
          "midi": 84,
          "time": 316.50000000000006,
          "velocity": 0.7874015748031497,
          "duration": 1
        },
        {
          "name": "C5",
          "midi": 72,
          "time": 316.50000000000006,
          "velocity": 0.7874015748031497,
          "duration": 1
        },
        {
          "name": "A#5",
          "midi": 82,
          "time": 316.50000000000006,
          "velocity": 0.7874015748031497,
          "duration": 1
        },
        {
          "name": "D#6",
          "midi": 87,
          "time": 317.50000000000006,
          "velocity": 0.7874015748031497,
          "duration": 1
        },
        {
          "name": "D#5",
          "midi": 75,
          "time": 317.50000000000006,
          "velocity": 0.7874015748031497,
          "duration": 1
        },
        {
          "name": "G#5",
          "midi": 80,
          "time": 317.50000000000006,
          "velocity": 0.7874015748031497,
          "duration": 1
        },
        {
          "name": "C6",
          "midi": 84,
          "time": 317.50000000000006,
          "velocity": 0.7874015748031497,
          "duration": 1
        },
        {
          "name": "C5",
          "midi": 72,
          "time": 318.50000000000006,
          "velocity": 0.7874015748031497,
          "duration": 0.5
        },
        {
          "name": "C6",
          "midi": 84,
          "time": 318.50000000000006,
          "velocity": 0.7874015748031497,
          "duration": 1.5
        },
        {
          "name": "G#5",
          "midi": 80,
          "time": 318.50000000000006,
          "velocity": 0.7874015748031497,
          "duration": 1.5
        },
        {
          "name": "D#5",
          "midi": 75,
          "time": 319.00000000000006,
          "velocity": 0.7874015748031497,
          "duration": 1
        },
        {
          "name": "D#6",
          "midi": 87,
          "time": 319.00000000000006,
          "velocity": 0.7874015748031497,
          "duration": 1
        },
        {
          "name": "F6",
          "midi": 89,
          "time": 320.00000000000006,
          "velocity": 0.7874015748031497,
          "duration": 2.5
        },
        {
          "name": "C6",
          "midi": 84,
          "time": 320.00000000000006,
          "velocity": 0.7874015748031497,
          "duration": 2.5
        },
        {
          "name": "F5",
          "midi": 77,
          "time": 320.00000000000006,
          "velocity": 0.7874015748031497,
          "duration": 2.5
        },
        {
          "name": "A5",
          "midi": 81,
          "time": 320.00000000000006,
          "velocity": 0.7874015748031497,
          "duration": 2.5
        },
        {
          "name": "F6",
          "midi": 89,
          "time": 322.50000000000006,
          "velocity": 0.7874015748031497,
          "duration": 0.75
        },
        {
          "name": "F5",
          "midi": 77,
          "time": 322.50000000000006,
          "velocity": 0.7874015748031497,
          "duration": 0.75
        },
        {
          "name": "F6",
          "midi": 89,
          "time": 323.25000000000006,
          "velocity": 0.7874015748031497,
          "duration": 0.5
        },
        {
          "name": "F5",
          "midi": 77,
          "time": 323.25000000000006,
          "velocity": 0.7874015748031497,
          "duration": 0.5
        },
        {
          "name": "F6",
          "midi": 89,
          "time": 324.00000000000006,
          "velocity": 0.7874015748031497,
          "duration": 0.25
        },
        {
          "name": "F5",
          "midi": 77,
          "time": 324.00000000000006,
          "velocity": 0.7874015748031497,
          "duration": 0.25
        },
        {
          "name": "D#6",
          "midi": 87,
          "time": 324.25000000000006,
          "velocity": 0.7874015748031497,
          "duration": 0.25
        },
        {
          "name": "D#5",
          "midi": 75,
          "time": 324.25000000000006,
          "velocity": 0.7874015748031497,
          "duration": 0.25
        },
        {
          "name": "C6",
          "midi": 84,
          "time": 324.50000000000006,
          "velocity": 0.7874015748031497,
          "duration": 1
        },
        {
          "name": "C5",
          "midi": 72,
          "time": 324.50000000000006,
          "velocity": 0.7874015748031497,
          "duration": 1
        },
        {
          "name": "F5",
          "midi": 77,
          "time": 325.50000000000006,
          "velocity": 0.7874015748031497,
          "duration": 1
        },
        {
          "name": "C#5",
          "midi": 73,
          "time": 325.50000000000006,
          "velocity": 0.7874015748031497,
          "duration": 1
        },
        {
          "name": "F5",
          "midi": 77,
          "time": 326.50000000000006,
          "velocity": 0.7874015748031497,
          "duration": 0.5
        },
        {
          "name": "G#5",
          "midi": 80,
          "time": 327.00000000000006,
          "velocity": 0.7874015748031497,
          "duration": 0.5
        },
        {
          "name": "A#5",
          "midi": 82,
          "time": 327.50000000000006,
          "velocity": 0.7874015748031497,
          "duration": 0.5
        },
        {
          "name": "C6",
          "midi": 84,
          "time": 328.00000000000006,
          "velocity": 0.7874015748031497,
          "duration": 2.5
        },
        {
          "name": "G#5",
          "midi": 80,
          "time": 328.00000000000006,
          "velocity": 0.7874015748031497,
          "duration": 2.5
        },
        {
          "name": "C5",
          "midi": 72,
          "time": 328.00000000000006,
          "velocity": 0.7874015748031497,
          "duration": 2.5
        },
        {
          "name": "F5",
          "midi": 77,
          "time": 331.50000000000006,
          "velocity": 0.7874015748031497,
          "duration": 2
        },
        {
          "name": "G#4",
          "midi": 68,
          "time": 331.50000000000006,
          "velocity": 0.7874015748031497,
          "duration": 2
        },
        {
          "name": "G#5",
          "midi": 80,
          "time": 332.00000000000006,
          "velocity": 0.7874015748031497,
          "duration": 1.5
        },
        {
          "name": "D#5",
          "midi": 75,
          "time": 333.50000000000006,
          "velocity": 0.7874015748031497,
          "duration": 2
        },
        {
          "name": "D#4",
          "midi": 63,
          "time": 333.50000000000006,
          "velocity": 0.7874015748031497,
          "duration": 2
        },
        {
          "name": "G5",
          "midi": 79,
          "time": 334.00000000000006,
          "velocity": 0.7874015748031497,
          "duration": 1.5
        },
        {
          "name": "G4",
          "midi": 67,
          "time": 334.00000000000006,
          "velocity": 0.7874015748031497,
          "duration": 1.5
        },
        {
          "name": "G#5",
          "midi": 80,
          "time": 335.50000000000006,
          "velocity": 0.7874015748031497,
          "duration": 1
        },
        {
          "name": "G#4",
          "midi": 68,
          "time": 335.50000000000006,
          "velocity": 0.7874015748031497,
          "duration": 1
        },
        {
          "name": "A5",
          "midi": 81,
          "time": 336.50000000000006,
          "velocity": 0.7874015748031497,
          "duration": 0.75
        },
        {
          "name": "A4",
          "midi": 69,
          "time": 336.50000000000006,
          "velocity": 0.7874015748031497,
          "duration": 0.75
        },
        {
          "name": "A#5",
          "midi": 82,
          "time": 337.25000000000006,
          "velocity": 0.7874015748031497,
          "duration": 0.75
        },
        {
          "name": "A#4",
          "midi": 70,
          "time": 337.25000000000006,
          "velocity": 0.7874015748031497,
          "duration": 0.75
        },
        {
          "name": "B5",
          "midi": 83,
          "time": 338.00000000000006,
          "velocity": 0.7874015748031497,
          "duration": 0.75
        },
        {
          "name": "B4",
          "midi": 71,
          "time": 338.00000000000006,
          "velocity": 0.7874015748031497,
          "duration": 0.75
        },
        {
          "name": "C6",
          "midi": 84,
          "time": 338.75000000000006,
          "velocity": 0.7874015748031497,
          "duration": 0.5
        },
        {
          "name": "C5",
          "midi": 72,
          "time": 338.75000000000006,
          "velocity": 0.7874015748031497,
          "duration": 0.5
        },
        {
          "name": "C#6",
          "midi": 85,
          "time": 339.25000000000006,
          "velocity": 0.7874015748031497,
          "duration": 0.5
        },
        {
          "name": "C#5",
          "midi": 73,
          "time": 339.25000000000006,
          "velocity": 0.7874015748031497,
          "duration": 0.5
        },
        {
          "name": "D#6",
          "midi": 87,
          "time": 339.75000000000006,
          "velocity": 0.7874015748031497,
          "duration": 0.5
        },
        {
          "name": "D#5",
          "midi": 75,
          "time": 339.75000000000006,
          "velocity": 0.7874015748031497,
          "duration": 0.5
        },
        {
          "name": "E6",
          "midi": 88,
          "time": 340.25000000000006,
          "velocity": 0.7874015748031497,
          "duration": 0.25
        },
        {
          "name": "E5",
          "midi": 76,
          "time": 340.25000000000006,
          "velocity": 0.7874015748031497,
          "duration": 0.25
        },
        {
          "name": "F6",
          "midi": 89,
          "time": 340.50000000000006,
          "velocity": 0.7874015748031497,
          "duration": 3
        },
        {
          "name": "F5",
          "midi": 77,
          "time": 340.50000000000006,
          "velocity": 0.7874015748031497,
          "duration": 3
        },
        {
          "name": "G#6",
          "midi": 92,
          "time": 343.50000000000006,
          "velocity": 0.7874015748031497,
          "duration": 0.5
        },
        {
          "name": "G#5",
          "midi": 80,
          "time": 343.50000000000006,
          "velocity": 0.7874015748031497,
          "duration": 0.5
        },
        {
          "name": "G#5",
          "midi": 80,
          "time": 344.00000000000006,
          "velocity": 0.7874015748031497,
          "duration": 3.5
        },
        {
          "name": "D#6",
          "midi": 87,
          "time": 344.00000000000006,
          "velocity": 0.7874015748031497,
          "duration": 3.5
        },
        {
          "name": "D#5",
          "midi": 75,
          "time": 344.00000000000006,
          "velocity": 0.7874015748031497,
          "duration": 3.5
        },
        {
          "name": "A#6",
          "midi": 94,
          "time": 347.50000000000006,
          "velocity": 0.7874015748031497,
          "duration": 0.5
        },
        {
          "name": "A#5",
          "midi": 82,
          "time": 347.50000000000006,
          "velocity": 0.7874015748031497,
          "duration": 0.5
        },
        {
          "name": "G#6",
          "midi": 92,
          "time": 348.00000000000006,
          "velocity": 0.7874015748031497,
          "duration": 1
        },
        {
          "name": "G#5",
          "midi": 80,
          "time": 348.00000000000006,
          "velocity": 0.7874015748031497,
          "duration": 1
        },
        {
          "name": "A#6",
          "midi": 94,
          "time": 349.50000000000006,
          "velocity": 0.7874015748031497,
          "duration": 0.5
        },
        {
          "name": "A#5",
          "midi": 82,
          "time": 349.50000000000006,
          "velocity": 0.7874015748031497,
          "duration": 0.5
        },
        {
          "name": "G#6",
          "midi": 92,
          "time": 349.50000000000006,
          "velocity": 0.5196850393700787,
          "duration": 0.5
        },
        {
          "name": "G#6",
          "midi": 92,
          "time": 350.00000000000006,
          "velocity": 0.7874015748031497,
          "duration": 1
        },
        {
          "name": "G#5",
          "midi": 80,
          "time": 350.00000000000006,
          "velocity": 0.7874015748031497,
          "duration": 1
        },
        {
          "name": "D#6",
          "midi": 87,
          "time": 350.00000000000006,
          "velocity": 0.49606299212598426,
          "duration": 1
        },
        {
          "name": "A#6",
          "midi": 94,
          "time": 351.50000000000006,
          "velocity": 0.7874015748031497,
          "duration": 0.5
        },
        {
          "name": "A#5",
          "midi": 82,
          "time": 351.50000000000006,
          "velocity": 0.7874015748031497,
          "duration": 0.5
        },
        {
          "name": "C7",
          "midi": 96,
          "time": 352.00000000000006,
          "velocity": 0.7874015748031497,
          "duration": 1
        },
        {
          "name": "C6",
          "midi": 84,
          "time": 352.00000000000006,
          "velocity": 0.7874015748031497,
          "duration": 1
        },
        {
          "name": "A#6",
          "midi": 94,
          "time": 352.00000000000006,
          "velocity": 0.6062992125984252,
          "duration": 1
        },
        {
          "name": "A#6",
          "midi": 94,
          "time": 353.00000000000006,
          "velocity": 0.7874015748031497,
          "duration": 1
        },
        {
          "name": "A#5",
          "midi": 82,
          "time": 353.00000000000006,
          "velocity": 0.7874015748031497,
          "duration": 1
        },
        {
          "name": "G#6",
          "midi": 92,
          "time": 353.00000000000006,
          "velocity": 0.4409448818897638,
          "duration": 1
        },
        {
          "name": "F6",
          "midi": 89,
          "time": 354.00000000000006,
          "velocity": 0.7874015748031497,
          "duration": 0.5
        },
        {
          "name": "F5",
          "midi": 77,
          "time": 354.00000000000006,
          "velocity": 0.7874015748031497,
          "duration": 0.5
        },
        {
          "name": "G#6",
          "midi": 92,
          "time": 354.50000000000006,
          "velocity": 0.7874015748031497,
          "duration": 2
        },
        {
          "name": "G#5",
          "midi": 80,
          "time": 354.50000000000006,
          "velocity": 0.7874015748031497,
          "duration": 2
        },
        {
          "name": "A#4",
          "midi": 70,
          "time": 355.50000000000006,
          "velocity": 0.7874015748031497,
          "duration": 0.5
        },
        {
          "name": "G#4",
          "midi": 68,
          "time": 356.00000000000006,
          "velocity": 0.7874015748031497,
          "duration": 0.5
        },
        {
          "name": "A#4",
          "midi": 70,
          "time": 356.50000000000006,
          "velocity": 0.7874015748031497,
          "duration": 16
        },
        {
          "name": "A#4",
          "midi": 70,
          "time": 373.50000000000006,
          "velocity": 0.7874015748031497,
          "duration": 0.5
        },
        {
          "name": "A#4",
          "midi": 70,
          "time": 374.00000000000006,
          "velocity": 0.7874015748031497,
          "duration": 0.5
        },
        {
          "name": "A#4",
          "midi": 70,
          "time": 374.50000000000006,
          "velocity": 0.7874015748031497,
          "duration": 0.5
        },
        {
          "name": "B4",
          "midi": 71,
          "time": 375.00000000000006,
          "velocity": 0.7874015748031497,
          "duration": 0.5
        },
        {
          "name": "C#5",
          "midi": 73,
          "time": 375.50000000000006,
          "velocity": 0.7874015748031497,
          "duration": 0.5
        },
        {
          "name": "D#5",
          "midi": 75,
          "time": 376.00000000000006,
          "velocity": 0.7874015748031497,
          "duration": 0.5
        },
        {
          "name": "F5",
          "midi": 77,
          "time": 376.50000000000006,
          "velocity": 0.7874015748031497,
          "duration": 1
        },
        {
          "name": "F#5",
          "midi": 78,
          "time": 377.50000000000006,
          "velocity": 0.7874015748031497,
          "duration": 1
        },
        {
          "name": "C#5",
          "midi": 73,
          "time": 378.50000000000006,
          "velocity": 0.7874015748031497,
          "duration": 1
        },
        {
          "name": "B4",
          "midi": 71,
          "time": 379.50000000000006,
          "velocity": 0.7874015748031497,
          "duration": 1
        },
        {
          "name": "A#4",
          "midi": 70,
          "time": 380.50000000000006,
          "velocity": 0.7874015748031497,
          "duration": 5
        },
        {
          "name": "A#4",
          "midi": 70,
          "time": 386.00000000000006,
          "velocity": 0.7874015748031497,
          "duration": 1.5
        },
        {
          "name": "G#4",
          "midi": 68,
          "time": 387.50000000000006,
          "velocity": 0.7874015748031497,
          "duration": 0.5
        },
        {
          "name": "G4",
          "midi": 67,
          "time": 388.00000000000006,
          "velocity": 0.7874015748031497,
          "duration": 0.5
        },
        {
          "name": "F#4",
          "midi": 66,
          "time": 388.50000000000006,
          "velocity": 0.7874015748031497,
          "duration": 26.5
        },
        {
          "name": "A#4",
          "midi": 70,
          "time": 415.00000000000006,
          "velocity": 0.7874015748031497,
          "duration": 0.5
        },
        {
          "name": "G#4",
          "midi": 68,
          "time": 415.50000000000006,
          "velocity": 0.7874015748031497,
          "duration": 0.5
        },
        {
          "name": "F#4",
          "midi": 66,
          "time": 416.00000000000006,
          "velocity": 0.7874015748031497,
          "duration": 0.5
        },
        {
          "name": "D#4",
          "midi": 63,
          "time": 416.50000000000006,
          "velocity": 0.7874015748031497,
          "duration": 1
        },
        {
          "name": "A#3",
          "midi": 58,
          "time": 416.50000000000006,
          "velocity": 0.7874015748031497,
          "duration": 1
        },
        {
          "name": "D#4",
          "midi": 63,
          "time": 417.50000000000006,
          "velocity": 0.7874015748031497,
          "duration": 0.5
        },
        {
          "name": "A#3",
          "midi": 58,
          "time": 417.50000000000006,
          "velocity": 0.7874015748031497,
          "duration": 0.5
        },
        {
          "name": "D#4",
          "midi": 63,
          "time": 418.00000000000006,
          "velocity": 0.7874015748031497,
          "duration": 0.5
        },
        {
          "name": "A#3",
          "midi": 58,
          "time": 418.00000000000006,
          "velocity": 0.7874015748031497,
          "duration": 0.5
        },
        {
          "name": "D#4",
          "midi": 63,
          "time": 418.50000000000006,
          "velocity": 0.7874015748031497,
          "duration": 2
        },
        {
          "name": "A#3",
          "midi": 58,
          "time": 418.50000000000006,
          "velocity": 0.7874015748031497,
          "duration": 2
        },
        {
          "name": "F#6",
          "midi": 90,
          "time": 420.50000000000006,
          "velocity": 0.7874015748031497,
          "duration": 0.5
        },
        {
          "name": "F#6",
          "midi": 90,
          "time": 421.00000000000006,
          "velocity": 0.7874015748031497,
          "duration": 0.5
        },
        {
          "name": "F#6",
          "midi": 90,
          "time": 421.50000000000006,
          "velocity": 0.7874015748031497,
          "duration": 1
        },
        {
          "name": "E6",
          "midi": 88,
          "time": 422.50000000000006,
          "velocity": 0.7874015748031497,
          "duration": 0.5
        },
        {
          "name": "C#6",
          "midi": 85,
          "time": 423.00000000000006,
          "velocity": 0.7874015748031497,
          "duration": 0.5
        },
        {
          "name": "B5",
          "midi": 83,
          "time": 423.50000000000006,
          "velocity": 0.7874015748031497,
          "duration": 0.5
        },
        {
          "name": "A5",
          "midi": 81,
          "time": 424.00000000000006,
          "velocity": 0.7874015748031497,
          "duration": 0.5
        },
        {
          "name": "B5",
          "midi": 83,
          "time": 424.50000000000006,
          "velocity": 0.7874015748031497,
          "duration": 0.5
        },
        {
          "name": "C#6",
          "midi": 85,
          "time": 425.00000000000006,
          "velocity": 0.7874015748031497,
          "duration": 0.5
        },
        {
          "name": "B5",
          "midi": 83,
          "time": 425.50000000000006,
          "velocity": 0.7874015748031497,
          "duration": 1
        },
        {
          "name": "B5",
          "midi": 83,
          "time": 426.50000000000006,
          "velocity": 0.7874015748031497,
          "duration": 0.5
        },
        {
          "name": "C#6",
          "midi": 85,
          "time": 427.00000000000006,
          "velocity": 0.7874015748031497,
          "duration": 0.5
        },
        {
          "name": "B5",
          "midi": 83,
          "time": 427.50000000000006,
          "velocity": 0.7874015748031497,
          "duration": 1
        },
        {
          "name": "F#6",
          "midi": 90,
          "time": 428.50000000000006,
          "velocity": 0.7874015748031497,
          "duration": 0.5
        },
        {
          "name": "F#6",
          "midi": 90,
          "time": 429.00000000000006,
          "velocity": 0.7874015748031497,
          "duration": 0.5
        },
        {
          "name": "F#6",
          "midi": 90,
          "time": 429.50000000000006,
          "velocity": 0.7874015748031497,
          "duration": 1
        },
        {
          "name": "E6",
          "midi": 88,
          "time": 430.50000000000006,
          "velocity": 0.7874015748031497,
          "duration": 0.5
        },
        {
          "name": "C#6",
          "midi": 85,
          "time": 431.00000000000006,
          "velocity": 0.7874015748031497,
          "duration": 0.5
        },
        {
          "name": "B5",
          "midi": 83,
          "time": 431.50000000000006,
          "velocity": 0.7874015748031497,
          "duration": 0.5
        },
        {
          "name": "A5",
          "midi": 81,
          "time": 432.00000000000006,
          "velocity": 0.7874015748031497,
          "duration": 0.5
        },
        {
          "name": "G#6",
          "midi": 92,
          "time": 432.50000000000006,
          "velocity": 0.7874015748031497,
          "duration": 0.5
        },
        {
          "name": "A6",
          "midi": 93,
          "time": 433.00000000000006,
          "velocity": 0.7874015748031497,
          "duration": 0.5
        },
        {
          "name": "G#6",
          "midi": 92,
          "time": 433.50000000000006,
          "velocity": 0.7874015748031497,
          "duration": 1
        },
        {
          "name": "G#6",
          "midi": 92,
          "time": 434.50000000000006,
          "velocity": 0.7874015748031497,
          "duration": 0.5
        },
        {
          "name": "A6",
          "midi": 93,
          "time": 435.00000000000006,
          "velocity": 0.7874015748031497,
          "duration": 0.5
        },
        {
          "name": "G#6",
          "midi": 92,
          "time": 435.50000000000006,
          "velocity": 0.7874015748031497,
          "duration": 1
        },
        {
          "name": "F#6",
          "midi": 90,
          "time": 437.50000000000006,
          "velocity": 0.7874015748031497,
          "duration": 0.5
        },
        {
          "name": "F#6",
          "midi": 90,
          "time": 438.00000000000006,
          "velocity": 0.7874015748031497,
          "duration": 1
        },
        {
          "name": "E6",
          "midi": 88,
          "time": 439.00000000000006,
          "velocity": 0.7874015748031497,
          "duration": 0.5
        },
        {
          "name": "C#6",
          "midi": 85,
          "time": 439.50000000000006,
          "velocity": 0.7874015748031497,
          "duration": 0.5
        },
        {
          "name": "B5",
          "midi": 83,
          "time": 440.00000000000006,
          "velocity": 0.7874015748031497,
          "duration": 0.5
        },
        {
          "name": "E6",
          "midi": 88,
          "time": 440.50000000000006,
          "velocity": 0.7874015748031497,
          "duration": 1
        },
        {
          "name": "B5",
          "midi": 83,
          "time": 441.50000000000006,
          "velocity": 0.7874015748031497,
          "duration": 1
        },
        {
          "name": "A5",
          "midi": 81,
          "time": 442.50000000000006,
          "velocity": 0.7874015748031497,
          "duration": 0.5
        },
        {
          "name": "B5",
          "midi": 83,
          "time": 443.00000000000006,
          "velocity": 0.7874015748031497,
          "duration": 0.5
        },
        {
          "name": "A5",
          "midi": 81,
          "time": 443.50000000000006,
          "velocity": 0.7874015748031497,
          "duration": 0.5
        },
        {
          "name": "B5",
          "midi": 83,
          "time": 444.00000000000006,
          "velocity": 0.7874015748031497,
          "duration": 0.5
        },
        {
          "name": "C#6",
          "midi": 85,
          "time": 444.50000000000006,
          "velocity": 0.7874015748031497,
          "duration": 1
        },
        {
          "name": "F#5",
          "midi": 78,
          "time": 445.50000000000006,
          "velocity": 0.7874015748031497,
          "duration": 1
        },
        {
          "name": "F#5",
          "midi": 78,
          "time": 446.50000000000006,
          "velocity": 0.7874015748031497,
          "duration": 0.5
        },
        {
          "name": "F#5",
          "midi": 78,
          "time": 447.00000000000006,
          "velocity": 0.7874015748031497,
          "duration": 0.5
        },
        {
          "name": "F#5",
          "midi": 78,
          "time": 447.50000000000006,
          "velocity": 0.7874015748031497,
          "duration": 0.5
        },
        {
          "name": "E5",
          "midi": 76,
          "time": 448.00000000000006,
          "velocity": 0.7874015748031497,
          "duration": 0.5
        },
        {
          "name": "F#5",
          "midi": 78,
          "time": 448.50000000000006,
          "velocity": 0.7874015748031497,
          "duration": 1
        },
        {
          "name": "A5",
          "midi": 81,
          "time": 449.50000000000006,
          "velocity": 0.7874015748031497,
          "duration": 1
        },
        {
          "name": "A5",
          "midi": 81,
          "time": 450.50000000000006,
          "velocity": 0.7874015748031497,
          "duration": 2
        },
        {
          "name": "F#6",
          "midi": 90,
          "time": 452.50000000000006,
          "velocity": 0.7874015748031497,
          "duration": 0.5
        },
        {
          "name": "F#6",
          "midi": 90,
          "time": 453.00000000000006,
          "velocity": 0.7874015748031497,
          "duration": 0.5
        },
        {
          "name": "F#6",
          "midi": 90,
          "time": 453.50000000000006,
          "velocity": 0.7874015748031497,
          "duration": 1
        },
        {
          "name": "E6",
          "midi": 88,
          "time": 454.50000000000006,
          "velocity": 0.7874015748031497,
          "duration": 0.5
        },
        {
          "name": "C#6",
          "midi": 85,
          "time": 455.00000000000006,
          "velocity": 0.7874015748031497,
          "duration": 0.5
        },
        {
          "name": "B5",
          "midi": 83,
          "time": 455.50000000000006,
          "velocity": 0.7874015748031497,
          "duration": 0.5
        },
        {
          "name": "A5",
          "midi": 81,
          "time": 456.00000000000006,
          "velocity": 0.7874015748031497,
          "duration": 0.5
        },
        {
          "name": "B5",
          "midi": 83,
          "time": 456.50000000000006,
          "velocity": 0.7874015748031497,
          "duration": 0.5
        },
        {
          "name": "C#6",
          "midi": 85,
          "time": 457.00000000000006,
          "velocity": 0.7874015748031497,
          "duration": 0.5
        },
        {
          "name": "B5",
          "midi": 83,
          "time": 457.50000000000006,
          "velocity": 0.7874015748031497,
          "duration": 1
        },
        {
          "name": "B5",
          "midi": 83,
          "time": 458.50000000000006,
          "velocity": 0.7874015748031497,
          "duration": 0.5
        },
        {
          "name": "C#6",
          "midi": 85,
          "time": 459.00000000000006,
          "velocity": 0.7874015748031497,
          "duration": 0.5
        },
        {
          "name": "B5",
          "midi": 83,
          "time": 459.50000000000006,
          "velocity": 0.7874015748031497,
          "duration": 1
        },
        {
          "name": "F#6",
          "midi": 90,
          "time": 460.50000000000006,
          "velocity": 0.7874015748031497,
          "duration": 0.5
        },
        {
          "name": "F#6",
          "midi": 90,
          "time": 461.00000000000006,
          "velocity": 0.7874015748031497,
          "duration": 0.5
        },
        {
          "name": "F#6",
          "midi": 90,
          "time": 461.50000000000006,
          "velocity": 0.7874015748031497,
          "duration": 1
        },
        {
          "name": "E6",
          "midi": 88,
          "time": 462.50000000000006,
          "velocity": 0.7874015748031497,
          "duration": 0.5
        },
        {
          "name": "C#6",
          "midi": 85,
          "time": 463.00000000000006,
          "velocity": 0.7874015748031497,
          "duration": 0.5
        },
        {
          "name": "B5",
          "midi": 83,
          "time": 463.50000000000006,
          "velocity": 0.7874015748031497,
          "duration": 0.5
        },
        {
          "name": "A5",
          "midi": 81,
          "time": 464.00000000000006,
          "velocity": 0.7874015748031497,
          "duration": 0.5
        },
        {
          "name": "G#6",
          "midi": 92,
          "time": 464.50000000000006,
          "velocity": 0.7874015748031497,
          "duration": 0.5
        },
        {
          "name": "A6",
          "midi": 93,
          "time": 465.00000000000006,
          "velocity": 0.7874015748031497,
          "duration": 0.5
        },
        {
          "name": "G#6",
          "midi": 92,
          "time": 465.50000000000006,
          "velocity": 0.7874015748031497,
          "duration": 1
        },
        {
          "name": "G#6",
          "midi": 92,
          "time": 466.50000000000006,
          "velocity": 0.7874015748031497,
          "duration": 0.5
        },
        {
          "name": "A6",
          "midi": 93,
          "time": 467.00000000000006,
          "velocity": 0.7874015748031497,
          "duration": 0.5
        },
        {
          "name": "G#6",
          "midi": 92,
          "time": 467.50000000000006,
          "velocity": 0.7874015748031497,
          "duration": 1
        },
        {
          "name": "A6",
          "midi": 93,
          "time": 469.00000000000006,
          "velocity": 0.7874015748031497,
          "duration": 1.5
        },
        {
          "name": "F#6",
          "midi": 90,
          "time": 470.50000000000006,
          "velocity": 0.7874015748031497,
          "duration": 0.5
        },
        {
          "name": "E6",
          "midi": 88,
          "time": 471.00000000000006,
          "velocity": 0.7874015748031497,
          "duration": 0.5
        },
        {
          "name": "C#6",
          "midi": 85,
          "time": 471.50000000000006,
          "velocity": 0.7874015748031497,
          "duration": 0.5
        },
        {
          "name": "B5",
          "midi": 83,
          "time": 472.00000000000006,
          "velocity": 0.7874015748031497,
          "duration": 0.5
        },
        {
          "name": "E6",
          "midi": 88,
          "time": 472.50000000000006,
          "velocity": 0.7874015748031497,
          "duration": 1
        },
        {
          "name": "B5",
          "midi": 83,
          "time": 473.50000000000006,
          "velocity": 0.7874015748031497,
          "duration": 1
        },
        {
          "name": "A5",
          "midi": 81,
          "time": 474.50000000000006,
          "velocity": 0.7874015748031497,
          "duration": 0.5
        },
        {
          "name": "B5",
          "midi": 83,
          "time": 475.00000000000006,
          "velocity": 0.7874015748031497,
          "duration": 0.5
        },
        {
          "name": "A5",
          "midi": 81,
          "time": 475.50000000000006,
          "velocity": 0.7874015748031497,
          "duration": 0.5
        },
        {
          "name": "B5",
          "midi": 83,
          "time": 476.00000000000006,
          "velocity": 0.7874015748031497,
          "duration": 0.5
        },
        {
          "name": "C#6",
          "midi": 85,
          "time": 476.50000000000006,
          "velocity": 0.7874015748031497,
          "duration": 1
        },
        {
          "name": "F#5",
          "midi": 78,
          "time": 477.50000000000006,
          "velocity": 0.7874015748031497,
          "duration": 1
        },
        {
          "name": "F#5",
          "midi": 78,
          "time": 478.50000000000006,
          "velocity": 0.7874015748031497,
          "duration": 0.5
        },
        {
          "name": "F#5",
          "midi": 78,
          "time": 479.00000000000006,
          "velocity": 0.7874015748031497,
          "duration": 0.5
        },
        {
          "name": "F#5",
          "midi": 78,
          "time": 479.50000000000006,
          "velocity": 0.7874015748031497,
          "duration": 0.5
        },
        {
          "name": "E5",
          "midi": 76,
          "time": 480.00000000000006,
          "velocity": 0.7874015748031497,
          "duration": 0.5
        },
        {
          "name": "F#5",
          "midi": 78,
          "time": 480.50000000000006,
          "velocity": 0.7874015748031497,
          "duration": 1
        },
        {
          "name": "F#5",
          "midi": 78,
          "time": 481.50000000000006,
          "velocity": 0.7874015748031497,
          "duration": 1
        },
        {
          "name": "F#5",
          "midi": 78,
          "time": 482.50000000000006,
          "velocity": 0.7874015748031497,
          "duration": 1
        },
        {
          "name": "C#5",
          "midi": 73,
          "time": 483.50000000000006,
          "velocity": 0.7874015748031497,
          "duration": 1
        },
        {
          "name": "C#4",
          "midi": 61,
          "time": 483.50000000000006,
          "velocity": 0.7874015748031497,
          "duration": 1
        },
        {
          "name": "A4",
          "midi": 69,
          "time": 484.50000000000006,
          "velocity": 0.7874015748031497,
          "duration": 2
        },
        {
          "name": "A3",
          "midi": 57,
          "time": 484.50000000000006,
          "velocity": 0.7874015748031497,
          "duration": 2
        },
        {
          "name": "F#5",
          "midi": 78,
          "time": 485.50000000000006,
          "velocity": 0.7874015748031497,
          "duration": 1
        },
        {
          "name": "F#4",
          "midi": 66,
          "time": 485.50000000000006,
          "velocity": 0.7874015748031497,
          "duration": 1
        },
        {
          "name": "E5",
          "midi": 76,
          "time": 486.50000000000006,
          "velocity": 0.7874015748031497,
          "duration": 0.5
        },
        {
          "name": "B4",
          "midi": 71,
          "time": 486.50000000000006,
          "velocity": 0.7874015748031497,
          "duration": 0.5
        },
        {
          "name": "C#5",
          "midi": 73,
          "time": 487.00000000000006,
          "velocity": 0.7874015748031497,
          "duration": 0.5
        },
        {
          "name": "A4",
          "midi": 69,
          "time": 487.00000000000006,
          "velocity": 0.7874015748031497,
          "duration": 0.5
        },
        {
          "name": "E5",
          "midi": 76,
          "time": 487.50000000000006,
          "velocity": 0.7874015748031497,
          "duration": 0.5
        },
        {
          "name": "B4",
          "midi": 71,
          "time": 487.50000000000006,
          "velocity": 0.7874015748031497,
          "duration": 0.5
        },
        {
          "name": "C#5",
          "midi": 73,
          "time": 488.00000000000006,
          "velocity": 0.7874015748031497,
          "duration": 0.5
        },
        {
          "name": "A4",
          "midi": 69,
          "time": 488.00000000000006,
          "velocity": 0.7874015748031497,
          "duration": 0.5
        },
        {
          "name": "E5",
          "midi": 76,
          "time": 488.50000000000006,
          "velocity": 0.7874015748031497,
          "duration": 0.5
        },
        {
          "name": "B4",
          "midi": 71,
          "time": 488.50000000000006,
          "velocity": 0.7874015748031497,
          "duration": 0.5
        },
        {
          "name": "C#5",
          "midi": 73,
          "time": 489.00000000000006,
          "velocity": 0.7874015748031497,
          "duration": 0.5
        },
        {
          "name": "A4",
          "midi": 69,
          "time": 489.00000000000006,
          "velocity": 0.7874015748031497,
          "duration": 0.5
        },
        {
          "name": "E5",
          "midi": 76,
          "time": 489.50000000000006,
          "velocity": 0.7874015748031497,
          "duration": 1
        },
        {
          "name": "B4",
          "midi": 71,
          "time": 489.50000000000006,
          "velocity": 0.7874015748031497,
          "duration": 1
        },
        {
          "name": "E5",
          "midi": 76,
          "time": 490.50000000000006,
          "velocity": 0.7874015748031497,
          "duration": 0.5
        },
        {
          "name": "B4",
          "midi": 71,
          "time": 490.50000000000006,
          "velocity": 0.7874015748031497,
          "duration": 0.5
        },
        {
          "name": "C#5",
          "midi": 73,
          "time": 491.00000000000006,
          "velocity": 0.7874015748031497,
          "duration": 0.5
        },
        {
          "name": "A4",
          "midi": 69,
          "time": 491.00000000000006,
          "velocity": 0.7874015748031497,
          "duration": 0.5
        },
        {
          "name": "E5",
          "midi": 76,
          "time": 491.50000000000006,
          "velocity": 0.7874015748031497,
          "duration": 1
        },
        {
          "name": "B4",
          "midi": 71,
          "time": 491.50000000000006,
          "velocity": 0.7874015748031497,
          "duration": 1
        },
        {
          "name": "E5",
          "midi": 76,
          "time": 492.50000000000006,
          "velocity": 0.7874015748031497,
          "duration": 0.5
        },
        {
          "name": "F#5",
          "midi": 78,
          "time": 492.50000000000006,
          "velocity": 0.7874015748031497,
          "duration": 0.5
        },
        {
          "name": "A5",
          "midi": 81,
          "time": 492.50000000000006,
          "velocity": 0.7874015748031497,
          "duration": 0.5
        },
        {
          "name": "A5",
          "midi": 81,
          "time": 493.00000000000006,
          "velocity": 0.7874015748031497,
          "duration": 0.5
        },
        {
          "name": "F#5",
          "midi": 78,
          "time": 493.00000000000006,
          "velocity": 0.7874015748031497,
          "duration": 0.5
        },
        {
          "name": "E5",
          "midi": 76,
          "time": 493.00000000000006,
          "velocity": 0.7874015748031497,
          "duration": 0.5
        },
        {
          "name": "A5",
          "midi": 81,
          "time": 493.50000000000006,
          "velocity": 0.7874015748031497,
          "duration": 1
        },
        {
          "name": "F#5",
          "midi": 78,
          "time": 493.50000000000006,
          "velocity": 0.7874015748031497,
          "duration": 1
        },
        {
          "name": "E5",
          "midi": 76,
          "time": 493.50000000000006,
          "velocity": 0.7874015748031497,
          "duration": 1
        },
        {
          "name": "E5",
          "midi": 76,
          "time": 494.50000000000006,
          "velocity": 0.7874015748031497,
          "duration": 0.5
        },
        {
          "name": "C#5",
          "midi": 73,
          "time": 494.50000000000006,
          "velocity": 0.7874015748031497,
          "duration": 0.5
        },
        {
          "name": "C#5",
          "midi": 73,
          "time": 495.00000000000006,
          "velocity": 0.7874015748031497,
          "duration": 0.5
        },
        {
          "name": "A4",
          "midi": 69,
          "time": 495.00000000000006,
          "velocity": 0.7874015748031497,
          "duration": 0.5
        },
        {
          "name": "E5",
          "midi": 76,
          "time": 495.50000000000006,
          "velocity": 0.7874015748031497,
          "duration": 0.5
        },
        {
          "name": "B4",
          "midi": 71,
          "time": 495.50000000000006,
          "velocity": 0.7874015748031497,
          "duration": 0.5
        },
        {
          "name": "C#5",
          "midi": 73,
          "time": 496.00000000000006,
          "velocity": 0.7874015748031497,
          "duration": 0.5
        },
        {
          "name": "A4",
          "midi": 69,
          "time": 496.00000000000006,
          "velocity": 0.7874015748031497,
          "duration": 0.5
        },
        {
          "name": "G#5",
          "midi": 80,
          "time": 496.50000000000006,
          "velocity": 0.7874015748031497,
          "duration": 0.5
        },
        {
          "name": "B5",
          "midi": 83,
          "time": 496.50000000000006,
          "velocity": 0.7874015748031497,
          "duration": 0.5
        },
        {
          "name": "C#6",
          "midi": 85,
          "time": 497.00000000000006,
          "velocity": 0.7874015748031497,
          "duration": 0.5
        },
        {
          "name": "A5",
          "midi": 81,
          "time": 497.00000000000006,
          "velocity": 0.7874015748031497,
          "duration": 0.5
        },
        {
          "name": "G#5",
          "midi": 80,
          "time": 497.50000000000006,
          "velocity": 0.7874015748031497,
          "duration": 1
        },
        {
          "name": "B5",
          "midi": 83,
          "time": 497.50000000000006,
          "velocity": 0.7874015748031497,
          "duration": 1
        },
        {
          "name": "G#5",
          "midi": 80,
          "time": 498.50000000000006,
          "velocity": 0.7874015748031497,
          "duration": 0.5
        },
        {
          "name": "B5",
          "midi": 83,
          "time": 498.50000000000006,
          "velocity": 0.7874015748031497,
          "duration": 0.5
        },
        {
          "name": "C#6",
          "midi": 85,
          "time": 499.00000000000006,
          "velocity": 0.7874015748031497,
          "duration": 0.5
        },
        {
          "name": "A5",
          "midi": 81,
          "time": 499.00000000000006,
          "velocity": 0.7874015748031497,
          "duration": 0.5
        },
        {
          "name": "G#5",
          "midi": 80,
          "time": 499.50000000000006,
          "velocity": 0.7874015748031497,
          "duration": 1
        },
        {
          "name": "B5",
          "midi": 83,
          "time": 499.50000000000006,
          "velocity": 0.7874015748031497,
          "duration": 1
        },
        {
          "name": "C#5",
          "midi": 73,
          "time": 500.50000000000006,
          "velocity": 0.7874015748031497,
          "duration": 0.5
        },
        {
          "name": "F#5",
          "midi": 78,
          "time": 500.50000000000006,
          "velocity": 0.7874015748031497,
          "duration": 0.5
        },
        {
          "name": "E5",
          "midi": 76,
          "time": 500.50000000000006,
          "velocity": 0.7874015748031497,
          "duration": 0.5
        },
        {
          "name": "F#5",
          "midi": 78,
          "time": 501.00000000000006,
          "velocity": 0.7874015748031497,
          "duration": 0.5
        },
        {
          "name": "C#5",
          "midi": 73,
          "time": 501.00000000000006,
          "velocity": 0.7874015748031497,
          "duration": 0.5
        },
        {
          "name": "E5",
          "midi": 76,
          "time": 501.00000000000006,
          "velocity": 0.7874015748031497,
          "duration": 0.5
        },
        {
          "name": "F#5",
          "midi": 78,
          "time": 501.50000000000006,
          "velocity": 0.7874015748031497,
          "duration": 1
        },
        {
          "name": "C#5",
          "midi": 73,
          "time": 501.50000000000006,
          "velocity": 0.7874015748031497,
          "duration": 1
        },
        {
          "name": "E5",
          "midi": 76,
          "time": 501.50000000000006,
          "velocity": 0.7874015748031497,
          "duration": 1
        },
        {
          "name": "E5",
          "midi": 76,
          "time": 502.50000000000006,
          "velocity": 0.7874015748031497,
          "duration": 0.5
        },
        {
          "name": "B4",
          "midi": 71,
          "time": 502.50000000000006,
          "velocity": 0.7874015748031497,
          "duration": 0.5
        },
        {
          "name": "C#5",
          "midi": 73,
          "time": 503.00000000000006,
          "velocity": 0.7874015748031497,
          "duration": 0.5
        },
        {
          "name": "A4",
          "midi": 69,
          "time": 503.00000000000006,
          "velocity": 0.7874015748031497,
          "duration": 0.5
        },
        {
          "name": "B4",
          "midi": 71,
          "time": 503.50000000000006,
          "velocity": 0.7874015748031497,
          "duration": 0.5
        },
        {
          "name": "E5",
          "midi": 76,
          "time": 503.50000000000006,
          "velocity": 0.7874015748031497,
          "duration": 0.5
        },
        {
          "name": "C#5",
          "midi": 73,
          "time": 504.00000000000006,
          "velocity": 0.7874015748031497,
          "duration": 0.5
        },
        {
          "name": "A4",
          "midi": 69,
          "time": 504.00000000000006,
          "velocity": 0.7874015748031497,
          "duration": 0.5
        },
        {
          "name": "B4",
          "midi": 71,
          "time": 504.50000000000006,
          "velocity": 0.7874015748031497,
          "duration": 0.5
        },
        {
          "name": "G#4",
          "midi": 68,
          "time": 504.50000000000006,
          "velocity": 0.7874015748031497,
          "duration": 0.5
        },
        {
          "name": "C#5",
          "midi": 73,
          "time": 505.00000000000006,
          "velocity": 0.7874015748031497,
          "duration": 0.5
        },
        {
          "name": "A4",
          "midi": 69,
          "time": 505.00000000000006,
          "velocity": 0.7874015748031497,
          "duration": 0.5
        },
        {
          "name": "G#4",
          "midi": 68,
          "time": 505.50000000000006,
          "velocity": 0.7874015748031497,
          "duration": 1
        },
        {
          "name": "B4",
          "midi": 71,
          "time": 505.50000000000006,
          "velocity": 0.7874015748031497,
          "duration": 1
        },
        {
          "name": "B4",
          "midi": 71,
          "time": 506.50000000000006,
          "velocity": 0.7874015748031497,
          "duration": 0.5
        },
        {
          "name": "G#4",
          "midi": 68,
          "time": 506.50000000000006,
          "velocity": 0.7874015748031497,
          "duration": 0.5
        },
        {
          "name": "C#5",
          "midi": 73,
          "time": 507.00000000000006,
          "velocity": 0.7874015748031497,
          "duration": 0.5
        },
        {
          "name": "A4",
          "midi": 69,
          "time": 507.00000000000006,
          "velocity": 0.7874015748031497,
          "duration": 0.5
        },
        {
          "name": "G#4",
          "midi": 68,
          "time": 507.50000000000006,
          "velocity": 0.7874015748031497,
          "duration": 1
        },
        {
          "name": "B4",
          "midi": 71,
          "time": 507.50000000000006,
          "velocity": 0.7874015748031497,
          "duration": 1
        },
        {
          "name": "C#5",
          "midi": 73,
          "time": 508.50000000000006,
          "velocity": 0.7874015748031497,
          "duration": 0.5
        },
        {
          "name": "F#5",
          "midi": 78,
          "time": 508.50000000000006,
          "velocity": 0.7874015748031497,
          "duration": 0.5
        },
        {
          "name": "E5",
          "midi": 76,
          "time": 508.50000000000006,
          "velocity": 0.7874015748031497,
          "duration": 0.5
        },
        {
          "name": "F#5",
          "midi": 78,
          "time": 509.00000000000006,
          "velocity": 0.7874015748031497,
          "duration": 0.5
        },
        {
          "name": "C#5",
          "midi": 73,
          "time": 509.00000000000006,
          "velocity": 0.7874015748031497,
          "duration": 0.5
        },
        {
          "name": "E5",
          "midi": 76,
          "time": 509.00000000000006,
          "velocity": 0.7874015748031497,
          "duration": 0.5
        },
        {
          "name": "F#5",
          "midi": 78,
          "time": 509.50000000000006,
          "velocity": 0.7874015748031497,
          "duration": 1
        },
        {
          "name": "C#5",
          "midi": 73,
          "time": 509.50000000000006,
          "velocity": 0.7874015748031497,
          "duration": 1
        },
        {
          "name": "E5",
          "midi": 76,
          "time": 509.50000000000006,
          "velocity": 0.7874015748031497,
          "duration": 1
        },
        {
          "name": "E5",
          "midi": 76,
          "time": 510.50000000000006,
          "velocity": 0.7874015748031497,
          "duration": 0.5
        },
        {
          "name": "B4",
          "midi": 71,
          "time": 510.50000000000006,
          "velocity": 0.7874015748031497,
          "duration": 0.5
        },
        {
          "name": "C#5",
          "midi": 73,
          "time": 511.00000000000006,
          "velocity": 0.7874015748031497,
          "duration": 0.5
        },
        {
          "name": "A4",
          "midi": 69,
          "time": 511.00000000000006,
          "velocity": 0.7874015748031497,
          "duration": 0.5
        },
        {
          "name": "B4",
          "midi": 71,
          "time": 511.50000000000006,
          "velocity": 0.7874015748031497,
          "duration": 0.49999999999994316
        },
        {
          "name": "E5",
          "midi": 76,
          "time": 511.50000000000006,
          "velocity": 0.7874015748031497,
          "duration": 0.49999999999994316
        },
        {
          "name": "C#5",
          "midi": 73,
          "time": 512,
          "velocity": 0.7874015748031497,
          "duration": 0.5
        },
        {
          "name": "A4",
          "midi": 69,
          "time": 512,
          "velocity": 0.7874015748031497,
          "duration": 0.5
        },
        {
          "name": "B4",
          "midi": 71,
          "time": 512.5,
          "velocity": 0.7874015748031497,
          "duration": 0.5
        },
        {
          "name": "G#4",
          "midi": 68,
          "time": 512.5,
          "velocity": 0.7874015748031497,
          "duration": 0.5
        },
        {
          "name": "C#5",
          "midi": 73,
          "time": 513,
          "velocity": 0.7874015748031497,
          "duration": 0.5
        },
        {
          "name": "A4",
          "midi": 69,
          "time": 513,
          "velocity": 0.7874015748031497,
          "duration": 0.5
        },
        {
          "name": "G#4",
          "midi": 68,
          "time": 513.5,
          "velocity": 0.7874015748031497,
          "duration": 0.5
        },
        {
          "name": "B4",
          "midi": 71,
          "time": 513.5,
          "velocity": 0.7874015748031497,
          "duration": 0.5
        },
        {
          "name": "A4",
          "midi": 69,
          "time": 514,
          "velocity": 0.7874015748031497,
          "duration": 0.5
        },
        {
          "name": "F#4",
          "midi": 66,
          "time": 514,
          "velocity": 0.7874015748031497,
          "duration": 0.5
        },
        {
          "name": "F#4",
          "midi": 66,
          "time": 514.5,
          "velocity": 0.7874015748031497,
          "duration": 0.5
        },
        {
          "name": "C#4",
          "midi": 61,
          "time": 514.5,
          "velocity": 0.7874015748031497,
          "duration": 0.5
        },
        {
          "name": "F#4",
          "midi": 66,
          "time": 515,
          "velocity": 0.7874015748031497,
          "duration": 0.5
        },
        {
          "name": "C#4",
          "midi": 61,
          "time": 515,
          "velocity": 0.7874015748031497,
          "duration": 0.5
        },
        {
          "name": "F#4",
          "midi": 66,
          "time": 515.5,
          "velocity": 0.7874015748031497,
          "duration": 1
        },
        {
          "name": "C#4",
          "midi": 61,
          "time": 515.5,
          "velocity": 0.7874015748031497,
          "duration": 1
        },
        {
          "name": "C#5",
          "midi": 73,
          "time": 516.5,
          "velocity": 0.7874015748031497,
          "duration": 0.5
        },
        {
          "name": "F#5",
          "midi": 78,
          "time": 516.5,
          "velocity": 0.7874015748031497,
          "duration": 0.5
        },
        {
          "name": "E5",
          "midi": 76,
          "time": 516.5,
          "velocity": 0.7874015748031497,
          "duration": 0.5
        },
        {
          "name": "F#5",
          "midi": 78,
          "time": 517,
          "velocity": 0.7874015748031497,
          "duration": 0.5
        },
        {
          "name": "C#5",
          "midi": 73,
          "time": 517,
          "velocity": 0.7874015748031497,
          "duration": 0.5
        },
        {
          "name": "E5",
          "midi": 76,
          "time": 517,
          "velocity": 0.7874015748031497,
          "duration": 0.5
        },
        {
          "name": "F#5",
          "midi": 78,
          "time": 517.5,
          "velocity": 0.7874015748031497,
          "duration": 1
        },
        {
          "name": "C#5",
          "midi": 73,
          "time": 517.5,
          "velocity": 0.7874015748031497,
          "duration": 1
        },
        {
          "name": "E5",
          "midi": 76,
          "time": 517.5,
          "velocity": 0.7874015748031497,
          "duration": 1
        },
        {
          "name": "E5",
          "midi": 76,
          "time": 518.5,
          "velocity": 0.7874015748031497,
          "duration": 0.5
        },
        {
          "name": "B4",
          "midi": 71,
          "time": 518.5,
          "velocity": 0.7874015748031497,
          "duration": 0.5
        },
        {
          "name": "C#5",
          "midi": 73,
          "time": 519,
          "velocity": 0.7874015748031497,
          "duration": 0.5
        },
        {
          "name": "A4",
          "midi": 69,
          "time": 519,
          "velocity": 0.7874015748031497,
          "duration": 0.5
        },
        {
          "name": "E5",
          "midi": 76,
          "time": 519.5,
          "velocity": 0.7874015748031497,
          "duration": 0.5
        },
        {
          "name": "B4",
          "midi": 71,
          "time": 519.5,
          "velocity": 0.7874015748031497,
          "duration": 0.5
        },
        {
          "name": "A4",
          "midi": 69,
          "time": 520,
          "velocity": 0.7874015748031497,
          "duration": 0.5
        },
        {
          "name": "C#5",
          "midi": 73,
          "time": 520,
          "velocity": 0.7874015748031497,
          "duration": 0.5
        },
        {
          "name": "E5",
          "midi": 76,
          "time": 520.5,
          "velocity": 0.7874015748031497,
          "duration": 0.5
        },
        {
          "name": "B4",
          "midi": 71,
          "time": 520.5,
          "velocity": 0.7874015748031497,
          "duration": 0.5
        },
        {
          "name": "F#5",
          "midi": 78,
          "time": 521,
          "velocity": 0.7874015748031497,
          "duration": 0.5
        },
        {
          "name": "C#5",
          "midi": 73,
          "time": 521,
          "velocity": 0.7874015748031497,
          "duration": 0.5
        },
        {
          "name": "E5",
          "midi": 76,
          "time": 521.5,
          "velocity": 0.7874015748031497,
          "duration": 1
        },
        {
          "name": "B4",
          "midi": 71,
          "time": 521.5,
          "velocity": 0.7874015748031497,
          "duration": 1
        },
        {
          "name": "E5",
          "midi": 76,
          "time": 522.5,
          "velocity": 0.7874015748031497,
          "duration": 0.5
        },
        {
          "name": "B4",
          "midi": 71,
          "time": 522.5,
          "velocity": 0.7874015748031497,
          "duration": 0.5
        },
        {
          "name": "F#5",
          "midi": 78,
          "time": 523,
          "velocity": 0.7874015748031497,
          "duration": 0.5
        },
        {
          "name": "C#5",
          "midi": 73,
          "time": 523,
          "velocity": 0.7874015748031497,
          "duration": 0.5
        },
        {
          "name": "E5",
          "midi": 76,
          "time": 523.5,
          "velocity": 0.7874015748031497,
          "duration": 1
        },
        {
          "name": "B4",
          "midi": 71,
          "time": 523.5,
          "velocity": 0.7874015748031497,
          "duration": 1
        },
        {
          "name": "E5",
          "midi": 76,
          "time": 524.5,
          "velocity": 0.7874015748031497,
          "duration": 0.5
        },
        {
          "name": "F#5",
          "midi": 78,
          "time": 524.5,
          "velocity": 0.7874015748031497,
          "duration": 0.5
        },
        {
          "name": "A5",
          "midi": 81,
          "time": 524.5,
          "velocity": 0.7874015748031497,
          "duration": 0.5
        },
        {
          "name": "A5",
          "midi": 81,
          "time": 525,
          "velocity": 0.7874015748031497,
          "duration": 0.5
        },
        {
          "name": "F#5",
          "midi": 78,
          "time": 525,
          "velocity": 0.7874015748031497,
          "duration": 0.5
        },
        {
          "name": "E5",
          "midi": 76,
          "time": 525,
          "velocity": 0.7874015748031497,
          "duration": 0.5
        },
        {
          "name": "A5",
          "midi": 81,
          "time": 525.5,
          "velocity": 0.7874015748031497,
          "duration": 1
        },
        {
          "name": "F#5",
          "midi": 78,
          "time": 525.5,
          "velocity": 0.7874015748031497,
          "duration": 1
        },
        {
          "name": "E5",
          "midi": 76,
          "time": 525.5,
          "velocity": 0.7874015748031497,
          "duration": 1
        },
        {
          "name": "E5",
          "midi": 76,
          "time": 526.5,
          "velocity": 0.7874015748031497,
          "duration": 0.5
        },
        {
          "name": "C#5",
          "midi": 73,
          "time": 526.5,
          "velocity": 0.7874015748031497,
          "duration": 0.5
        },
        {
          "name": "C#5",
          "midi": 73,
          "time": 527,
          "velocity": 0.7874015748031497,
          "duration": 0.5
        },
        {
          "name": "A4",
          "midi": 69,
          "time": 527,
          "velocity": 0.7874015748031497,
          "duration": 0.5
        },
        {
          "name": "E5",
          "midi": 76,
          "time": 527.5,
          "velocity": 0.7874015748031497,
          "duration": 0.5
        },
        {
          "name": "B4",
          "midi": 71,
          "time": 527.5,
          "velocity": 0.7874015748031497,
          "duration": 0.5
        },
        {
          "name": "C#5",
          "midi": 73,
          "time": 528,
          "velocity": 0.7874015748031497,
          "duration": 0.5
        },
        {
          "name": "A4",
          "midi": 69,
          "time": 528,
          "velocity": 0.7874015748031497,
          "duration": 0.5
        },
        {
          "name": "G#5",
          "midi": 80,
          "time": 528.5,
          "velocity": 0.7874015748031497,
          "duration": 0.5
        },
        {
          "name": "B5",
          "midi": 83,
          "time": 528.5,
          "velocity": 0.7874015748031497,
          "duration": 0.5
        },
        {
          "name": "C#6",
          "midi": 85,
          "time": 529,
          "velocity": 0.7874015748031497,
          "duration": 0.5
        },
        {
          "name": "A5",
          "midi": 81,
          "time": 529,
          "velocity": 0.7874015748031497,
          "duration": 0.5
        },
        {
          "name": "G#5",
          "midi": 80,
          "time": 529.5,
          "velocity": 0.7874015748031497,
          "duration": 1
        },
        {
          "name": "B5",
          "midi": 83,
          "time": 529.5,
          "velocity": 0.7874015748031497,
          "duration": 1
        },
        {
          "name": "G#5",
          "midi": 80,
          "time": 530.5,
          "velocity": 0.7874015748031497,
          "duration": 0.5
        },
        {
          "name": "B5",
          "midi": 83,
          "time": 530.5,
          "velocity": 0.7874015748031497,
          "duration": 0.5
        },
        {
          "name": "C#6",
          "midi": 85,
          "time": 531,
          "velocity": 0.7874015748031497,
          "duration": 0.5
        },
        {
          "name": "A5",
          "midi": 81,
          "time": 531,
          "velocity": 0.7874015748031497,
          "duration": 0.5
        },
        {
          "name": "G#5",
          "midi": 80,
          "time": 531.5,
          "velocity": 0.7874015748031497,
          "duration": 1
        },
        {
          "name": "B5",
          "midi": 83,
          "time": 531.5,
          "velocity": 0.7874015748031497,
          "duration": 1
        },
        {
          "name": "C#5",
          "midi": 73,
          "time": 532.5,
          "velocity": 0.7874015748031497,
          "duration": 0.5
        },
        {
          "name": "F#5",
          "midi": 78,
          "time": 532.5,
          "velocity": 0.7874015748031497,
          "duration": 0.5
        },
        {
          "name": "E5",
          "midi": 76,
          "time": 532.5,
          "velocity": 0.7874015748031497,
          "duration": 0.5
        },
        {
          "name": "F#5",
          "midi": 78,
          "time": 533,
          "velocity": 0.7874015748031497,
          "duration": 0.5
        },
        {
          "name": "C#5",
          "midi": 73,
          "time": 533,
          "velocity": 0.7874015748031497,
          "duration": 0.5
        },
        {
          "name": "E5",
          "midi": 76,
          "time": 533,
          "velocity": 0.7874015748031497,
          "duration": 0.5
        },
        {
          "name": "F#5",
          "midi": 78,
          "time": 533.5,
          "velocity": 0.7874015748031497,
          "duration": 1
        },
        {
          "name": "C#5",
          "midi": 73,
          "time": 533.5,
          "velocity": 0.7874015748031497,
          "duration": 1
        },
        {
          "name": "E5",
          "midi": 76,
          "time": 533.5,
          "velocity": 0.7874015748031497,
          "duration": 1
        },
        {
          "name": "E5",
          "midi": 76,
          "time": 534.5,
          "velocity": 0.7874015748031497,
          "duration": 0.5
        },
        {
          "name": "B4",
          "midi": 71,
          "time": 534.5,
          "velocity": 0.7874015748031497,
          "duration": 0.5
        },
        {
          "name": "C#5",
          "midi": 73,
          "time": 535,
          "velocity": 0.7874015748031497,
          "duration": 0.5
        },
        {
          "name": "A4",
          "midi": 69,
          "time": 535,
          "velocity": 0.7874015748031497,
          "duration": 0.5
        },
        {
          "name": "B4",
          "midi": 71,
          "time": 535.5,
          "velocity": 0.7874015748031497,
          "duration": 0.5
        },
        {
          "name": "E5",
          "midi": 76,
          "time": 535.5,
          "velocity": 0.7874015748031497,
          "duration": 0.5
        },
        {
          "name": "C#5",
          "midi": 73,
          "time": 536,
          "velocity": 0.7874015748031497,
          "duration": 0.5
        },
        {
          "name": "A4",
          "midi": 69,
          "time": 536,
          "velocity": 0.7874015748031497,
          "duration": 0.5
        },
        {
          "name": "B4",
          "midi": 71,
          "time": 536.5,
          "velocity": 0.7874015748031497,
          "duration": 0.5
        },
        {
          "name": "G#4",
          "midi": 68,
          "time": 536.5,
          "velocity": 0.7874015748031497,
          "duration": 0.5
        },
        {
          "name": "C#5",
          "midi": 73,
          "time": 537,
          "velocity": 0.7874015748031497,
          "duration": 0.5
        },
        {
          "name": "A4",
          "midi": 69,
          "time": 537,
          "velocity": 0.7874015748031497,
          "duration": 0.5
        },
        {
          "name": "G#4",
          "midi": 68,
          "time": 537.5,
          "velocity": 0.7874015748031497,
          "duration": 1
        },
        {
          "name": "B4",
          "midi": 71,
          "time": 537.5,
          "velocity": 0.7874015748031497,
          "duration": 1
        },
        {
          "name": "B4",
          "midi": 71,
          "time": 538.5,
          "velocity": 0.7874015748031497,
          "duration": 0.5
        },
        {
          "name": "G#4",
          "midi": 68,
          "time": 538.5,
          "velocity": 0.7874015748031497,
          "duration": 0.5
        },
        {
          "name": "C#5",
          "midi": 73,
          "time": 539,
          "velocity": 0.7874015748031497,
          "duration": 0.5
        },
        {
          "name": "A4",
          "midi": 69,
          "time": 539,
          "velocity": 0.7874015748031497,
          "duration": 0.5
        },
        {
          "name": "G#4",
          "midi": 68,
          "time": 539.5,
          "velocity": 0.7874015748031497,
          "duration": 1
        },
        {
          "name": "B4",
          "midi": 71,
          "time": 539.5,
          "velocity": 0.7874015748031497,
          "duration": 1
        },
        {
          "name": "C#5",
          "midi": 73,
          "time": 540.5,
          "velocity": 0.7874015748031497,
          "duration": 0.5
        },
        {
          "name": "F#5",
          "midi": 78,
          "time": 540.5,
          "velocity": 0.7874015748031497,
          "duration": 0.5
        },
        {
          "name": "E5",
          "midi": 76,
          "time": 540.5,
          "velocity": 0.7874015748031497,
          "duration": 0.5
        },
        {
          "name": "F#5",
          "midi": 78,
          "time": 541,
          "velocity": 0.7874015748031497,
          "duration": 0.5
        },
        {
          "name": "C#5",
          "midi": 73,
          "time": 541,
          "velocity": 0.7874015748031497,
          "duration": 0.5
        },
        {
          "name": "E5",
          "midi": 76,
          "time": 541,
          "velocity": 0.7874015748031497,
          "duration": 0.5
        },
        {
          "name": "F#5",
          "midi": 78,
          "time": 541.5,
          "velocity": 0.7874015748031497,
          "duration": 1
        },
        {
          "name": "C#5",
          "midi": 73,
          "time": 541.5,
          "velocity": 0.7874015748031497,
          "duration": 1
        },
        {
          "name": "E5",
          "midi": 76,
          "time": 541.5,
          "velocity": 0.7874015748031497,
          "duration": 1
        },
        {
          "name": "E5",
          "midi": 76,
          "time": 542.5,
          "velocity": 0.7874015748031497,
          "duration": 0.5
        },
        {
          "name": "B4",
          "midi": 71,
          "time": 542.5,
          "velocity": 0.7874015748031497,
          "duration": 0.5
        },
        {
          "name": "C#5",
          "midi": 73,
          "time": 543,
          "velocity": 0.7874015748031497,
          "duration": 0.5
        },
        {
          "name": "A4",
          "midi": 69,
          "time": 543,
          "velocity": 0.7874015748031497,
          "duration": 0.5
        },
        {
          "name": "F#4",
          "midi": 66,
          "time": 543.5,
          "velocity": 0.7874015748031497,
          "duration": 0.5
        },
        {
          "name": "B4",
          "midi": 71,
          "time": 543.5,
          "velocity": 0.7874015748031497,
          "duration": 0.5
        },
        {
          "name": "A4",
          "midi": 69,
          "time": 544,
          "velocity": 0.7874015748031497,
          "duration": 0.5
        },
        {
          "name": "E4",
          "midi": 64,
          "time": 544,
          "velocity": 0.7874015748031497,
          "duration": 0.5
        },
        {
          "name": "F#4",
          "midi": 66,
          "time": 544.5,
          "velocity": 0.7874015748031497,
          "duration": 0.5
        },
        {
          "name": "C#4",
          "midi": 61,
          "time": 544.5,
          "velocity": 0.7874015748031497,
          "duration": 0.5
        },
        {
          "name": "F#4",
          "midi": 66,
          "time": 545,
          "velocity": 0.7874015748031497,
          "duration": 0.5
        },
        {
          "name": "C#4",
          "midi": 61,
          "time": 545,
          "velocity": 0.7874015748031497,
          "duration": 0.5
        },
        {
          "name": "F#4",
          "midi": 66,
          "time": 545.5,
          "velocity": 0.7874015748031497,
          "duration": 0.5
        },
        {
          "name": "C#4",
          "midi": 61,
          "time": 545.5,
          "velocity": 0.7874015748031497,
          "duration": 0.5
        },
        {
          "name": "F#4",
          "midi": 66,
          "time": 546,
          "velocity": 0.7874015748031497,
          "duration": 0.5
        },
        {
          "name": "C#4",
          "midi": 61,
          "time": 546,
          "velocity": 0.7874015748031497,
          "duration": 0.5
        },
        {
          "name": "F#4",
          "midi": 66,
          "time": 546.5,
          "velocity": 0.7874015748031497,
          "duration": 1
        },
        {
          "name": "C#4",
          "midi": 61,
          "time": 546.5,
          "velocity": 0.7874015748031497,
          "duration": 1
        }
      ],
      "controlChanges": {
        "1": [
          {
            "number": 1,
            "time": 0.40833333333333327,
            "value": 0
          }
        ],
        "6": [
          {
            "number": 6,
            "time": 0.4104166666666666,
            "value": 0.5039370078740157
          },
          {
            "number": 6,
            "time": 0.41874999999999996,
            "value": 0.5039370078740157
          },
          {
            "number": 6,
            "time": 0.42499999999999993,
            "value": 0.09448818897637795
          }
        ],
        "7": [
          {
            "number": 7,
            "time": 0.4020833333333333,
            "value": 0.7874015748031497
          }
        ],
        "10": [
          {
            "number": 10,
            "time": 0.39999999999999997,
            "value": 0.5039370078740157
          }
        ],
        "11": [
          {
            "number": 11,
            "time": 0.40624999999999994,
            "value": 1
          }
        ],
        "32": [
          {
            "number": 32,
            "time": 0.39375,
            "value": 0
          }
        ],
        "38": [
          {
            "number": 38,
            "time": 0.4104166666666666,
            "value": 0
          }
        ],
        "91": [
          {
            "number": 91,
            "time": 0.4041666666666666,
            "value": 0
          }
        ],
        "100": [
          {
            "number": 100,
            "time": 0.4104166666666666,
            "value": 0.007874015748031496
          },
          {
            "number": 100,
            "time": 0.41874999999999996,
            "value": 0.015748031496062992
          },
          {
            "number": 100,
            "time": 0.42499999999999993,
            "value": 0
          },
          {
            "number": 100,
            "time": 0.43333333333333324,
            "value": 1
          }
        ],
        "101": [
          {
            "number": 101,
            "time": 0.4104166666666666,
            "value": 0
          },
          {
            "number": 101,
            "time": 0.41874999999999996,
            "value": 0
          },
          {
            "number": 101,
            "time": 0.42499999999999993,
            "value": 0
          },
          {
            "number": 101,
            "time": 0.43333333333333324,
            "value": 1
          }
        ],
        "121": [
          {
            "number": 121,
            "time": 0.39166666666666666,
            "value": 0
          }
        ]
      },
      "id": 2,
      "name": "",
      "instrumentNumber": 0,
      "instrument": "acoustic grand piano",
      "instrumentFamily": "piano",
      "channelNumber": 0,
      "isPercussion": false
    },
    {
      "startTime": 28.5,
      "duration": 547.5,
      "length": 2029,
      "notes": [
        {
          "name": "F3",
          "midi": 53,
          "time": 28.5,
          "velocity": 0.36220472440944884,
          "duration": 0.5
        },
        {
          "name": "C4",
          "midi": 60,
          "time": 29,
          "velocity": 0.3700787401574803,
          "duration": 0.5
        },
        {
          "name": "D#4",
          "midi": 63,
          "time": 29.5,
          "velocity": 0.3700787401574803,
          "duration": 0.5
        },
        {
          "name": "F4",
          "midi": 65,
          "time": 30,
          "velocity": 0.3700787401574803,
          "duration": 0.5
        },
        {
          "name": "D#4",
          "midi": 63,
          "time": 30.5,
          "velocity": 0.3700787401574803,
          "duration": 0.5
        },
        {
          "name": "G#3",
          "midi": 56,
          "time": 31,
          "velocity": 0.3779527559055118,
          "duration": 0.5
        },
        {
          "name": "F3",
          "midi": 53,
          "time": 31.5,
          "velocity": 0.3779527559055118,
          "duration": 0.5
        },
        {
          "name": "C3",
          "midi": 48,
          "time": 32,
          "velocity": 0.3779527559055118,
          "duration": 0.5
        },
        {
          "name": "B2",
          "midi": 47,
          "time": 35,
          "velocity": 0.7874015748031497,
          "duration": 1.5
        },
        {
          "name": "B1",
          "midi": 35,
          "time": 35,
          "velocity": 0.4645669291338583,
          "duration": 1.5
        },
        {
          "name": "B3",
          "midi": 59,
          "time": 35,
          "velocity": 0.7874015748031497,
          "duration": 1.5
        },
        {
          "name": "A#2",
          "midi": 46,
          "time": 36.5,
          "velocity": 0.7874015748031497,
          "duration": 4
        },
        {
          "name": "C#3",
          "midi": 49,
          "time": 37,
          "velocity": 0.7874015748031497,
          "duration": 3
        },
        {
          "name": "F3",
          "midi": 53,
          "time": 37.5,
          "velocity": 0.7874015748031497,
          "duration": 2
        },
        {
          "name": "G#3",
          "midi": 56,
          "time": 38,
          "velocity": 0.7874015748031497,
          "duration": 1
        },
        {
          "name": "A#3",
          "midi": 58,
          "time": 38.5,
          "velocity": 0.7874015748031497,
          "duration": 2
        },
        {
          "name": "G#3",
          "midi": 56,
          "time": 39,
          "velocity": 0.7874015748031497,
          "duration": 1.5
        },
        {
          "name": "F3",
          "midi": 53,
          "time": 39.5,
          "velocity": 0.7874015748031497,
          "duration": 1
        },
        {
          "name": "C#3",
          "midi": 49,
          "time": 40,
          "velocity": 0.7874015748031497,
          "duration": 0.5
        },
        {
          "name": "A#2",
          "midi": 46,
          "time": 40.5,
          "velocity": 0.7874015748031497,
          "duration": 4
        },
        {
          "name": "C#3",
          "midi": 49,
          "time": 41,
          "velocity": 0.7874015748031497,
          "duration": 3.5
        },
        {
          "name": "F3",
          "midi": 53,
          "time": 41.5,
          "velocity": 0.7874015748031497,
          "duration": 2
        },
        {
          "name": "G#3",
          "midi": 56,
          "time": 42,
          "velocity": 0.7874015748031497,
          "duration": 1
        },
        {
          "name": "A#3",
          "midi": 58,
          "time": 42.5,
          "velocity": 0.7874015748031497,
          "duration": 2
        },
        {
          "name": "G#3",
          "midi": 56,
          "time": 43,
          "velocity": 0.7874015748031497,
          "duration": 1
        },
        {
          "name": "F3",
          "midi": 53,
          "time": 43.5,
          "velocity": 0.7874015748031497,
          "duration": 1
        },
        {
          "name": "G#3",
          "midi": 56,
          "time": 44,
          "velocity": 0.7874015748031497,
          "duration": 0.5
        },
        {
          "name": "D#3",
          "midi": 51,
          "time": 44.5,
          "velocity": 0.7874015748031497,
          "duration": 3
        },
        {
          "name": "G3",
          "midi": 55,
          "time": 45,
          "velocity": 0.7874015748031497,
          "duration": 2
        },
        {
          "name": "A#3",
          "midi": 58,
          "time": 45.5,
          "velocity": 0.7874015748031497,
          "duration": 1
        },
        {
          "name": "D#4",
          "midi": 63,
          "time": 46,
          "velocity": 0.7874015748031497,
          "duration": 2.5
        },
        {
          "name": "A#3",
          "midi": 58,
          "time": 46.5,
          "velocity": 0.7874015748031497,
          "duration": 2
        },
        {
          "name": "G3",
          "midi": 55,
          "time": 47,
          "velocity": 0.7874015748031497,
          "duration": 1
        },
        {
          "name": "D#3",
          "midi": 51,
          "time": 47.5,
          "velocity": 0.7874015748031497,
          "duration": 1
        },
        {
          "name": "G3",
          "midi": 55,
          "time": 48,
          "velocity": 0.7874015748031497,
          "duration": 0.5
        },
        {
          "name": "D#3",
          "midi": 51,
          "time": 48.5,
          "velocity": 0.7874015748031497,
          "duration": 2
        },
        {
          "name": "G3",
          "midi": 55,
          "time": 49,
          "velocity": 0.7874015748031497,
          "duration": 1
        },
        {
          "name": "A#3",
          "midi": 58,
          "time": 49.5,
          "velocity": 0.7874015748031497,
          "duration": 3
        },
        {
          "name": "G3",
          "midi": 55,
          "time": 50,
          "velocity": 0.7874015748031497,
          "duration": 1
        },
        {
          "name": "D#3",
          "midi": 51,
          "time": 50.5,
          "velocity": 0.7874015748031497,
          "duration": 1
        },
        {
          "name": "G3",
          "midi": 55,
          "time": 51,
          "velocity": 0.7874015748031497,
          "duration": 1
        },
        {
          "name": "D#3",
          "midi": 51,
          "time": 51.5,
          "velocity": 0.7874015748031497,
          "duration": 1
        },
        {
          "name": "G3",
          "midi": 55,
          "time": 52,
          "velocity": 0.7874015748031497,
          "duration": 0.5
        },
        {
          "name": "G#2",
          "midi": 44,
          "time": 52.5,
          "velocity": 0.7874015748031497,
          "duration": 2
        },
        {
          "name": "C3",
          "midi": 48,
          "time": 53,
          "velocity": 0.7874015748031497,
          "duration": 1
        },
        {
          "name": "D#3",
          "midi": 51,
          "time": 53.5,
          "velocity": 0.7874015748031497,
          "duration": 2
        },
        {
          "name": "C3",
          "midi": 48,
          "time": 54,
          "velocity": 0.7874015748031497,
          "duration": 1
        },
        {
          "name": "G#2",
          "midi": 44,
          "time": 54.5,
          "velocity": 0.7874015748031497,
          "duration": 2
        },
        {
          "name": "C3",
          "midi": 48,
          "time": 55,
          "velocity": 0.7874015748031497,
          "duration": 1
        },
        {
          "name": "D#3",
          "midi": 51,
          "time": 55.5,
          "velocity": 0.7874015748031497,
          "duration": 1
        },
        {
          "name": "C3",
          "midi": 48,
          "time": 56,
          "velocity": 0.7874015748031497,
          "duration": 0.5
        },
        {
          "name": "G#2",
          "midi": 44,
          "time": 56.5,
          "velocity": 0.7874015748031497,
          "duration": 2
        },
        {
          "name": "C3",
          "midi": 48,
          "time": 57,
          "velocity": 0.7874015748031497,
          "duration": 1
        },
        {
          "name": "D#3",
          "midi": 51,
          "time": 57.5,
          "velocity": 0.7874015748031497,
          "duration": 2
        },
        {
          "name": "C3",
          "midi": 48,
          "time": 58,
          "velocity": 0.7874015748031497,
          "duration": 1
        },
        {
          "name": "G#2",
          "midi": 44,
          "time": 58.5,
          "velocity": 0.7874015748031497,
          "duration": 2
        },
        {
          "name": "C3",
          "midi": 48,
          "time": 59,
          "velocity": 0.7874015748031497,
          "duration": 1
        },
        {
          "name": "D#3",
          "midi": 51,
          "time": 59.5,
          "velocity": 0.7874015748031497,
          "duration": 1
        },
        {
          "name": "C3",
          "midi": 48,
          "time": 60,
          "velocity": 0.7874015748031497,
          "duration": 0.5
        },
        {
          "name": "F2",
          "midi": 41,
          "time": 60.5,
          "velocity": 0.7874015748031497,
          "duration": 3
        },
        {
          "name": "F3",
          "midi": 53,
          "time": 61,
          "velocity": 0.7874015748031497,
          "duration": 0.5
        },
        {
          "name": "D#3",
          "midi": 51,
          "time": 61.5,
          "velocity": 0.7874015748031497,
          "duration": 0.5
        },
        {
          "name": "C3",
          "midi": 48,
          "time": 62,
          "velocity": 0.7874015748031497,
          "duration": 0.5
        },
        {
          "name": "A#2",
          "midi": 46,
          "time": 62.5,
          "velocity": 0.7874015748031497,
          "duration": 0.5
        },
        {
          "name": "G#2",
          "midi": 44,
          "time": 63,
          "velocity": 0.7874015748031497,
          "duration": 0.5
        },
        {
          "name": "F2",
          "midi": 41,
          "time": 63.5,
          "velocity": 0.7874015748031497,
          "duration": 0.5
        },
        {
          "name": "D#2",
          "midi": 39,
          "time": 64,
          "velocity": 0.7874015748031497,
          "duration": 0.5
        },
        {
          "name": "A2",
          "midi": 45,
          "time": 64.5,
          "velocity": 0.7874015748031497,
          "duration": 1
        },
        {
          "name": "A1",
          "midi": 33,
          "time": 64.5,
          "velocity": 0.7874015748031497,
          "duration": 3
        },
        {
          "name": "C3",
          "midi": 48,
          "time": 65.5,
          "velocity": 0.7874015748031497,
          "duration": 1
        },
        {
          "name": "D#3",
          "midi": 51,
          "time": 65.5,
          "velocity": 0.7874015748031497,
          "duration": 1
        },
        {
          "name": "F3",
          "midi": 53,
          "time": 65.5,
          "velocity": 0.3228346456692913,
          "duration": 1
        },
        {
          "name": "C4",
          "midi": 60,
          "time": 65.5,
          "velocity": 0.7874015748031497,
          "duration": 1
        },
        {
          "name": "D#3",
          "midi": 51,
          "time": 66.5,
          "velocity": 0.7874015748031497,
          "duration": 1
        },
        {
          "name": "C3",
          "midi": 48,
          "time": 66.5,
          "velocity": 0.7874015748031497,
          "duration": 1
        },
        {
          "name": "F3",
          "midi": 53,
          "time": 66.5,
          "velocity": 0.31496062992125984,
          "duration": 1
        },
        {
          "name": "C4",
          "midi": 60,
          "time": 66.5,
          "velocity": 0.7874015748031497,
          "duration": 1
        },
        {
          "name": "F2",
          "midi": 41,
          "time": 67.5,
          "velocity": 0.7874015748031497,
          "duration": 1
        },
        {
          "name": "G#2",
          "midi": 44,
          "time": 67.5,
          "velocity": 0.7874015748031497,
          "duration": 1
        },
        {
          "name": "A#2",
          "midi": 46,
          "time": 68.5,
          "velocity": 0.7874015748031497,
          "duration": 4
        },
        {
          "name": "C#3",
          "midi": 49,
          "time": 69,
          "velocity": 0.7874015748031497,
          "duration": 3
        },
        {
          "name": "F3",
          "midi": 53,
          "time": 69.5,
          "velocity": 0.7874015748031497,
          "duration": 2
        },
        {
          "name": "G#3",
          "midi": 56,
          "time": 70,
          "velocity": 0.7874015748031497,
          "duration": 1
        },
        {
          "name": "A#3",
          "midi": 58,
          "time": 70.5,
          "velocity": 0.7874015748031497,
          "duration": 2
        },
        {
          "name": "G#3",
          "midi": 56,
          "time": 71,
          "velocity": 0.7874015748031497,
          "duration": 1.5
        },
        {
          "name": "F3",
          "midi": 53,
          "time": 71.5,
          "velocity": 0.7874015748031497,
          "duration": 1
        },
        {
          "name": "C#3",
          "midi": 49,
          "time": 72,
          "velocity": 0.7874015748031497,
          "duration": 0.5
        },
        {
          "name": "A#2",
          "midi": 46,
          "time": 72.5,
          "velocity": 0.7874015748031497,
          "duration": 4
        },
        {
          "name": "C#3",
          "midi": 49,
          "time": 73,
          "velocity": 0.7874015748031497,
          "duration": 3.5
        },
        {
          "name": "F3",
          "midi": 53,
          "time": 73.5,
          "velocity": 0.7874015748031497,
          "duration": 2
        },
        {
          "name": "G#3",
          "midi": 56,
          "time": 74,
          "velocity": 0.7874015748031497,
          "duration": 1
        },
        {
          "name": "A#3",
          "midi": 58,
          "time": 74.5,
          "velocity": 0.7874015748031497,
          "duration": 2
        },
        {
          "name": "G#3",
          "midi": 56,
          "time": 75,
          "velocity": 0.7874015748031497,
          "duration": 1
        },
        {
          "name": "F3",
          "midi": 53,
          "time": 75.5,
          "velocity": 0.7874015748031497,
          "duration": 1
        },
        {
          "name": "G#3",
          "midi": 56,
          "time": 76,
          "velocity": 0.7874015748031497,
          "duration": 0.5
        },
        {
          "name": "D#3",
          "midi": 51,
          "time": 76.5,
          "velocity": 0.7874015748031497,
          "duration": 3
        },
        {
          "name": "G3",
          "midi": 55,
          "time": 77,
          "velocity": 0.7874015748031497,
          "duration": 2
        },
        {
          "name": "A#3",
          "midi": 58,
          "time": 77.5,
          "velocity": 0.7874015748031497,
          "duration": 1
        },
        {
          "name": "D#4",
          "midi": 63,
          "time": 78,
          "velocity": 0.7874015748031497,
          "duration": 2.5
        },
        {
          "name": "A#3",
          "midi": 58,
          "time": 78.5,
          "velocity": 0.7874015748031497,
          "duration": 2
        },
        {
          "name": "G3",
          "midi": 55,
          "time": 79,
          "velocity": 0.7874015748031497,
          "duration": 1
        },
        {
          "name": "D#3",
          "midi": 51,
          "time": 79.5,
          "velocity": 0.7874015748031497,
          "duration": 1
        },
        {
          "name": "G3",
          "midi": 55,
          "time": 80,
          "velocity": 0.7874015748031497,
          "duration": 0.5
        },
        {
          "name": "D#3",
          "midi": 51,
          "time": 80.5,
          "velocity": 0.7874015748031497,
          "duration": 2
        },
        {
          "name": "G3",
          "midi": 55,
          "time": 81,
          "velocity": 0.7874015748031497,
          "duration": 1
        },
        {
          "name": "A#3",
          "midi": 58,
          "time": 81.5,
          "velocity": 0.7874015748031497,
          "duration": 3
        },
        {
          "name": "G3",
          "midi": 55,
          "time": 82,
          "velocity": 0.7874015748031497,
          "duration": 1
        },
        {
          "name": "D#3",
          "midi": 51,
          "time": 82.5,
          "velocity": 0.7874015748031497,
          "duration": 1
        },
        {
          "name": "G3",
          "midi": 55,
          "time": 83,
          "velocity": 0.7874015748031497,
          "duration": 1
        },
        {
          "name": "D#3",
          "midi": 51,
          "time": 83.5,
          "velocity": 0.7874015748031497,
          "duration": 1
        },
        {
          "name": "G3",
          "midi": 55,
          "time": 84,
          "velocity": 0.7874015748031497,
          "duration": 0.5
        },
        {
          "name": "G#2",
          "midi": 44,
          "time": 84.5,
          "velocity": 0.7874015748031497,
          "duration": 2
        },
        {
          "name": "C3",
          "midi": 48,
          "time": 85,
          "velocity": 0.7874015748031497,
          "duration": 1
        },
        {
          "name": "D#3",
          "midi": 51,
          "time": 85.5,
          "velocity": 0.7874015748031497,
          "duration": 2
        },
        {
          "name": "C3",
          "midi": 48,
          "time": 86,
          "velocity": 0.7874015748031497,
          "duration": 1
        },
        {
          "name": "G#2",
          "midi": 44,
          "time": 86.5,
          "velocity": 0.7874015748031497,
          "duration": 2
        },
        {
          "name": "C3",
          "midi": 48,
          "time": 87,
          "velocity": 0.7874015748031497,
          "duration": 1
        },
        {
          "name": "D#3",
          "midi": 51,
          "time": 87.5,
          "velocity": 0.7874015748031497,
          "duration": 1
        },
        {
          "name": "C3",
          "midi": 48,
          "time": 88,
          "velocity": 0.7874015748031497,
          "duration": 0.5
        },
        {
          "name": "G#2",
          "midi": 44,
          "time": 88.5,
          "velocity": 0.7874015748031497,
          "duration": 2
        },
        {
          "name": "C3",
          "midi": 48,
          "time": 89,
          "velocity": 0.7874015748031497,
          "duration": 1
        },
        {
          "name": "D#3",
          "midi": 51,
          "time": 89.5,
          "velocity": 0.7874015748031497,
          "duration": 2
        },
        {
          "name": "C3",
          "midi": 48,
          "time": 90,
          "velocity": 0.7874015748031497,
          "duration": 1
        },
        {
          "name": "G#2",
          "midi": 44,
          "time": 90.5,
          "velocity": 0.7874015748031497,
          "duration": 2
        },
        {
          "name": "C3",
          "midi": 48,
          "time": 91,
          "velocity": 0.7874015748031497,
          "duration": 1
        },
        {
          "name": "D#3",
          "midi": 51,
          "time": 91.5,
          "velocity": 0.7874015748031497,
          "duration": 1
        },
        {
          "name": "C3",
          "midi": 48,
          "time": 92,
          "velocity": 0.7874015748031497,
          "duration": 0.5
        },
        {
          "name": "F2",
          "midi": 41,
          "time": 92.5,
          "velocity": 0.7874015748031497,
          "duration": 3
        },
        {
          "name": "F3",
          "midi": 53,
          "time": 93,
          "velocity": 0.7874015748031497,
          "duration": 0.5
        },
        {
          "name": "D#3",
          "midi": 51,
          "time": 93.5,
          "velocity": 0.7874015748031497,
          "duration": 0.5
        },
        {
          "name": "C3",
          "midi": 48,
          "time": 94,
          "velocity": 0.7874015748031497,
          "duration": 0.5
        },
        {
          "name": "A#2",
          "midi": 46,
          "time": 94.5,
          "velocity": 0.7874015748031497,
          "duration": 0.5
        },
        {
          "name": "G#2",
          "midi": 44,
          "time": 95,
          "velocity": 0.7874015748031497,
          "duration": 0.5
        },
        {
          "name": "F2",
          "midi": 41,
          "time": 95.5,
          "velocity": 0.7874015748031497,
          "duration": 0.5
        },
        {
          "name": "D#2",
          "midi": 39,
          "time": 96,
          "velocity": 0.7874015748031497,
          "duration": 0.5
        },
        {
          "name": "A2",
          "midi": 45,
          "time": 96.5,
          "velocity": 0.7874015748031497,
          "duration": 1
        },
        {
          "name": "A1",
          "midi": 33,
          "time": 96.5,
          "velocity": 0.7874015748031497,
          "duration": 3
        },
        {
          "name": "C3",
          "midi": 48,
          "time": 97.5,
          "velocity": 0.7874015748031497,
          "duration": 1
        },
        {
          "name": "D#3",
          "midi": 51,
          "time": 97.5,
          "velocity": 0.7874015748031497,
          "duration": 1
        },
        {
          "name": "C4",
          "midi": 60,
          "time": 97.5,
          "velocity": 0.7874015748031497,
          "duration": 1
        },
        {
          "name": "D#3",
          "midi": 51,
          "time": 98.5,
          "velocity": 0.7874015748031497,
          "duration": 1
        },
        {
          "name": "C3",
          "midi": 48,
          "time": 98.5,
          "velocity": 0.7874015748031497,
          "duration": 1
        },
        {
          "name": "C4",
          "midi": 60,
          "time": 98.5,
          "velocity": 0.7874015748031497,
          "duration": 1
        },
        {
          "name": "A#3",
          "midi": 58,
          "time": 100.5,
          "velocity": 0.6771653543307087,
          "duration": 8
        },
        {
          "name": "F#2",
          "midi": 42,
          "time": 100.5,
          "velocity": 0.6771653543307087,
          "duration": 8
        },
        {
          "name": "D#3",
          "midi": 51,
          "time": 100.5,
          "velocity": 0.6771653543307087,
          "duration": 8
        },
        {
          "name": "B2",
          "midi": 47,
          "time": 100.5,
          "velocity": 0.6771653543307087,
          "duration": 8
        },
        {
          "name": "C#3",
          "midi": 49,
          "time": 108.5,
          "velocity": 0.6771653543307087,
          "duration": 8
        },
        {
          "name": "G#3",
          "midi": 56,
          "time": 108.5,
          "velocity": 0.6771653543307087,
          "duration": 8
        },
        {
          "name": "F2",
          "midi": 41,
          "time": 108.5,
          "velocity": 0.6771653543307087,
          "duration": 8
        },
        {
          "name": "A#4",
          "midi": 70,
          "time": 108.5,
          "velocity": 0.6771653543307087,
          "duration": 8
        },
        {
          "name": "C#4",
          "midi": 61,
          "time": 108.5,
          "velocity": 0.6771653543307087,
          "duration": 8
        },
        {
          "name": "C#5",
          "midi": 73,
          "time": 116.5,
          "velocity": 0.6771653543307087,
          "duration": 8
        },
        {
          "name": "A#4",
          "midi": 70,
          "time": 116.5,
          "velocity": 0.6771653543307087,
          "duration": 8
        },
        {
          "name": "C#3",
          "midi": 49,
          "time": 116.5,
          "velocity": 0.6771653543307087,
          "duration": 8
        },
        {
          "name": "F#2",
          "midi": 42,
          "time": 116.5,
          "velocity": 0.6771653543307087,
          "duration": 8
        },
        {
          "name": "A#3",
          "midi": 58,
          "time": 116.5,
          "velocity": 0.6771653543307087,
          "duration": 8
        },
        {
          "name": "D#2",
          "midi": 39,
          "time": 124.5,
          "velocity": 0.6771653543307087,
          "duration": 4
        },
        {
          "name": "A#3",
          "midi": 58,
          "time": 124.5,
          "velocity": 0.6771653543307087,
          "duration": 4
        },
        {
          "name": "A#4",
          "midi": 70,
          "time": 124.5,
          "velocity": 0.6771653543307087,
          "duration": 4
        },
        {
          "name": "F#4",
          "midi": 66,
          "time": 124.5,
          "velocity": 0.6771653543307087,
          "duration": 4
        },
        {
          "name": "D#3",
          "midi": 51,
          "time": 124.5,
          "velocity": 0.6771653543307087,
          "duration": 4
        },
        {
          "name": "D#2",
          "midi": 39,
          "time": 128.5,
          "velocity": 0.6771653543307087,
          "duration": 4
        },
        {
          "name": "A#3",
          "midi": 58,
          "time": 128.5,
          "velocity": 0.6771653543307087,
          "duration": 4
        },
        {
          "name": "D#3",
          "midi": 51,
          "time": 128.5,
          "velocity": 0.6771653543307087,
          "duration": 4
        },
        {
          "name": "A#4",
          "midi": 70,
          "time": 128.5,
          "velocity": 0.6771653543307087,
          "duration": 4
        },
        {
          "name": "G3",
          "midi": 55,
          "time": 128.5,
          "velocity": 0.6771653543307087,
          "duration": 4
        },
        {
          "name": "A#3",
          "midi": 58,
          "time": 132.5,
          "velocity": 0.6771653543307087,
          "duration": 8
        },
        {
          "name": "F#2",
          "midi": 42,
          "time": 132.5,
          "velocity": 0.6771653543307087,
          "duration": 8
        },
        {
          "name": "D#3",
          "midi": 51,
          "time": 132.5,
          "velocity": 0.6771653543307087,
          "duration": 8
        },
        {
          "name": "B2",
          "midi": 47,
          "time": 132.5,
          "velocity": 0.6771653543307087,
          "duration": 8
        },
        {
          "name": "C#3",
          "midi": 49,
          "time": 140.5,
          "velocity": 0.6771653543307087,
          "duration": 8
        },
        {
          "name": "G#3",
          "midi": 56,
          "time": 140.5,
          "velocity": 0.6771653543307087,
          "duration": 8
        },
        {
          "name": "F2",
          "midi": 41,
          "time": 140.5,
          "velocity": 0.6771653543307087,
          "duration": 8
        },
        {
          "name": "A#4",
          "midi": 70,
          "time": 140.5,
          "velocity": 0.6771653543307087,
          "duration": 8
        },
        {
          "name": "C#4",
          "midi": 61,
          "time": 140.5,
          "velocity": 0.6771653543307087,
          "duration": 8
        },
        {
          "name": "C#5",
          "midi": 73,
          "time": 148.5,
          "velocity": 0.6771653543307087,
          "duration": 8
        },
        {
          "name": "A#4",
          "midi": 70,
          "time": 148.5,
          "velocity": 0.6771653543307087,
          "duration": 8
        },
        {
          "name": "C#3",
          "midi": 49,
          "time": 148.5,
          "velocity": 0.6771653543307087,
          "duration": 8
        },
        {
          "name": "F#2",
          "midi": 42,
          "time": 148.5,
          "velocity": 0.6771653543307087,
          "duration": 8
        },
        {
          "name": "A#3",
          "midi": 58,
          "time": 148.5,
          "velocity": 0.6771653543307087,
          "duration": 8
        },
        {
          "name": "D#2",
          "midi": 39,
          "time": 156.5,
          "velocity": 0.6771653543307087,
          "duration": 4
        },
        {
          "name": "A#3",
          "midi": 58,
          "time": 156.5,
          "velocity": 0.6771653543307087,
          "duration": 4
        },
        {
          "name": "A#4",
          "midi": 70,
          "time": 156.5,
          "velocity": 0.6771653543307087,
          "duration": 4
        },
        {
          "name": "F#4",
          "midi": 66,
          "time": 156.5,
          "velocity": 0.6771653543307087,
          "duration": 4
        },
        {
          "name": "D#3",
          "midi": 51,
          "time": 156.5,
          "velocity": 0.6771653543307087,
          "duration": 4
        },
        {
          "name": "D#2",
          "midi": 39,
          "time": 160.5,
          "velocity": 0.6771653543307087,
          "duration": 4
        },
        {
          "name": "A#3",
          "midi": 58,
          "time": 160.5,
          "velocity": 0.6771653543307087,
          "duration": 4
        },
        {
          "name": "G4",
          "midi": 67,
          "time": 160.5,
          "velocity": 0.6771653543307087,
          "duration": 4
        },
        {
          "name": "D#3",
          "midi": 51,
          "time": 160.5,
          "velocity": 0.6771653543307087,
          "duration": 4
        },
        {
          "name": "D#4",
          "midi": 63,
          "time": 164.5,
          "velocity": 0.4251968503937008,
          "duration": 1
        },
        {
          "name": "F#4",
          "midi": 66,
          "time": 164.5,
          "velocity": 0.4251968503937008,
          "duration": 1
        },
        {
          "name": "B3",
          "midi": 59,
          "time": 164.5,
          "velocity": 0.4251968503937008,
          "duration": 1
        },
        {
          "name": "F#3",
          "midi": 54,
          "time": 164.5,
          "velocity": 0.4251968503937008,
          "duration": 1
        },
        {
          "name": "D#3",
          "midi": 51,
          "time": 164.5,
          "velocity": 0.4251968503937008,
          "duration": 1
        },
        {
          "name": "B1",
          "midi": 35,
          "time": 164.5,
          "velocity": 0.7874015748031497,
          "duration": 8
        },
        {
          "name": "D#4",
          "midi": 63,
          "time": 165.5,
          "velocity": 0.4251968503937008,
          "duration": 1
        },
        {
          "name": "F#4",
          "midi": 66,
          "time": 165.5,
          "velocity": 0.4251968503937008,
          "duration": 1
        },
        {
          "name": "B3",
          "midi": 59,
          "time": 165.5,
          "velocity": 0.4251968503937008,
          "duration": 1
        },
        {
          "name": "F#3",
          "midi": 54,
          "time": 165.5,
          "velocity": 0.4251968503937008,
          "duration": 1
        },
        {
          "name": "D#3",
          "midi": 51,
          "time": 165.5,
          "velocity": 0.4251968503937008,
          "duration": 1
        },
        {
          "name": "D#4",
          "midi": 63,
          "time": 166.5,
          "velocity": 0.4251968503937008,
          "duration": 0.5
        },
        {
          "name": "F#4",
          "midi": 66,
          "time": 166.5,
          "velocity": 0.4251968503937008,
          "duration": 0.5
        },
        {
          "name": "B3",
          "midi": 59,
          "time": 166.5,
          "velocity": 0.4251968503937008,
          "duration": 0.5
        },
        {
          "name": "F#3",
          "midi": 54,
          "time": 166.5,
          "velocity": 0.4251968503937008,
          "duration": 0.5
        },
        {
          "name": "D#3",
          "midi": 51,
          "time": 166.5,
          "velocity": 0.4251968503937008,
          "duration": 0.5
        },
        {
          "name": "D#4",
          "midi": 63,
          "time": 167,
          "velocity": 0.4251968503937008,
          "duration": 0.5
        },
        {
          "name": "F#4",
          "midi": 66,
          "time": 167,
          "velocity": 0.4251968503937008,
          "duration": 0.5
        },
        {
          "name": "B3",
          "midi": 59,
          "time": 167,
          "velocity": 0.4251968503937008,
          "duration": 0.5
        },
        {
          "name": "F#3",
          "midi": 54,
          "time": 167,
          "velocity": 0.4251968503937008,
          "duration": 0.5
        },
        {
          "name": "D#3",
          "midi": 51,
          "time": 167,
          "velocity": 0.4251968503937008,
          "duration": 0.5
        },
        {
          "name": "D#4",
          "midi": 63,
          "time": 167.5,
          "velocity": 0.4251968503937008,
          "duration": 0.5
        },
        {
          "name": "F#4",
          "midi": 66,
          "time": 167.5,
          "velocity": 0.4251968503937008,
          "duration": 0.5
        },
        {
          "name": "B3",
          "midi": 59,
          "time": 167.5,
          "velocity": 0.4251968503937008,
          "duration": 0.5
        },
        {
          "name": "F#3",
          "midi": 54,
          "time": 167.5,
          "velocity": 0.4251968503937008,
          "duration": 0.5
        },
        {
          "name": "D#3",
          "midi": 51,
          "time": 167.5,
          "velocity": 0.4251968503937008,
          "duration": 0.5
        },
        {
          "name": "D#4",
          "midi": 63,
          "time": 168,
          "velocity": 0.4251968503937008,
          "duration": 0.5
        },
        {
          "name": "F#4",
          "midi": 66,
          "time": 168,
          "velocity": 0.4251968503937008,
          "duration": 0.5
        },
        {
          "name": "B3",
          "midi": 59,
          "time": 168,
          "velocity": 0.4251968503937008,
          "duration": 0.5
        },
        {
          "name": "F#3",
          "midi": 54,
          "time": 168,
          "velocity": 0.4251968503937008,
          "duration": 0.5
        },
        {
          "name": "D#3",
          "midi": 51,
          "time": 168,
          "velocity": 0.4251968503937008,
          "duration": 1
        },
        {
          "name": "D#4",
          "midi": 63,
          "time": 168.5,
          "velocity": 0.4251968503937008,
          "duration": 0.5
        },
        {
          "name": "F#4",
          "midi": 66,
          "time": 168.5,
          "velocity": 0.4251968503937008,
          "duration": 0.5
        },
        {
          "name": "B3",
          "midi": 59,
          "time": 168.5,
          "velocity": 0.4251968503937008,
          "duration": 0.5
        },
        {
          "name": "F#3",
          "midi": 54,
          "time": 168.5,
          "velocity": 0.4251968503937008,
          "duration": 0.5
        },
        {
          "name": "D#4",
          "midi": 63,
          "time": 169,
          "velocity": 0.4251968503937008,
          "duration": 0.25
        },
        {
          "name": "F#4",
          "midi": 66,
          "time": 169,
          "velocity": 0.4251968503937008,
          "duration": 0.5
        },
        {
          "name": "B3",
          "midi": 59,
          "time": 169,
          "velocity": 0.4251968503937008,
          "duration": 0.5
        },
        {
          "name": "F#3",
          "midi": 54,
          "time": 169,
          "velocity": 0.4251968503937008,
          "duration": 0.5
        },
        {
          "name": "D#3",
          "midi": 51,
          "time": 169,
          "velocity": 0.4251968503937008,
          "duration": 0.5
        },
        {
          "name": "D#4",
          "midi": 63,
          "time": 169.25,
          "velocity": 0.4251968503937008,
          "duration": 0.25
        },
        {
          "name": "D#4",
          "midi": 63,
          "time": 169.5,
          "velocity": 0.4251968503937008,
          "duration": 0.5
        },
        {
          "name": "F#4",
          "midi": 66,
          "time": 169.5,
          "velocity": 0.4251968503937008,
          "duration": 0.5
        },
        {
          "name": "B3",
          "midi": 59,
          "time": 169.5,
          "velocity": 0.4251968503937008,
          "duration": 0.5
        },
        {
          "name": "F#3",
          "midi": 54,
          "time": 169.5,
          "velocity": 0.4251968503937008,
          "duration": 0.5
        },
        {
          "name": "D#3",
          "midi": 51,
          "time": 169.5,
          "velocity": 0.4251968503937008,
          "duration": 0.5
        },
        {
          "name": "D#4",
          "midi": 63,
          "time": 170,
          "velocity": 0.4251968503937008,
          "duration": 0.5
        },
        {
          "name": "F#4",
          "midi": 66,
          "time": 170,
          "velocity": 0.4251968503937008,
          "duration": 0.5
        },
        {
          "name": "B3",
          "midi": 59,
          "time": 170,
          "velocity": 0.4251968503937008,
          "duration": 0.5
        },
        {
          "name": "F#3",
          "midi": 54,
          "time": 170,
          "velocity": 0.4251968503937008,
          "duration": 0.5
        },
        {
          "name": "D#3",
          "midi": 51,
          "time": 170,
          "velocity": 0.4251968503937008,
          "duration": 0.5
        },
        {
          "name": "D#4",
          "midi": 63,
          "time": 170.5,
          "velocity": 0.4251968503937008,
          "duration": 0.5
        },
        {
          "name": "F#4",
          "midi": 66,
          "time": 170.5,
          "velocity": 0.4251968503937008,
          "duration": 0.5
        },
        {
          "name": "B3",
          "midi": 59,
          "time": 170.5,
          "velocity": 0.4251968503937008,
          "duration": 0.5
        },
        {
          "name": "F#3",
          "midi": 54,
          "time": 170.5,
          "velocity": 0.4251968503937008,
          "duration": 0.5
        },
        {
          "name": "D#3",
          "midi": 51,
          "time": 170.5,
          "velocity": 0.4251968503937008,
          "duration": 0.5
        },
        {
          "name": "D#4",
          "midi": 63,
          "time": 171,
          "velocity": 0.4251968503937008,
          "duration": 0.5
        },
        {
          "name": "F#4",
          "midi": 66,
          "time": 171,
          "velocity": 0.4251968503937008,
          "duration": 0.5
        },
        {
          "name": "B3",
          "midi": 59,
          "time": 171,
          "velocity": 0.4251968503937008,
          "duration": 0.5
        },
        {
          "name": "F#3",
          "midi": 54,
          "time": 171,
          "velocity": 0.4251968503937008,
          "duration": 0.5
        },
        {
          "name": "D#3",
          "midi": 51,
          "time": 171,
          "velocity": 0.4251968503937008,
          "duration": 0.5
        },
        {
          "name": "D#4",
          "midi": 63,
          "time": 171.5,
          "velocity": 0.4251968503937008,
          "duration": 1
        },
        {
          "name": "F#4",
          "midi": 66,
          "time": 171.5,
          "velocity": 0.4251968503937008,
          "duration": 1
        },
        {
          "name": "B3",
          "midi": 59,
          "time": 171.5,
          "velocity": 0.4251968503937008,
          "duration": 1
        },
        {
          "name": "F#3",
          "midi": 54,
          "time": 171.5,
          "velocity": 0.4251968503937008,
          "duration": 1
        },
        {
          "name": "D#3",
          "midi": 51,
          "time": 171.5,
          "velocity": 0.4251968503937008,
          "duration": 1
        },
        {
          "name": "F4",
          "midi": 65,
          "time": 172.5,
          "velocity": 0.4251968503937008,
          "duration": 1
        },
        {
          "name": "D#4",
          "midi": 63,
          "time": 172.5,
          "velocity": 0.4251968503937008,
          "duration": 1
        },
        {
          "name": "C#4",
          "midi": 61,
          "time": 172.5,
          "velocity": 0.4251968503937008,
          "duration": 1
        },
        {
          "name": "B3",
          "midi": 59,
          "time": 172.5,
          "velocity": 0.4251968503937008,
          "duration": 1
        },
        {
          "name": "G#3",
          "midi": 56,
          "time": 172.5,
          "velocity": 0.4251968503937008,
          "duration": 1
        },
        {
          "name": "C#3",
          "midi": 49,
          "time": 172.5,
          "velocity": 0.4251968503937008,
          "duration": 1
        },
        {
          "name": "G#4",
          "midi": 68,
          "time": 172.5,
          "velocity": 0.4251968503937008,
          "duration": 1
        },
        {
          "name": "C#2",
          "midi": 37,
          "time": 172.5,
          "velocity": 0.7874015748031497,
          "duration": 8
        },
        {
          "name": "F4",
          "midi": 65,
          "time": 173.5,
          "velocity": 0.4251968503937008,
          "duration": 1
        },
        {
          "name": "D#4",
          "midi": 63,
          "time": 173.5,
          "velocity": 0.4251968503937008,
          "duration": 1
        },
        {
          "name": "C#4",
          "midi": 61,
          "time": 173.5,
          "velocity": 0.4251968503937008,
          "duration": 1
        },
        {
          "name": "B3",
          "midi": 59,
          "time": 173.5,
          "velocity": 0.4251968503937008,
          "duration": 1
        },
        {
          "name": "G#3",
          "midi": 56,
          "time": 173.5,
          "velocity": 0.4251968503937008,
          "duration": 1
        },
        {
          "name": "C#3",
          "midi": 49,
          "time": 173.5,
          "velocity": 0.4251968503937008,
          "duration": 1
        },
        {
          "name": "G#4",
          "midi": 68,
          "time": 173.5,
          "velocity": 0.4251968503937008,
          "duration": 1
        },
        {
          "name": "F4",
          "midi": 65,
          "time": 174.5,
          "velocity": 0.4251968503937008,
          "duration": 0.5
        },
        {
          "name": "D#4",
          "midi": 63,
          "time": 174.5,
          "velocity": 0.4251968503937008,
          "duration": 0.5
        },
        {
          "name": "C#4",
          "midi": 61,
          "time": 174.5,
          "velocity": 0.4251968503937008,
          "duration": 0.5
        },
        {
          "name": "B3",
          "midi": 59,
          "time": 174.5,
          "velocity": 0.4251968503937008,
          "duration": 0.5
        },
        {
          "name": "G#3",
          "midi": 56,
          "time": 174.5,
          "velocity": 0.4251968503937008,
          "duration": 0.5
        },
        {
          "name": "C#3",
          "midi": 49,
          "time": 174.5,
          "velocity": 0.4251968503937008,
          "duration": 0.5
        },
        {
          "name": "G#4",
          "midi": 68,
          "time": 174.5,
          "velocity": 0.4251968503937008,
          "duration": 0.5
        },
        {
          "name": "F4",
          "midi": 65,
          "time": 175,
          "velocity": 0.4251968503937008,
          "duration": 0.5
        },
        {
          "name": "D#4",
          "midi": 63,
          "time": 175,
          "velocity": 0.4251968503937008,
          "duration": 0.5
        },
        {
          "name": "C#4",
          "midi": 61,
          "time": 175,
          "velocity": 0.4251968503937008,
          "duration": 0.5
        },
        {
          "name": "B3",
          "midi": 59,
          "time": 175,
          "velocity": 0.4251968503937008,
          "duration": 0.5
        },
        {
          "name": "G#3",
          "midi": 56,
          "time": 175,
          "velocity": 0.4251968503937008,
          "duration": 0.5
        },
        {
          "name": "C#3",
          "midi": 49,
          "time": 175,
          "velocity": 0.4251968503937008,
          "duration": 0.5
        },
        {
          "name": "G#4",
          "midi": 68,
          "time": 175,
          "velocity": 0.4251968503937008,
          "duration": 0.5
        },
        {
          "name": "F4",
          "midi": 65,
          "time": 175.5,
          "velocity": 0.4251968503937008,
          "duration": 0.5
        },
        {
          "name": "D#4",
          "midi": 63,
          "time": 175.5,
          "velocity": 0.4251968503937008,
          "duration": 0.5
        },
        {
          "name": "C#4",
          "midi": 61,
          "time": 175.5,
          "velocity": 0.4251968503937008,
          "duration": 0.5
        },
        {
          "name": "B3",
          "midi": 59,
          "time": 175.5,
          "velocity": 0.4251968503937008,
          "duration": 0.5
        },
        {
          "name": "G#3",
          "midi": 56,
          "time": 175.5,
          "velocity": 0.4251968503937008,
          "duration": 0.5
        },
        {
          "name": "C#3",
          "midi": 49,
          "time": 175.5,
          "velocity": 0.4251968503937008,
          "duration": 0.5
        },
        {
          "name": "G#4",
          "midi": 68,
          "time": 175.5,
          "velocity": 0.4251968503937008,
          "duration": 0.5
        },
        {
          "name": "F4",
          "midi": 65,
          "time": 176,
          "velocity": 0.4251968503937008,
          "duration": 0.5
        },
        {
          "name": "C#4",
          "midi": 61,
          "time": 176,
          "velocity": 0.4251968503937008,
          "duration": 0.5
        },
        {
          "name": "B3",
          "midi": 59,
          "time": 176,
          "velocity": 0.4251968503937008,
          "duration": 0.5
        },
        {
          "name": "C#3",
          "midi": 49,
          "time": 176,
          "velocity": 0.4251968503937008,
          "duration": 0.5
        },
        {
          "name": "G#4",
          "midi": 68,
          "time": 176,
          "velocity": 0.4251968503937008,
          "duration": 0.5
        },
        {
          "name": "G#3",
          "midi": 56,
          "time": 176,
          "velocity": 0.4251968503937008,
          "duration": 0.5
        },
        {
          "name": "F4",
          "midi": 65,
          "time": 176.5,
          "velocity": 0.4251968503937008,
          "duration": 0.5
        },
        {
          "name": "D#4",
          "midi": 63,
          "time": 176.5,
          "velocity": 0.4251968503937008,
          "duration": 0.5
        },
        {
          "name": "C#4",
          "midi": 61,
          "time": 176.5,
          "velocity": 0.4251968503937008,
          "duration": 0.5
        },
        {
          "name": "B3",
          "midi": 59,
          "time": 176.5,
          "velocity": 0.4251968503937008,
          "duration": 0.5
        },
        {
          "name": "G#3",
          "midi": 56,
          "time": 176.5,
          "velocity": 0.4251968503937008,
          "duration": 0.5
        },
        {
          "name": "C#3",
          "midi": 49,
          "time": 176.5,
          "velocity": 0.4251968503937008,
          "duration": 0.5
        },
        {
          "name": "G#4",
          "midi": 68,
          "time": 176.5,
          "velocity": 0.4251968503937008,
          "duration": 0.5
        },
        {
          "name": "F4",
          "midi": 65,
          "time": 177,
          "velocity": 0.4251968503937008,
          "duration": 0.5
        },
        {
          "name": "C#4",
          "midi": 61,
          "time": 177,
          "velocity": 0.4251968503937008,
          "duration": 0.5
        },
        {
          "name": "B3",
          "midi": 59,
          "time": 177,
          "velocity": 0.4251968503937008,
          "duration": 0.25
        },
        {
          "name": "G#3",
          "midi": 56,
          "time": 177,
          "velocity": 0.4251968503937008,
          "duration": 0.25
        },
        {
          "name": "C#3",
          "midi": 49,
          "time": 177,
          "velocity": 0.4251968503937008,
          "duration": 0.5
        },
        {
          "name": "G#4",
          "midi": 68,
          "time": 177,
          "velocity": 0.4251968503937008,
          "duration": 0.5
        },
        {
          "name": "B3",
          "midi": 59,
          "time": 177.25,
          "velocity": 0.4251968503937008,
          "duration": 0.25
        },
        {
          "name": "G#3",
          "midi": 56,
          "time": 177.25,
          "velocity": 0.4251968503937008,
          "duration": 0.25
        },
        {
          "name": "F4",
          "midi": 65,
          "time": 177.5,
          "velocity": 0.4251968503937008,
          "duration": 0.5
        },
        {
          "name": "D#4",
          "midi": 63,
          "time": 177.5,
          "velocity": 0.4251968503937008,
          "duration": 0.5
        },
        {
          "name": "C#4",
          "midi": 61,
          "time": 177.5,
          "velocity": 0.4251968503937008,
          "duration": 0.5
        },
        {
          "name": "B3",
          "midi": 59,
          "time": 177.5,
          "velocity": 0.4251968503937008,
          "duration": 0.5
        },
        {
          "name": "G#3",
          "midi": 56,
          "time": 177.5,
          "velocity": 0.4251968503937008,
          "duration": 0.5
        },
        {
          "name": "C#3",
          "midi": 49,
          "time": 177.5,
          "velocity": 0.4251968503937008,
          "duration": 0.5
        },
        {
          "name": "G#4",
          "midi": 68,
          "time": 177.5,
          "velocity": 0.4251968503937008,
          "duration": 0.5
        },
        {
          "name": "F4",
          "midi": 65,
          "time": 178,
          "velocity": 0.4251968503937008,
          "duration": 0.5
        },
        {
          "name": "C#4",
          "midi": 61,
          "time": 178,
          "velocity": 0.4251968503937008,
          "duration": 0.5
        },
        {
          "name": "B3",
          "midi": 59,
          "time": 178,
          "velocity": 0.4251968503937008,
          "duration": 0.5
        },
        {
          "name": "G#3",
          "midi": 56,
          "time": 178,
          "velocity": 0.4251968503937008,
          "duration": 0.5
        },
        {
          "name": "C#3",
          "midi": 49,
          "time": 178,
          "velocity": 0.4251968503937008,
          "duration": 0.5
        },
        {
          "name": "G#4",
          "midi": 68,
          "time": 178,
          "velocity": 0.4251968503937008,
          "duration": 0.5
        },
        {
          "name": "F4",
          "midi": 65,
          "time": 178.5,
          "velocity": 0.4251968503937008,
          "duration": 0.5
        },
        {
          "name": "D#4",
          "midi": 63,
          "time": 178.5,
          "velocity": 0.4251968503937008,
          "duration": 0.5
        },
        {
          "name": "C#4",
          "midi": 61,
          "time": 178.5,
          "velocity": 0.4251968503937008,
          "duration": 0.5
        },
        {
          "name": "B3",
          "midi": 59,
          "time": 178.5,
          "velocity": 0.4251968503937008,
          "duration": 0.5
        },
        {
          "name": "G#3",
          "midi": 56,
          "time": 178.5,
          "velocity": 0.4251968503937008,
          "duration": 0.5
        },
        {
          "name": "C#3",
          "midi": 49,
          "time": 178.5,
          "velocity": 0.4251968503937008,
          "duration": 0.5
        },
        {
          "name": "G#4",
          "midi": 68,
          "time": 178.5,
          "velocity": 0.4251968503937008,
          "duration": 0.5
        },
        {
          "name": "F4",
          "midi": 65,
          "time": 179,
          "velocity": 0.4251968503937008,
          "duration": 0.5
        },
        {
          "name": "C#4",
          "midi": 61,
          "time": 179,
          "velocity": 0.4251968503937008,
          "duration": 0.5
        },
        {
          "name": "B3",
          "midi": 59,
          "time": 179,
          "velocity": 0.4251968503937008,
          "duration": 0.5
        },
        {
          "name": "G#3",
          "midi": 56,
          "time": 179,
          "velocity": 0.4251968503937008,
          "duration": 0.5
        },
        {
          "name": "C#3",
          "midi": 49,
          "time": 179,
          "velocity": 0.4251968503937008,
          "duration": 0.5
        },
        {
          "name": "G#4",
          "midi": 68,
          "time": 179,
          "velocity": 0.4251968503937008,
          "duration": 0.5
        },
        {
          "name": "F4",
          "midi": 65,
          "time": 179.5,
          "velocity": 0.4251968503937008,
          "duration": 1
        },
        {
          "name": "D#4",
          "midi": 63,
          "time": 179.5,
          "velocity": 0.4251968503937008,
          "duration": 1
        },
        {
          "name": "C#4",
          "midi": 61,
          "time": 179.5,
          "velocity": 0.4251968503937008,
          "duration": 1
        },
        {
          "name": "B3",
          "midi": 59,
          "time": 179.5,
          "velocity": 0.4251968503937008,
          "duration": 1
        },
        {
          "name": "G#3",
          "midi": 56,
          "time": 179.5,
          "velocity": 0.4251968503937008,
          "duration": 1
        },
        {
          "name": "C#3",
          "midi": 49,
          "time": 179.5,
          "velocity": 0.4251968503937008,
          "duration": 1
        },
        {
          "name": "G#4",
          "midi": 68,
          "time": 179.5,
          "velocity": 0.4251968503937008,
          "duration": 1
        },
        {
          "name": "F#4",
          "midi": 66,
          "time": 180.5,
          "velocity": 0.4251968503937008,
          "duration": 1
        },
        {
          "name": "C#4",
          "midi": 61,
          "time": 180.5,
          "velocity": 0.4251968503937008,
          "duration": 1
        },
        {
          "name": "A#3",
          "midi": 58,
          "time": 180.5,
          "velocity": 0.4251968503937008,
          "duration": 1
        },
        {
          "name": "C#3",
          "midi": 49,
          "time": 180.5,
          "velocity": 0.4251968503937008,
          "duration": 1
        },
        {
          "name": "F#3",
          "midi": 54,
          "time": 180.5,
          "velocity": 0.4251968503937008,
          "duration": 1
        },
        {
          "name": "G#3",
          "midi": 56,
          "time": 180.5,
          "velocity": 0.4251968503937008,
          "duration": 1
        },
        {
          "name": "A#4",
          "midi": 70,
          "time": 180.5,
          "velocity": 0.4251968503937008,
          "duration": 1
        },
        {
          "name": "F#1",
          "midi": 30,
          "time": 180.5,
          "velocity": 0.7874015748031497,
          "duration": 8
        },
        {
          "name": "F#4",
          "midi": 66,
          "time": 181.5,
          "velocity": 0.4251968503937008,
          "duration": 1
        },
        {
          "name": "C#4",
          "midi": 61,
          "time": 181.5,
          "velocity": 0.4251968503937008,
          "duration": 1
        },
        {
          "name": "A#3",
          "midi": 58,
          "time": 181.5,
          "velocity": 0.4251968503937008,
          "duration": 1
        },
        {
          "name": "C#3",
          "midi": 49,
          "time": 181.5,
          "velocity": 0.4251968503937008,
          "duration": 1
        },
        {
          "name": "F#3",
          "midi": 54,
          "time": 181.5,
          "velocity": 0.4251968503937008,
          "duration": 1
        },
        {
          "name": "G#3",
          "midi": 56,
          "time": 181.5,
          "velocity": 0.4251968503937008,
          "duration": 1
        },
        {
          "name": "A#4",
          "midi": 70,
          "time": 181.5,
          "velocity": 0.4251968503937008,
          "duration": 1
        },
        {
          "name": "F#4",
          "midi": 66,
          "time": 182.5,
          "velocity": 0.4251968503937008,
          "duration": 0.5
        },
        {
          "name": "C#4",
          "midi": 61,
          "time": 182.5,
          "velocity": 0.4251968503937008,
          "duration": 0.5
        },
        {
          "name": "A#3",
          "midi": 58,
          "time": 182.5,
          "velocity": 0.4251968503937008,
          "duration": 0.5
        },
        {
          "name": "C#3",
          "midi": 49,
          "time": 182.5,
          "velocity": 0.4251968503937008,
          "duration": 0.5
        },
        {
          "name": "F#3",
          "midi": 54,
          "time": 182.5,
          "velocity": 0.4251968503937008,
          "duration": 0.5
        },
        {
          "name": "G#3",
          "midi": 56,
          "time": 182.5,
          "velocity": 0.4251968503937008,
          "duration": 0.5
        },
        {
          "name": "A#4",
          "midi": 70,
          "time": 182.5,
          "velocity": 0.4251968503937008,
          "duration": 0.5
        },
        {
          "name": "F#4",
          "midi": 66,
          "time": 183,
          "velocity": 0.4251968503937008,
          "duration": 0.5
        },
        {
          "name": "C#4",
          "midi": 61,
          "time": 183,
          "velocity": 0.4251968503937008,
          "duration": 0.5
        },
        {
          "name": "A#3",
          "midi": 58,
          "time": 183,
          "velocity": 0.4251968503937008,
          "duration": 0.5
        },
        {
          "name": "C#3",
          "midi": 49,
          "time": 183,
          "velocity": 0.4251968503937008,
          "duration": 0.5
        },
        {
          "name": "F#3",
          "midi": 54,
          "time": 183,
          "velocity": 0.4251968503937008,
          "duration": 0.5
        },
        {
          "name": "G#3",
          "midi": 56,
          "time": 183,
          "velocity": 0.4251968503937008,
          "duration": 0.5
        },
        {
          "name": "A#4",
          "midi": 70,
          "time": 183,
          "velocity": 0.4251968503937008,
          "duration": 0.5
        },
        {
          "name": "F#4",
          "midi": 66,
          "time": 183.5,
          "velocity": 0.4251968503937008,
          "duration": 0.5
        },
        {
          "name": "C#4",
          "midi": 61,
          "time": 183.5,
          "velocity": 0.4251968503937008,
          "duration": 0.5
        },
        {
          "name": "A#3",
          "midi": 58,
          "time": 183.5,
          "velocity": 0.4251968503937008,
          "duration": 0.5
        },
        {
          "name": "C#3",
          "midi": 49,
          "time": 183.5,
          "velocity": 0.4251968503937008,
          "duration": 0.5
        },
        {
          "name": "F#3",
          "midi": 54,
          "time": 183.5,
          "velocity": 0.4251968503937008,
          "duration": 0.5
        },
        {
          "name": "G#3",
          "midi": 56,
          "time": 183.5,
          "velocity": 0.4251968503937008,
          "duration": 0.5
        },
        {
          "name": "A#4",
          "midi": 70,
          "time": 183.5,
          "velocity": 0.4251968503937008,
          "duration": 0.5
        },
        {
          "name": "F#4",
          "midi": 66,
          "time": 184,
          "velocity": 0.4251968503937008,
          "duration": 0.5
        },
        {
          "name": "C#4",
          "midi": 61,
          "time": 184,
          "velocity": 0.4251968503937008,
          "duration": 0.5
        },
        {
          "name": "A#3",
          "midi": 58,
          "time": 184,
          "velocity": 0.4251968503937008,
          "duration": 0.5
        },
        {
          "name": "C#3",
          "midi": 49,
          "time": 184,
          "velocity": 0.4251968503937008,
          "duration": 0.5
        },
        {
          "name": "F#3",
          "midi": 54,
          "time": 184,
          "velocity": 0.4251968503937008,
          "duration": 0.5
        },
        {
          "name": "G#3",
          "midi": 56,
          "time": 184,
          "velocity": 0.4251968503937008,
          "duration": 0.5
        },
        {
          "name": "A#4",
          "midi": 70,
          "time": 184,
          "velocity": 0.4251968503937008,
          "duration": 0.5
        },
        {
          "name": "F#4",
          "midi": 66,
          "time": 184.5,
          "velocity": 0.4251968503937008,
          "duration": 0.5
        },
        {
          "name": "C#4",
          "midi": 61,
          "time": 184.5,
          "velocity": 0.4251968503937008,
          "duration": 0.5
        },
        {
          "name": "A#3",
          "midi": 58,
          "time": 184.5,
          "velocity": 0.4251968503937008,
          "duration": 0.5
        },
        {
          "name": "C#3",
          "midi": 49,
          "time": 184.5,
          "velocity": 0.4251968503937008,
          "duration": 0.5
        },
        {
          "name": "F#3",
          "midi": 54,
          "time": 184.5,
          "velocity": 0.4251968503937008,
          "duration": 0.5
        },
        {
          "name": "G#3",
          "midi": 56,
          "time": 184.5,
          "velocity": 0.4251968503937008,
          "duration": 0.5
        },
        {
          "name": "A#4",
          "midi": 70,
          "time": 184.5,
          "velocity": 0.4251968503937008,
          "duration": 0.5
        },
        {
          "name": "F#4",
          "midi": 66,
          "time": 185,
          "velocity": 0.4251968503937008,
          "duration": 0.5
        },
        {
          "name": "C#4",
          "midi": 61,
          "time": 185,
          "velocity": 0.4251968503937008,
          "duration": 0.5
        },
        {
          "name": "A#3",
          "midi": 58,
          "time": 185,
          "velocity": 0.4251968503937008,
          "duration": 0.5
        },
        {
          "name": "C#3",
          "midi": 49,
          "time": 185,
          "velocity": 0.4251968503937008,
          "duration": 0.5
        },
        {
          "name": "F#3",
          "midi": 54,
          "time": 185,
          "velocity": 0.4251968503937008,
          "duration": 0.5
        },
        {
          "name": "G#3",
          "midi": 56,
          "time": 185,
          "velocity": 0.4251968503937008,
          "duration": 0.5
        },
        {
          "name": "A#4",
          "midi": 70,
          "time": 185,
          "velocity": 0.4251968503937008,
          "duration": 0.5
        },
        {
          "name": "F#4",
          "midi": 66,
          "time": 185.5,
          "velocity": 0.4251968503937008,
          "duration": 0.5
        },
        {
          "name": "C#4",
          "midi": 61,
          "time": 185.5,
          "velocity": 0.4251968503937008,
          "duration": 0.5
        },
        {
          "name": "A#3",
          "midi": 58,
          "time": 185.5,
          "velocity": 0.4251968503937008,
          "duration": 0.5
        },
        {
          "name": "C#3",
          "midi": 49,
          "time": 185.5,
          "velocity": 0.4251968503937008,
          "duration": 0.5
        },
        {
          "name": "F#3",
          "midi": 54,
          "time": 185.5,
          "velocity": 0.4251968503937008,
          "duration": 0.5
        },
        {
          "name": "G#3",
          "midi": 56,
          "time": 185.5,
          "velocity": 0.4251968503937008,
          "duration": 0.5
        },
        {
          "name": "A#4",
          "midi": 70,
          "time": 185.5,
          "velocity": 0.4251968503937008,
          "duration": 0.5
        },
        {
          "name": "F#4",
          "midi": 66,
          "time": 186,
          "velocity": 0.4251968503937008,
          "duration": 0.5
        },
        {
          "name": "C#4",
          "midi": 61,
          "time": 186,
          "velocity": 0.4251968503937008,
          "duration": 0.5
        },
        {
          "name": "A#3",
          "midi": 58,
          "time": 186,
          "velocity": 0.4251968503937008,
          "duration": 0.5
        },
        {
          "name": "C#3",
          "midi": 49,
          "time": 186,
          "velocity": 0.4251968503937008,
          "duration": 0.5
        },
        {
          "name": "F#3",
          "midi": 54,
          "time": 186,
          "velocity": 0.4251968503937008,
          "duration": 0.5
        },
        {
          "name": "G#3",
          "midi": 56,
          "time": 186,
          "velocity": 0.4251968503937008,
          "duration": 0.5
        },
        {
          "name": "A#4",
          "midi": 70,
          "time": 186,
          "velocity": 0.4251968503937008,
          "duration": 0.5
        },
        {
          "name": "F#4",
          "midi": 66,
          "time": 186.5,
          "velocity": 0.4251968503937008,
          "duration": 0.5
        },
        {
          "name": "C#4",
          "midi": 61,
          "time": 186.5,
          "velocity": 0.4251968503937008,
          "duration": 0.5
        },
        {
          "name": "A#3",
          "midi": 58,
          "time": 186.5,
          "velocity": 0.4251968503937008,
          "duration": 0.5
        },
        {
          "name": "C#3",
          "midi": 49,
          "time": 186.5,
          "velocity": 0.4251968503937008,
          "duration": 0.5
        },
        {
          "name": "F#3",
          "midi": 54,
          "time": 186.5,
          "velocity": 0.4251968503937008,
          "duration": 0.5
        },
        {
          "name": "G#3",
          "midi": 56,
          "time": 186.5,
          "velocity": 0.4251968503937008,
          "duration": 0.5
        },
        {
          "name": "A#4",
          "midi": 70,
          "time": 186.5,
          "velocity": 0.4251968503937008,
          "duration": 0.5
        },
        {
          "name": "F#4",
          "midi": 66,
          "time": 187,
          "velocity": 0.4251968503937008,
          "duration": 0.5
        },
        {
          "name": "C#4",
          "midi": 61,
          "time": 187,
          "velocity": 0.4251968503937008,
          "duration": 0.5
        },
        {
          "name": "A#3",
          "midi": 58,
          "time": 187,
          "velocity": 0.4251968503937008,
          "duration": 0.5
        },
        {
          "name": "C#3",
          "midi": 49,
          "time": 187,
          "velocity": 0.4251968503937008,
          "duration": 0.5
        },
        {
          "name": "F#3",
          "midi": 54,
          "time": 187,
          "velocity": 0.4251968503937008,
          "duration": 0.5
        },
        {
          "name": "G#3",
          "midi": 56,
          "time": 187,
          "velocity": 0.4251968503937008,
          "duration": 0.5
        },
        {
          "name": "A#4",
          "midi": 70,
          "time": 187,
          "velocity": 0.4251968503937008,
          "duration": 0.5
        },
        {
          "name": "F#4",
          "midi": 66,
          "time": 187.5,
          "velocity": 0.4251968503937008,
          "duration": 1
        },
        {
          "name": "C#4",
          "midi": 61,
          "time": 187.5,
          "velocity": 0.4251968503937008,
          "duration": 1
        },
        {
          "name": "A#3",
          "midi": 58,
          "time": 187.5,
          "velocity": 0.4251968503937008,
          "duration": 1
        },
        {
          "name": "C#3",
          "midi": 49,
          "time": 187.5,
          "velocity": 0.4251968503937008,
          "duration": 1
        },
        {
          "name": "F#3",
          "midi": 54,
          "time": 187.5,
          "velocity": 0.4251968503937008,
          "duration": 1
        },
        {
          "name": "G#3",
          "midi": 56,
          "time": 187.5,
          "velocity": 0.4251968503937008,
          "duration": 1
        },
        {
          "name": "A#4",
          "midi": 70,
          "time": 187.5,
          "velocity": 0.4251968503937008,
          "duration": 1
        },
        {
          "name": "A#4",
          "midi": 70,
          "time": 188.5,
          "velocity": 0.4251968503937008,
          "duration": 1
        },
        {
          "name": "F#4",
          "midi": 66,
          "time": 188.5,
          "velocity": 0.4251968503937008,
          "duration": 1
        },
        {
          "name": "D#4",
          "midi": 63,
          "time": 188.5,
          "velocity": 0.4251968503937008,
          "duration": 1
        },
        {
          "name": "A#3",
          "midi": 58,
          "time": 188.5,
          "velocity": 0.4251968503937008,
          "duration": 1
        },
        {
          "name": "C#4",
          "midi": 61,
          "time": 188.5,
          "velocity": 0.4251968503937008,
          "duration": 1
        },
        {
          "name": "D#3",
          "midi": 51,
          "time": 188.5,
          "velocity": 0.4251968503937008,
          "duration": 1
        },
        {
          "name": "A#2",
          "midi": 46,
          "time": 188.5,
          "velocity": 0.4251968503937008,
          "duration": 1
        },
        {
          "name": "D#1",
          "midi": 27,
          "time": 188.5,
          "velocity": 0.7874015748031497,
          "duration": 8
        },
        {
          "name": "A#4",
          "midi": 70,
          "time": 189.5,
          "velocity": 0.4251968503937008,
          "duration": 1
        },
        {
          "name": "F#4",
          "midi": 66,
          "time": 189.5,
          "velocity": 0.4251968503937008,
          "duration": 1
        },
        {
          "name": "D#4",
          "midi": 63,
          "time": 189.5,
          "velocity": 0.4251968503937008,
          "duration": 1
        },
        {
          "name": "A#3",
          "midi": 58,
          "time": 189.5,
          "velocity": 0.4251968503937008,
          "duration": 1
        },
        {
          "name": "C#4",
          "midi": 61,
          "time": 189.5,
          "velocity": 0.4251968503937008,
          "duration": 1
        },
        {
          "name": "D#3",
          "midi": 51,
          "time": 189.5,
          "velocity": 0.4251968503937008,
          "duration": 1
        },
        {
          "name": "A#2",
          "midi": 46,
          "time": 189.5,
          "velocity": 0.4251968503937008,
          "duration": 1
        },
        {
          "name": "A#4",
          "midi": 70,
          "time": 190.5,
          "velocity": 0.4251968503937008,
          "duration": 0.5
        },
        {
          "name": "F#4",
          "midi": 66,
          "time": 190.5,
          "velocity": 0.4251968503937008,
          "duration": 0.5
        },
        {
          "name": "D#4",
          "midi": 63,
          "time": 190.5,
          "velocity": 0.4251968503937008,
          "duration": 0.5
        },
        {
          "name": "A#3",
          "midi": 58,
          "time": 190.5,
          "velocity": 0.4251968503937008,
          "duration": 0.5
        },
        {
          "name": "C#4",
          "midi": 61,
          "time": 190.5,
          "velocity": 0.4251968503937008,
          "duration": 0.5
        },
        {
          "name": "D#3",
          "midi": 51,
          "time": 190.5,
          "velocity": 0.4251968503937008,
          "duration": 0.5
        },
        {
          "name": "A#2",
          "midi": 46,
          "time": 190.5,
          "velocity": 0.4251968503937008,
          "duration": 0.5
        },
        {
          "name": "A#4",
          "midi": 70,
          "time": 191,
          "velocity": 0.4251968503937008,
          "duration": 0.5
        },
        {
          "name": "F#4",
          "midi": 66,
          "time": 191,
          "velocity": 0.4251968503937008,
          "duration": 0.5
        },
        {
          "name": "D#4",
          "midi": 63,
          "time": 191,
          "velocity": 0.4251968503937008,
          "duration": 0.5
        },
        {
          "name": "A#3",
          "midi": 58,
          "time": 191,
          "velocity": 0.4251968503937008,
          "duration": 0.5
        },
        {
          "name": "C#4",
          "midi": 61,
          "time": 191,
          "velocity": 0.4251968503937008,
          "duration": 0.5
        },
        {
          "name": "D#3",
          "midi": 51,
          "time": 191,
          "velocity": 0.4251968503937008,
          "duration": 0.5
        },
        {
          "name": "A#2",
          "midi": 46,
          "time": 191,
          "velocity": 0.4251968503937008,
          "duration": 0.5
        },
        {
          "name": "A#4",
          "midi": 70,
          "time": 191.5,
          "velocity": 0.4251968503937008,
          "duration": 0.5
        },
        {
          "name": "F#4",
          "midi": 66,
          "time": 191.5,
          "velocity": 0.4251968503937008,
          "duration": 0.5
        },
        {
          "name": "D#4",
          "midi": 63,
          "time": 191.5,
          "velocity": 0.4251968503937008,
          "duration": 0.5
        },
        {
          "name": "A#3",
          "midi": 58,
          "time": 191.5,
          "velocity": 0.4251968503937008,
          "duration": 0.5
        },
        {
          "name": "C#4",
          "midi": 61,
          "time": 191.5,
          "velocity": 0.4251968503937008,
          "duration": 0.5
        },
        {
          "name": "D#3",
          "midi": 51,
          "time": 191.5,
          "velocity": 0.4251968503937008,
          "duration": 0.5
        },
        {
          "name": "A#2",
          "midi": 46,
          "time": 191.5,
          "velocity": 0.4251968503937008,
          "duration": 0.5
        },
        {
          "name": "A#4",
          "midi": 70,
          "time": 192,
          "velocity": 0.4251968503937008,
          "duration": 0.5
        },
        {
          "name": "F#4",
          "midi": 66,
          "time": 192,
          "velocity": 0.4251968503937008,
          "duration": 0.5
        },
        {
          "name": "D#4",
          "midi": 63,
          "time": 192,
          "velocity": 0.4251968503937008,
          "duration": 0.5
        },
        {
          "name": "A#3",
          "midi": 58,
          "time": 192,
          "velocity": 0.4251968503937008,
          "duration": 0.5
        },
        {
          "name": "C#4",
          "midi": 61,
          "time": 192,
          "velocity": 0.4251968503937008,
          "duration": 0.5
        },
        {
          "name": "D#3",
          "midi": 51,
          "time": 192,
          "velocity": 0.4251968503937008,
          "duration": 0.5
        },
        {
          "name": "A#2",
          "midi": 46,
          "time": 192,
          "velocity": 0.4251968503937008,
          "duration": 0.5
        },
        {
          "name": "A#4",
          "midi": 70,
          "time": 192.5,
          "velocity": 0.4251968503937008,
          "duration": 0.5
        },
        {
          "name": "G4",
          "midi": 67,
          "time": 192.5,
          "velocity": 0.4251968503937008,
          "duration": 0.5
        },
        {
          "name": "D#4",
          "midi": 63,
          "time": 192.5,
          "velocity": 0.4251968503937008,
          "duration": 0.5
        },
        {
          "name": "C#4",
          "midi": 61,
          "time": 192.5,
          "velocity": 0.4251968503937008,
          "duration": 0.5
        },
        {
          "name": "A#3",
          "midi": 58,
          "time": 192.5,
          "velocity": 0.4251968503937008,
          "duration": 0.5
        },
        {
          "name": "D#3",
          "midi": 51,
          "time": 192.5,
          "velocity": 0.4251968503937008,
          "duration": 0.5
        },
        {
          "name": "A#2",
          "midi": 46,
          "time": 192.5,
          "velocity": 0.4251968503937008,
          "duration": 0.5
        },
        {
          "name": "A#4",
          "midi": 70,
          "time": 193,
          "velocity": 0.4251968503937008,
          "duration": 0.5
        },
        {
          "name": "G4",
          "midi": 67,
          "time": 193,
          "velocity": 0.4251968503937008,
          "duration": 0.5
        },
        {
          "name": "D#4",
          "midi": 63,
          "time": 193,
          "velocity": 0.4251968503937008,
          "duration": 0.5
        },
        {
          "name": "C#4",
          "midi": 61,
          "time": 193,
          "velocity": 0.4251968503937008,
          "duration": 0.5
        },
        {
          "name": "A#3",
          "midi": 58,
          "time": 193,
          "velocity": 0.4251968503937008,
          "duration": 0.5
        },
        {
          "name": "D#3",
          "midi": 51,
          "time": 193,
          "velocity": 0.4251968503937008,
          "duration": 0.5
        },
        {
          "name": "A#2",
          "midi": 46,
          "time": 193,
          "velocity": 0.4251968503937008,
          "duration": 0.5
        },
        {
          "name": "A#4",
          "midi": 70,
          "time": 193.5,
          "velocity": 0.4251968503937008,
          "duration": 0.5
        },
        {
          "name": "G4",
          "midi": 67,
          "time": 193.5,
          "velocity": 0.4251968503937008,
          "duration": 0.5
        },
        {
          "name": "D#4",
          "midi": 63,
          "time": 193.5,
          "velocity": 0.4251968503937008,
          "duration": 0.5
        },
        {
          "name": "C#4",
          "midi": 61,
          "time": 193.5,
          "velocity": 0.4251968503937008,
          "duration": 0.5
        },
        {
          "name": "A#3",
          "midi": 58,
          "time": 193.5,
          "velocity": 0.4251968503937008,
          "duration": 0.5
        },
        {
          "name": "D#3",
          "midi": 51,
          "time": 193.5,
          "velocity": 0.4251968503937008,
          "duration": 0.5
        },
        {
          "name": "A#2",
          "midi": 46,
          "time": 193.5,
          "velocity": 0.4251968503937008,
          "duration": 0.5
        },
        {
          "name": "A#4",
          "midi": 70,
          "time": 194,
          "velocity": 0.4251968503937008,
          "duration": 0.5
        },
        {
          "name": "G4",
          "midi": 67,
          "time": 194,
          "velocity": 0.4251968503937008,
          "duration": 0.5
        },
        {
          "name": "D#4",
          "midi": 63,
          "time": 194,
          "velocity": 0.4251968503937008,
          "duration": 0.5
        },
        {
          "name": "C#4",
          "midi": 61,
          "time": 194,
          "velocity": 0.4251968503937008,
          "duration": 0.5
        },
        {
          "name": "A#3",
          "midi": 58,
          "time": 194,
          "velocity": 0.4251968503937008,
          "duration": 0.5
        },
        {
          "name": "D#3",
          "midi": 51,
          "time": 194,
          "velocity": 0.4251968503937008,
          "duration": 0.5
        },
        {
          "name": "A#2",
          "midi": 46,
          "time": 194,
          "velocity": 0.4251968503937008,
          "duration": 0.5
        },
        {
          "name": "A#4",
          "midi": 70,
          "time": 194.5,
          "velocity": 0.4251968503937008,
          "duration": 0.5
        },
        {
          "name": "G4",
          "midi": 67,
          "time": 194.5,
          "velocity": 0.4251968503937008,
          "duration": 0.5
        },
        {
          "name": "D#4",
          "midi": 63,
          "time": 194.5,
          "velocity": 0.4251968503937008,
          "duration": 0.5
        },
        {
          "name": "C#4",
          "midi": 61,
          "time": 194.5,
          "velocity": 0.4251968503937008,
          "duration": 0.5
        },
        {
          "name": "A#3",
          "midi": 58,
          "time": 194.5,
          "velocity": 0.4251968503937008,
          "duration": 0.5
        },
        {
          "name": "D#3",
          "midi": 51,
          "time": 194.5,
          "velocity": 0.4251968503937008,
          "duration": 0.5
        },
        {
          "name": "A#2",
          "midi": 46,
          "time": 194.5,
          "velocity": 0.4251968503937008,
          "duration": 0.5
        },
        {
          "name": "A#4",
          "midi": 70,
          "time": 195,
          "velocity": 0.4251968503937008,
          "duration": 0.5
        },
        {
          "name": "G4",
          "midi": 67,
          "time": 195,
          "velocity": 0.4251968503937008,
          "duration": 0.5
        },
        {
          "name": "D#4",
          "midi": 63,
          "time": 195,
          "velocity": 0.4251968503937008,
          "duration": 0.5
        },
        {
          "name": "C#4",
          "midi": 61,
          "time": 195,
          "velocity": 0.4251968503937008,
          "duration": 0.5
        },
        {
          "name": "A#3",
          "midi": 58,
          "time": 195,
          "velocity": 0.4251968503937008,
          "duration": 0.5
        },
        {
          "name": "D#3",
          "midi": 51,
          "time": 195,
          "velocity": 0.4251968503937008,
          "duration": 0.5
        },
        {
          "name": "A#2",
          "midi": 46,
          "time": 195,
          "velocity": 0.4251968503937008,
          "duration": 0.5
        },
        {
          "name": "A#4",
          "midi": 70,
          "time": 195.5,
          "velocity": 0.4251968503937008,
          "duration": 0.5
        },
        {
          "name": "G4",
          "midi": 67,
          "time": 195.5,
          "velocity": 0.4251968503937008,
          "duration": 0.5
        },
        {
          "name": "D#4",
          "midi": 63,
          "time": 195.5,
          "velocity": 0.4251968503937008,
          "duration": 0.5
        },
        {
          "name": "C#4",
          "midi": 61,
          "time": 195.5,
          "velocity": 0.4251968503937008,
          "duration": 0.5
        },
        {
          "name": "A#3",
          "midi": 58,
          "time": 195.5,
          "velocity": 0.4251968503937008,
          "duration": 0.5
        },
        {
          "name": "D#3",
          "midi": 51,
          "time": 195.5,
          "velocity": 0.4251968503937008,
          "duration": 0.5
        },
        {
          "name": "A#2",
          "midi": 46,
          "time": 195.5,
          "velocity": 0.4251968503937008,
          "duration": 0.5
        },
        {
          "name": "G3",
          "midi": 55,
          "time": 195.5,
          "velocity": 0.4251968503937008,
          "duration": 0.5
        },
        {
          "name": "A#4",
          "midi": 70,
          "time": 196,
          "velocity": 0.4251968503937008,
          "duration": 0.5
        },
        {
          "name": "D#4",
          "midi": 63,
          "time": 196,
          "velocity": 0.4251968503937008,
          "duration": 0.5
        },
        {
          "name": "C#4",
          "midi": 61,
          "time": 196,
          "velocity": 0.4251968503937008,
          "duration": 0.5
        },
        {
          "name": "A#3",
          "midi": 58,
          "time": 196,
          "velocity": 0.4251968503937008,
          "duration": 0.5
        },
        {
          "name": "D#3",
          "midi": 51,
          "time": 196,
          "velocity": 0.4251968503937008,
          "duration": 0.5
        },
        {
          "name": "A#2",
          "midi": 46,
          "time": 196,
          "velocity": 0.4251968503937008,
          "duration": 0.5
        },
        {
          "name": "G2",
          "midi": 43,
          "time": 196,
          "velocity": 0.4251968503937008,
          "duration": 0.5
        },
        {
          "name": "C#3",
          "midi": 49,
          "time": 196,
          "velocity": 0.4251968503937008,
          "duration": 0.5
        },
        {
          "name": "G3",
          "midi": 55,
          "time": 196,
          "velocity": 0.4251968503937008,
          "duration": 0.5
        },
        {
          "name": "D#3",
          "midi": 51,
          "time": 196.5,
          "velocity": 0.4251968503937008,
          "duration": 1
        },
        {
          "name": "D#4",
          "midi": 63,
          "time": 196.5,
          "velocity": 0.4251968503937008,
          "duration": 1
        },
        {
          "name": "F#4",
          "midi": 66,
          "time": 196.5,
          "velocity": 0.4251968503937008,
          "duration": 1
        },
        {
          "name": "A#3",
          "midi": 58,
          "time": 196.5,
          "velocity": 0.4251968503937008,
          "duration": 2
        },
        {
          "name": "A#4",
          "midi": 70,
          "time": 196.5,
          "velocity": 0.4251968503937008,
          "duration": 2
        },
        {
          "name": "B3",
          "midi": 59,
          "time": 196.5,
          "velocity": 0.4251968503937008,
          "duration": 1
        },
        {
          "name": "F#2",
          "midi": 42,
          "time": 196.5,
          "velocity": 0.4251968503937008,
          "duration": 1
        },
        {
          "name": "C#4",
          "midi": 61,
          "time": 196.5,
          "velocity": 0.4251968503937008,
          "duration": 1
        },
        {
          "name": "B1",
          "midi": 35,
          "time": 196.5,
          "velocity": 0.7874015748031497,
          "duration": 8
        },
        {
          "name": "D#4",
          "midi": 63,
          "time": 197.5,
          "velocity": 0.4251968503937008,
          "duration": 1
        },
        {
          "name": "F#4",
          "midi": 66,
          "time": 197.5,
          "velocity": 0.4251968503937008,
          "duration": 1
        },
        {
          "name": "B3",
          "midi": 59,
          "time": 197.5,
          "velocity": 0.4251968503937008,
          "duration": 1
        },
        {
          "name": "F#2",
          "midi": 42,
          "time": 197.5,
          "velocity": 0.4251968503937008,
          "duration": 1
        },
        {
          "name": "C#4",
          "midi": 61,
          "time": 197.5,
          "velocity": 0.4251968503937008,
          "duration": 1
        },
        {
          "name": "D#3",
          "midi": 51,
          "time": 197.5,
          "velocity": 0.4251968503937008,
          "duration": 1
        },
        {
          "name": "D#4",
          "midi": 63,
          "time": 198.5,
          "velocity": 0.4251968503937008,
          "duration": 0.5
        },
        {
          "name": "F#4",
          "midi": 66,
          "time": 198.5,
          "velocity": 0.4251968503937008,
          "duration": 0.5
        },
        {
          "name": "B3",
          "midi": 59,
          "time": 198.5,
          "velocity": 0.4251968503937008,
          "duration": 0.5
        },
        {
          "name": "C#4",
          "midi": 61,
          "time": 198.5,
          "velocity": 0.4251968503937008,
          "duration": 0.5
        },
        {
          "name": "F#2",
          "midi": 42,
          "time": 198.5,
          "velocity": 0.4251968503937008,
          "duration": 1
        },
        {
          "name": "D#3",
          "midi": 51,
          "time": 199,
          "velocity": 0.4251968503937008,
          "duration": 0.5
        },
        {
          "name": "D#4",
          "midi": 63,
          "time": 199,
          "velocity": 0.4251968503937008,
          "duration": 0.5
        },
        {
          "name": "F#4",
          "midi": 66,
          "time": 199,
          "velocity": 0.4251968503937008,
          "duration": 0.5
        },
        {
          "name": "B3",
          "midi": 59,
          "time": 199,
          "velocity": 0.4251968503937008,
          "duration": 0.5
        },
        {
          "name": "C#4",
          "midi": 61,
          "time": 199,
          "velocity": 0.4251968503937008,
          "duration": 0.5
        },
        {
          "name": "D#4",
          "midi": 63,
          "time": 199.5,
          "velocity": 0.4251968503937008,
          "duration": 0.5
        },
        {
          "name": "F#4",
          "midi": 66,
          "time": 199.5,
          "velocity": 0.4251968503937008,
          "duration": 0.5
        },
        {
          "name": "B3",
          "midi": 59,
          "time": 199.5,
          "velocity": 0.4251968503937008,
          "duration": 0.5
        },
        {
          "name": "F#2",
          "midi": 42,
          "time": 199.5,
          "velocity": 0.4251968503937008,
          "duration": 5
        },
        {
          "name": "C#4",
          "midi": 61,
          "time": 199.5,
          "velocity": 0.4251968503937008,
          "duration": 0.5
        },
        {
          "name": "D#3",
          "midi": 51,
          "time": 200,
          "velocity": 0.4251968503937008,
          "duration": 0.5
        },
        {
          "name": "D#4",
          "midi": 63,
          "time": 200,
          "velocity": 0.4251968503937008,
          "duration": 0.5
        },
        {
          "name": "F#4",
          "midi": 66,
          "time": 200,
          "velocity": 0.4251968503937008,
          "duration": 0.5
        },
        {
          "name": "B3",
          "midi": 59,
          "time": 200,
          "velocity": 0.4251968503937008,
          "duration": 0.5
        },
        {
          "name": "C#4",
          "midi": 61,
          "time": 200,
          "velocity": 0.4251968503937008,
          "duration": 0.5
        },
        {
          "name": "D#4",
          "midi": 63,
          "time": 200.5,
          "velocity": 0.4251968503937008,
          "duration": 0.5
        },
        {
          "name": "F#4",
          "midi": 66,
          "time": 200.5,
          "velocity": 0.4251968503937008,
          "duration": 0.5
        },
        {
          "name": "B3",
          "midi": 59,
          "time": 200.5,
          "velocity": 0.4251968503937008,
          "duration": 0.5
        },
        {
          "name": "C#4",
          "midi": 61,
          "time": 200.5,
          "velocity": 0.4251968503937008,
          "duration": 0.5
        },
        {
          "name": "D#3",
          "midi": 51,
          "time": 201,
          "velocity": 0.4251968503937008,
          "duration": 0.25
        },
        {
          "name": "D#4",
          "midi": 63,
          "time": 201,
          "velocity": 0.4251968503937008,
          "duration": 0.5
        },
        {
          "name": "F#4",
          "midi": 66,
          "time": 201,
          "velocity": 0.4251968503937008,
          "duration": 0.5
        },
        {
          "name": "B3",
          "midi": 59,
          "time": 201,
          "velocity": 0.4251968503937008,
          "duration": 0.5
        },
        {
          "name": "C#4",
          "midi": 61,
          "time": 201,
          "velocity": 0.4251968503937008,
          "duration": 0.25
        },
        {
          "name": "D#3",
          "midi": 51,
          "time": 201.25,
          "velocity": 0.4251968503937008,
          "duration": 0.25
        },
        {
          "name": "C#4",
          "midi": 61,
          "time": 201.25,
          "velocity": 0.4251968503937008,
          "duration": 0.25
        },
        {
          "name": "D#4",
          "midi": 63,
          "time": 201.5,
          "velocity": 0.4251968503937008,
          "duration": 0.5
        },
        {
          "name": "F#4",
          "midi": 66,
          "time": 201.5,
          "velocity": 0.4251968503937008,
          "duration": 0.5
        },
        {
          "name": "B3",
          "midi": 59,
          "time": 201.5,
          "velocity": 0.4251968503937008,
          "duration": 0.5
        },
        {
          "name": "C#4",
          "midi": 61,
          "time": 201.5,
          "velocity": 0.4251968503937008,
          "duration": 0.5
        },
        {
          "name": "D#3",
          "midi": 51,
          "time": 201.5,
          "velocity": 0.4251968503937008,
          "duration": 0.5
        },
        {
          "name": "D#4",
          "midi": 63,
          "time": 202,
          "velocity": 0.4251968503937008,
          "duration": 0.5
        },
        {
          "name": "F#4",
          "midi": 66,
          "time": 202,
          "velocity": 0.4251968503937008,
          "duration": 0.5
        },
        {
          "name": "B3",
          "midi": 59,
          "time": 202,
          "velocity": 0.4251968503937008,
          "duration": 0.5
        },
        {
          "name": "C#4",
          "midi": 61,
          "time": 202,
          "velocity": 0.4251968503937008,
          "duration": 0.5
        },
        {
          "name": "D#3",
          "midi": 51,
          "time": 202,
          "velocity": 0.4251968503937008,
          "duration": 0.5
        },
        {
          "name": "D#4",
          "midi": 63,
          "time": 202.5,
          "velocity": 0.4251968503937008,
          "duration": 0.5
        },
        {
          "name": "F#4",
          "midi": 66,
          "time": 202.5,
          "velocity": 0.4251968503937008,
          "duration": 0.5
        },
        {
          "name": "B3",
          "midi": 59,
          "time": 202.5,
          "velocity": 0.4251968503937008,
          "duration": 0.5
        },
        {
          "name": "C#4",
          "midi": 61,
          "time": 202.5,
          "velocity": 0.4251968503937008,
          "duration": 0.5
        },
        {
          "name": "D#3",
          "midi": 51,
          "time": 202.5,
          "velocity": 0.4251968503937008,
          "duration": 0.5
        },
        {
          "name": "D#3",
          "midi": 51,
          "time": 203,
          "velocity": 0.4251968503937008,
          "duration": 0.5
        },
        {
          "name": "D#4",
          "midi": 63,
          "time": 203,
          "velocity": 0.4251968503937008,
          "duration": 0.5
        },
        {
          "name": "F#4",
          "midi": 66,
          "time": 203,
          "velocity": 0.4251968503937008,
          "duration": 0.5
        },
        {
          "name": "B3",
          "midi": 59,
          "time": 203,
          "velocity": 0.4251968503937008,
          "duration": 0.5
        },
        {
          "name": "C#4",
          "midi": 61,
          "time": 203,
          "velocity": 0.4251968503937008,
          "duration": 0.5
        },
        {
          "name": "D#3",
          "midi": 51,
          "time": 203.5,
          "velocity": 0.4251968503937008,
          "duration": 0.5
        },
        {
          "name": "D#4",
          "midi": 63,
          "time": 203.5,
          "velocity": 0.4251968503937008,
          "duration": 0.5
        },
        {
          "name": "F#4",
          "midi": 66,
          "time": 203.5,
          "velocity": 0.4251968503937008,
          "duration": 0.5
        },
        {
          "name": "B3",
          "midi": 59,
          "time": 203.5,
          "velocity": 0.4251968503937008,
          "duration": 0.5
        },
        {
          "name": "C#4",
          "midi": 61,
          "time": 203.5,
          "velocity": 0.4251968503937008,
          "duration": 0.5
        },
        {
          "name": "D#3",
          "midi": 51,
          "time": 204,
          "velocity": 0.4251968503937008,
          "duration": 0.5
        },
        {
          "name": "D#4",
          "midi": 63,
          "time": 204,
          "velocity": 0.4251968503937008,
          "duration": 0.5
        },
        {
          "name": "F#4",
          "midi": 66,
          "time": 204,
          "velocity": 0.4251968503937008,
          "duration": 0.5
        },
        {
          "name": "B3",
          "midi": 59,
          "time": 204,
          "velocity": 0.4251968503937008,
          "duration": 0.5
        },
        {
          "name": "C#4",
          "midi": 61,
          "time": 204,
          "velocity": 0.4251968503937008,
          "duration": 0.5
        },
        {
          "name": "G#4",
          "midi": 68,
          "time": 204.5,
          "velocity": 0.4251968503937008,
          "duration": 1
        },
        {
          "name": "F#4",
          "midi": 66,
          "time": 204.5,
          "velocity": 0.4251968503937008,
          "duration": 1
        },
        {
          "name": "D#4",
          "midi": 63,
          "time": 204.5,
          "velocity": 0.4251968503937008,
          "duration": 1
        },
        {
          "name": "B3",
          "midi": 59,
          "time": 204.5,
          "velocity": 0.4251968503937008,
          "duration": 1
        },
        {
          "name": "G#3",
          "midi": 56,
          "time": 204.5,
          "velocity": 0.4251968503937008,
          "duration": 1
        },
        {
          "name": "C#3",
          "midi": 49,
          "time": 204.5,
          "velocity": 0.4251968503937008,
          "duration": 1
        },
        {
          "name": "D#2",
          "midi": 39,
          "time": 204.5,
          "velocity": 0.5039370078740157,
          "duration": 8
        },
        {
          "name": "C#2",
          "midi": 37,
          "time": 204.5,
          "velocity": 0.7874015748031497,
          "duration": 8
        },
        {
          "name": "G#4",
          "midi": 68,
          "time": 205.5,
          "velocity": 0.4251968503937008,
          "duration": 1
        },
        {
          "name": "F#4",
          "midi": 66,
          "time": 205.5,
          "velocity": 0.4251968503937008,
          "duration": 1
        },
        {
          "name": "D#4",
          "midi": 63,
          "time": 205.5,
          "velocity": 0.4251968503937008,
          "duration": 1
        },
        {
          "name": "B3",
          "midi": 59,
          "time": 205.5,
          "velocity": 0.4251968503937008,
          "duration": 1
        },
        {
          "name": "G#3",
          "midi": 56,
          "time": 205.5,
          "velocity": 0.4251968503937008,
          "duration": 1
        },
        {
          "name": "C#3",
          "midi": 49,
          "time": 205.5,
          "velocity": 0.4251968503937008,
          "duration": 1
        },
        {
          "name": "G#4",
          "midi": 68,
          "time": 206.5,
          "velocity": 0.4251968503937008,
          "duration": 0.5
        },
        {
          "name": "F#4",
          "midi": 66,
          "time": 206.5,
          "velocity": 0.4251968503937008,
          "duration": 0.5
        },
        {
          "name": "D#4",
          "midi": 63,
          "time": 206.5,
          "velocity": 0.4251968503937008,
          "duration": 0.5
        },
        {
          "name": "B3",
          "midi": 59,
          "time": 206.5,
          "velocity": 0.4251968503937008,
          "duration": 0.5
        },
        {
          "name": "G#3",
          "midi": 56,
          "time": 206.5,
          "velocity": 0.4251968503937008,
          "duration": 0.5
        },
        {
          "name": "G#4",
          "midi": 68,
          "time": 207,
          "velocity": 0.4251968503937008,
          "duration": 0.5
        },
        {
          "name": "F#4",
          "midi": 66,
          "time": 207,
          "velocity": 0.4251968503937008,
          "duration": 0.5
        },
        {
          "name": "D#4",
          "midi": 63,
          "time": 207,
          "velocity": 0.4251968503937008,
          "duration": 0.5
        },
        {
          "name": "B3",
          "midi": 59,
          "time": 207,
          "velocity": 0.4251968503937008,
          "duration": 0.5
        },
        {
          "name": "G#3",
          "midi": 56,
          "time": 207,
          "velocity": 0.4251968503937008,
          "duration": 0.5
        },
        {
          "name": "C#3",
          "midi": 49,
          "time": 207,
          "velocity": 0.4251968503937008,
          "duration": 0.5
        },
        {
          "name": "G#4",
          "midi": 68,
          "time": 207.5,
          "velocity": 0.4251968503937008,
          "duration": 0.5
        },
        {
          "name": "F#4",
          "midi": 66,
          "time": 207.5,
          "velocity": 0.4251968503937008,
          "duration": 0.5
        },
        {
          "name": "D#4",
          "midi": 63,
          "time": 207.5,
          "velocity": 0.4251968503937008,
          "duration": 0.5
        },
        {
          "name": "B3",
          "midi": 59,
          "time": 207.5,
          "velocity": 0.4251968503937008,
          "duration": 0.5
        },
        {
          "name": "G#3",
          "midi": 56,
          "time": 207.5,
          "velocity": 0.4251968503937008,
          "duration": 0.5
        },
        {
          "name": "G#4",
          "midi": 68,
          "time": 208,
          "velocity": 0.4251968503937008,
          "duration": 0.5
        },
        {
          "name": "F#4",
          "midi": 66,
          "time": 208,
          "velocity": 0.4251968503937008,
          "duration": 0.5
        },
        {
          "name": "D#4",
          "midi": 63,
          "time": 208,
          "velocity": 0.4251968503937008,
          "duration": 0.5
        },
        {
          "name": "B3",
          "midi": 59,
          "time": 208,
          "velocity": 0.4251968503937008,
          "duration": 0.5
        },
        {
          "name": "G#3",
          "midi": 56,
          "time": 208,
          "velocity": 0.4251968503937008,
          "duration": 0.5
        },
        {
          "name": "C#3",
          "midi": 49,
          "time": 208,
          "velocity": 0.4251968503937008,
          "duration": 0.5
        },
        {
          "name": "G#4",
          "midi": 68,
          "time": 208.5,
          "velocity": 0.4251968503937008,
          "duration": 0.5
        },
        {
          "name": "F#4",
          "midi": 66,
          "time": 208.5,
          "velocity": 0.4251968503937008,
          "duration": 0.5
        },
        {
          "name": "D#4",
          "midi": 63,
          "time": 208.5,
          "velocity": 0.4251968503937008,
          "duration": 0.5
        },
        {
          "name": "B3",
          "midi": 59,
          "time": 208.5,
          "velocity": 0.4251968503937008,
          "duration": 0.5
        },
        {
          "name": "G#3",
          "midi": 56,
          "time": 208.5,
          "velocity": 0.4251968503937008,
          "duration": 0.5
        },
        {
          "name": "G#4",
          "midi": 68,
          "time": 209,
          "velocity": 0.4251968503937008,
          "duration": 0.5
        },
        {
          "name": "F#4",
          "midi": 66,
          "time": 209,
          "velocity": 0.4251968503937008,
          "duration": 0.5
        },
        {
          "name": "D#4",
          "midi": 63,
          "time": 209,
          "velocity": 0.4251968503937008,
          "duration": 0.5
        },
        {
          "name": "B3",
          "midi": 59,
          "time": 209,
          "velocity": 0.4251968503937008,
          "duration": 0.5
        },
        {
          "name": "G#3",
          "midi": 56,
          "time": 209,
          "velocity": 0.4251968503937008,
          "duration": 0.5
        },
        {
          "name": "C#3",
          "midi": 49,
          "time": 209,
          "velocity": 0.4251968503937008,
          "duration": 0.5
        },
        {
          "name": "G#4",
          "midi": 68,
          "time": 209.5,
          "velocity": 0.4251968503937008,
          "duration": 0.5
        },
        {
          "name": "F#4",
          "midi": 66,
          "time": 209.5,
          "velocity": 0.4251968503937008,
          "duration": 0.5
        },
        {
          "name": "D#4",
          "midi": 63,
          "time": 209.5,
          "velocity": 0.4251968503937008,
          "duration": 0.5
        },
        {
          "name": "B3",
          "midi": 59,
          "time": 209.5,
          "velocity": 0.4251968503937008,
          "duration": 0.5
        },
        {
          "name": "G#3",
          "midi": 56,
          "time": 209.5,
          "velocity": 0.4251968503937008,
          "duration": 0.5
        },
        {
          "name": "G#4",
          "midi": 68,
          "time": 210,
          "velocity": 0.4251968503937008,
          "duration": 0.5
        },
        {
          "name": "F#4",
          "midi": 66,
          "time": 210,
          "velocity": 0.4251968503937008,
          "duration": 0.5
        },
        {
          "name": "D#4",
          "midi": 63,
          "time": 210,
          "velocity": 0.4251968503937008,
          "duration": 0.5
        },
        {
          "name": "B3",
          "midi": 59,
          "time": 210,
          "velocity": 0.4251968503937008,
          "duration": 0.5
        },
        {
          "name": "G#3",
          "midi": 56,
          "time": 210,
          "velocity": 0.4251968503937008,
          "duration": 0.5
        },
        {
          "name": "C#3",
          "midi": 49,
          "time": 210,
          "velocity": 0.4251968503937008,
          "duration": 0.5
        },
        {
          "name": "G#4",
          "midi": 68,
          "time": 210.5,
          "velocity": 0.4251968503937008,
          "duration": 0.5
        },
        {
          "name": "F#4",
          "midi": 66,
          "time": 210.5,
          "velocity": 0.4251968503937008,
          "duration": 0.5
        },
        {
          "name": "D#4",
          "midi": 63,
          "time": 210.5,
          "velocity": 0.4251968503937008,
          "duration": 0.5
        },
        {
          "name": "B3",
          "midi": 59,
          "time": 210.5,
          "velocity": 0.4251968503937008,
          "duration": 0.5
        },
        {
          "name": "G#3",
          "midi": 56,
          "time": 210.5,
          "velocity": 0.4251968503937008,
          "duration": 0.5
        },
        {
          "name": "G#4",
          "midi": 68,
          "time": 211,
          "velocity": 0.4251968503937008,
          "duration": 0.5
        },
        {
          "name": "F#4",
          "midi": 66,
          "time": 211,
          "velocity": 0.4251968503937008,
          "duration": 0.5
        },
        {
          "name": "D#4",
          "midi": 63,
          "time": 211,
          "velocity": 0.4251968503937008,
          "duration": 0.5
        },
        {
          "name": "B3",
          "midi": 59,
          "time": 211,
          "velocity": 0.4251968503937008,
          "duration": 0.5
        },
        {
          "name": "G#3",
          "midi": 56,
          "time": 211,
          "velocity": 0.4251968503937008,
          "duration": 0.5
        },
        {
          "name": "C#3",
          "midi": 49,
          "time": 211,
          "velocity": 0.4251968503937008,
          "duration": 0.5
        },
        {
          "name": "G#4",
          "midi": 68,
          "time": 211.5,
          "velocity": 0.4251968503937008,
          "duration": 1
        },
        {
          "name": "F#4",
          "midi": 66,
          "time": 211.5,
          "velocity": 0.4251968503937008,
          "duration": 1
        },
        {
          "name": "D#4",
          "midi": 63,
          "time": 211.5,
          "velocity": 0.4251968503937008,
          "duration": 1
        },
        {
          "name": "B3",
          "midi": 59,
          "time": 211.5,
          "velocity": 0.4251968503937008,
          "duration": 1
        },
        {
          "name": "G#3",
          "midi": 56,
          "time": 211.5,
          "velocity": 0.4251968503937008,
          "duration": 1
        },
        {
          "name": "C#3",
          "midi": 49,
          "time": 211.5,
          "velocity": 0.4251968503937008,
          "duration": 1
        },
        {
          "name": "D#3",
          "midi": 51,
          "time": 211.5,
          "velocity": 0.4251968503937008,
          "duration": 1
        },
        {
          "name": "C#5",
          "midi": 73,
          "time": 212.5,
          "velocity": 0.4251968503937008,
          "duration": 0.5
        },
        {
          "name": "A#4",
          "midi": 70,
          "time": 212.5,
          "velocity": 0.4251968503937008,
          "duration": 0.5
        },
        {
          "name": "F#4",
          "midi": 66,
          "time": 212.5,
          "velocity": 0.4251968503937008,
          "duration": 0.5
        },
        {
          "name": "C#4",
          "midi": 61,
          "time": 212.5,
          "velocity": 0.4251968503937008,
          "duration": 0.5
        },
        {
          "name": "A#3",
          "midi": 58,
          "time": 212.5,
          "velocity": 0.4251968503937008,
          "duration": 0.5
        },
        {
          "name": "C#3",
          "midi": 49,
          "time": 212.5,
          "velocity": 0.4251968503937008,
          "duration": 0.5
        },
        {
          "name": "A#2",
          "midi": 46,
          "time": 212.5,
          "velocity": 0.4251968503937008,
          "duration": 0.5
        },
        {
          "name": "F#1",
          "midi": 30,
          "time": 212.5,
          "velocity": 0.7874015748031497,
          "duration": 8
        },
        {
          "name": "C#5",
          "midi": 73,
          "time": 213.5,
          "velocity": 0.4251968503937008,
          "duration": 1
        },
        {
          "name": "A#4",
          "midi": 70,
          "time": 213.5,
          "velocity": 0.4251968503937008,
          "duration": 1
        },
        {
          "name": "F#4",
          "midi": 66,
          "time": 213.5,
          "velocity": 0.4251968503937008,
          "duration": 1
        },
        {
          "name": "C#4",
          "midi": 61,
          "time": 213.5,
          "velocity": 0.4251968503937008,
          "duration": 1
        },
        {
          "name": "A#3",
          "midi": 58,
          "time": 213.5,
          "velocity": 0.4251968503937008,
          "duration": 1
        },
        {
          "name": "C#3",
          "midi": 49,
          "time": 213.5,
          "velocity": 0.4251968503937008,
          "duration": 1
        },
        {
          "name": "A#2",
          "midi": 46,
          "time": 213.5,
          "velocity": 0.4251968503937008,
          "duration": 1
        },
        {
          "name": "C#5",
          "midi": 73,
          "time": 214.5,
          "velocity": 0.4251968503937008,
          "duration": 0.5
        },
        {
          "name": "A#4",
          "midi": 70,
          "time": 214.5,
          "velocity": 0.4251968503937008,
          "duration": 0.5
        },
        {
          "name": "F#4",
          "midi": 66,
          "time": 214.5,
          "velocity": 0.4251968503937008,
          "duration": 0.5
        },
        {
          "name": "C#4",
          "midi": 61,
          "time": 214.5,
          "velocity": 0.4251968503937008,
          "duration": 0.5
        },
        {
          "name": "A#3",
          "midi": 58,
          "time": 214.5,
          "velocity": 0.4251968503937008,
          "duration": 0.5
        },
        {
          "name": "C#3",
          "midi": 49,
          "time": 214.5,
          "velocity": 0.4251968503937008,
          "duration": 0.5
        },
        {
          "name": "A#2",
          "midi": 46,
          "time": 214.5,
          "velocity": 0.4251968503937008,
          "duration": 0.5
        },
        {
          "name": "C#5",
          "midi": 73,
          "time": 215,
          "velocity": 0.4251968503937008,
          "duration": 0.5
        },
        {
          "name": "A#4",
          "midi": 70,
          "time": 215,
          "velocity": 0.4251968503937008,
          "duration": 0.5
        },
        {
          "name": "F#4",
          "midi": 66,
          "time": 215,
          "velocity": 0.4251968503937008,
          "duration": 0.5
        },
        {
          "name": "C#4",
          "midi": 61,
          "time": 215,
          "velocity": 0.4251968503937008,
          "duration": 0.5
        },
        {
          "name": "A#3",
          "midi": 58,
          "time": 215,
          "velocity": 0.4251968503937008,
          "duration": 0.5
        },
        {
          "name": "C#3",
          "midi": 49,
          "time": 215,
          "velocity": 0.4251968503937008,
          "duration": 0.5
        },
        {
          "name": "A#2",
          "midi": 46,
          "time": 215,
          "velocity": 0.4251968503937008,
          "duration": 0.5
        },
        {
          "name": "C#5",
          "midi": 73,
          "time": 215.5,
          "velocity": 0.4251968503937008,
          "duration": 0.5
        },
        {
          "name": "A#4",
          "midi": 70,
          "time": 215.5,
          "velocity": 0.4251968503937008,
          "duration": 0.5
        },
        {
          "name": "F#4",
          "midi": 66,
          "time": 215.5,
          "velocity": 0.4251968503937008,
          "duration": 0.5
        },
        {
          "name": "C#4",
          "midi": 61,
          "time": 215.5,
          "velocity": 0.4251968503937008,
          "duration": 0.5
        },
        {
          "name": "A#3",
          "midi": 58,
          "time": 215.5,
          "velocity": 0.4251968503937008,
          "duration": 0.5
        },
        {
          "name": "C#3",
          "midi": 49,
          "time": 215.5,
          "velocity": 0.4251968503937008,
          "duration": 0.5
        },
        {
          "name": "A#2",
          "midi": 46,
          "time": 215.5,
          "velocity": 0.4251968503937008,
          "duration": 0.5
        },
        {
          "name": "C#5",
          "midi": 73,
          "time": 216,
          "velocity": 0.4251968503937008,
          "duration": 0.5
        },
        {
          "name": "A#4",
          "midi": 70,
          "time": 216,
          "velocity": 0.4251968503937008,
          "duration": 0.5
        },
        {
          "name": "F#4",
          "midi": 66,
          "time": 216,
          "velocity": 0.4251968503937008,
          "duration": 0.5
        },
        {
          "name": "C#4",
          "midi": 61,
          "time": 216,
          "velocity": 0.4251968503937008,
          "duration": 0.5
        },
        {
          "name": "A#3",
          "midi": 58,
          "time": 216,
          "velocity": 0.4251968503937008,
          "duration": 0.5
        },
        {
          "name": "C#3",
          "midi": 49,
          "time": 216,
          "velocity": 0.4251968503937008,
          "duration": 0.5
        },
        {
          "name": "A#2",
          "midi": 46,
          "time": 216,
          "velocity": 0.4251968503937008,
          "duration": 0.5
        },
        {
          "name": "C#5",
          "midi": 73,
          "time": 216.5,
          "velocity": 0.4251968503937008,
          "duration": 0.5
        },
        {
          "name": "A#4",
          "midi": 70,
          "time": 216.5,
          "velocity": 0.4251968503937008,
          "duration": 0.5
        },
        {
          "name": "F#4",
          "midi": 66,
          "time": 216.5,
          "velocity": 0.4251968503937008,
          "duration": 0.5
        },
        {
          "name": "C#4",
          "midi": 61,
          "time": 216.5,
          "velocity": 0.4251968503937008,
          "duration": 0.5
        },
        {
          "name": "A#3",
          "midi": 58,
          "time": 216.5,
          "velocity": 0.4251968503937008,
          "duration": 0.5
        },
        {
          "name": "C#3",
          "midi": 49,
          "time": 216.5,
          "velocity": 0.4251968503937008,
          "duration": 0.5
        },
        {
          "name": "A#2",
          "midi": 46,
          "time": 216.5,
          "velocity": 0.4251968503937008,
          "duration": 0.5
        },
        {
          "name": "C#5",
          "midi": 73,
          "time": 217,
          "velocity": 0.4251968503937008,
          "duration": 0.5
        },
        {
          "name": "A#4",
          "midi": 70,
          "time": 217,
          "velocity": 0.4251968503937008,
          "duration": 0.5
        },
        {
          "name": "F#4",
          "midi": 66,
          "time": 217,
          "velocity": 0.4251968503937008,
          "duration": 0.5
        },
        {
          "name": "C#4",
          "midi": 61,
          "time": 217,
          "velocity": 0.4251968503937008,
          "duration": 0.5
        },
        {
          "name": "A#3",
          "midi": 58,
          "time": 217,
          "velocity": 0.4251968503937008,
          "duration": 0.5
        },
        {
          "name": "C#3",
          "midi": 49,
          "time": 217,
          "velocity": 0.4251968503937008,
          "duration": 0.5
        },
        {
          "name": "A#2",
          "midi": 46,
          "time": 217,
          "velocity": 0.4251968503937008,
          "duration": 0.5
        },
        {
          "name": "C#5",
          "midi": 73,
          "time": 217.5,
          "velocity": 0.4251968503937008,
          "duration": 0.5
        },
        {
          "name": "A#4",
          "midi": 70,
          "time": 217.5,
          "velocity": 0.4251968503937008,
          "duration": 0.5
        },
        {
          "name": "F#4",
          "midi": 66,
          "time": 217.5,
          "velocity": 0.4251968503937008,
          "duration": 0.5
        },
        {
          "name": "C#4",
          "midi": 61,
          "time": 217.5,
          "velocity": 0.4251968503937008,
          "duration": 0.5
        },
        {
          "name": "A#3",
          "midi": 58,
          "time": 217.5,
          "velocity": 0.4251968503937008,
          "duration": 0.5
        },
        {
          "name": "C#3",
          "midi": 49,
          "time": 217.5,
          "velocity": 0.4251968503937008,
          "duration": 0.5
        },
        {
          "name": "A#2",
          "midi": 46,
          "time": 217.5,
          "velocity": 0.4251968503937008,
          "duration": 0.5
        },
        {
          "name": "C#5",
          "midi": 73,
          "time": 218,
          "velocity": 0.4251968503937008,
          "duration": 0.5
        },
        {
          "name": "A#4",
          "midi": 70,
          "time": 218,
          "velocity": 0.4251968503937008,
          "duration": 0.5
        },
        {
          "name": "F#4",
          "midi": 66,
          "time": 218,
          "velocity": 0.4251968503937008,
          "duration": 0.5
        },
        {
          "name": "C#4",
          "midi": 61,
          "time": 218,
          "velocity": 0.4251968503937008,
          "duration": 0.5
        },
        {
          "name": "A#3",
          "midi": 58,
          "time": 218,
          "velocity": 0.4251968503937008,
          "duration": 0.5
        },
        {
          "name": "C#3",
          "midi": 49,
          "time": 218,
          "velocity": 0.4251968503937008,
          "duration": 0.5
        },
        {
          "name": "A#2",
          "midi": 46,
          "time": 218,
          "velocity": 0.4251968503937008,
          "duration": 0.5
        },
        {
          "name": "C#5",
          "midi": 73,
          "time": 218.5,
          "velocity": 0.4251968503937008,
          "duration": 0.5
        },
        {
          "name": "A#4",
          "midi": 70,
          "time": 218.5,
          "velocity": 0.4251968503937008,
          "duration": 0.5
        },
        {
          "name": "F#4",
          "midi": 66,
          "time": 218.5,
          "velocity": 0.4251968503937008,
          "duration": 0.5
        },
        {
          "name": "C#4",
          "midi": 61,
          "time": 218.5,
          "velocity": 0.4251968503937008,
          "duration": 0.5
        },
        {
          "name": "A#3",
          "midi": 58,
          "time": 218.5,
          "velocity": 0.4251968503937008,
          "duration": 0.5
        },
        {
          "name": "C#3",
          "midi": 49,
          "time": 218.5,
          "velocity": 0.4251968503937008,
          "duration": 0.5
        },
        {
          "name": "A#2",
          "midi": 46,
          "time": 218.5,
          "velocity": 0.4251968503937008,
          "duration": 0.5
        },
        {
          "name": "C#5",
          "midi": 73,
          "time": 219,
          "velocity": 0.4251968503937008,
          "duration": 0.5
        },
        {
          "name": "A#4",
          "midi": 70,
          "time": 219,
          "velocity": 0.4251968503937008,
          "duration": 0.5
        },
        {
          "name": "F#4",
          "midi": 66,
          "time": 219,
          "velocity": 0.4251968503937008,
          "duration": 0.5
        },
        {
          "name": "C#4",
          "midi": 61,
          "time": 219,
          "velocity": 0.4251968503937008,
          "duration": 0.5
        },
        {
          "name": "A#3",
          "midi": 58,
          "time": 219,
          "velocity": 0.4251968503937008,
          "duration": 0.5
        },
        {
          "name": "C#3",
          "midi": 49,
          "time": 219,
          "velocity": 0.4251968503937008,
          "duration": 0.5
        },
        {
          "name": "A#2",
          "midi": 46,
          "time": 219,
          "velocity": 0.4251968503937008,
          "duration": 0.5
        },
        {
          "name": "A#4",
          "midi": 70,
          "time": 219.5,
          "velocity": 0.4251968503937008,
          "duration": 0.5
        },
        {
          "name": "F#4",
          "midi": 66,
          "time": 219.5,
          "velocity": 0.4251968503937008,
          "duration": 0.5
        },
        {
          "name": "C#4",
          "midi": 61,
          "time": 219.5,
          "velocity": 0.4251968503937008,
          "duration": 0.5
        },
        {
          "name": "A#3",
          "midi": 58,
          "time": 219.5,
          "velocity": 0.4251968503937008,
          "duration": 0.5
        },
        {
          "name": "C#3",
          "midi": 49,
          "time": 219.5,
          "velocity": 0.4251968503937008,
          "duration": 0.5
        },
        {
          "name": "A#2",
          "midi": 46,
          "time": 219.5,
          "velocity": 0.4251968503937008,
          "duration": 0.5
        },
        {
          "name": "A#4",
          "midi": 70,
          "time": 220,
          "velocity": 0.4251968503937008,
          "duration": 0.5
        },
        {
          "name": "F#4",
          "midi": 66,
          "time": 220,
          "velocity": 0.4251968503937008,
          "duration": 0.5
        },
        {
          "name": "C#4",
          "midi": 61,
          "time": 220,
          "velocity": 0.4251968503937008,
          "duration": 0.5
        },
        {
          "name": "A#3",
          "midi": 58,
          "time": 220,
          "velocity": 0.4251968503937008,
          "duration": 0.5
        },
        {
          "name": "C#3",
          "midi": 49,
          "time": 220,
          "velocity": 0.4251968503937008,
          "duration": 0.5
        },
        {
          "name": "A#2",
          "midi": 46,
          "time": 220,
          "velocity": 0.4251968503937008,
          "duration": 0.5
        },
        {
          "name": "A#4",
          "midi": 70,
          "time": 220.5,
          "velocity": 0.4251968503937008,
          "duration": 1
        },
        {
          "name": "F#4",
          "midi": 66,
          "time": 220.5,
          "velocity": 0.4251968503937008,
          "duration": 1
        },
        {
          "name": "C#4",
          "midi": 61,
          "time": 220.5,
          "velocity": 0.4251968503937008,
          "duration": 1
        },
        {
          "name": "D#4",
          "midi": 63,
          "time": 220.5,
          "velocity": 0.4251968503937008,
          "duration": 1
        },
        {
          "name": "A#3",
          "midi": 58,
          "time": 220.5,
          "velocity": 0.4251968503937008,
          "duration": 1
        },
        {
          "name": "A#2",
          "midi": 46,
          "time": 220.5,
          "velocity": 0.4251968503937008,
          "duration": 1
        },
        {
          "name": "D#3",
          "midi": 51,
          "time": 220.5,
          "velocity": 0.4251968503937008,
          "duration": 1
        },
        {
          "name": "D#2",
          "midi": 39,
          "time": 220.5,
          "velocity": 0.7874015748031497,
          "duration": 8
        },
        {
          "name": "A#4",
          "midi": 70,
          "time": 221.5,
          "velocity": 0.4251968503937008,
          "duration": 1
        },
        {
          "name": "F#4",
          "midi": 66,
          "time": 221.5,
          "velocity": 0.4251968503937008,
          "duration": 1
        },
        {
          "name": "C#4",
          "midi": 61,
          "time": 221.5,
          "velocity": 0.4251968503937008,
          "duration": 1
        },
        {
          "name": "D#4",
          "midi": 63,
          "time": 221.5,
          "velocity": 0.4251968503937008,
          "duration": 1
        },
        {
          "name": "A#3",
          "midi": 58,
          "time": 221.5,
          "velocity": 0.4251968503937008,
          "duration": 1
        },
        {
          "name": "A#2",
          "midi": 46,
          "time": 221.5,
          "velocity": 0.4251968503937008,
          "duration": 1
        },
        {
          "name": "D#3",
          "midi": 51,
          "time": 221.5,
          "velocity": 0.4251968503937008,
          "duration": 1
        },
        {
          "name": "A#4",
          "midi": 70,
          "time": 222.5,
          "velocity": 0.4251968503937008,
          "duration": 0.5
        },
        {
          "name": "F#4",
          "midi": 66,
          "time": 222.5,
          "velocity": 0.4251968503937008,
          "duration": 0.5
        },
        {
          "name": "C#4",
          "midi": 61,
          "time": 222.5,
          "velocity": 0.4251968503937008,
          "duration": 0.5
        },
        {
          "name": "D#4",
          "midi": 63,
          "time": 222.5,
          "velocity": 0.4251968503937008,
          "duration": 0.5
        },
        {
          "name": "A#3",
          "midi": 58,
          "time": 222.5,
          "velocity": 0.4251968503937008,
          "duration": 0.5
        },
        {
          "name": "A#2",
          "midi": 46,
          "time": 222.5,
          "velocity": 0.4251968503937008,
          "duration": 1
        },
        {
          "name": "D#3",
          "midi": 51,
          "time": 222.5,
          "velocity": 0.4251968503937008,
          "duration": 1
        },
        {
          "name": "A#4",
          "midi": 70,
          "time": 223,
          "velocity": 0.4251968503937008,
          "duration": 0.5
        },
        {
          "name": "F#4",
          "midi": 66,
          "time": 223,
          "velocity": 0.4251968503937008,
          "duration": 0.5
        },
        {
          "name": "C#4",
          "midi": 61,
          "time": 223,
          "velocity": 0.4251968503937008,
          "duration": 0.5
        },
        {
          "name": "D#4",
          "midi": 63,
          "time": 223,
          "velocity": 0.4251968503937008,
          "duration": 0.5
        },
        {
          "name": "A#3",
          "midi": 58,
          "time": 223,
          "velocity": 0.4251968503937008,
          "duration": 0.5
        },
        {
          "name": "A#4",
          "midi": 70,
          "time": 224.5,
          "velocity": 0.4251968503937008,
          "duration": 0.5
        },
        {
          "name": "F#4",
          "midi": 66,
          "time": 224.5,
          "velocity": 0.4251968503937008,
          "duration": 0.5
        },
        {
          "name": "C#4",
          "midi": 61,
          "time": 224.5,
          "velocity": 0.4251968503937008,
          "duration": 0.5
        },
        {
          "name": "D#4",
          "midi": 63,
          "time": 224.5,
          "velocity": 0.4251968503937008,
          "duration": 0.5
        },
        {
          "name": "A#3",
          "midi": 58,
          "time": 224.5,
          "velocity": 0.4251968503937008,
          "duration": 0.5
        },
        {
          "name": "A#2",
          "midi": 46,
          "time": 224.5,
          "velocity": 0.4251968503937008,
          "duration": 1
        },
        {
          "name": "D#3",
          "midi": 51,
          "time": 224.5,
          "velocity": 0.4251968503937008,
          "duration": 1
        },
        {
          "name": "A#4",
          "midi": 70,
          "time": 225,
          "velocity": 0.4251968503937008,
          "duration": 0.5
        },
        {
          "name": "F#4",
          "midi": 66,
          "time": 225,
          "velocity": 0.4251968503937008,
          "duration": 0.5
        },
        {
          "name": "C#4",
          "midi": 61,
          "time": 225,
          "velocity": 0.4251968503937008,
          "duration": 0.5
        },
        {
          "name": "D#4",
          "midi": 63,
          "time": 225,
          "velocity": 0.4251968503937008,
          "duration": 0.5
        },
        {
          "name": "A#3",
          "midi": 58,
          "time": 225,
          "velocity": 0.4251968503937008,
          "duration": 0.5
        },
        {
          "name": "A#4",
          "midi": 70,
          "time": 225.5,
          "velocity": 0.4251968503937008,
          "duration": 0.5
        },
        {
          "name": "F#4",
          "midi": 66,
          "time": 225.5,
          "velocity": 0.4251968503937008,
          "duration": 0.5
        },
        {
          "name": "C#4",
          "midi": 61,
          "time": 225.5,
          "velocity": 0.4251968503937008,
          "duration": 0.5
        },
        {
          "name": "D#4",
          "midi": 63,
          "time": 225.5,
          "velocity": 0.4251968503937008,
          "duration": 0.5
        },
        {
          "name": "A#3",
          "midi": 58,
          "time": 225.5,
          "velocity": 0.4251968503937008,
          "duration": 0.5
        },
        {
          "name": "A#2",
          "midi": 46,
          "time": 225.5,
          "velocity": 0.4251968503937008,
          "duration": 1
        },
        {
          "name": "D#3",
          "midi": 51,
          "time": 225.5,
          "velocity": 0.4251968503937008,
          "duration": 1
        },
        {
          "name": "A#4",
          "midi": 70,
          "time": 226,
          "velocity": 0.4251968503937008,
          "duration": 0.5
        },
        {
          "name": "F#4",
          "midi": 66,
          "time": 226,
          "velocity": 0.4251968503937008,
          "duration": 0.5
        },
        {
          "name": "C#4",
          "midi": 61,
          "time": 226,
          "velocity": 0.4251968503937008,
          "duration": 0.5
        },
        {
          "name": "D#4",
          "midi": 63,
          "time": 226,
          "velocity": 0.4251968503937008,
          "duration": 0.5
        },
        {
          "name": "A#3",
          "midi": 58,
          "time": 226,
          "velocity": 0.4251968503937008,
          "duration": 0.5
        },
        {
          "name": "A#4",
          "midi": 70,
          "time": 226.5,
          "velocity": 0.4251968503937008,
          "duration": 1
        },
        {
          "name": "F#4",
          "midi": 66,
          "time": 226.5,
          "velocity": 0.4251968503937008,
          "duration": 1
        },
        {
          "name": "C#4",
          "midi": 61,
          "time": 226.5,
          "velocity": 0.4251968503937008,
          "duration": 1
        },
        {
          "name": "D#4",
          "midi": 63,
          "time": 226.5,
          "velocity": 0.4251968503937008,
          "duration": 1
        },
        {
          "name": "A#3",
          "midi": 58,
          "time": 226.5,
          "velocity": 0.4251968503937008,
          "duration": 1
        },
        {
          "name": "A#2",
          "midi": 46,
          "time": 226.5,
          "velocity": 0.4251968503937008,
          "duration": 1
        },
        {
          "name": "D#3",
          "midi": 51,
          "time": 226.5,
          "velocity": 0.4251968503937008,
          "duration": 1
        },
        {
          "name": "A#2",
          "midi": 46,
          "time": 228.5,
          "velocity": 0.7874015748031497,
          "duration": 4
        },
        {
          "name": "C#3",
          "midi": 49,
          "time": 229,
          "velocity": 0.7874015748031497,
          "duration": 3
        },
        {
          "name": "F3",
          "midi": 53,
          "time": 229.5,
          "velocity": 0.7874015748031497,
          "duration": 2
        },
        {
          "name": "G#3",
          "midi": 56,
          "time": 230,
          "velocity": 0.7874015748031497,
          "duration": 1
        },
        {
          "name": "A#3",
          "midi": 58,
          "time": 230.5,
          "velocity": 0.7874015748031497,
          "duration": 2
        },
        {
          "name": "G#3",
          "midi": 56,
          "time": 231,
          "velocity": 0.7874015748031497,
          "duration": 1.5
        },
        {
          "name": "F3",
          "midi": 53,
          "time": 231.5,
          "velocity": 0.7874015748031497,
          "duration": 1
        },
        {
          "name": "C#3",
          "midi": 49,
          "time": 232,
          "velocity": 0.7874015748031497,
          "duration": 0.5
        },
        {
          "name": "A#2",
          "midi": 46,
          "time": 232.5,
          "velocity": 0.7874015748031497,
          "duration": 4
        },
        {
          "name": "C#3",
          "midi": 49,
          "time": 233,
          "velocity": 0.7874015748031497,
          "duration": 3.5
        },
        {
          "name": "F3",
          "midi": 53,
          "time": 233.5,
          "velocity": 0.7874015748031497,
          "duration": 2
        },
        {
          "name": "G#3",
          "midi": 56,
          "time": 234,
          "velocity": 0.7874015748031497,
          "duration": 1
        },
        {
          "name": "A#3",
          "midi": 58,
          "time": 234.5,
          "velocity": 0.7874015748031497,
          "duration": 2
        },
        {
          "name": "G#3",
          "midi": 56,
          "time": 235,
          "velocity": 0.7874015748031497,
          "duration": 1
        },
        {
          "name": "F3",
          "midi": 53,
          "time": 235.5,
          "velocity": 0.7874015748031497,
          "duration": 1
        },
        {
          "name": "G#3",
          "midi": 56,
          "time": 236,
          "velocity": 0.7874015748031497,
          "duration": 0.5
        },
        {
          "name": "D#3",
          "midi": 51,
          "time": 236.5,
          "velocity": 0.7874015748031497,
          "duration": 3
        },
        {
          "name": "G3",
          "midi": 55,
          "time": 237,
          "velocity": 0.7874015748031497,
          "duration": 2
        },
        {
          "name": "A#3",
          "midi": 58,
          "time": 237.5,
          "velocity": 0.7874015748031497,
          "duration": 1
        },
        {
          "name": "D#4",
          "midi": 63,
          "time": 238,
          "velocity": 0.7874015748031497,
          "duration": 2.5
        },
        {
          "name": "A#3",
          "midi": 58,
          "time": 238.5,
          "velocity": 0.7874015748031497,
          "duration": 2
        },
        {
          "name": "G3",
          "midi": 55,
          "time": 239,
          "velocity": 0.7874015748031497,
          "duration": 1
        },
        {
          "name": "D#3",
          "midi": 51,
          "time": 239.5,
          "velocity": 0.7874015748031497,
          "duration": 1
        },
        {
          "name": "G3",
          "midi": 55,
          "time": 240,
          "velocity": 0.7874015748031497,
          "duration": 0.5
        },
        {
          "name": "D#3",
          "midi": 51,
          "time": 240.5,
          "velocity": 0.7874015748031497,
          "duration": 2
        },
        {
          "name": "G3",
          "midi": 55,
          "time": 241,
          "velocity": 0.7874015748031497,
          "duration": 1
        },
        {
          "name": "A#3",
          "midi": 58,
          "time": 241.5,
          "velocity": 0.7874015748031497,
          "duration": 3
        },
        {
          "name": "G3",
          "midi": 55,
          "time": 242,
          "velocity": 0.7874015748031497,
          "duration": 1
        },
        {
          "name": "D#3",
          "midi": 51,
          "time": 242.5,
          "velocity": 0.7874015748031497,
          "duration": 1
        },
        {
          "name": "G3",
          "midi": 55,
          "time": 243,
          "velocity": 0.7874015748031497,
          "duration": 1
        },
        {
          "name": "D#3",
          "midi": 51,
          "time": 243.5,
          "velocity": 0.7874015748031497,
          "duration": 1
        },
        {
          "name": "G3",
          "midi": 55,
          "time": 244,
          "velocity": 0.7874015748031497,
          "duration": 0.5
        },
        {
          "name": "G#2",
          "midi": 44,
          "time": 244.5,
          "velocity": 0.7874015748031497,
          "duration": 2
        },
        {
          "name": "C3",
          "midi": 48,
          "time": 245,
          "velocity": 0.7874015748031497,
          "duration": 1
        },
        {
          "name": "D#3",
          "midi": 51,
          "time": 245.5,
          "velocity": 0.7874015748031497,
          "duration": 2
        },
        {
          "name": "C3",
          "midi": 48,
          "time": 246,
          "velocity": 0.7874015748031497,
          "duration": 1
        },
        {
          "name": "G#2",
          "midi": 44,
          "time": 246.5,
          "velocity": 0.7874015748031497,
          "duration": 2
        },
        {
          "name": "C3",
          "midi": 48,
          "time": 247,
          "velocity": 0.7874015748031497,
          "duration": 1
        },
        {
          "name": "D#3",
          "midi": 51,
          "time": 247.5,
          "velocity": 0.7874015748031497,
          "duration": 1
        },
        {
          "name": "C3",
          "midi": 48,
          "time": 248,
          "velocity": 0.7874015748031497,
          "duration": 0.5
        },
        {
          "name": "G#2",
          "midi": 44,
          "time": 248.5,
          "velocity": 0.7874015748031497,
          "duration": 2
        },
        {
          "name": "C3",
          "midi": 48,
          "time": 249,
          "velocity": 0.7874015748031497,
          "duration": 1
        },
        {
          "name": "D#3",
          "midi": 51,
          "time": 249.5,
          "velocity": 0.7874015748031497,
          "duration": 2
        },
        {
          "name": "C3",
          "midi": 48,
          "time": 250,
          "velocity": 0.7874015748031497,
          "duration": 1
        },
        {
          "name": "G#2",
          "midi": 44,
          "time": 250.5,
          "velocity": 0.7874015748031497,
          "duration": 2
        },
        {
          "name": "C3",
          "midi": 48,
          "time": 251,
          "velocity": 0.7874015748031497,
          "duration": 1
        },
        {
          "name": "D#3",
          "midi": 51,
          "time": 251.5,
          "velocity": 0.7874015748031497,
          "duration": 1
        },
        {
          "name": "C3",
          "midi": 48,
          "time": 252,
          "velocity": 0.7874015748031497,
          "duration": 0.5
        },
        {
          "name": "F2",
          "midi": 41,
          "time": 252.5,
          "velocity": 0.7874015748031497,
          "duration": 3
        },
        {
          "name": "F3",
          "midi": 53,
          "time": 253,
          "velocity": 0.7874015748031497,
          "duration": 0.5
        },
        {
          "name": "D#3",
          "midi": 51,
          "time": 253.5,
          "velocity": 0.7874015748031497,
          "duration": 0.5
        },
        {
          "name": "C3",
          "midi": 48,
          "time": 254,
          "velocity": 0.7874015748031497,
          "duration": 0.5
        },
        {
          "name": "A#2",
          "midi": 46,
          "time": 254.5,
          "velocity": 0.7874015748031497,
          "duration": 0.5
        },
        {
          "name": "G#2",
          "midi": 44,
          "time": 255,
          "velocity": 0.7874015748031497,
          "duration": 0.5
        },
        {
          "name": "F2",
          "midi": 41,
          "time": 255.5,
          "velocity": 0.7874015748031497,
          "duration": 0.5
        },
        {
          "name": "D#2",
          "midi": 39,
          "time": 256,
          "velocity": 0.7874015748031497,
          "duration": 0.5
        },
        {
          "name": "A2",
          "midi": 45,
          "time": 256.5,
          "velocity": 0.7874015748031497,
          "duration": 1
        },
        {
          "name": "A1",
          "midi": 33,
          "time": 256.5,
          "velocity": 0.7874015748031497,
          "duration": 3
        },
        {
          "name": "C3",
          "midi": 48,
          "time": 257.5,
          "velocity": 0.7874015748031497,
          "duration": 1
        },
        {
          "name": "D#3",
          "midi": 51,
          "time": 257.5,
          "velocity": 0.7874015748031497,
          "duration": 1
        },
        {
          "name": "F3",
          "midi": 53,
          "time": 257.5,
          "velocity": 0.3228346456692913,
          "duration": 1
        },
        {
          "name": "C4",
          "midi": 60,
          "time": 257.5,
          "velocity": 0.7874015748031497,
          "duration": 1
        },
        {
          "name": "D#3",
          "midi": 51,
          "time": 258.5,
          "velocity": 0.7874015748031497,
          "duration": 1
        },
        {
          "name": "C3",
          "midi": 48,
          "time": 258.5,
          "velocity": 0.7874015748031497,
          "duration": 1
        },
        {
          "name": "F3",
          "midi": 53,
          "time": 258.5,
          "velocity": 0.31496062992125984,
          "duration": 1
        },
        {
          "name": "C4",
          "midi": 60,
          "time": 258.5,
          "velocity": 0.7874015748031497,
          "duration": 1
        },
        {
          "name": "F2",
          "midi": 41,
          "time": 259.5,
          "velocity": 0.7874015748031497,
          "duration": 1
        },
        {
          "name": "G#2",
          "midi": 44,
          "time": 259.5,
          "velocity": 0.7874015748031497,
          "duration": 1
        },
        {
          "name": "A#2",
          "midi": 46,
          "time": 260.5,
          "velocity": 0.7874015748031497,
          "duration": 4
        },
        {
          "name": "C#3",
          "midi": 49,
          "time": 261,
          "velocity": 0.7874015748031497,
          "duration": 3
        },
        {
          "name": "F3",
          "midi": 53,
          "time": 261.5,
          "velocity": 0.7874015748031497,
          "duration": 2
        },
        {
          "name": "G#3",
          "midi": 56,
          "time": 262,
          "velocity": 0.7874015748031497,
          "duration": 1
        },
        {
          "name": "A#3",
          "midi": 58,
          "time": 262.5,
          "velocity": 0.7874015748031497,
          "duration": 2
        },
        {
          "name": "G#3",
          "midi": 56,
          "time": 263,
          "velocity": 0.7874015748031497,
          "duration": 1.5
        },
        {
          "name": "F3",
          "midi": 53,
          "time": 263.5,
          "velocity": 0.7874015748031497,
          "duration": 1
        },
        {
          "name": "C#3",
          "midi": 49,
          "time": 264,
          "velocity": 0.7874015748031497,
          "duration": 0.5
        },
        {
          "name": "A#2",
          "midi": 46,
          "time": 264.5,
          "velocity": 0.7874015748031497,
          "duration": 4
        },
        {
          "name": "C#3",
          "midi": 49,
          "time": 265,
          "velocity": 0.7874015748031497,
          "duration": 3.5
        },
        {
          "name": "F3",
          "midi": 53,
          "time": 265.5,
          "velocity": 0.7874015748031497,
          "duration": 2
        },
        {
          "name": "G#3",
          "midi": 56,
          "time": 266,
          "velocity": 0.7874015748031497,
          "duration": 1
        },
        {
          "name": "A#3",
          "midi": 58,
          "time": 266.5,
          "velocity": 0.7874015748031497,
          "duration": 2
        },
        {
          "name": "G#3",
          "midi": 56,
          "time": 267,
          "velocity": 0.7874015748031497,
          "duration": 1
        },
        {
          "name": "F3",
          "midi": 53,
          "time": 267.5,
          "velocity": 0.7874015748031497,
          "duration": 1
        },
        {
          "name": "G#3",
          "midi": 56,
          "time": 268,
          "velocity": 0.7874015748031497,
          "duration": 0.5
        },
        {
          "name": "D#3",
          "midi": 51,
          "time": 268.5,
          "velocity": 0.7874015748031497,
          "duration": 3
        },
        {
          "name": "G3",
          "midi": 55,
          "time": 269,
          "velocity": 0.7874015748031497,
          "duration": 2
        },
        {
          "name": "A#3",
          "midi": 58,
          "time": 269.5,
          "velocity": 0.7874015748031497,
          "duration": 1
        },
        {
          "name": "D#4",
          "midi": 63,
          "time": 270,
          "velocity": 0.7874015748031497,
          "duration": 2.5
        },
        {
          "name": "A#3",
          "midi": 58,
          "time": 270.5,
          "velocity": 0.7874015748031497,
          "duration": 2
        },
        {
          "name": "G3",
          "midi": 55,
          "time": 271,
          "velocity": 0.7874015748031497,
          "duration": 1
        },
        {
          "name": "D#3",
          "midi": 51,
          "time": 271.5,
          "velocity": 0.7874015748031497,
          "duration": 1
        },
        {
          "name": "G3",
          "midi": 55,
          "time": 272,
          "velocity": 0.7874015748031497,
          "duration": 0.5
        },
        {
          "name": "D#3",
          "midi": 51,
          "time": 272.5,
          "velocity": 0.7874015748031497,
          "duration": 2
        },
        {
          "name": "G3",
          "midi": 55,
          "time": 273,
          "velocity": 0.7874015748031497,
          "duration": 1
        },
        {
          "name": "A#3",
          "midi": 58,
          "time": 273.5,
          "velocity": 0.7874015748031497,
          "duration": 3
        },
        {
          "name": "G3",
          "midi": 55,
          "time": 274,
          "velocity": 0.7874015748031497,
          "duration": 1
        },
        {
          "name": "D#3",
          "midi": 51,
          "time": 274.5,
          "velocity": 0.7874015748031497,
          "duration": 1
        },
        {
          "name": "G3",
          "midi": 55,
          "time": 275,
          "velocity": 0.7874015748031497,
          "duration": 1
        },
        {
          "name": "D#3",
          "midi": 51,
          "time": 275.5,
          "velocity": 0.7874015748031497,
          "duration": 1
        },
        {
          "name": "G3",
          "midi": 55,
          "time": 276,
          "velocity": 0.7874015748031497,
          "duration": 0.5
        },
        {
          "name": "G#2",
          "midi": 44,
          "time": 276.5,
          "velocity": 0.7874015748031497,
          "duration": 2
        },
        {
          "name": "C3",
          "midi": 48,
          "time": 277,
          "velocity": 0.7874015748031497,
          "duration": 1
        },
        {
          "name": "D#3",
          "midi": 51,
          "time": 277.5,
          "velocity": 0.7874015748031497,
          "duration": 2
        },
        {
          "name": "C3",
          "midi": 48,
          "time": 278,
          "velocity": 0.7874015748031497,
          "duration": 1
        },
        {
          "name": "G#2",
          "midi": 44,
          "time": 278.5,
          "velocity": 0.7874015748031497,
          "duration": 2
        },
        {
          "name": "C3",
          "midi": 48,
          "time": 279,
          "velocity": 0.7874015748031497,
          "duration": 1
        },
        {
          "name": "D#3",
          "midi": 51,
          "time": 279.5,
          "velocity": 0.7874015748031497,
          "duration": 1
        },
        {
          "name": "C3",
          "midi": 48,
          "time": 280,
          "velocity": 0.7874015748031497,
          "duration": 0.5
        },
        {
          "name": "G#2",
          "midi": 44,
          "time": 280.5,
          "velocity": 0.7874015748031497,
          "duration": 2
        },
        {
          "name": "C3",
          "midi": 48,
          "time": 281,
          "velocity": 0.7874015748031497,
          "duration": 1
        },
        {
          "name": "D#3",
          "midi": 51,
          "time": 281.5,
          "velocity": 0.7874015748031497,
          "duration": 2
        },
        {
          "name": "C3",
          "midi": 48,
          "time": 282,
          "velocity": 0.7874015748031497,
          "duration": 1
        },
        {
          "name": "G#2",
          "midi": 44,
          "time": 282.5,
          "velocity": 0.7874015748031497,
          "duration": 2
        },
        {
          "name": "C3",
          "midi": 48,
          "time": 283,
          "velocity": 0.7874015748031497,
          "duration": 1
        },
        {
          "name": "D#3",
          "midi": 51,
          "time": 283.5,
          "velocity": 0.7874015748031497,
          "duration": 1
        },
        {
          "name": "C3",
          "midi": 48,
          "time": 284,
          "velocity": 0.7874015748031497,
          "duration": 0.5
        },
        {
          "name": "F2",
          "midi": 41,
          "time": 284.5,
          "velocity": 0.7874015748031497,
          "duration": 3
        },
        {
          "name": "F3",
          "midi": 53,
          "time": 285,
          "velocity": 0.7874015748031497,
          "duration": 0.5
        },
        {
          "name": "D#3",
          "midi": 51,
          "time": 285.5,
          "velocity": 0.7874015748031497,
          "duration": 0.5
        },
        {
          "name": "C3",
          "midi": 48,
          "time": 286,
          "velocity": 0.7874015748031497,
          "duration": 0.5
        },
        {
          "name": "A#2",
          "midi": 46,
          "time": 286.5,
          "velocity": 0.7874015748031497,
          "duration": 0.5
        },
        {
          "name": "G#2",
          "midi": 44,
          "time": 287,
          "velocity": 0.7874015748031497,
          "duration": 0.5
        },
        {
          "name": "F2",
          "midi": 41,
          "time": 287.5,
          "velocity": 0.7874015748031497,
          "duration": 0.5
        },
        {
          "name": "D#2",
          "midi": 39,
          "time": 288,
          "velocity": 0.7874015748031497,
          "duration": 0.5
        },
        {
          "name": "A2",
          "midi": 45,
          "time": 288.5,
          "velocity": 0.7874015748031497,
          "duration": 1
        },
        {
          "name": "A1",
          "midi": 33,
          "time": 288.5,
          "velocity": 0.7874015748031497,
          "duration": 3
        },
        {
          "name": "C3",
          "midi": 48,
          "time": 289.5,
          "velocity": 0.7874015748031497,
          "duration": 1
        },
        {
          "name": "D#3",
          "midi": 51,
          "time": 289.5,
          "velocity": 0.7874015748031497,
          "duration": 1
        },
        {
          "name": "C4",
          "midi": 60,
          "time": 289.5,
          "velocity": 0.7874015748031497,
          "duration": 1
        },
        {
          "name": "D#3",
          "midi": 51,
          "time": 290.5,
          "velocity": 0.7874015748031497,
          "duration": 1
        },
        {
          "name": "C3",
          "midi": 48,
          "time": 290.5,
          "velocity": 0.7874015748031497,
          "duration": 1
        },
        {
          "name": "C4",
          "midi": 60,
          "time": 290.5,
          "velocity": 0.7874015748031497,
          "duration": 1
        },
        {
          "name": "A#2",
          "midi": 46,
          "time": 292.5,
          "velocity": 0.7874015748031497,
          "duration": 4
        },
        {
          "name": "C#3",
          "midi": 49,
          "time": 293,
          "velocity": 0.7874015748031497,
          "duration": 3
        },
        {
          "name": "F3",
          "midi": 53,
          "time": 293.5,
          "velocity": 0.7874015748031497,
          "duration": 2
        },
        {
          "name": "G#3",
          "midi": 56,
          "time": 294,
          "velocity": 0.7874015748031497,
          "duration": 1
        },
        {
          "name": "A#3",
          "midi": 58,
          "time": 294.5,
          "velocity": 0.7874015748031497,
          "duration": 2
        },
        {
          "name": "G#3",
          "midi": 56,
          "time": 295,
          "velocity": 0.7874015748031497,
          "duration": 1.5
        },
        {
          "name": "F3",
          "midi": 53,
          "time": 295.5,
          "velocity": 0.7874015748031497,
          "duration": 1
        },
        {
          "name": "C#3",
          "midi": 49,
          "time": 296,
          "velocity": 0.7874015748031497,
          "duration": 0.5
        },
        {
          "name": "A#2",
          "midi": 46,
          "time": 296.5,
          "velocity": 0.7874015748031497,
          "duration": 4
        },
        {
          "name": "C#3",
          "midi": 49,
          "time": 297,
          "velocity": 0.7874015748031497,
          "duration": 3.5
        },
        {
          "name": "F3",
          "midi": 53,
          "time": 297.5,
          "velocity": 0.7874015748031497,
          "duration": 2
        },
        {
          "name": "G#3",
          "midi": 56,
          "time": 298,
          "velocity": 0.7874015748031497,
          "duration": 1
        },
        {
          "name": "A#3",
          "midi": 58,
          "time": 298.5,
          "velocity": 0.7874015748031497,
          "duration": 2
        },
        {
          "name": "G#3",
          "midi": 56,
          "time": 299,
          "velocity": 0.7874015748031497,
          "duration": 1
        },
        {
          "name": "F3",
          "midi": 53,
          "time": 299.5,
          "velocity": 0.7874015748031497,
          "duration": 1
        },
        {
          "name": "G#3",
          "midi": 56,
          "time": 300,
          "velocity": 0.7874015748031497,
          "duration": 0.5
        },
        {
          "name": "D#3",
          "midi": 51,
          "time": 300.5,
          "velocity": 0.7874015748031497,
          "duration": 3
        },
        {
          "name": "G3",
          "midi": 55,
          "time": 301,
          "velocity": 0.7874015748031497,
          "duration": 2
        },
        {
          "name": "A#3",
          "midi": 58,
          "time": 301.5,
          "velocity": 0.7874015748031497,
          "duration": 1
        },
        {
          "name": "D#4",
          "midi": 63,
          "time": 302,
          "velocity": 0.7874015748031497,
          "duration": 2.5
        },
        {
          "name": "A#3",
          "midi": 58,
          "time": 302.5,
          "velocity": 0.7874015748031497,
          "duration": 2
        },
        {
          "name": "G3",
          "midi": 55,
          "time": 303,
          "velocity": 0.7874015748031497,
          "duration": 1
        },
        {
          "name": "D#3",
          "midi": 51,
          "time": 303.5,
          "velocity": 0.7874015748031497,
          "duration": 1
        },
        {
          "name": "G3",
          "midi": 55,
          "time": 304,
          "velocity": 0.7874015748031497,
          "duration": 0.5
        },
        {
          "name": "D#3",
          "midi": 51,
          "time": 304.5,
          "velocity": 0.7874015748031497,
          "duration": 2
        },
        {
          "name": "G3",
          "midi": 55,
          "time": 305,
          "velocity": 0.7874015748031497,
          "duration": 1
        },
        {
          "name": "A#3",
          "midi": 58,
          "time": 305.5,
          "velocity": 0.7874015748031497,
          "duration": 3
        },
        {
          "name": "G3",
          "midi": 55,
          "time": 306,
          "velocity": 0.7874015748031497,
          "duration": 1
        },
        {
          "name": "D#3",
          "midi": 51,
          "time": 306.5,
          "velocity": 0.7874015748031497,
          "duration": 1
        },
        {
          "name": "G3",
          "midi": 55,
          "time": 307,
          "velocity": 0.7874015748031497,
          "duration": 1
        },
        {
          "name": "D#3",
          "midi": 51,
          "time": 307.5,
          "velocity": 0.7874015748031497,
          "duration": 1
        },
        {
          "name": "G3",
          "midi": 55,
          "time": 308,
          "velocity": 0.7874015748031497,
          "duration": 0.5
        },
        {
          "name": "G#2",
          "midi": 44,
          "time": 308.5,
          "velocity": 0.7874015748031497,
          "duration": 2
        },
        {
          "name": "C3",
          "midi": 48,
          "time": 309,
          "velocity": 0.7874015748031497,
          "duration": 1
        },
        {
          "name": "D#3",
          "midi": 51,
          "time": 309.5,
          "velocity": 0.7874015748031497,
          "duration": 2
        },
        {
          "name": "C3",
          "midi": 48,
          "time": 310,
          "velocity": 0.7874015748031497,
          "duration": 1
        },
        {
          "name": "G#2",
          "midi": 44,
          "time": 310.5,
          "velocity": 0.7874015748031497,
          "duration": 2
        },
        {
          "name": "C3",
          "midi": 48,
          "time": 311,
          "velocity": 0.7874015748031497,
          "duration": 1
        },
        {
          "name": "D#3",
          "midi": 51,
          "time": 311.5,
          "velocity": 0.7874015748031497,
          "duration": 1
        },
        {
          "name": "C3",
          "midi": 48,
          "time": 312,
          "velocity": 0.7874015748031497,
          "duration": 0.5
        },
        {
          "name": "G#2",
          "midi": 44,
          "time": 312.5,
          "velocity": 0.7874015748031497,
          "duration": 2
        },
        {
          "name": "C3",
          "midi": 48,
          "time": 313,
          "velocity": 0.7874015748031497,
          "duration": 1
        },
        {
          "name": "D#3",
          "midi": 51,
          "time": 313.5,
          "velocity": 0.7874015748031497,
          "duration": 2
        },
        {
          "name": "C3",
          "midi": 48,
          "time": 314,
          "velocity": 0.7874015748031497,
          "duration": 1
        },
        {
          "name": "G#2",
          "midi": 44,
          "time": 314.5,
          "velocity": 0.7874015748031497,
          "duration": 2
        },
        {
          "name": "C3",
          "midi": 48,
          "time": 315,
          "velocity": 0.7874015748031497,
          "duration": 1
        },
        {
          "name": "D#3",
          "midi": 51,
          "time": 315.5,
          "velocity": 0.7874015748031497,
          "duration": 1
        },
        {
          "name": "C3",
          "midi": 48,
          "time": 316,
          "velocity": 0.7874015748031497,
          "duration": 0.5
        },
        {
          "name": "F2",
          "midi": 41,
          "time": 316.5,
          "velocity": 0.7874015748031497,
          "duration": 2
        },
        {
          "name": "G#2",
          "midi": 44,
          "time": 317,
          "velocity": 0.7874015748031497,
          "duration": 1
        },
        {
          "name": "C3",
          "midi": 48,
          "time": 317.5,
          "velocity": 0.7874015748031497,
          "duration": 2
        },
        {
          "name": "G#2",
          "midi": 44,
          "time": 318,
          "velocity": 0.7874015748031497,
          "duration": 1
        },
        {
          "name": "F2",
          "midi": 41,
          "time": 318.5,
          "velocity": 0.7874015748031497,
          "duration": 2
        },
        {
          "name": "G#2",
          "midi": 44,
          "time": 319,
          "velocity": 0.7874015748031497,
          "duration": 1
        },
        {
          "name": "C3",
          "midi": 48,
          "time": 319.5,
          "velocity": 0.7874015748031497,
          "duration": 1
        },
        {
          "name": "G#2",
          "midi": 44,
          "time": 320,
          "velocity": 0.7874015748031497,
          "duration": 0.5
        },
        {
          "name": "A2",
          "midi": 45,
          "time": 320.5,
          "velocity": 0.7874015748031497,
          "duration": 3
        },
        {
          "name": "C3",
          "midi": 48,
          "time": 321,
          "velocity": 0.7874015748031497,
          "duration": 2
        },
        {
          "name": "D#3",
          "midi": 51,
          "time": 321.5,
          "velocity": 0.7874015748031497,
          "duration": 1
        },
        {
          "name": "F3",
          "midi": 53,
          "time": 322,
          "velocity": 0.7874015748031497,
          "duration": 2.5
        },
        {
          "name": "D#3",
          "midi": 51,
          "time": 322.5,
          "velocity": 0.7874015748031497,
          "duration": 2
        },
        {
          "name": "C3",
          "midi": 48,
          "time": 323,
          "velocity": 0.7874015748031497,
          "duration": 1
        },
        {
          "name": "A2",
          "midi": 45,
          "time": 323.5,
          "velocity": 0.7874015748031497,
          "duration": 1
        },
        {
          "name": "C3",
          "midi": 48,
          "time": 324,
          "velocity": 0.7874015748031497,
          "duration": 0.5
        },
        {
          "name": "A#2",
          "midi": 46,
          "time": 324.5,
          "velocity": 0.7874015748031497,
          "duration": 4
        },
        {
          "name": "C#3",
          "midi": 49,
          "time": 325,
          "velocity": 0.7874015748031497,
          "duration": 3
        },
        {
          "name": "F3",
          "midi": 53,
          "time": 325.5,
          "velocity": 0.7874015748031497,
          "duration": 2
        },
        {
          "name": "G#3",
          "midi": 56,
          "time": 326,
          "velocity": 0.7874015748031497,
          "duration": 1
        },
        {
          "name": "A#3",
          "midi": 58,
          "time": 326.5,
          "velocity": 0.7874015748031497,
          "duration": 2
        },
        {
          "name": "G#3",
          "midi": 56,
          "time": 327,
          "velocity": 0.7874015748031497,
          "duration": 1.5
        },
        {
          "name": "F3",
          "midi": 53,
          "time": 327.5,
          "velocity": 0.7874015748031497,
          "duration": 1
        },
        {
          "name": "C#3",
          "midi": 49,
          "time": 328,
          "velocity": 0.7874015748031497,
          "duration": 0.5
        },
        {
          "name": "A#2",
          "midi": 46,
          "time": 328.5,
          "velocity": 0.7874015748031497,
          "duration": 4
        },
        {
          "name": "C#3",
          "midi": 49,
          "time": 329,
          "velocity": 0.7874015748031497,
          "duration": 3.5
        },
        {
          "name": "F3",
          "midi": 53,
          "time": 329.5,
          "velocity": 0.7874015748031497,
          "duration": 2
        },
        {
          "name": "G#3",
          "midi": 56,
          "time": 330,
          "velocity": 0.7874015748031497,
          "duration": 1
        },
        {
          "name": "A#3",
          "midi": 58,
          "time": 330.5,
          "velocity": 0.7874015748031497,
          "duration": 2
        },
        {
          "name": "G#3",
          "midi": 56,
          "time": 331,
          "velocity": 0.7874015748031497,
          "duration": 1
        },
        {
          "name": "F3",
          "midi": 53,
          "time": 331.5,
          "velocity": 0.7874015748031497,
          "duration": 1
        },
        {
          "name": "G#3",
          "midi": 56,
          "time": 332,
          "velocity": 0.7874015748031497,
          "duration": 0.5
        },
        {
          "name": "D#3",
          "midi": 51,
          "time": 332.5,
          "velocity": 0.7874015748031497,
          "duration": 3
        },
        {
          "name": "G3",
          "midi": 55,
          "time": 333,
          "velocity": 0.7874015748031497,
          "duration": 2
        },
        {
          "name": "A#3",
          "midi": 58,
          "time": 333.5,
          "velocity": 0.7874015748031497,
          "duration": 1
        },
        {
          "name": "D#4",
          "midi": 63,
          "time": 334,
          "velocity": 0.7874015748031497,
          "duration": 2.5
        },
        {
          "name": "A#3",
          "midi": 58,
          "time": 334.5,
          "velocity": 0.7874015748031497,
          "duration": 2
        },
        {
          "name": "G3",
          "midi": 55,
          "time": 335,
          "velocity": 0.7874015748031497,
          "duration": 1
        },
        {
          "name": "D#3",
          "midi": 51,
          "time": 335.5,
          "velocity": 0.7874015748031497,
          "duration": 1
        },
        {
          "name": "G3",
          "midi": 55,
          "time": 336,
          "velocity": 0.7874015748031497,
          "duration": 0.5
        },
        {
          "name": "D#3",
          "midi": 51,
          "time": 336.5,
          "velocity": 0.7874015748031497,
          "duration": 2
        },
        {
          "name": "G3",
          "midi": 55,
          "time": 337,
          "velocity": 0.7874015748031497,
          "duration": 1
        },
        {
          "name": "A#3",
          "midi": 58,
          "time": 337.5,
          "velocity": 0.7874015748031497,
          "duration": 3
        },
        {
          "name": "G3",
          "midi": 55,
          "time": 338,
          "velocity": 0.7874015748031497,
          "duration": 1
        },
        {
          "name": "D#3",
          "midi": 51,
          "time": 338.5,
          "velocity": 0.7874015748031497,
          "duration": 1
        },
        {
          "name": "G3",
          "midi": 55,
          "time": 339,
          "velocity": 0.7874015748031497,
          "duration": 1
        },
        {
          "name": "D#3",
          "midi": 51,
          "time": 339.5,
          "velocity": 0.7874015748031497,
          "duration": 1
        },
        {
          "name": "G3",
          "midi": 55,
          "time": 340,
          "velocity": 0.7874015748031497,
          "duration": 0.5
        },
        {
          "name": "G#2",
          "midi": 44,
          "time": 340.5,
          "velocity": 0.7874015748031497,
          "duration": 2
        },
        {
          "name": "C3",
          "midi": 48,
          "time": 341,
          "velocity": 0.7874015748031497,
          "duration": 1
        },
        {
          "name": "D#3",
          "midi": 51,
          "time": 341.5,
          "velocity": 0.7874015748031497,
          "duration": 2
        },
        {
          "name": "C3",
          "midi": 48,
          "time": 342,
          "velocity": 0.7874015748031497,
          "duration": 1
        },
        {
          "name": "G#2",
          "midi": 44,
          "time": 342.5,
          "velocity": 0.7874015748031497,
          "duration": 2
        },
        {
          "name": "C3",
          "midi": 48,
          "time": 343,
          "velocity": 0.7874015748031497,
          "duration": 1
        },
        {
          "name": "D#3",
          "midi": 51,
          "time": 343.5,
          "velocity": 0.7874015748031497,
          "duration": 1
        },
        {
          "name": "C3",
          "midi": 48,
          "time": 344,
          "velocity": 0.7874015748031497,
          "duration": 0.5
        },
        {
          "name": "G#2",
          "midi": 44,
          "time": 344.5,
          "velocity": 0.7874015748031497,
          "duration": 2
        },
        {
          "name": "C3",
          "midi": 48,
          "time": 345,
          "velocity": 0.7874015748031497,
          "duration": 1
        },
        {
          "name": "D#3",
          "midi": 51,
          "time": 345.5,
          "velocity": 0.7874015748031497,
          "duration": 2
        },
        {
          "name": "C3",
          "midi": 48,
          "time": 346,
          "velocity": 0.7874015748031497,
          "duration": 1
        },
        {
          "name": "G#2",
          "midi": 44,
          "time": 346.5,
          "velocity": 0.7874015748031497,
          "duration": 2
        },
        {
          "name": "C3",
          "midi": 48,
          "time": 347,
          "velocity": 0.7874015748031497,
          "duration": 1
        },
        {
          "name": "D#3",
          "midi": 51,
          "time": 347.5,
          "velocity": 0.7874015748031497,
          "duration": 1
        },
        {
          "name": "C3",
          "midi": 48,
          "time": 348,
          "velocity": 0.7874015748031497,
          "duration": 0.5
        },
        {
          "name": "F2",
          "midi": 41,
          "time": 348.5,
          "velocity": 0.7874015748031497,
          "duration": 2
        },
        {
          "name": "G#2",
          "midi": 44,
          "time": 349,
          "velocity": 0.7874015748031497,
          "duration": 1
        },
        {
          "name": "C3",
          "midi": 48,
          "time": 349.5,
          "velocity": 0.7874015748031497,
          "duration": 2
        },
        {
          "name": "G#2",
          "midi": 44,
          "time": 350,
          "velocity": 0.7874015748031497,
          "duration": 1
        },
        {
          "name": "F2",
          "midi": 41,
          "time": 350.5,
          "velocity": 0.7874015748031497,
          "duration": 2
        },
        {
          "name": "G#2",
          "midi": 44,
          "time": 351,
          "velocity": 0.7874015748031497,
          "duration": 1
        },
        {
          "name": "C3",
          "midi": 48,
          "time": 351.5,
          "velocity": 0.7874015748031497,
          "duration": 1
        },
        {
          "name": "G#2",
          "midi": 44,
          "time": 352,
          "velocity": 0.7874015748031497,
          "duration": 0.5
        },
        {
          "name": "A2",
          "midi": 45,
          "time": 352.5,
          "velocity": 0.7874015748031497,
          "duration": 4
        },
        {
          "name": "C3",
          "midi": 48,
          "time": 353,
          "velocity": 0.7874015748031497,
          "duration": 3.5
        },
        {
          "name": "D#3",
          "midi": 51,
          "time": 353.5,
          "velocity": 0.7874015748031497,
          "duration": 3
        },
        {
          "name": "F3",
          "midi": 53,
          "time": 354,
          "velocity": 0.7874015748031497,
          "duration": 2.5
        },
        {
          "name": "G#3",
          "midi": 56,
          "time": 354.5,
          "velocity": 0.7874015748031497,
          "duration": 2
        },
        {
          "name": "D#4",
          "midi": 63,
          "time": 356.5,
          "velocity": 0.5039370078740157,
          "duration": 1
        },
        {
          "name": "F#4",
          "midi": 66,
          "time": 356.5,
          "velocity": 0.5039370078740157,
          "duration": 1
        },
        {
          "name": "B3",
          "midi": 59,
          "time": 356.5,
          "velocity": 0.5039370078740157,
          "duration": 1
        },
        {
          "name": "F#3",
          "midi": 54,
          "time": 356.5,
          "velocity": 0.5039370078740157,
          "duration": 1
        },
        {
          "name": "D#3",
          "midi": 51,
          "time": 356.5,
          "velocity": 0.5039370078740157,
          "duration": 1
        },
        {
          "name": "B1",
          "midi": 35,
          "time": 356.5,
          "velocity": 0.7874015748031497,
          "duration": 8
        },
        {
          "name": "D#4",
          "midi": 63,
          "time": 357.5,
          "velocity": 0.5039370078740157,
          "duration": 1
        },
        {
          "name": "F#4",
          "midi": 66,
          "time": 357.5,
          "velocity": 0.5039370078740157,
          "duration": 1
        },
        {
          "name": "B3",
          "midi": 59,
          "time": 357.5,
          "velocity": 0.5039370078740157,
          "duration": 1
        },
        {
          "name": "F#3",
          "midi": 54,
          "time": 357.5,
          "velocity": 0.5039370078740157,
          "duration": 1
        },
        {
          "name": "D#3",
          "midi": 51,
          "time": 357.5,
          "velocity": 0.5039370078740157,
          "duration": 1
        },
        {
          "name": "D#4",
          "midi": 63,
          "time": 358.5,
          "velocity": 0.5039370078740157,
          "duration": 0.5
        },
        {
          "name": "F#4",
          "midi": 66,
          "time": 358.5,
          "velocity": 0.5039370078740157,
          "duration": 0.5
        },
        {
          "name": "B3",
          "midi": 59,
          "time": 358.5,
          "velocity": 0.5039370078740157,
          "duration": 0.5
        },
        {
          "name": "F#3",
          "midi": 54,
          "time": 358.5,
          "velocity": 0.5039370078740157,
          "duration": 0.5
        },
        {
          "name": "D#3",
          "midi": 51,
          "time": 358.5,
          "velocity": 0.5039370078740157,
          "duration": 0.5
        },
        {
          "name": "D#4",
          "midi": 63,
          "time": 359,
          "velocity": 0.5039370078740157,
          "duration": 0.5
        },
        {
          "name": "F#4",
          "midi": 66,
          "time": 359,
          "velocity": 0.5039370078740157,
          "duration": 0.5
        },
        {
          "name": "B3",
          "midi": 59,
          "time": 359,
          "velocity": 0.5039370078740157,
          "duration": 0.5
        },
        {
          "name": "F#3",
          "midi": 54,
          "time": 359,
          "velocity": 0.5039370078740157,
          "duration": 0.5
        },
        {
          "name": "D#3",
          "midi": 51,
          "time": 359,
          "velocity": 0.5039370078740157,
          "duration": 0.5
        },
        {
          "name": "D#4",
          "midi": 63,
          "time": 359.5,
          "velocity": 0.5039370078740157,
          "duration": 0.5
        },
        {
          "name": "F#4",
          "midi": 66,
          "time": 359.5,
          "velocity": 0.5039370078740157,
          "duration": 0.5
        },
        {
          "name": "B3",
          "midi": 59,
          "time": 359.5,
          "velocity": 0.5039370078740157,
          "duration": 0.5
        },
        {
          "name": "F#3",
          "midi": 54,
          "time": 359.5,
          "velocity": 0.5039370078740157,
          "duration": 0.5
        },
        {
          "name": "D#3",
          "midi": 51,
          "time": 359.5,
          "velocity": 0.5039370078740157,
          "duration": 0.5
        },
        {
          "name": "D#4",
          "midi": 63,
          "time": 360,
          "velocity": 0.5039370078740157,
          "duration": 0.5
        },
        {
          "name": "F#4",
          "midi": 66,
          "time": 360,
          "velocity": 0.5039370078740157,
          "duration": 0.5
        },
        {
          "name": "B3",
          "midi": 59,
          "time": 360,
          "velocity": 0.5039370078740157,
          "duration": 0.5
        },
        {
          "name": "F#3",
          "midi": 54,
          "time": 360,
          "velocity": 0.5039370078740157,
          "duration": 0.5
        },
        {
          "name": "D#3",
          "midi": 51,
          "time": 360,
          "velocity": 0.5039370078740157,
          "duration": 1
        },
        {
          "name": "D#4",
          "midi": 63,
          "time": 360.5,
          "velocity": 0.5039370078740157,
          "duration": 0.5
        },
        {
          "name": "F#4",
          "midi": 66,
          "time": 360.5,
          "velocity": 0.5039370078740157,
          "duration": 0.5
        },
        {
          "name": "B3",
          "midi": 59,
          "time": 360.5,
          "velocity": 0.5039370078740157,
          "duration": 0.5
        },
        {
          "name": "F#3",
          "midi": 54,
          "time": 360.5,
          "velocity": 0.5039370078740157,
          "duration": 0.5
        },
        {
          "name": "D#4",
          "midi": 63,
          "time": 361,
          "velocity": 0.5039370078740157,
          "duration": 0.25
        },
        {
          "name": "F#4",
          "midi": 66,
          "time": 361,
          "velocity": 0.5039370078740157,
          "duration": 0.5
        },
        {
          "name": "B3",
          "midi": 59,
          "time": 361,
          "velocity": 0.5039370078740157,
          "duration": 0.5
        },
        {
          "name": "F#3",
          "midi": 54,
          "time": 361,
          "velocity": 0.5039370078740157,
          "duration": 0.5
        },
        {
          "name": "D#3",
          "midi": 51,
          "time": 361,
          "velocity": 0.5039370078740157,
          "duration": 0.5
        },
        {
          "name": "D#4",
          "midi": 63,
          "time": 361.25,
          "velocity": 0.5039370078740157,
          "duration": 0.25
        },
        {
          "name": "D#4",
          "midi": 63,
          "time": 361.5,
          "velocity": 0.5039370078740157,
          "duration": 0.5
        },
        {
          "name": "F#4",
          "midi": 66,
          "time": 361.5,
          "velocity": 0.5039370078740157,
          "duration": 0.5
        },
        {
          "name": "B3",
          "midi": 59,
          "time": 361.5,
          "velocity": 0.5039370078740157,
          "duration": 0.5
        },
        {
          "name": "F#3",
          "midi": 54,
          "time": 361.5,
          "velocity": 0.5039370078740157,
          "duration": 0.5
        },
        {
          "name": "D#3",
          "midi": 51,
          "time": 361.5,
          "velocity": 0.5039370078740157,
          "duration": 0.5
        },
        {
          "name": "D#4",
          "midi": 63,
          "time": 362,
          "velocity": 0.5039370078740157,
          "duration": 0.5
        },
        {
          "name": "F#4",
          "midi": 66,
          "time": 362,
          "velocity": 0.5039370078740157,
          "duration": 0.5
        },
        {
          "name": "B3",
          "midi": 59,
          "time": 362,
          "velocity": 0.5039370078740157,
          "duration": 0.5
        },
        {
          "name": "F#3",
          "midi": 54,
          "time": 362,
          "velocity": 0.5039370078740157,
          "duration": 0.5
        },
        {
          "name": "D#3",
          "midi": 51,
          "time": 362,
          "velocity": 0.5039370078740157,
          "duration": 0.5
        },
        {
          "name": "D#4",
          "midi": 63,
          "time": 362.5,
          "velocity": 0.5039370078740157,
          "duration": 0.5
        },
        {
          "name": "F#4",
          "midi": 66,
          "time": 362.5,
          "velocity": 0.5039370078740157,
          "duration": 0.5
        },
        {
          "name": "B3",
          "midi": 59,
          "time": 362.5,
          "velocity": 0.5039370078740157,
          "duration": 0.5
        },
        {
          "name": "F#3",
          "midi": 54,
          "time": 362.5,
          "velocity": 0.5039370078740157,
          "duration": 0.5
        },
        {
          "name": "D#3",
          "midi": 51,
          "time": 362.5,
          "velocity": 0.5039370078740157,
          "duration": 0.5
        },
        {
          "name": "D#4",
          "midi": 63,
          "time": 363,
          "velocity": 0.5039370078740157,
          "duration": 0.5
        },
        {
          "name": "F#4",
          "midi": 66,
          "time": 363,
          "velocity": 0.5039370078740157,
          "duration": 0.5
        },
        {
          "name": "B3",
          "midi": 59,
          "time": 363,
          "velocity": 0.5039370078740157,
          "duration": 0.5
        },
        {
          "name": "F#3",
          "midi": 54,
          "time": 363,
          "velocity": 0.5039370078740157,
          "duration": 0.5
        },
        {
          "name": "D#3",
          "midi": 51,
          "time": 363,
          "velocity": 0.5039370078740157,
          "duration": 0.5
        },
        {
          "name": "D#4",
          "midi": 63,
          "time": 363.5,
          "velocity": 0.5039370078740157,
          "duration": 1
        },
        {
          "name": "F#4",
          "midi": 66,
          "time": 363.5,
          "velocity": 0.5039370078740157,
          "duration": 1
        },
        {
          "name": "B3",
          "midi": 59,
          "time": 363.5,
          "velocity": 0.5039370078740157,
          "duration": 1
        },
        {
          "name": "F#3",
          "midi": 54,
          "time": 363.5,
          "velocity": 0.5039370078740157,
          "duration": 1
        },
        {
          "name": "D#3",
          "midi": 51,
          "time": 363.5,
          "velocity": 0.5039370078740157,
          "duration": 1
        },
        {
          "name": "F4",
          "midi": 65,
          "time": 364.5,
          "velocity": 0.5039370078740157,
          "duration": 1
        },
        {
          "name": "D#4",
          "midi": 63,
          "time": 364.5,
          "velocity": 0.5039370078740157,
          "duration": 1
        },
        {
          "name": "C#4",
          "midi": 61,
          "time": 364.5,
          "velocity": 0.5039370078740157,
          "duration": 1
        },
        {
          "name": "B3",
          "midi": 59,
          "time": 364.5,
          "velocity": 0.5039370078740157,
          "duration": 1
        },
        {
          "name": "G#3",
          "midi": 56,
          "time": 364.5,
          "velocity": 0.5039370078740157,
          "duration": 1
        },
        {
          "name": "C#3",
          "midi": 49,
          "time": 364.5,
          "velocity": 0.5039370078740157,
          "duration": 1
        },
        {
          "name": "G#4",
          "midi": 68,
          "time": 364.5,
          "velocity": 0.5039370078740157,
          "duration": 1
        },
        {
          "name": "C#2",
          "midi": 37,
          "time": 364.5,
          "velocity": 0.7874015748031497,
          "duration": 8
        },
        {
          "name": "F4",
          "midi": 65,
          "time": 365.5,
          "velocity": 0.5039370078740157,
          "duration": 1
        },
        {
          "name": "D#4",
          "midi": 63,
          "time": 365.5,
          "velocity": 0.5039370078740157,
          "duration": 1
        },
        {
          "name": "C#4",
          "midi": 61,
          "time": 365.5,
          "velocity": 0.5039370078740157,
          "duration": 1
        },
        {
          "name": "B3",
          "midi": 59,
          "time": 365.5,
          "velocity": 0.5039370078740157,
          "duration": 1
        },
        {
          "name": "G#3",
          "midi": 56,
          "time": 365.5,
          "velocity": 0.5039370078740157,
          "duration": 1
        },
        {
          "name": "C#3",
          "midi": 49,
          "time": 365.5,
          "velocity": 0.5039370078740157,
          "duration": 1
        },
        {
          "name": "G#4",
          "midi": 68,
          "time": 365.5,
          "velocity": 0.5039370078740157,
          "duration": 1
        },
        {
          "name": "F4",
          "midi": 65,
          "time": 366.5,
          "velocity": 0.5039370078740157,
          "duration": 0.5
        },
        {
          "name": "D#4",
          "midi": 63,
          "time": 366.5,
          "velocity": 0.5039370078740157,
          "duration": 0.5
        },
        {
          "name": "C#4",
          "midi": 61,
          "time": 366.5,
          "velocity": 0.5039370078740157,
          "duration": 0.5
        },
        {
          "name": "B3",
          "midi": 59,
          "time": 366.5,
          "velocity": 0.5039370078740157,
          "duration": 0.5
        },
        {
          "name": "G#3",
          "midi": 56,
          "time": 366.5,
          "velocity": 0.5039370078740157,
          "duration": 0.5
        },
        {
          "name": "C#3",
          "midi": 49,
          "time": 366.5,
          "velocity": 0.5039370078740157,
          "duration": 0.5
        },
        {
          "name": "G#4",
          "midi": 68,
          "time": 366.5,
          "velocity": 0.5039370078740157,
          "duration": 0.5
        },
        {
          "name": "F4",
          "midi": 65,
          "time": 367,
          "velocity": 0.5039370078740157,
          "duration": 0.5
        },
        {
          "name": "D#4",
          "midi": 63,
          "time": 367,
          "velocity": 0.5039370078740157,
          "duration": 0.5
        },
        {
          "name": "C#4",
          "midi": 61,
          "time": 367,
          "velocity": 0.5039370078740157,
          "duration": 0.5
        },
        {
          "name": "B3",
          "midi": 59,
          "time": 367,
          "velocity": 0.5039370078740157,
          "duration": 0.5
        },
        {
          "name": "G#3",
          "midi": 56,
          "time": 367,
          "velocity": 0.5039370078740157,
          "duration": 0.5
        },
        {
          "name": "C#3",
          "midi": 49,
          "time": 367,
          "velocity": 0.5039370078740157,
          "duration": 0.5
        },
        {
          "name": "G#4",
          "midi": 68,
          "time": 367,
          "velocity": 0.5039370078740157,
          "duration": 0.5
        },
        {
          "name": "F4",
          "midi": 65,
          "time": 367.5,
          "velocity": 0.5039370078740157,
          "duration": 0.5
        },
        {
          "name": "D#4",
          "midi": 63,
          "time": 367.5,
          "velocity": 0.5039370078740157,
          "duration": 0.5
        },
        {
          "name": "C#4",
          "midi": 61,
          "time": 367.5,
          "velocity": 0.5039370078740157,
          "duration": 0.5
        },
        {
          "name": "B3",
          "midi": 59,
          "time": 367.5,
          "velocity": 0.5039370078740157,
          "duration": 0.5
        },
        {
          "name": "G#3",
          "midi": 56,
          "time": 367.5,
          "velocity": 0.5039370078740157,
          "duration": 0.5
        },
        {
          "name": "C#3",
          "midi": 49,
          "time": 367.5,
          "velocity": 0.5039370078740157,
          "duration": 0.5
        },
        {
          "name": "G#4",
          "midi": 68,
          "time": 367.5,
          "velocity": 0.5039370078740157,
          "duration": 0.5
        },
        {
          "name": "F4",
          "midi": 65,
          "time": 368,
          "velocity": 0.5039370078740157,
          "duration": 0.5
        },
        {
          "name": "C#4",
          "midi": 61,
          "time": 368,
          "velocity": 0.5039370078740157,
          "duration": 0.5
        },
        {
          "name": "B3",
          "midi": 59,
          "time": 368,
          "velocity": 0.5039370078740157,
          "duration": 0.5
        },
        {
          "name": "C#3",
          "midi": 49,
          "time": 368,
          "velocity": 0.5039370078740157,
          "duration": 0.5
        },
        {
          "name": "G#4",
          "midi": 68,
          "time": 368,
          "velocity": 0.5039370078740157,
          "duration": 0.5
        },
        {
          "name": "G#3",
          "midi": 56,
          "time": 368,
          "velocity": 0.5039370078740157,
          "duration": 0.5
        },
        {
          "name": "F4",
          "midi": 65,
          "time": 368.5,
          "velocity": 0.5039370078740157,
          "duration": 0.5
        },
        {
          "name": "D#4",
          "midi": 63,
          "time": 368.5,
          "velocity": 0.5039370078740157,
          "duration": 0.5
        },
        {
          "name": "C#4",
          "midi": 61,
          "time": 368.5,
          "velocity": 0.5039370078740157,
          "duration": 0.5
        },
        {
          "name": "B3",
          "midi": 59,
          "time": 368.5,
          "velocity": 0.5039370078740157,
          "duration": 0.5
        },
        {
          "name": "G#3",
          "midi": 56,
          "time": 368.5,
          "velocity": 0.5039370078740157,
          "duration": 0.5
        },
        {
          "name": "C#3",
          "midi": 49,
          "time": 368.5,
          "velocity": 0.5039370078740157,
          "duration": 0.5
        },
        {
          "name": "G#4",
          "midi": 68,
          "time": 368.5,
          "velocity": 0.5039370078740157,
          "duration": 0.5
        },
        {
          "name": "F4",
          "midi": 65,
          "time": 369,
          "velocity": 0.5039370078740157,
          "duration": 0.5
        },
        {
          "name": "C#4",
          "midi": 61,
          "time": 369,
          "velocity": 0.5039370078740157,
          "duration": 0.5
        },
        {
          "name": "B3",
          "midi": 59,
          "time": 369,
          "velocity": 0.5039370078740157,
          "duration": 0.25
        },
        {
          "name": "G#3",
          "midi": 56,
          "time": 369,
          "velocity": 0.5039370078740157,
          "duration": 0.25
        },
        {
          "name": "C#3",
          "midi": 49,
          "time": 369,
          "velocity": 0.5039370078740157,
          "duration": 0.5
        },
        {
          "name": "G#4",
          "midi": 68,
          "time": 369,
          "velocity": 0.5039370078740157,
          "duration": 0.5
        },
        {
          "name": "B3",
          "midi": 59,
          "time": 369.25,
          "velocity": 0.5039370078740157,
          "duration": 0.25
        },
        {
          "name": "G#3",
          "midi": 56,
          "time": 369.25,
          "velocity": 0.5039370078740157,
          "duration": 0.25
        },
        {
          "name": "F4",
          "midi": 65,
          "time": 369.5,
          "velocity": 0.5039370078740157,
          "duration": 0.5
        },
        {
          "name": "D#4",
          "midi": 63,
          "time": 369.5,
          "velocity": 0.5039370078740157,
          "duration": 0.5
        },
        {
          "name": "C#4",
          "midi": 61,
          "time": 369.5,
          "velocity": 0.5039370078740157,
          "duration": 0.5
        },
        {
          "name": "B3",
          "midi": 59,
          "time": 369.5,
          "velocity": 0.5039370078740157,
          "duration": 0.5
        },
        {
          "name": "G#3",
          "midi": 56,
          "time": 369.5,
          "velocity": 0.5039370078740157,
          "duration": 0.5
        },
        {
          "name": "C#3",
          "midi": 49,
          "time": 369.5,
          "velocity": 0.5039370078740157,
          "duration": 0.5
        },
        {
          "name": "G#4",
          "midi": 68,
          "time": 369.5,
          "velocity": 0.5039370078740157,
          "duration": 0.5
        },
        {
          "name": "F4",
          "midi": 65,
          "time": 370,
          "velocity": 0.5039370078740157,
          "duration": 0.5
        },
        {
          "name": "C#4",
          "midi": 61,
          "time": 370,
          "velocity": 0.5039370078740157,
          "duration": 0.5
        },
        {
          "name": "B3",
          "midi": 59,
          "time": 370,
          "velocity": 0.5039370078740157,
          "duration": 0.5
        },
        {
          "name": "G#3",
          "midi": 56,
          "time": 370,
          "velocity": 0.5039370078740157,
          "duration": 0.5
        },
        {
          "name": "C#3",
          "midi": 49,
          "time": 370,
          "velocity": 0.5039370078740157,
          "duration": 0.5
        },
        {
          "name": "G#4",
          "midi": 68,
          "time": 370,
          "velocity": 0.5039370078740157,
          "duration": 0.5
        },
        {
          "name": "F4",
          "midi": 65,
          "time": 370.5,
          "velocity": 0.5039370078740157,
          "duration": 0.5
        },
        {
          "name": "D#4",
          "midi": 63,
          "time": 370.5,
          "velocity": 0.5039370078740157,
          "duration": 0.5
        },
        {
          "name": "C#4",
          "midi": 61,
          "time": 370.5,
          "velocity": 0.5039370078740157,
          "duration": 0.5
        },
        {
          "name": "B3",
          "midi": 59,
          "time": 370.5,
          "velocity": 0.5039370078740157,
          "duration": 0.5
        },
        {
          "name": "G#3",
          "midi": 56,
          "time": 370.5,
          "velocity": 0.5039370078740157,
          "duration": 0.5
        },
        {
          "name": "C#3",
          "midi": 49,
          "time": 370.5,
          "velocity": 0.5039370078740157,
          "duration": 0.5
        },
        {
          "name": "G#4",
          "midi": 68,
          "time": 370.5,
          "velocity": 0.5039370078740157,
          "duration": 0.5
        },
        {
          "name": "F4",
          "midi": 65,
          "time": 371,
          "velocity": 0.5039370078740157,
          "duration": 0.5
        },
        {
          "name": "C#4",
          "midi": 61,
          "time": 371,
          "velocity": 0.5039370078740157,
          "duration": 0.5
        },
        {
          "name": "B3",
          "midi": 59,
          "time": 371,
          "velocity": 0.5039370078740157,
          "duration": 0.5
        },
        {
          "name": "G#3",
          "midi": 56,
          "time": 371,
          "velocity": 0.5039370078740157,
          "duration": 0.5
        },
        {
          "name": "C#3",
          "midi": 49,
          "time": 371,
          "velocity": 0.5039370078740157,
          "duration": 0.5
        },
        {
          "name": "G#4",
          "midi": 68,
          "time": 371,
          "velocity": 0.5039370078740157,
          "duration": 0.5
        },
        {
          "name": "F4",
          "midi": 65,
          "time": 371.5,
          "velocity": 0.5039370078740157,
          "duration": 1
        },
        {
          "name": "D#4",
          "midi": 63,
          "time": 371.5,
          "velocity": 0.5039370078740157,
          "duration": 1
        },
        {
          "name": "C#4",
          "midi": 61,
          "time": 371.5,
          "velocity": 0.5039370078740157,
          "duration": 1
        },
        {
          "name": "B3",
          "midi": 59,
          "time": 371.5,
          "velocity": 0.5039370078740157,
          "duration": 1
        },
        {
          "name": "G#3",
          "midi": 56,
          "time": 371.5,
          "velocity": 0.5039370078740157,
          "duration": 1
        },
        {
          "name": "C#3",
          "midi": 49,
          "time": 371.5,
          "velocity": 0.5039370078740157,
          "duration": 1
        },
        {
          "name": "G#4",
          "midi": 68,
          "time": 371.5,
          "velocity": 0.5039370078740157,
          "duration": 1
        },
        {
          "name": "F#4",
          "midi": 66,
          "time": 372.5,
          "velocity": 0.5039370078740157,
          "duration": 1
        },
        {
          "name": "C#4",
          "midi": 61,
          "time": 372.5,
          "velocity": 0.5039370078740157,
          "duration": 1
        },
        {
          "name": "A#3",
          "midi": 58,
          "time": 372.5,
          "velocity": 0.5039370078740157,
          "duration": 1
        },
        {
          "name": "C#3",
          "midi": 49,
          "time": 372.5,
          "velocity": 0.5039370078740157,
          "duration": 1
        },
        {
          "name": "F#3",
          "midi": 54,
          "time": 372.5,
          "velocity": 0.5039370078740157,
          "duration": 1
        },
        {
          "name": "G#3",
          "midi": 56,
          "time": 372.5,
          "velocity": 0.5039370078740157,
          "duration": 1
        },
        {
          "name": "A#4",
          "midi": 70,
          "time": 372.5,
          "velocity": 0.5039370078740157,
          "duration": 1
        },
        {
          "name": "F#1",
          "midi": 30,
          "time": 372.5,
          "velocity": 0.7874015748031497,
          "duration": 8
        },
        {
          "name": "F#4",
          "midi": 66,
          "time": 373.5,
          "velocity": 0.5039370078740157,
          "duration": 1
        },
        {
          "name": "C#4",
          "midi": 61,
          "time": 373.5,
          "velocity": 0.5039370078740157,
          "duration": 1
        },
        {
          "name": "A#3",
          "midi": 58,
          "time": 373.5,
          "velocity": 0.5039370078740157,
          "duration": 1
        },
        {
          "name": "C#3",
          "midi": 49,
          "time": 373.5,
          "velocity": 0.5039370078740157,
          "duration": 1
        },
        {
          "name": "F#3",
          "midi": 54,
          "time": 373.5,
          "velocity": 0.5039370078740157,
          "duration": 1
        },
        {
          "name": "G#3",
          "midi": 56,
          "time": 373.5,
          "velocity": 0.5039370078740157,
          "duration": 1
        },
        {
          "name": "A#4",
          "midi": 70,
          "time": 373.5,
          "velocity": 0.5039370078740157,
          "duration": 1
        },
        {
          "name": "F#4",
          "midi": 66,
          "time": 374.5,
          "velocity": 0.5039370078740157,
          "duration": 0.5
        },
        {
          "name": "C#4",
          "midi": 61,
          "time": 374.5,
          "velocity": 0.5039370078740157,
          "duration": 0.5
        },
        {
          "name": "A#3",
          "midi": 58,
          "time": 374.5,
          "velocity": 0.5039370078740157,
          "duration": 0.5
        },
        {
          "name": "C#3",
          "midi": 49,
          "time": 374.5,
          "velocity": 0.5039370078740157,
          "duration": 0.5
        },
        {
          "name": "F#3",
          "midi": 54,
          "time": 374.5,
          "velocity": 0.5039370078740157,
          "duration": 0.5
        },
        {
          "name": "G#3",
          "midi": 56,
          "time": 374.5,
          "velocity": 0.5039370078740157,
          "duration": 0.5
        },
        {
          "name": "A#4",
          "midi": 70,
          "time": 374.5,
          "velocity": 0.5039370078740157,
          "duration": 0.5
        },
        {
          "name": "F#4",
          "midi": 66,
          "time": 375,
          "velocity": 0.5039370078740157,
          "duration": 0.5
        },
        {
          "name": "C#4",
          "midi": 61,
          "time": 375,
          "velocity": 0.5039370078740157,
          "duration": 0.5
        },
        {
          "name": "A#3",
          "midi": 58,
          "time": 375,
          "velocity": 0.5039370078740157,
          "duration": 0.5
        },
        {
          "name": "C#3",
          "midi": 49,
          "time": 375,
          "velocity": 0.5039370078740157,
          "duration": 0.5
        },
        {
          "name": "F#3",
          "midi": 54,
          "time": 375,
          "velocity": 0.5039370078740157,
          "duration": 0.5
        },
        {
          "name": "G#3",
          "midi": 56,
          "time": 375,
          "velocity": 0.5039370078740157,
          "duration": 0.5
        },
        {
          "name": "A#4",
          "midi": 70,
          "time": 375,
          "velocity": 0.5039370078740157,
          "duration": 0.5
        },
        {
          "name": "F#4",
          "midi": 66,
          "time": 375.5,
          "velocity": 0.5039370078740157,
          "duration": 0.5
        },
        {
          "name": "C#4",
          "midi": 61,
          "time": 375.5,
          "velocity": 0.5039370078740157,
          "duration": 0.5
        },
        {
          "name": "A#3",
          "midi": 58,
          "time": 375.5,
          "velocity": 0.5039370078740157,
          "duration": 0.5
        },
        {
          "name": "C#3",
          "midi": 49,
          "time": 375.5,
          "velocity": 0.5039370078740157,
          "duration": 0.5
        },
        {
          "name": "F#3",
          "midi": 54,
          "time": 375.5,
          "velocity": 0.5039370078740157,
          "duration": 0.5
        },
        {
          "name": "G#3",
          "midi": 56,
          "time": 375.5,
          "velocity": 0.5039370078740157,
          "duration": 0.5
        },
        {
          "name": "A#4",
          "midi": 70,
          "time": 375.5,
          "velocity": 0.5039370078740157,
          "duration": 0.5
        },
        {
          "name": "F#4",
          "midi": 66,
          "time": 376,
          "velocity": 0.5039370078740157,
          "duration": 0.5
        },
        {
          "name": "C#4",
          "midi": 61,
          "time": 376,
          "velocity": 0.5039370078740157,
          "duration": 0.5
        },
        {
          "name": "A#3",
          "midi": 58,
          "time": 376,
          "velocity": 0.5039370078740157,
          "duration": 0.5
        },
        {
          "name": "C#3",
          "midi": 49,
          "time": 376,
          "velocity": 0.5039370078740157,
          "duration": 0.5
        },
        {
          "name": "F#3",
          "midi": 54,
          "time": 376,
          "velocity": 0.5039370078740157,
          "duration": 0.5
        },
        {
          "name": "G#3",
          "midi": 56,
          "time": 376,
          "velocity": 0.5039370078740157,
          "duration": 0.5
        },
        {
          "name": "A#4",
          "midi": 70,
          "time": 376,
          "velocity": 0.5039370078740157,
          "duration": 0.5
        },
        {
          "name": "F#4",
          "midi": 66,
          "time": 376.5,
          "velocity": 0.5039370078740157,
          "duration": 0.5
        },
        {
          "name": "C#4",
          "midi": 61,
          "time": 376.5,
          "velocity": 0.5039370078740157,
          "duration": 0.5
        },
        {
          "name": "A#3",
          "midi": 58,
          "time": 376.5,
          "velocity": 0.5039370078740157,
          "duration": 0.5
        },
        {
          "name": "C#3",
          "midi": 49,
          "time": 376.5,
          "velocity": 0.5039370078740157,
          "duration": 0.5
        },
        {
          "name": "F#3",
          "midi": 54,
          "time": 376.5,
          "velocity": 0.5039370078740157,
          "duration": 0.5
        },
        {
          "name": "G#3",
          "midi": 56,
          "time": 376.5,
          "velocity": 0.5039370078740157,
          "duration": 0.5
        },
        {
          "name": "A#4",
          "midi": 70,
          "time": 376.5,
          "velocity": 0.5039370078740157,
          "duration": 0.5
        },
        {
          "name": "F#4",
          "midi": 66,
          "time": 377,
          "velocity": 0.5039370078740157,
          "duration": 0.5
        },
        {
          "name": "C#4",
          "midi": 61,
          "time": 377,
          "velocity": 0.5039370078740157,
          "duration": 0.5
        },
        {
          "name": "A#3",
          "midi": 58,
          "time": 377,
          "velocity": 0.5039370078740157,
          "duration": 0.5
        },
        {
          "name": "C#3",
          "midi": 49,
          "time": 377,
          "velocity": 0.5039370078740157,
          "duration": 0.5
        },
        {
          "name": "F#3",
          "midi": 54,
          "time": 377,
          "velocity": 0.5039370078740157,
          "duration": 0.5
        },
        {
          "name": "G#3",
          "midi": 56,
          "time": 377,
          "velocity": 0.5039370078740157,
          "duration": 0.5
        },
        {
          "name": "A#4",
          "midi": 70,
          "time": 377,
          "velocity": 0.5039370078740157,
          "duration": 0.5
        },
        {
          "name": "F#4",
          "midi": 66,
          "time": 377.5,
          "velocity": 0.5039370078740157,
          "duration": 0.5
        },
        {
          "name": "C#4",
          "midi": 61,
          "time": 377.5,
          "velocity": 0.5039370078740157,
          "duration": 0.5
        },
        {
          "name": "A#3",
          "midi": 58,
          "time": 377.5,
          "velocity": 0.5039370078740157,
          "duration": 0.5
        },
        {
          "name": "C#3",
          "midi": 49,
          "time": 377.5,
          "velocity": 0.5039370078740157,
          "duration": 0.5
        },
        {
          "name": "F#3",
          "midi": 54,
          "time": 377.5,
          "velocity": 0.5039370078740157,
          "duration": 0.5
        },
        {
          "name": "G#3",
          "midi": 56,
          "time": 377.5,
          "velocity": 0.5039370078740157,
          "duration": 0.5
        },
        {
          "name": "A#4",
          "midi": 70,
          "time": 377.5,
          "velocity": 0.5039370078740157,
          "duration": 0.5
        },
        {
          "name": "F#4",
          "midi": 66,
          "time": 378,
          "velocity": 0.5039370078740157,
          "duration": 0.5
        },
        {
          "name": "C#4",
          "midi": 61,
          "time": 378,
          "velocity": 0.5039370078740157,
          "duration": 0.5
        },
        {
          "name": "A#3",
          "midi": 58,
          "time": 378,
          "velocity": 0.5039370078740157,
          "duration": 0.5
        },
        {
          "name": "C#3",
          "midi": 49,
          "time": 378,
          "velocity": 0.5039370078740157,
          "duration": 0.5
        },
        {
          "name": "F#3",
          "midi": 54,
          "time": 378,
          "velocity": 0.5039370078740157,
          "duration": 0.5
        },
        {
          "name": "G#3",
          "midi": 56,
          "time": 378,
          "velocity": 0.5039370078740157,
          "duration": 0.5
        },
        {
          "name": "A#4",
          "midi": 70,
          "time": 378,
          "velocity": 0.5039370078740157,
          "duration": 0.5
        },
        {
          "name": "F#4",
          "midi": 66,
          "time": 378.5,
          "velocity": 0.5039370078740157,
          "duration": 0.5
        },
        {
          "name": "C#4",
          "midi": 61,
          "time": 378.5,
          "velocity": 0.5039370078740157,
          "duration": 0.5
        },
        {
          "name": "A#3",
          "midi": 58,
          "time": 378.5,
          "velocity": 0.5039370078740157,
          "duration": 0.5
        },
        {
          "name": "C#3",
          "midi": 49,
          "time": 378.5,
          "velocity": 0.5039370078740157,
          "duration": 0.5
        },
        {
          "name": "F#3",
          "midi": 54,
          "time": 378.5,
          "velocity": 0.5039370078740157,
          "duration": 0.5
        },
        {
          "name": "G#3",
          "midi": 56,
          "time": 378.5,
          "velocity": 0.5039370078740157,
          "duration": 0.5
        },
        {
          "name": "A#4",
          "midi": 70,
          "time": 378.5,
          "velocity": 0.5039370078740157,
          "duration": 0.5
        },
        {
          "name": "F#4",
          "midi": 66,
          "time": 379,
          "velocity": 0.5039370078740157,
          "duration": 0.5
        },
        {
          "name": "C#4",
          "midi": 61,
          "time": 379,
          "velocity": 0.5039370078740157,
          "duration": 0.5
        },
        {
          "name": "A#3",
          "midi": 58,
          "time": 379,
          "velocity": 0.5039370078740157,
          "duration": 0.5
        },
        {
          "name": "C#3",
          "midi": 49,
          "time": 379,
          "velocity": 0.5039370078740157,
          "duration": 0.5
        },
        {
          "name": "F#3",
          "midi": 54,
          "time": 379,
          "velocity": 0.5039370078740157,
          "duration": 0.5
        },
        {
          "name": "G#3",
          "midi": 56,
          "time": 379,
          "velocity": 0.5039370078740157,
          "duration": 0.5
        },
        {
          "name": "A#4",
          "midi": 70,
          "time": 379,
          "velocity": 0.5039370078740157,
          "duration": 0.5
        },
        {
          "name": "F#4",
          "midi": 66,
          "time": 379.5,
          "velocity": 0.5039370078740157,
          "duration": 1
        },
        {
          "name": "C#4",
          "midi": 61,
          "time": 379.5,
          "velocity": 0.5039370078740157,
          "duration": 1
        },
        {
          "name": "A#3",
          "midi": 58,
          "time": 379.5,
          "velocity": 0.5039370078740157,
          "duration": 1
        },
        {
          "name": "C#3",
          "midi": 49,
          "time": 379.5,
          "velocity": 0.5039370078740157,
          "duration": 1
        },
        {
          "name": "F#3",
          "midi": 54,
          "time": 379.5,
          "velocity": 0.5039370078740157,
          "duration": 1
        },
        {
          "name": "G#3",
          "midi": 56,
          "time": 379.5,
          "velocity": 0.5039370078740157,
          "duration": 1
        },
        {
          "name": "A#4",
          "midi": 70,
          "time": 379.5,
          "velocity": 0.5039370078740157,
          "duration": 1
        },
        {
          "name": "A#4",
          "midi": 70,
          "time": 380.5,
          "velocity": 0.5039370078740157,
          "duration": 1
        },
        {
          "name": "F#4",
          "midi": 66,
          "time": 380.5,
          "velocity": 0.5039370078740157,
          "duration": 1
        },
        {
          "name": "D#4",
          "midi": 63,
          "time": 380.5,
          "velocity": 0.5039370078740157,
          "duration": 1
        },
        {
          "name": "A#3",
          "midi": 58,
          "time": 380.5,
          "velocity": 0.5039370078740157,
          "duration": 1
        },
        {
          "name": "C#4",
          "midi": 61,
          "time": 380.5,
          "velocity": 0.5039370078740157,
          "duration": 1
        },
        {
          "name": "D#3",
          "midi": 51,
          "time": 380.5,
          "velocity": 0.5039370078740157,
          "duration": 1
        },
        {
          "name": "A#2",
          "midi": 46,
          "time": 380.5,
          "velocity": 0.5039370078740157,
          "duration": 1
        },
        {
          "name": "D#1",
          "midi": 27,
          "time": 380.5,
          "velocity": 0.7874015748031497,
          "duration": 8
        },
        {
          "name": "A#4",
          "midi": 70,
          "time": 381.5,
          "velocity": 0.5039370078740157,
          "duration": 1
        },
        {
          "name": "F#4",
          "midi": 66,
          "time": 381.5,
          "velocity": 0.5039370078740157,
          "duration": 1
        },
        {
          "name": "D#4",
          "midi": 63,
          "time": 381.5,
          "velocity": 0.5039370078740157,
          "duration": 1
        },
        {
          "name": "A#3",
          "midi": 58,
          "time": 381.5,
          "velocity": 0.5039370078740157,
          "duration": 1
        },
        {
          "name": "C#4",
          "midi": 61,
          "time": 381.5,
          "velocity": 0.5039370078740157,
          "duration": 1
        },
        {
          "name": "D#3",
          "midi": 51,
          "time": 381.5,
          "velocity": 0.5039370078740157,
          "duration": 1
        },
        {
          "name": "A#2",
          "midi": 46,
          "time": 381.5,
          "velocity": 0.5039370078740157,
          "duration": 1
        },
        {
          "name": "A#4",
          "midi": 70,
          "time": 382.5,
          "velocity": 0.5039370078740157,
          "duration": 0.5
        },
        {
          "name": "F#4",
          "midi": 66,
          "time": 382.5,
          "velocity": 0.5039370078740157,
          "duration": 0.5
        },
        {
          "name": "D#4",
          "midi": 63,
          "time": 382.5,
          "velocity": 0.5039370078740157,
          "duration": 0.5
        },
        {
          "name": "A#3",
          "midi": 58,
          "time": 382.5,
          "velocity": 0.5039370078740157,
          "duration": 0.5
        },
        {
          "name": "C#4",
          "midi": 61,
          "time": 382.5,
          "velocity": 0.5039370078740157,
          "duration": 0.5
        },
        {
          "name": "D#3",
          "midi": 51,
          "time": 382.5,
          "velocity": 0.5039370078740157,
          "duration": 0.5
        },
        {
          "name": "A#2",
          "midi": 46,
          "time": 382.5,
          "velocity": 0.5039370078740157,
          "duration": 0.5
        },
        {
          "name": "A#4",
          "midi": 70,
          "time": 383,
          "velocity": 0.5039370078740157,
          "duration": 0.5
        },
        {
          "name": "F#4",
          "midi": 66,
          "time": 383,
          "velocity": 0.5039370078740157,
          "duration": 0.5
        },
        {
          "name": "D#4",
          "midi": 63,
          "time": 383,
          "velocity": 0.5039370078740157,
          "duration": 0.5
        },
        {
          "name": "A#3",
          "midi": 58,
          "time": 383,
          "velocity": 0.5039370078740157,
          "duration": 0.5
        },
        {
          "name": "C#4",
          "midi": 61,
          "time": 383,
          "velocity": 0.5039370078740157,
          "duration": 0.5
        },
        {
          "name": "D#3",
          "midi": 51,
          "time": 383,
          "velocity": 0.5039370078740157,
          "duration": 0.5
        },
        {
          "name": "A#2",
          "midi": 46,
          "time": 383,
          "velocity": 0.5039370078740157,
          "duration": 0.5
        },
        {
          "name": "A#4",
          "midi": 70,
          "time": 383.5,
          "velocity": 0.5039370078740157,
          "duration": 0.5
        },
        {
          "name": "F#4",
          "midi": 66,
          "time": 383.5,
          "velocity": 0.5039370078740157,
          "duration": 0.5
        },
        {
          "name": "D#4",
          "midi": 63,
          "time": 383.5,
          "velocity": 0.5039370078740157,
          "duration": 0.5
        },
        {
          "name": "A#3",
          "midi": 58,
          "time": 383.5,
          "velocity": 0.5039370078740157,
          "duration": 0.5
        },
        {
          "name": "C#4",
          "midi": 61,
          "time": 383.5,
          "velocity": 0.5039370078740157,
          "duration": 0.5
        },
        {
          "name": "D#3",
          "midi": 51,
          "time": 383.5,
          "velocity": 0.5039370078740157,
          "duration": 0.5
        },
        {
          "name": "A#2",
          "midi": 46,
          "time": 383.5,
          "velocity": 0.5039370078740157,
          "duration": 0.5
        },
        {
          "name": "A#4",
          "midi": 70,
          "time": 384,
          "velocity": 0.5039370078740157,
          "duration": 0.5
        },
        {
          "name": "F#4",
          "midi": 66,
          "time": 384,
          "velocity": 0.5039370078740157,
          "duration": 0.5
        },
        {
          "name": "D#4",
          "midi": 63,
          "time": 384,
          "velocity": 0.5039370078740157,
          "duration": 0.5
        },
        {
          "name": "A#3",
          "midi": 58,
          "time": 384,
          "velocity": 0.5039370078740157,
          "duration": 0.5
        },
        {
          "name": "C#4",
          "midi": 61,
          "time": 384,
          "velocity": 0.5039370078740157,
          "duration": 0.5
        },
        {
          "name": "D#3",
          "midi": 51,
          "time": 384,
          "velocity": 0.5039370078740157,
          "duration": 0.5
        },
        {
          "name": "A#2",
          "midi": 46,
          "time": 384,
          "velocity": 0.5039370078740157,
          "duration": 0.5
        },
        {
          "name": "A#4",
          "midi": 70,
          "time": 384.5,
          "velocity": 0.5039370078740157,
          "duration": 0.5
        },
        {
          "name": "G4",
          "midi": 67,
          "time": 384.5,
          "velocity": 0.5039370078740157,
          "duration": 0.5
        },
        {
          "name": "D#4",
          "midi": 63,
          "time": 384.5,
          "velocity": 0.5039370078740157,
          "duration": 0.5
        },
        {
          "name": "C#4",
          "midi": 61,
          "time": 384.5,
          "velocity": 0.5039370078740157,
          "duration": 0.5
        },
        {
          "name": "A#3",
          "midi": 58,
          "time": 384.5,
          "velocity": 0.5039370078740157,
          "duration": 0.5
        },
        {
          "name": "D#3",
          "midi": 51,
          "time": 384.5,
          "velocity": 0.5039370078740157,
          "duration": 0.5
        },
        {
          "name": "A#2",
          "midi": 46,
          "time": 384.5,
          "velocity": 0.5039370078740157,
          "duration": 0.5
        },
        {
          "name": "A#4",
          "midi": 70,
          "time": 385,
          "velocity": 0.5039370078740157,
          "duration": 0.5
        },
        {
          "name": "G4",
          "midi": 67,
          "time": 385,
          "velocity": 0.5039370078740157,
          "duration": 0.5
        },
        {
          "name": "D#4",
          "midi": 63,
          "time": 385,
          "velocity": 0.5039370078740157,
          "duration": 0.5
        },
        {
          "name": "C#4",
          "midi": 61,
          "time": 385,
          "velocity": 0.5039370078740157,
          "duration": 0.5
        },
        {
          "name": "A#3",
          "midi": 58,
          "time": 385,
          "velocity": 0.5039370078740157,
          "duration": 0.5
        },
        {
          "name": "D#3",
          "midi": 51,
          "time": 385,
          "velocity": 0.5039370078740157,
          "duration": 0.5
        },
        {
          "name": "A#2",
          "midi": 46,
          "time": 385,
          "velocity": 0.5039370078740157,
          "duration": 0.5
        },
        {
          "name": "A#4",
          "midi": 70,
          "time": 385.5,
          "velocity": 0.5039370078740157,
          "duration": 0.5
        },
        {
          "name": "G4",
          "midi": 67,
          "time": 385.5,
          "velocity": 0.5039370078740157,
          "duration": 0.5
        },
        {
          "name": "D#4",
          "midi": 63,
          "time": 385.5,
          "velocity": 0.5039370078740157,
          "duration": 0.5
        },
        {
          "name": "C#4",
          "midi": 61,
          "time": 385.5,
          "velocity": 0.5039370078740157,
          "duration": 0.5
        },
        {
          "name": "A#3",
          "midi": 58,
          "time": 385.5,
          "velocity": 0.5039370078740157,
          "duration": 0.5
        },
        {
          "name": "D#3",
          "midi": 51,
          "time": 385.5,
          "velocity": 0.5039370078740157,
          "duration": 0.5
        },
        {
          "name": "A#2",
          "midi": 46,
          "time": 385.5,
          "velocity": 0.5039370078740157,
          "duration": 0.5
        },
        {
          "name": "A#4",
          "midi": 70,
          "time": 386,
          "velocity": 0.5039370078740157,
          "duration": 0.5
        },
        {
          "name": "G4",
          "midi": 67,
          "time": 386,
          "velocity": 0.5039370078740157,
          "duration": 0.5
        },
        {
          "name": "D#4",
          "midi": 63,
          "time": 386,
          "velocity": 0.5039370078740157,
          "duration": 0.5
        },
        {
          "name": "C#4",
          "midi": 61,
          "time": 386,
          "velocity": 0.5039370078740157,
          "duration": 0.5
        },
        {
          "name": "A#3",
          "midi": 58,
          "time": 386,
          "velocity": 0.5039370078740157,
          "duration": 0.5
        },
        {
          "name": "D#3",
          "midi": 51,
          "time": 386,
          "velocity": 0.5039370078740157,
          "duration": 0.5
        },
        {
          "name": "A#2",
          "midi": 46,
          "time": 386,
          "velocity": 0.5039370078740157,
          "duration": 0.5
        },
        {
          "name": "A#4",
          "midi": 70,
          "time": 386.5,
          "velocity": 0.5039370078740157,
          "duration": 0.5
        },
        {
          "name": "G4",
          "midi": 67,
          "time": 386.5,
          "velocity": 0.5039370078740157,
          "duration": 0.5
        },
        {
          "name": "D#4",
          "midi": 63,
          "time": 386.5,
          "velocity": 0.5039370078740157,
          "duration": 0.5
        },
        {
          "name": "C#4",
          "midi": 61,
          "time": 386.5,
          "velocity": 0.5039370078740157,
          "duration": 0.5
        },
        {
          "name": "A#3",
          "midi": 58,
          "time": 386.5,
          "velocity": 0.5039370078740157,
          "duration": 0.5
        },
        {
          "name": "D#3",
          "midi": 51,
          "time": 386.5,
          "velocity": 0.5039370078740157,
          "duration": 0.5
        },
        {
          "name": "A#2",
          "midi": 46,
          "time": 386.5,
          "velocity": 0.5039370078740157,
          "duration": 0.5
        },
        {
          "name": "A#4",
          "midi": 70,
          "time": 387,
          "velocity": 0.5039370078740157,
          "duration": 0.5
        },
        {
          "name": "G4",
          "midi": 67,
          "time": 387,
          "velocity": 0.5039370078740157,
          "duration": 0.5
        },
        {
          "name": "D#4",
          "midi": 63,
          "time": 387,
          "velocity": 0.5039370078740157,
          "duration": 0.5
        },
        {
          "name": "C#4",
          "midi": 61,
          "time": 387,
          "velocity": 0.5039370078740157,
          "duration": 0.5
        },
        {
          "name": "A#3",
          "midi": 58,
          "time": 387,
          "velocity": 0.5039370078740157,
          "duration": 0.5
        },
        {
          "name": "D#3",
          "midi": 51,
          "time": 387,
          "velocity": 0.5039370078740157,
          "duration": 0.5
        },
        {
          "name": "A#2",
          "midi": 46,
          "time": 387,
          "velocity": 0.5039370078740157,
          "duration": 0.5
        },
        {
          "name": "A#4",
          "midi": 70,
          "time": 387.5,
          "velocity": 0.5039370078740157,
          "duration": 0.5
        },
        {
          "name": "G4",
          "midi": 67,
          "time": 387.5,
          "velocity": 0.5039370078740157,
          "duration": 0.5
        },
        {
          "name": "D#4",
          "midi": 63,
          "time": 387.5,
          "velocity": 0.5039370078740157,
          "duration": 0.5
        },
        {
          "name": "C#4",
          "midi": 61,
          "time": 387.5,
          "velocity": 0.5039370078740157,
          "duration": 0.5
        },
        {
          "name": "A#3",
          "midi": 58,
          "time": 387.5,
          "velocity": 0.5039370078740157,
          "duration": 0.5
        },
        {
          "name": "D#3",
          "midi": 51,
          "time": 387.5,
          "velocity": 0.5039370078740157,
          "duration": 0.5
        },
        {
          "name": "A#2",
          "midi": 46,
          "time": 387.5,
          "velocity": 0.5039370078740157,
          "duration": 0.5
        },
        {
          "name": "G3",
          "midi": 55,
          "time": 387.5,
          "velocity": 0.5039370078740157,
          "duration": 0.5
        },
        {
          "name": "A#4",
          "midi": 70,
          "time": 388,
          "velocity": 0.5039370078740157,
          "duration": 0.5
        },
        {
          "name": "D#4",
          "midi": 63,
          "time": 388,
          "velocity": 0.5039370078740157,
          "duration": 0.5
        },
        {
          "name": "C#4",
          "midi": 61,
          "time": 388,
          "velocity": 0.5039370078740157,
          "duration": 0.5
        },
        {
          "name": "A#3",
          "midi": 58,
          "time": 388,
          "velocity": 0.5039370078740157,
          "duration": 0.5
        },
        {
          "name": "D#3",
          "midi": 51,
          "time": 388,
          "velocity": 0.5039370078740157,
          "duration": 0.5
        },
        {
          "name": "A#2",
          "midi": 46,
          "time": 388,
          "velocity": 0.5039370078740157,
          "duration": 0.5
        },
        {
          "name": "G2",
          "midi": 43,
          "time": 388,
          "velocity": 0.5039370078740157,
          "duration": 0.5
        },
        {
          "name": "C#3",
          "midi": 49,
          "time": 388,
          "velocity": 0.5039370078740157,
          "duration": 0.5
        },
        {
          "name": "G3",
          "midi": 55,
          "time": 388,
          "velocity": 0.5039370078740157,
          "duration": 0.5
        },
        {
          "name": "D#3",
          "midi": 51,
          "time": 388.5,
          "velocity": 0.5039370078740157,
          "duration": 1
        },
        {
          "name": "D#4",
          "midi": 63,
          "time": 388.5,
          "velocity": 0.5039370078740157,
          "duration": 1
        },
        {
          "name": "F#4",
          "midi": 66,
          "time": 388.5,
          "velocity": 0.5039370078740157,
          "duration": 1
        },
        {
          "name": "A#3",
          "midi": 58,
          "time": 388.5,
          "velocity": 0.5039370078740157,
          "duration": 2
        },
        {
          "name": "A#4",
          "midi": 70,
          "time": 388.5,
          "velocity": 0.5039370078740157,
          "duration": 2
        },
        {
          "name": "B3",
          "midi": 59,
          "time": 388.5,
          "velocity": 0.5039370078740157,
          "duration": 1
        },
        {
          "name": "F#2",
          "midi": 42,
          "time": 388.5,
          "velocity": 0.5039370078740157,
          "duration": 1
        },
        {
          "name": "C#4",
          "midi": 61,
          "time": 388.5,
          "velocity": 0.5039370078740157,
          "duration": 1
        },
        {
          "name": "B1",
          "midi": 35,
          "time": 388.5,
          "velocity": 0.7874015748031497,
          "duration": 8
        },
        {
          "name": "D#4",
          "midi": 63,
          "time": 389.5,
          "velocity": 0.5039370078740157,
          "duration": 1
        },
        {
          "name": "F#4",
          "midi": 66,
          "time": 389.5,
          "velocity": 0.5039370078740157,
          "duration": 1
        },
        {
          "name": "B3",
          "midi": 59,
          "time": 389.5,
          "velocity": 0.5039370078740157,
          "duration": 1
        },
        {
          "name": "F#2",
          "midi": 42,
          "time": 389.5,
          "velocity": 0.5039370078740157,
          "duration": 1
        },
        {
          "name": "C#4",
          "midi": 61,
          "time": 389.5,
          "velocity": 0.5039370078740157,
          "duration": 1
        },
        {
          "name": "D#3",
          "midi": 51,
          "time": 389.5,
          "velocity": 0.5039370078740157,
          "duration": 1
        },
        {
          "name": "D#4",
          "midi": 63,
          "time": 390.5,
          "velocity": 0.5039370078740157,
          "duration": 0.5
        },
        {
          "name": "F#4",
          "midi": 66,
          "time": 390.5,
          "velocity": 0.5039370078740157,
          "duration": 0.5
        },
        {
          "name": "B3",
          "midi": 59,
          "time": 390.5,
          "velocity": 0.5039370078740157,
          "duration": 0.5
        },
        {
          "name": "C#4",
          "midi": 61,
          "time": 390.5,
          "velocity": 0.5039370078740157,
          "duration": 0.5
        },
        {
          "name": "F#2",
          "midi": 42,
          "time": 390.5,
          "velocity": 0.5039370078740157,
          "duration": 1
        },
        {
          "name": "D#3",
          "midi": 51,
          "time": 391,
          "velocity": 0.5039370078740157,
          "duration": 0.5
        },
        {
          "name": "D#4",
          "midi": 63,
          "time": 391,
          "velocity": 0.5039370078740157,
          "duration": 0.5
        },
        {
          "name": "F#4",
          "midi": 66,
          "time": 391,
          "velocity": 0.5039370078740157,
          "duration": 0.5
        },
        {
          "name": "B3",
          "midi": 59,
          "time": 391,
          "velocity": 0.5039370078740157,
          "duration": 0.5
        },
        {
          "name": "C#4",
          "midi": 61,
          "time": 391,
          "velocity": 0.5039370078740157,
          "duration": 0.5
        },
        {
          "name": "D#4",
          "midi": 63,
          "time": 391.5,
          "velocity": 0.5039370078740157,
          "duration": 0.5
        },
        {
          "name": "F#4",
          "midi": 66,
          "time": 391.5,
          "velocity": 0.5039370078740157,
          "duration": 0.5
        },
        {
          "name": "B3",
          "midi": 59,
          "time": 391.5,
          "velocity": 0.5039370078740157,
          "duration": 0.5
        },
        {
          "name": "F#2",
          "midi": 42,
          "time": 391.5,
          "velocity": 0.5039370078740157,
          "duration": 5
        },
        {
          "name": "C#4",
          "midi": 61,
          "time": 391.5,
          "velocity": 0.5039370078740157,
          "duration": 0.5
        },
        {
          "name": "D#3",
          "midi": 51,
          "time": 392,
          "velocity": 0.5039370078740157,
          "duration": 0.5
        },
        {
          "name": "D#4",
          "midi": 63,
          "time": 392,
          "velocity": 0.5039370078740157,
          "duration": 0.5
        },
        {
          "name": "F#4",
          "midi": 66,
          "time": 392,
          "velocity": 0.5039370078740157,
          "duration": 0.5
        },
        {
          "name": "B3",
          "midi": 59,
          "time": 392,
          "velocity": 0.5039370078740157,
          "duration": 0.5
        },
        {
          "name": "C#4",
          "midi": 61,
          "time": 392,
          "velocity": 0.5039370078740157,
          "duration": 0.5
        },
        {
          "name": "D#4",
          "midi": 63,
          "time": 392.5,
          "velocity": 0.5039370078740157,
          "duration": 0.5
        },
        {
          "name": "F#4",
          "midi": 66,
          "time": 392.5,
          "velocity": 0.5039370078740157,
          "duration": 0.5
        },
        {
          "name": "B3",
          "midi": 59,
          "time": 392.5,
          "velocity": 0.5039370078740157,
          "duration": 0.5
        },
        {
          "name": "C#4",
          "midi": 61,
          "time": 392.5,
          "velocity": 0.5039370078740157,
          "duration": 0.5
        },
        {
          "name": "D#3",
          "midi": 51,
          "time": 393,
          "velocity": 0.5039370078740157,
          "duration": 0.25
        },
        {
          "name": "D#4",
          "midi": 63,
          "time": 393,
          "velocity": 0.5039370078740157,
          "duration": 0.5
        },
        {
          "name": "F#4",
          "midi": 66,
          "time": 393,
          "velocity": 0.5039370078740157,
          "duration": 0.5
        },
        {
          "name": "B3",
          "midi": 59,
          "time": 393,
          "velocity": 0.5039370078740157,
          "duration": 0.5
        },
        {
          "name": "C#4",
          "midi": 61,
          "time": 393,
          "velocity": 0.5039370078740157,
          "duration": 0.25
        },
        {
          "name": "D#3",
          "midi": 51,
          "time": 393.25,
          "velocity": 0.5039370078740157,
          "duration": 0.25
        },
        {
          "name": "C#4",
          "midi": 61,
          "time": 393.25,
          "velocity": 0.5039370078740157,
          "duration": 0.25
        },
        {
          "name": "D#4",
          "midi": 63,
          "time": 393.5,
          "velocity": 0.5039370078740157,
          "duration": 0.5
        },
        {
          "name": "F#4",
          "midi": 66,
          "time": 393.5,
          "velocity": 0.5039370078740157,
          "duration": 0.5
        },
        {
          "name": "B3",
          "midi": 59,
          "time": 393.5,
          "velocity": 0.5039370078740157,
          "duration": 0.5
        },
        {
          "name": "C#4",
          "midi": 61,
          "time": 393.5,
          "velocity": 0.5039370078740157,
          "duration": 0.5
        },
        {
          "name": "D#3",
          "midi": 51,
          "time": 393.5,
          "velocity": 0.5039370078740157,
          "duration": 0.5
        },
        {
          "name": "D#4",
          "midi": 63,
          "time": 394,
          "velocity": 0.5039370078740157,
          "duration": 0.5
        },
        {
          "name": "F#4",
          "midi": 66,
          "time": 394,
          "velocity": 0.5039370078740157,
          "duration": 0.5
        },
        {
          "name": "B3",
          "midi": 59,
          "time": 394,
          "velocity": 0.5039370078740157,
          "duration": 0.5
        },
        {
          "name": "C#4",
          "midi": 61,
          "time": 394,
          "velocity": 0.5039370078740157,
          "duration": 0.5
        },
        {
          "name": "D#3",
          "midi": 51,
          "time": 394,
          "velocity": 0.5039370078740157,
          "duration": 0.5
        },
        {
          "name": "D#4",
          "midi": 63,
          "time": 394.5,
          "velocity": 0.5039370078740157,
          "duration": 0.5
        },
        {
          "name": "F#4",
          "midi": 66,
          "time": 394.5,
          "velocity": 0.5039370078740157,
          "duration": 0.5
        },
        {
          "name": "B3",
          "midi": 59,
          "time": 394.5,
          "velocity": 0.5039370078740157,
          "duration": 0.5
        },
        {
          "name": "C#4",
          "midi": 61,
          "time": 394.5,
          "velocity": 0.5039370078740157,
          "duration": 0.5
        },
        {
          "name": "D#3",
          "midi": 51,
          "time": 394.5,
          "velocity": 0.5039370078740157,
          "duration": 0.5
        },
        {
          "name": "D#3",
          "midi": 51,
          "time": 395,
          "velocity": 0.5039370078740157,
          "duration": 0.5
        },
        {
          "name": "D#4",
          "midi": 63,
          "time": 395,
          "velocity": 0.5039370078740157,
          "duration": 0.5
        },
        {
          "name": "F#4",
          "midi": 66,
          "time": 395,
          "velocity": 0.5039370078740157,
          "duration": 0.5
        },
        {
          "name": "B3",
          "midi": 59,
          "time": 395,
          "velocity": 0.5039370078740157,
          "duration": 0.5
        },
        {
          "name": "C#4",
          "midi": 61,
          "time": 395,
          "velocity": 0.5039370078740157,
          "duration": 0.5
        },
        {
          "name": "D#3",
          "midi": 51,
          "time": 395.5,
          "velocity": 0.5039370078740157,
          "duration": 0.5
        },
        {
          "name": "D#4",
          "midi": 63,
          "time": 395.5,
          "velocity": 0.5039370078740157,
          "duration": 0.5
        },
        {
          "name": "F#4",
          "midi": 66,
          "time": 395.5,
          "velocity": 0.5039370078740157,
          "duration": 0.5
        },
        {
          "name": "B3",
          "midi": 59,
          "time": 395.5,
          "velocity": 0.5039370078740157,
          "duration": 0.5
        },
        {
          "name": "C#4",
          "midi": 61,
          "time": 395.5,
          "velocity": 0.5039370078740157,
          "duration": 0.5
        },
        {
          "name": "D#3",
          "midi": 51,
          "time": 396,
          "velocity": 0.5039370078740157,
          "duration": 0.5
        },
        {
          "name": "D#4",
          "midi": 63,
          "time": 396,
          "velocity": 0.5039370078740157,
          "duration": 0.5
        },
        {
          "name": "F#4",
          "midi": 66,
          "time": 396,
          "velocity": 0.5039370078740157,
          "duration": 0.5
        },
        {
          "name": "B3",
          "midi": 59,
          "time": 396,
          "velocity": 0.5039370078740157,
          "duration": 0.5
        },
        {
          "name": "C#4",
          "midi": 61,
          "time": 396,
          "velocity": 0.5039370078740157,
          "duration": 0.5
        },
        {
          "name": "G#4",
          "midi": 68,
          "time": 396.5,
          "velocity": 0.5039370078740157,
          "duration": 1
        },
        {
          "name": "F#4",
          "midi": 66,
          "time": 396.5,
          "velocity": 0.5039370078740157,
          "duration": 1
        },
        {
          "name": "D#4",
          "midi": 63,
          "time": 396.5,
          "velocity": 0.5039370078740157,
          "duration": 1
        },
        {
          "name": "B3",
          "midi": 59,
          "time": 396.5,
          "velocity": 0.5039370078740157,
          "duration": 1
        },
        {
          "name": "G#3",
          "midi": 56,
          "time": 396.5,
          "velocity": 0.5039370078740157,
          "duration": 1
        },
        {
          "name": "C#3",
          "midi": 49,
          "time": 396.5,
          "velocity": 0.5039370078740157,
          "duration": 1
        },
        {
          "name": "D#2",
          "midi": 39,
          "time": 396.5,
          "velocity": 0.5039370078740157,
          "duration": 8
        },
        {
          "name": "C#2",
          "midi": 37,
          "time": 396.5,
          "velocity": 0.7874015748031497,
          "duration": 8
        },
        {
          "name": "G#4",
          "midi": 68,
          "time": 397.5,
          "velocity": 0.5039370078740157,
          "duration": 1
        },
        {
          "name": "F#4",
          "midi": 66,
          "time": 397.5,
          "velocity": 0.5039370078740157,
          "duration": 1
        },
        {
          "name": "D#4",
          "midi": 63,
          "time": 397.5,
          "velocity": 0.5039370078740157,
          "duration": 1
        },
        {
          "name": "B3",
          "midi": 59,
          "time": 397.5,
          "velocity": 0.5039370078740157,
          "duration": 1
        },
        {
          "name": "G#3",
          "midi": 56,
          "time": 397.5,
          "velocity": 0.5039370078740157,
          "duration": 1
        },
        {
          "name": "C#3",
          "midi": 49,
          "time": 397.5,
          "velocity": 0.5039370078740157,
          "duration": 1
        },
        {
          "name": "G#4",
          "midi": 68,
          "time": 398.5,
          "velocity": 0.5039370078740157,
          "duration": 0.5
        },
        {
          "name": "F#4",
          "midi": 66,
          "time": 398.5,
          "velocity": 0.5039370078740157,
          "duration": 0.5
        },
        {
          "name": "D#4",
          "midi": 63,
          "time": 398.5,
          "velocity": 0.5039370078740157,
          "duration": 0.5
        },
        {
          "name": "B3",
          "midi": 59,
          "time": 398.5,
          "velocity": 0.5039370078740157,
          "duration": 0.5
        },
        {
          "name": "G#3",
          "midi": 56,
          "time": 398.5,
          "velocity": 0.5039370078740157,
          "duration": 0.5
        },
        {
          "name": "G#4",
          "midi": 68,
          "time": 399,
          "velocity": 0.5039370078740157,
          "duration": 0.5
        },
        {
          "name": "F#4",
          "midi": 66,
          "time": 399,
          "velocity": 0.5039370078740157,
          "duration": 0.5
        },
        {
          "name": "D#4",
          "midi": 63,
          "time": 399,
          "velocity": 0.5039370078740157,
          "duration": 0.5
        },
        {
          "name": "B3",
          "midi": 59,
          "time": 399,
          "velocity": 0.5039370078740157,
          "duration": 0.5
        },
        {
          "name": "G#3",
          "midi": 56,
          "time": 399,
          "velocity": 0.5039370078740157,
          "duration": 0.5
        },
        {
          "name": "C#3",
          "midi": 49,
          "time": 399,
          "velocity": 0.5039370078740157,
          "duration": 0.5
        },
        {
          "name": "G#4",
          "midi": 68,
          "time": 399.5,
          "velocity": 0.5039370078740157,
          "duration": 0.5
        },
        {
          "name": "F#4",
          "midi": 66,
          "time": 399.5,
          "velocity": 0.5039370078740157,
          "duration": 0.5
        },
        {
          "name": "D#4",
          "midi": 63,
          "time": 399.5,
          "velocity": 0.5039370078740157,
          "duration": 0.5
        },
        {
          "name": "B3",
          "midi": 59,
          "time": 399.5,
          "velocity": 0.5039370078740157,
          "duration": 0.5
        },
        {
          "name": "G#3",
          "midi": 56,
          "time": 399.5,
          "velocity": 0.5039370078740157,
          "duration": 0.5
        },
        {
          "name": "G#4",
          "midi": 68,
          "time": 400,
          "velocity": 0.5039370078740157,
          "duration": 0.5
        },
        {
          "name": "F#4",
          "midi": 66,
          "time": 400,
          "velocity": 0.5039370078740157,
          "duration": 0.5
        },
        {
          "name": "D#4",
          "midi": 63,
          "time": 400,
          "velocity": 0.5039370078740157,
          "duration": 0.5
        },
        {
          "name": "B3",
          "midi": 59,
          "time": 400,
          "velocity": 0.5039370078740157,
          "duration": 0.5
        },
        {
          "name": "G#3",
          "midi": 56,
          "time": 400,
          "velocity": 0.5039370078740157,
          "duration": 0.5
        },
        {
          "name": "C#3",
          "midi": 49,
          "time": 400,
          "velocity": 0.5039370078740157,
          "duration": 0.5
        },
        {
          "name": "G#4",
          "midi": 68,
          "time": 400.5,
          "velocity": 0.5039370078740157,
          "duration": 0.5
        },
        {
          "name": "F#4",
          "midi": 66,
          "time": 400.5,
          "velocity": 0.5039370078740157,
          "duration": 0.5
        },
        {
          "name": "D#4",
          "midi": 63,
          "time": 400.5,
          "velocity": 0.5039370078740157,
          "duration": 0.5
        },
        {
          "name": "B3",
          "midi": 59,
          "time": 400.5,
          "velocity": 0.5039370078740157,
          "duration": 0.5
        },
        {
          "name": "G#3",
          "midi": 56,
          "time": 400.5,
          "velocity": 0.5039370078740157,
          "duration": 0.5
        },
        {
          "name": "G#4",
          "midi": 68,
          "time": 401,
          "velocity": 0.5039370078740157,
          "duration": 0.5
        },
        {
          "name": "F#4",
          "midi": 66,
          "time": 401,
          "velocity": 0.5039370078740157,
          "duration": 0.5
        },
        {
          "name": "D#4",
          "midi": 63,
          "time": 401,
          "velocity": 0.5039370078740157,
          "duration": 0.5
        },
        {
          "name": "B3",
          "midi": 59,
          "time": 401,
          "velocity": 0.5039370078740157,
          "duration": 0.5
        },
        {
          "name": "G#3",
          "midi": 56,
          "time": 401,
          "velocity": 0.5039370078740157,
          "duration": 0.5
        },
        {
          "name": "C#3",
          "midi": 49,
          "time": 401,
          "velocity": 0.5039370078740157,
          "duration": 0.5
        },
        {
          "name": "G#4",
          "midi": 68,
          "time": 401.5,
          "velocity": 0.5039370078740157,
          "duration": 0.5
        },
        {
          "name": "F#4",
          "midi": 66,
          "time": 401.5,
          "velocity": 0.5039370078740157,
          "duration": 0.5
        },
        {
          "name": "D#4",
          "midi": 63,
          "time": 401.5,
          "velocity": 0.5039370078740157,
          "duration": 0.5
        },
        {
          "name": "B3",
          "midi": 59,
          "time": 401.5,
          "velocity": 0.5039370078740157,
          "duration": 0.5
        },
        {
          "name": "G#3",
          "midi": 56,
          "time": 401.5,
          "velocity": 0.5039370078740157,
          "duration": 0.5
        },
        {
          "name": "G#4",
          "midi": 68,
          "time": 402,
          "velocity": 0.5039370078740157,
          "duration": 0.5
        },
        {
          "name": "F#4",
          "midi": 66,
          "time": 402,
          "velocity": 0.5039370078740157,
          "duration": 0.5
        },
        {
          "name": "D#4",
          "midi": 63,
          "time": 402,
          "velocity": 0.5039370078740157,
          "duration": 0.5
        },
        {
          "name": "B3",
          "midi": 59,
          "time": 402,
          "velocity": 0.5039370078740157,
          "duration": 0.5
        },
        {
          "name": "G#3",
          "midi": 56,
          "time": 402,
          "velocity": 0.5039370078740157,
          "duration": 0.5
        },
        {
          "name": "C#3",
          "midi": 49,
          "time": 402,
          "velocity": 0.5039370078740157,
          "duration": 0.5
        },
        {
          "name": "G#4",
          "midi": 68,
          "time": 402.5,
          "velocity": 0.5039370078740157,
          "duration": 0.5
        },
        {
          "name": "F#4",
          "midi": 66,
          "time": 402.5,
          "velocity": 0.5039370078740157,
          "duration": 0.5
        },
        {
          "name": "D#4",
          "midi": 63,
          "time": 402.5,
          "velocity": 0.5039370078740157,
          "duration": 0.5
        },
        {
          "name": "B3",
          "midi": 59,
          "time": 402.5,
          "velocity": 0.5039370078740157,
          "duration": 0.5
        },
        {
          "name": "G#3",
          "midi": 56,
          "time": 402.5,
          "velocity": 0.5039370078740157,
          "duration": 0.5
        },
        {
          "name": "G#4",
          "midi": 68,
          "time": 403,
          "velocity": 0.5039370078740157,
          "duration": 0.5
        },
        {
          "name": "F#4",
          "midi": 66,
          "time": 403,
          "velocity": 0.5039370078740157,
          "duration": 0.5
        },
        {
          "name": "D#4",
          "midi": 63,
          "time": 403,
          "velocity": 0.5039370078740157,
          "duration": 0.5
        },
        {
          "name": "B3",
          "midi": 59,
          "time": 403,
          "velocity": 0.5039370078740157,
          "duration": 0.5
        },
        {
          "name": "G#3",
          "midi": 56,
          "time": 403,
          "velocity": 0.5039370078740157,
          "duration": 0.5
        },
        {
          "name": "C#3",
          "midi": 49,
          "time": 403,
          "velocity": 0.5039370078740157,
          "duration": 0.5
        },
        {
          "name": "G#4",
          "midi": 68,
          "time": 403.5,
          "velocity": 0.5039370078740157,
          "duration": 1
        },
        {
          "name": "F#4",
          "midi": 66,
          "time": 403.5,
          "velocity": 0.5039370078740157,
          "duration": 1
        },
        {
          "name": "D#4",
          "midi": 63,
          "time": 403.5,
          "velocity": 0.5039370078740157,
          "duration": 1
        },
        {
          "name": "B3",
          "midi": 59,
          "time": 403.5,
          "velocity": 0.5039370078740157,
          "duration": 1
        },
        {
          "name": "G#3",
          "midi": 56,
          "time": 403.5,
          "velocity": 0.5039370078740157,
          "duration": 1
        },
        {
          "name": "C#3",
          "midi": 49,
          "time": 403.5,
          "velocity": 0.5039370078740157,
          "duration": 1
        },
        {
          "name": "D#3",
          "midi": 51,
          "time": 403.5,
          "velocity": 0.5039370078740157,
          "duration": 1
        },
        {
          "name": "C#5",
          "midi": 73,
          "time": 404.5,
          "velocity": 0.30708661417322836,
          "duration": 0.5
        },
        {
          "name": "A#4",
          "midi": 70,
          "time": 404.5,
          "velocity": 0.5039370078740157,
          "duration": 0.5
        },
        {
          "name": "F#4",
          "midi": 66,
          "time": 404.5,
          "velocity": 0.5039370078740157,
          "duration": 0.5
        },
        {
          "name": "C#4",
          "midi": 61,
          "time": 404.5,
          "velocity": 0.5039370078740157,
          "duration": 0.5
        },
        {
          "name": "A#3",
          "midi": 58,
          "time": 404.5,
          "velocity": 0.5039370078740157,
          "duration": 0.5
        },
        {
          "name": "C#3",
          "midi": 49,
          "time": 404.5,
          "velocity": 0.5039370078740157,
          "duration": 0.5
        },
        {
          "name": "A#2",
          "midi": 46,
          "time": 404.5,
          "velocity": 0.5039370078740157,
          "duration": 0.5
        },
        {
          "name": "F#1",
          "midi": 30,
          "time": 404.5,
          "velocity": 0.7874015748031497,
          "duration": 8
        },
        {
          "name": "C#5",
          "midi": 73,
          "time": 405.5,
          "velocity": 0.30708661417322836,
          "duration": 1
        },
        {
          "name": "A#4",
          "midi": 70,
          "time": 405.5,
          "velocity": 0.5039370078740157,
          "duration": 1
        },
        {
          "name": "F#4",
          "midi": 66,
          "time": 405.5,
          "velocity": 0.5039370078740157,
          "duration": 1
        },
        {
          "name": "C#4",
          "midi": 61,
          "time": 405.5,
          "velocity": 0.5039370078740157,
          "duration": 1
        },
        {
          "name": "A#3",
          "midi": 58,
          "time": 405.5,
          "velocity": 0.5039370078740157,
          "duration": 1
        },
        {
          "name": "C#3",
          "midi": 49,
          "time": 405.5,
          "velocity": 0.5039370078740157,
          "duration": 1
        },
        {
          "name": "A#2",
          "midi": 46,
          "time": 405.5,
          "velocity": 0.5039370078740157,
          "duration": 1
        },
        {
          "name": "C#5",
          "midi": 73,
          "time": 406.5,
          "velocity": 0.30708661417322836,
          "duration": 0.5
        },
        {
          "name": "A#4",
          "midi": 70,
          "time": 406.5,
          "velocity": 0.5039370078740157,
          "duration": 0.5
        },
        {
          "name": "F#4",
          "midi": 66,
          "time": 406.5,
          "velocity": 0.5039370078740157,
          "duration": 0.5
        },
        {
          "name": "C#4",
          "midi": 61,
          "time": 406.5,
          "velocity": 0.5039370078740157,
          "duration": 0.5
        },
        {
          "name": "A#3",
          "midi": 58,
          "time": 406.5,
          "velocity": 0.5039370078740157,
          "duration": 0.5
        },
        {
          "name": "C#3",
          "midi": 49,
          "time": 406.5,
          "velocity": 0.5039370078740157,
          "duration": 0.5
        },
        {
          "name": "A#2",
          "midi": 46,
          "time": 406.5,
          "velocity": 0.5039370078740157,
          "duration": 0.5
        },
        {
          "name": "C#5",
          "midi": 73,
          "time": 407,
          "velocity": 0.30708661417322836,
          "duration": 0.5
        },
        {
          "name": "A#4",
          "midi": 70,
          "time": 407,
          "velocity": 0.5039370078740157,
          "duration": 0.5
        },
        {
          "name": "F#4",
          "midi": 66,
          "time": 407,
          "velocity": 0.5039370078740157,
          "duration": 0.5
        },
        {
          "name": "C#4",
          "midi": 61,
          "time": 407,
          "velocity": 0.5039370078740157,
          "duration": 0.5
        },
        {
          "name": "A#3",
          "midi": 58,
          "time": 407,
          "velocity": 0.5039370078740157,
          "duration": 0.5
        },
        {
          "name": "C#3",
          "midi": 49,
          "time": 407,
          "velocity": 0.5039370078740157,
          "duration": 0.5
        },
        {
          "name": "A#2",
          "midi": 46,
          "time": 407,
          "velocity": 0.5039370078740157,
          "duration": 0.5
        },
        {
          "name": "C#5",
          "midi": 73,
          "time": 407.5,
          "velocity": 0.30708661417322836,
          "duration": 0.5
        },
        {
          "name": "A#4",
          "midi": 70,
          "time": 407.5,
          "velocity": 0.5039370078740157,
          "duration": 0.5
        },
        {
          "name": "F#4",
          "midi": 66,
          "time": 407.5,
          "velocity": 0.5039370078740157,
          "duration": 0.5
        },
        {
          "name": "C#4",
          "midi": 61,
          "time": 407.5,
          "velocity": 0.5039370078740157,
          "duration": 0.5
        },
        {
          "name": "A#3",
          "midi": 58,
          "time": 407.5,
          "velocity": 0.5039370078740157,
          "duration": 0.5
        },
        {
          "name": "C#3",
          "midi": 49,
          "time": 407.5,
          "velocity": 0.5039370078740157,
          "duration": 0.5
        },
        {
          "name": "A#2",
          "midi": 46,
          "time": 407.5,
          "velocity": 0.5039370078740157,
          "duration": 0.5
        },
        {
          "name": "C#5",
          "midi": 73,
          "time": 408,
          "velocity": 0.30708661417322836,
          "duration": 0.5
        },
        {
          "name": "A#4",
          "midi": 70,
          "time": 408,
          "velocity": 0.5039370078740157,
          "duration": 0.5
        },
        {
          "name": "F#4",
          "midi": 66,
          "time": 408,
          "velocity": 0.5039370078740157,
          "duration": 0.5
        },
        {
          "name": "C#4",
          "midi": 61,
          "time": 408,
          "velocity": 0.5039370078740157,
          "duration": 0.5
        },
        {
          "name": "A#3",
          "midi": 58,
          "time": 408,
          "velocity": 0.5039370078740157,
          "duration": 0.5
        },
        {
          "name": "C#3",
          "midi": 49,
          "time": 408,
          "velocity": 0.5039370078740157,
          "duration": 0.5
        },
        {
          "name": "A#2",
          "midi": 46,
          "time": 408,
          "velocity": 0.5039370078740157,
          "duration": 0.5
        },
        {
          "name": "C#5",
          "midi": 73,
          "time": 408.5,
          "velocity": 0.30708661417322836,
          "duration": 0.5
        },
        {
          "name": "A#4",
          "midi": 70,
          "time": 408.5,
          "velocity": 0.5039370078740157,
          "duration": 0.5
        },
        {
          "name": "F#4",
          "midi": 66,
          "time": 408.5,
          "velocity": 0.5039370078740157,
          "duration": 0.5
        },
        {
          "name": "C#4",
          "midi": 61,
          "time": 408.5,
          "velocity": 0.5039370078740157,
          "duration": 0.5
        },
        {
          "name": "A#3",
          "midi": 58,
          "time": 408.5,
          "velocity": 0.5039370078740157,
          "duration": 0.5
        },
        {
          "name": "C#3",
          "midi": 49,
          "time": 408.5,
          "velocity": 0.5039370078740157,
          "duration": 0.5
        },
        {
          "name": "A#2",
          "midi": 46,
          "time": 408.5,
          "velocity": 0.5039370078740157,
          "duration": 0.5
        },
        {
          "name": "C#5",
          "midi": 73,
          "time": 409,
          "velocity": 0.31496062992125984,
          "duration": 0.5
        },
        {
          "name": "A#4",
          "midi": 70,
          "time": 409,
          "velocity": 0.5039370078740157,
          "duration": 0.5
        },
        {
          "name": "F#4",
          "midi": 66,
          "time": 409,
          "velocity": 0.5039370078740157,
          "duration": 0.5
        },
        {
          "name": "C#4",
          "midi": 61,
          "time": 409,
          "velocity": 0.5039370078740157,
          "duration": 0.5
        },
        {
          "name": "A#3",
          "midi": 58,
          "time": 409,
          "velocity": 0.5039370078740157,
          "duration": 0.5
        },
        {
          "name": "C#3",
          "midi": 49,
          "time": 409,
          "velocity": 0.5039370078740157,
          "duration": 0.5
        },
        {
          "name": "A#2",
          "midi": 46,
          "time": 409,
          "velocity": 0.5039370078740157,
          "duration": 0.5
        },
        {
          "name": "C#5",
          "midi": 73,
          "time": 409.5,
          "velocity": 0.31496062992125984,
          "duration": 0.5
        },
        {
          "name": "A#4",
          "midi": 70,
          "time": 409.5,
          "velocity": 0.5039370078740157,
          "duration": 0.5
        },
        {
          "name": "F#4",
          "midi": 66,
          "time": 409.5,
          "velocity": 0.5039370078740157,
          "duration": 0.5
        },
        {
          "name": "C#4",
          "midi": 61,
          "time": 409.5,
          "velocity": 0.5039370078740157,
          "duration": 0.5
        },
        {
          "name": "A#3",
          "midi": 58,
          "time": 409.5,
          "velocity": 0.5039370078740157,
          "duration": 0.5
        },
        {
          "name": "C#3",
          "midi": 49,
          "time": 409.5,
          "velocity": 0.5039370078740157,
          "duration": 0.5
        },
        {
          "name": "A#2",
          "midi": 46,
          "time": 409.5,
          "velocity": 0.5039370078740157,
          "duration": 0.5
        },
        {
          "name": "C#5",
          "midi": 73,
          "time": 410,
          "velocity": 0.31496062992125984,
          "duration": 0.5
        },
        {
          "name": "A#4",
          "midi": 70,
          "time": 410,
          "velocity": 0.5039370078740157,
          "duration": 0.5
        },
        {
          "name": "F#4",
          "midi": 66,
          "time": 410,
          "velocity": 0.5039370078740157,
          "duration": 0.5
        },
        {
          "name": "C#4",
          "midi": 61,
          "time": 410,
          "velocity": 0.5039370078740157,
          "duration": 0.5
        },
        {
          "name": "A#3",
          "midi": 58,
          "time": 410,
          "velocity": 0.5039370078740157,
          "duration": 0.5
        },
        {
          "name": "C#3",
          "midi": 49,
          "time": 410,
          "velocity": 0.5039370078740157,
          "duration": 0.5
        },
        {
          "name": "A#2",
          "midi": 46,
          "time": 410,
          "velocity": 0.5039370078740157,
          "duration": 0.5
        },
        {
          "name": "C#5",
          "midi": 73,
          "time": 410.5,
          "velocity": 0.31496062992125984,
          "duration": 0.5
        },
        {
          "name": "A#4",
          "midi": 70,
          "time": 410.5,
          "velocity": 0.5039370078740157,
          "duration": 0.5
        },
        {
          "name": "F#4",
          "midi": 66,
          "time": 410.5,
          "velocity": 0.5039370078740157,
          "duration": 0.5
        },
        {
          "name": "C#4",
          "midi": 61,
          "time": 410.5,
          "velocity": 0.5039370078740157,
          "duration": 0.5
        },
        {
          "name": "A#3",
          "midi": 58,
          "time": 410.5,
          "velocity": 0.5039370078740157,
          "duration": 0.5
        },
        {
          "name": "C#3",
          "midi": 49,
          "time": 410.5,
          "velocity": 0.5039370078740157,
          "duration": 0.5
        },
        {
          "name": "A#2",
          "midi": 46,
          "time": 410.5,
          "velocity": 0.5039370078740157,
          "duration": 0.5
        },
        {
          "name": "C#5",
          "midi": 73,
          "time": 411,
          "velocity": 0.31496062992125984,
          "duration": 0.5
        },
        {
          "name": "A#4",
          "midi": 70,
          "time": 411,
          "velocity": 0.5039370078740157,
          "duration": 0.5
        },
        {
          "name": "F#4",
          "midi": 66,
          "time": 411,
          "velocity": 0.5039370078740157,
          "duration": 0.5
        },
        {
          "name": "C#4",
          "midi": 61,
          "time": 411,
          "velocity": 0.5039370078740157,
          "duration": 0.5
        },
        {
          "name": "A#3",
          "midi": 58,
          "time": 411,
          "velocity": 0.5039370078740157,
          "duration": 0.5
        },
        {
          "name": "C#3",
          "midi": 49,
          "time": 411,
          "velocity": 0.5039370078740157,
          "duration": 0.5
        },
        {
          "name": "A#2",
          "midi": 46,
          "time": 411,
          "velocity": 0.5039370078740157,
          "duration": 0.5
        },
        {
          "name": "A#4",
          "midi": 70,
          "time": 411.5,
          "velocity": 0.5039370078740157,
          "duration": 0.5
        },
        {
          "name": "F#4",
          "midi": 66,
          "time": 411.5,
          "velocity": 0.5039370078740157,
          "duration": 0.5
        },
        {
          "name": "C#4",
          "midi": 61,
          "time": 411.5,
          "velocity": 0.5039370078740157,
          "duration": 0.5
        },
        {
          "name": "A#3",
          "midi": 58,
          "time": 411.5,
          "velocity": 0.5039370078740157,
          "duration": 0.5
        },
        {
          "name": "C#3",
          "midi": 49,
          "time": 411.5,
          "velocity": 0.5039370078740157,
          "duration": 0.5
        },
        {
          "name": "A#2",
          "midi": 46,
          "time": 411.5,
          "velocity": 0.5039370078740157,
          "duration": 0.5
        },
        {
          "name": "A#4",
          "midi": 70,
          "time": 412,
          "velocity": 0.5039370078740157,
          "duration": 0.5
        },
        {
          "name": "F#4",
          "midi": 66,
          "time": 412,
          "velocity": 0.5039370078740157,
          "duration": 0.5
        },
        {
          "name": "C#4",
          "midi": 61,
          "time": 412,
          "velocity": 0.5039370078740157,
          "duration": 0.5
        },
        {
          "name": "A#3",
          "midi": 58,
          "time": 412,
          "velocity": 0.5039370078740157,
          "duration": 0.5
        },
        {
          "name": "C#3",
          "midi": 49,
          "time": 412,
          "velocity": 0.5039370078740157,
          "duration": 0.5
        },
        {
          "name": "A#2",
          "midi": 46,
          "time": 412,
          "velocity": 0.5039370078740157,
          "duration": 0.5
        },
        {
          "name": "A#4",
          "midi": 70,
          "time": 412.5,
          "velocity": 0.5039370078740157,
          "duration": 1
        },
        {
          "name": "F#4",
          "midi": 66,
          "time": 412.5,
          "velocity": 0.5039370078740157,
          "duration": 1
        },
        {
          "name": "C#4",
          "midi": 61,
          "time": 412.5,
          "velocity": 0.5039370078740157,
          "duration": 1
        },
        {
          "name": "D#4",
          "midi": 63,
          "time": 412.5,
          "velocity": 0.5039370078740157,
          "duration": 1
        },
        {
          "name": "A#3",
          "midi": 58,
          "time": 412.5,
          "velocity": 0.5039370078740157,
          "duration": 1
        },
        {
          "name": "A#2",
          "midi": 46,
          "time": 412.5,
          "velocity": 0.5039370078740157,
          "duration": 1
        },
        {
          "name": "D#3",
          "midi": 51,
          "time": 412.5,
          "velocity": 0.5039370078740157,
          "duration": 1
        },
        {
          "name": "D#2",
          "midi": 39,
          "time": 412.5,
          "velocity": 0.7874015748031497,
          "duration": 8
        },
        {
          "name": "A#4",
          "midi": 70,
          "time": 413.5,
          "velocity": 0.5039370078740157,
          "duration": 1
        },
        {
          "name": "F#4",
          "midi": 66,
          "time": 413.5,
          "velocity": 0.5039370078740157,
          "duration": 1
        },
        {
          "name": "C#4",
          "midi": 61,
          "time": 413.5,
          "velocity": 0.5039370078740157,
          "duration": 1
        },
        {
          "name": "D#4",
          "midi": 63,
          "time": 413.5,
          "velocity": 0.5039370078740157,
          "duration": 1
        },
        {
          "name": "A#3",
          "midi": 58,
          "time": 413.5,
          "velocity": 0.5039370078740157,
          "duration": 1
        },
        {
          "name": "A#2",
          "midi": 46,
          "time": 413.5,
          "velocity": 0.5039370078740157,
          "duration": 1
        },
        {
          "name": "D#3",
          "midi": 51,
          "time": 413.5,
          "velocity": 0.5039370078740157,
          "duration": 1
        },
        {
          "name": "A#4",
          "midi": 70,
          "time": 414.5,
          "velocity": 0.5039370078740157,
          "duration": 0.5
        },
        {
          "name": "F#4",
          "midi": 66,
          "time": 414.5,
          "velocity": 0.5039370078740157,
          "duration": 0.5
        },
        {
          "name": "C#4",
          "midi": 61,
          "time": 414.5,
          "velocity": 0.5039370078740157,
          "duration": 0.5
        },
        {
          "name": "D#4",
          "midi": 63,
          "time": 414.5,
          "velocity": 0.5039370078740157,
          "duration": 0.5
        },
        {
          "name": "A#3",
          "midi": 58,
          "time": 414.5,
          "velocity": 0.5039370078740157,
          "duration": 0.5
        },
        {
          "name": "A#2",
          "midi": 46,
          "time": 414.5,
          "velocity": 0.5039370078740157,
          "duration": 1
        },
        {
          "name": "D#3",
          "midi": 51,
          "time": 414.5,
          "velocity": 0.5039370078740157,
          "duration": 1
        },
        {
          "name": "A#4",
          "midi": 70,
          "time": 415,
          "velocity": 0.5039370078740157,
          "duration": 0.5
        },
        {
          "name": "F#4",
          "midi": 66,
          "time": 415,
          "velocity": 0.5039370078740157,
          "duration": 0.5
        },
        {
          "name": "C#4",
          "midi": 61,
          "time": 415,
          "velocity": 0.5039370078740157,
          "duration": 0.5
        },
        {
          "name": "D#4",
          "midi": 63,
          "time": 415,
          "velocity": 0.5039370078740157,
          "duration": 0.5
        },
        {
          "name": "A#3",
          "midi": 58,
          "time": 415,
          "velocity": 0.5039370078740157,
          "duration": 0.5
        },
        {
          "name": "A#4",
          "midi": 70,
          "time": 416.5,
          "velocity": 0.5039370078740157,
          "duration": 0.5
        },
        {
          "name": "F#4",
          "midi": 66,
          "time": 416.5,
          "velocity": 0.5039370078740157,
          "duration": 0.5
        },
        {
          "name": "C#4",
          "midi": 61,
          "time": 416.5,
          "velocity": 0.5039370078740157,
          "duration": 0.5
        },
        {
          "name": "D#4",
          "midi": 63,
          "time": 416.5,
          "velocity": 0.5039370078740157,
          "duration": 0.5
        },
        {
          "name": "A#3",
          "midi": 58,
          "time": 416.5,
          "velocity": 0.5039370078740157,
          "duration": 0.5
        },
        {
          "name": "A#2",
          "midi": 46,
          "time": 416.5,
          "velocity": 0.5039370078740157,
          "duration": 1
        },
        {
          "name": "D#3",
          "midi": 51,
          "time": 416.5,
          "velocity": 0.5039370078740157,
          "duration": 1
        },
        {
          "name": "A#4",
          "midi": 70,
          "time": 417,
          "velocity": 0.5039370078740157,
          "duration": 0.5
        },
        {
          "name": "F#4",
          "midi": 66,
          "time": 417,
          "velocity": 0.5039370078740157,
          "duration": 0.5
        },
        {
          "name": "C#4",
          "midi": 61,
          "time": 417,
          "velocity": 0.5039370078740157,
          "duration": 0.5
        },
        {
          "name": "D#4",
          "midi": 63,
          "time": 417,
          "velocity": 0.5039370078740157,
          "duration": 0.5
        },
        {
          "name": "A#3",
          "midi": 58,
          "time": 417,
          "velocity": 0.5039370078740157,
          "duration": 0.5
        },
        {
          "name": "A#4",
          "midi": 70,
          "time": 417.5,
          "velocity": 0.5039370078740157,
          "duration": 0.5
        },
        {
          "name": "F#4",
          "midi": 66,
          "time": 417.5,
          "velocity": 0.5039370078740157,
          "duration": 0.5
        },
        {
          "name": "C#4",
          "midi": 61,
          "time": 417.5,
          "velocity": 0.5039370078740157,
          "duration": 0.5
        },
        {
          "name": "D#4",
          "midi": 63,
          "time": 417.5,
          "velocity": 0.5039370078740157,
          "duration": 0.5
        },
        {
          "name": "A#3",
          "midi": 58,
          "time": 417.5,
          "velocity": 0.5039370078740157,
          "duration": 0.5
        },
        {
          "name": "A#2",
          "midi": 46,
          "time": 417.5,
          "velocity": 0.5039370078740157,
          "duration": 1
        },
        {
          "name": "D#3",
          "midi": 51,
          "time": 417.5,
          "velocity": 0.5039370078740157,
          "duration": 1
        },
        {
          "name": "A#4",
          "midi": 70,
          "time": 418,
          "velocity": 0.5039370078740157,
          "duration": 0.5
        },
        {
          "name": "F#4",
          "midi": 66,
          "time": 418,
          "velocity": 0.5039370078740157,
          "duration": 0.5
        },
        {
          "name": "C#4",
          "midi": 61,
          "time": 418,
          "velocity": 0.5039370078740157,
          "duration": 0.5
        },
        {
          "name": "D#4",
          "midi": 63,
          "time": 418,
          "velocity": 0.5039370078740157,
          "duration": 0.5
        },
        {
          "name": "A#3",
          "midi": 58,
          "time": 418,
          "velocity": 0.5039370078740157,
          "duration": 0.5
        },
        {
          "name": "A#4",
          "midi": 70,
          "time": 418.5,
          "velocity": 0.5039370078740157,
          "duration": 1
        },
        {
          "name": "F#4",
          "midi": 66,
          "time": 418.5,
          "velocity": 0.5039370078740157,
          "duration": 1
        },
        {
          "name": "C#4",
          "midi": 61,
          "time": 418.5,
          "velocity": 0.5039370078740157,
          "duration": 1
        },
        {
          "name": "D#4",
          "midi": 63,
          "time": 418.5,
          "velocity": 0.5039370078740157,
          "duration": 1
        },
        {
          "name": "A#3",
          "midi": 58,
          "time": 418.5,
          "velocity": 0.5039370078740157,
          "duration": 1
        },
        {
          "name": "A#2",
          "midi": 46,
          "time": 418.5,
          "velocity": 0.5039370078740157,
          "duration": 1
        },
        {
          "name": "D#3",
          "midi": 51,
          "time": 418.5,
          "velocity": 0.5039370078740157,
          "duration": 1
        },
        {
          "name": "B2",
          "midi": 47,
          "time": 420.5,
          "velocity": 0.7874015748031497,
          "duration": 4
        },
        {
          "name": "D3",
          "midi": 50,
          "time": 421,
          "velocity": 0.7874015748031497,
          "duration": 3
        },
        {
          "name": "F#3",
          "midi": 54,
          "time": 421.5,
          "velocity": 0.7874015748031497,
          "duration": 2
        },
        {
          "name": "A3",
          "midi": 57,
          "time": 422,
          "velocity": 0.7874015748031497,
          "duration": 1
        },
        {
          "name": "B3",
          "midi": 59,
          "time": 422.5,
          "velocity": 0.7874015748031497,
          "duration": 2
        },
        {
          "name": "A3",
          "midi": 57,
          "time": 423,
          "velocity": 0.7874015748031497,
          "duration": 1.5
        },
        {
          "name": "F#3",
          "midi": 54,
          "time": 423.5,
          "velocity": 0.7874015748031497,
          "duration": 1
        },
        {
          "name": "D3",
          "midi": 50,
          "time": 424,
          "velocity": 0.7874015748031497,
          "duration": 0.5
        },
        {
          "name": "B2",
          "midi": 47,
          "time": 424.5,
          "velocity": 0.7874015748031497,
          "duration": 4
        },
        {
          "name": "D3",
          "midi": 50,
          "time": 425,
          "velocity": 0.7874015748031497,
          "duration": 3.5
        },
        {
          "name": "F#3",
          "midi": 54,
          "time": 425.5,
          "velocity": 0.7874015748031497,
          "duration": 2
        },
        {
          "name": "A3",
          "midi": 57,
          "time": 426,
          "velocity": 0.7874015748031497,
          "duration": 1
        },
        {
          "name": "B3",
          "midi": 59,
          "time": 426.5,
          "velocity": 0.7874015748031497,
          "duration": 2
        },
        {
          "name": "A3",
          "midi": 57,
          "time": 427,
          "velocity": 0.7874015748031497,
          "duration": 1
        },
        {
          "name": "F#3",
          "midi": 54,
          "time": 427.5,
          "velocity": 0.7874015748031497,
          "duration": 1
        },
        {
          "name": "A3",
          "midi": 57,
          "time": 428,
          "velocity": 0.7874015748031497,
          "duration": 0.5
        },
        {
          "name": "E3",
          "midi": 52,
          "time": 428.5,
          "velocity": 0.7874015748031497,
          "duration": 3
        },
        {
          "name": "G#3",
          "midi": 56,
          "time": 429,
          "velocity": 0.7874015748031497,
          "duration": 2
        },
        {
          "name": "B3",
          "midi": 59,
          "time": 429.5,
          "velocity": 0.7874015748031497,
          "duration": 1
        },
        {
          "name": "E4",
          "midi": 64,
          "time": 430,
          "velocity": 0.7874015748031497,
          "duration": 2.5
        },
        {
          "name": "B3",
          "midi": 59,
          "time": 430.5,
          "velocity": 0.7874015748031497,
          "duration": 2
        },
        {
          "name": "G#3",
          "midi": 56,
          "time": 431,
          "velocity": 0.7874015748031497,
          "duration": 1
        },
        {
          "name": "E3",
          "midi": 52,
          "time": 431.5,
          "velocity": 0.7874015748031497,
          "duration": 1
        },
        {
          "name": "G#3",
          "midi": 56,
          "time": 432,
          "velocity": 0.7874015748031497,
          "duration": 0.5
        },
        {
          "name": "E3",
          "midi": 52,
          "time": 432.5,
          "velocity": 0.7874015748031497,
          "duration": 2
        },
        {
          "name": "G#3",
          "midi": 56,
          "time": 433,
          "velocity": 0.7874015748031497,
          "duration": 1
        },
        {
          "name": "B3",
          "midi": 59,
          "time": 433.5,
          "velocity": 0.7874015748031497,
          "duration": 3
        },
        {
          "name": "G#3",
          "midi": 56,
          "time": 434,
          "velocity": 0.7874015748031497,
          "duration": 1
        },
        {
          "name": "E3",
          "midi": 52,
          "time": 434.5,
          "velocity": 0.7874015748031497,
          "duration": 1
        },
        {
          "name": "G#3",
          "midi": 56,
          "time": 435,
          "velocity": 0.7874015748031497,
          "duration": 1
        },
        {
          "name": "E3",
          "midi": 52,
          "time": 435.5,
          "velocity": 0.7874015748031497,
          "duration": 1
        },
        {
          "name": "G#3",
          "midi": 56,
          "time": 436,
          "velocity": 0.7874015748031497,
          "duration": 0.5
        },
        {
          "name": "A2",
          "midi": 45,
          "time": 436.5,
          "velocity": 0.7874015748031497,
          "duration": 2
        },
        {
          "name": "C#3",
          "midi": 49,
          "time": 437,
          "velocity": 0.7874015748031497,
          "duration": 1
        },
        {
          "name": "E3",
          "midi": 52,
          "time": 437.5,
          "velocity": 0.7874015748031497,
          "duration": 2
        },
        {
          "name": "C#3",
          "midi": 49,
          "time": 438,
          "velocity": 0.7874015748031497,
          "duration": 1
        },
        {
          "name": "A2",
          "midi": 45,
          "time": 438.5,
          "velocity": 0.7874015748031497,
          "duration": 2
        },
        {
          "name": "C#3",
          "midi": 49,
          "time": 439,
          "velocity": 0.7874015748031497,
          "duration": 1
        },
        {
          "name": "E3",
          "midi": 52,
          "time": 439.5,
          "velocity": 0.7874015748031497,
          "duration": 1
        },
        {
          "name": "C#3",
          "midi": 49,
          "time": 440,
          "velocity": 0.7874015748031497,
          "duration": 0.5
        },
        {
          "name": "A2",
          "midi": 45,
          "time": 440.5,
          "velocity": 0.7874015748031497,
          "duration": 2
        },
        {
          "name": "C#3",
          "midi": 49,
          "time": 441,
          "velocity": 0.7874015748031497,
          "duration": 1
        },
        {
          "name": "E3",
          "midi": 52,
          "time": 441.5,
          "velocity": 0.7874015748031497,
          "duration": 2
        },
        {
          "name": "C#3",
          "midi": 49,
          "time": 442,
          "velocity": 0.7874015748031497,
          "duration": 1
        },
        {
          "name": "A2",
          "midi": 45,
          "time": 442.5,
          "velocity": 0.7874015748031497,
          "duration": 2
        },
        {
          "name": "C#3",
          "midi": 49,
          "time": 443,
          "velocity": 0.7874015748031497,
          "duration": 1
        },
        {
          "name": "E3",
          "midi": 52,
          "time": 443.5,
          "velocity": 0.7874015748031497,
          "duration": 1
        },
        {
          "name": "C#3",
          "midi": 49,
          "time": 444,
          "velocity": 0.7874015748031497,
          "duration": 0.5
        },
        {
          "name": "F#2",
          "midi": 42,
          "time": 444.5,
          "velocity": 0.7874015748031497,
          "duration": 3
        },
        {
          "name": "F#3",
          "midi": 54,
          "time": 445,
          "velocity": 0.7874015748031497,
          "duration": 0.5
        },
        {
          "name": "E3",
          "midi": 52,
          "time": 445.5,
          "velocity": 0.7874015748031497,
          "duration": 0.5
        },
        {
          "name": "C#3",
          "midi": 49,
          "time": 446,
          "velocity": 0.7874015748031497,
          "duration": 0.5
        },
        {
          "name": "B2",
          "midi": 47,
          "time": 446.5,
          "velocity": 0.7874015748031497,
          "duration": 0.5
        },
        {
          "name": "A2",
          "midi": 45,
          "time": 447,
          "velocity": 0.7874015748031497,
          "duration": 0.5
        },
        {
          "name": "F#2",
          "midi": 42,
          "time": 447.5,
          "velocity": 0.7874015748031497,
          "duration": 0.5
        },
        {
          "name": "E2",
          "midi": 40,
          "time": 448,
          "velocity": 0.7874015748031497,
          "duration": 0.5
        },
        {
          "name": "A#2",
          "midi": 46,
          "time": 448.5,
          "velocity": 0.7874015748031497,
          "duration": 1
        },
        {
          "name": "A#1",
          "midi": 34,
          "time": 448.5,
          "velocity": 0.7874015748031497,
          "duration": 3
        },
        {
          "name": "C#3",
          "midi": 49,
          "time": 449.5,
          "velocity": 0.7874015748031497,
          "duration": 1
        },
        {
          "name": "E3",
          "midi": 52,
          "time": 449.5,
          "velocity": 0.7874015748031497,
          "duration": 1
        },
        {
          "name": "F#3",
          "midi": 54,
          "time": 449.5,
          "velocity": 0.3228346456692913,
          "duration": 1
        },
        {
          "name": "C#4",
          "midi": 61,
          "time": 449.5,
          "velocity": 0.7874015748031497,
          "duration": 1
        },
        {
          "name": "E3",
          "midi": 52,
          "time": 450.5,
          "velocity": 0.7874015748031497,
          "duration": 1
        },
        {
          "name": "C#3",
          "midi": 49,
          "time": 450.5,
          "velocity": 0.7874015748031497,
          "duration": 1
        },
        {
          "name": "F#3",
          "midi": 54,
          "time": 450.5,
          "velocity": 0.31496062992125984,
          "duration": 1
        },
        {
          "name": "C#4",
          "midi": 61,
          "time": 450.5,
          "velocity": 0.7874015748031497,
          "duration": 1
        },
        {
          "name": "F#2",
          "midi": 42,
          "time": 451.5,
          "velocity": 0.7874015748031497,
          "duration": 1
        },
        {
          "name": "A2",
          "midi": 45,
          "time": 451.5,
          "velocity": 0.7874015748031497,
          "duration": 1
        },
        {
          "name": "B2",
          "midi": 47,
          "time": 452.5,
          "velocity": 0.7874015748031497,
          "duration": 4
        },
        {
          "name": "D3",
          "midi": 50,
          "time": 453,
          "velocity": 0.7874015748031497,
          "duration": 3
        },
        {
          "name": "F#3",
          "midi": 54,
          "time": 453.5,
          "velocity": 0.7874015748031497,
          "duration": 2
        },
        {
          "name": "A3",
          "midi": 57,
          "time": 454,
          "velocity": 0.7874015748031497,
          "duration": 1
        },
        {
          "name": "B3",
          "midi": 59,
          "time": 454.5,
          "velocity": 0.7874015748031497,
          "duration": 2
        },
        {
          "name": "A3",
          "midi": 57,
          "time": 455,
          "velocity": 0.7874015748031497,
          "duration": 1.5
        },
        {
          "name": "F#3",
          "midi": 54,
          "time": 455.5,
          "velocity": 0.7874015748031497,
          "duration": 1
        },
        {
          "name": "D3",
          "midi": 50,
          "time": 456,
          "velocity": 0.7874015748031497,
          "duration": 0.5
        },
        {
          "name": "B2",
          "midi": 47,
          "time": 456.5,
          "velocity": 0.7874015748031497,
          "duration": 4
        },
        {
          "name": "D3",
          "midi": 50,
          "time": 457,
          "velocity": 0.7874015748031497,
          "duration": 3.5
        },
        {
          "name": "F#3",
          "midi": 54,
          "time": 457.5,
          "velocity": 0.7874015748031497,
          "duration": 2
        },
        {
          "name": "A3",
          "midi": 57,
          "time": 458,
          "velocity": 0.7874015748031497,
          "duration": 1
        },
        {
          "name": "B3",
          "midi": 59,
          "time": 458.5,
          "velocity": 0.7874015748031497,
          "duration": 2
        },
        {
          "name": "A3",
          "midi": 57,
          "time": 459,
          "velocity": 0.7874015748031497,
          "duration": 1
        },
        {
          "name": "F#3",
          "midi": 54,
          "time": 459.5,
          "velocity": 0.7874015748031497,
          "duration": 1
        },
        {
          "name": "A3",
          "midi": 57,
          "time": 460,
          "velocity": 0.7874015748031497,
          "duration": 0.5
        },
        {
          "name": "E3",
          "midi": 52,
          "time": 460.5,
          "velocity": 0.7874015748031497,
          "duration": 3
        },
        {
          "name": "G#3",
          "midi": 56,
          "time": 461,
          "velocity": 0.7874015748031497,
          "duration": 2
        },
        {
          "name": "B3",
          "midi": 59,
          "time": 461.5,
          "velocity": 0.7874015748031497,
          "duration": 1
        },
        {
          "name": "E4",
          "midi": 64,
          "time": 462,
          "velocity": 0.7874015748031497,
          "duration": 2.5
        },
        {
          "name": "B3",
          "midi": 59,
          "time": 462.5,
          "velocity": 0.7874015748031497,
          "duration": 2
        },
        {
          "name": "G#3",
          "midi": 56,
          "time": 463,
          "velocity": 0.7874015748031497,
          "duration": 1
        },
        {
          "name": "E3",
          "midi": 52,
          "time": 463.5,
          "velocity": 0.7874015748031497,
          "duration": 1
        },
        {
          "name": "G#3",
          "midi": 56,
          "time": 464,
          "velocity": 0.7874015748031497,
          "duration": 0.5
        },
        {
          "name": "E3",
          "midi": 52,
          "time": 464.5,
          "velocity": 0.7874015748031497,
          "duration": 2
        },
        {
          "name": "G#3",
          "midi": 56,
          "time": 465,
          "velocity": 0.7874015748031497,
          "duration": 1
        },
        {
          "name": "B3",
          "midi": 59,
          "time": 465.5,
          "velocity": 0.7874015748031497,
          "duration": 3
        },
        {
          "name": "G#3",
          "midi": 56,
          "time": 466,
          "velocity": 0.7874015748031497,
          "duration": 1
        },
        {
          "name": "E3",
          "midi": 52,
          "time": 466.5,
          "velocity": 0.7874015748031497,
          "duration": 1
        },
        {
          "name": "G#3",
          "midi": 56,
          "time": 467,
          "velocity": 0.7874015748031497,
          "duration": 1
        },
        {
          "name": "E3",
          "midi": 52,
          "time": 467.5,
          "velocity": 0.7874015748031497,
          "duration": 1
        },
        {
          "name": "G#3",
          "midi": 56,
          "time": 468,
          "velocity": 0.7874015748031497,
          "duration": 0.5
        },
        {
          "name": "A2",
          "midi": 45,
          "time": 468.5,
          "velocity": 0.7874015748031497,
          "duration": 2
        },
        {
          "name": "C#3",
          "midi": 49,
          "time": 469,
          "velocity": 0.7874015748031497,
          "duration": 1
        },
        {
          "name": "E3",
          "midi": 52,
          "time": 469.5,
          "velocity": 0.7874015748031497,
          "duration": 2
        },
        {
          "name": "C#3",
          "midi": 49,
          "time": 470,
          "velocity": 0.7874015748031497,
          "duration": 1
        },
        {
          "name": "A2",
          "midi": 45,
          "time": 470.5,
          "velocity": 0.7874015748031497,
          "duration": 2
        },
        {
          "name": "C#3",
          "midi": 49,
          "time": 471,
          "velocity": 0.7874015748031497,
          "duration": 1
        },
        {
          "name": "E3",
          "midi": 52,
          "time": 471.5,
          "velocity": 0.7874015748031497,
          "duration": 1
        },
        {
          "name": "C#3",
          "midi": 49,
          "time": 472,
          "velocity": 0.7874015748031497,
          "duration": 0.5
        },
        {
          "name": "A2",
          "midi": 45,
          "time": 472.5,
          "velocity": 0.7874015748031497,
          "duration": 2
        },
        {
          "name": "C#3",
          "midi": 49,
          "time": 473,
          "velocity": 0.7874015748031497,
          "duration": 1
        },
        {
          "name": "E3",
          "midi": 52,
          "time": 473.5,
          "velocity": 0.7874015748031497,
          "duration": 2
        },
        {
          "name": "C#3",
          "midi": 49,
          "time": 474,
          "velocity": 0.7874015748031497,
          "duration": 1
        },
        {
          "name": "A2",
          "midi": 45,
          "time": 474.5,
          "velocity": 0.7874015748031497,
          "duration": 2
        },
        {
          "name": "C#3",
          "midi": 49,
          "time": 475,
          "velocity": 0.7874015748031497,
          "duration": 1
        },
        {
          "name": "E3",
          "midi": 52,
          "time": 475.5,
          "velocity": 0.7874015748031497,
          "duration": 1
        },
        {
          "name": "C#3",
          "midi": 49,
          "time": 476,
          "velocity": 0.7874015748031497,
          "duration": 0.5
        },
        {
          "name": "F#2",
          "midi": 42,
          "time": 476.5,
          "velocity": 0.7874015748031497,
          "duration": 3
        },
        {
          "name": "F#3",
          "midi": 54,
          "time": 477,
          "velocity": 0.7874015748031497,
          "duration": 0.5
        },
        {
          "name": "E3",
          "midi": 52,
          "time": 477.5,
          "velocity": 0.7874015748031497,
          "duration": 0.5
        },
        {
          "name": "C#3",
          "midi": 49,
          "time": 478,
          "velocity": 0.7874015748031497,
          "duration": 0.5
        },
        {
          "name": "B2",
          "midi": 47,
          "time": 478.5,
          "velocity": 0.7874015748031497,
          "duration": 0.5
        },
        {
          "name": "A2",
          "midi": 45,
          "time": 479,
          "velocity": 0.7874015748031497,
          "duration": 0.5
        },
        {
          "name": "F#2",
          "midi": 42,
          "time": 479.5,
          "velocity": 0.7874015748031497,
          "duration": 0.5
        },
        {
          "name": "E2",
          "midi": 40,
          "time": 480,
          "velocity": 0.7874015748031497,
          "duration": 0.5
        },
        {
          "name": "A#2",
          "midi": 46,
          "time": 480.5,
          "velocity": 0.7874015748031497,
          "duration": 1
        },
        {
          "name": "A#1",
          "midi": 34,
          "time": 480.5,
          "velocity": 0.7874015748031497,
          "duration": 3
        },
        {
          "name": "C#3",
          "midi": 49,
          "time": 481.5,
          "velocity": 0.7874015748031497,
          "duration": 1
        },
        {
          "name": "E3",
          "midi": 52,
          "time": 481.5,
          "velocity": 0.7874015748031497,
          "duration": 1
        },
        {
          "name": "C#4",
          "midi": 61,
          "time": 481.5,
          "velocity": 0.7874015748031497,
          "duration": 1
        },
        {
          "name": "E3",
          "midi": 52,
          "time": 482.5,
          "velocity": 0.7874015748031497,
          "duration": 1
        },
        {
          "name": "C#3",
          "midi": 49,
          "time": 482.5,
          "velocity": 0.7874015748031497,
          "duration": 1
        },
        {
          "name": "C#4",
          "midi": 61,
          "time": 482.5,
          "velocity": 0.7874015748031497,
          "duration": 1
        },
        {
          "name": "B2",
          "midi": 47,
          "time": 484.5,
          "velocity": 0.7874015748031497,
          "duration": 4
        },
        {
          "name": "D3",
          "midi": 50,
          "time": 485,
          "velocity": 0.7874015748031497,
          "duration": 3
        },
        {
          "name": "F#3",
          "midi": 54,
          "time": 485.5,
          "velocity": 0.7874015748031497,
          "duration": 2
        },
        {
          "name": "A3",
          "midi": 57,
          "time": 486,
          "velocity": 0.7874015748031497,
          "duration": 1
        },
        {
          "name": "B3",
          "midi": 59,
          "time": 486.5,
          "velocity": 0.7874015748031497,
          "duration": 2
        },
        {
          "name": "A3",
          "midi": 57,
          "time": 487,
          "velocity": 0.7874015748031497,
          "duration": 1.5
        },
        {
          "name": "F#3",
          "midi": 54,
          "time": 487.5,
          "velocity": 0.7874015748031497,
          "duration": 1
        },
        {
          "name": "D3",
          "midi": 50,
          "time": 488,
          "velocity": 0.7874015748031497,
          "duration": 0.5
        },
        {
          "name": "B2",
          "midi": 47,
          "time": 488.5,
          "velocity": 0.7874015748031497,
          "duration": 4
        },
        {
          "name": "D3",
          "midi": 50,
          "time": 489,
          "velocity": 0.7874015748031497,
          "duration": 3.5
        },
        {
          "name": "F#3",
          "midi": 54,
          "time": 489.5,
          "velocity": 0.7874015748031497,
          "duration": 2
        },
        {
          "name": "A3",
          "midi": 57,
          "time": 490,
          "velocity": 0.7874015748031497,
          "duration": 1
        },
        {
          "name": "B3",
          "midi": 59,
          "time": 490.5,
          "velocity": 0.7874015748031497,
          "duration": 2
        },
        {
          "name": "A3",
          "midi": 57,
          "time": 491,
          "velocity": 0.7874015748031497,
          "duration": 1
        },
        {
          "name": "F#3",
          "midi": 54,
          "time": 491.5,
          "velocity": 0.7874015748031497,
          "duration": 1
        },
        {
          "name": "A3",
          "midi": 57,
          "time": 492,
          "velocity": 0.7874015748031497,
          "duration": 0.5
        },
        {
          "name": "E3",
          "midi": 52,
          "time": 492.5,
          "velocity": 0.7874015748031497,
          "duration": 3
        },
        {
          "name": "G#3",
          "midi": 56,
          "time": 493,
          "velocity": 0.7874015748031497,
          "duration": 2
        },
        {
          "name": "B3",
          "midi": 59,
          "time": 493.5,
          "velocity": 0.7874015748031497,
          "duration": 1
        },
        {
          "name": "E4",
          "midi": 64,
          "time": 494,
          "velocity": 0.7874015748031497,
          "duration": 2.5
        },
        {
          "name": "B3",
          "midi": 59,
          "time": 494.5,
          "velocity": 0.7874015748031497,
          "duration": 2
        },
        {
          "name": "G#3",
          "midi": 56,
          "time": 495,
          "velocity": 0.7874015748031497,
          "duration": 1
        },
        {
          "name": "E3",
          "midi": 52,
          "time": 495.5,
          "velocity": 0.7874015748031497,
          "duration": 1
        },
        {
          "name": "G#3",
          "midi": 56,
          "time": 496,
          "velocity": 0.7874015748031497,
          "duration": 0.5
        },
        {
          "name": "E3",
          "midi": 52,
          "time": 496.5,
          "velocity": 0.7874015748031497,
          "duration": 2
        },
        {
          "name": "G#3",
          "midi": 56,
          "time": 497,
          "velocity": 0.7874015748031497,
          "duration": 1
        },
        {
          "name": "B3",
          "midi": 59,
          "time": 497.5,
          "velocity": 0.7874015748031497,
          "duration": 3
        },
        {
          "name": "G#3",
          "midi": 56,
          "time": 498,
          "velocity": 0.7874015748031497,
          "duration": 1
        },
        {
          "name": "E3",
          "midi": 52,
          "time": 498.5,
          "velocity": 0.7874015748031497,
          "duration": 1
        },
        {
          "name": "G#3",
          "midi": 56,
          "time": 499,
          "velocity": 0.7874015748031497,
          "duration": 1
        },
        {
          "name": "E3",
          "midi": 52,
          "time": 499.5,
          "velocity": 0.7874015748031497,
          "duration": 1
        },
        {
          "name": "G#3",
          "midi": 56,
          "time": 500,
          "velocity": 0.7874015748031497,
          "duration": 0.5
        },
        {
          "name": "A2",
          "midi": 45,
          "time": 500.5,
          "velocity": 0.7874015748031497,
          "duration": 2
        },
        {
          "name": "C#3",
          "midi": 49,
          "time": 501,
          "velocity": 0.7874015748031497,
          "duration": 1
        },
        {
          "name": "E3",
          "midi": 52,
          "time": 501.5,
          "velocity": 0.7874015748031497,
          "duration": 2
        },
        {
          "name": "C#3",
          "midi": 49,
          "time": 502,
          "velocity": 0.7874015748031497,
          "duration": 1
        },
        {
          "name": "A2",
          "midi": 45,
          "time": 502.5,
          "velocity": 0.7874015748031497,
          "duration": 2
        },
        {
          "name": "C#3",
          "midi": 49,
          "time": 503,
          "velocity": 0.7874015748031497,
          "duration": 1
        },
        {
          "name": "E3",
          "midi": 52,
          "time": 503.5,
          "velocity": 0.7874015748031497,
          "duration": 1
        },
        {
          "name": "C#3",
          "midi": 49,
          "time": 504,
          "velocity": 0.7874015748031497,
          "duration": 0.5
        },
        {
          "name": "A2",
          "midi": 45,
          "time": 504.5,
          "velocity": 0.7874015748031497,
          "duration": 2
        },
        {
          "name": "C#3",
          "midi": 49,
          "time": 505,
          "velocity": 0.7874015748031497,
          "duration": 1
        },
        {
          "name": "E3",
          "midi": 52,
          "time": 505.5,
          "velocity": 0.7874015748031497,
          "duration": 2
        },
        {
          "name": "C#3",
          "midi": 49,
          "time": 506,
          "velocity": 0.7874015748031497,
          "duration": 1
        },
        {
          "name": "A2",
          "midi": 45,
          "time": 506.5,
          "velocity": 0.7874015748031497,
          "duration": 2
        },
        {
          "name": "C#3",
          "midi": 49,
          "time": 507,
          "velocity": 0.7874015748031497,
          "duration": 1
        },
        {
          "name": "E3",
          "midi": 52,
          "time": 507.5,
          "velocity": 0.7874015748031497,
          "duration": 1
        },
        {
          "name": "C#3",
          "midi": 49,
          "time": 508,
          "velocity": 0.7874015748031497,
          "duration": 0.5
        },
        {
          "name": "F#2",
          "midi": 42,
          "time": 508.5,
          "velocity": 0.7874015748031497,
          "duration": 3
        },
        {
          "name": "F#3",
          "midi": 54,
          "time": 509,
          "velocity": 0.7874015748031497,
          "duration": 0.5
        },
        {
          "name": "E3",
          "midi": 52,
          "time": 509.5,
          "velocity": 0.7874015748031497,
          "duration": 0.5
        },
        {
          "name": "C#3",
          "midi": 49,
          "time": 510,
          "velocity": 0.7874015748031497,
          "duration": 0.5
        },
        {
          "name": "B2",
          "midi": 47,
          "time": 510.5,
          "velocity": 0.7874015748031497,
          "duration": 0.5
        },
        {
          "name": "A2",
          "midi": 45,
          "time": 511,
          "velocity": 0.7874015748031497,
          "duration": 0.5
        },
        {
          "name": "F#2",
          "midi": 42,
          "time": 511.5,
          "velocity": 0.7874015748031497,
          "duration": 0.5
        },
        {
          "name": "E2",
          "midi": 40,
          "time": 512,
          "velocity": 0.7874015748031497,
          "duration": 0.5
        },
        {
          "name": "A#2",
          "midi": 46,
          "time": 512.5,
          "velocity": 0.7874015748031497,
          "duration": 1
        },
        {
          "name": "A#1",
          "midi": 34,
          "time": 512.5,
          "velocity": 0.7874015748031497,
          "duration": 3
        },
        {
          "name": "C#6",
          "midi": 85,
          "time": 512.5,
          "velocity": 0.7874015748031497,
          "duration": 1
        },
        {
          "name": "C#3",
          "midi": 49,
          "time": 513.5,
          "velocity": 0.7874015748031497,
          "duration": 1
        },
        {
          "name": "E3",
          "midi": 52,
          "time": 513.5,
          "velocity": 0.7874015748031497,
          "duration": 1
        },
        {
          "name": "C#4",
          "midi": 61,
          "time": 513.5,
          "velocity": 0.7874015748031497,
          "duration": 1
        },
        {
          "name": "E6",
          "midi": 88,
          "time": 513.5,
          "velocity": 0.7874015748031497,
          "duration": 1
        },
        {
          "name": "E3",
          "midi": 52,
          "time": 514.5,
          "velocity": 0.7874015748031497,
          "duration": 1
        },
        {
          "name": "C#3",
          "midi": 49,
          "time": 514.5,
          "velocity": 0.7874015748031497,
          "duration": 1
        },
        {
          "name": "C#4",
          "midi": 61,
          "time": 514.5,
          "velocity": 0.7874015748031497,
          "duration": 1
        },
        {
          "name": "C#6",
          "midi": 85,
          "time": 514.5,
          "velocity": 0.7874015748031497,
          "duration": 2
        },
        {
          "name": "F#2",
          "midi": 42,
          "time": 515.5,
          "velocity": 0.7874015748031497,
          "duration": 1
        },
        {
          "name": "A2",
          "midi": 45,
          "time": 515.5,
          "velocity": 0.7874015748031497,
          "duration": 1
        },
        {
          "name": "B2",
          "midi": 47,
          "time": 516.5,
          "velocity": 0.7874015748031497,
          "duration": 4
        },
        {
          "name": "D3",
          "midi": 50,
          "time": 517,
          "velocity": 0.7874015748031497,
          "duration": 3
        },
        {
          "name": "F#3",
          "midi": 54,
          "time": 517.5,
          "velocity": 0.7874015748031497,
          "duration": 2
        },
        {
          "name": "A3",
          "midi": 57,
          "time": 518,
          "velocity": 0.7874015748031497,
          "duration": 1
        },
        {
          "name": "B3",
          "midi": 59,
          "time": 518.5,
          "velocity": 0.7874015748031497,
          "duration": 2
        },
        {
          "name": "A3",
          "midi": 57,
          "time": 519,
          "velocity": 0.7874015748031497,
          "duration": 1.5
        },
        {
          "name": "F#3",
          "midi": 54,
          "time": 519.5,
          "velocity": 0.7874015748031497,
          "duration": 1
        },
        {
          "name": "D3",
          "midi": 50,
          "time": 520,
          "velocity": 0.7874015748031497,
          "duration": 0.5
        },
        {
          "name": "B2",
          "midi": 47,
          "time": 520.5,
          "velocity": 0.7874015748031497,
          "duration": 4
        },
        {
          "name": "D3",
          "midi": 50,
          "time": 521,
          "velocity": 0.7874015748031497,
          "duration": 3.5
        },
        {
          "name": "F#3",
          "midi": 54,
          "time": 521.5,
          "velocity": 0.7874015748031497,
          "duration": 2
        },
        {
          "name": "A3",
          "midi": 57,
          "time": 522,
          "velocity": 0.7874015748031497,
          "duration": 1
        },
        {
          "name": "B3",
          "midi": 59,
          "time": 522.5,
          "velocity": 0.7874015748031497,
          "duration": 2
        },
        {
          "name": "A3",
          "midi": 57,
          "time": 523,
          "velocity": 0.7874015748031497,
          "duration": 1
        },
        {
          "name": "F#3",
          "midi": 54,
          "time": 523.5,
          "velocity": 0.7874015748031497,
          "duration": 1
        },
        {
          "name": "A3",
          "midi": 57,
          "time": 524,
          "velocity": 0.7874015748031497,
          "duration": 0.5
        },
        {
          "name": "E3",
          "midi": 52,
          "time": 524.5,
          "velocity": 0.7874015748031497,
          "duration": 3
        },
        {
          "name": "G#3",
          "midi": 56,
          "time": 525,
          "velocity": 0.7874015748031497,
          "duration": 2
        },
        {
          "name": "B3",
          "midi": 59,
          "time": 525.5,
          "velocity": 0.7874015748031497,
          "duration": 1
        },
        {
          "name": "E4",
          "midi": 64,
          "time": 526,
          "velocity": 0.7874015748031497,
          "duration": 2.5
        },
        {
          "name": "B3",
          "midi": 59,
          "time": 526.5,
          "velocity": 0.7874015748031497,
          "duration": 2
        },
        {
          "name": "G#3",
          "midi": 56,
          "time": 527,
          "velocity": 0.7874015748031497,
          "duration": 1
        },
        {
          "name": "E3",
          "midi": 52,
          "time": 527.5,
          "velocity": 0.7874015748031497,
          "duration": 1
        },
        {
          "name": "G#3",
          "midi": 56,
          "time": 528,
          "velocity": 0.7874015748031497,
          "duration": 0.5
        },
        {
          "name": "E3",
          "midi": 52,
          "time": 528.5,
          "velocity": 0.7874015748031497,
          "duration": 2
        },
        {
          "name": "G#3",
          "midi": 56,
          "time": 529,
          "velocity": 0.7874015748031497,
          "duration": 1
        },
        {
          "name": "B3",
          "midi": 59,
          "time": 529.5,
          "velocity": 0.7874015748031497,
          "duration": 3
        },
        {
          "name": "G#3",
          "midi": 56,
          "time": 530,
          "velocity": 0.7874015748031497,
          "duration": 1
        },
        {
          "name": "E3",
          "midi": 52,
          "time": 530.5,
          "velocity": 0.7874015748031497,
          "duration": 1
        },
        {
          "name": "G#3",
          "midi": 56,
          "time": 531,
          "velocity": 0.7874015748031497,
          "duration": 1
        },
        {
          "name": "E3",
          "midi": 52,
          "time": 531.5,
          "velocity": 0.7874015748031497,
          "duration": 1
        },
        {
          "name": "G#3",
          "midi": 56,
          "time": 532,
          "velocity": 0.7874015748031497,
          "duration": 0.5
        },
        {
          "name": "A2",
          "midi": 45,
          "time": 532.5,
          "velocity": 0.7874015748031497,
          "duration": 2
        },
        {
          "name": "C#3",
          "midi": 49,
          "time": 533,
          "velocity": 0.7874015748031497,
          "duration": 1
        },
        {
          "name": "E3",
          "midi": 52,
          "time": 533.5,
          "velocity": 0.7874015748031497,
          "duration": 2
        },
        {
          "name": "C#3",
          "midi": 49,
          "time": 534,
          "velocity": 0.7874015748031497,
          "duration": 1
        },
        {
          "name": "A2",
          "midi": 45,
          "time": 534.5,
          "velocity": 0.7874015748031497,
          "duration": 2
        },
        {
          "name": "C#3",
          "midi": 49,
          "time": 535,
          "velocity": 0.7874015748031497,
          "duration": 1
        },
        {
          "name": "E3",
          "midi": 52,
          "time": 535.5,
          "velocity": 0.7874015748031497,
          "duration": 1
        },
        {
          "name": "C#3",
          "midi": 49,
          "time": 536,
          "velocity": 0.7874015748031497,
          "duration": 0.5
        },
        {
          "name": "A2",
          "midi": 45,
          "time": 536.5,
          "velocity": 0.7874015748031497,
          "duration": 2
        },
        {
          "name": "C#3",
          "midi": 49,
          "time": 537,
          "velocity": 0.7874015748031497,
          "duration": 1
        },
        {
          "name": "E3",
          "midi": 52,
          "time": 537.5,
          "velocity": 0.7874015748031497,
          "duration": 2
        },
        {
          "name": "C#3",
          "midi": 49,
          "time": 538,
          "velocity": 0.7874015748031497,
          "duration": 1
        },
        {
          "name": "A2",
          "midi": 45,
          "time": 538.5,
          "velocity": 0.7874015748031497,
          "duration": 2
        },
        {
          "name": "C#3",
          "midi": 49,
          "time": 539,
          "velocity": 0.7874015748031497,
          "duration": 1
        },
        {
          "name": "E3",
          "midi": 52,
          "time": 539.5,
          "velocity": 0.7874015748031497,
          "duration": 1
        },
        {
          "name": "C#3",
          "midi": 49,
          "time": 540,
          "velocity": 0.7874015748031497,
          "duration": 0.5
        },
        {
          "name": "F#2",
          "midi": 42,
          "time": 540.5,
          "velocity": 0.7874015748031497,
          "duration": 3
        },
        {
          "name": "F#3",
          "midi": 54,
          "time": 541,
          "velocity": 0.7874015748031497,
          "duration": 0.5
        },
        {
          "name": "E3",
          "midi": 52,
          "time": 541.5,
          "velocity": 0.7874015748031497,
          "duration": 0.5
        },
        {
          "name": "C#3",
          "midi": 49,
          "time": 542,
          "velocity": 0.7874015748031497,
          "duration": 0.5
        },
        {
          "name": "B2",
          "midi": 47,
          "time": 542.5,
          "velocity": 0.7874015748031497,
          "duration": 0.5
        },
        {
          "name": "A2",
          "midi": 45,
          "time": 543,
          "velocity": 0.7874015748031497,
          "duration": 0.5
        },
        {
          "name": "F#2",
          "midi": 42,
          "time": 543.5,
          "velocity": 0.7874015748031497,
          "duration": 0.5
        },
        {
          "name": "E2",
          "midi": 40,
          "time": 544,
          "velocity": 0.7874015748031497,
          "duration": 0.5
        },
        {
          "name": "A#2",
          "midi": 46,
          "time": 544.5,
          "velocity": 0.7874015748031497,
          "duration": 1
        },
        {
          "name": "A#1",
          "midi": 34,
          "time": 544.5,
          "velocity": 0.7874015748031497,
          "duration": 3
        },
        {
          "name": "C#6",
          "midi": 85,
          "time": 544.5,
          "velocity": 0.7874015748031497,
          "duration": 1
        },
        {
          "name": "C#3",
          "midi": 49,
          "time": 545.5,
          "velocity": 0.7874015748031497,
          "duration": 1
        },
        {
          "name": "E3",
          "midi": 52,
          "time": 545.5,
          "velocity": 0.7874015748031497,
          "duration": 1
        },
        {
          "name": "C#4",
          "midi": 61,
          "time": 545.5,
          "velocity": 0.7874015748031497,
          "duration": 1
        },
        {
          "name": "E6",
          "midi": 88,
          "time": 545.5,
          "velocity": 0.7874015748031497,
          "duration": 1
        },
        {
          "name": "E3",
          "midi": 52,
          "time": 546.5,
          "velocity": 0.7874015748031497,
          "duration": 1
        },
        {
          "name": "C#3",
          "midi": 49,
          "time": 546.5,
          "velocity": 0.7874015748031497,
          "duration": 1
        },
        {
          "name": "C#4",
          "midi": 61,
          "time": 546.5,
          "velocity": 0.7874015748031497,
          "duration": 1
        },
        {
          "name": "C#6",
          "midi": 85,
          "time": 546.5,
          "velocity": 0.7874015748031497,
          "duration": 1
        }
      ],
      "controlChanges": {
        "1": [
          {
            "number": 1,
            "time": 0.40833333333333327,
            "value": 0
          }
        ],
        "6": [
          {
            "number": 6,
            "time": 0.4104166666666666,
            "value": 0.5039370078740157
          },
          {
            "number": 6,
            "time": 0.41874999999999996,
            "value": 0.5039370078740157
          },
          {
            "number": 6,
            "time": 0.42499999999999993,
            "value": 0.09448818897637795
          }
        ],
        "7": [
          {
            "number": 7,
            "time": 0.4020833333333333,
            "value": 0.7874015748031497
          }
        ],
        "10": [
          {
            "number": 10,
            "time": 0.39999999999999997,
            "value": 0.5039370078740157
          }
        ],
        "11": [
          {
            "number": 11,
            "time": 0.40624999999999994,
            "value": 1
          }
        ],
        "32": [
          {
            "number": 32,
            "time": 0.39375,
            "value": 0
          }
        ],
        "38": [
          {
            "number": 38,
            "time": 0.4104166666666666,
            "value": 0
          }
        ],
        "91": [
          {
            "number": 91,
            "time": 0.4041666666666666,
            "value": 0
          }
        ],
        "100": [
          {
            "number": 100,
            "time": 0.4104166666666666,
            "value": 0.007874015748031496
          },
          {
            "number": 100,
            "time": 0.41874999999999996,
            "value": 0.015748031496062992
          },
          {
            "number": 100,
            "time": 0.42499999999999993,
            "value": 0
          },
          {
            "number": 100,
            "time": 0.43333333333333324,
            "value": 1
          }
        ],
        "101": [
          {
            "number": 101,
            "time": 0.4104166666666666,
            "value": 0
          },
          {
            "number": 101,
            "time": 0.41874999999999996,
            "value": 0
          },
          {
            "number": 101,
            "time": 0.42499999999999993,
            "value": 0
          },
          {
            "number": 101,
            "time": 0.43333333333333324,
            "value": 1
          }
        ],
        "121": [
          {
            "number": 121,
            "time": 0.39166666666666666,
            "value": 0
          }
        ]
      },
      "id": 3,
      "name": "",
      "instrumentNumber": 0,
      "instrument": "acoustic grand piano",
      "instrumentFamily": "piano",
      "channelNumber": 1,
      "isPercussion": false
    },
    {
      "startTime": 36.5,
      "duration": 547.5,
      "length": 355,
      "notes": [
        {
          "name": "A#1",
          "midi": 34,
          "time": 36.5,
          "velocity": 0.7874015748031497,
          "duration": 8
        },
        {
          "name": "A#3",
          "midi": 58,
          "time": 36.5,
          "velocity": 0.7874015748031497,
          "duration": 3.5
        },
        {
          "name": "F3",
          "midi": 53,
          "time": 36.5,
          "velocity": 0.7874015748031497,
          "duration": 3.5
        },
        {
          "name": "F4",
          "midi": 65,
          "time": 40,
          "velocity": 0.7874015748031497,
          "duration": 4.5
        },
        {
          "name": "C#4",
          "midi": 61,
          "time": 40,
          "velocity": 0.7874015748031497,
          "duration": 4.5
        },
        {
          "name": "D#2",
          "midi": 39,
          "time": 44.5,
          "velocity": 0.7874015748031497,
          "duration": 8
        },
        {
          "name": "D#4",
          "midi": 63,
          "time": 44.5,
          "velocity": 0.7874015748031497,
          "duration": 3.5
        },
        {
          "name": "A#3",
          "midi": 58,
          "time": 44.5,
          "velocity": 0.7874015748031497,
          "duration": 3.5
        },
        {
          "name": "G4",
          "midi": 67,
          "time": 48,
          "velocity": 0.7874015748031497,
          "duration": 4.5
        },
        {
          "name": "D#4",
          "midi": 63,
          "time": 48,
          "velocity": 0.7874015748031497,
          "duration": 4.5
        },
        {
          "name": "C4",
          "midi": 60,
          "time": 52.5,
          "velocity": 0.7874015748031497,
          "duration": 3.5
        },
        {
          "name": "G#1",
          "midi": 32,
          "time": 52.5,
          "velocity": 0.7874015748031497,
          "duration": 8
        },
        {
          "name": "G#3",
          "midi": 56,
          "time": 52.5,
          "velocity": 0.7874015748031497,
          "duration": 3.5
        },
        {
          "name": "C4",
          "midi": 60,
          "time": 56,
          "velocity": 0.7874015748031497,
          "duration": 4.5
        },
        {
          "name": "D#4",
          "midi": 63,
          "time": 56,
          "velocity": 0.7874015748031497,
          "duration": 4.5
        },
        {
          "name": "F1",
          "midi": 29,
          "time": 60.5,
          "velocity": 0.7874015748031497,
          "duration": 4
        },
        {
          "name": "C4",
          "midi": 60,
          "time": 60.5,
          "velocity": 0.7874015748031497,
          "duration": 3.5
        },
        {
          "name": "F3",
          "midi": 53,
          "time": 60.5,
          "velocity": 0.7874015748031497,
          "duration": 3.5
        },
        {
          "name": "F4",
          "midi": 65,
          "time": 64,
          "velocity": 0.7874015748031497,
          "duration": 4.5
        },
        {
          "name": "C4",
          "midi": 60,
          "time": 64,
          "velocity": 0.7874015748031497,
          "duration": 4.5
        },
        {
          "name": "A1",
          "midi": 33,
          "time": 64.5,
          "velocity": 0.7874015748031497,
          "duration": 4
        },
        {
          "name": "A#1",
          "midi": 34,
          "time": 68.5,
          "velocity": 0.7874015748031497,
          "duration": 8
        },
        {
          "name": "A#3",
          "midi": 58,
          "time": 68.5,
          "velocity": 0.7874015748031497,
          "duration": 3.5
        },
        {
          "name": "F3",
          "midi": 53,
          "time": 68.5,
          "velocity": 0.7874015748031497,
          "duration": 3.5
        },
        {
          "name": "F4",
          "midi": 65,
          "time": 72,
          "velocity": 0.7874015748031497,
          "duration": 4.5
        },
        {
          "name": "C#4",
          "midi": 61,
          "time": 72,
          "velocity": 0.7874015748031497,
          "duration": 4.5
        },
        {
          "name": "D#2",
          "midi": 39,
          "time": 76.5,
          "velocity": 0.7874015748031497,
          "duration": 8
        },
        {
          "name": "D#4",
          "midi": 63,
          "time": 76.5,
          "velocity": 0.7874015748031497,
          "duration": 3.5
        },
        {
          "name": "A#3",
          "midi": 58,
          "time": 76.5,
          "velocity": 0.7874015748031497,
          "duration": 3.5
        },
        {
          "name": "G4",
          "midi": 67,
          "time": 80,
          "velocity": 0.7874015748031497,
          "duration": 4.5
        },
        {
          "name": "D#4",
          "midi": 63,
          "time": 80,
          "velocity": 0.7874015748031497,
          "duration": 4.5
        },
        {
          "name": "C4",
          "midi": 60,
          "time": 84.5,
          "velocity": 0.7874015748031497,
          "duration": 3.5
        },
        {
          "name": "G#1",
          "midi": 32,
          "time": 84.5,
          "velocity": 0.7874015748031497,
          "duration": 8
        },
        {
          "name": "G#3",
          "midi": 56,
          "time": 84.5,
          "velocity": 0.7874015748031497,
          "duration": 3.5
        },
        {
          "name": "C4",
          "midi": 60,
          "time": 88,
          "velocity": 0.7874015748031497,
          "duration": 4.5
        },
        {
          "name": "D#4",
          "midi": 63,
          "time": 88,
          "velocity": 0.7874015748031497,
          "duration": 4.5
        },
        {
          "name": "F1",
          "midi": 29,
          "time": 92.5,
          "velocity": 0.7874015748031497,
          "duration": 8
        },
        {
          "name": "F4",
          "midi": 65,
          "time": 92.5,
          "velocity": 0.7874015748031497,
          "duration": 8
        },
        {
          "name": "C4",
          "midi": 60,
          "time": 92.5,
          "velocity": 0.7874015748031497,
          "duration": 8
        },
        {
          "name": "D#2",
          "midi": 39,
          "time": 100.5,
          "velocity": 0.4881889763779528,
          "duration": 3.5
        },
        {
          "name": "A#3",
          "midi": 58,
          "time": 104,
          "velocity": 0.4881889763779528,
          "duration": 4.5
        },
        {
          "name": "F#3",
          "midi": 54,
          "time": 104,
          "velocity": 0.4881889763779528,
          "duration": 4.5
        },
        {
          "name": "C#2",
          "midi": 37,
          "time": 108.5,
          "velocity": 0.4881889763779528,
          "duration": 3.5
        },
        {
          "name": "F3",
          "midi": 53,
          "time": 112,
          "velocity": 0.4881889763779528,
          "duration": 4.5
        },
        {
          "name": "G#3",
          "midi": 56,
          "time": 112,
          "velocity": 0.4881889763779528,
          "duration": 4.5
        },
        {
          "name": "B3",
          "midi": 59,
          "time": 112,
          "velocity": 0.4881889763779528,
          "duration": 4.5
        },
        {
          "name": "C#3",
          "midi": 49,
          "time": 116.5,
          "velocity": 0.4881889763779528,
          "duration": 3.5
        },
        {
          "name": "A#2",
          "midi": 46,
          "time": 116.5,
          "velocity": 0.4881889763779528,
          "duration": 3.5
        },
        {
          "name": "C#4",
          "midi": 61,
          "time": 120,
          "velocity": 0.4881889763779528,
          "duration": 2
        },
        {
          "name": "A#3",
          "midi": 58,
          "time": 120,
          "velocity": 0.4881889763779528,
          "duration": 2
        },
        {
          "name": "F#3",
          "midi": 54,
          "time": 120,
          "velocity": 0.4881889763779528,
          "duration": 1
        },
        {
          "name": "A#2",
          "midi": 46,
          "time": 120,
          "velocity": 0.4881889763779528,
          "duration": 4.5
        },
        {
          "name": "B3",
          "midi": 59,
          "time": 121,
          "velocity": 0.4881889763779528,
          "duration": 1
        },
        {
          "name": "G#3",
          "midi": 56,
          "time": 121,
          "velocity": 0.4881889763779528,
          "duration": 1
        },
        {
          "name": "F#3",
          "midi": 54,
          "time": 121,
          "velocity": 0.4881889763779528,
          "duration": 1
        },
        {
          "name": "G#2",
          "midi": 44,
          "time": 121,
          "velocity": 0.4881889763779528,
          "duration": 1
        },
        {
          "name": "B2",
          "midi": 47,
          "time": 121,
          "velocity": 0.4881889763779528,
          "duration": 1
        },
        {
          "name": "C#4",
          "midi": 61,
          "time": 122,
          "velocity": 0.4881889763779528,
          "duration": 0.5
        },
        {
          "name": "F#3",
          "midi": 54,
          "time": 122,
          "velocity": 0.4881889763779528,
          "duration": 0.5
        },
        {
          "name": "A#3",
          "midi": 58,
          "time": 122,
          "velocity": 0.4881889763779528,
          "duration": 0.5
        },
        {
          "name": "C#3",
          "midi": 49,
          "time": 122,
          "velocity": 0.4881889763779528,
          "duration": 0.5
        },
        {
          "name": "D#4",
          "midi": 63,
          "time": 122.5,
          "velocity": 0.4881889763779528,
          "duration": 2
        },
        {
          "name": "B3",
          "midi": 59,
          "time": 122.5,
          "velocity": 0.4881889763779528,
          "duration": 2
        },
        {
          "name": "F#3",
          "midi": 54,
          "time": 122.5,
          "velocity": 0.4881889763779528,
          "duration": 2
        },
        {
          "name": "C#3",
          "midi": 49,
          "time": 122.5,
          "velocity": 0.4881889763779528,
          "duration": 2
        },
        {
          "name": "C#3",
          "midi": 49,
          "time": 124.5,
          "velocity": 0.4881889763779528,
          "duration": 3.5
        },
        {
          "name": "F#3",
          "midi": 54,
          "time": 124.5,
          "velocity": 0.4881889763779528,
          "duration": 3.5
        },
        {
          "name": "A#3",
          "midi": 58,
          "time": 128,
          "velocity": 0.4881889763779528,
          "duration": 4.5
        },
        {
          "name": "D#4",
          "midi": 63,
          "time": 128,
          "velocity": 0.4881889763779528,
          "duration": 4.5
        },
        {
          "name": "A#2",
          "midi": 46,
          "time": 132.5,
          "velocity": 0.4881889763779528,
          "duration": 3.5
        },
        {
          "name": "F#2",
          "midi": 42,
          "time": 132.5,
          "velocity": 0.4881889763779528,
          "duration": 3.5
        },
        {
          "name": "F#3",
          "midi": 54,
          "time": 136,
          "velocity": 0.4881889763779528,
          "duration": 4.5
        },
        {
          "name": "A#3",
          "midi": 58,
          "time": 136,
          "velocity": 0.4881889763779528,
          "duration": 4.5
        },
        {
          "name": "C#4",
          "midi": 61,
          "time": 136,
          "velocity": 0.4881889763779528,
          "duration": 4.5
        },
        {
          "name": "D#3",
          "midi": 51,
          "time": 136,
          "velocity": 0.4881889763779528,
          "duration": 4.5
        },
        {
          "name": "F#4",
          "midi": 66,
          "time": 136,
          "velocity": 0.4881889763779528,
          "duration": 4.5
        },
        {
          "name": "G#2",
          "midi": 44,
          "time": 140.5,
          "velocity": 0.4881889763779528,
          "duration": 3.5
        },
        {
          "name": "F2",
          "midi": 41,
          "time": 140.5,
          "velocity": 0.4881889763779528,
          "duration": 3.5
        },
        {
          "name": "C#4",
          "midi": 61,
          "time": 144,
          "velocity": 0.4881889763779528,
          "duration": 0.5
        },
        {
          "name": "F#4",
          "midi": 66,
          "time": 144,
          "velocity": 0.4881889763779528,
          "duration": 0.5
        },
        {
          "name": "G#3",
          "midi": 56,
          "time": 144,
          "velocity": 0.4881889763779528,
          "duration": 0.5
        },
        {
          "name": "F#3",
          "midi": 54,
          "time": 144,
          "velocity": 0.4881889763779528,
          "duration": 0.5
        },
        {
          "name": "F4",
          "midi": 65,
          "time": 144,
          "velocity": 0.4881889763779528,
          "duration": 0.5
        },
        {
          "name": "A#3",
          "midi": 58,
          "time": 144,
          "velocity": 0.4881889763779528,
          "duration": 2
        },
        {
          "name": "G#4",
          "midi": 68,
          "time": 145,
          "velocity": 0.4881889763779528,
          "duration": 0.5
        },
        {
          "name": "F#4",
          "midi": 66,
          "time": 145,
          "velocity": 0.4881889763779528,
          "duration": 0.5
        },
        {
          "name": "D4",
          "midi": 62,
          "time": 145,
          "velocity": 0.4881889763779528,
          "duration": 0.5
        },
        {
          "name": "B3",
          "midi": 59,
          "time": 145,
          "velocity": 0.4881889763779528,
          "duration": 0.5
        },
        {
          "name": "G#3",
          "midi": 56,
          "time": 145,
          "velocity": 0.4881889763779528,
          "duration": 0.5
        },
        {
          "name": "F#3",
          "midi": 54,
          "time": 145,
          "velocity": 0.4881889763779528,
          "duration": 0.5
        },
        {
          "name": "F#4",
          "midi": 66,
          "time": 146,
          "velocity": 0.4881889763779528,
          "duration": 0.5
        },
        {
          "name": "C#4",
          "midi": 61,
          "time": 146,
          "velocity": 0.4881889763779528,
          "duration": 0.5
        },
        {
          "name": "A#3",
          "midi": 58,
          "time": 146,
          "velocity": 0.4881889763779528,
          "duration": 0.5
        },
        {
          "name": "F#3",
          "midi": 54,
          "time": 146,
          "velocity": 0.4881889763779528,
          "duration": 0.5
        },
        {
          "name": "G#3",
          "midi": 56,
          "time": 146.5,
          "velocity": 0.4881889763779528,
          "duration": 2
        },
        {
          "name": "A#3",
          "midi": 58,
          "time": 146.5,
          "velocity": 0.4881889763779528,
          "duration": 2
        },
        {
          "name": "C#4",
          "midi": 61,
          "time": 146.5,
          "velocity": 0.4881889763779528,
          "duration": 2
        },
        {
          "name": "F#4",
          "midi": 66,
          "time": 146.5,
          "velocity": 0.4881889763779528,
          "duration": 2
        },
        {
          "name": "G#4",
          "midi": 68,
          "time": 146.5,
          "velocity": 0.4881889763779528,
          "duration": 2
        },
        {
          "name": "C#3",
          "midi": 49,
          "time": 148.5,
          "velocity": 0.4881889763779528,
          "duration": 3.5
        },
        {
          "name": "F#3",
          "midi": 54,
          "time": 148.5,
          "velocity": 0.4881889763779528,
          "duration": 3.5
        },
        {
          "name": "G#3",
          "midi": 56,
          "time": 148.5,
          "velocity": 0.4881889763779528,
          "duration": 3.5
        },
        {
          "name": "C#4",
          "midi": 61,
          "time": 152,
          "velocity": 0.4881889763779528,
          "duration": 4.5
        },
        {
          "name": "F#4",
          "midi": 66,
          "time": 152,
          "velocity": 0.4881889763779528,
          "duration": 4.5
        },
        {
          "name": "F#5",
          "midi": 78,
          "time": 152,
          "velocity": 0.4881889763779528,
          "duration": 4.5
        },
        {
          "name": "A#4",
          "midi": 70,
          "time": 152,
          "velocity": 0.4881889763779528,
          "duration": 4.5
        },
        {
          "name": "A#3",
          "midi": 58,
          "time": 156.5,
          "velocity": 0.4881889763779528,
          "duration": 8
        },
        {
          "name": "D#5",
          "midi": 75,
          "time": 156.5,
          "velocity": 0.4881889763779528,
          "duration": 8
        },
        {
          "name": "D#3",
          "midi": 51,
          "time": 164.5,
          "velocity": 0.6377952755905512,
          "duration": 3.5
        },
        {
          "name": "A#4",
          "midi": 70,
          "time": 168,
          "velocity": 0.6377952755905512,
          "duration": 4.5
        },
        {
          "name": "D#4",
          "midi": 63,
          "time": 168,
          "velocity": 0.6377952755905512,
          "duration": 4.5
        },
        {
          "name": "C#3",
          "midi": 49,
          "time": 172.5,
          "velocity": 0.6377952755905512,
          "duration": 3.5
        },
        {
          "name": "C#4",
          "midi": 61,
          "time": 176,
          "velocity": 0.6377952755905512,
          "duration": 4.5
        },
        {
          "name": "F4",
          "midi": 65,
          "time": 176,
          "velocity": 0.6377952755905512,
          "duration": 4.5
        },
        {
          "name": "F#2",
          "midi": 42,
          "time": 180.5,
          "velocity": 0.6377952755905512,
          "duration": 3.5
        },
        {
          "name": "C#4",
          "midi": 61,
          "time": 184,
          "velocity": 0.6377952755905512,
          "duration": 4.5
        },
        {
          "name": "F4",
          "midi": 65,
          "time": 184,
          "velocity": 0.6377952755905512,
          "duration": 4.5
        },
        {
          "name": "D#3",
          "midi": 51,
          "time": 188.5,
          "velocity": 0.6377952755905512,
          "duration": 3.5
        },
        {
          "name": "D#4",
          "midi": 63,
          "time": 192,
          "velocity": 0.6377952755905512,
          "duration": 4.5
        },
        {
          "name": "G4",
          "midi": 67,
          "time": 192,
          "velocity": 0.6377952755905512,
          "duration": 4.5
        },
        {
          "name": "B2",
          "midi": 47,
          "time": 196.5,
          "velocity": 0.6377952755905512,
          "duration": 3.5
        },
        {
          "name": "D#4",
          "midi": 63,
          "time": 200,
          "velocity": 0.6377952755905512,
          "duration": 4.5
        },
        {
          "name": "B3",
          "midi": 59,
          "time": 200,
          "velocity": 0.6377952755905512,
          "duration": 4.5
        },
        {
          "name": "F#4",
          "midi": 66,
          "time": 200,
          "velocity": 0.6377952755905512,
          "duration": 4.5
        },
        {
          "name": "C#3",
          "midi": 49,
          "time": 204.5,
          "velocity": 0.6377952755905512,
          "duration": 3.5
        },
        {
          "name": "G#3",
          "midi": 56,
          "time": 207,
          "velocity": 0.6377952755905512,
          "duration": 4.5
        },
        {
          "name": "C#4",
          "midi": 61,
          "time": 208,
          "velocity": 0.6377952755905512,
          "duration": 4.5
        },
        {
          "name": "F#4",
          "midi": 66,
          "time": 208,
          "velocity": 0.6377952755905512,
          "duration": 4.5
        },
        {
          "name": "D4",
          "midi": 62,
          "time": 208,
          "velocity": 0.6377952755905512,
          "duration": 4.5
        },
        {
          "name": "F#3",
          "midi": 54,
          "time": 212.5,
          "velocity": 0.6377952755905512,
          "duration": 3.5
        },
        {
          "name": "C#4",
          "midi": 61,
          "time": 216,
          "velocity": 0.6377952755905512,
          "duration": 4.5
        },
        {
          "name": "F#4",
          "midi": 66,
          "time": 216,
          "velocity": 0.6377952755905512,
          "duration": 4.5
        },
        {
          "name": "D#3",
          "midi": 51,
          "time": 220.5,
          "velocity": 0.6377952755905512,
          "duration": 4
        },
        {
          "name": "A#4",
          "midi": 70,
          "time": 220.5,
          "velocity": 0.6377952755905512,
          "duration": 4
        },
        {
          "name": "D#4",
          "midi": 63,
          "time": 220.5,
          "velocity": 0.6377952755905512,
          "duration": 4
        },
        {
          "name": "G#4",
          "midi": 68,
          "time": 224.5,
          "velocity": 0.33070866141732286,
          "duration": 0.5
        },
        {
          "name": "A#4",
          "midi": 70,
          "time": 225,
          "velocity": 0.33858267716535434,
          "duration": 0.5
        },
        {
          "name": "G#4",
          "midi": 68,
          "time": 225.5,
          "velocity": 0.33858267716535434,
          "duration": 0.5
        },
        {
          "name": "F#4",
          "midi": 66,
          "time": 226,
          "velocity": 0.3464566929133858,
          "duration": 0.5
        },
        {
          "name": "D#4",
          "midi": 63,
          "time": 226.5,
          "velocity": 0.3464566929133858,
          "duration": 0.5
        },
        {
          "name": "A#1",
          "midi": 34,
          "time": 228.5,
          "velocity": 0.7874015748031497,
          "duration": 8
        },
        {
          "name": "A#3",
          "midi": 58,
          "time": 228.5,
          "velocity": 0.7874015748031497,
          "duration": 3.5
        },
        {
          "name": "F3",
          "midi": 53,
          "time": 228.5,
          "velocity": 0.7874015748031497,
          "duration": 3.5
        },
        {
          "name": "F4",
          "midi": 65,
          "time": 232,
          "velocity": 0.7874015748031497,
          "duration": 4.5
        },
        {
          "name": "C#4",
          "midi": 61,
          "time": 232,
          "velocity": 0.7874015748031497,
          "duration": 4.5
        },
        {
          "name": "D#2",
          "midi": 39,
          "time": 236.5,
          "velocity": 0.7874015748031497,
          "duration": 8
        },
        {
          "name": "D#4",
          "midi": 63,
          "time": 236.5,
          "velocity": 0.7874015748031497,
          "duration": 3.5
        },
        {
          "name": "A#3",
          "midi": 58,
          "time": 236.5,
          "velocity": 0.7874015748031497,
          "duration": 3.5
        },
        {
          "name": "G4",
          "midi": 67,
          "time": 240,
          "velocity": 0.7874015748031497,
          "duration": 4.5
        },
        {
          "name": "D#4",
          "midi": 63,
          "time": 240,
          "velocity": 0.7874015748031497,
          "duration": 4.5
        },
        {
          "name": "C4",
          "midi": 60,
          "time": 244.5,
          "velocity": 0.7874015748031497,
          "duration": 3.5
        },
        {
          "name": "G#1",
          "midi": 32,
          "time": 244.5,
          "velocity": 0.7874015748031497,
          "duration": 8
        },
        {
          "name": "G#3",
          "midi": 56,
          "time": 244.5,
          "velocity": 0.7874015748031497,
          "duration": 3.5
        },
        {
          "name": "C4",
          "midi": 60,
          "time": 248,
          "velocity": 0.7874015748031497,
          "duration": 4.5
        },
        {
          "name": "D#4",
          "midi": 63,
          "time": 248,
          "velocity": 0.7874015748031497,
          "duration": 4.5
        },
        {
          "name": "F1",
          "midi": 29,
          "time": 252.5,
          "velocity": 0.7874015748031497,
          "duration": 4
        },
        {
          "name": "C4",
          "midi": 60,
          "time": 252.5,
          "velocity": 0.7874015748031497,
          "duration": 3.5
        },
        {
          "name": "F3",
          "midi": 53,
          "time": 252.5,
          "velocity": 0.7874015748031497,
          "duration": 3.5
        },
        {
          "name": "F4",
          "midi": 65,
          "time": 256,
          "velocity": 0.7874015748031497,
          "duration": 4.5
        },
        {
          "name": "C4",
          "midi": 60,
          "time": 256,
          "velocity": 0.7874015748031497,
          "duration": 4.5
        },
        {
          "name": "A1",
          "midi": 33,
          "time": 256.5,
          "velocity": 0.7874015748031497,
          "duration": 4
        },
        {
          "name": "A#1",
          "midi": 34,
          "time": 260.5,
          "velocity": 0.7874015748031497,
          "duration": 8
        },
        {
          "name": "A#3",
          "midi": 58,
          "time": 260.5,
          "velocity": 0.7874015748031497,
          "duration": 3.5
        },
        {
          "name": "F3",
          "midi": 53,
          "time": 260.5,
          "velocity": 0.7874015748031497,
          "duration": 3.5
        },
        {
          "name": "F4",
          "midi": 65,
          "time": 264,
          "velocity": 0.7874015748031497,
          "duration": 4.5
        },
        {
          "name": "C#4",
          "midi": 61,
          "time": 264,
          "velocity": 0.7874015748031497,
          "duration": 4.5
        },
        {
          "name": "D#2",
          "midi": 39,
          "time": 268.5,
          "velocity": 0.7874015748031497,
          "duration": 8
        },
        {
          "name": "D#4",
          "midi": 63,
          "time": 268.5,
          "velocity": 0.7874015748031497,
          "duration": 3.5
        },
        {
          "name": "A#3",
          "midi": 58,
          "time": 268.5,
          "velocity": 0.7874015748031497,
          "duration": 3.5
        },
        {
          "name": "G4",
          "midi": 67,
          "time": 272,
          "velocity": 0.7874015748031497,
          "duration": 4.5
        },
        {
          "name": "D#4",
          "midi": 63,
          "time": 272,
          "velocity": 0.7874015748031497,
          "duration": 4.5
        },
        {
          "name": "C4",
          "midi": 60,
          "time": 276.5,
          "velocity": 0.7874015748031497,
          "duration": 3.5
        },
        {
          "name": "G#1",
          "midi": 32,
          "time": 276.5,
          "velocity": 0.7874015748031497,
          "duration": 8
        },
        {
          "name": "G#3",
          "midi": 56,
          "time": 276.5,
          "velocity": 0.7874015748031497,
          "duration": 3.5
        },
        {
          "name": "C4",
          "midi": 60,
          "time": 280,
          "velocity": 0.7874015748031497,
          "duration": 4.5
        },
        {
          "name": "D#4",
          "midi": 63,
          "time": 280,
          "velocity": 0.7874015748031497,
          "duration": 4.5
        },
        {
          "name": "F1",
          "midi": 29,
          "time": 284.5,
          "velocity": 0.7874015748031497,
          "duration": 8
        },
        {
          "name": "F4",
          "midi": 65,
          "time": 284.5,
          "velocity": 0.7874015748031497,
          "duration": 8
        },
        {
          "name": "C4",
          "midi": 60,
          "time": 284.5,
          "velocity": 0.7874015748031497,
          "duration": 8
        },
        {
          "name": "A#1",
          "midi": 34,
          "time": 292.5,
          "velocity": 0.7874015748031497,
          "duration": 8
        },
        {
          "name": "A#3",
          "midi": 58,
          "time": 292.5,
          "velocity": 0.5590551181102362,
          "duration": 1
        },
        {
          "name": "F4",
          "midi": 65,
          "time": 292.5,
          "velocity": 0.5590551181102362,
          "duration": 1
        },
        {
          "name": "C#3",
          "midi": 49,
          "time": 292.5,
          "velocity": 0.5590551181102362,
          "duration": 1
        },
        {
          "name": "F4",
          "midi": 65,
          "time": 293.5,
          "velocity": 0.5511811023622047,
          "duration": 1
        },
        {
          "name": "A#3",
          "midi": 58,
          "time": 293.5,
          "velocity": 0.5511811023622047,
          "duration": 1
        },
        {
          "name": "C#3",
          "midi": 49,
          "time": 293.5,
          "velocity": 0.5511811023622047,
          "duration": 1
        },
        {
          "name": "F4",
          "midi": 65,
          "time": 294.5,
          "velocity": 0.5433070866141733,
          "duration": 0.5
        },
        {
          "name": "A#3",
          "midi": 58,
          "time": 294.5,
          "velocity": 0.5433070866141733,
          "duration": 0.5
        },
        {
          "name": "C#3",
          "midi": 49,
          "time": 294.5,
          "velocity": 0.5433070866141733,
          "duration": 0.5
        },
        {
          "name": "F4",
          "midi": 65,
          "time": 295,
          "velocity": 0.5433070866141733,
          "duration": 1
        },
        {
          "name": "A#3",
          "midi": 58,
          "time": 295,
          "velocity": 0.5433070866141733,
          "duration": 1
        },
        {
          "name": "C#3",
          "midi": 49,
          "time": 295,
          "velocity": 0.5433070866141733,
          "duration": 1
        },
        {
          "name": "F4",
          "midi": 65,
          "time": 296,
          "velocity": 0.5354330708661418,
          "duration": 4.5
        },
        {
          "name": "C#3",
          "midi": 49,
          "time": 296,
          "velocity": 0.5354330708661418,
          "duration": 4.5
        },
        {
          "name": "A#3",
          "midi": 58,
          "time": 296,
          "velocity": 0.5354330708661418,
          "duration": 4.5
        },
        {
          "name": "D#2",
          "midi": 39,
          "time": 300.5,
          "velocity": 0.7874015748031497,
          "duration": 8
        },
        {
          "name": "D#3",
          "midi": 51,
          "time": 300.5,
          "velocity": 0.7874015748031497,
          "duration": 3.5
        },
        {
          "name": "A#2",
          "midi": 46,
          "time": 300.5,
          "velocity": 0.7874015748031497,
          "duration": 3.5
        },
        {
          "name": "D#4",
          "midi": 63,
          "time": 304,
          "velocity": 0.7874015748031497,
          "duration": 4.5
        },
        {
          "name": "G4",
          "midi": 67,
          "time": 304,
          "velocity": 0.7874015748031497,
          "duration": 4.5
        },
        {
          "name": "G#2",
          "midi": 44,
          "time": 308.5,
          "velocity": 0.7874015748031497,
          "duration": 8
        },
        {
          "name": "C4",
          "midi": 60,
          "time": 308.5,
          "velocity": 0.7874015748031497,
          "duration": 3.5
        },
        {
          "name": "G#3",
          "midi": 56,
          "time": 308.5,
          "velocity": 0.7874015748031497,
          "duration": 3.5
        },
        {
          "name": "G#4",
          "midi": 68,
          "time": 312,
          "velocity": 0.7874015748031497,
          "duration": 4.5
        },
        {
          "name": "D#4",
          "midi": 63,
          "time": 312,
          "velocity": 0.7874015748031497,
          "duration": 4.5
        },
        {
          "name": "F2",
          "midi": 41,
          "time": 316.5,
          "velocity": 0.7874015748031497,
          "duration": 8
        },
        {
          "name": "C4",
          "midi": 60,
          "time": 316.5,
          "velocity": 0.7874015748031497,
          "duration": 3.5
        },
        {
          "name": "F4",
          "midi": 65,
          "time": 316.5,
          "velocity": 0.7874015748031497,
          "duration": 3.5
        },
        {
          "name": "F5",
          "midi": 77,
          "time": 320,
          "velocity": 0.7874015748031497,
          "duration": 4.5
        },
        {
          "name": "C4",
          "midi": 60,
          "time": 320,
          "velocity": 0.7874015748031497,
          "duration": 4.5
        },
        {
          "name": "D#4",
          "midi": 63,
          "time": 320,
          "velocity": 0.7874015748031497,
          "duration": 4.5
        },
        {
          "name": "A#1",
          "midi": 34,
          "time": 324.5,
          "velocity": 0.7874015748031497,
          "duration": 8
        },
        {
          "name": "A#3",
          "midi": 58,
          "time": 324.5,
          "velocity": 0.7874015748031497,
          "duration": 3.5
        },
        {
          "name": "F4",
          "midi": 65,
          "time": 324.5,
          "velocity": 0.7874015748031497,
          "duration": 3.5
        },
        {
          "name": "C#5",
          "midi": 73,
          "time": 328,
          "velocity": 0.7874015748031497,
          "duration": 4.5
        },
        {
          "name": "A#4",
          "midi": 70,
          "time": 328,
          "velocity": 0.7874015748031497,
          "duration": 4.5
        },
        {
          "name": "D#2",
          "midi": 39,
          "time": 332.5,
          "velocity": 0.7874015748031497,
          "duration": 8
        },
        {
          "name": "D#4",
          "midi": 63,
          "time": 332.5,
          "velocity": 0.7874015748031497,
          "duration": 3.5
        },
        {
          "name": "A#3",
          "midi": 58,
          "time": 332.5,
          "velocity": 0.7874015748031497,
          "duration": 3.5
        },
        {
          "name": "D#5",
          "midi": 75,
          "time": 336,
          "velocity": 0.7874015748031497,
          "duration": 4.5
        },
        {
          "name": "G4",
          "midi": 67,
          "time": 336,
          "velocity": 0.7874015748031497,
          "duration": 4.5
        },
        {
          "name": "A#4",
          "midi": 70,
          "time": 336,
          "velocity": 0.7874015748031497,
          "duration": 4.5
        },
        {
          "name": "G#2",
          "midi": 44,
          "time": 340.5,
          "velocity": 0.7874015748031497,
          "duration": 8
        },
        {
          "name": "G#3",
          "midi": 56,
          "time": 340.5,
          "velocity": 0.7874015748031497,
          "duration": 3.5
        },
        {
          "name": "D#3",
          "midi": 51,
          "time": 340.5,
          "velocity": 0.7874015748031497,
          "duration": 3.5
        },
        {
          "name": "G#4",
          "midi": 68,
          "time": 344,
          "velocity": 0.7874015748031497,
          "duration": 4.5
        },
        {
          "name": "C4",
          "midi": 60,
          "time": 344,
          "velocity": 0.7874015748031497,
          "duration": 4.5
        },
        {
          "name": "D#4",
          "midi": 63,
          "time": 344,
          "velocity": 0.7874015748031497,
          "duration": 4.5
        },
        {
          "name": "F2",
          "midi": 41,
          "time": 348.5,
          "velocity": 0.7874015748031497,
          "duration": 8
        },
        {
          "name": "C5",
          "midi": 72,
          "time": 348.5,
          "velocity": 0.7874015748031497,
          "duration": 4
        },
        {
          "name": "G#4",
          "midi": 68,
          "time": 348.5,
          "velocity": 0.7874015748031497,
          "duration": 4
        },
        {
          "name": "F4",
          "midi": 65,
          "time": 348.5,
          "velocity": 0.7874015748031497,
          "duration": 4
        },
        {
          "name": "F5",
          "midi": 77,
          "time": 352.5,
          "velocity": 0.23622047244094488,
          "duration": 0.5
        },
        {
          "name": "F4",
          "midi": 65,
          "time": 352.5,
          "velocity": 0.23622047244094488,
          "duration": 0.5
        },
        {
          "name": "F5",
          "midi": 77,
          "time": 353,
          "velocity": 0.2992125984251969,
          "duration": 0.5
        },
        {
          "name": "F4",
          "midi": 65,
          "time": 353,
          "velocity": 0.2992125984251969,
          "duration": 0.5
        },
        {
          "name": "F5",
          "midi": 77,
          "time": 353.5,
          "velocity": 0.3700787401574803,
          "duration": 0.5
        },
        {
          "name": "F4",
          "midi": 65,
          "time": 353.5,
          "velocity": 0.3700787401574803,
          "duration": 0.5
        },
        {
          "name": "F5",
          "midi": 77,
          "time": 354,
          "velocity": 0.4330708661417323,
          "duration": 0.5
        },
        {
          "name": "F4",
          "midi": 65,
          "time": 354,
          "velocity": 0.4330708661417323,
          "duration": 0.5
        },
        {
          "name": "F5",
          "midi": 77,
          "time": 354.5,
          "velocity": 0.5039370078740157,
          "duration": 0.5
        },
        {
          "name": "F4",
          "midi": 65,
          "time": 354.5,
          "velocity": 0.5039370078740157,
          "duration": 0.5
        },
        {
          "name": "D#3",
          "midi": 51,
          "time": 356.5,
          "velocity": 0.6377952755905512,
          "duration": 3.5
        },
        {
          "name": "A#4",
          "midi": 70,
          "time": 360,
          "velocity": 0.6377952755905512,
          "duration": 4.5
        },
        {
          "name": "D#4",
          "midi": 63,
          "time": 360,
          "velocity": 0.6377952755905512,
          "duration": 4.5
        },
        {
          "name": "C#3",
          "midi": 49,
          "time": 364.5,
          "velocity": 0.6377952755905512,
          "duration": 3.5
        },
        {
          "name": "C#4",
          "midi": 61,
          "time": 368,
          "velocity": 0.6377952755905512,
          "duration": 4.5
        },
        {
          "name": "F4",
          "midi": 65,
          "time": 368,
          "velocity": 0.6377952755905512,
          "duration": 4.5
        },
        {
          "name": "F#2",
          "midi": 42,
          "time": 372.5,
          "velocity": 0.6377952755905512,
          "duration": 3.5
        },
        {
          "name": "C#4",
          "midi": 61,
          "time": 376,
          "velocity": 0.6377952755905512,
          "duration": 4.5
        },
        {
          "name": "F4",
          "midi": 65,
          "time": 376,
          "velocity": 0.6377952755905512,
          "duration": 4.5
        },
        {
          "name": "D#3",
          "midi": 51,
          "time": 380.5,
          "velocity": 0.6377952755905512,
          "duration": 3.5
        },
        {
          "name": "D#4",
          "midi": 63,
          "time": 384,
          "velocity": 0.6377952755905512,
          "duration": 4.5
        },
        {
          "name": "G4",
          "midi": 67,
          "time": 384,
          "velocity": 0.6377952755905512,
          "duration": 4.5
        },
        {
          "name": "B2",
          "midi": 47,
          "time": 388.5,
          "velocity": 0.6377952755905512,
          "duration": 3.5
        },
        {
          "name": "D#4",
          "midi": 63,
          "time": 392,
          "velocity": 0.6377952755905512,
          "duration": 4.5
        },
        {
          "name": "B3",
          "midi": 59,
          "time": 392,
          "velocity": 0.6377952755905512,
          "duration": 4.5
        },
        {
          "name": "F#4",
          "midi": 66,
          "time": 392,
          "velocity": 0.6377952755905512,
          "duration": 4.5
        },
        {
          "name": "C#3",
          "midi": 49,
          "time": 396.5,
          "velocity": 0.6377952755905512,
          "duration": 3.5
        },
        {
          "name": "G#3",
          "midi": 56,
          "time": 399,
          "velocity": 0.6377952755905512,
          "duration": 4.5
        },
        {
          "name": "C#4",
          "midi": 61,
          "time": 400,
          "velocity": 0.6377952755905512,
          "duration": 4.5
        },
        {
          "name": "F#4",
          "midi": 66,
          "time": 400,
          "velocity": 0.6377952755905512,
          "duration": 4.5
        },
        {
          "name": "D4",
          "midi": 62,
          "time": 400,
          "velocity": 0.6377952755905512,
          "duration": 4.5
        },
        {
          "name": "F#3",
          "midi": 54,
          "time": 404.5,
          "velocity": 0.6377952755905512,
          "duration": 3.5
        },
        {
          "name": "C#4",
          "midi": 61,
          "time": 408,
          "velocity": 0.6377952755905512,
          "duration": 4.5
        },
        {
          "name": "F#4",
          "midi": 66,
          "time": 408,
          "velocity": 0.6377952755905512,
          "duration": 4.5
        },
        {
          "name": "D#3",
          "midi": 51,
          "time": 412.5,
          "velocity": 0.6377952755905512,
          "duration": 4
        },
        {
          "name": "A#4",
          "midi": 70,
          "time": 412.5,
          "velocity": 0.6377952755905512,
          "duration": 4
        },
        {
          "name": "D#4",
          "midi": 63,
          "time": 412.5,
          "velocity": 0.6377952755905512,
          "duration": 4
        },
        {
          "name": "G#4",
          "midi": 68,
          "time": 416.5,
          "velocity": 0.33070866141732286,
          "duration": 0.5
        },
        {
          "name": "A#4",
          "midi": 70,
          "time": 417,
          "velocity": 0.33858267716535434,
          "duration": 0.5
        },
        {
          "name": "G#4",
          "midi": 68,
          "time": 417.5,
          "velocity": 0.33858267716535434,
          "duration": 0.5
        },
        {
          "name": "F#4",
          "midi": 66,
          "time": 418,
          "velocity": 0.3464566929133858,
          "duration": 0.5
        },
        {
          "name": "D#4",
          "midi": 63,
          "time": 418.5,
          "velocity": 0.3464566929133858,
          "duration": 0.5
        },
        {
          "name": "B1",
          "midi": 35,
          "time": 420.5,
          "velocity": 0.7874015748031497,
          "duration": 8
        },
        {
          "name": "B3",
          "midi": 59,
          "time": 420.5,
          "velocity": 0.7874015748031497,
          "duration": 3.5
        },
        {
          "name": "F#3",
          "midi": 54,
          "time": 420.5,
          "velocity": 0.7874015748031497,
          "duration": 3.5
        },
        {
          "name": "F#4",
          "midi": 66,
          "time": 424,
          "velocity": 0.7874015748031497,
          "duration": 4.5
        },
        {
          "name": "D4",
          "midi": 62,
          "time": 424,
          "velocity": 0.7874015748031497,
          "duration": 4.5
        },
        {
          "name": "E2",
          "midi": 40,
          "time": 428.5,
          "velocity": 0.7874015748031497,
          "duration": 8
        },
        {
          "name": "E4",
          "midi": 64,
          "time": 428.5,
          "velocity": 0.7874015748031497,
          "duration": 3.5
        },
        {
          "name": "B3",
          "midi": 59,
          "time": 428.5,
          "velocity": 0.7874015748031497,
          "duration": 3.5
        },
        {
          "name": "G#4",
          "midi": 68,
          "time": 432,
          "velocity": 0.7874015748031497,
          "duration": 4.5
        },
        {
          "name": "E4",
          "midi": 64,
          "time": 432,
          "velocity": 0.7874015748031497,
          "duration": 4.5
        },
        {
          "name": "C#4",
          "midi": 61,
          "time": 436.5,
          "velocity": 0.7874015748031497,
          "duration": 3.5
        },
        {
          "name": "A1",
          "midi": 33,
          "time": 436.5,
          "velocity": 0.7874015748031497,
          "duration": 8
        },
        {
          "name": "A3",
          "midi": 57,
          "time": 436.5,
          "velocity": 0.7874015748031497,
          "duration": 3.5
        },
        {
          "name": "C#4",
          "midi": 61,
          "time": 440,
          "velocity": 0.7874015748031497,
          "duration": 4.5
        },
        {
          "name": "E4",
          "midi": 64,
          "time": 440,
          "velocity": 0.7874015748031497,
          "duration": 4.5
        },
        {
          "name": "F#1",
          "midi": 30,
          "time": 444.5,
          "velocity": 0.7874015748031497,
          "duration": 4
        },
        {
          "name": "C#4",
          "midi": 61,
          "time": 444.5,
          "velocity": 0.7874015748031497,
          "duration": 3.5
        },
        {
          "name": "F#3",
          "midi": 54,
          "time": 444.5,
          "velocity": 0.7874015748031497,
          "duration": 3.5
        },
        {
          "name": "F#4",
          "midi": 66,
          "time": 448,
          "velocity": 0.7874015748031497,
          "duration": 4.5
        },
        {
          "name": "C#4",
          "midi": 61,
          "time": 448,
          "velocity": 0.7874015748031497,
          "duration": 4.5
        },
        {
          "name": "A#1",
          "midi": 34,
          "time": 448.5,
          "velocity": 0.7874015748031497,
          "duration": 4
        },
        {
          "name": "B1",
          "midi": 35,
          "time": 452.5,
          "velocity": 0.7874015748031497,
          "duration": 8
        },
        {
          "name": "B3",
          "midi": 59,
          "time": 452.5,
          "velocity": 0.7874015748031497,
          "duration": 3.5
        },
        {
          "name": "F#3",
          "midi": 54,
          "time": 452.5,
          "velocity": 0.7874015748031497,
          "duration": 3.5
        },
        {
          "name": "F#4",
          "midi": 66,
          "time": 456,
          "velocity": 0.7874015748031497,
          "duration": 4.5
        },
        {
          "name": "D4",
          "midi": 62,
          "time": 456,
          "velocity": 0.7874015748031497,
          "duration": 4.5
        },
        {
          "name": "E2",
          "midi": 40,
          "time": 460.5,
          "velocity": 0.7874015748031497,
          "duration": 8
        },
        {
          "name": "E4",
          "midi": 64,
          "time": 460.5,
          "velocity": 0.7874015748031497,
          "duration": 3.5
        },
        {
          "name": "B3",
          "midi": 59,
          "time": 460.5,
          "velocity": 0.7874015748031497,
          "duration": 3.5
        },
        {
          "name": "G#4",
          "midi": 68,
          "time": 464,
          "velocity": 0.7874015748031497,
          "duration": 4.5
        },
        {
          "name": "E4",
          "midi": 64,
          "time": 464,
          "velocity": 0.7874015748031497,
          "duration": 4.5
        },
        {
          "name": "C#4",
          "midi": 61,
          "time": 468.5,
          "velocity": 0.7874015748031497,
          "duration": 3.5
        },
        {
          "name": "A1",
          "midi": 33,
          "time": 468.5,
          "velocity": 0.7874015748031497,
          "duration": 8
        },
        {
          "name": "A3",
          "midi": 57,
          "time": 468.5,
          "velocity": 0.7874015748031497,
          "duration": 3.5
        },
        {
          "name": "C#4",
          "midi": 61,
          "time": 472,
          "velocity": 0.7874015748031497,
          "duration": 4.5
        },
        {
          "name": "E4",
          "midi": 64,
          "time": 472,
          "velocity": 0.7874015748031497,
          "duration": 4.5
        },
        {
          "name": "F#1",
          "midi": 30,
          "time": 476.5,
          "velocity": 0.7874015748031497,
          "duration": 8
        },
        {
          "name": "F#4",
          "midi": 66,
          "time": 476.5,
          "velocity": 0.7874015748031497,
          "duration": 8
        },
        {
          "name": "C#4",
          "midi": 61,
          "time": 476.5,
          "velocity": 0.7874015748031497,
          "duration": 8
        },
        {
          "name": "B1",
          "midi": 35,
          "time": 484.5,
          "velocity": 0.7874015748031497,
          "duration": 8
        },
        {
          "name": "B3",
          "midi": 59,
          "time": 484.5,
          "velocity": 0.7874015748031497,
          "duration": 3.5
        },
        {
          "name": "F#3",
          "midi": 54,
          "time": 484.5,
          "velocity": 0.7874015748031497,
          "duration": 3.5
        },
        {
          "name": "F#4",
          "midi": 66,
          "time": 488,
          "velocity": 0.7874015748031497,
          "duration": 4.5
        },
        {
          "name": "D4",
          "midi": 62,
          "time": 488,
          "velocity": 0.7874015748031497,
          "duration": 4.5
        },
        {
          "name": "E2",
          "midi": 40,
          "time": 492.5,
          "velocity": 0.7874015748031497,
          "duration": 8
        },
        {
          "name": "E4",
          "midi": 64,
          "time": 492.5,
          "velocity": 0.7874015748031497,
          "duration": 3.5
        },
        {
          "name": "B3",
          "midi": 59,
          "time": 492.5,
          "velocity": 0.7874015748031497,
          "duration": 3.5
        },
        {
          "name": "G#4",
          "midi": 68,
          "time": 496,
          "velocity": 0.7874015748031497,
          "duration": 4.5
        },
        {
          "name": "E4",
          "midi": 64,
          "time": 496,
          "velocity": 0.7874015748031497,
          "duration": 4.5
        },
        {
          "name": "C#4",
          "midi": 61,
          "time": 500.5,
          "velocity": 0.7874015748031497,
          "duration": 3.5
        },
        {
          "name": "A1",
          "midi": 33,
          "time": 500.5,
          "velocity": 0.7874015748031497,
          "duration": 8
        },
        {
          "name": "A3",
          "midi": 57,
          "time": 500.5,
          "velocity": 0.7874015748031497,
          "duration": 3.5
        },
        {
          "name": "C#4",
          "midi": 61,
          "time": 504,
          "velocity": 0.7874015748031497,
          "duration": 4.5
        },
        {
          "name": "E4",
          "midi": 64,
          "time": 504,
          "velocity": 0.7874015748031497,
          "duration": 4.5
        },
        {
          "name": "F#1",
          "midi": 30,
          "time": 508.5,
          "velocity": 0.7874015748031497,
          "duration": 4
        },
        {
          "name": "C#4",
          "midi": 61,
          "time": 508.5,
          "velocity": 0.7874015748031497,
          "duration": 3.5
        },
        {
          "name": "F#3",
          "midi": 54,
          "time": 508.5,
          "velocity": 0.7874015748031497,
          "duration": 3.5
        },
        {
          "name": "F#4",
          "midi": 66,
          "time": 512,
          "velocity": 0.7874015748031497,
          "duration": 4.5
        },
        {
          "name": "C#4",
          "midi": 61,
          "time": 512,
          "velocity": 0.7874015748031497,
          "duration": 4.5
        },
        {
          "name": "A#1",
          "midi": 34,
          "time": 512.5,
          "velocity": 0.7874015748031497,
          "duration": 4
        },
        {
          "name": "B3",
          "midi": 59,
          "time": 516.5,
          "velocity": 0.7874015748031497,
          "duration": 3.5
        },
        {
          "name": "F#3",
          "midi": 54,
          "time": 516.5,
          "velocity": 0.7874015748031497,
          "duration": 3.5
        },
        {
          "name": "F#4",
          "midi": 66,
          "time": 520,
          "velocity": 0.7874015748031497,
          "duration": 4.5
        },
        {
          "name": "D4",
          "midi": 62,
          "time": 520,
          "velocity": 0.7874015748031497,
          "duration": 4.5
        },
        {
          "name": "E4",
          "midi": 64,
          "time": 524.5,
          "velocity": 0.7874015748031497,
          "duration": 3.5
        },
        {
          "name": "B3",
          "midi": 59,
          "time": 524.5,
          "velocity": 0.7874015748031497,
          "duration": 3.5
        },
        {
          "name": "G#4",
          "midi": 68,
          "time": 528,
          "velocity": 0.7874015748031497,
          "duration": 4.5
        },
        {
          "name": "E4",
          "midi": 64,
          "time": 528,
          "velocity": 0.7874015748031497,
          "duration": 4.5
        },
        {
          "name": "C#4",
          "midi": 61,
          "time": 532.5,
          "velocity": 0.7874015748031497,
          "duration": 3.5
        },
        {
          "name": "A3",
          "midi": 57,
          "time": 532.5,
          "velocity": 0.7874015748031497,
          "duration": 3.5
        },
        {
          "name": "C#4",
          "midi": 61,
          "time": 536,
          "velocity": 0.7874015748031497,
          "duration": 4.5
        },
        {
          "name": "E4",
          "midi": 64,
          "time": 536,
          "velocity": 0.7874015748031497,
          "duration": 4.5
        },
        {
          "name": "A4",
          "midi": 69,
          "time": 536,
          "velocity": 0.7874015748031497,
          "duration": 4.5
        },
        {
          "name": "F#4",
          "midi": 66,
          "time": 540.5,
          "velocity": 0.7874015748031497,
          "duration": 8
        },
        {
          "name": "C#4",
          "midi": 61,
          "time": 540.5,
          "velocity": 0.7874015748031497,
          "duration": 8
        },
        {
          "name": "A4",
          "midi": 69,
          "time": 544.5,
          "velocity": 0.7874015748031497,
          "duration": 1
        },
        {
          "name": "C#5",
          "midi": 73,
          "time": 544.5,
          "velocity": 0.7874015748031497,
          "duration": 1
        },
        {
          "name": "A4",
          "midi": 69,
          "time": 545.5,
          "velocity": 0.7874015748031497,
          "duration": 1
        },
        {
          "name": "C#5",
          "midi": 73,
          "time": 545.5,
          "velocity": 0.7874015748031497,
          "duration": 1
        },
        {
          "name": "C#5",
          "midi": 73,
          "time": 546.5,
          "velocity": 0.7874015748031497,
          "duration": 1
        },
        {
          "name": "A4",
          "midi": 69,
          "time": 546.5,
          "velocity": 0.7874015748031497,
          "duration": 1
        }
      ],
      "controlChanges": {
        "1": [
          {
            "number": 1,
            "time": 0.40833333333333327,
            "value": 0
          }
        ],
        "6": [
          {
            "number": 6,
            "time": 0.4104166666666666,
            "value": 0.5039370078740157
          },
          {
            "number": 6,
            "time": 0.41874999999999996,
            "value": 0.5039370078740157
          },
          {
            "number": 6,
            "time": 0.42499999999999993,
            "value": 0.09448818897637795
          }
        ],
        "7": [
          {
            "number": 7,
            "time": 0.4020833333333333,
            "value": 0.7874015748031497
          }
        ],
        "10": [
          {
            "number": 10,
            "time": 0.39999999999999997,
            "value": 0.5039370078740157
          }
        ],
        "11": [
          {
            "number": 11,
            "time": 0.40624999999999994,
            "value": 1
          }
        ],
        "32": [
          {
            "number": 32,
            "time": 0.39375,
            "value": 0
          }
        ],
        "38": [
          {
            "number": 38,
            "time": 0.4104166666666666,
            "value": 0
          }
        ],
        "91": [
          {
            "number": 91,
            "time": 0.4041666666666666,
            "value": 0
          }
        ],
        "100": [
          {
            "number": 100,
            "time": 0.4104166666666666,
            "value": 0.007874015748031496
          },
          {
            "number": 100,
            "time": 0.41874999999999996,
            "value": 0.015748031496062992
          },
          {
            "number": 100,
            "time": 0.42499999999999993,
            "value": 0
          },
          {
            "number": 100,
            "time": 0.43333333333333324,
            "value": 1
          }
        ],
        "101": [
          {
            "number": 101,
            "time": 0.4104166666666666,
            "value": 0
          },
          {
            "number": 101,
            "time": 0.41874999999999996,
            "value": 0
          },
          {
            "number": 101,
            "time": 0.42499999999999993,
            "value": 0
          },
          {
            "number": 101,
            "time": 0.43333333333333324,
            "value": 1
          }
        ],
        "121": [
          {
            "number": 121,
            "time": 0.39166666666666666,
            "value": 0
          }
        ]
      },
      "id": 4,
      "name": "",
      "instrumentNumber": 0,
      "instrument": "acoustic grand piano",
      "instrumentFamily": "piano",
      "channelNumber": 2,
      "isPercussion": false
    },
    {
      "startTime": 36.5,
      "duration": 484.5,
      "length": 765,
      "notes": [
        {
          "name": "F5",
          "midi": 77,
          "time": 36.5,
          "velocity": 0.7874015748031497,
          "duration": 0.5
        },
        {
          "name": "F4",
          "midi": 65,
          "time": 36.5,
          "velocity": 0.33070866141732286,
          "duration": 0.5
        },
        {
          "name": "A#4",
          "midi": 70,
          "time": 36.5,
          "velocity": 0.7874015748031497,
          "duration": 0.5
        },
        {
          "name": "F5",
          "midi": 77,
          "time": 37,
          "velocity": 0.7874015748031497,
          "duration": 0.5
        },
        {
          "name": "F4",
          "midi": 65,
          "time": 37,
          "velocity": 0.33070866141732286,
          "duration": 0.5
        },
        {
          "name": "A#4",
          "midi": 70,
          "time": 37,
          "velocity": 0.7874015748031497,
          "duration": 0.5
        },
        {
          "name": "F5",
          "midi": 77,
          "time": 37.5,
          "velocity": 0.7874015748031497,
          "duration": 1
        },
        {
          "name": "F4",
          "midi": 65,
          "time": 37.5,
          "velocity": 0.33070866141732286,
          "duration": 1
        },
        {
          "name": "A#4",
          "midi": 70,
          "time": 37.5,
          "velocity": 0.7874015748031497,
          "duration": 1
        },
        {
          "name": "D#5",
          "midi": 75,
          "time": 38.5,
          "velocity": 0.7874015748031497,
          "duration": 0.5
        },
        {
          "name": "D#4",
          "midi": 63,
          "time": 38.5,
          "velocity": 0.33070866141732286,
          "duration": 0.5
        },
        {
          "name": "C5",
          "midi": 72,
          "time": 39,
          "velocity": 0.7874015748031497,
          "duration": 0.5
        },
        {
          "name": "C4",
          "midi": 60,
          "time": 39,
          "velocity": 0.33070866141732286,
          "duration": 0.5
        },
        {
          "name": "A#4",
          "midi": 70,
          "time": 39.5,
          "velocity": 0.7874015748031497,
          "duration": 0.5
        },
        {
          "name": "A#3",
          "midi": 58,
          "time": 39.5,
          "velocity": 0.33070866141732286,
          "duration": 0.5
        },
        {
          "name": "G#4",
          "midi": 68,
          "time": 40,
          "velocity": 0.7874015748031497,
          "duration": 0.5
        },
        {
          "name": "G#3",
          "midi": 56,
          "time": 40,
          "velocity": 0.33070866141732286,
          "duration": 0.5
        },
        {
          "name": "A#4",
          "midi": 70,
          "time": 40.5,
          "velocity": 0.7874015748031497,
          "duration": 0.5
        },
        {
          "name": "A#3",
          "midi": 58,
          "time": 40.5,
          "velocity": 0.33070866141732286,
          "duration": 0.5
        },
        {
          "name": "C5",
          "midi": 72,
          "time": 41,
          "velocity": 0.7874015748031497,
          "duration": 0.5
        },
        {
          "name": "C4",
          "midi": 60,
          "time": 41,
          "velocity": 0.33070866141732286,
          "duration": 0.5
        },
        {
          "name": "A#4",
          "midi": 70,
          "time": 41.5,
          "velocity": 0.7874015748031497,
          "duration": 1
        },
        {
          "name": "A#3",
          "midi": 58,
          "time": 41.5,
          "velocity": 0.33070866141732286,
          "duration": 1
        },
        {
          "name": "A#4",
          "midi": 70,
          "time": 42.5,
          "velocity": 0.7874015748031497,
          "duration": 0.5
        },
        {
          "name": "A#3",
          "midi": 58,
          "time": 42.5,
          "velocity": 0.33070866141732286,
          "duration": 0.5
        },
        {
          "name": "C5",
          "midi": 72,
          "time": 43,
          "velocity": 0.7874015748031497,
          "duration": 0.5
        },
        {
          "name": "C4",
          "midi": 60,
          "time": 43,
          "velocity": 0.33070866141732286,
          "duration": 0.5
        },
        {
          "name": "A#4",
          "midi": 70,
          "time": 43.5,
          "velocity": 0.7874015748031497,
          "duration": 1
        },
        {
          "name": "A#3",
          "midi": 58,
          "time": 43.5,
          "velocity": 0.33070866141732286,
          "duration": 1
        },
        {
          "name": "F5",
          "midi": 77,
          "time": 44.5,
          "velocity": 0.7874015748031497,
          "duration": 0.5
        },
        {
          "name": "F4",
          "midi": 65,
          "time": 44.5,
          "velocity": 0.33070866141732286,
          "duration": 0.5
        },
        {
          "name": "A#4",
          "midi": 70,
          "time": 44.5,
          "velocity": 0.7874015748031497,
          "duration": 0.5
        },
        {
          "name": "F5",
          "midi": 77,
          "time": 45,
          "velocity": 0.7874015748031497,
          "duration": 0.5
        },
        {
          "name": "F4",
          "midi": 65,
          "time": 45,
          "velocity": 0.33070866141732286,
          "duration": 0.5
        },
        {
          "name": "A#4",
          "midi": 70,
          "time": 45,
          "velocity": 0.7874015748031497,
          "duration": 0.5
        },
        {
          "name": "F5",
          "midi": 77,
          "time": 45.5,
          "velocity": 0.7874015748031497,
          "duration": 1
        },
        {
          "name": "F4",
          "midi": 65,
          "time": 45.5,
          "velocity": 0.33070866141732286,
          "duration": 1
        },
        {
          "name": "A#4",
          "midi": 70,
          "time": 45.5,
          "velocity": 0.7874015748031497,
          "duration": 1
        },
        {
          "name": "D#5",
          "midi": 75,
          "time": 46.5,
          "velocity": 0.7874015748031497,
          "duration": 0.5
        },
        {
          "name": "D#4",
          "midi": 63,
          "time": 46.5,
          "velocity": 0.33070866141732286,
          "duration": 0.5
        },
        {
          "name": "C5",
          "midi": 72,
          "time": 47,
          "velocity": 0.7874015748031497,
          "duration": 0.5
        },
        {
          "name": "C4",
          "midi": 60,
          "time": 47,
          "velocity": 0.33070866141732286,
          "duration": 0.5
        },
        {
          "name": "A#4",
          "midi": 70,
          "time": 47.5,
          "velocity": 0.7874015748031497,
          "duration": 0.5
        },
        {
          "name": "A#3",
          "midi": 58,
          "time": 47.5,
          "velocity": 0.33070866141732286,
          "duration": 0.5
        },
        {
          "name": "G#4",
          "midi": 68,
          "time": 48,
          "velocity": 0.7874015748031497,
          "duration": 0.5
        },
        {
          "name": "G#3",
          "midi": 56,
          "time": 48,
          "velocity": 0.33070866141732286,
          "duration": 0.5
        },
        {
          "name": "G5",
          "midi": 79,
          "time": 48.5,
          "velocity": 0.7874015748031497,
          "duration": 0.5
        },
        {
          "name": "G4",
          "midi": 67,
          "time": 48.5,
          "velocity": 0.33070866141732286,
          "duration": 0.5
        },
        {
          "name": "G#5",
          "midi": 80,
          "time": 49,
          "velocity": 0.7874015748031497,
          "duration": 0.5
        },
        {
          "name": "G#4",
          "midi": 68,
          "time": 49,
          "velocity": 0.33070866141732286,
          "duration": 0.5
        },
        {
          "name": "G5",
          "midi": 79,
          "time": 49.5,
          "velocity": 0.7874015748031497,
          "duration": 1
        },
        {
          "name": "G4",
          "midi": 67,
          "time": 49.5,
          "velocity": 0.33070866141732286,
          "duration": 1
        },
        {
          "name": "G5",
          "midi": 79,
          "time": 50.5,
          "velocity": 0.7874015748031497,
          "duration": 0.5
        },
        {
          "name": "G4",
          "midi": 67,
          "time": 50.5,
          "velocity": 0.33070866141732286,
          "duration": 0.5
        },
        {
          "name": "G#5",
          "midi": 80,
          "time": 51,
          "velocity": 0.7874015748031497,
          "duration": 0.5
        },
        {
          "name": "G#4",
          "midi": 68,
          "time": 51,
          "velocity": 0.33070866141732286,
          "duration": 0.5
        },
        {
          "name": "G5",
          "midi": 79,
          "time": 51.5,
          "velocity": 0.7874015748031497,
          "duration": 1
        },
        {
          "name": "G4",
          "midi": 67,
          "time": 51.5,
          "velocity": 0.33070866141732286,
          "duration": 1
        },
        {
          "name": "F5",
          "midi": 77,
          "time": 52.5,
          "velocity": 0.33070866141732286,
          "duration": 0.5
        },
        {
          "name": "F5",
          "midi": 77,
          "time": 53,
          "velocity": 0.33070866141732286,
          "duration": 0.5
        },
        {
          "name": "F5",
          "midi": 77,
          "time": 53.5,
          "velocity": 0.7874015748031497,
          "duration": 1
        },
        {
          "name": "F5",
          "midi": 77,
          "time": 54.5,
          "velocity": 0.7874015748031497,
          "duration": 0.5
        },
        {
          "name": "D#5",
          "midi": 75,
          "time": 54.5,
          "velocity": 0.33070866141732286,
          "duration": 0.5
        },
        {
          "name": "D#5",
          "midi": 75,
          "time": 55,
          "velocity": 0.7874015748031497,
          "duration": 0.5
        },
        {
          "name": "C5",
          "midi": 72,
          "time": 55,
          "velocity": 0.33070866141732286,
          "duration": 0.5
        },
        {
          "name": "C5",
          "midi": 72,
          "time": 55.5,
          "velocity": 0.7874015748031497,
          "duration": 0.5
        },
        {
          "name": "A#4",
          "midi": 70,
          "time": 55.5,
          "velocity": 0.33070866141732286,
          "duration": 0.5
        },
        {
          "name": "A#4",
          "midi": 70,
          "time": 56,
          "velocity": 0.7874015748031497,
          "duration": 0.5
        },
        {
          "name": "G#4",
          "midi": 68,
          "time": 56,
          "velocity": 0.33070866141732286,
          "duration": 0.5
        },
        {
          "name": "D#5",
          "midi": 75,
          "time": 56.5,
          "velocity": 0.7874015748031497,
          "duration": 1
        },
        {
          "name": "A#4",
          "midi": 70,
          "time": 56.5,
          "velocity": 0.33070866141732286,
          "duration": 0.5
        },
        {
          "name": "C5",
          "midi": 72,
          "time": 57,
          "velocity": 0.33070866141732286,
          "duration": 0.5
        },
        {
          "name": "A#4",
          "midi": 70,
          "time": 57.5,
          "velocity": 0.7874015748031497,
          "duration": 1
        },
        {
          "name": "G#4",
          "midi": 68,
          "time": 58.5,
          "velocity": 0.7874015748031497,
          "duration": 0.5
        },
        {
          "name": "A#4",
          "midi": 70,
          "time": 58.5,
          "velocity": 0.33070866141732286,
          "duration": 0.5
        },
        {
          "name": "A#4",
          "midi": 70,
          "time": 59,
          "velocity": 0.7874015748031497,
          "duration": 0.5
        },
        {
          "name": "C5",
          "midi": 72,
          "time": 59,
          "velocity": 0.33070866141732286,
          "duration": 0.5
        },
        {
          "name": "G#4",
          "midi": 68,
          "time": 59.5,
          "velocity": 0.7874015748031497,
          "duration": 0.5
        },
        {
          "name": "A#4",
          "midi": 70,
          "time": 59.5,
          "velocity": 0.33070866141732286,
          "duration": 0.5
        },
        {
          "name": "A#4",
          "midi": 70,
          "time": 60,
          "velocity": 0.7874015748031497,
          "duration": 0.5
        },
        {
          "name": "C5",
          "midi": 72,
          "time": 60.5,
          "velocity": 0.7874015748031497,
          "duration": 1
        },
        {
          "name": "F5",
          "midi": 77,
          "time": 60.5,
          "velocity": 0.33070866141732286,
          "duration": 0.5
        },
        {
          "name": "F5",
          "midi": 77,
          "time": 61,
          "velocity": 0.33070866141732286,
          "duration": 0.5
        },
        {
          "name": "F4",
          "midi": 65,
          "time": 61.5,
          "velocity": 0.7874015748031497,
          "duration": 1
        },
        {
          "name": "F5",
          "midi": 77,
          "time": 61.5,
          "velocity": 0.33070866141732286,
          "duration": 1
        },
        {
          "name": "F4",
          "midi": 65,
          "time": 62.5,
          "velocity": 0.7874015748031497,
          "duration": 0.5
        },
        {
          "name": "D#5",
          "midi": 75,
          "time": 62.5,
          "velocity": 0.33070866141732286,
          "duration": 0.5
        },
        {
          "name": "F4",
          "midi": 65,
          "time": 63,
          "velocity": 0.7874015748031497,
          "duration": 0.5
        },
        {
          "name": "C5",
          "midi": 72,
          "time": 63,
          "velocity": 0.33070866141732286,
          "duration": 0.5
        },
        {
          "name": "F4",
          "midi": 65,
          "time": 63.5,
          "velocity": 0.7874015748031497,
          "duration": 0.5
        },
        {
          "name": "A#4",
          "midi": 70,
          "time": 63.5,
          "velocity": 0.33070866141732286,
          "duration": 0.5
        },
        {
          "name": "D#4",
          "midi": 63,
          "time": 64,
          "velocity": 0.7874015748031497,
          "duration": 0.5
        },
        {
          "name": "G#4",
          "midi": 68,
          "time": 64,
          "velocity": 0.33070866141732286,
          "duration": 0.5
        },
        {
          "name": "F4",
          "midi": 65,
          "time": 64.5,
          "velocity": 0.7874015748031497,
          "duration": 1
        },
        {
          "name": "A#4",
          "midi": 70,
          "time": 64.5,
          "velocity": 0.33858267716535434,
          "duration": 0.5
        },
        {
          "name": "C5",
          "midi": 72,
          "time": 65,
          "velocity": 0.3228346456692913,
          "duration": 0.5
        },
        {
          "name": "G#4",
          "midi": 68,
          "time": 65.5,
          "velocity": 0.7874015748031497,
          "duration": 0.5
        },
        {
          "name": "A#4",
          "midi": 70,
          "time": 65.5,
          "velocity": 0.31496062992125984,
          "duration": 0.5
        },
        {
          "name": "G#4",
          "midi": 68,
          "time": 66,
          "velocity": 0.36220472440944884,
          "duration": 0.5
        },
        {
          "name": "G#4",
          "midi": 68,
          "time": 66.5,
          "velocity": 0.7874015748031497,
          "duration": 2
        },
        {
          "name": "F4",
          "midi": 65,
          "time": 66.5,
          "velocity": 0.3464566929133858,
          "duration": 0.5
        },
        {
          "name": "F5",
          "midi": 77,
          "time": 68.5,
          "velocity": 0.7874015748031497,
          "duration": 0.5
        },
        {
          "name": "F4",
          "midi": 65,
          "time": 68.5,
          "velocity": 0.33070866141732286,
          "duration": 0.5
        },
        {
          "name": "F5",
          "midi": 77,
          "time": 69,
          "velocity": 0.7874015748031497,
          "duration": 0.5
        },
        {
          "name": "F4",
          "midi": 65,
          "time": 69,
          "velocity": 0.33070866141732286,
          "duration": 0.5
        },
        {
          "name": "F5",
          "midi": 77,
          "time": 69.5,
          "velocity": 0.7874015748031497,
          "duration": 1
        },
        {
          "name": "F4",
          "midi": 65,
          "time": 69.5,
          "velocity": 0.33070866141732286,
          "duration": 1
        },
        {
          "name": "D#5",
          "midi": 75,
          "time": 70.5,
          "velocity": 0.7874015748031497,
          "duration": 0.5
        },
        {
          "name": "D#4",
          "midi": 63,
          "time": 70.5,
          "velocity": 0.33070866141732286,
          "duration": 0.5
        },
        {
          "name": "C5",
          "midi": 72,
          "time": 71,
          "velocity": 0.7874015748031497,
          "duration": 0.5
        },
        {
          "name": "C4",
          "midi": 60,
          "time": 71,
          "velocity": 0.33070866141732286,
          "duration": 0.5
        },
        {
          "name": "A#4",
          "midi": 70,
          "time": 71.5,
          "velocity": 0.7874015748031497,
          "duration": 0.5
        },
        {
          "name": "A#3",
          "midi": 58,
          "time": 71.5,
          "velocity": 0.33070866141732286,
          "duration": 0.5
        },
        {
          "name": "G#4",
          "midi": 68,
          "time": 72,
          "velocity": 0.7874015748031497,
          "duration": 0.5
        },
        {
          "name": "G#3",
          "midi": 56,
          "time": 72,
          "velocity": 0.33070866141732286,
          "duration": 0.5
        },
        {
          "name": "A#4",
          "midi": 70,
          "time": 72.5,
          "velocity": 0.7874015748031497,
          "duration": 0.5
        },
        {
          "name": "A#3",
          "midi": 58,
          "time": 72.5,
          "velocity": 0.33070866141732286,
          "duration": 0.5
        },
        {
          "name": "C5",
          "midi": 72,
          "time": 73,
          "velocity": 0.7874015748031497,
          "duration": 0.5
        },
        {
          "name": "C4",
          "midi": 60,
          "time": 73,
          "velocity": 0.33070866141732286,
          "duration": 0.5
        },
        {
          "name": "A#4",
          "midi": 70,
          "time": 73.5,
          "velocity": 0.7874015748031497,
          "duration": 1
        },
        {
          "name": "A#3",
          "midi": 58,
          "time": 73.5,
          "velocity": 0.33070866141732286,
          "duration": 1
        },
        {
          "name": "A#4",
          "midi": 70,
          "time": 74.5,
          "velocity": 0.7874015748031497,
          "duration": 0.5
        },
        {
          "name": "A#3",
          "midi": 58,
          "time": 74.5,
          "velocity": 0.33070866141732286,
          "duration": 0.5
        },
        {
          "name": "C5",
          "midi": 72,
          "time": 75,
          "velocity": 0.7874015748031497,
          "duration": 0.5
        },
        {
          "name": "C4",
          "midi": 60,
          "time": 75,
          "velocity": 0.33070866141732286,
          "duration": 0.5
        },
        {
          "name": "A#4",
          "midi": 70,
          "time": 75.5,
          "velocity": 0.7874015748031497,
          "duration": 1
        },
        {
          "name": "A#3",
          "midi": 58,
          "time": 75.5,
          "velocity": 0.33070866141732286,
          "duration": 1
        },
        {
          "name": "F5",
          "midi": 77,
          "time": 76.5,
          "velocity": 0.7874015748031497,
          "duration": 0.5
        },
        {
          "name": "F4",
          "midi": 65,
          "time": 76.5,
          "velocity": 0.33070866141732286,
          "duration": 0.5
        },
        {
          "name": "F5",
          "midi": 77,
          "time": 77,
          "velocity": 0.7874015748031497,
          "duration": 0.5
        },
        {
          "name": "F4",
          "midi": 65,
          "time": 77,
          "velocity": 0.33070866141732286,
          "duration": 0.5
        },
        {
          "name": "F5",
          "midi": 77,
          "time": 77.5,
          "velocity": 0.7874015748031497,
          "duration": 1
        },
        {
          "name": "F4",
          "midi": 65,
          "time": 77.5,
          "velocity": 0.33070866141732286,
          "duration": 1
        },
        {
          "name": "D#5",
          "midi": 75,
          "time": 78.5,
          "velocity": 0.7874015748031497,
          "duration": 0.5
        },
        {
          "name": "D#4",
          "midi": 63,
          "time": 78.5,
          "velocity": 0.33070866141732286,
          "duration": 0.5
        },
        {
          "name": "C5",
          "midi": 72,
          "time": 79,
          "velocity": 0.7874015748031497,
          "duration": 0.5
        },
        {
          "name": "C4",
          "midi": 60,
          "time": 79,
          "velocity": 0.33070866141732286,
          "duration": 0.5
        },
        {
          "name": "A#4",
          "midi": 70,
          "time": 79.5,
          "velocity": 0.7874015748031497,
          "duration": 0.5
        },
        {
          "name": "A#3",
          "midi": 58,
          "time": 79.5,
          "velocity": 0.33070866141732286,
          "duration": 0.5
        },
        {
          "name": "G#4",
          "midi": 68,
          "time": 80,
          "velocity": 0.7874015748031497,
          "duration": 0.5
        },
        {
          "name": "G#3",
          "midi": 56,
          "time": 80,
          "velocity": 0.33070866141732286,
          "duration": 0.5
        },
        {
          "name": "G5",
          "midi": 79,
          "time": 80.5,
          "velocity": 0.7874015748031497,
          "duration": 0.5
        },
        {
          "name": "G4",
          "midi": 67,
          "time": 80.5,
          "velocity": 0.33070866141732286,
          "duration": 0.5
        },
        {
          "name": "G#5",
          "midi": 80,
          "time": 81,
          "velocity": 0.7874015748031497,
          "duration": 0.5
        },
        {
          "name": "G#4",
          "midi": 68,
          "time": 81,
          "velocity": 0.33070866141732286,
          "duration": 0.5
        },
        {
          "name": "G5",
          "midi": 79,
          "time": 81.5,
          "velocity": 0.7874015748031497,
          "duration": 1
        },
        {
          "name": "G4",
          "midi": 67,
          "time": 81.5,
          "velocity": 0.33070866141732286,
          "duration": 1
        },
        {
          "name": "G5",
          "midi": 79,
          "time": 82.5,
          "velocity": 0.7874015748031497,
          "duration": 0.5
        },
        {
          "name": "G4",
          "midi": 67,
          "time": 82.5,
          "velocity": 0.33070866141732286,
          "duration": 0.5
        },
        {
          "name": "G#5",
          "midi": 80,
          "time": 83,
          "velocity": 0.7874015748031497,
          "duration": 0.5
        },
        {
          "name": "G#4",
          "midi": 68,
          "time": 83,
          "velocity": 0.33070866141732286,
          "duration": 0.5
        },
        {
          "name": "G5",
          "midi": 79,
          "time": 83.5,
          "velocity": 0.7874015748031497,
          "duration": 1
        },
        {
          "name": "G4",
          "midi": 67,
          "time": 83.5,
          "velocity": 0.33070866141732286,
          "duration": 1
        },
        {
          "name": "F5",
          "midi": 77,
          "time": 84.5,
          "velocity": 0.33070866141732286,
          "duration": 0.5
        },
        {
          "name": "F5",
          "midi": 77,
          "time": 85,
          "velocity": 0.33070866141732286,
          "duration": 0.5
        },
        {
          "name": "F5",
          "midi": 77,
          "time": 85.5,
          "velocity": 0.7874015748031497,
          "duration": 1
        },
        {
          "name": "F5",
          "midi": 77,
          "time": 86.5,
          "velocity": 0.7874015748031497,
          "duration": 0.5
        },
        {
          "name": "D#5",
          "midi": 75,
          "time": 86.5,
          "velocity": 0.33070866141732286,
          "duration": 0.5
        },
        {
          "name": "D#5",
          "midi": 75,
          "time": 87,
          "velocity": 0.7874015748031497,
          "duration": 0.5
        },
        {
          "name": "C5",
          "midi": 72,
          "time": 87,
          "velocity": 0.33070866141732286,
          "duration": 0.5
        },
        {
          "name": "C5",
          "midi": 72,
          "time": 87.5,
          "velocity": 0.7874015748031497,
          "duration": 0.5
        },
        {
          "name": "A#4",
          "midi": 70,
          "time": 87.5,
          "velocity": 0.33070866141732286,
          "duration": 0.5
        },
        {
          "name": "A#4",
          "midi": 70,
          "time": 88,
          "velocity": 0.7874015748031497,
          "duration": 0.5
        },
        {
          "name": "G#4",
          "midi": 68,
          "time": 88,
          "velocity": 0.33070866141732286,
          "duration": 0.5
        },
        {
          "name": "D#5",
          "midi": 75,
          "time": 88.5,
          "velocity": 0.7874015748031497,
          "duration": 1
        },
        {
          "name": "A#4",
          "midi": 70,
          "time": 88.5,
          "velocity": 0.33070866141732286,
          "duration": 0.5
        },
        {
          "name": "C5",
          "midi": 72,
          "time": 89,
          "velocity": 0.33070866141732286,
          "duration": 0.5
        },
        {
          "name": "A#4",
          "midi": 70,
          "time": 89.5,
          "velocity": 0.7874015748031497,
          "duration": 1
        },
        {
          "name": "G#4",
          "midi": 68,
          "time": 90.5,
          "velocity": 0.7874015748031497,
          "duration": 0.5
        },
        {
          "name": "A#4",
          "midi": 70,
          "time": 90.5,
          "velocity": 0.33070866141732286,
          "duration": 0.5
        },
        {
          "name": "A#4",
          "midi": 70,
          "time": 91,
          "velocity": 0.7874015748031497,
          "duration": 0.5
        },
        {
          "name": "C5",
          "midi": 72,
          "time": 91,
          "velocity": 0.33070866141732286,
          "duration": 0.5
        },
        {
          "name": "G#4",
          "midi": 68,
          "time": 91.5,
          "velocity": 0.7874015748031497,
          "duration": 0.5
        },
        {
          "name": "A#4",
          "midi": 70,
          "time": 91.5,
          "velocity": 0.33070866141732286,
          "duration": 0.5
        },
        {
          "name": "A#4",
          "midi": 70,
          "time": 92,
          "velocity": 0.7874015748031497,
          "duration": 0.5
        },
        {
          "name": "C5",
          "midi": 72,
          "time": 92.5,
          "velocity": 0.7874015748031497,
          "duration": 1
        },
        {
          "name": "F5",
          "midi": 77,
          "time": 92.5,
          "velocity": 0.33070866141732286,
          "duration": 0.5
        },
        {
          "name": "F5",
          "midi": 77,
          "time": 93,
          "velocity": 0.33070866141732286,
          "duration": 0.5
        },
        {
          "name": "F4",
          "midi": 65,
          "time": 93.5,
          "velocity": 0.7874015748031497,
          "duration": 1
        },
        {
          "name": "F5",
          "midi": 77,
          "time": 93.5,
          "velocity": 0.33070866141732286,
          "duration": 1
        },
        {
          "name": "F4",
          "midi": 65,
          "time": 94.5,
          "velocity": 0.7874015748031497,
          "duration": 0.5
        },
        {
          "name": "D#5",
          "midi": 75,
          "time": 94.5,
          "velocity": 0.33070866141732286,
          "duration": 0.5
        },
        {
          "name": "F4",
          "midi": 65,
          "time": 95,
          "velocity": 0.7874015748031497,
          "duration": 0.5
        },
        {
          "name": "C5",
          "midi": 72,
          "time": 95,
          "velocity": 0.33070866141732286,
          "duration": 0.5
        },
        {
          "name": "F4",
          "midi": 65,
          "time": 95.5,
          "velocity": 0.7874015748031497,
          "duration": 0.5
        },
        {
          "name": "A#4",
          "midi": 70,
          "time": 95.5,
          "velocity": 0.33070866141732286,
          "duration": 0.5
        },
        {
          "name": "D#4",
          "midi": 63,
          "time": 96,
          "velocity": 0.7874015748031497,
          "duration": 0.5
        },
        {
          "name": "G#4",
          "midi": 68,
          "time": 96,
          "velocity": 0.33070866141732286,
          "duration": 0.5
        },
        {
          "name": "F4",
          "midi": 65,
          "time": 96.5,
          "velocity": 0.7874015748031497,
          "duration": 1
        },
        {
          "name": "F4",
          "midi": 65,
          "time": 97.5,
          "velocity": 0.7874015748031497,
          "duration": 1
        },
        {
          "name": "F4",
          "midi": 65,
          "time": 98.5,
          "velocity": 0.7874015748031497,
          "duration": 2
        },
        {
          "name": "F#3",
          "midi": 54,
          "time": 100.5,
          "velocity": 0.5905511811023622,
          "duration": 1
        },
        {
          "name": "D#3",
          "midi": 51,
          "time": 100.5,
          "velocity": 0.5905511811023622,
          "duration": 1
        },
        {
          "name": "B2",
          "midi": 47,
          "time": 100.5,
          "velocity": 0.5905511811023622,
          "duration": 1
        },
        {
          "name": "B1",
          "midi": 35,
          "time": 100.5,
          "velocity": 0.5905511811023622,
          "duration": 8
        },
        {
          "name": "F#3",
          "midi": 54,
          "time": 101.5,
          "velocity": 0.5905511811023622,
          "duration": 1
        },
        {
          "name": "D#3",
          "midi": 51,
          "time": 101.5,
          "velocity": 0.5905511811023622,
          "duration": 1
        },
        {
          "name": "B2",
          "midi": 47,
          "time": 101.5,
          "velocity": 0.5905511811023622,
          "duration": 1
        },
        {
          "name": "D#3",
          "midi": 51,
          "time": 102.5,
          "velocity": 0.5905511811023622,
          "duration": 1
        },
        {
          "name": "F#3",
          "midi": 54,
          "time": 102.5,
          "velocity": 0.5905511811023622,
          "duration": 1
        },
        {
          "name": "B2",
          "midi": 47,
          "time": 102.5,
          "velocity": 0.5905511811023622,
          "duration": 1
        },
        {
          "name": "B2",
          "midi": 47,
          "time": 103.5,
          "velocity": 0.5905511811023622,
          "duration": 0.5
        },
        {
          "name": "D#3",
          "midi": 51,
          "time": 104,
          "velocity": 0.5905511811023622,
          "duration": 1
        },
        {
          "name": "F#3",
          "midi": 54,
          "time": 104,
          "velocity": 0.5905511811023622,
          "duration": 1
        },
        {
          "name": "B2",
          "midi": 47,
          "time": 104,
          "velocity": 0.5905511811023622,
          "duration": 1
        },
        {
          "name": "D#3",
          "midi": 51,
          "time": 105,
          "velocity": 0.5905511811023622,
          "duration": 1
        },
        {
          "name": "F#3",
          "midi": 54,
          "time": 105,
          "velocity": 0.5905511811023622,
          "duration": 1
        },
        {
          "name": "B2",
          "midi": 47,
          "time": 105,
          "velocity": 0.5905511811023622,
          "duration": 1
        },
        {
          "name": "D#3",
          "midi": 51,
          "time": 106,
          "velocity": 0.5905511811023622,
          "duration": 0.5
        },
        {
          "name": "F#3",
          "midi": 54,
          "time": 106,
          "velocity": 0.5905511811023622,
          "duration": 0.5
        },
        {
          "name": "B2",
          "midi": 47,
          "time": 106,
          "velocity": 0.5905511811023622,
          "duration": 0.5
        },
        {
          "name": "D#3",
          "midi": 51,
          "time": 106.5,
          "velocity": 0.5905511811023622,
          "duration": 2
        },
        {
          "name": "F#3",
          "midi": 54,
          "time": 106.5,
          "velocity": 0.5905511811023622,
          "duration": 2
        },
        {
          "name": "B2",
          "midi": 47,
          "time": 106.5,
          "velocity": 0.5905511811023622,
          "duration": 1
        },
        {
          "name": "B2",
          "midi": 47,
          "time": 107.5,
          "velocity": 0.5905511811023622,
          "duration": 1
        },
        {
          "name": "G#3",
          "midi": 56,
          "time": 108.5,
          "velocity": 0.5905511811023622,
          "duration": 1
        },
        {
          "name": "F3",
          "midi": 53,
          "time": 108.5,
          "velocity": 0.5905511811023622,
          "duration": 1
        },
        {
          "name": "C#3",
          "midi": 49,
          "time": 108.5,
          "velocity": 0.5905511811023622,
          "duration": 1
        },
        {
          "name": "C#2",
          "midi": 37,
          "time": 108.5,
          "velocity": 0.5905511811023622,
          "duration": 8
        },
        {
          "name": "G#3",
          "midi": 56,
          "time": 109.5,
          "velocity": 0.5905511811023622,
          "duration": 1
        },
        {
          "name": "F3",
          "midi": 53,
          "time": 109.5,
          "velocity": 0.5905511811023622,
          "duration": 1
        },
        {
          "name": "C#3",
          "midi": 49,
          "time": 109.5,
          "velocity": 0.5905511811023622,
          "duration": 1
        },
        {
          "name": "F3",
          "midi": 53,
          "time": 110.5,
          "velocity": 0.5905511811023622,
          "duration": 1
        },
        {
          "name": "G#3",
          "midi": 56,
          "time": 110.5,
          "velocity": 0.5905511811023622,
          "duration": 1
        },
        {
          "name": "C#3",
          "midi": 49,
          "time": 110.5,
          "velocity": 0.5905511811023622,
          "duration": 1
        },
        {
          "name": "C#3",
          "midi": 49,
          "time": 111.5,
          "velocity": 0.5905511811023622,
          "duration": 0.5
        },
        {
          "name": "F3",
          "midi": 53,
          "time": 112,
          "velocity": 0.5905511811023622,
          "duration": 1
        },
        {
          "name": "G#3",
          "midi": 56,
          "time": 112,
          "velocity": 0.5905511811023622,
          "duration": 1
        },
        {
          "name": "C#3",
          "midi": 49,
          "time": 112,
          "velocity": 0.5905511811023622,
          "duration": 1
        },
        {
          "name": "F3",
          "midi": 53,
          "time": 113,
          "velocity": 0.5905511811023622,
          "duration": 1
        },
        {
          "name": "G#3",
          "midi": 56,
          "time": 113,
          "velocity": 0.5905511811023622,
          "duration": 1
        },
        {
          "name": "C#3",
          "midi": 49,
          "time": 113,
          "velocity": 0.5905511811023622,
          "duration": 1
        },
        {
          "name": "F3",
          "midi": 53,
          "time": 114,
          "velocity": 0.5905511811023622,
          "duration": 0.5
        },
        {
          "name": "G#3",
          "midi": 56,
          "time": 114,
          "velocity": 0.5905511811023622,
          "duration": 0.5
        },
        {
          "name": "C#3",
          "midi": 49,
          "time": 114,
          "velocity": 0.5905511811023622,
          "duration": 0.5
        },
        {
          "name": "F3",
          "midi": 53,
          "time": 114.5,
          "velocity": 0.5905511811023622,
          "duration": 2
        },
        {
          "name": "G#3",
          "midi": 56,
          "time": 114.5,
          "velocity": 0.5905511811023622,
          "duration": 2
        },
        {
          "name": "C#3",
          "midi": 49,
          "time": 114.5,
          "velocity": 0.5905511811023622,
          "duration": 1
        },
        {
          "name": "C#3",
          "midi": 49,
          "time": 115.5,
          "velocity": 0.5905511811023622,
          "duration": 1
        },
        {
          "name": "C#3",
          "midi": 49,
          "time": 116.5,
          "velocity": 0.5905511811023622,
          "duration": 1
        },
        {
          "name": "F#3",
          "midi": 54,
          "time": 116.5,
          "velocity": 0.5905511811023622,
          "duration": 1
        },
        {
          "name": "A#3",
          "midi": 58,
          "time": 116.5,
          "velocity": 0.5905511811023622,
          "duration": 1
        },
        {
          "name": "F#2",
          "midi": 42,
          "time": 116.5,
          "velocity": 0.5905511811023622,
          "duration": 8
        },
        {
          "name": "C#3",
          "midi": 49,
          "time": 117.5,
          "velocity": 0.5905511811023622,
          "duration": 1
        },
        {
          "name": "F#3",
          "midi": 54,
          "time": 117.5,
          "velocity": 0.5905511811023622,
          "duration": 1
        },
        {
          "name": "A#3",
          "midi": 58,
          "time": 117.5,
          "velocity": 0.5905511811023622,
          "duration": 1
        },
        {
          "name": "C#3",
          "midi": 49,
          "time": 118.5,
          "velocity": 0.5905511811023622,
          "duration": 1
        },
        {
          "name": "F#3",
          "midi": 54,
          "time": 118.5,
          "velocity": 0.5905511811023622,
          "duration": 1
        },
        {
          "name": "A#3",
          "midi": 58,
          "time": 118.5,
          "velocity": 0.5905511811023622,
          "duration": 1
        },
        {
          "name": "C#3",
          "midi": 49,
          "time": 119.5,
          "velocity": 0.5905511811023622,
          "duration": 0.5
        },
        {
          "name": "C#3",
          "midi": 49,
          "time": 120,
          "velocity": 0.5905511811023622,
          "duration": 1
        },
        {
          "name": "A#3",
          "midi": 58,
          "time": 120,
          "velocity": 0.5905511811023622,
          "duration": 1
        },
        {
          "name": "F#3",
          "midi": 54,
          "time": 120,
          "velocity": 0.5905511811023622,
          "duration": 1
        },
        {
          "name": "C#3",
          "midi": 49,
          "time": 121,
          "velocity": 0.5905511811023622,
          "duration": 1
        },
        {
          "name": "A#3",
          "midi": 58,
          "time": 121,
          "velocity": 0.5905511811023622,
          "duration": 1
        },
        {
          "name": "F#3",
          "midi": 54,
          "time": 121,
          "velocity": 0.5905511811023622,
          "duration": 1
        },
        {
          "name": "C#3",
          "midi": 49,
          "time": 122,
          "velocity": 0.5905511811023622,
          "duration": 0.5
        },
        {
          "name": "A#3",
          "midi": 58,
          "time": 122,
          "velocity": 0.5905511811023622,
          "duration": 0.5
        },
        {
          "name": "F#3",
          "midi": 54,
          "time": 122,
          "velocity": 0.5905511811023622,
          "duration": 0.5
        },
        {
          "name": "C#3",
          "midi": 49,
          "time": 122.5,
          "velocity": 0.5905511811023622,
          "duration": 1
        },
        {
          "name": "A#3",
          "midi": 58,
          "time": 122.5,
          "velocity": 0.5905511811023622,
          "duration": 2
        },
        {
          "name": "F#3",
          "midi": 54,
          "time": 122.5,
          "velocity": 0.5905511811023622,
          "duration": 2
        },
        {
          "name": "C#3",
          "midi": 49,
          "time": 123.5,
          "velocity": 0.5905511811023622,
          "duration": 1
        },
        {
          "name": "D#2",
          "midi": 39,
          "time": 124.5,
          "velocity": 0.5905511811023622,
          "duration": 8
        },
        {
          "name": "A#2",
          "midi": 46,
          "time": 124.5,
          "velocity": 0.5905511811023622,
          "duration": 1
        },
        {
          "name": "D#3",
          "midi": 51,
          "time": 124.5,
          "velocity": 0.5905511811023622,
          "duration": 1
        },
        {
          "name": "F#3",
          "midi": 54,
          "time": 124.5,
          "velocity": 0.5905511811023622,
          "duration": 1
        },
        {
          "name": "A#2",
          "midi": 46,
          "time": 125.5,
          "velocity": 0.5905511811023622,
          "duration": 1
        },
        {
          "name": "D#3",
          "midi": 51,
          "time": 125.5,
          "velocity": 0.5905511811023622,
          "duration": 1
        },
        {
          "name": "F#3",
          "midi": 54,
          "time": 125.5,
          "velocity": 0.5905511811023622,
          "duration": 1
        },
        {
          "name": "A#2",
          "midi": 46,
          "time": 126.5,
          "velocity": 0.5905511811023622,
          "duration": 1
        },
        {
          "name": "D#3",
          "midi": 51,
          "time": 126.5,
          "velocity": 0.5905511811023622,
          "duration": 1
        },
        {
          "name": "F#3",
          "midi": 54,
          "time": 126.5,
          "velocity": 0.5905511811023622,
          "duration": 1
        },
        {
          "name": "A#2",
          "midi": 46,
          "time": 127.5,
          "velocity": 0.5905511811023622,
          "duration": 0.5
        },
        {
          "name": "A#2",
          "midi": 46,
          "time": 128,
          "velocity": 0.5905511811023622,
          "duration": 1
        },
        {
          "name": "G3",
          "midi": 55,
          "time": 128,
          "velocity": 0.5905511811023622,
          "duration": 1
        },
        {
          "name": "D#3",
          "midi": 51,
          "time": 128,
          "velocity": 0.5905511811023622,
          "duration": 1
        },
        {
          "name": "A#2",
          "midi": 46,
          "time": 129,
          "velocity": 0.5905511811023622,
          "duration": 1
        },
        {
          "name": "G3",
          "midi": 55,
          "time": 129,
          "velocity": 0.5905511811023622,
          "duration": 1
        },
        {
          "name": "D#3",
          "midi": 51,
          "time": 129,
          "velocity": 0.5905511811023622,
          "duration": 1
        },
        {
          "name": "A#2",
          "midi": 46,
          "time": 130,
          "velocity": 0.5905511811023622,
          "duration": 0.5
        },
        {
          "name": "G3",
          "midi": 55,
          "time": 130,
          "velocity": 0.5905511811023622,
          "duration": 0.5
        },
        {
          "name": "D#3",
          "midi": 51,
          "time": 130,
          "velocity": 0.5905511811023622,
          "duration": 0.5
        },
        {
          "name": "A#2",
          "midi": 46,
          "time": 130.5,
          "velocity": 0.5905511811023622,
          "duration": 1
        },
        {
          "name": "G3",
          "midi": 55,
          "time": 130.5,
          "velocity": 0.5905511811023622,
          "duration": 2
        },
        {
          "name": "D#3",
          "midi": 51,
          "time": 130.5,
          "velocity": 0.5905511811023622,
          "duration": 2
        },
        {
          "name": "A#2",
          "midi": 46,
          "time": 131.5,
          "velocity": 0.5905511811023622,
          "duration": 1
        },
        {
          "name": "F#3",
          "midi": 54,
          "time": 132.5,
          "velocity": 0.5905511811023622,
          "duration": 1
        },
        {
          "name": "D#3",
          "midi": 51,
          "time": 132.5,
          "velocity": 0.5905511811023622,
          "duration": 1
        },
        {
          "name": "B2",
          "midi": 47,
          "time": 132.5,
          "velocity": 0.5905511811023622,
          "duration": 1
        },
        {
          "name": "B1",
          "midi": 35,
          "time": 132.5,
          "velocity": 0.5905511811023622,
          "duration": 8
        },
        {
          "name": "F#3",
          "midi": 54,
          "time": 133.5,
          "velocity": 0.5905511811023622,
          "duration": 1
        },
        {
          "name": "D#3",
          "midi": 51,
          "time": 133.5,
          "velocity": 0.5905511811023622,
          "duration": 1
        },
        {
          "name": "B2",
          "midi": 47,
          "time": 133.5,
          "velocity": 0.5905511811023622,
          "duration": 1
        },
        {
          "name": "D#3",
          "midi": 51,
          "time": 134.5,
          "velocity": 0.5905511811023622,
          "duration": 1
        },
        {
          "name": "F#3",
          "midi": 54,
          "time": 134.5,
          "velocity": 0.5905511811023622,
          "duration": 1
        },
        {
          "name": "B2",
          "midi": 47,
          "time": 134.5,
          "velocity": 0.5905511811023622,
          "duration": 1
        },
        {
          "name": "B2",
          "midi": 47,
          "time": 135.5,
          "velocity": 0.5905511811023622,
          "duration": 0.5
        },
        {
          "name": "D#3",
          "midi": 51,
          "time": 136,
          "velocity": 0.5905511811023622,
          "duration": 1
        },
        {
          "name": "F#3",
          "midi": 54,
          "time": 136,
          "velocity": 0.5905511811023622,
          "duration": 1
        },
        {
          "name": "B2",
          "midi": 47,
          "time": 136,
          "velocity": 0.5905511811023622,
          "duration": 1
        },
        {
          "name": "D#3",
          "midi": 51,
          "time": 137,
          "velocity": 0.5905511811023622,
          "duration": 1
        },
        {
          "name": "F#3",
          "midi": 54,
          "time": 137,
          "velocity": 0.5905511811023622,
          "duration": 1
        },
        {
          "name": "B2",
          "midi": 47,
          "time": 137,
          "velocity": 0.5905511811023622,
          "duration": 1
        },
        {
          "name": "D#3",
          "midi": 51,
          "time": 138,
          "velocity": 0.5905511811023622,
          "duration": 0.5
        },
        {
          "name": "F#3",
          "midi": 54,
          "time": 138,
          "velocity": 0.5905511811023622,
          "duration": 0.5
        },
        {
          "name": "B2",
          "midi": 47,
          "time": 138,
          "velocity": 0.5905511811023622,
          "duration": 0.5
        },
        {
          "name": "D#3",
          "midi": 51,
          "time": 138.5,
          "velocity": 0.5905511811023622,
          "duration": 2
        },
        {
          "name": "F#3",
          "midi": 54,
          "time": 138.5,
          "velocity": 0.5905511811023622,
          "duration": 2
        },
        {
          "name": "B2",
          "midi": 47,
          "time": 138.5,
          "velocity": 0.5905511811023622,
          "duration": 1
        },
        {
          "name": "B2",
          "midi": 47,
          "time": 139.5,
          "velocity": 0.5905511811023622,
          "duration": 1
        },
        {
          "name": "G#3",
          "midi": 56,
          "time": 140.5,
          "velocity": 0.5905511811023622,
          "duration": 1
        },
        {
          "name": "F3",
          "midi": 53,
          "time": 140.5,
          "velocity": 0.5905511811023622,
          "duration": 1
        },
        {
          "name": "C#3",
          "midi": 49,
          "time": 140.5,
          "velocity": 0.5905511811023622,
          "duration": 1
        },
        {
          "name": "C#2",
          "midi": 37,
          "time": 140.5,
          "velocity": 0.5905511811023622,
          "duration": 8
        },
        {
          "name": "G#3",
          "midi": 56,
          "time": 141.5,
          "velocity": 0.5905511811023622,
          "duration": 1
        },
        {
          "name": "F3",
          "midi": 53,
          "time": 141.5,
          "velocity": 0.5905511811023622,
          "duration": 1
        },
        {
          "name": "C#3",
          "midi": 49,
          "time": 141.5,
          "velocity": 0.5905511811023622,
          "duration": 1
        },
        {
          "name": "F3",
          "midi": 53,
          "time": 142.5,
          "velocity": 0.5905511811023622,
          "duration": 1
        },
        {
          "name": "G#3",
          "midi": 56,
          "time": 142.5,
          "velocity": 0.5905511811023622,
          "duration": 1
        },
        {
          "name": "C#3",
          "midi": 49,
          "time": 142.5,
          "velocity": 0.5905511811023622,
          "duration": 1
        },
        {
          "name": "C#3",
          "midi": 49,
          "time": 143.5,
          "velocity": 0.5905511811023622,
          "duration": 0.5
        },
        {
          "name": "F3",
          "midi": 53,
          "time": 144,
          "velocity": 0.5905511811023622,
          "duration": 1
        },
        {
          "name": "G#3",
          "midi": 56,
          "time": 144,
          "velocity": 0.5905511811023622,
          "duration": 1
        },
        {
          "name": "C#3",
          "midi": 49,
          "time": 144,
          "velocity": 0.5905511811023622,
          "duration": 1
        },
        {
          "name": "F3",
          "midi": 53,
          "time": 145,
          "velocity": 0.5905511811023622,
          "duration": 1
        },
        {
          "name": "G#3",
          "midi": 56,
          "time": 145,
          "velocity": 0.5905511811023622,
          "duration": 1
        },
        {
          "name": "C#3",
          "midi": 49,
          "time": 145,
          "velocity": 0.5905511811023622,
          "duration": 1
        },
        {
          "name": "F3",
          "midi": 53,
          "time": 146,
          "velocity": 0.5905511811023622,
          "duration": 0.5
        },
        {
          "name": "G#3",
          "midi": 56,
          "time": 146,
          "velocity": 0.5905511811023622,
          "duration": 0.5
        },
        {
          "name": "C#3",
          "midi": 49,
          "time": 146,
          "velocity": 0.5905511811023622,
          "duration": 0.5
        },
        {
          "name": "F3",
          "midi": 53,
          "time": 146.5,
          "velocity": 0.5905511811023622,
          "duration": 2
        },
        {
          "name": "G#3",
          "midi": 56,
          "time": 146.5,
          "velocity": 0.5905511811023622,
          "duration": 2
        },
        {
          "name": "C#3",
          "midi": 49,
          "time": 146.5,
          "velocity": 0.5905511811023622,
          "duration": 1
        },
        {
          "name": "C#3",
          "midi": 49,
          "time": 147.5,
          "velocity": 0.5905511811023622,
          "duration": 1
        },
        {
          "name": "C#3",
          "midi": 49,
          "time": 148.5,
          "velocity": 0.5905511811023622,
          "duration": 1
        },
        {
          "name": "F#3",
          "midi": 54,
          "time": 148.5,
          "velocity": 0.5905511811023622,
          "duration": 1
        },
        {
          "name": "A#3",
          "midi": 58,
          "time": 148.5,
          "velocity": 0.5905511811023622,
          "duration": 1
        },
        {
          "name": "F#2",
          "midi": 42,
          "time": 148.5,
          "velocity": 0.5905511811023622,
          "duration": 8
        },
        {
          "name": "C#3",
          "midi": 49,
          "time": 149.5,
          "velocity": 0.5905511811023622,
          "duration": 1
        },
        {
          "name": "F#3",
          "midi": 54,
          "time": 149.5,
          "velocity": 0.5905511811023622,
          "duration": 1
        },
        {
          "name": "A#3",
          "midi": 58,
          "time": 149.5,
          "velocity": 0.5905511811023622,
          "duration": 1
        },
        {
          "name": "C#3",
          "midi": 49,
          "time": 150.5,
          "velocity": 0.5905511811023622,
          "duration": 1
        },
        {
          "name": "F#3",
          "midi": 54,
          "time": 150.5,
          "velocity": 0.5905511811023622,
          "duration": 1
        },
        {
          "name": "A#3",
          "midi": 58,
          "time": 150.5,
          "velocity": 0.5905511811023622,
          "duration": 1
        },
        {
          "name": "C#3",
          "midi": 49,
          "time": 151.5,
          "velocity": 0.5905511811023622,
          "duration": 0.5
        },
        {
          "name": "C#3",
          "midi": 49,
          "time": 152,
          "velocity": 0.5905511811023622,
          "duration": 1
        },
        {
          "name": "A#3",
          "midi": 58,
          "time": 152,
          "velocity": 0.5905511811023622,
          "duration": 1
        },
        {
          "name": "F#3",
          "midi": 54,
          "time": 152,
          "velocity": 0.5905511811023622,
          "duration": 1
        },
        {
          "name": "C#3",
          "midi": 49,
          "time": 153,
          "velocity": 0.5905511811023622,
          "duration": 1
        },
        {
          "name": "A#3",
          "midi": 58,
          "time": 153,
          "velocity": 0.5905511811023622,
          "duration": 1
        },
        {
          "name": "F#3",
          "midi": 54,
          "time": 153,
          "velocity": 0.5905511811023622,
          "duration": 1
        },
        {
          "name": "C#3",
          "midi": 49,
          "time": 154,
          "velocity": 0.5905511811023622,
          "duration": 0.5
        },
        {
          "name": "A#3",
          "midi": 58,
          "time": 154,
          "velocity": 0.5905511811023622,
          "duration": 0.5
        },
        {
          "name": "F#3",
          "midi": 54,
          "time": 154,
          "velocity": 0.5905511811023622,
          "duration": 0.5
        },
        {
          "name": "C#3",
          "midi": 49,
          "time": 154.5,
          "velocity": 0.5905511811023622,
          "duration": 1
        },
        {
          "name": "A#3",
          "midi": 58,
          "time": 154.5,
          "velocity": 0.5905511811023622,
          "duration": 2
        },
        {
          "name": "F#3",
          "midi": 54,
          "time": 154.5,
          "velocity": 0.5905511811023622,
          "duration": 2
        },
        {
          "name": "C#3",
          "midi": 49,
          "time": 155.5,
          "velocity": 0.5905511811023622,
          "duration": 1
        },
        {
          "name": "D#2",
          "midi": 39,
          "time": 156.5,
          "velocity": 0.5905511811023622,
          "duration": 8
        },
        {
          "name": "A#2",
          "midi": 46,
          "time": 156.5,
          "velocity": 0.5905511811023622,
          "duration": 1
        },
        {
          "name": "D#3",
          "midi": 51,
          "time": 156.5,
          "velocity": 0.5905511811023622,
          "duration": 1
        },
        {
          "name": "F#3",
          "midi": 54,
          "time": 156.5,
          "velocity": 0.5905511811023622,
          "duration": 1
        },
        {
          "name": "A#2",
          "midi": 46,
          "time": 157.5,
          "velocity": 0.5905511811023622,
          "duration": 1
        },
        {
          "name": "D#3",
          "midi": 51,
          "time": 157.5,
          "velocity": 0.5905511811023622,
          "duration": 1
        },
        {
          "name": "F#3",
          "midi": 54,
          "time": 157.5,
          "velocity": 0.5905511811023622,
          "duration": 1
        },
        {
          "name": "A#2",
          "midi": 46,
          "time": 158.5,
          "velocity": 0.5905511811023622,
          "duration": 1
        },
        {
          "name": "D#3",
          "midi": 51,
          "time": 158.5,
          "velocity": 0.5905511811023622,
          "duration": 1
        },
        {
          "name": "F#3",
          "midi": 54,
          "time": 158.5,
          "velocity": 0.5905511811023622,
          "duration": 1
        },
        {
          "name": "A#2",
          "midi": 46,
          "time": 159.5,
          "velocity": 0.5905511811023622,
          "duration": 0.5
        },
        {
          "name": "A#2",
          "midi": 46,
          "time": 160,
          "velocity": 0.5905511811023622,
          "duration": 1
        },
        {
          "name": "G3",
          "midi": 55,
          "time": 160,
          "velocity": 0.5905511811023622,
          "duration": 1
        },
        {
          "name": "D#3",
          "midi": 51,
          "time": 160,
          "velocity": 0.5905511811023622,
          "duration": 1
        },
        {
          "name": "A#2",
          "midi": 46,
          "time": 161,
          "velocity": 0.5905511811023622,
          "duration": 1
        },
        {
          "name": "G3",
          "midi": 55,
          "time": 161,
          "velocity": 0.5905511811023622,
          "duration": 1
        },
        {
          "name": "D#3",
          "midi": 51,
          "time": 161,
          "velocity": 0.5905511811023622,
          "duration": 1
        },
        {
          "name": "A#2",
          "midi": 46,
          "time": 162,
          "velocity": 0.5905511811023622,
          "duration": 0.5
        },
        {
          "name": "G3",
          "midi": 55,
          "time": 162,
          "velocity": 0.5905511811023622,
          "duration": 0.5
        },
        {
          "name": "D#3",
          "midi": 51,
          "time": 162,
          "velocity": 0.5905511811023622,
          "duration": 0.5
        },
        {
          "name": "A#2",
          "midi": 46,
          "time": 162.5,
          "velocity": 0.5905511811023622,
          "duration": 1
        },
        {
          "name": "G3",
          "midi": 55,
          "time": 162.5,
          "velocity": 0.5905511811023622,
          "duration": 2
        },
        {
          "name": "D#3",
          "midi": 51,
          "time": 162.5,
          "velocity": 0.5905511811023622,
          "duration": 2
        },
        {
          "name": "A#2",
          "midi": 46,
          "time": 163.5,
          "velocity": 0.5905511811023622,
          "duration": 1
        },
        {
          "name": "F5",
          "midi": 77,
          "time": 228.5,
          "velocity": 0.7874015748031497,
          "duration": 0.5
        },
        {
          "name": "F4",
          "midi": 65,
          "time": 228.5,
          "velocity": 0.33070866141732286,
          "duration": 0.5
        },
        {
          "name": "A#4",
          "midi": 70,
          "time": 228.5,
          "velocity": 0.7874015748031497,
          "duration": 0.5
        },
        {
          "name": "F5",
          "midi": 77,
          "time": 229,
          "velocity": 0.7874015748031497,
          "duration": 0.5
        },
        {
          "name": "F4",
          "midi": 65,
          "time": 229,
          "velocity": 0.33070866141732286,
          "duration": 0.5
        },
        {
          "name": "A#4",
          "midi": 70,
          "time": 229,
          "velocity": 0.7874015748031497,
          "duration": 0.5
        },
        {
          "name": "F5",
          "midi": 77,
          "time": 229.5,
          "velocity": 0.7874015748031497,
          "duration": 1
        },
        {
          "name": "F4",
          "midi": 65,
          "time": 229.5,
          "velocity": 0.33070866141732286,
          "duration": 1
        },
        {
          "name": "A#4",
          "midi": 70,
          "time": 229.5,
          "velocity": 0.7874015748031497,
          "duration": 1
        },
        {
          "name": "D#5",
          "midi": 75,
          "time": 230.5,
          "velocity": 0.7874015748031497,
          "duration": 0.5
        },
        {
          "name": "D#4",
          "midi": 63,
          "time": 230.5,
          "velocity": 0.33070866141732286,
          "duration": 0.5
        },
        {
          "name": "C5",
          "midi": 72,
          "time": 231,
          "velocity": 0.7874015748031497,
          "duration": 0.5
        },
        {
          "name": "C4",
          "midi": 60,
          "time": 231,
          "velocity": 0.33070866141732286,
          "duration": 0.5
        },
        {
          "name": "A#4",
          "midi": 70,
          "time": 231.5,
          "velocity": 0.7874015748031497,
          "duration": 0.5
        },
        {
          "name": "A#3",
          "midi": 58,
          "time": 231.5,
          "velocity": 0.33070866141732286,
          "duration": 0.5
        },
        {
          "name": "G#4",
          "midi": 68,
          "time": 232,
          "velocity": 0.7874015748031497,
          "duration": 0.5
        },
        {
          "name": "G#3",
          "midi": 56,
          "time": 232,
          "velocity": 0.33070866141732286,
          "duration": 0.5
        },
        {
          "name": "A#4",
          "midi": 70,
          "time": 232.5,
          "velocity": 0.7874015748031497,
          "duration": 0.5
        },
        {
          "name": "A#3",
          "midi": 58,
          "time": 232.5,
          "velocity": 0.33070866141732286,
          "duration": 0.5
        },
        {
          "name": "C5",
          "midi": 72,
          "time": 233,
          "velocity": 0.7874015748031497,
          "duration": 0.5
        },
        {
          "name": "C4",
          "midi": 60,
          "time": 233,
          "velocity": 0.33070866141732286,
          "duration": 0.5
        },
        {
          "name": "A#4",
          "midi": 70,
          "time": 233.5,
          "velocity": 0.7874015748031497,
          "duration": 1
        },
        {
          "name": "A#3",
          "midi": 58,
          "time": 233.5,
          "velocity": 0.33070866141732286,
          "duration": 1
        },
        {
          "name": "A#4",
          "midi": 70,
          "time": 234.5,
          "velocity": 0.7874015748031497,
          "duration": 0.5
        },
        {
          "name": "A#3",
          "midi": 58,
          "time": 234.5,
          "velocity": 0.33070866141732286,
          "duration": 0.5
        },
        {
          "name": "C5",
          "midi": 72,
          "time": 235,
          "velocity": 0.7874015748031497,
          "duration": 0.5
        },
        {
          "name": "C4",
          "midi": 60,
          "time": 235,
          "velocity": 0.33070866141732286,
          "duration": 0.5
        },
        {
          "name": "A#4",
          "midi": 70,
          "time": 235.5,
          "velocity": 0.7874015748031497,
          "duration": 1
        },
        {
          "name": "A#3",
          "midi": 58,
          "time": 235.5,
          "velocity": 0.33070866141732286,
          "duration": 1
        },
        {
          "name": "F5",
          "midi": 77,
          "time": 236.5,
          "velocity": 0.7874015748031497,
          "duration": 0.5
        },
        {
          "name": "F4",
          "midi": 65,
          "time": 236.5,
          "velocity": 0.33070866141732286,
          "duration": 0.5
        },
        {
          "name": "A#4",
          "midi": 70,
          "time": 236.5,
          "velocity": 0.7874015748031497,
          "duration": 0.5
        },
        {
          "name": "F5",
          "midi": 77,
          "time": 237,
          "velocity": 0.7874015748031497,
          "duration": 0.5
        },
        {
          "name": "F4",
          "midi": 65,
          "time": 237,
          "velocity": 0.33070866141732286,
          "duration": 0.5
        },
        {
          "name": "A#4",
          "midi": 70,
          "time": 237,
          "velocity": 0.7874015748031497,
          "duration": 0.5
        },
        {
          "name": "F5",
          "midi": 77,
          "time": 237.5,
          "velocity": 0.7874015748031497,
          "duration": 1
        },
        {
          "name": "F4",
          "midi": 65,
          "time": 237.5,
          "velocity": 0.33070866141732286,
          "duration": 1
        },
        {
          "name": "A#4",
          "midi": 70,
          "time": 237.5,
          "velocity": 0.7874015748031497,
          "duration": 1
        },
        {
          "name": "D#5",
          "midi": 75,
          "time": 238.5,
          "velocity": 0.7874015748031497,
          "duration": 0.5
        },
        {
          "name": "D#4",
          "midi": 63,
          "time": 238.5,
          "velocity": 0.33070866141732286,
          "duration": 0.5
        },
        {
          "name": "C5",
          "midi": 72,
          "time": 239,
          "velocity": 0.7874015748031497,
          "duration": 0.5
        },
        {
          "name": "C4",
          "midi": 60,
          "time": 239,
          "velocity": 0.33070866141732286,
          "duration": 0.5
        },
        {
          "name": "A#4",
          "midi": 70,
          "time": 239.5,
          "velocity": 0.7874015748031497,
          "duration": 0.5
        },
        {
          "name": "A#3",
          "midi": 58,
          "time": 239.5,
          "velocity": 0.33070866141732286,
          "duration": 0.5
        },
        {
          "name": "G#4",
          "midi": 68,
          "time": 240,
          "velocity": 0.7874015748031497,
          "duration": 0.5
        },
        {
          "name": "G#3",
          "midi": 56,
          "time": 240,
          "velocity": 0.33070866141732286,
          "duration": 0.5
        },
        {
          "name": "G5",
          "midi": 79,
          "time": 240.5,
          "velocity": 0.7874015748031497,
          "duration": 0.5
        },
        {
          "name": "G4",
          "midi": 67,
          "time": 240.5,
          "velocity": 0.33070866141732286,
          "duration": 0.5
        },
        {
          "name": "G#5",
          "midi": 80,
          "time": 241,
          "velocity": 0.7874015748031497,
          "duration": 0.5
        },
        {
          "name": "G#4",
          "midi": 68,
          "time": 241,
          "velocity": 0.33070866141732286,
          "duration": 0.5
        },
        {
          "name": "G5",
          "midi": 79,
          "time": 241.5,
          "velocity": 0.7874015748031497,
          "duration": 1
        },
        {
          "name": "G4",
          "midi": 67,
          "time": 241.5,
          "velocity": 0.33070866141732286,
          "duration": 1
        },
        {
          "name": "G5",
          "midi": 79,
          "time": 242.5,
          "velocity": 0.7874015748031497,
          "duration": 0.5
        },
        {
          "name": "G4",
          "midi": 67,
          "time": 242.5,
          "velocity": 0.33070866141732286,
          "duration": 0.5
        },
        {
          "name": "G#5",
          "midi": 80,
          "time": 243,
          "velocity": 0.7874015748031497,
          "duration": 0.5
        },
        {
          "name": "G#4",
          "midi": 68,
          "time": 243,
          "velocity": 0.33070866141732286,
          "duration": 0.5
        },
        {
          "name": "G5",
          "midi": 79,
          "time": 243.5,
          "velocity": 0.7874015748031497,
          "duration": 1
        },
        {
          "name": "G4",
          "midi": 67,
          "time": 243.5,
          "velocity": 0.33070866141732286,
          "duration": 1
        },
        {
          "name": "F5",
          "midi": 77,
          "time": 244.5,
          "velocity": 0.33070866141732286,
          "duration": 0.5
        },
        {
          "name": "F5",
          "midi": 77,
          "time": 245,
          "velocity": 0.33070866141732286,
          "duration": 0.5
        },
        {
          "name": "F5",
          "midi": 77,
          "time": 245.5,
          "velocity": 0.7874015748031497,
          "duration": 1
        },
        {
          "name": "F5",
          "midi": 77,
          "time": 246.5,
          "velocity": 0.7874015748031497,
          "duration": 0.5
        },
        {
          "name": "D#5",
          "midi": 75,
          "time": 246.5,
          "velocity": 0.33070866141732286,
          "duration": 0.5
        },
        {
          "name": "D#5",
          "midi": 75,
          "time": 247,
          "velocity": 0.7874015748031497,
          "duration": 0.5
        },
        {
          "name": "C5",
          "midi": 72,
          "time": 247,
          "velocity": 0.33070866141732286,
          "duration": 0.5
        },
        {
          "name": "C5",
          "midi": 72,
          "time": 247.5,
          "velocity": 0.7874015748031497,
          "duration": 0.5
        },
        {
          "name": "A#4",
          "midi": 70,
          "time": 247.5,
          "velocity": 0.33070866141732286,
          "duration": 0.5
        },
        {
          "name": "A#4",
          "midi": 70,
          "time": 248,
          "velocity": 0.7874015748031497,
          "duration": 0.5
        },
        {
          "name": "G#4",
          "midi": 68,
          "time": 248,
          "velocity": 0.33070866141732286,
          "duration": 0.5
        },
        {
          "name": "D#5",
          "midi": 75,
          "time": 248.5,
          "velocity": 0.7874015748031497,
          "duration": 1
        },
        {
          "name": "A#4",
          "midi": 70,
          "time": 248.5,
          "velocity": 0.33070866141732286,
          "duration": 0.5
        },
        {
          "name": "C5",
          "midi": 72,
          "time": 249,
          "velocity": 0.33070866141732286,
          "duration": 0.5
        },
        {
          "name": "A#4",
          "midi": 70,
          "time": 249.5,
          "velocity": 0.7874015748031497,
          "duration": 1
        },
        {
          "name": "G#4",
          "midi": 68,
          "time": 250.5,
          "velocity": 0.7874015748031497,
          "duration": 0.5
        },
        {
          "name": "A#4",
          "midi": 70,
          "time": 250.5,
          "velocity": 0.33070866141732286,
          "duration": 0.5
        },
        {
          "name": "A#4",
          "midi": 70,
          "time": 251,
          "velocity": 0.7874015748031497,
          "duration": 0.5
        },
        {
          "name": "C5",
          "midi": 72,
          "time": 251,
          "velocity": 0.33070866141732286,
          "duration": 0.5
        },
        {
          "name": "G#4",
          "midi": 68,
          "time": 251.5,
          "velocity": 0.7874015748031497,
          "duration": 0.5
        },
        {
          "name": "A#4",
          "midi": 70,
          "time": 251.5,
          "velocity": 0.33070866141732286,
          "duration": 0.5
        },
        {
          "name": "A#4",
          "midi": 70,
          "time": 252,
          "velocity": 0.7874015748031497,
          "duration": 0.5
        },
        {
          "name": "C5",
          "midi": 72,
          "time": 252.5,
          "velocity": 0.7874015748031497,
          "duration": 1
        },
        {
          "name": "F5",
          "midi": 77,
          "time": 252.5,
          "velocity": 0.33070866141732286,
          "duration": 0.5
        },
        {
          "name": "F5",
          "midi": 77,
          "time": 253,
          "velocity": 0.33070866141732286,
          "duration": 0.5
        },
        {
          "name": "F4",
          "midi": 65,
          "time": 253.5,
          "velocity": 0.7874015748031497,
          "duration": 1
        },
        {
          "name": "F5",
          "midi": 77,
          "time": 253.5,
          "velocity": 0.33070866141732286,
          "duration": 1
        },
        {
          "name": "F4",
          "midi": 65,
          "time": 254.5,
          "velocity": 0.7874015748031497,
          "duration": 0.5
        },
        {
          "name": "D#5",
          "midi": 75,
          "time": 254.5,
          "velocity": 0.33070866141732286,
          "duration": 0.5
        },
        {
          "name": "F4",
          "midi": 65,
          "time": 255,
          "velocity": 0.7874015748031497,
          "duration": 0.5
        },
        {
          "name": "C5",
          "midi": 72,
          "time": 255,
          "velocity": 0.33070866141732286,
          "duration": 0.5
        },
        {
          "name": "F4",
          "midi": 65,
          "time": 255.5,
          "velocity": 0.7874015748031497,
          "duration": 0.5
        },
        {
          "name": "A#4",
          "midi": 70,
          "time": 255.5,
          "velocity": 0.33070866141732286,
          "duration": 0.5
        },
        {
          "name": "D#4",
          "midi": 63,
          "time": 256,
          "velocity": 0.7874015748031497,
          "duration": 0.5
        },
        {
          "name": "G#4",
          "midi": 68,
          "time": 256,
          "velocity": 0.33070866141732286,
          "duration": 0.5
        },
        {
          "name": "F4",
          "midi": 65,
          "time": 256.5,
          "velocity": 0.7874015748031497,
          "duration": 1
        },
        {
          "name": "A#4",
          "midi": 70,
          "time": 256.5,
          "velocity": 0.33858267716535434,
          "duration": 0.5
        },
        {
          "name": "C5",
          "midi": 72,
          "time": 257,
          "velocity": 0.3228346456692913,
          "duration": 0.5
        },
        {
          "name": "G#4",
          "midi": 68,
          "time": 257.5,
          "velocity": 0.7874015748031497,
          "duration": 0.5
        },
        {
          "name": "A#4",
          "midi": 70,
          "time": 257.5,
          "velocity": 0.31496062992125984,
          "duration": 0.5
        },
        {
          "name": "G#4",
          "midi": 68,
          "time": 258,
          "velocity": 0.36220472440944884,
          "duration": 0.5
        },
        {
          "name": "G#4",
          "midi": 68,
          "time": 258.5,
          "velocity": 0.7874015748031497,
          "duration": 2
        },
        {
          "name": "F4",
          "midi": 65,
          "time": 258.5,
          "velocity": 0.3464566929133858,
          "duration": 0.5
        },
        {
          "name": "F5",
          "midi": 77,
          "time": 260.5,
          "velocity": 0.7874015748031497,
          "duration": 0.5
        },
        {
          "name": "F4",
          "midi": 65,
          "time": 260.5,
          "velocity": 0.33070866141732286,
          "duration": 0.5
        },
        {
          "name": "F5",
          "midi": 77,
          "time": 261,
          "velocity": 0.7874015748031497,
          "duration": 0.5
        },
        {
          "name": "F4",
          "midi": 65,
          "time": 261,
          "velocity": 0.33070866141732286,
          "duration": 0.5
        },
        {
          "name": "F5",
          "midi": 77,
          "time": 261.5,
          "velocity": 0.7874015748031497,
          "duration": 1
        },
        {
          "name": "F4",
          "midi": 65,
          "time": 261.5,
          "velocity": 0.33070866141732286,
          "duration": 1
        },
        {
          "name": "D#5",
          "midi": 75,
          "time": 262.5,
          "velocity": 0.7874015748031497,
          "duration": 0.5
        },
        {
          "name": "D#4",
          "midi": 63,
          "time": 262.5,
          "velocity": 0.33070866141732286,
          "duration": 0.5
        },
        {
          "name": "C5",
          "midi": 72,
          "time": 263,
          "velocity": 0.7874015748031497,
          "duration": 0.5
        },
        {
          "name": "C4",
          "midi": 60,
          "time": 263,
          "velocity": 0.33070866141732286,
          "duration": 0.5
        },
        {
          "name": "A#4",
          "midi": 70,
          "time": 263.5,
          "velocity": 0.7874015748031497,
          "duration": 0.5
        },
        {
          "name": "A#3",
          "midi": 58,
          "time": 263.5,
          "velocity": 0.33070866141732286,
          "duration": 0.5
        },
        {
          "name": "G#4",
          "midi": 68,
          "time": 264,
          "velocity": 0.7874015748031497,
          "duration": 0.5
        },
        {
          "name": "G#3",
          "midi": 56,
          "time": 264,
          "velocity": 0.33070866141732286,
          "duration": 0.5
        },
        {
          "name": "A#4",
          "midi": 70,
          "time": 264.5,
          "velocity": 0.7874015748031497,
          "duration": 0.5
        },
        {
          "name": "A#3",
          "midi": 58,
          "time": 264.5,
          "velocity": 0.33070866141732286,
          "duration": 0.5
        },
        {
          "name": "C5",
          "midi": 72,
          "time": 265,
          "velocity": 0.7874015748031497,
          "duration": 0.5
        },
        {
          "name": "C4",
          "midi": 60,
          "time": 265,
          "velocity": 0.33070866141732286,
          "duration": 0.5
        },
        {
          "name": "A#4",
          "midi": 70,
          "time": 265.5,
          "velocity": 0.7874015748031497,
          "duration": 1
        },
        {
          "name": "A#3",
          "midi": 58,
          "time": 265.5,
          "velocity": 0.33070866141732286,
          "duration": 1
        },
        {
          "name": "A#4",
          "midi": 70,
          "time": 266.5,
          "velocity": 0.7874015748031497,
          "duration": 0.5
        },
        {
          "name": "A#3",
          "midi": 58,
          "time": 266.5,
          "velocity": 0.33070866141732286,
          "duration": 0.5
        },
        {
          "name": "C5",
          "midi": 72,
          "time": 267,
          "velocity": 0.7874015748031497,
          "duration": 0.5
        },
        {
          "name": "C4",
          "midi": 60,
          "time": 267,
          "velocity": 0.33070866141732286,
          "duration": 0.5
        },
        {
          "name": "A#4",
          "midi": 70,
          "time": 267.5,
          "velocity": 0.7874015748031497,
          "duration": 1
        },
        {
          "name": "A#3",
          "midi": 58,
          "time": 267.5,
          "velocity": 0.33070866141732286,
          "duration": 1
        },
        {
          "name": "F5",
          "midi": 77,
          "time": 268.5,
          "velocity": 0.7874015748031497,
          "duration": 0.5
        },
        {
          "name": "F4",
          "midi": 65,
          "time": 268.5,
          "velocity": 0.33070866141732286,
          "duration": 0.5
        },
        {
          "name": "F5",
          "midi": 77,
          "time": 269,
          "velocity": 0.7874015748031497,
          "duration": 0.5
        },
        {
          "name": "F4",
          "midi": 65,
          "time": 269,
          "velocity": 0.33070866141732286,
          "duration": 0.5
        },
        {
          "name": "F5",
          "midi": 77,
          "time": 269.5,
          "velocity": 0.7874015748031497,
          "duration": 1
        },
        {
          "name": "F4",
          "midi": 65,
          "time": 269.5,
          "velocity": 0.33070866141732286,
          "duration": 1
        },
        {
          "name": "D#5",
          "midi": 75,
          "time": 270.5,
          "velocity": 0.7874015748031497,
          "duration": 0.5
        },
        {
          "name": "D#4",
          "midi": 63,
          "time": 270.5,
          "velocity": 0.33070866141732286,
          "duration": 0.5
        },
        {
          "name": "C5",
          "midi": 72,
          "time": 271,
          "velocity": 0.7874015748031497,
          "duration": 0.5
        },
        {
          "name": "C4",
          "midi": 60,
          "time": 271,
          "velocity": 0.33070866141732286,
          "duration": 0.5
        },
        {
          "name": "A#4",
          "midi": 70,
          "time": 271.5,
          "velocity": 0.7874015748031497,
          "duration": 0.5
        },
        {
          "name": "A#3",
          "midi": 58,
          "time": 271.5,
          "velocity": 0.33070866141732286,
          "duration": 0.5
        },
        {
          "name": "G#4",
          "midi": 68,
          "time": 272,
          "velocity": 0.7874015748031497,
          "duration": 0.5
        },
        {
          "name": "G#3",
          "midi": 56,
          "time": 272,
          "velocity": 0.33070866141732286,
          "duration": 0.5
        },
        {
          "name": "G5",
          "midi": 79,
          "time": 272.5,
          "velocity": 0.7874015748031497,
          "duration": 0.5
        },
        {
          "name": "G4",
          "midi": 67,
          "time": 272.5,
          "velocity": 0.33070866141732286,
          "duration": 0.5
        },
        {
          "name": "G#5",
          "midi": 80,
          "time": 273,
          "velocity": 0.7874015748031497,
          "duration": 0.5
        },
        {
          "name": "G#4",
          "midi": 68,
          "time": 273,
          "velocity": 0.33070866141732286,
          "duration": 0.5
        },
        {
          "name": "G5",
          "midi": 79,
          "time": 273.5,
          "velocity": 0.7874015748031497,
          "duration": 1
        },
        {
          "name": "G4",
          "midi": 67,
          "time": 273.5,
          "velocity": 0.33070866141732286,
          "duration": 1
        },
        {
          "name": "G5",
          "midi": 79,
          "time": 274.5,
          "velocity": 0.7874015748031497,
          "duration": 0.5
        },
        {
          "name": "G4",
          "midi": 67,
          "time": 274.5,
          "velocity": 0.33070866141732286,
          "duration": 0.5
        },
        {
          "name": "G#5",
          "midi": 80,
          "time": 275,
          "velocity": 0.7874015748031497,
          "duration": 0.5
        },
        {
          "name": "G#4",
          "midi": 68,
          "time": 275,
          "velocity": 0.33070866141732286,
          "duration": 0.5
        },
        {
          "name": "G5",
          "midi": 79,
          "time": 275.5,
          "velocity": 0.7874015748031497,
          "duration": 1
        },
        {
          "name": "G4",
          "midi": 67,
          "time": 275.5,
          "velocity": 0.33070866141732286,
          "duration": 1
        },
        {
          "name": "F5",
          "midi": 77,
          "time": 276.5,
          "velocity": 0.33070866141732286,
          "duration": 0.5
        },
        {
          "name": "F5",
          "midi": 77,
          "time": 277,
          "velocity": 0.33070866141732286,
          "duration": 0.5
        },
        {
          "name": "F5",
          "midi": 77,
          "time": 277.5,
          "velocity": 0.7874015748031497,
          "duration": 1
        },
        {
          "name": "F5",
          "midi": 77,
          "time": 278.5,
          "velocity": 0.7874015748031497,
          "duration": 0.5
        },
        {
          "name": "D#5",
          "midi": 75,
          "time": 278.5,
          "velocity": 0.33070866141732286,
          "duration": 0.5
        },
        {
          "name": "D#5",
          "midi": 75,
          "time": 279,
          "velocity": 0.7874015748031497,
          "duration": 0.5
        },
        {
          "name": "C5",
          "midi": 72,
          "time": 279,
          "velocity": 0.33070866141732286,
          "duration": 0.5
        },
        {
          "name": "C5",
          "midi": 72,
          "time": 279.5,
          "velocity": 0.7874015748031497,
          "duration": 0.5
        },
        {
          "name": "A#4",
          "midi": 70,
          "time": 279.5,
          "velocity": 0.33070866141732286,
          "duration": 0.5
        },
        {
          "name": "A#4",
          "midi": 70,
          "time": 280,
          "velocity": 0.7874015748031497,
          "duration": 0.5
        },
        {
          "name": "G#4",
          "midi": 68,
          "time": 280,
          "velocity": 0.33070866141732286,
          "duration": 0.5
        },
        {
          "name": "D#5",
          "midi": 75,
          "time": 280.5,
          "velocity": 0.7874015748031497,
          "duration": 1
        },
        {
          "name": "A#4",
          "midi": 70,
          "time": 280.5,
          "velocity": 0.33070866141732286,
          "duration": 0.5
        },
        {
          "name": "C5",
          "midi": 72,
          "time": 281,
          "velocity": 0.33070866141732286,
          "duration": 0.5
        },
        {
          "name": "A#4",
          "midi": 70,
          "time": 281.5,
          "velocity": 0.7874015748031497,
          "duration": 1
        },
        {
          "name": "G#4",
          "midi": 68,
          "time": 282.5,
          "velocity": 0.7874015748031497,
          "duration": 0.5
        },
        {
          "name": "A#4",
          "midi": 70,
          "time": 282.5,
          "velocity": 0.33070866141732286,
          "duration": 0.5
        },
        {
          "name": "A#4",
          "midi": 70,
          "time": 283,
          "velocity": 0.7874015748031497,
          "duration": 0.5
        },
        {
          "name": "C5",
          "midi": 72,
          "time": 283,
          "velocity": 0.33070866141732286,
          "duration": 0.5
        },
        {
          "name": "G#4",
          "midi": 68,
          "time": 283.5,
          "velocity": 0.7874015748031497,
          "duration": 0.5
        },
        {
          "name": "A#4",
          "midi": 70,
          "time": 283.5,
          "velocity": 0.33070866141732286,
          "duration": 0.5
        },
        {
          "name": "A#4",
          "midi": 70,
          "time": 284,
          "velocity": 0.7874015748031497,
          "duration": 0.5
        },
        {
          "name": "C5",
          "midi": 72,
          "time": 284.5,
          "velocity": 0.7874015748031497,
          "duration": 1
        },
        {
          "name": "F5",
          "midi": 77,
          "time": 284.5,
          "velocity": 0.33070866141732286,
          "duration": 0.5
        },
        {
          "name": "F5",
          "midi": 77,
          "time": 285,
          "velocity": 0.33070866141732286,
          "duration": 0.5
        },
        {
          "name": "F4",
          "midi": 65,
          "time": 285.5,
          "velocity": 0.7874015748031497,
          "duration": 1
        },
        {
          "name": "F5",
          "midi": 77,
          "time": 285.5,
          "velocity": 0.33070866141732286,
          "duration": 1
        },
        {
          "name": "F4",
          "midi": 65,
          "time": 286.5,
          "velocity": 0.7874015748031497,
          "duration": 0.5
        },
        {
          "name": "D#5",
          "midi": 75,
          "time": 286.5,
          "velocity": 0.33070866141732286,
          "duration": 0.5
        },
        {
          "name": "F4",
          "midi": 65,
          "time": 287,
          "velocity": 0.7874015748031497,
          "duration": 0.5
        },
        {
          "name": "C5",
          "midi": 72,
          "time": 287,
          "velocity": 0.33070866141732286,
          "duration": 0.5
        },
        {
          "name": "F4",
          "midi": 65,
          "time": 287.5,
          "velocity": 0.7874015748031497,
          "duration": 0.5
        },
        {
          "name": "A#4",
          "midi": 70,
          "time": 287.5,
          "velocity": 0.33070866141732286,
          "duration": 0.5
        },
        {
          "name": "D#4",
          "midi": 63,
          "time": 288,
          "velocity": 0.7874015748031497,
          "duration": 0.5
        },
        {
          "name": "G#4",
          "midi": 68,
          "time": 288,
          "velocity": 0.33070866141732286,
          "duration": 0.5
        },
        {
          "name": "F4",
          "midi": 65,
          "time": 288.5,
          "velocity": 0.7874015748031497,
          "duration": 1
        },
        {
          "name": "F4",
          "midi": 65,
          "time": 289.5,
          "velocity": 0.7874015748031497,
          "duration": 1
        },
        {
          "name": "F4",
          "midi": 65,
          "time": 290.5,
          "velocity": 0.7874015748031497,
          "duration": 2
        },
        {
          "name": "F#5",
          "midi": 78,
          "time": 420.5,
          "velocity": 0.7874015748031497,
          "duration": 0.5
        },
        {
          "name": "F#4",
          "midi": 66,
          "time": 420.5,
          "velocity": 0.33070866141732286,
          "duration": 0.5
        },
        {
          "name": "B4",
          "midi": 71,
          "time": 420.5,
          "velocity": 0.7874015748031497,
          "duration": 0.5
        },
        {
          "name": "F#5",
          "midi": 78,
          "time": 421,
          "velocity": 0.7874015748031497,
          "duration": 0.5
        },
        {
          "name": "F#4",
          "midi": 66,
          "time": 421,
          "velocity": 0.33070866141732286,
          "duration": 0.5
        },
        {
          "name": "B4",
          "midi": 71,
          "time": 421,
          "velocity": 0.7874015748031497,
          "duration": 0.5
        },
        {
          "name": "F#5",
          "midi": 78,
          "time": 421.5,
          "velocity": 0.7874015748031497,
          "duration": 1
        },
        {
          "name": "F#4",
          "midi": 66,
          "time": 421.5,
          "velocity": 0.33070866141732286,
          "duration": 1
        },
        {
          "name": "B4",
          "midi": 71,
          "time": 421.5,
          "velocity": 0.7874015748031497,
          "duration": 1
        },
        {
          "name": "E5",
          "midi": 76,
          "time": 422.5,
          "velocity": 0.7874015748031497,
          "duration": 0.5
        },
        {
          "name": "E4",
          "midi": 64,
          "time": 422.5,
          "velocity": 0.33070866141732286,
          "duration": 0.5
        },
        {
          "name": "C#5",
          "midi": 73,
          "time": 423,
          "velocity": 0.7874015748031497,
          "duration": 0.5
        },
        {
          "name": "C#4",
          "midi": 61,
          "time": 423,
          "velocity": 0.33070866141732286,
          "duration": 0.5
        },
        {
          "name": "B4",
          "midi": 71,
          "time": 423.5,
          "velocity": 0.7874015748031497,
          "duration": 0.5
        },
        {
          "name": "B3",
          "midi": 59,
          "time": 423.5,
          "velocity": 0.33070866141732286,
          "duration": 0.5
        },
        {
          "name": "A4",
          "midi": 69,
          "time": 424,
          "velocity": 0.7874015748031497,
          "duration": 0.5
        },
        {
          "name": "A3",
          "midi": 57,
          "time": 424,
          "velocity": 0.33070866141732286,
          "duration": 0.5
        },
        {
          "name": "B4",
          "midi": 71,
          "time": 424.5,
          "velocity": 0.7874015748031497,
          "duration": 0.5
        },
        {
          "name": "B3",
          "midi": 59,
          "time": 424.5,
          "velocity": 0.33070866141732286,
          "duration": 0.5
        },
        {
          "name": "C#5",
          "midi": 73,
          "time": 425,
          "velocity": 0.7874015748031497,
          "duration": 0.5
        },
        {
          "name": "C#4",
          "midi": 61,
          "time": 425,
          "velocity": 0.33070866141732286,
          "duration": 0.5
        },
        {
          "name": "B4",
          "midi": 71,
          "time": 425.5,
          "velocity": 0.7874015748031497,
          "duration": 1
        },
        {
          "name": "B3",
          "midi": 59,
          "time": 425.5,
          "velocity": 0.33070866141732286,
          "duration": 1
        },
        {
          "name": "B4",
          "midi": 71,
          "time": 426.5,
          "velocity": 0.7874015748031497,
          "duration": 0.5
        },
        {
          "name": "B3",
          "midi": 59,
          "time": 426.5,
          "velocity": 0.33070866141732286,
          "duration": 0.5
        },
        {
          "name": "C#5",
          "midi": 73,
          "time": 427,
          "velocity": 0.7874015748031497,
          "duration": 0.5
        },
        {
          "name": "C#4",
          "midi": 61,
          "time": 427,
          "velocity": 0.33070866141732286,
          "duration": 0.5
        },
        {
          "name": "B4",
          "midi": 71,
          "time": 427.5,
          "velocity": 0.7874015748031497,
          "duration": 1
        },
        {
          "name": "B3",
          "midi": 59,
          "time": 427.5,
          "velocity": 0.33070866141732286,
          "duration": 1
        },
        {
          "name": "F#5",
          "midi": 78,
          "time": 428.5,
          "velocity": 0.7874015748031497,
          "duration": 0.5
        },
        {
          "name": "F#4",
          "midi": 66,
          "time": 428.5,
          "velocity": 0.33070866141732286,
          "duration": 0.5
        },
        {
          "name": "B4",
          "midi": 71,
          "time": 428.5,
          "velocity": 0.7874015748031497,
          "duration": 0.5
        },
        {
          "name": "F#5",
          "midi": 78,
          "time": 429,
          "velocity": 0.7874015748031497,
          "duration": 0.5
        },
        {
          "name": "F#4",
          "midi": 66,
          "time": 429,
          "velocity": 0.33070866141732286,
          "duration": 0.5
        },
        {
          "name": "B4",
          "midi": 71,
          "time": 429,
          "velocity": 0.7874015748031497,
          "duration": 0.5
        },
        {
          "name": "F#5",
          "midi": 78,
          "time": 429.5,
          "velocity": 0.7874015748031497,
          "duration": 1
        },
        {
          "name": "F#4",
          "midi": 66,
          "time": 429.5,
          "velocity": 0.33070866141732286,
          "duration": 1
        },
        {
          "name": "B4",
          "midi": 71,
          "time": 429.5,
          "velocity": 0.7874015748031497,
          "duration": 1
        },
        {
          "name": "E5",
          "midi": 76,
          "time": 430.5,
          "velocity": 0.7874015748031497,
          "duration": 0.5
        },
        {
          "name": "E4",
          "midi": 64,
          "time": 430.5,
          "velocity": 0.33070866141732286,
          "duration": 0.5
        },
        {
          "name": "C#5",
          "midi": 73,
          "time": 431,
          "velocity": 0.7874015748031497,
          "duration": 0.5
        },
        {
          "name": "C#4",
          "midi": 61,
          "time": 431,
          "velocity": 0.33070866141732286,
          "duration": 0.5
        },
        {
          "name": "B4",
          "midi": 71,
          "time": 431.5,
          "velocity": 0.7874015748031497,
          "duration": 0.5
        },
        {
          "name": "B3",
          "midi": 59,
          "time": 431.5,
          "velocity": 0.33070866141732286,
          "duration": 0.5
        },
        {
          "name": "A4",
          "midi": 69,
          "time": 432,
          "velocity": 0.7874015748031497,
          "duration": 0.5
        },
        {
          "name": "A3",
          "midi": 57,
          "time": 432,
          "velocity": 0.33070866141732286,
          "duration": 0.5
        },
        {
          "name": "G#5",
          "midi": 80,
          "time": 432.5,
          "velocity": 0.7874015748031497,
          "duration": 0.5
        },
        {
          "name": "G#4",
          "midi": 68,
          "time": 432.5,
          "velocity": 0.33070866141732286,
          "duration": 0.5
        },
        {
          "name": "A5",
          "midi": 81,
          "time": 433,
          "velocity": 0.7874015748031497,
          "duration": 0.5
        },
        {
          "name": "A4",
          "midi": 69,
          "time": 433,
          "velocity": 0.33070866141732286,
          "duration": 0.5
        },
        {
          "name": "G#5",
          "midi": 80,
          "time": 433.5,
          "velocity": 0.7874015748031497,
          "duration": 1
        },
        {
          "name": "G#4",
          "midi": 68,
          "time": 433.5,
          "velocity": 0.33070866141732286,
          "duration": 1
        },
        {
          "name": "G#5",
          "midi": 80,
          "time": 434.5,
          "velocity": 0.7874015748031497,
          "duration": 0.5
        },
        {
          "name": "G#4",
          "midi": 68,
          "time": 434.5,
          "velocity": 0.33070866141732286,
          "duration": 0.5
        },
        {
          "name": "A5",
          "midi": 81,
          "time": 435,
          "velocity": 0.7874015748031497,
          "duration": 0.5
        },
        {
          "name": "A4",
          "midi": 69,
          "time": 435,
          "velocity": 0.33070866141732286,
          "duration": 0.5
        },
        {
          "name": "G#5",
          "midi": 80,
          "time": 435.5,
          "velocity": 0.7874015748031497,
          "duration": 1
        },
        {
          "name": "G#4",
          "midi": 68,
          "time": 435.5,
          "velocity": 0.33070866141732286,
          "duration": 1
        },
        {
          "name": "F#5",
          "midi": 78,
          "time": 436.5,
          "velocity": 0.33070866141732286,
          "duration": 0.5
        },
        {
          "name": "F#5",
          "midi": 78,
          "time": 437,
          "velocity": 0.33070866141732286,
          "duration": 0.5
        },
        {
          "name": "F#5",
          "midi": 78,
          "time": 437.5,
          "velocity": 0.7874015748031497,
          "duration": 1
        },
        {
          "name": "F#5",
          "midi": 78,
          "time": 438.5,
          "velocity": 0.7874015748031497,
          "duration": 0.5
        },
        {
          "name": "E5",
          "midi": 76,
          "time": 438.5,
          "velocity": 0.33070866141732286,
          "duration": 0.5
        },
        {
          "name": "E5",
          "midi": 76,
          "time": 439,
          "velocity": 0.7874015748031497,
          "duration": 0.5
        },
        {
          "name": "C#5",
          "midi": 73,
          "time": 439,
          "velocity": 0.33070866141732286,
          "duration": 0.5
        },
        {
          "name": "C#5",
          "midi": 73,
          "time": 439.5,
          "velocity": 0.7874015748031497,
          "duration": 0.5
        },
        {
          "name": "B4",
          "midi": 71,
          "time": 439.5,
          "velocity": 0.33070866141732286,
          "duration": 0.5
        },
        {
          "name": "B4",
          "midi": 71,
          "time": 440,
          "velocity": 0.7874015748031497,
          "duration": 0.5
        },
        {
          "name": "A4",
          "midi": 69,
          "time": 440,
          "velocity": 0.33070866141732286,
          "duration": 0.5
        },
        {
          "name": "E5",
          "midi": 76,
          "time": 440.5,
          "velocity": 0.7874015748031497,
          "duration": 1
        },
        {
          "name": "B4",
          "midi": 71,
          "time": 440.5,
          "velocity": 0.33070866141732286,
          "duration": 0.5
        },
        {
          "name": "C#5",
          "midi": 73,
          "time": 441,
          "velocity": 0.33070866141732286,
          "duration": 0.5
        },
        {
          "name": "B4",
          "midi": 71,
          "time": 441.5,
          "velocity": 0.7874015748031497,
          "duration": 1
        },
        {
          "name": "A4",
          "midi": 69,
          "time": 442.5,
          "velocity": 0.7874015748031497,
          "duration": 0.5
        },
        {
          "name": "B4",
          "midi": 71,
          "time": 442.5,
          "velocity": 0.33070866141732286,
          "duration": 0.5
        },
        {
          "name": "B4",
          "midi": 71,
          "time": 443,
          "velocity": 0.7874015748031497,
          "duration": 0.5
        },
        {
          "name": "C#5",
          "midi": 73,
          "time": 443,
          "velocity": 0.33070866141732286,
          "duration": 0.5
        },
        {
          "name": "A4",
          "midi": 69,
          "time": 443.5,
          "velocity": 0.7874015748031497,
          "duration": 0.5
        },
        {
          "name": "B4",
          "midi": 71,
          "time": 443.5,
          "velocity": 0.33070866141732286,
          "duration": 0.5
        },
        {
          "name": "B4",
          "midi": 71,
          "time": 444,
          "velocity": 0.7874015748031497,
          "duration": 0.5
        },
        {
          "name": "C#5",
          "midi": 73,
          "time": 444.5,
          "velocity": 0.7874015748031497,
          "duration": 1
        },
        {
          "name": "F#5",
          "midi": 78,
          "time": 444.5,
          "velocity": 0.33070866141732286,
          "duration": 0.5
        },
        {
          "name": "F#5",
          "midi": 78,
          "time": 445,
          "velocity": 0.33070866141732286,
          "duration": 0.5
        },
        {
          "name": "F#4",
          "midi": 66,
          "time": 445.5,
          "velocity": 0.7874015748031497,
          "duration": 1
        },
        {
          "name": "F#5",
          "midi": 78,
          "time": 445.5,
          "velocity": 0.33070866141732286,
          "duration": 1
        },
        {
          "name": "F#4",
          "midi": 66,
          "time": 446.5,
          "velocity": 0.7874015748031497,
          "duration": 0.5
        },
        {
          "name": "E5",
          "midi": 76,
          "time": 446.5,
          "velocity": 0.33070866141732286,
          "duration": 0.5
        },
        {
          "name": "F#4",
          "midi": 66,
          "time": 447,
          "velocity": 0.7874015748031497,
          "duration": 0.5
        },
        {
          "name": "C#5",
          "midi": 73,
          "time": 447,
          "velocity": 0.33070866141732286,
          "duration": 0.5
        },
        {
          "name": "F#4",
          "midi": 66,
          "time": 447.5,
          "velocity": 0.7874015748031497,
          "duration": 0.5
        },
        {
          "name": "B4",
          "midi": 71,
          "time": 447.5,
          "velocity": 0.33070866141732286,
          "duration": 0.5
        },
        {
          "name": "E4",
          "midi": 64,
          "time": 448,
          "velocity": 0.7874015748031497,
          "duration": 0.5
        },
        {
          "name": "A4",
          "midi": 69,
          "time": 448,
          "velocity": 0.33070866141732286,
          "duration": 0.5
        },
        {
          "name": "F#4",
          "midi": 66,
          "time": 448.5,
          "velocity": 0.7874015748031497,
          "duration": 1
        },
        {
          "name": "B4",
          "midi": 71,
          "time": 448.5,
          "velocity": 0.33858267716535434,
          "duration": 0.5
        },
        {
          "name": "C#5",
          "midi": 73,
          "time": 449,
          "velocity": 0.3228346456692913,
          "duration": 0.5
        },
        {
          "name": "A4",
          "midi": 69,
          "time": 449.5,
          "velocity": 0.7874015748031497,
          "duration": 0.5
        },
        {
          "name": "B4",
          "midi": 71,
          "time": 449.5,
          "velocity": 0.31496062992125984,
          "duration": 0.5
        },
        {
          "name": "A4",
          "midi": 69,
          "time": 450,
          "velocity": 0.36220472440944884,
          "duration": 0.5
        },
        {
          "name": "A4",
          "midi": 69,
          "time": 450.5,
          "velocity": 0.7874015748031497,
          "duration": 2
        },
        {
          "name": "F#4",
          "midi": 66,
          "time": 450.5,
          "velocity": 0.3464566929133858,
          "duration": 0.5
        },
        {
          "name": "F#5",
          "midi": 78,
          "time": 452.5,
          "velocity": 0.7874015748031497,
          "duration": 0.5
        },
        {
          "name": "F#4",
          "midi": 66,
          "time": 452.5,
          "velocity": 0.33070866141732286,
          "duration": 0.5
        },
        {
          "name": "F#5",
          "midi": 78,
          "time": 453,
          "velocity": 0.7874015748031497,
          "duration": 0.5
        },
        {
          "name": "F#4",
          "midi": 66,
          "time": 453,
          "velocity": 0.33070866141732286,
          "duration": 0.5
        },
        {
          "name": "F#5",
          "midi": 78,
          "time": 453.5,
          "velocity": 0.7874015748031497,
          "duration": 1
        },
        {
          "name": "F#4",
          "midi": 66,
          "time": 453.5,
          "velocity": 0.33070866141732286,
          "duration": 1
        },
        {
          "name": "E5",
          "midi": 76,
          "time": 454.5,
          "velocity": 0.7874015748031497,
          "duration": 0.5
        },
        {
          "name": "E4",
          "midi": 64,
          "time": 454.5,
          "velocity": 0.33070866141732286,
          "duration": 0.5
        },
        {
          "name": "C#5",
          "midi": 73,
          "time": 455,
          "velocity": 0.7874015748031497,
          "duration": 0.5
        },
        {
          "name": "C#4",
          "midi": 61,
          "time": 455,
          "velocity": 0.33070866141732286,
          "duration": 0.5
        },
        {
          "name": "B4",
          "midi": 71,
          "time": 455.5,
          "velocity": 0.7874015748031497,
          "duration": 0.5
        },
        {
          "name": "B3",
          "midi": 59,
          "time": 455.5,
          "velocity": 0.33070866141732286,
          "duration": 0.5
        },
        {
          "name": "A4",
          "midi": 69,
          "time": 456,
          "velocity": 0.7874015748031497,
          "duration": 0.5
        },
        {
          "name": "A3",
          "midi": 57,
          "time": 456,
          "velocity": 0.33070866141732286,
          "duration": 0.5
        },
        {
          "name": "B4",
          "midi": 71,
          "time": 456.5,
          "velocity": 0.7874015748031497,
          "duration": 0.5
        },
        {
          "name": "B3",
          "midi": 59,
          "time": 456.5,
          "velocity": 0.33070866141732286,
          "duration": 0.5
        },
        {
          "name": "C#5",
          "midi": 73,
          "time": 457,
          "velocity": 0.7874015748031497,
          "duration": 0.5
        },
        {
          "name": "C#4",
          "midi": 61,
          "time": 457,
          "velocity": 0.33070866141732286,
          "duration": 0.5
        },
        {
          "name": "B4",
          "midi": 71,
          "time": 457.5,
          "velocity": 0.7874015748031497,
          "duration": 1
        },
        {
          "name": "B3",
          "midi": 59,
          "time": 457.5,
          "velocity": 0.33070866141732286,
          "duration": 1
        },
        {
          "name": "B4",
          "midi": 71,
          "time": 458.5,
          "velocity": 0.7874015748031497,
          "duration": 0.5
        },
        {
          "name": "B3",
          "midi": 59,
          "time": 458.5,
          "velocity": 0.33070866141732286,
          "duration": 0.5
        },
        {
          "name": "C#5",
          "midi": 73,
          "time": 459,
          "velocity": 0.7874015748031497,
          "duration": 0.5
        },
        {
          "name": "C#4",
          "midi": 61,
          "time": 459,
          "velocity": 0.33070866141732286,
          "duration": 0.5
        },
        {
          "name": "B4",
          "midi": 71,
          "time": 459.5,
          "velocity": 0.7874015748031497,
          "duration": 1
        },
        {
          "name": "B3",
          "midi": 59,
          "time": 459.5,
          "velocity": 0.33070866141732286,
          "duration": 1
        },
        {
          "name": "F#5",
          "midi": 78,
          "time": 460.5,
          "velocity": 0.7874015748031497,
          "duration": 0.5
        },
        {
          "name": "F#4",
          "midi": 66,
          "time": 460.5,
          "velocity": 0.33070866141732286,
          "duration": 0.5
        },
        {
          "name": "F#5",
          "midi": 78,
          "time": 461,
          "velocity": 0.7874015748031497,
          "duration": 0.5
        },
        {
          "name": "F#4",
          "midi": 66,
          "time": 461,
          "velocity": 0.33070866141732286,
          "duration": 0.5
        },
        {
          "name": "F#5",
          "midi": 78,
          "time": 461.5,
          "velocity": 0.7874015748031497,
          "duration": 1
        },
        {
          "name": "F#4",
          "midi": 66,
          "time": 461.5,
          "velocity": 0.33070866141732286,
          "duration": 1
        },
        {
          "name": "E5",
          "midi": 76,
          "time": 462.5,
          "velocity": 0.7874015748031497,
          "duration": 0.5
        },
        {
          "name": "E4",
          "midi": 64,
          "time": 462.5,
          "velocity": 0.33070866141732286,
          "duration": 0.5
        },
        {
          "name": "C#5",
          "midi": 73,
          "time": 463,
          "velocity": 0.7874015748031497,
          "duration": 0.5
        },
        {
          "name": "C#4",
          "midi": 61,
          "time": 463,
          "velocity": 0.33070866141732286,
          "duration": 0.5
        },
        {
          "name": "B4",
          "midi": 71,
          "time": 463.5,
          "velocity": 0.7874015748031497,
          "duration": 0.5
        },
        {
          "name": "B3",
          "midi": 59,
          "time": 463.5,
          "velocity": 0.33070866141732286,
          "duration": 0.5
        },
        {
          "name": "A4",
          "midi": 69,
          "time": 464,
          "velocity": 0.7874015748031497,
          "duration": 0.5
        },
        {
          "name": "A3",
          "midi": 57,
          "time": 464,
          "velocity": 0.33070866141732286,
          "duration": 0.5
        },
        {
          "name": "G#5",
          "midi": 80,
          "time": 464.5,
          "velocity": 0.7874015748031497,
          "duration": 0.5
        },
        {
          "name": "G#4",
          "midi": 68,
          "time": 464.5,
          "velocity": 0.33070866141732286,
          "duration": 0.5
        },
        {
          "name": "A5",
          "midi": 81,
          "time": 465,
          "velocity": 0.7874015748031497,
          "duration": 0.5
        },
        {
          "name": "A4",
          "midi": 69,
          "time": 465,
          "velocity": 0.33070866141732286,
          "duration": 0.5
        },
        {
          "name": "G#5",
          "midi": 80,
          "time": 465.5,
          "velocity": 0.7874015748031497,
          "duration": 1
        },
        {
          "name": "G#4",
          "midi": 68,
          "time": 465.5,
          "velocity": 0.33070866141732286,
          "duration": 1
        },
        {
          "name": "G#5",
          "midi": 80,
          "time": 466.5,
          "velocity": 0.7874015748031497,
          "duration": 0.5
        },
        {
          "name": "G#4",
          "midi": 68,
          "time": 466.5,
          "velocity": 0.33070866141732286,
          "duration": 0.5
        },
        {
          "name": "A5",
          "midi": 81,
          "time": 467,
          "velocity": 0.7874015748031497,
          "duration": 0.5
        },
        {
          "name": "A4",
          "midi": 69,
          "time": 467,
          "velocity": 0.33070866141732286,
          "duration": 0.5
        },
        {
          "name": "G#5",
          "midi": 80,
          "time": 467.5,
          "velocity": 0.7874015748031497,
          "duration": 1
        },
        {
          "name": "G#4",
          "midi": 68,
          "time": 467.5,
          "velocity": 0.33070866141732286,
          "duration": 1
        },
        {
          "name": "F#5",
          "midi": 78,
          "time": 468.5,
          "velocity": 0.33070866141732286,
          "duration": 0.5
        },
        {
          "name": "F#5",
          "midi": 78,
          "time": 469,
          "velocity": 0.33070866141732286,
          "duration": 0.5
        },
        {
          "name": "A5",
          "midi": 81,
          "time": 469,
          "velocity": 0.7874015748031497,
          "duration": 1.5
        },
        {
          "name": "F#5",
          "midi": 78,
          "time": 470.5,
          "velocity": 0.7874015748031497,
          "duration": 0.5
        },
        {
          "name": "E5",
          "midi": 76,
          "time": 470.5,
          "velocity": 0.33070866141732286,
          "duration": 0.5
        },
        {
          "name": "E5",
          "midi": 76,
          "time": 471,
          "velocity": 0.7874015748031497,
          "duration": 0.5
        },
        {
          "name": "C#5",
          "midi": 73,
          "time": 471,
          "velocity": 0.33070866141732286,
          "duration": 0.5
        },
        {
          "name": "C#5",
          "midi": 73,
          "time": 471.5,
          "velocity": 0.7874015748031497,
          "duration": 0.5
        },
        {
          "name": "B4",
          "midi": 71,
          "time": 471.5,
          "velocity": 0.33070866141732286,
          "duration": 0.5
        },
        {
          "name": "B4",
          "midi": 71,
          "time": 472,
          "velocity": 0.7874015748031497,
          "duration": 0.5
        },
        {
          "name": "A4",
          "midi": 69,
          "time": 472,
          "velocity": 0.33070866141732286,
          "duration": 0.5
        },
        {
          "name": "E5",
          "midi": 76,
          "time": 472.5,
          "velocity": 0.7874015748031497,
          "duration": 1
        },
        {
          "name": "B4",
          "midi": 71,
          "time": 472.5,
          "velocity": 0.33070866141732286,
          "duration": 0.5
        },
        {
          "name": "C#5",
          "midi": 73,
          "time": 473,
          "velocity": 0.33070866141732286,
          "duration": 0.5
        },
        {
          "name": "B4",
          "midi": 71,
          "time": 473.5,
          "velocity": 0.7874015748031497,
          "duration": 1
        },
        {
          "name": "A4",
          "midi": 69,
          "time": 474.5,
          "velocity": 0.7874015748031497,
          "duration": 0.5
        },
        {
          "name": "B4",
          "midi": 71,
          "time": 474.5,
          "velocity": 0.33070866141732286,
          "duration": 0.5
        },
        {
          "name": "B4",
          "midi": 71,
          "time": 475,
          "velocity": 0.7874015748031497,
          "duration": 0.5
        },
        {
          "name": "C#5",
          "midi": 73,
          "time": 475,
          "velocity": 0.33070866141732286,
          "duration": 0.5
        },
        {
          "name": "A4",
          "midi": 69,
          "time": 475.5,
          "velocity": 0.7874015748031497,
          "duration": 0.5
        },
        {
          "name": "B4",
          "midi": 71,
          "time": 475.5,
          "velocity": 0.33070866141732286,
          "duration": 0.5
        },
        {
          "name": "B4",
          "midi": 71,
          "time": 476,
          "velocity": 0.7874015748031497,
          "duration": 0.5
        },
        {
          "name": "C#5",
          "midi": 73,
          "time": 476.5,
          "velocity": 0.7874015748031497,
          "duration": 1
        },
        {
          "name": "F#5",
          "midi": 78,
          "time": 476.5,
          "velocity": 0.33070866141732286,
          "duration": 0.5
        },
        {
          "name": "F#5",
          "midi": 78,
          "time": 477,
          "velocity": 0.33070866141732286,
          "duration": 0.5
        },
        {
          "name": "F#4",
          "midi": 66,
          "time": 477.5,
          "velocity": 0.7874015748031497,
          "duration": 1
        },
        {
          "name": "F#5",
          "midi": 78,
          "time": 477.5,
          "velocity": 0.33070866141732286,
          "duration": 1
        },
        {
          "name": "F#4",
          "midi": 66,
          "time": 478.5,
          "velocity": 0.7874015748031497,
          "duration": 0.5
        },
        {
          "name": "E5",
          "midi": 76,
          "time": 478.5,
          "velocity": 0.33070866141732286,
          "duration": 0.5
        },
        {
          "name": "F#4",
          "midi": 66,
          "time": 479,
          "velocity": 0.7874015748031497,
          "duration": 0.5
        },
        {
          "name": "C#5",
          "midi": 73,
          "time": 479,
          "velocity": 0.33070866141732286,
          "duration": 0.5
        },
        {
          "name": "F#4",
          "midi": 66,
          "time": 479.5,
          "velocity": 0.7874015748031497,
          "duration": 0.5
        },
        {
          "name": "B4",
          "midi": 71,
          "time": 479.5,
          "velocity": 0.33070866141732286,
          "duration": 0.5
        },
        {
          "name": "E4",
          "midi": 64,
          "time": 480,
          "velocity": 0.7874015748031497,
          "duration": 0.5
        },
        {
          "name": "A4",
          "midi": 69,
          "time": 480,
          "velocity": 0.33070866141732286,
          "duration": 0.5
        },
        {
          "name": "F#4",
          "midi": 66,
          "time": 480.5,
          "velocity": 0.7874015748031497,
          "duration": 1
        },
        {
          "name": "F#4",
          "midi": 66,
          "time": 481.5,
          "velocity": 0.7874015748031497,
          "duration": 1
        },
        {
          "name": "F#4",
          "midi": 66,
          "time": 482.5,
          "velocity": 0.7874015748031497,
          "duration": 2
        }
      ],
      "controlChanges": {
        "1": [
          {
            "number": 1,
            "time": 0.40833333333333327,
            "value": 0
          }
        ],
        "6": [
          {
            "number": 6,
            "time": 0.4104166666666666,
            "value": 0.5039370078740157
          },
          {
            "number": 6,
            "time": 0.41874999999999996,
            "value": 0.5039370078740157
          },
          {
            "number": 6,
            "time": 0.42499999999999993,
            "value": 0.09448818897637795
          }
        ],
        "7": [
          {
            "number": 7,
            "time": 0.4020833333333333,
            "value": 0.7874015748031497
          }
        ],
        "10": [
          {
            "number": 10,
            "time": 0.39999999999999997,
            "value": 0.5039370078740157
          }
        ],
        "11": [
          {
            "number": 11,
            "time": 0.40624999999999994,
            "value": 1
          }
        ],
        "32": [
          {
            "number": 32,
            "time": 0.39375,
            "value": 0
          }
        ],
        "38": [
          {
            "number": 38,
            "time": 0.4104166666666666,
            "value": 0
          }
        ],
        "91": [
          {
            "number": 91,
            "time": 0.4041666666666666,
            "value": 0
          }
        ],
        "100": [
          {
            "number": 100,
            "time": 0.4104166666666666,
            "value": 0.007874015748031496
          },
          {
            "number": 100,
            "time": 0.41874999999999996,
            "value": 0.015748031496062992
          },
          {
            "number": 100,
            "time": 0.42499999999999993,
            "value": 0
          },
          {
            "number": 100,
            "time": 0.43333333333333324,
            "value": 1
          }
        ],
        "101": [
          {
            "number": 101,
            "time": 0.4104166666666666,
            "value": 0
          },
          {
            "number": 101,
            "time": 0.41874999999999996,
            "value": 0
          },
          {
            "number": 101,
            "time": 0.42499999999999993,
            "value": 0
          },
          {
            "number": 101,
            "time": 0.43333333333333324,
            "value": 1
          }
        ],
        "121": [
          {
            "number": 121,
            "time": 0.39166666666666666,
            "value": 0
          }
        ]
      },
      "id": 5,
      "name": "",
      "instrumentNumber": 0,
      "instrument": "acoustic grand piano",
      "instrumentFamily": "piano",
      "channelNumber": 3,
      "isPercussion": false
    },
    {
      "startTime": 0,
      "duration": 0,
      "length": 0,
      "notes": [],
      "controlChanges": {
        "1": [
          {
            "number": 1,
            "time": 0.40833333333333327,
            "value": 0
          }
        ],
        "6": [
          {
            "number": 6,
            "time": 0.4104166666666666,
            "value": 0.5039370078740157
          },
          {
            "number": 6,
            "time": 0.41874999999999996,
            "value": 0.5039370078740157
          },
          {
            "number": 6,
            "time": 0.42499999999999993,
            "value": 0.09448818897637795
          }
        ],
        "7": [
          {
            "number": 7,
            "time": 0.4020833333333333,
            "value": 0.7874015748031497
          }
        ],
        "10": [
          {
            "number": 10,
            "time": 0.39999999999999997,
            "value": 0.5039370078740157
          }
        ],
        "11": [
          {
            "number": 11,
            "time": 0.40624999999999994,
            "value": 1
          }
        ],
        "32": [
          {
            "number": 32,
            "time": 0.39375,
            "value": 0
          }
        ],
        "38": [
          {
            "number": 38,
            "time": 0.4104166666666666,
            "value": 0
          }
        ],
        "91": [
          {
            "number": 91,
            "time": 0.4041666666666666,
            "value": 0
          }
        ],
        "100": [
          {
            "number": 100,
            "time": 0.4104166666666666,
            "value": 0.007874015748031496
          },
          {
            "number": 100,
            "time": 0.41874999999999996,
            "value": 0.015748031496062992
          },
          {
            "number": 100,
            "time": 0.42499999999999993,
            "value": 0
          },
          {
            "number": 100,
            "time": 0.43333333333333324,
            "value": 1
          }
        ],
        "101": [
          {
            "number": 101,
            "time": 0.4104166666666666,
            "value": 0
          },
          {
            "number": 101,
            "time": 0.41874999999999996,
            "value": 0
          },
          {
            "number": 101,
            "time": 0.42499999999999993,
            "value": 0
          },
          {
            "number": 101,
            "time": 0.43333333333333324,
            "value": 1
          }
        ],
        "121": [
          {
            "number": 121,
            "time": 0.39166666666666666,
            "value": 0
          }
        ]
      },
      "id": 6,
      "name": "",
      "instrumentNumber": 0,
      "instrument": "acoustic grand piano",
      "instrumentFamily": "piano",
      "channelNumber": 4,
      "isPercussion": false
    },
    {
      "startTime": 0,
      "duration": 0,
      "length": 0,
      "notes": [],
      "controlChanges": {
        "1": [
          {
            "number": 1,
            "time": 0.40833333333333327,
            "value": 0
          }
        ],
        "6": [
          {
            "number": 6,
            "time": 0.4104166666666666,
            "value": 0.5039370078740157
          },
          {
            "number": 6,
            "time": 0.41874999999999996,
            "value": 0.5039370078740157
          },
          {
            "number": 6,
            "time": 0.42499999999999993,
            "value": 0.09448818897637795
          }
        ],
        "7": [
          {
            "number": 7,
            "time": 0.4020833333333333,
            "value": 0.7874015748031497
          }
        ],
        "10": [
          {
            "number": 10,
            "time": 0.39999999999999997,
            "value": 0.5039370078740157
          }
        ],
        "11": [
          {
            "number": 11,
            "time": 0.40624999999999994,
            "value": 1
          }
        ],
        "32": [
          {
            "number": 32,
            "time": 0.39375,
            "value": 0
          }
        ],
        "38": [
          {
            "number": 38,
            "time": 0.4104166666666666,
            "value": 0
          }
        ],
        "91": [
          {
            "number": 91,
            "time": 0.4041666666666666,
            "value": 0
          }
        ],
        "100": [
          {
            "number": 100,
            "time": 0.4104166666666666,
            "value": 0.007874015748031496
          },
          {
            "number": 100,
            "time": 0.41874999999999996,
            "value": 0.015748031496062992
          },
          {
            "number": 100,
            "time": 0.42499999999999993,
            "value": 0
          },
          {
            "number": 100,
            "time": 0.43333333333333324,
            "value": 1
          }
        ],
        "101": [
          {
            "number": 101,
            "time": 0.4104166666666666,
            "value": 0
          },
          {
            "number": 101,
            "time": 0.41874999999999996,
            "value": 0
          },
          {
            "number": 101,
            "time": 0.42499999999999993,
            "value": 0
          },
          {
            "number": 101,
            "time": 0.43333333333333324,
            "value": 1
          }
        ],
        "121": [
          {
            "number": 121,
            "time": 0.39166666666666666,
            "value": 0
          }
        ]
      },
      "id": 7,
      "name": "",
      "instrumentNumber": 0,
      "instrument": "acoustic grand piano",
      "instrumentFamily": "piano",
      "channelNumber": 5,
      "isPercussion": false
    },
    {
      "startTime": 0,
      "duration": 0,
      "length": 0,
      "notes": [],
      "controlChanges": {
        "1": [
          {
            "number": 1,
            "time": 0.40833333333333327,
            "value": 0
          }
        ],
        "6": [
          {
            "number": 6,
            "time": 0.4104166666666666,
            "value": 0.5039370078740157
          },
          {
            "number": 6,
            "time": 0.41874999999999996,
            "value": 0.5039370078740157
          },
          {
            "number": 6,
            "time": 0.42499999999999993,
            "value": 0.09448818897637795
          }
        ],
        "7": [
          {
            "number": 7,
            "time": 0.4020833333333333,
            "value": 0.7874015748031497
          }
        ],
        "10": [
          {
            "number": 10,
            "time": 0.39999999999999997,
            "value": 0.5039370078740157
          }
        ],
        "11": [
          {
            "number": 11,
            "time": 0.40624999999999994,
            "value": 1
          }
        ],
        "32": [
          {
            "number": 32,
            "time": 0.39375,
            "value": 0
          }
        ],
        "38": [
          {
            "number": 38,
            "time": 0.4104166666666666,
            "value": 0
          }
        ],
        "91": [
          {
            "number": 91,
            "time": 0.4041666666666666,
            "value": 0
          }
        ],
        "100": [
          {
            "number": 100,
            "time": 0.4104166666666666,
            "value": 0.007874015748031496
          },
          {
            "number": 100,
            "time": 0.41874999999999996,
            "value": 0.015748031496062992
          },
          {
            "number": 100,
            "time": 0.42499999999999993,
            "value": 0
          },
          {
            "number": 100,
            "time": 0.43333333333333324,
            "value": 1
          }
        ],
        "101": [
          {
            "number": 101,
            "time": 0.4104166666666666,
            "value": 0
          },
          {
            "number": 101,
            "time": 0.41874999999999996,
            "value": 0
          },
          {
            "number": 101,
            "time": 0.42499999999999993,
            "value": 0
          },
          {
            "number": 101,
            "time": 0.43333333333333324,
            "value": 1
          }
        ],
        "121": [
          {
            "number": 121,
            "time": 0.39166666666666666,
            "value": 0
          }
        ]
      },
      "id": 8,
      "name": "",
      "instrumentNumber": 0,
      "instrument": "acoustic grand piano",
      "instrumentFamily": "piano",
      "channelNumber": 6,
      "isPercussion": false
    },
    {
      "startTime": 0,
      "duration": 0,
      "length": 0,
      "notes": [],
      "controlChanges": {
        "1": [
          {
            "number": 1,
            "time": 0.40833333333333327,
            "value": 0
          }
        ],
        "6": [
          {
            "number": 6,
            "time": 0.4104166666666666,
            "value": 0.5039370078740157
          },
          {
            "number": 6,
            "time": 0.41874999999999996,
            "value": 0.5039370078740157
          },
          {
            "number": 6,
            "time": 0.42499999999999993,
            "value": 0.09448818897637795
          }
        ],
        "7": [
          {
            "number": 7,
            "time": 0.4020833333333333,
            "value": 0.7874015748031497
          }
        ],
        "10": [
          {
            "number": 10,
            "time": 0.39999999999999997,
            "value": 0.5039370078740157
          }
        ],
        "11": [
          {
            "number": 11,
            "time": 0.40624999999999994,
            "value": 1
          }
        ],
        "32": [
          {
            "number": 32,
            "time": 0.39375,
            "value": 0
          }
        ],
        "38": [
          {
            "number": 38,
            "time": 0.4104166666666666,
            "value": 0
          }
        ],
        "91": [
          {
            "number": 91,
            "time": 0.4041666666666666,
            "value": 0
          }
        ],
        "100": [
          {
            "number": 100,
            "time": 0.4104166666666666,
            "value": 0.007874015748031496
          },
          {
            "number": 100,
            "time": 0.41874999999999996,
            "value": 0.015748031496062992
          },
          {
            "number": 100,
            "time": 0.42499999999999993,
            "value": 0
          },
          {
            "number": 100,
            "time": 0.43333333333333324,
            "value": 1
          }
        ],
        "101": [
          {
            "number": 101,
            "time": 0.4104166666666666,
            "value": 0
          },
          {
            "number": 101,
            "time": 0.41874999999999996,
            "value": 0
          },
          {
            "number": 101,
            "time": 0.42499999999999993,
            "value": 0
          },
          {
            "number": 101,
            "time": 0.43333333333333324,
            "value": 1
          }
        ],
        "121": [
          {
            "number": 121,
            "time": 0.39166666666666666,
            "value": 0
          }
        ]
      },
      "id": 9,
      "name": "",
      "instrumentNumber": 0,
      "instrument": "acoustic grand piano",
      "instrumentFamily": "piano",
      "channelNumber": 7,
      "isPercussion": false
    },
    {
      "startTime": 0,
      "duration": 0,
      "length": 0,
      "notes": [],
      "controlChanges": {
        "1": [
          {
            "number": 1,
            "time": 0.40833333333333327,
            "value": 0
          }
        ],
        "6": [
          {
            "number": 6,
            "time": 0.4104166666666666,
            "value": 0.5039370078740157
          },
          {
            "number": 6,
            "time": 0.41874999999999996,
            "value": 0.5039370078740157
          },
          {
            "number": 6,
            "time": 0.42499999999999993,
            "value": 0.09448818897637795
          }
        ],
        "7": [
          {
            "number": 7,
            "time": 0.4020833333333333,
            "value": 0.7874015748031497
          }
        ],
        "10": [
          {
            "number": 10,
            "time": 0.39999999999999997,
            "value": 0.5039370078740157
          }
        ],
        "11": [
          {
            "number": 11,
            "time": 0.40624999999999994,
            "value": 1
          }
        ],
        "32": [
          {
            "number": 32,
            "time": 0.39375,
            "value": 0
          }
        ],
        "38": [
          {
            "number": 38,
            "time": 0.4104166666666666,
            "value": 0
          }
        ],
        "91": [
          {
            "number": 91,
            "time": 0.4041666666666666,
            "value": 0
          }
        ],
        "100": [
          {
            "number": 100,
            "time": 0.4104166666666666,
            "value": 0.007874015748031496
          },
          {
            "number": 100,
            "time": 0.41874999999999996,
            "value": 0.015748031496062992
          },
          {
            "number": 100,
            "time": 0.42499999999999993,
            "value": 0
          },
          {
            "number": 100,
            "time": 0.43333333333333324,
            "value": 1
          }
        ],
        "101": [
          {
            "number": 101,
            "time": 0.4104166666666666,
            "value": 0
          },
          {
            "number": 101,
            "time": 0.41874999999999996,
            "value": 0
          },
          {
            "number": 101,
            "time": 0.42499999999999993,
            "value": 0
          },
          {
            "number": 101,
            "time": 0.43333333333333324,
            "value": 1
          }
        ],
        "121": [
          {
            "number": 121,
            "time": 0.39166666666666666,
            "value": 0
          }
        ]
      },
      "id": 10,
      "name": "",
      "instrumentNumber": 0,
      "instrument": "acoustic grand piano",
      "instrumentFamily": "piano",
      "channelNumber": 8,
      "isPercussion": false
    },
    {
      "startTime": 0,
      "duration": 0,
      "length": 0,
      "notes": [],
      "controlChanges": {
        "1": [
          {
            "number": 1,
            "time": 0.4083333333333333,
            "value": 0
          }
        ],
        "6": [
          {
            "number": 6,
            "time": 0.41041666666666665,
            "value": 0.5039370078740157
          },
          {
            "number": 6,
            "time": 0.41875,
            "value": 0.5039370078740157
          },
          {
            "number": 6,
            "time": 0.425,
            "value": 0.09448818897637795
          }
        ],
        "7": [
          {
            "number": 7,
            "time": 0.40208333333333335,
            "value": 0.7874015748031497
          }
        ],
        "10": [
          {
            "number": 10,
            "time": 0.3333333333333333,
            "value": 0.8818897637795275
          }
        ],
        "11": [
          {
            "number": 11,
            "time": 0.40625,
            "value": 1
          }
        ],
        "32": [
          {
            "number": 32,
            "time": 0.39375,
            "value": 0
          }
        ],
        "38": [
          {
            "number": 38,
            "time": 0.41041666666666665,
            "value": 0
          }
        ],
        "91": [
          {
            "number": 91,
            "time": 0.4041666666666667,
            "value": 0
          }
        ],
        "100": [
          {
            "number": 100,
            "time": 0.41041666666666665,
            "value": 0.007874015748031496
          },
          {
            "number": 100,
            "time": 0.41875,
            "value": 0.015748031496062992
          },
          {
            "number": 100,
            "time": 0.425,
            "value": 0
          },
          {
            "number": 100,
            "time": 0.4333333333333333,
            "value": 1
          }
        ],
        "101": [
          {
            "number": 101,
            "time": 0.41041666666666665,
            "value": 0
          },
          {
            "number": 101,
            "time": 0.41875,
            "value": 0
          },
          {
            "number": 101,
            "time": 0.425,
            "value": 0
          },
          {
            "number": 101,
            "time": 0.4333333333333333,
            "value": 1
          }
        ],
        "121": [
          {
            "number": 121,
            "time": 0.39166666666666666,
            "value": 0
          }
        ]
      },
      "id": 11,
      "name": "",
      "instrumentNumber": 0,
      "instrument": "standard kit",
      "instrumentFamily": "drums",
      "channelNumber": 9,
      "isPercussion": true
    },
    {
      "startTime": 0,
      "duration": 0,
      "length": 0,
      "notes": [],
      "controlChanges": {
        "1": [
          {
            "number": 1,
            "time": 0.40833333333333327,
            "value": 0
          }
        ],
        "6": [
          {
            "number": 6,
            "time": 0.4104166666666666,
            "value": 0.5039370078740157
          },
          {
            "number": 6,
            "time": 0.41874999999999996,
            "value": 0.5039370078740157
          },
          {
            "number": 6,
            "time": 0.42499999999999993,
            "value": 0.09448818897637795
          }
        ],
        "7": [
          {
            "number": 7,
            "time": 0.4020833333333333,
            "value": 0.7874015748031497
          }
        ],
        "10": [
          {
            "number": 10,
            "time": 0.39999999999999997,
            "value": 0.5039370078740157
          }
        ],
        "11": [
          {
            "number": 11,
            "time": 0.40624999999999994,
            "value": 1
          }
        ],
        "32": [
          {
            "number": 32,
            "time": 0.39375,
            "value": 0
          }
        ],
        "38": [
          {
            "number": 38,
            "time": 0.4104166666666666,
            "value": 0
          }
        ],
        "91": [
          {
            "number": 91,
            "time": 0.4041666666666666,
            "value": 0
          }
        ],
        "100": [
          {
            "number": 100,
            "time": 0.4104166666666666,
            "value": 0.007874015748031496
          },
          {
            "number": 100,
            "time": 0.41874999999999996,
            "value": 0.015748031496062992
          },
          {
            "number": 100,
            "time": 0.42499999999999993,
            "value": 0
          },
          {
            "number": 100,
            "time": 0.43333333333333324,
            "value": 1
          }
        ],
        "101": [
          {
            "number": 101,
            "time": 0.4104166666666666,
            "value": 0
          },
          {
            "number": 101,
            "time": 0.41874999999999996,
            "value": 0
          },
          {
            "number": 101,
            "time": 0.42499999999999993,
            "value": 0
          },
          {
            "number": 101,
            "time": 0.43333333333333324,
            "value": 1
          }
        ],
        "121": [
          {
            "number": 121,
            "time": 0.39166666666666666,
            "value": 0
          }
        ]
      },
      "id": 12,
      "name": "",
      "instrumentNumber": 0,
      "instrument": "standard kit",
      "instrumentFamily": "drums",
      "channelNumber": 10,
      "isPercussion": true
    },
    {
      "startTime": 0,
      "duration": 0,
      "length": 0,
      "notes": [],
      "controlChanges": {
        "1": [
          {
            "number": 1,
            "time": 0.40833333333333327,
            "value": 0
          }
        ],
        "6": [
          {
            "number": 6,
            "time": 0.4104166666666666,
            "value": 0.5039370078740157
          },
          {
            "number": 6,
            "time": 0.41874999999999996,
            "value": 0.5039370078740157
          },
          {
            "number": 6,
            "time": 0.42499999999999993,
            "value": 0.09448818897637795
          }
        ],
        "7": [
          {
            "number": 7,
            "time": 0.4020833333333333,
            "value": 0.7874015748031497
          }
        ],
        "10": [
          {
            "number": 10,
            "time": 0.39999999999999997,
            "value": 0.5039370078740157
          }
        ],
        "11": [
          {
            "number": 11,
            "time": 0.40624999999999994,
            "value": 1
          }
        ],
        "32": [
          {
            "number": 32,
            "time": 0.39375,
            "value": 0
          }
        ],
        "38": [
          {
            "number": 38,
            "time": 0.4104166666666666,
            "value": 0
          }
        ],
        "91": [
          {
            "number": 91,
            "time": 0.4041666666666666,
            "value": 0
          }
        ],
        "100": [
          {
            "number": 100,
            "time": 0.4104166666666666,
            "value": 0.007874015748031496
          },
          {
            "number": 100,
            "time": 0.41874999999999996,
            "value": 0.015748031496062992
          },
          {
            "number": 100,
            "time": 0.42499999999999993,
            "value": 0
          },
          {
            "number": 100,
            "time": 0.43333333333333324,
            "value": 1
          }
        ],
        "101": [
          {
            "number": 101,
            "time": 0.4104166666666666,
            "value": 0
          },
          {
            "number": 101,
            "time": 0.41874999999999996,
            "value": 0
          },
          {
            "number": 101,
            "time": 0.42499999999999993,
            "value": 0
          },
          {
            "number": 101,
            "time": 0.43333333333333324,
            "value": 1
          }
        ],
        "121": [
          {
            "number": 121,
            "time": 0.39166666666666666,
            "value": 0
          }
        ]
      },
      "id": 13,
      "name": "",
      "instrumentNumber": 0,
      "instrument": "acoustic grand piano",
      "instrumentFamily": "piano",
      "channelNumber": 11,
      "isPercussion": false
    },
    {
      "startTime": 0,
      "duration": 0,
      "length": 0,
      "notes": [],
      "controlChanges": {
        "1": [
          {
            "number": 1,
            "time": 0.40833333333333327,
            "value": 0
          }
        ],
        "6": [
          {
            "number": 6,
            "time": 0.4104166666666666,
            "value": 0.5039370078740157
          },
          {
            "number": 6,
            "time": 0.41874999999999996,
            "value": 0.5039370078740157
          },
          {
            "number": 6,
            "time": 0.42499999999999993,
            "value": 0.09448818897637795
          }
        ],
        "7": [
          {
            "number": 7,
            "time": 0.4020833333333333,
            "value": 0.7874015748031497
          }
        ],
        "10": [
          {
            "number": 10,
            "time": 0.39999999999999997,
            "value": 0.5039370078740157
          }
        ],
        "11": [
          {
            "number": 11,
            "time": 0.40624999999999994,
            "value": 1
          }
        ],
        "32": [
          {
            "number": 32,
            "time": 0.39375,
            "value": 0
          }
        ],
        "38": [
          {
            "number": 38,
            "time": 0.4104166666666666,
            "value": 0
          }
        ],
        "91": [
          {
            "number": 91,
            "time": 0.4041666666666666,
            "value": 0
          }
        ],
        "100": [
          {
            "number": 100,
            "time": 0.4104166666666666,
            "value": 0.007874015748031496
          },
          {
            "number": 100,
            "time": 0.41874999999999996,
            "value": 0.015748031496062992
          },
          {
            "number": 100,
            "time": 0.42499999999999993,
            "value": 0
          },
          {
            "number": 100,
            "time": 0.43333333333333324,
            "value": 1
          }
        ],
        "101": [
          {
            "number": 101,
            "time": 0.4104166666666666,
            "value": 0
          },
          {
            "number": 101,
            "time": 0.41874999999999996,
            "value": 0
          },
          {
            "number": 101,
            "time": 0.42499999999999993,
            "value": 0
          },
          {
            "number": 101,
            "time": 0.43333333333333324,
            "value": 1
          }
        ],
        "121": [
          {
            "number": 121,
            "time": 0.39166666666666666,
            "value": 0
          }
        ]
      },
      "id": 14,
      "name": "",
      "instrumentNumber": 0,
      "instrument": "acoustic grand piano",
      "instrumentFamily": "piano",
      "channelNumber": 12,
      "isPercussion": false
    },
    {
      "startTime": 0,
      "duration": 0,
      "length": 0,
      "notes": [],
      "controlChanges": {
        "1": [
          {
            "number": 1,
            "time": 0.40833333333333327,
            "value": 0
          }
        ],
        "6": [
          {
            "number": 6,
            "time": 0.4104166666666666,
            "value": 0.5039370078740157
          },
          {
            "number": 6,
            "time": 0.41874999999999996,
            "value": 0.5039370078740157
          },
          {
            "number": 6,
            "time": 0.42499999999999993,
            "value": 0.09448818897637795
          }
        ],
        "7": [
          {
            "number": 7,
            "time": 0.4020833333333333,
            "value": 0.7874015748031497
          }
        ],
        "10": [
          {
            "number": 10,
            "time": 0.39999999999999997,
            "value": 0.5039370078740157
          }
        ],
        "11": [
          {
            "number": 11,
            "time": 0.40624999999999994,
            "value": 1
          }
        ],
        "32": [
          {
            "number": 32,
            "time": 0.39375,
            "value": 0
          }
        ],
        "38": [
          {
            "number": 38,
            "time": 0.4104166666666666,
            "value": 0
          }
        ],
        "91": [
          {
            "number": 91,
            "time": 0.4041666666666666,
            "value": 0
          }
        ],
        "100": [
          {
            "number": 100,
            "time": 0.4104166666666666,
            "value": 0.007874015748031496
          },
          {
            "number": 100,
            "time": 0.41874999999999996,
            "value": 0.015748031496062992
          },
          {
            "number": 100,
            "time": 0.42499999999999993,
            "value": 0
          },
          {
            "number": 100,
            "time": 0.43333333333333324,
            "value": 1
          }
        ],
        "101": [
          {
            "number": 101,
            "time": 0.4104166666666666,
            "value": 0
          },
          {
            "number": 101,
            "time": 0.41874999999999996,
            "value": 0
          },
          {
            "number": 101,
            "time": 0.42499999999999993,
            "value": 0
          },
          {
            "number": 101,
            "time": 0.43333333333333324,
            "value": 1
          }
        ],
        "121": [
          {
            "number": 121,
            "time": 0.39166666666666666,
            "value": 0
          }
        ]
      },
      "id": 15,
      "name": "",
      "instrumentNumber": 0,
      "instrument": "acoustic grand piano",
      "instrumentFamily": "piano",
      "channelNumber": 13,
      "isPercussion": false
    },
    {
      "startTime": 0,
      "duration": 0,
      "length": 0,
      "notes": [],
      "controlChanges": {
        "1": [
          {
            "number": 1,
            "time": 0.40833333333333327,
            "value": 0
          }
        ],
        "6": [
          {
            "number": 6,
            "time": 0.4104166666666666,
            "value": 0.5039370078740157
          },
          {
            "number": 6,
            "time": 0.41874999999999996,
            "value": 0.5039370078740157
          },
          {
            "number": 6,
            "time": 0.42499999999999993,
            "value": 0.09448818897637795
          }
        ],
        "7": [
          {
            "number": 7,
            "time": 0.4020833333333333,
            "value": 0.7874015748031497
          }
        ],
        "10": [
          {
            "number": 10,
            "time": 0.39999999999999997,
            "value": 0.5039370078740157
          }
        ],
        "11": [
          {
            "number": 11,
            "time": 0.40624999999999994,
            "value": 1
          }
        ],
        "32": [
          {
            "number": 32,
            "time": 0.39375,
            "value": 0
          }
        ],
        "38": [
          {
            "number": 38,
            "time": 0.4104166666666666,
            "value": 0
          }
        ],
        "91": [
          {
            "number": 91,
            "time": 0.4041666666666666,
            "value": 0
          }
        ],
        "100": [
          {
            "number": 100,
            "time": 0.4104166666666666,
            "value": 0.007874015748031496
          },
          {
            "number": 100,
            "time": 0.41874999999999996,
            "value": 0.015748031496062992
          },
          {
            "number": 100,
            "time": 0.42499999999999993,
            "value": 0
          },
          {
            "number": 100,
            "time": 0.43333333333333324,
            "value": 1
          }
        ],
        "101": [
          {
            "number": 101,
            "time": 0.4104166666666666,
            "value": 0
          },
          {
            "number": 101,
            "time": 0.41874999999999996,
            "value": 0
          },
          {
            "number": 101,
            "time": 0.42499999999999993,
            "value": 0
          },
          {
            "number": 101,
            "time": 0.43333333333333324,
            "value": 1
          }
        ],
        "121": [
          {
            "number": 121,
            "time": 0.39166666666666666,
            "value": 0
          }
        ]
      },
      "id": 16,
      "name": "",
      "instrumentNumber": 0,
      "instrument": "acoustic grand piano",
      "instrumentFamily": "piano",
      "channelNumber": 14,
      "isPercussion": false
    },
    {
      "startTime": 0,
      "duration": 0,
      "length": 0,
      "notes": [],
      "controlChanges": {
        "1": [
          {
            "number": 1,
            "time": 0.40833333333333327,
            "value": 0
          }
        ],
        "6": [
          {
            "number": 6,
            "time": 0.4104166666666666,
            "value": 0.5039370078740157
          },
          {
            "number": 6,
            "time": 0.41874999999999996,
            "value": 0.5039370078740157
          },
          {
            "number": 6,
            "time": 0.42499999999999993,
            "value": 0.09448818897637795
          }
        ],
        "7": [
          {
            "number": 7,
            "time": 0.4020833333333333,
            "value": 0.7874015748031497
          }
        ],
        "10": [
          {
            "number": 10,
            "time": 0.39999999999999997,
            "value": 0.5039370078740157
          }
        ],
        "11": [
          {
            "number": 11,
            "time": 0.40624999999999994,
            "value": 1
          }
        ],
        "32": [
          {
            "number": 32,
            "time": 0.39375,
            "value": 0
          }
        ],
        "38": [
          {
            "number": 38,
            "time": 0.4104166666666666,
            "value": 0
          }
        ],
        "91": [
          {
            "number": 91,
            "time": 0.4041666666666666,
            "value": 0
          }
        ],
        "100": [
          {
            "number": 100,
            "time": 0.4104166666666666,
            "value": 0.007874015748031496
          },
          {
            "number": 100,
            "time": 0.41874999999999996,
            "value": 0.015748031496062992
          },
          {
            "number": 100,
            "time": 0.42499999999999993,
            "value": 0
          },
          {
            "number": 100,
            "time": 0.43333333333333324,
            "value": 1
          }
        ],
        "101": [
          {
            "number": 101,
            "time": 0.4104166666666666,
            "value": 0
          },
          {
            "number": 101,
            "time": 0.41874999999999996,
            "value": 0
          },
          {
            "number": 101,
            "time": 0.42499999999999993,
            "value": 0
          },
          {
            "number": 101,
            "time": 0.43333333333333324,
            "value": 1
          }
        ],
        "121": [
          {
            "number": 121,
            "time": 0.39166666666666666,
            "value": 0
          }
        ]
      },
      "id": 17,
      "name": "",
      "instrumentNumber": 0,
      "instrument": "acoustic grand piano",
      "instrumentFamily": "piano",
      "channelNumber": 15,
      "isPercussion": false
    }
  ]
}