{
  "header": {
    "PPQ": 480,
    "bpm": 60,
    "timeSignature": [
      4,
      4
    ],
    "name": "System Setup"
  },
  "tempo": [
    {
      "absoluteTime": 0,
      "seconds": 0,
      "bpm": 60
    },
    {
      "absoluteTime": 240,
      "seconds": 0.5,
      "bpm": 166.00035966744593
    }
  ],
  "timeSignature": [
    {
      "absoluteTime": 0,
      "seconds": 0,
      "numerator": 1,
      "denominator": 3,
      "click": 24,
      "notesQ": 8
    },
    {
      "absoluteTime": 240,
      "seconds": 0.5,
      "numerator": 4,
      "denominator": 2,
      "click": 24,
      "notesQ": 8
    }
  ],
  "startTime": 0,
  "duration": 246.5,
  "tracks": [
    {
      "startTime": 0,
      "duration": 0,
      "length": 0,
      "notes": [],
      "controlChanges": {},
      "id": 0,
      "name": ""
    },
    {
      "startTime": 0,
      "duration": 0,
      "length": 0,
      "notes": [],
      "controlChanges": {},
      "id": 1,
      "name": "System Setup"
    },
    {
      "startTime": 1.5,
      "duration": 246.5,
      "length": 372,
      "notes": [
        {
          "name": "G#4",
          "midi": 68,
          "time": 1.5,
          "velocity": 1,
          "duration": 0.5
        },
        {
          "name": "F#4",
          "midi": 66,
          "time": 2,
          "velocity": 1,
          "duration": 0.5
        },
        {
          "name": "G#4",
          "midi": 68,
          "time": 2.5,
          "velocity": 1,
          "duration": 0.5
        },
        {
          "name": "F#4",
          "midi": 66,
          "time": 3,
          "velocity": 1,
          "duration": 0.5
        },
        {
          "name": "G#4",
          "midi": 68,
          "time": 3.5,
          "velocity": 1,
          "duration": 0.5
        },
        {
          "name": "F#4",
          "midi": 66,
          "time": 4,
          "velocity": 1,
          "duration": 0.5
        },
        {
          "name": "G#4",
          "midi": 68,
          "time": 4.5,
          "velocity": 1,
          "duration": 0.5
        },
        {
          "name": "F#4",
          "midi": 66,
          "time": 5,
          "velocity": 1,
          "duration": 0.5
        },
        {
          "name": "G#4",
          "midi": 68,
          "time": 5.5,
          "velocity": 1,
          "duration": 0.5
        },
        {
          "name": "F#4",
          "midi": 66,
          "time": 6,
          "velocity": 1,
          "duration": 0.5
        },
        {
          "name": "G#4",
          "midi": 68,
          "time": 6.5,
          "velocity": 1,
          "duration": 0.5
        },
        {
          "name": "F#4",
          "midi": 66,
          "time": 7,
          "velocity": 1,
          "duration": 0.5
        },
        {
          "name": "D#5",
          "midi": 75,
          "time": 7.5,
          "velocity": 1,
          "duration": 1
        },
        {
          "name": "G#4",
          "midi": 68,
          "time": 9.5,
          "velocity": 1,
          "duration": 0.5
        },
        {
          "name": "F#4",
          "midi": 66,
          "time": 10,
          "velocity": 1,
          "duration": 0.5
        },
        {
          "name": "G#4",
          "midi": 68,
          "time": 10.5,
          "velocity": 1,
          "duration": 0.5
        },
        {
          "name": "F#4",
          "midi": 66,
          "time": 11,
          "velocity": 1,
          "duration": 0.5
        },
        {
          "name": "G#4",
          "midi": 68,
          "time": 11.5,
          "velocity": 1,
          "duration": 0.5
        },
        {
          "name": "F#4",
          "midi": 66,
          "time": 12,
          "velocity": 1,
          "duration": 0.5
        },
        {
          "name": "G#4",
          "midi": 68,
          "time": 12.5,
          "velocity": 1,
          "duration": 0.5
        },
        {
          "name": "F#4",
          "midi": 66,
          "time": 13,
          "velocity": 1,
          "duration": 0.5
        },
        {
          "name": "G#4",
          "midi": 68,
          "time": 13.5,
          "velocity": 1,
          "duration": 0.5
        },
        {
          "name": "F#4",
          "midi": 66,
          "time": 14,
          "velocity": 1,
          "duration": 0.5
        },
        {
          "name": "G#4",
          "midi": 68,
          "time": 14.5,
          "velocity": 1,
          "duration": 0.5
        },
        {
          "name": "F#4",
          "midi": 66,
          "time": 15,
          "velocity": 1,
          "duration": 0.5
        },
        {
          "name": "D#5",
          "midi": 75,
          "time": 15.5,
          "velocity": 1,
          "duration": 1
        },
        {
          "name": "G#4",
          "midi": 68,
          "time": 16.5,
          "velocity": 1,
          "duration": 0.5
        },
        {
          "name": "D#5",
          "midi": 75,
          "time": 17,
          "velocity": 1,
          "duration": 0.5
        },
        {
          "name": "D#5",
          "midi": 75,
          "time": 17.5,
          "velocity": 1,
          "duration": 0.5
        },
        {
          "name": "D#5",
          "midi": 75,
          "time": 18,
          "velocity": 1,
          "duration": 0.5
        },
        {
          "name": "D#5",
          "midi": 75,
          "time": 18.5,
          "velocity": 1,
          "duration": 0.5
        },
        {
          "name": "G#4",
          "midi": 68,
          "time": 19,
          "velocity": 1,
          "duration": 0.5
        },
        {
          "name": "G#4",
          "midi": 68,
          "time": 19.5,
          "velocity": 1,
          "duration": 0.5
        },
        {
          "name": "F#4",
          "midi": 66,
          "time": 20,
          "velocity": 1,
          "duration": 0.5
        },
        {
          "name": "G#4",
          "midi": 68,
          "time": 20.5,
          "velocity": 1,
          "duration": 0.5
        },
        {
          "name": "F#4",
          "midi": 66,
          "time": 21,
          "velocity": 1,
          "duration": 0.5
        },
        {
          "name": "G#4",
          "midi": 68,
          "time": 21.5,
          "velocity": 1,
          "duration": 0.5
        },
        {
          "name": "F#4",
          "midi": 66,
          "time": 22,
          "velocity": 1,
          "duration": 0.5
        },
        {
          "name": "G#4",
          "midi": 68,
          "time": 22.5,
          "velocity": 1,
          "duration": 0.5
        },
        {
          "name": "F#4",
          "midi": 66,
          "time": 23,
          "velocity": 1,
          "duration": 0.5
        },
        {
          "name": "D#5",
          "midi": 75,
          "time": 23.5,
          "velocity": 1,
          "duration": 1
        },
        {
          "name": "G#4",
          "midi": 68,
          "time": 25.5,
          "velocity": 1,
          "duration": 1
        },
        {
          "name": "G#4",
          "midi": 68,
          "time": 26.5,
          "velocity": 1,
          "duration": 0.5
        },
        {
          "name": "F#4",
          "midi": 66,
          "time": 27,
          "velocity": 1,
          "duration": 0.5
        },
        {
          "name": "G#4",
          "midi": 68,
          "time": 27.5,
          "velocity": 1,
          "duration": 0.5
        },
        {
          "name": "F#4",
          "midi": 66,
          "time": 28,
          "velocity": 1,
          "duration": 0.5
        },
        {
          "name": "G#4",
          "midi": 68,
          "time": 28.5,
          "velocity": 1,
          "duration": 0.5
        },
        {
          "name": "F#4",
          "midi": 66,
          "time": 29,
          "velocity": 1,
          "duration": 0.5
        },
        {
          "name": "G#4",
          "midi": 68,
          "time": 29.5,
          "velocity": 1,
          "duration": 0.5
        },
        {
          "name": "F#4",
          "midi": 66,
          "time": 30,
          "velocity": 1,
          "duration": 0.5
        },
        {
          "name": "G#4",
          "midi": 68,
          "time": 30.5,
          "velocity": 1,
          "duration": 0.5
        },
        {
          "name": "F#4",
          "midi": 66,
          "time": 31,
          "velocity": 1,
          "duration": 0.5
        },
        {
          "name": "D#5",
          "midi": 75,
          "time": 31.5,
          "velocity": 1,
          "duration": 1
        },
        {
          "name": "G#4",
          "midi": 68,
          "time": 32.5,
          "velocity": 1,
          "duration": 1
        },
        {
          "name": "G#3",
          "midi": 56,
          "time": 32.5,
          "velocity": 1,
          "duration": 1
        },
        {
          "name": "G#4",
          "midi": 68,
          "time": 33.5,
          "velocity": 1,
          "duration": 1
        },
        {
          "name": "G#3",
          "midi": 56,
          "time": 33.5,
          "velocity": 1,
          "duration": 1
        },
        {
          "name": "G#4",
          "midi": 68,
          "time": 34.5,
          "velocity": 1,
          "duration": 1
        },
        {
          "name": "G#3",
          "midi": 56,
          "time": 34.5,
          "velocity": 1,
          "duration": 1
        },
        {
          "name": "F#3",
          "midi": 54,
          "time": 35.5,
          "velocity": 1,
          "duration": 0.5
        },
        {
          "name": "F#4",
          "midi": 66,
          "time": 35.5,
          "velocity": 1,
          "duration": 0.5
        },
        {
          "name": "G#4",
          "midi": 68,
          "time": 36,
          "velocity": 1,
          "duration": 1
        },
        {
          "name": "G#3",
          "midi": 56,
          "time": 36,
          "velocity": 1,
          "duration": 1
        },
        {
          "name": "G#3",
          "midi": 56,
          "time": 37,
          "velocity": 1,
          "duration": 1
        },
        {
          "name": "G#4",
          "midi": 68,
          "time": 37,
          "velocity": 1,
          "duration": 1
        },
        {
          "name": "F#4",
          "midi": 66,
          "time": 38,
          "velocity": 1,
          "duration": 0.5
        },
        {
          "name": "F#3",
          "midi": 54,
          "time": 38,
          "velocity": 1,
          "duration": 0.5
        },
        {
          "name": "G#4",
          "midi": 68,
          "time": 38.5,
          "velocity": 1,
          "duration": 2
        },
        {
          "name": "G#3",
          "midi": 56,
          "time": 38.5,
          "velocity": 1,
          "duration": 2
        },
        {
          "name": "D#4",
          "midi": 63,
          "time": 47.5,
          "velocity": 1,
          "duration": 1
        },
        {
          "name": "G#4",
          "midi": 68,
          "time": 48.5,
          "velocity": 1,
          "duration": 0.5
        },
        {
          "name": "B4",
          "midi": 71,
          "time": 49,
          "velocity": 1,
          "duration": 0.5
        },
        {
          "name": "F#4",
          "midi": 66,
          "time": 49.5,
          "velocity": 1,
          "duration": 0.5
        },
        {
          "name": "G#4",
          "midi": 68,
          "time": 50,
          "velocity": 1,
          "duration": 0.5
        },
        {
          "name": "D#4",
          "midi": 63,
          "time": 50.5,
          "velocity": 1,
          "duration": 1
        },
        {
          "name": "D#4",
          "midi": 63,
          "time": 52,
          "velocity": 1,
          "duration": 0.5
        },
        {
          "name": "G#4",
          "midi": 68,
          "time": 52.5,
          "velocity": 1,
          "duration": 0.5
        },
        {
          "name": "B4",
          "midi": 71,
          "time": 53,
          "velocity": 1,
          "duration": 0.5
        },
        {
          "name": "F#4",
          "midi": 66,
          "time": 53.5,
          "velocity": 1,
          "duration": 0.5
        },
        {
          "name": "C#4",
          "midi": 61,
          "time": 54,
          "velocity": 1,
          "duration": 0.5
        },
        {
          "name": "D#4",
          "midi": 63,
          "time": 54.5,
          "velocity": 1,
          "duration": 1
        },
        {
          "name": "D#4",
          "midi": 63,
          "time": 56,
          "velocity": 1,
          "duration": 0.5
        },
        {
          "name": "G#4",
          "midi": 68,
          "time": 56.5,
          "velocity": 1,
          "duration": 0.5
        },
        {
          "name": "B4",
          "midi": 71,
          "time": 57,
          "velocity": 1,
          "duration": 0.5
        },
        {
          "name": "F#4",
          "midi": 66,
          "time": 57.5,
          "velocity": 1,
          "duration": 0.5
        },
        {
          "name": "G#4",
          "midi": 68,
          "time": 58,
          "velocity": 1,
          "duration": 0.5
        },
        {
          "name": "D#4",
          "midi": 63,
          "time": 58.5,
          "velocity": 1,
          "duration": 0.5
        },
        {
          "name": "F#4",
          "midi": 66,
          "time": 59,
          "velocity": 1,
          "duration": 0.5
        },
        {
          "name": "C#4",
          "midi": 61,
          "time": 59.5,
          "velocity": 1,
          "duration": 0.5
        },
        {
          "name": "G#3",
          "midi": 56,
          "time": 60,
          "velocity": 1,
          "duration": 0.5
        },
        {
          "name": "C#4",
          "midi": 61,
          "time": 60.5,
          "velocity": 1,
          "duration": 0.5
        },
        {
          "name": "D#4",
          "midi": 63,
          "time": 61,
          "velocity": 1,
          "duration": 0.5
        },
        {
          "name": "C#4",
          "midi": 61,
          "time": 61.5,
          "velocity": 1,
          "duration": 0.5
        },
        {
          "name": "D#4",
          "midi": 63,
          "time": 62,
          "velocity": 1,
          "duration": 0.5
        },
        {
          "name": "G#3",
          "midi": 56,
          "time": 62.5,
          "velocity": 1,
          "duration": 1
        },
        {
          "name": "D#4",
          "midi": 63,
          "time": 64,
          "velocity": 1,
          "duration": 0.25
        },
        {
          "name": "D#4",
          "midi": 63,
          "time": 64.25,
          "velocity": 1,
          "duration": 0.25
        },
        {
          "name": "G#4",
          "midi": 68,
          "time": 64.5,
          "velocity": 1,
          "duration": 0.5
        },
        {
          "name": "B4",
          "midi": 71,
          "time": 65,
          "velocity": 1,
          "duration": 0.5
        },
        {
          "name": "F#4",
          "midi": 66,
          "time": 65.5,
          "velocity": 1,
          "duration": 0.5
        },
        {
          "name": "C#4",
          "midi": 61,
          "time": 66,
          "velocity": 1,
          "duration": 0.5
        },
        {
          "name": "D#4",
          "midi": 63,
          "time": 66.5,
          "velocity": 1,
          "duration": 1
        },
        {
          "name": "D#4",
          "midi": 63,
          "time": 68,
          "velocity": 1,
          "duration": 0.5
        },
        {
          "name": "G#4",
          "midi": 68,
          "time": 68.5,
          "velocity": 1,
          "duration": 0.5
        },
        {
          "name": "B4",
          "midi": 71,
          "time": 69,
          "velocity": 1,
          "duration": 0.5
        },
        {
          "name": "F#4",
          "midi": 66,
          "time": 69.5,
          "velocity": 1,
          "duration": 0.5
        },
        {
          "name": "G#4",
          "midi": 68,
          "time": 70,
          "velocity": 1,
          "duration": 0.5
        },
        {
          "name": "G#4",
          "midi": 68,
          "time": 70.5,
          "velocity": 1,
          "duration": 1
        },
        {
          "name": "D#4",
          "midi": 63,
          "time": 72,
          "velocity": 1,
          "duration": 0.5
        },
        {
          "name": "G#4",
          "midi": 68,
          "time": 72.5,
          "velocity": 1,
          "duration": 0.5
        },
        {
          "name": "B4",
          "midi": 71,
          "time": 73,
          "velocity": 1,
          "duration": 0.5
        },
        {
          "name": "F#4",
          "midi": 66,
          "time": 73.5,
          "velocity": 1,
          "duration": 0.5
        },
        {
          "name": "G#4",
          "midi": 68,
          "time": 74,
          "velocity": 1,
          "duration": 0.5
        },
        {
          "name": "D#4",
          "midi": 63,
          "time": 74.5,
          "velocity": 1,
          "duration": 0.5
        },
        {
          "name": "F#4",
          "midi": 66,
          "time": 75,
          "velocity": 1,
          "duration": 0.5
        },
        {
          "name": "C#4",
          "midi": 61,
          "time": 75.5,
          "velocity": 1,
          "duration": 0.5
        },
        {
          "name": "G#3",
          "midi": 56,
          "time": 76,
          "velocity": 1,
          "duration": 0.5
        },
        {
          "name": "C#4",
          "midi": 61,
          "time": 76.5,
          "velocity": 1,
          "duration": 0.5
        },
        {
          "name": "D#4",
          "midi": 63,
          "time": 77,
          "velocity": 1,
          "duration": 0.5
        },
        {
          "name": "C#4",
          "midi": 61,
          "time": 77.5,
          "velocity": 1,
          "duration": 0.5
        },
        {
          "name": "D#4",
          "midi": 63,
          "time": 78,
          "velocity": 1,
          "duration": 0.5
        },
        {
          "name": "G#3",
          "midi": 56,
          "time": 78.5,
          "velocity": 1,
          "duration": 1
        },
        {
          "name": "G#3",
          "midi": 56,
          "time": 79.5,
          "velocity": 1,
          "duration": 1
        },
        {
          "name": "D#4",
          "midi": 63,
          "time": 80.5,
          "velocity": 1,
          "duration": 0.75
        },
        {
          "name": "B3",
          "midi": 59,
          "time": 80.5,
          "velocity": 1,
          "duration": 0.75
        },
        {
          "name": "D#4",
          "midi": 63,
          "time": 81.25,
          "velocity": 1,
          "duration": 0.75
        },
        {
          "name": "B3",
          "midi": 59,
          "time": 81.25,
          "velocity": 1,
          "duration": 0.75
        },
        {
          "name": "D#4",
          "midi": 63,
          "time": 82,
          "velocity": 1,
          "duration": 1
        },
        {
          "name": "A#3",
          "midi": 58,
          "time": 82,
          "velocity": 1,
          "duration": 1
        },
        {
          "name": "G#3",
          "midi": 56,
          "time": 83,
          "velocity": 1,
          "duration": 0.5
        },
        {
          "name": "B3",
          "midi": 59,
          "time": 83.5,
          "velocity": 1,
          "duration": 0.5
        },
        {
          "name": "C#4",
          "midi": 61,
          "time": 84,
          "velocity": 1,
          "duration": 0.5
        },
        {
          "name": "D#4",
          "midi": 63,
          "time": 84.5,
          "velocity": 1,
          "duration": 0.75
        },
        {
          "name": "B3",
          "midi": 59,
          "time": 84.5,
          "velocity": 1,
          "duration": 0.75
        },
        {
          "name": "D#4",
          "midi": 63,
          "time": 85.25,
          "velocity": 1,
          "duration": 0.75
        },
        {
          "name": "B3",
          "midi": 59,
          "time": 85.25,
          "velocity": 1,
          "duration": 0.75
        },
        {
          "name": "D#4",
          "midi": 63,
          "time": 86,
          "velocity": 1,
          "duration": 1
        },
        {
          "name": "B3",
          "midi": 59,
          "time": 86,
          "velocity": 1,
          "duration": 1
        },
        {
          "name": "G#3",
          "midi": 56,
          "time": 87,
          "velocity": 1,
          "duration": 0.5
        },
        {
          "name": "B3",
          "midi": 59,
          "time": 87.5,
          "velocity": 1,
          "duration": 0.5
        },
        {
          "name": "C#4",
          "midi": 61,
          "time": 88,
          "velocity": 1,
          "duration": 0.5
        },
        {
          "name": "D#4",
          "midi": 63,
          "time": 88.5,
          "velocity": 1,
          "duration": 0.5
        },
        {
          "name": "F#4",
          "midi": 66,
          "time": 89,
          "velocity": 1,
          "duration": 0.5
        },
        {
          "name": "D#4",
          "midi": 63,
          "time": 89.5,
          "velocity": 1,
          "duration": 1
        },
        {
          "name": "D#4",
          "midi": 63,
          "time": 90.5,
          "velocity": 1,
          "duration": 0.5
        },
        {
          "name": "F#4",
          "midi": 66,
          "time": 91,
          "velocity": 1,
          "duration": 0.5
        },
        {
          "name": "D#4",
          "midi": 63,
          "time": 91.5,
          "velocity": 1,
          "duration": 1
        },
        {
          "name": "D#4",
          "midi": 63,
          "time": 92.5,
          "velocity": 1,
          "duration": 0.5
        },
        {
          "name": "F#4",
          "midi": 66,
          "time": 93,
          "velocity": 1,
          "duration": 0.5
        },
        {
          "name": "D#4",
          "midi": 63,
          "time": 93.5,
          "velocity": 1,
          "duration": 0.5
        },
        {
          "name": "F#4",
          "midi": 66,
          "time": 94,
          "velocity": 1,
          "duration": 0.5
        },
        {
          "name": "G#4",
          "midi": 68,
          "time": 94.5,
          "velocity": 1,
          "duration": 1
        },
        {
          "name": "G#3",
          "midi": 56,
          "time": 95,
          "velocity": 1,
          "duration": 0.5
        },
        {
          "name": "B3",
          "midi": 59,
          "time": 95.5,
          "velocity": 1,
          "duration": 0.5
        },
        {
          "name": "C#4",
          "midi": 61,
          "time": 96,
          "velocity": 1,
          "duration": 0.5
        },
        {
          "name": "D#4",
          "midi": 63,
          "time": 96.5,
          "velocity": 1,
          "duration": 0.75
        },
        {
          "name": "B3",
          "midi": 59,
          "time": 96.5,
          "velocity": 1,
          "duration": 0.75
        },
        {
          "name": "D#4",
          "midi": 63,
          "time": 97.25,
          "velocity": 1,
          "duration": 0.75
        },
        {
          "name": "B3",
          "midi": 59,
          "time": 97.25,
          "velocity": 1,
          "duration": 0.75
        },
        {
          "name": "D#4",
          "midi": 63,
          "time": 98,
          "velocity": 1,
          "duration": 1
        },
        {
          "name": "A#3",
          "midi": 58,
          "time": 98,
          "velocity": 1,
          "duration": 1
        },
        {
          "name": "G#3",
          "midi": 56,
          "time": 99,
          "velocity": 1,
          "duration": 0.5
        },
        {
          "name": "B3",
          "midi": 59,
          "time": 99.5,
          "velocity": 1,
          "duration": 0.5
        },
        {
          "name": "C#4",
          "midi": 61,
          "time": 100,
          "velocity": 1,
          "duration": 0.5
        },
        {
          "name": "D#4",
          "midi": 63,
          "time": 100.5,
          "velocity": 1,
          "duration": 0.75
        },
        {
          "name": "B3",
          "midi": 59,
          "time": 100.5,
          "velocity": 1,
          "duration": 0.75
        },
        {
          "name": "D#4",
          "midi": 63,
          "time": 101.25,
          "velocity": 1,
          "duration": 0.75
        },
        {
          "name": "B3",
          "midi": 59,
          "time": 101.25,
          "velocity": 1,
          "duration": 0.75
        },
        {
          "name": "D#4",
          "midi": 63,
          "time": 102,
          "velocity": 1,
          "duration": 1
        },
        {
          "name": "B3",
          "midi": 59,
          "time": 102,
          "velocity": 1,
          "duration": 1
        },
        {
          "name": "G#3",
          "midi": 56,
          "time": 103,
          "velocity": 1,
          "duration": 0.25
        },
        {
          "name": "G#3",
          "midi": 56,
          "time": 103.25,
          "velocity": 1,
          "duration": 0.25
        },
        {
          "name": "B3",
          "midi": 59,
          "time": 103.5,
          "velocity": 1,
          "duration": 0.5
        },
        {
          "name": "C#4",
          "midi": 61,
          "time": 104,
          "velocity": 1,
          "duration": 0.5
        },
        {
          "name": "D#4",
          "midi": 63,
          "time": 104.5,
          "velocity": 1,
          "duration": 0.5
        },
        {
          "name": "F#4",
          "midi": 66,
          "time": 105,
          "velocity": 1,
          "duration": 0.5
        },
        {
          "name": "D#4",
          "midi": 63,
          "time": 105.5,
          "velocity": 1,
          "duration": 0.75
        },
        {
          "name": "D#4",
          "midi": 63,
          "time": 106.25,
          "velocity": 1,
          "duration": 0.25
        },
        {
          "name": "D#4",
          "midi": 63,
          "time": 106.5,
          "velocity": 1,
          "duration": 0.5
        },
        {
          "name": "F#4",
          "midi": 66,
          "time": 107,
          "velocity": 1,
          "duration": 0.5
        },
        {
          "name": "D#4",
          "midi": 63,
          "time": 107.5,
          "velocity": 1,
          "duration": 1
        },
        {
          "name": "G#4",
          "midi": 68,
          "time": 108,
          "velocity": 1,
          "duration": 0.5
        },
        {
          "name": "F#4",
          "midi": 66,
          "time": 109,
          "velocity": 1,
          "duration": 0.5
        },
        {
          "name": "G#4",
          "midi": 68,
          "time": 109.5,
          "velocity": 1,
          "duration": 0.5
        },
        {
          "name": "D#5",
          "midi": 75,
          "time": 110,
          "velocity": 1,
          "duration": 0.5
        },
        {
          "name": "G#4",
          "midi": 68,
          "time": 110.5,
          "velocity": 1,
          "duration": 1
        },
        {
          "name": "B4",
          "midi": 71,
          "time": 111.5,
          "velocity": 1,
          "duration": 0.5
        },
        {
          "name": "C#5",
          "midi": 73,
          "time": 112,
          "velocity": 1,
          "duration": 0.5
        },
        {
          "name": "D#5",
          "midi": 75,
          "time": 112.5,
          "velocity": 1,
          "duration": 0.5
        },
        {
          "name": "B5",
          "midi": 83,
          "time": 113.5,
          "velocity": 1,
          "duration": 0.5
        },
        {
          "name": "A#5",
          "midi": 82,
          "time": 114,
          "velocity": 1,
          "duration": 0.5
        },
        {
          "name": "F#5",
          "midi": 78,
          "time": 115,
          "velocity": 1,
          "duration": 0.5
        },
        {
          "name": "C#5",
          "midi": 73,
          "time": 116,
          "velocity": 1,
          "duration": 0.5
        },
        {
          "name": "B4",
          "midi": 71,
          "time": 117,
          "velocity": 1,
          "duration": 0.5
        },
        {
          "name": "C#5",
          "midi": 73,
          "time": 117.5,
          "velocity": 1,
          "duration": 0.5
        },
        {
          "name": "B4",
          "midi": 71,
          "time": 118,
          "velocity": 1,
          "duration": 0.5
        },
        {
          "name": "D#5",
          "midi": 75,
          "time": 118.5,
          "velocity": 1,
          "duration": 0.5
        },
        {
          "name": "G#4",
          "midi": 68,
          "time": 119.5,
          "velocity": 1,
          "duration": 0.5
        },
        {
          "name": "D#5",
          "midi": 75,
          "time": 120,
          "velocity": 1,
          "duration": 0.5
        },
        {
          "name": "C#5",
          "midi": 73,
          "time": 120.5,
          "velocity": 1,
          "duration": 0.5
        },
        {
          "name": "G#4",
          "midi": 68,
          "time": 121.5,
          "velocity": 1,
          "duration": 0.5
        },
        {
          "name": "D#5",
          "midi": 75,
          "time": 122,
          "velocity": 1,
          "duration": 0.5
        },
        {
          "name": "C#5",
          "midi": 73,
          "time": 122.5,
          "velocity": 1,
          "duration": 0.5
        },
        {
          "name": "D#5",
          "midi": 75,
          "time": 123.5,
          "velocity": 1,
          "duration": 0.5
        },
        {
          "name": "F#5",
          "midi": 78,
          "time": 124,
          "velocity": 1,
          "duration": 0.5
        },
        {
          "name": "B5",
          "midi": 83,
          "time": 124.5,
          "velocity": 1,
          "duration": 0.5
        },
        {
          "name": "A#5",
          "midi": 82,
          "time": 125,
          "velocity": 1,
          "duration": 0.5
        },
        {
          "name": "F#5",
          "midi": 78,
          "time": 125.5,
          "velocity": 1,
          "duration": 0.5
        },
        {
          "name": "C#5",
          "midi": 73,
          "time": 126,
          "velocity": 1,
          "duration": 0.5
        },
        {
          "name": "D#5",
          "midi": 75,
          "time": 126.5,
          "velocity": 1,
          "duration": 0.5
        },
        {
          "name": "B4",
          "midi": 71,
          "time": 127.5,
          "velocity": 1,
          "duration": 0.5
        },
        {
          "name": "C#5",
          "midi": 73,
          "time": 128,
          "velocity": 1,
          "duration": 0.5
        },
        {
          "name": "D#5",
          "midi": 75,
          "time": 128.5,
          "velocity": 1,
          "duration": 0.5
        },
        {
          "name": "B5",
          "midi": 83,
          "time": 129.5,
          "velocity": 1,
          "duration": 0.5
        },
        {
          "name": "A#5",
          "midi": 82,
          "time": 130,
          "velocity": 1,
          "duration": 0.5
        },
        {
          "name": "F#5",
          "midi": 78,
          "time": 131,
          "velocity": 1,
          "duration": 0.5
        },
        {
          "name": "C#5",
          "midi": 73,
          "time": 132,
          "velocity": 1,
          "duration": 0.5
        },
        {
          "name": "B4",
          "midi": 71,
          "time": 133,
          "velocity": 1,
          "duration": 0.5
        },
        {
          "name": "C#5",
          "midi": 73,
          "time": 133.5,
          "velocity": 1,
          "duration": 0.5
        },
        {
          "name": "F#5",
          "midi": 78,
          "time": 134,
          "velocity": 1,
          "duration": 0.5
        },
        {
          "name": "D#5",
          "midi": 75,
          "time": 134.5,
          "velocity": 1,
          "duration": 1
        },
        {
          "name": "G#4",
          "midi": 68,
          "time": 135.5,
          "velocity": 1,
          "duration": 0.5
        },
        {
          "name": "D#5",
          "midi": 75,
          "time": 136,
          "velocity": 1,
          "duration": 0.5
        },
        {
          "name": "C#5",
          "midi": 73,
          "time": 136.5,
          "velocity": 1,
          "duration": 0.5
        },
        {
          "name": "C#5",
          "midi": 73,
          "time": 137.5,
          "velocity": 1,
          "duration": 0.5
        },
        {
          "name": "C#5",
          "midi": 73,
          "time": 138.5,
          "velocity": 1,
          "duration": 0.75
        },
        {
          "name": "C#5",
          "midi": 73,
          "time": 139.25,
          "velocity": 1,
          "duration": 0.25
        },
        {
          "name": "C#5",
          "midi": 73,
          "time": 140,
          "velocity": 1,
          "duration": 0.5
        },
        {
          "name": "C#5",
          "midi": 73,
          "time": 141,
          "velocity": 1,
          "duration": 0.5
        },
        {
          "name": "C#5",
          "midi": 73,
          "time": 141.5,
          "velocity": 1,
          "duration": 0.5
        },
        {
          "name": "B4",
          "midi": 71,
          "time": 142,
          "velocity": 1,
          "duration": 0.5
        },
        {
          "name": "C#5",
          "midi": 73,
          "time": 142.5,
          "velocity": 1,
          "duration": 0.5
        },
        {
          "name": "B4",
          "midi": 71,
          "time": 143,
          "velocity": 1,
          "duration": 0.5
        },
        {
          "name": "C#5",
          "midi": 73,
          "time": 143.5,
          "velocity": 1,
          "duration": 0.5
        },
        {
          "name": "E5",
          "midi": 76,
          "time": 144,
          "velocity": 1,
          "duration": 0.5
        },
        {
          "name": "D#5",
          "midi": 75,
          "time": 144.5,
          "velocity": 1,
          "duration": 1
        },
        {
          "name": "E5",
          "midi": 76,
          "time": 146,
          "velocity": 1,
          "duration": 0.5
        },
        {
          "name": "D#5",
          "midi": 75,
          "time": 146.5,
          "velocity": 1,
          "duration": 1.0270833333333371
        },
        {
          "name": "G#5",
          "midi": 80,
          "time": 147.5,
          "velocity": 1,
          "duration": 0.5
        },
        {
          "name": "G5",
          "midi": 79,
          "time": 148,
          "velocity": 1,
          "duration": 1
        },
        {
          "name": "G#5",
          "midi": 80,
          "time": 149,
          "velocity": 1,
          "duration": 0.5
        },
        {
          "name": "G5",
          "midi": 79,
          "time": 149.5,
          "velocity": 1,
          "duration": 0.5
        },
        {
          "name": "G#5",
          "midi": 80,
          "time": 150,
          "velocity": 1,
          "duration": 0.5
        },
        {
          "name": "A#5",
          "midi": 82,
          "time": 150.5,
          "velocity": 1,
          "duration": 1
        },
        {
          "name": "E5",
          "midi": 76,
          "time": 151.5,
          "velocity": 1,
          "duration": 0.5
        },
        {
          "name": "G5",
          "midi": 79,
          "time": 152,
          "velocity": 1,
          "duration": 0.5
        },
        {
          "name": "A5",
          "midi": 81,
          "time": 152.5,
          "velocity": 1,
          "duration": 1
        },
        {
          "name": "E6",
          "midi": 88,
          "time": 153.5,
          "velocity": 1,
          "duration": 1
        },
        {
          "name": "A5",
          "midi": 81,
          "time": 154.5,
          "velocity": 1,
          "duration": 0.5
        },
        {
          "name": "A5",
          "midi": 81,
          "time": 155,
          "velocity": 1,
          "duration": 0.5
        },
        {
          "name": "G5",
          "midi": 79,
          "time": 155.5,
          "velocity": 1,
          "duration": 0.5
        },
        {
          "name": "A5",
          "midi": 81,
          "time": 156,
          "velocity": 1,
          "duration": 1
        },
        {
          "name": "E6",
          "midi": 88,
          "time": 157,
          "velocity": 1,
          "duration": 0.5
        },
        {
          "name": "A5",
          "midi": 81,
          "time": 157.5,
          "velocity": 1,
          "duration": 0.5
        },
        {
          "name": "G5",
          "midi": 79,
          "time": 158,
          "velocity": 1,
          "duration": 0.5
        },
        {
          "name": "A5",
          "midi": 81,
          "time": 158.5,
          "velocity": 1,
          "duration": 1
        },
        {
          "name": "E5",
          "midi": 76,
          "time": 159.5,
          "velocity": 1,
          "duration": 0.5
        },
        {
          "name": "G5",
          "midi": 79,
          "time": 160,
          "velocity": 1,
          "duration": 0.5
        },
        {
          "name": "A5",
          "midi": 81,
          "time": 160.5,
          "velocity": 1,
          "duration": 1
        },
        {
          "name": "C6",
          "midi": 84,
          "time": 161.5,
          "velocity": 1,
          "duration": 1
        },
        {
          "name": "B5",
          "midi": 83,
          "time": 162.5,
          "velocity": 1,
          "duration": 1
        },
        {
          "name": "G5",
          "midi": 79,
          "time": 163.5,
          "velocity": 1,
          "duration": 0.5
        },
        {
          "name": "A5",
          "midi": 81,
          "time": 164,
          "velocity": 1,
          "duration": 1
        },
        {
          "name": "B5",
          "midi": 83,
          "time": 165,
          "velocity": 1,
          "duration": 0.5
        },
        {
          "name": "C6",
          "midi": 84,
          "time": 165.5,
          "velocity": 1,
          "duration": 0.5
        },
        {
          "name": "D6",
          "midi": 86,
          "time": 166,
          "velocity": 1,
          "duration": 0.5
        },
        {
          "name": "F6",
          "midi": 89,
          "time": 166.5,
          "velocity": 1,
          "duration": 1
        },
        {
          "name": "E6",
          "midi": 88,
          "time": 167.5,
          "velocity": 1,
          "duration": 1
        },
        {
          "name": "A5",
          "midi": 81,
          "time": 168.5,
          "velocity": 1,
          "duration": 1
        },
        {
          "name": "E6",
          "midi": 88,
          "time": 169.5,
          "velocity": 1,
          "duration": 1
        },
        {
          "name": "A5",
          "midi": 81,
          "time": 170.5,
          "velocity": 1,
          "duration": 1
        },
        {
          "name": "G5",
          "midi": 79,
          "time": 171.5,
          "velocity": 1,
          "duration": 0.5
        },
        {
          "name": "A5",
          "midi": 81,
          "time": 172,
          "velocity": 1,
          "duration": 1
        },
        {
          "name": "E6",
          "midi": 88,
          "time": 173,
          "velocity": 1,
          "duration": 0.5
        },
        {
          "name": "A5",
          "midi": 81,
          "time": 173.5,
          "velocity": 1,
          "duration": 0.5
        },
        {
          "name": "G5",
          "midi": 79,
          "time": 174,
          "velocity": 1,
          "duration": 0.5
        },
        {
          "name": "A5",
          "midi": 81,
          "time": 174.5,
          "velocity": 1,
          "duration": 1
        },
        {
          "name": "E5",
          "midi": 76,
          "time": 175.5,
          "velocity": 1,
          "duration": 0.5
        },
        {
          "name": "G5",
          "midi": 79,
          "time": 176,
          "velocity": 1,
          "duration": 0.5
        },
        {
          "name": "A5",
          "midi": 81,
          "time": 176.5,
          "velocity": 1,
          "duration": 1
        },
        {
          "name": "C6",
          "midi": 84,
          "time": 177.5,
          "velocity": 1,
          "duration": 1
        },
        {
          "name": "B5",
          "midi": 83,
          "time": 178.5,
          "velocity": 1,
          "duration": 1
        },
        {
          "name": "G5",
          "midi": 79,
          "time": 179.5,
          "velocity": 1,
          "duration": 0.5
        },
        {
          "name": "A5",
          "midi": 81,
          "time": 180,
          "velocity": 1,
          "duration": 1
        },
        {
          "name": "A5",
          "midi": 81,
          "time": 181,
          "velocity": 1,
          "duration": 1
        },
        {
          "name": "G5",
          "midi": 79,
          "time": 182,
          "velocity": 1,
          "duration": 0.5
        },
        {
          "name": "A5",
          "midi": 81,
          "time": 182.5,
          "velocity": 1,
          "duration": 1
        },
        {
          "name": "C6",
          "midi": 84,
          "time": 183.5,
          "velocity": 1,
          "duration": 1
        },
        {
          "name": "A5",
          "midi": 81,
          "time": 184.5,
          "velocity": 1,
          "duration": 1.5
        },
        {
          "name": "G5",
          "midi": 79,
          "time": 186,
          "velocity": 1,
          "duration": 0.5
        },
        {
          "name": "A5",
          "midi": 81,
          "time": 186.5,
          "velocity": 1,
          "duration": 0.5
        },
        {
          "name": "C6",
          "midi": 84,
          "time": 187,
          "velocity": 1,
          "duration": 0.5
        },
        {
          "name": "D6",
          "midi": 86,
          "time": 187.5,
          "velocity": 1,
          "duration": 0.5
        },
        {
          "name": "E6",
          "midi": 88,
          "time": 188,
          "velocity": 1,
          "duration": 0.5
        },
        {
          "name": "A5",
          "midi": 81,
          "time": 188.5,
          "velocity": 1,
          "duration": 1.5
        },
        {
          "name": "G5",
          "midi": 79,
          "time": 190,
          "velocity": 1,
          "duration": 0.5
        },
        {
          "name": "A5",
          "midi": 81,
          "time": 190.5,
          "velocity": 1,
          "duration": 0.5
        },
        {
          "name": "C6",
          "midi": 84,
          "time": 191,
          "velocity": 1,
          "duration": 0.5
        },
        {
          "name": "D6",
          "midi": 86,
          "time": 191.5,
          "velocity": 1,
          "duration": 0.5
        },
        {
          "name": "E6",
          "midi": 88,
          "time": 192,
          "velocity": 1,
          "duration": 0.5
        },
        {
          "name": "A5",
          "midi": 81,
          "time": 192.5,
          "velocity": 1,
          "duration": 1
        },
        {
          "name": "C6",
          "midi": 84,
          "time": 193.5,
          "velocity": 1,
          "duration": 1
        },
        {
          "name": "D6",
          "midi": 86,
          "time": 194.5,
          "velocity": 1,
          "duration": 0.5
        },
        {
          "name": "C6",
          "midi": 84,
          "time": 195,
          "velocity": 1,
          "duration": 0.5
        },
        {
          "name": "D6",
          "midi": 86,
          "time": 195.5,
          "velocity": 1,
          "duration": 0.5
        },
        {
          "name": "C6",
          "midi": 84,
          "time": 196,
          "velocity": 1,
          "duration": 0.5
        },
        {
          "name": "D6",
          "midi": 86,
          "time": 196.5,
          "velocity": 1,
          "duration": 0.5
        },
        {
          "name": "E6",
          "midi": 88,
          "time": 197,
          "velocity": 1,
          "duration": 0.5
        },
        {
          "name": "A5",
          "midi": 81,
          "time": 197.5,
          "velocity": 1,
          "duration": 0.5
        },
        {
          "name": "C6",
          "midi": 84,
          "time": 198,
          "velocity": 1,
          "duration": 0.5
        },
        {
          "name": "G5",
          "midi": 79,
          "time": 198.5,
          "velocity": 1,
          "duration": 0.5
        },
        {
          "name": "A5",
          "midi": 81,
          "time": 199,
          "velocity": 1,
          "duration": 0.5
        },
        {
          "name": "E5",
          "midi": 76,
          "time": 199.5,
          "velocity": 1,
          "duration": 0.5
        },
        {
          "name": "G5",
          "midi": 79,
          "time": 200,
          "velocity": 1,
          "duration": 0.5
        },
        {
          "name": "A5",
          "midi": 81,
          "time": 200.5,
          "velocity": 1,
          "duration": 1.5
        },
        {
          "name": "G5",
          "midi": 79,
          "time": 202,
          "velocity": 1,
          "duration": 0.5
        },
        {
          "name": "A5",
          "midi": 81,
          "time": 202.5,
          "velocity": 1,
          "duration": 0.5
        },
        {
          "name": "C6",
          "midi": 84,
          "time": 203,
          "velocity": 1,
          "duration": 0.5
        },
        {
          "name": "D6",
          "midi": 86,
          "time": 203.5,
          "velocity": 1,
          "duration": 0.5
        },
        {
          "name": "E6",
          "midi": 88,
          "time": 204,
          "velocity": 1,
          "duration": 0.5
        },
        {
          "name": "A5",
          "midi": 81,
          "time": 204.5,
          "velocity": 1,
          "duration": 1.5
        },
        {
          "name": "G5",
          "midi": 79,
          "time": 206,
          "velocity": 1,
          "duration": 0.5
        },
        {
          "name": "A5",
          "midi": 81,
          "time": 206.5,
          "velocity": 1,
          "duration": 0.5
        },
        {
          "name": "C6",
          "midi": 84,
          "time": 207,
          "velocity": 1,
          "duration": 0.5
        },
        {
          "name": "D6",
          "midi": 86,
          "time": 207.5,
          "velocity": 1,
          "duration": 0.5
        },
        {
          "name": "E6",
          "midi": 88,
          "time": 208,
          "velocity": 1,
          "duration": 0.5
        },
        {
          "name": "D6",
          "midi": 86,
          "time": 208.5,
          "velocity": 1,
          "duration": 0.5
        },
        {
          "name": "E6",
          "midi": 88,
          "time": 209,
          "velocity": 1,
          "duration": 0.5
        },
        {
          "name": "A5",
          "midi": 81,
          "time": 209.5,
          "velocity": 1,
          "duration": 0.5
        },
        {
          "name": "C6",
          "midi": 84,
          "time": 210,
          "velocity": 1,
          "duration": 0.5
        },
        {
          "name": "G5",
          "midi": 79,
          "time": 210.5,
          "velocity": 1,
          "duration": 0.5
        },
        {
          "name": "A5",
          "midi": 81,
          "time": 211,
          "velocity": 1,
          "duration": 0.5
        },
        {
          "name": "E5",
          "midi": 76,
          "time": 211.5,
          "velocity": 1,
          "duration": 0.5
        },
        {
          "name": "A5",
          "midi": 81,
          "time": 212,
          "velocity": 1,
          "duration": 1
        },
        {
          "name": "C#5",
          "midi": 73,
          "time": 212,
          "velocity": 0.6299212598425197,
          "duration": 1
        },
        {
          "name": "A5",
          "midi": 81,
          "time": 213,
          "velocity": 1,
          "duration": 1
        },
        {
          "name": "C#5",
          "midi": 73,
          "time": 213,
          "velocity": 0.6299212598425197,
          "duration": 1
        },
        {
          "name": "G5",
          "midi": 79,
          "time": 214,
          "velocity": 1,
          "duration": 0.5
        },
        {
          "name": "B4",
          "midi": 71,
          "time": 214,
          "velocity": 0.6377952755905512,
          "duration": 0.5
        },
        {
          "name": "A5",
          "midi": 81,
          "time": 214.5,
          "velocity": 1,
          "duration": 1
        },
        {
          "name": "C#5",
          "midi": 73,
          "time": 214.5,
          "velocity": 0.6377952755905512,
          "duration": 1
        },
        {
          "name": "A4",
          "midi": 69,
          "time": 216.5,
          "velocity": 0.6377952755905512,
          "duration": 1
        },
        {
          "name": "G4",
          "midi": 67,
          "time": 217.5,
          "velocity": 0.6377952755905512,
          "duration": 1
        },
        {
          "name": "A4",
          "midi": 69,
          "time": 218.5,
          "velocity": 0.6377952755905512,
          "duration": 1
        },
        {
          "name": "A#4",
          "midi": 70,
          "time": 219.5,
          "velocity": 0.6377952755905512,
          "duration": 1
        },
        {
          "name": "A4",
          "midi": 69,
          "time": 220.5,
          "velocity": 0.6377952755905512,
          "duration": 1
        },
        {
          "name": "G4",
          "midi": 67,
          "time": 221.5,
          "velocity": 0.6377952755905512,
          "duration": 1
        },
        {
          "name": "A4",
          "midi": 69,
          "time": 222.5,
          "velocity": 0.6377952755905512,
          "duration": 1
        },
        {
          "name": "A#4",
          "midi": 70,
          "time": 223.5,
          "velocity": 0.6377952755905512,
          "duration": 1
        },
        {
          "name": "A4",
          "midi": 69,
          "time": 224.5,
          "velocity": 0.6377952755905512,
          "duration": 1
        },
        {
          "name": "G4",
          "midi": 67,
          "time": 225.5,
          "velocity": 0.6377952755905512,
          "duration": 1
        },
        {
          "name": "A4",
          "midi": 69,
          "time": 226.5,
          "velocity": 0.6377952755905512,
          "duration": 1
        },
        {
          "name": "A#4",
          "midi": 70,
          "time": 227.5,
          "velocity": 0.6377952755905512,
          "duration": 1
        },
        {
          "name": "A4",
          "midi": 69,
          "time": 232.5,
          "velocity": 0.6377952755905512,
          "duration": 1
        },
        {
          "name": "G4",
          "midi": 67,
          "time": 233.5,
          "velocity": 0.6377952755905512,
          "duration": 1
        },
        {
          "name": "A4",
          "midi": 69,
          "time": 234.5,
          "velocity": 0.6377952755905512,
          "duration": 1
        },
        {
          "name": "A#4",
          "midi": 70,
          "time": 235.5,
          "velocity": 0.6377952755905512,
          "duration": 1
        },
        {
          "name": "A4",
          "midi": 69,
          "time": 236.5,
          "velocity": 0.6377952755905512,
          "duration": 1
        },
        {
          "name": "G4",
          "midi": 67,
          "time": 237.5,
          "velocity": 0.6377952755905512,
          "duration": 1
        },
        {
          "name": "A4",
          "midi": 69,
          "time": 238.5,
          "velocity": 0.6377952755905512,
          "duration": 1
        },
        {
          "name": "A#4",
          "midi": 70,
          "time": 239.5,
          "velocity": 0.6377952755905512,
          "duration": 1
        },
        {
          "name": "A4",
          "midi": 69,
          "time": 240.5,
          "velocity": 0.6377952755905512,
          "duration": 1
        },
        {
          "name": "G4",
          "midi": 67,
          "time": 241.5,
          "velocity": 0.6377952755905512,
          "duration": 1
        },
        {
          "name": "A4",
          "midi": 69,
          "time": 242.5,
          "velocity": 0.6377952755905512,
          "duration": 1
        },
        {
          "name": "A#4",
          "midi": 70,
          "time": 243.5,
          "velocity": 0.6377952755905512,
          "duration": 1
        },
        {
          "name": "A2",
          "midi": 45,
          "time": 244.5,
          "velocity": 1,
          "duration": 0.25
        },
        {
          "name": "D3",
          "midi": 50,
          "time": 244.75,
          "velocity": 1,
          "duration": 0.25
        },
        {
          "name": "E3",
          "midi": 52,
          "time": 245,
          "velocity": 1,
          "duration": 0.25
        },
        {
          "name": "A2",
          "midi": 45,
          "time": 245.25,
          "velocity": 1,
          "duration": 0.25
        },
        {
          "name": "G3",
          "midi": 55,
          "time": 245.5,
          "velocity": 1,
          "duration": 0.25
        },
        {
          "name": "A3",
          "midi": 57,
          "time": 245.75,
          "velocity": 1,
          "duration": 0.25
        },
        {
          "name": "A2",
          "midi": 45,
          "time": 246,
          "velocity": 1,
          "duration": 0.5
        }
      ],
      "controlChanges": {
        "1": [
          {
            "number": 1,
            "time": 0.40833333333333327,
            "value": 0
          }
        ],
        "6": [
          {
            "number": 6,
            "time": 0.4104166666666666,
            "value": 0.5039370078740157
          },
          {
            "number": 6,
            "time": 0.41874999999999996,
            "value": 0.5039370078740157
          },
          {
            "number": 6,
            "time": 0.42499999999999993,
            "value": 0.09448818897637795
          }
        ],
        "7": [
          {
            "number": 7,
            "time": 0.4020833333333333,
            "value": 0.7874015748031497
          }
        ],
        "10": [
          {
            "number": 10,
            "time": 0.39999999999999997,
            "value": 0.5039370078740157
          }
        ],
        "11": [
          {
            "number": 11,
            "time": 0.40624999999999994,
            "value": 1
          }
        ],
        "32": [
          {
            "number": 32,
            "time": 0.39375,
            "value": 0
          }
        ],
        "38": [
          {
            "number": 38,
            "time": 0.4104166666666666,
            "value": 0
          }
        ],
        "91": [
          {
            "number": 91,
            "time": 0.4041666666666666,
            "value": 0
          }
        ],
        "100": [
          {
            "number": 100,
            "time": 0.4104166666666666,
            "value": 0.007874015748031496
          },
          {
            "number": 100,
            "time": 0.41874999999999996,
            "value": 0.015748031496062992
          },
          {
            "number": 100,
            "time": 0.42499999999999993,
            "value": 0
          },
          {
            "number": 100,
            "time": 0.43333333333333324,
            "value": 1
          }
        ],
        "101": [
          {
            "number": 101,
            "time": 0.4104166666666666,
            "value": 0
          },
          {
            "number": 101,
            "time": 0.41874999999999996,
            "value": 0
          },
          {
            "number": 101,
            "time": 0.42499999999999993,
            "value": 0
          },
          {
            "number": 101,
            "time": 0.43333333333333324,
            "value": 1
          }
        ],
        "121": [
          {
            "number": 121,
            "time": 0.39166666666666666,
            "value": 0
          }
        ]
      },
      "id": 2,
      "name": "",
      "instrumentNumber": 0,
      "instrument": "acoustic grand piano",
      "instrumentFamily": "piano",
      "channelNumber": 0,
      "isPercussion": false
    },
    {
      "startTime": 0.4999999999999999,
      "duration": 244.5,
      "length": 682,
      "notes": [
        {
          "name": "G#3",
          "midi": 56,
          "time": 0.4999999999999999,
          "velocity": 0.7874015748031497,
          "duration": 2
        },
        {
          "name": "G#2",
          "midi": 44,
          "time": 0.4999999999999999,
          "velocity": 0.7874015748031497,
          "duration": 2
        },
        {
          "name": "G#1",
          "midi": 32,
          "time": 0.4999999999999999,
          "velocity": 0.7874015748031497,
          "duration": 2
        },
        {
          "name": "G#4",
          "midi": 68,
          "time": 0.4999999999999999,
          "velocity": 0.7874015748031497,
          "duration": 2
        },
        {
          "name": "D#3",
          "midi": 51,
          "time": 0.4999999999999999,
          "velocity": 0.7874015748031497,
          "duration": 1
        },
        {
          "name": "D#2",
          "midi": 39,
          "time": 0.4999999999999999,
          "velocity": 0.7874015748031497,
          "duration": 1
        },
        {
          "name": "A4",
          "midi": 69,
          "time": 5.5,
          "velocity": 0.7874015748031497,
          "duration": 1.5
        },
        {
          "name": "A3",
          "midi": 57,
          "time": 5.5,
          "velocity": 0.7874015748031497,
          "duration": 1.5
        },
        {
          "name": "A2",
          "midi": 45,
          "time": 5.5,
          "velocity": 0.7874015748031497,
          "duration": 1.5
        },
        {
          "name": "A1",
          "midi": 33,
          "time": 5.5,
          "velocity": 0.7874015748031497,
          "duration": 1.5
        },
        {
          "name": "E3",
          "midi": 52,
          "time": 5.5,
          "velocity": 0.7874015748031497,
          "duration": 1
        },
        {
          "name": "E2",
          "midi": 40,
          "time": 5.5,
          "velocity": 0.7874015748031497,
          "duration": 1
        },
        {
          "name": "F#4",
          "midi": 66,
          "time": 7,
          "velocity": 0.7874015748031497,
          "duration": 1.5
        },
        {
          "name": "F#1",
          "midi": 30,
          "time": 7,
          "velocity": 0.7874015748031497,
          "duration": 1.5
        },
        {
          "name": "F#2",
          "midi": 42,
          "time": 7,
          "velocity": 0.7874015748031497,
          "duration": 1.5
        },
        {
          "name": "F#3",
          "midi": 54,
          "time": 7,
          "velocity": 0.7874015748031497,
          "duration": 1.5
        },
        {
          "name": "C#3",
          "midi": 49,
          "time": 7,
          "velocity": 0.7874015748031497,
          "duration": 1
        },
        {
          "name": "C#2",
          "midi": 37,
          "time": 7,
          "velocity": 0.7874015748031497,
          "duration": 1
        },
        {
          "name": "G#1",
          "midi": 32,
          "time": 8.5,
          "velocity": 0.7874015748031497,
          "duration": 1.5
        },
        {
          "name": "G#4",
          "midi": 68,
          "time": 8.5,
          "velocity": 0.7874015748031497,
          "duration": 1.5
        },
        {
          "name": "G#2",
          "midi": 44,
          "time": 8.5,
          "velocity": 0.7874015748031497,
          "duration": 1.5
        },
        {
          "name": "G#3",
          "midi": 56,
          "time": 8.5,
          "velocity": 0.7874015748031497,
          "duration": 1.5
        },
        {
          "name": "D#3",
          "midi": 51,
          "time": 8.5,
          "velocity": 0.7874015748031497,
          "duration": 1
        },
        {
          "name": "D#2",
          "midi": 39,
          "time": 8.5,
          "velocity": 0.7874015748031497,
          "duration": 1
        },
        {
          "name": "A4",
          "midi": 69,
          "time": 13.5,
          "velocity": 0.7874015748031497,
          "duration": 1.5
        },
        {
          "name": "A3",
          "midi": 57,
          "time": 13.5,
          "velocity": 0.7874015748031497,
          "duration": 1.5
        },
        {
          "name": "A2",
          "midi": 45,
          "time": 13.5,
          "velocity": 0.7874015748031497,
          "duration": 1.5
        },
        {
          "name": "A1",
          "midi": 33,
          "time": 13.5,
          "velocity": 0.7874015748031497,
          "duration": 1.5
        },
        {
          "name": "E2",
          "midi": 40,
          "time": 13.5,
          "velocity": 0.7874015748031497,
          "duration": 1
        },
        {
          "name": "E3",
          "midi": 52,
          "time": 13.5,
          "velocity": 0.7874015748031497,
          "duration": 1
        },
        {
          "name": "C#5",
          "midi": 73,
          "time": 15,
          "velocity": 0.7874015748031497,
          "duration": 1.5
        },
        {
          "name": "C#2",
          "midi": 37,
          "time": 15,
          "velocity": 0.7874015748031497,
          "duration": 1.5
        },
        {
          "name": "C#3",
          "midi": 49,
          "time": 15,
          "velocity": 0.7874015748031497,
          "duration": 1.5
        },
        {
          "name": "C#4",
          "midi": 61,
          "time": 15,
          "velocity": 0.7874015748031497,
          "duration": 1.5
        },
        {
          "name": "G#3",
          "midi": 56,
          "time": 15,
          "velocity": 0.7874015748031497,
          "duration": 1
        },
        {
          "name": "G#2",
          "midi": 44,
          "time": 15,
          "velocity": 0.7874015748031497,
          "duration": 1
        },
        {
          "name": "G#1",
          "midi": 32,
          "time": 16.5,
          "velocity": 0.7874015748031497,
          "duration": 1.5
        },
        {
          "name": "G#4",
          "midi": 68,
          "time": 16.5,
          "velocity": 0.7874015748031497,
          "duration": 1.5
        },
        {
          "name": "G#2",
          "midi": 44,
          "time": 16.5,
          "velocity": 0.7874015748031497,
          "duration": 1.5
        },
        {
          "name": "G#3",
          "midi": 56,
          "time": 16.5,
          "velocity": 0.7874015748031497,
          "duration": 1.5
        },
        {
          "name": "D#2",
          "midi": 39,
          "time": 16.5,
          "velocity": 0.7874015748031497,
          "duration": 1
        },
        {
          "name": "D#3",
          "midi": 51,
          "time": 16.5,
          "velocity": 0.7874015748031497,
          "duration": 1
        },
        {
          "name": "A4",
          "midi": 69,
          "time": 21.5,
          "velocity": 0.7874015748031497,
          "duration": 1.5
        },
        {
          "name": "A3",
          "midi": 57,
          "time": 21.5,
          "velocity": 0.7874015748031497,
          "duration": 1.5
        },
        {
          "name": "A2",
          "midi": 45,
          "time": 21.5,
          "velocity": 0.7874015748031497,
          "duration": 1.5
        },
        {
          "name": "A1",
          "midi": 33,
          "time": 21.5,
          "velocity": 0.7874015748031497,
          "duration": 1.5
        },
        {
          "name": "E2",
          "midi": 40,
          "time": 21.5,
          "velocity": 0.7874015748031497,
          "duration": 1
        },
        {
          "name": "E3",
          "midi": 52,
          "time": 21.5,
          "velocity": 0.7874015748031497,
          "duration": 1
        },
        {
          "name": "F#4",
          "midi": 66,
          "time": 23,
          "velocity": 0.7874015748031497,
          "duration": 1.5
        },
        {
          "name": "F#1",
          "midi": 30,
          "time": 23,
          "velocity": 0.7874015748031497,
          "duration": 1.5
        },
        {
          "name": "F#2",
          "midi": 42,
          "time": 23,
          "velocity": 0.7874015748031497,
          "duration": 1.5
        },
        {
          "name": "F#3",
          "midi": 54,
          "time": 23,
          "velocity": 0.7874015748031497,
          "duration": 1.5
        },
        {
          "name": "C#2",
          "midi": 37,
          "time": 23,
          "velocity": 0.7874015748031497,
          "duration": 1
        },
        {
          "name": "C#3",
          "midi": 49,
          "time": 23,
          "velocity": 0.7874015748031497,
          "duration": 1
        },
        {
          "name": "G#1",
          "midi": 32,
          "time": 24.5,
          "velocity": 0.7874015748031497,
          "duration": 1.5
        },
        {
          "name": "G#4",
          "midi": 68,
          "time": 24.5,
          "velocity": 0.7874015748031497,
          "duration": 1.5
        },
        {
          "name": "G#2",
          "midi": 44,
          "time": 24.5,
          "velocity": 0.7874015748031497,
          "duration": 1.5
        },
        {
          "name": "G#3",
          "midi": 56,
          "time": 24.5,
          "velocity": 0.7874015748031497,
          "duration": 1.5
        },
        {
          "name": "D#2",
          "midi": 39,
          "time": 24.5,
          "velocity": 0.7874015748031497,
          "duration": 1
        },
        {
          "name": "D#3",
          "midi": 51,
          "time": 24.5,
          "velocity": 0.7874015748031497,
          "duration": 1
        },
        {
          "name": "A4",
          "midi": 69,
          "time": 29.5,
          "velocity": 0.7874015748031497,
          "duration": 1.5
        },
        {
          "name": "A3",
          "midi": 57,
          "time": 29.5,
          "velocity": 0.7874015748031497,
          "duration": 1.5
        },
        {
          "name": "A2",
          "midi": 45,
          "time": 29.5,
          "velocity": 0.7874015748031497,
          "duration": 1.5
        },
        {
          "name": "A1",
          "midi": 33,
          "time": 29.5,
          "velocity": 0.7874015748031497,
          "duration": 1.5
        },
        {
          "name": "E2",
          "midi": 40,
          "time": 29.5,
          "velocity": 0.7874015748031497,
          "duration": 1
        },
        {
          "name": "E3",
          "midi": 52,
          "time": 29.5,
          "velocity": 0.7874015748031497,
          "duration": 1
        },
        {
          "name": "C#5",
          "midi": 73,
          "time": 31,
          "velocity": 0.7874015748031497,
          "duration": 1.5
        },
        {
          "name": "C#2",
          "midi": 37,
          "time": 31,
          "velocity": 0.7874015748031497,
          "duration": 1.5
        },
        {
          "name": "C#3",
          "midi": 49,
          "time": 31,
          "velocity": 0.7874015748031497,
          "duration": 1.5
        },
        {
          "name": "C#4",
          "midi": 61,
          "time": 31,
          "velocity": 0.7874015748031497,
          "duration": 1.5
        },
        {
          "name": "G#2",
          "midi": 44,
          "time": 31,
          "velocity": 0.7874015748031497,
          "duration": 1
        },
        {
          "name": "G#3",
          "midi": 56,
          "time": 31,
          "velocity": 0.7874015748031497,
          "duration": 1
        },
        {
          "name": "G#1",
          "midi": 32,
          "time": 32.5,
          "velocity": 0.7874015748031497,
          "duration": 2
        },
        {
          "name": "G#4",
          "midi": 68,
          "time": 32.5,
          "velocity": 0.7874015748031497,
          "duration": 2
        },
        {
          "name": "G#2",
          "midi": 44,
          "time": 32.5,
          "velocity": 0.7874015748031497,
          "duration": 2
        },
        {
          "name": "G#3",
          "midi": 56,
          "time": 32.5,
          "velocity": 0.7874015748031497,
          "duration": 2
        },
        {
          "name": "D#2",
          "midi": 39,
          "time": 32.5,
          "velocity": 0.7874015748031497,
          "duration": 1
        },
        {
          "name": "D#3",
          "midi": 51,
          "time": 32.5,
          "velocity": 0.7874015748031497,
          "duration": 1
        },
        {
          "name": "G#1",
          "midi": 32,
          "time": 34.5,
          "velocity": 0.7874015748031497,
          "duration": 1.5
        },
        {
          "name": "G#4",
          "midi": 68,
          "time": 34.5,
          "velocity": 0.7874015748031497,
          "duration": 1.5
        },
        {
          "name": "G#2",
          "midi": 44,
          "time": 34.5,
          "velocity": 0.7874015748031497,
          "duration": 1.5
        },
        {
          "name": "G#3",
          "midi": 56,
          "time": 34.5,
          "velocity": 0.7874015748031497,
          "duration": 1.5
        },
        {
          "name": "G#1",
          "midi": 32,
          "time": 36,
          "velocity": 0.7874015748031497,
          "duration": 1
        },
        {
          "name": "G#4",
          "midi": 68,
          "time": 36,
          "velocity": 0.7874015748031497,
          "duration": 1
        },
        {
          "name": "G#2",
          "midi": 44,
          "time": 36,
          "velocity": 0.7874015748031497,
          "duration": 1
        },
        {
          "name": "G#3",
          "midi": 56,
          "time": 36,
          "velocity": 0.7874015748031497,
          "duration": 1
        },
        {
          "name": "D#3",
          "midi": 51,
          "time": 36,
          "velocity": 0.7874015748031497,
          "duration": 1
        },
        {
          "name": "D#2",
          "midi": 39,
          "time": 36,
          "velocity": 0.7874015748031497,
          "duration": 1
        },
        {
          "name": "G#1",
          "midi": 32,
          "time": 37,
          "velocity": 0.7874015748031497,
          "duration": 1
        },
        {
          "name": "G#4",
          "midi": 68,
          "time": 37,
          "velocity": 0.7874015748031497,
          "duration": 1
        },
        {
          "name": "G#2",
          "midi": 44,
          "time": 37,
          "velocity": 0.7874015748031497,
          "duration": 1
        },
        {
          "name": "G#3",
          "midi": 56,
          "time": 37,
          "velocity": 0.7874015748031497,
          "duration": 1
        },
        {
          "name": "D#3",
          "midi": 51,
          "time": 37,
          "velocity": 0.7874015748031497,
          "duration": 1
        },
        {
          "name": "D#2",
          "midi": 39,
          "time": 37,
          "velocity": 0.7874015748031497,
          "duration": 1
        },
        {
          "name": "F#1",
          "midi": 30,
          "time": 38,
          "velocity": 0.7874015748031497,
          "duration": 0.5
        },
        {
          "name": "F#4",
          "midi": 66,
          "time": 38,
          "velocity": 0.7874015748031497,
          "duration": 0.5
        },
        {
          "name": "F#2",
          "midi": 42,
          "time": 38,
          "velocity": 0.7874015748031497,
          "duration": 0.5
        },
        {
          "name": "F#3",
          "midi": 54,
          "time": 38,
          "velocity": 0.7874015748031497,
          "duration": 0.5
        },
        {
          "name": "C#3",
          "midi": 49,
          "time": 38,
          "velocity": 0.7874015748031497,
          "duration": 0.5
        },
        {
          "name": "C#2",
          "midi": 37,
          "time": 38,
          "velocity": 0.7874015748031497,
          "duration": 0.5
        },
        {
          "name": "G#1",
          "midi": 32,
          "time": 38.5,
          "velocity": 0.7874015748031497,
          "duration": 2
        },
        {
          "name": "G#4",
          "midi": 68,
          "time": 38.5,
          "velocity": 0.7874015748031497,
          "duration": 2
        },
        {
          "name": "G#2",
          "midi": 44,
          "time": 38.5,
          "velocity": 0.7874015748031497,
          "duration": 2
        },
        {
          "name": "G#3",
          "midi": 56,
          "time": 38.5,
          "velocity": 0.7874015748031497,
          "duration": 2
        },
        {
          "name": "D#3",
          "midi": 51,
          "time": 38.5,
          "velocity": 0.7874015748031497,
          "duration": 2
        },
        {
          "name": "D#2",
          "midi": 39,
          "time": 38.5,
          "velocity": 0.7874015748031497,
          "duration": 2
        },
        {
          "name": "G#4",
          "midi": 68,
          "time": 40.5,
          "velocity": 0.7874015748031497,
          "duration": 4
        },
        {
          "name": "D#4",
          "midi": 63,
          "time": 40.5,
          "velocity": 0.7874015748031497,
          "duration": 4
        },
        {
          "name": "C4",
          "midi": 60,
          "time": 40.5,
          "velocity": 0.7874015748031497,
          "duration": 4
        },
        {
          "name": "G#3",
          "midi": 56,
          "time": 40.5,
          "velocity": 0.7874015748031497,
          "duration": 4
        },
        {
          "name": "D#3",
          "midi": 51,
          "time": 40.5,
          "velocity": 0.7874015748031497,
          "duration": 4
        },
        {
          "name": "C3",
          "midi": 48,
          "time": 40.5,
          "velocity": 0.7874015748031497,
          "duration": 4
        },
        {
          "name": "G#1",
          "midi": 32,
          "time": 40.5,
          "velocity": 0.7952755905511811,
          "duration": 0.75
        },
        {
          "name": "G#2",
          "midi": 44,
          "time": 40.5,
          "velocity": 0.7952755905511811,
          "duration": 0.75
        },
        {
          "name": "G#1",
          "midi": 32,
          "time": 41.25,
          "velocity": 0.7480314960629921,
          "duration": 0.75
        },
        {
          "name": "G#2",
          "midi": 44,
          "time": 41.25,
          "velocity": 0.7480314960629921,
          "duration": 0.75
        },
        {
          "name": "G#1",
          "midi": 32,
          "time": 42,
          "velocity": 0.6850393700787402,
          "duration": 1
        },
        {
          "name": "G#2",
          "midi": 44,
          "time": 42,
          "velocity": 0.6850393700787402,
          "duration": 1
        },
        {
          "name": "G#1",
          "midi": 32,
          "time": 43,
          "velocity": 0.6141732283464567,
          "duration": 1
        },
        {
          "name": "G#2",
          "midi": 44,
          "time": 43,
          "velocity": 0.6141732283464567,
          "duration": 1
        },
        {
          "name": "G#1",
          "midi": 32,
          "time": 44,
          "velocity": 0.5433070866141733,
          "duration": 0.5
        },
        {
          "name": "G#2",
          "midi": 44,
          "time": 44,
          "velocity": 0.5433070866141733,
          "duration": 0.5
        },
        {
          "name": "E4",
          "midi": 64,
          "time": 44.5,
          "velocity": 0.7874015748031497,
          "duration": 4
        },
        {
          "name": "C#4",
          "midi": 61,
          "time": 44.5,
          "velocity": 0.7874015748031497,
          "duration": 4
        },
        {
          "name": "A3",
          "midi": 57,
          "time": 44.5,
          "velocity": 0.7874015748031497,
          "duration": 4
        },
        {
          "name": "E3",
          "midi": 52,
          "time": 44.5,
          "velocity": 0.7874015748031497,
          "duration": 4
        },
        {
          "name": "C#3",
          "midi": 49,
          "time": 44.5,
          "velocity": 0.7874015748031497,
          "duration": 4
        },
        {
          "name": "A1",
          "midi": 33,
          "time": 44.5,
          "velocity": 0.7874015748031497,
          "duration": 0.75
        },
        {
          "name": "A2",
          "midi": 45,
          "time": 44.5,
          "velocity": 0.7874015748031497,
          "duration": 0.75
        },
        {
          "name": "A1",
          "midi": 33,
          "time": 45.25,
          "velocity": 0.7401574803149606,
          "duration": 0.75
        },
        {
          "name": "A2",
          "midi": 45,
          "time": 45.25,
          "velocity": 0.7401574803149606,
          "duration": 0.75
        },
        {
          "name": "A1",
          "midi": 33,
          "time": 46,
          "velocity": 0.6850393700787402,
          "duration": 1
        },
        {
          "name": "A2",
          "midi": 45,
          "time": 46,
          "velocity": 0.6850393700787402,
          "duration": 1
        },
        {
          "name": "A1",
          "midi": 33,
          "time": 47,
          "velocity": 0.6141732283464567,
          "duration": 1
        },
        {
          "name": "A2",
          "midi": 45,
          "time": 47,
          "velocity": 0.6141732283464567,
          "duration": 1
        },
        {
          "name": "A1",
          "midi": 33,
          "time": 48,
          "velocity": 0.5433070866141733,
          "duration": 0.5
        },
        {
          "name": "A2",
          "midi": 45,
          "time": 48,
          "velocity": 0.5433070866141733,
          "duration": 0.5
        },
        {
          "name": "D#4",
          "midi": 63,
          "time": 48.5,
          "velocity": 0.7874015748031497,
          "duration": 8
        },
        {
          "name": "C4",
          "midi": 60,
          "time": 48.5,
          "velocity": 0.7874015748031497,
          "duration": 8
        },
        {
          "name": "G#3",
          "midi": 56,
          "time": 48.5,
          "velocity": 0.7874015748031497,
          "duration": 8
        },
        {
          "name": "E4",
          "midi": 64,
          "time": 56.5,
          "velocity": 0.7874015748031497,
          "duration": 4
        },
        {
          "name": "B3",
          "midi": 59,
          "time": 56.5,
          "velocity": 0.7874015748031497,
          "duration": 4
        },
        {
          "name": "G#3",
          "midi": 56,
          "time": 56.5,
          "velocity": 0.7874015748031497,
          "duration": 4
        },
        {
          "name": "E3",
          "midi": 52,
          "time": 56.5,
          "velocity": 0.7874015748031497,
          "duration": 4
        },
        {
          "name": "D#4",
          "midi": 63,
          "time": 60.5,
          "velocity": 0.7874015748031497,
          "duration": 4
        },
        {
          "name": "C#4",
          "midi": 61,
          "time": 60.5,
          "velocity": 0.7874015748031497,
          "duration": 4
        },
        {
          "name": "A#3",
          "midi": 58,
          "time": 60.5,
          "velocity": 0.7874015748031497,
          "duration": 4
        },
        {
          "name": "G3",
          "midi": 55,
          "time": 60.5,
          "velocity": 0.7874015748031497,
          "duration": 4
        },
        {
          "name": "D#3",
          "midi": 51,
          "time": 60.5,
          "velocity": 0.7874015748031497,
          "duration": 4
        },
        {
          "name": "D#4",
          "midi": 63,
          "time": 64.5,
          "velocity": 0.7874015748031497,
          "duration": 8
        },
        {
          "name": "C4",
          "midi": 60,
          "time": 64.5,
          "velocity": 0.7874015748031497,
          "duration": 8
        },
        {
          "name": "G#3",
          "midi": 56,
          "time": 64.5,
          "velocity": 0.7874015748031497,
          "duration": 8
        },
        {
          "name": "G#4",
          "midi": 68,
          "time": 65.5,
          "velocity": 0.4409448818897638,
          "duration": 0.5
        },
        {
          "name": "G#5",
          "midi": 80,
          "time": 65.5,
          "velocity": 0.4409448818897638,
          "duration": 0.5
        },
        {
          "name": "D#5",
          "midi": 75,
          "time": 65.5,
          "velocity": 0.4409448818897638,
          "duration": 0.5
        },
        {
          "name": "F#4",
          "midi": 66,
          "time": 66.5,
          "velocity": 0.4409448818897638,
          "duration": 0.5
        },
        {
          "name": "C#5",
          "midi": 73,
          "time": 66.5,
          "velocity": 0.4409448818897638,
          "duration": 0.5
        },
        {
          "name": "F#4",
          "midi": 66,
          "time": 67.5,
          "velocity": 0.4409448818897638,
          "duration": 0.5
        },
        {
          "name": "C#5",
          "midi": 73,
          "time": 67.5,
          "velocity": 0.4409448818897638,
          "duration": 0.5
        },
        {
          "name": "D#5",
          "midi": 75,
          "time": 68,
          "velocity": 0.4409448818897638,
          "duration": 0.5
        },
        {
          "name": "G#4",
          "midi": 68,
          "time": 68,
          "velocity": 0.4409448818897638,
          "duration": 0.5
        },
        {
          "name": "D#5",
          "midi": 75,
          "time": 69,
          "velocity": 0.4330708661417323,
          "duration": 0.5
        },
        {
          "name": "G#4",
          "midi": 68,
          "time": 69,
          "velocity": 0.4330708661417323,
          "duration": 0.5
        },
        {
          "name": "C#5",
          "midi": 73,
          "time": 69.5,
          "velocity": 0.4330708661417323,
          "duration": 0.5
        },
        {
          "name": "F#4",
          "midi": 66,
          "time": 69.5,
          "velocity": 0.4330708661417323,
          "duration": 0.5
        },
        {
          "name": "D#5",
          "midi": 75,
          "time": 70,
          "velocity": 0.4330708661417323,
          "duration": 0.5
        },
        {
          "name": "G#4",
          "midi": 68,
          "time": 70,
          "velocity": 0.4330708661417323,
          "duration": 0.5
        },
        {
          "name": "E4",
          "midi": 64,
          "time": 72.5,
          "velocity": 0.7874015748031497,
          "duration": 1
        },
        {
          "name": "B3",
          "midi": 59,
          "time": 72.5,
          "velocity": 0.7874015748031497,
          "duration": 3
        },
        {
          "name": "G#3",
          "midi": 56,
          "time": 72.5,
          "velocity": 0.7874015748031497,
          "duration": 3.5
        },
        {
          "name": "E3",
          "midi": 52,
          "time": 72.5,
          "velocity": 0.7874015748031497,
          "duration": 4
        },
        {
          "name": "E4",
          "midi": 64,
          "time": 73.5,
          "velocity": 0.4251968503937008,
          "duration": 0.5
        },
        {
          "name": "E5",
          "midi": 76,
          "time": 73.5,
          "velocity": 0.4251968503937008,
          "duration": 0.5
        },
        {
          "name": "D#4",
          "midi": 63,
          "time": 74.5,
          "velocity": 0.4251968503937008,
          "duration": 0.5
        },
        {
          "name": "E4",
          "midi": 64,
          "time": 75,
          "velocity": 0.4251968503937008,
          "duration": 0.5
        },
        {
          "name": "G#4",
          "midi": 68,
          "time": 75.5,
          "velocity": 0.4251968503937008,
          "duration": 0.5
        },
        {
          "name": "B3",
          "midi": 59,
          "time": 75.5,
          "velocity": 0.44881889763779526,
          "duration": 0.5
        },
        {
          "name": "G4",
          "midi": 67,
          "time": 76,
          "velocity": 0.4251968503937008,
          "duration": 0.5
        },
        {
          "name": "A#3",
          "midi": 58,
          "time": 76,
          "velocity": 0.44881889763779526,
          "duration": 0.5
        },
        {
          "name": "D#4",
          "midi": 63,
          "time": 76.5,
          "velocity": 0.7874015748031497,
          "duration": 4
        },
        {
          "name": "C#4",
          "midi": 61,
          "time": 76.5,
          "velocity": 0.7874015748031497,
          "duration": 4
        },
        {
          "name": "A#3",
          "midi": 58,
          "time": 76.5,
          "velocity": 0.44881889763779526,
          "duration": 0.5
        },
        {
          "name": "G3",
          "midi": 55,
          "time": 76.5,
          "velocity": 0.7874015748031497,
          "duration": 4
        },
        {
          "name": "D#3",
          "midi": 51,
          "time": 76.5,
          "velocity": 0.7874015748031497,
          "duration": 4
        },
        {
          "name": "G4",
          "midi": 67,
          "time": 76.5,
          "velocity": 0.4094488188976378,
          "duration": 0.5
        },
        {
          "name": "G4",
          "midi": 67,
          "time": 77,
          "velocity": 0.41732283464566927,
          "duration": 0.5
        },
        {
          "name": "A#3",
          "midi": 58,
          "time": 77,
          "velocity": 0.44881889763779526,
          "duration": 0.5
        },
        {
          "name": "G4",
          "midi": 67,
          "time": 78,
          "velocity": 0.4409448818897638,
          "duration": 0.5
        },
        {
          "name": "A#3",
          "midi": 58,
          "time": 78,
          "velocity": 0.44881889763779526,
          "duration": 0.5
        },
        {
          "name": "G#4",
          "midi": 68,
          "time": 79,
          "velocity": 0.4645669291338583,
          "duration": 0.5
        },
        {
          "name": "A#3",
          "midi": 58,
          "time": 79,
          "velocity": 0.4409448818897638,
          "duration": 0.5
        },
        {
          "name": "G#4",
          "midi": 68,
          "time": 80,
          "velocity": 0.4881889763779528,
          "duration": 0.5
        },
        {
          "name": "A#3",
          "midi": 58,
          "time": 80,
          "velocity": 0.4409448818897638,
          "duration": 0.5
        },
        {
          "name": "D#5",
          "midi": 75,
          "time": 80.5,
          "velocity": 0.47244094488188976,
          "duration": 2
        },
        {
          "name": "G#4",
          "midi": 68,
          "time": 80.5,
          "velocity": 0.5748031496062992,
          "duration": 2
        },
        {
          "name": "D#4",
          "midi": 63,
          "time": 80.5,
          "velocity": 0.5748031496062992,
          "duration": 2
        },
        {
          "name": "B3",
          "midi": 59,
          "time": 80.5,
          "velocity": 0.5748031496062992,
          "duration": 2
        },
        {
          "name": "G#3",
          "midi": 56,
          "time": 80.5,
          "velocity": 0.5748031496062992,
          "duration": 2
        },
        {
          "name": "D#3",
          "midi": 51,
          "time": 80.5,
          "velocity": 0.5748031496062992,
          "duration": 2
        },
        {
          "name": "G#2",
          "midi": 44,
          "time": 80.5,
          "velocity": 0.5748031496062992,
          "duration": 2
        },
        {
          "name": "D#5",
          "midi": 75,
          "time": 82.5,
          "velocity": 0.47244094488188976,
          "duration": 2
        },
        {
          "name": "D#4",
          "midi": 63,
          "time": 82.5,
          "velocity": 0.5748031496062992,
          "duration": 2
        },
        {
          "name": "D#3",
          "midi": 51,
          "time": 82.5,
          "velocity": 0.5748031496062992,
          "duration": 2
        },
        {
          "name": "A#4",
          "midi": 70,
          "time": 82.5,
          "velocity": 0.5748031496062992,
          "duration": 2
        },
        {
          "name": "G4",
          "midi": 67,
          "time": 82.5,
          "velocity": 0.5748031496062992,
          "duration": 2
        },
        {
          "name": "A#3",
          "midi": 58,
          "time": 82.5,
          "velocity": 0.5748031496062992,
          "duration": 2
        },
        {
          "name": "C#4",
          "midi": 61,
          "time": 82.5,
          "velocity": 0.5748031496062992,
          "duration": 2
        },
        {
          "name": "G3",
          "midi": 55,
          "time": 82.5,
          "velocity": 0.5748031496062992,
          "duration": 2
        },
        {
          "name": "G2",
          "midi": 43,
          "time": 82.5,
          "velocity": 0.5748031496062992,
          "duration": 2
        },
        {
          "name": "D#5",
          "midi": 75,
          "time": 84.5,
          "velocity": 0.47244094488188976,
          "duration": 2
        },
        {
          "name": "F#4",
          "midi": 66,
          "time": 84.5,
          "velocity": 0.5748031496062992,
          "duration": 2
        },
        {
          "name": "C#4",
          "midi": 61,
          "time": 84.5,
          "velocity": 0.5748031496062992,
          "duration": 2
        },
        {
          "name": "A#3",
          "midi": 58,
          "time": 84.5,
          "velocity": 0.5748031496062992,
          "duration": 2
        },
        {
          "name": "F#3",
          "midi": 54,
          "time": 84.5,
          "velocity": 0.5748031496062992,
          "duration": 2
        },
        {
          "name": "C#3",
          "midi": 49,
          "time": 84.5,
          "velocity": 0.5748031496062992,
          "duration": 2
        },
        {
          "name": "F#2",
          "midi": 42,
          "time": 84.5,
          "velocity": 0.5748031496062992,
          "duration": 2
        },
        {
          "name": "D#5",
          "midi": 75,
          "time": 86.5,
          "velocity": 0.47244094488188976,
          "duration": 2
        },
        {
          "name": "G#4",
          "midi": 68,
          "time": 86.5,
          "velocity": 0.5748031496062992,
          "duration": 2
        },
        {
          "name": "F4",
          "midi": 65,
          "time": 86.5,
          "velocity": 0.5748031496062992,
          "duration": 2
        },
        {
          "name": "C#4",
          "midi": 61,
          "time": 86.5,
          "velocity": 0.5748031496062992,
          "duration": 2
        },
        {
          "name": "G#3",
          "midi": 56,
          "time": 86.5,
          "velocity": 0.5748031496062992,
          "duration": 2
        },
        {
          "name": "F3",
          "midi": 53,
          "time": 86.5,
          "velocity": 0.5748031496062992,
          "duration": 2
        },
        {
          "name": "C#3",
          "midi": 49,
          "time": 86.5,
          "velocity": 0.5748031496062992,
          "duration": 2
        },
        {
          "name": "F2",
          "midi": 41,
          "time": 86.5,
          "velocity": 0.5748031496062992,
          "duration": 2
        },
        {
          "name": "E5",
          "midi": 76,
          "time": 88.5,
          "velocity": 0.47244094488188976,
          "duration": 4
        },
        {
          "name": "G#4",
          "midi": 68,
          "time": 88.5,
          "velocity": 0.5748031496062992,
          "duration": 4
        },
        {
          "name": "E4",
          "midi": 64,
          "time": 88.5,
          "velocity": 0.5748031496062992,
          "duration": 4
        },
        {
          "name": "B3",
          "midi": 59,
          "time": 88.5,
          "velocity": 0.5748031496062992,
          "duration": 4
        },
        {
          "name": "G#3",
          "midi": 56,
          "time": 88.5,
          "velocity": 0.5748031496062992,
          "duration": 2
        },
        {
          "name": "E3",
          "midi": 52,
          "time": 88.5,
          "velocity": 0.5748031496062992,
          "duration": 2
        },
        {
          "name": "B2",
          "midi": 47,
          "time": 88.5,
          "velocity": 0.5748031496062992,
          "duration": 2
        },
        {
          "name": "E2",
          "midi": 40,
          "time": 88.5,
          "velocity": 0.5748031496062992,
          "duration": 2
        },
        {
          "name": "G4",
          "midi": 67,
          "time": 90.5,
          "velocity": 0.5748031496062992,
          "duration": 2
        },
        {
          "name": "D#4",
          "midi": 63,
          "time": 90.5,
          "velocity": 0.5748031496062992,
          "duration": 2
        },
        {
          "name": "A#3",
          "midi": 58,
          "time": 90.5,
          "velocity": 0.5748031496062992,
          "duration": 2
        },
        {
          "name": "G3",
          "midi": 55,
          "time": 90.5,
          "velocity": 0.5748031496062992,
          "duration": 2
        },
        {
          "name": "D#3",
          "midi": 51,
          "time": 90.5,
          "velocity": 0.5748031496062992,
          "duration": 2
        },
        {
          "name": "A#2",
          "midi": 46,
          "time": 90.5,
          "velocity": 0.5748031496062992,
          "duration": 2
        },
        {
          "name": "D#2",
          "midi": 39,
          "time": 90.5,
          "velocity": 0.5748031496062992,
          "duration": 2
        },
        {
          "name": "D#5",
          "midi": 75,
          "time": 92.5,
          "velocity": 0.47244094488188976,
          "duration": 2
        },
        {
          "name": "G#4",
          "midi": 68,
          "time": 92.5,
          "velocity": 0.5748031496062992,
          "duration": 2
        },
        {
          "name": "D#4",
          "midi": 63,
          "time": 92.5,
          "velocity": 0.5748031496062992,
          "duration": 2
        },
        {
          "name": "A#3",
          "midi": 58,
          "time": 92.5,
          "velocity": 0.5748031496062992,
          "duration": 2
        },
        {
          "name": "F3",
          "midi": 53,
          "time": 92.5,
          "velocity": 0.5748031496062992,
          "duration": 2
        },
        {
          "name": "A#2",
          "midi": 46,
          "time": 92.5,
          "velocity": 0.5748031496062992,
          "duration": 2
        },
        {
          "name": "D#3",
          "midi": 51,
          "time": 92.5,
          "velocity": 0.5748031496062992,
          "duration": 2
        },
        {
          "name": "D4",
          "midi": 62,
          "time": 92.5,
          "velocity": 0.5748031496062992,
          "duration": 2
        },
        {
          "name": "F4",
          "midi": 65,
          "time": 92.5,
          "velocity": 0.5748031496062992,
          "duration": 2
        },
        {
          "name": "D#5",
          "midi": 75,
          "time": 94.5,
          "velocity": 0.47244094488188976,
          "duration": 1
        },
        {
          "name": "G4",
          "midi": 67,
          "time": 94.5,
          "velocity": 0.5748031496062992,
          "duration": 1
        },
        {
          "name": "D#4",
          "midi": 63,
          "time": 94.5,
          "velocity": 0.5748031496062992,
          "duration": 1
        },
        {
          "name": "A#3",
          "midi": 58,
          "time": 94.5,
          "velocity": 0.5748031496062992,
          "duration": 1
        },
        {
          "name": "G3",
          "midi": 55,
          "time": 94.5,
          "velocity": 0.5748031496062992,
          "duration": 1
        },
        {
          "name": "D#3",
          "midi": 51,
          "time": 94.5,
          "velocity": 0.5748031496062992,
          "duration": 0.25
        },
        {
          "name": "A#2",
          "midi": 46,
          "time": 94.5,
          "velocity": 0.5748031496062992,
          "duration": 0.25
        },
        {
          "name": "D#2",
          "midi": 39,
          "time": 94.5,
          "velocity": 0.5748031496062992,
          "duration": 0.25
        },
        {
          "name": "G4",
          "midi": 67,
          "time": 95.5,
          "velocity": 0.5748031496062992,
          "duration": 1
        },
        {
          "name": "D#4",
          "midi": 63,
          "time": 95.5,
          "velocity": 0.5748031496062992,
          "duration": 1
        },
        {
          "name": "A#3",
          "midi": 58,
          "time": 95.5,
          "velocity": 0.5748031496062992,
          "duration": 1
        },
        {
          "name": "G3",
          "midi": 55,
          "time": 95.5,
          "velocity": 0.5748031496062992,
          "duration": 1
        },
        {
          "name": "D#3",
          "midi": 51,
          "time": 95.5,
          "velocity": 0.5748031496062992,
          "duration": 1
        },
        {
          "name": "A#2",
          "midi": 46,
          "time": 95.5,
          "velocity": 0.5748031496062992,
          "duration": 1
        },
        {
          "name": "D#2",
          "midi": 39,
          "time": 95.5,
          "velocity": 0.5748031496062992,
          "duration": 1
        },
        {
          "name": "D#5",
          "midi": 75,
          "time": 96.5,
          "velocity": 0.47244094488188976,
          "duration": 2
        },
        {
          "name": "G#4",
          "midi": 68,
          "time": 96.5,
          "velocity": 0.5748031496062992,
          "duration": 2
        },
        {
          "name": "D#4",
          "midi": 63,
          "time": 96.5,
          "velocity": 0.5748031496062992,
          "duration": 2
        },
        {
          "name": "B3",
          "midi": 59,
          "time": 96.5,
          "velocity": 0.5748031496062992,
          "duration": 2
        },
        {
          "name": "G#3",
          "midi": 56,
          "time": 96.5,
          "velocity": 0.5748031496062992,
          "duration": 2
        },
        {
          "name": "D#3",
          "midi": 51,
          "time": 96.5,
          "velocity": 0.5748031496062992,
          "duration": 2
        },
        {
          "name": "G#2",
          "midi": 44,
          "time": 96.5,
          "velocity": 0.5748031496062992,
          "duration": 2
        },
        {
          "name": "D#5",
          "midi": 75,
          "time": 98.5,
          "velocity": 0.47244094488188976,
          "duration": 2
        },
        {
          "name": "D#4",
          "midi": 63,
          "time": 98.5,
          "velocity": 0.5748031496062992,
          "duration": 2
        },
        {
          "name": "D#3",
          "midi": 51,
          "time": 98.5,
          "velocity": 0.5748031496062992,
          "duration": 2
        },
        {
          "name": "A#4",
          "midi": 70,
          "time": 98.5,
          "velocity": 0.5748031496062992,
          "duration": 2
        },
        {
          "name": "G4",
          "midi": 67,
          "time": 98.5,
          "velocity": 0.5748031496062992,
          "duration": 2
        },
        {
          "name": "A#3",
          "midi": 58,
          "time": 98.5,
          "velocity": 0.5748031496062992,
          "duration": 2
        },
        {
          "name": "C#4",
          "midi": 61,
          "time": 98.5,
          "velocity": 0.5748031496062992,
          "duration": 2
        },
        {
          "name": "G3",
          "midi": 55,
          "time": 98.5,
          "velocity": 0.5748031496062992,
          "duration": 2
        },
        {
          "name": "G2",
          "midi": 43,
          "time": 98.5,
          "velocity": 0.5748031496062992,
          "duration": 2
        },
        {
          "name": "D#5",
          "midi": 75,
          "time": 100.5,
          "velocity": 0.47244094488188976,
          "duration": 2
        },
        {
          "name": "F#4",
          "midi": 66,
          "time": 100.5,
          "velocity": 0.5748031496062992,
          "duration": 2
        },
        {
          "name": "C#4",
          "midi": 61,
          "time": 100.5,
          "velocity": 0.5748031496062992,
          "duration": 2
        },
        {
          "name": "A#3",
          "midi": 58,
          "time": 100.5,
          "velocity": 0.5748031496062992,
          "duration": 2
        },
        {
          "name": "F#3",
          "midi": 54,
          "time": 100.5,
          "velocity": 0.5748031496062992,
          "duration": 2
        },
        {
          "name": "C#3",
          "midi": 49,
          "time": 100.5,
          "velocity": 0.5748031496062992,
          "duration": 2
        },
        {
          "name": "F#2",
          "midi": 42,
          "time": 100.5,
          "velocity": 0.5748031496062992,
          "duration": 2
        },
        {
          "name": "D#5",
          "midi": 75,
          "time": 102.5,
          "velocity": 0.47244094488188976,
          "duration": 2
        },
        {
          "name": "G#4",
          "midi": 68,
          "time": 102.5,
          "velocity": 0.5748031496062992,
          "duration": 2
        },
        {
          "name": "F4",
          "midi": 65,
          "time": 102.5,
          "velocity": 0.5748031496062992,
          "duration": 2
        },
        {
          "name": "C#4",
          "midi": 61,
          "time": 102.5,
          "velocity": 0.5748031496062992,
          "duration": 2
        },
        {
          "name": "G#3",
          "midi": 56,
          "time": 102.5,
          "velocity": 0.5748031496062992,
          "duration": 2
        },
        {
          "name": "F3",
          "midi": 53,
          "time": 102.5,
          "velocity": 0.5748031496062992,
          "duration": 2
        },
        {
          "name": "C#3",
          "midi": 49,
          "time": 102.5,
          "velocity": 0.5748031496062992,
          "duration": 2
        },
        {
          "name": "F2",
          "midi": 41,
          "time": 102.5,
          "velocity": 0.5748031496062992,
          "duration": 2
        },
        {
          "name": "E5",
          "midi": 76,
          "time": 104.5,
          "velocity": 0.47244094488188976,
          "duration": 4
        },
        {
          "name": "G#4",
          "midi": 68,
          "time": 104.5,
          "velocity": 0.5748031496062992,
          "duration": 4
        },
        {
          "name": "E4",
          "midi": 64,
          "time": 104.5,
          "velocity": 0.5748031496062992,
          "duration": 4
        },
        {
          "name": "B3",
          "midi": 59,
          "time": 104.5,
          "velocity": 0.5748031496062992,
          "duration": 4
        },
        {
          "name": "G#3",
          "midi": 56,
          "time": 104.5,
          "velocity": 0.5748031496062992,
          "duration": 2
        },
        {
          "name": "E3",
          "midi": 52,
          "time": 104.5,
          "velocity": 0.5748031496062992,
          "duration": 2
        },
        {
          "name": "B2",
          "midi": 47,
          "time": 104.5,
          "velocity": 0.5748031496062992,
          "duration": 2
        },
        {
          "name": "E2",
          "midi": 40,
          "time": 104.5,
          "velocity": 0.5748031496062992,
          "duration": 2
        },
        {
          "name": "G4",
          "midi": 67,
          "time": 106.5,
          "velocity": 0.5748031496062992,
          "duration": 2
        },
        {
          "name": "D#4",
          "midi": 63,
          "time": 106.5,
          "velocity": 0.5748031496062992,
          "duration": 2
        },
        {
          "name": "A#3",
          "midi": 58,
          "time": 106.5,
          "velocity": 0.5748031496062992,
          "duration": 2
        },
        {
          "name": "G3",
          "midi": 55,
          "time": 106.5,
          "velocity": 0.5748031496062992,
          "duration": 2
        },
        {
          "name": "D#3",
          "midi": 51,
          "time": 106.5,
          "velocity": 0.5748031496062992,
          "duration": 2
        },
        {
          "name": "D#2",
          "midi": 39,
          "time": 106.5,
          "velocity": 0.5748031496062992,
          "duration": 2
        },
        {
          "name": "A#4",
          "midi": 70,
          "time": 106.5,
          "velocity": 0.5748031496062992,
          "duration": 2
        },
        {
          "name": "D#5",
          "midi": 75,
          "time": 108.5,
          "velocity": 0.47244094488188976,
          "duration": 2
        },
        {
          "name": "G#4",
          "midi": 68,
          "time": 108.5,
          "velocity": 0.5748031496062992,
          "duration": 2
        },
        {
          "name": "D#4",
          "midi": 63,
          "time": 108.5,
          "velocity": 0.5748031496062992,
          "duration": 2
        },
        {
          "name": "A#3",
          "midi": 58,
          "time": 108.5,
          "velocity": 0.5748031496062992,
          "duration": 2
        },
        {
          "name": "F3",
          "midi": 53,
          "time": 108.5,
          "velocity": 0.5748031496062992,
          "duration": 2
        },
        {
          "name": "A#2",
          "midi": 46,
          "time": 108.5,
          "velocity": 0.5748031496062992,
          "duration": 2
        },
        {
          "name": "D4",
          "midi": 62,
          "time": 108.5,
          "velocity": 0.5748031496062992,
          "duration": 2
        },
        {
          "name": "F4",
          "midi": 65,
          "time": 108.5,
          "velocity": 0.5748031496062992,
          "duration": 2
        },
        {
          "name": "A#4",
          "midi": 70,
          "time": 108.5,
          "velocity": 0.5748031496062992,
          "duration": 2
        },
        {
          "name": "G#3",
          "midi": 56,
          "time": 108.5,
          "velocity": 0.5748031496062992,
          "duration": 2
        },
        {
          "name": "D#5",
          "midi": 75,
          "time": 110.5,
          "velocity": 0.47244094488188976,
          "duration": 1
        },
        {
          "name": "G4",
          "midi": 67,
          "time": 110.5,
          "velocity": 0.5748031496062992,
          "duration": 1
        },
        {
          "name": "D#4",
          "midi": 63,
          "time": 110.5,
          "velocity": 0.5748031496062992,
          "duration": 1
        },
        {
          "name": "A#3",
          "midi": 58,
          "time": 110.5,
          "velocity": 0.5748031496062992,
          "duration": 1
        },
        {
          "name": "G3",
          "midi": 55,
          "time": 110.5,
          "velocity": 0.5748031496062992,
          "duration": 1
        },
        {
          "name": "D#3",
          "midi": 51,
          "time": 110.5,
          "velocity": 0.5748031496062992,
          "duration": 0.25
        },
        {
          "name": "A#2",
          "midi": 46,
          "time": 110.5,
          "velocity": 0.5748031496062992,
          "duration": 0.25
        },
        {
          "name": "D#2",
          "midi": 39,
          "time": 110.5,
          "velocity": 0.5748031496062992,
          "duration": 0.25
        },
        {
          "name": "A#4",
          "midi": 70,
          "time": 110.5,
          "velocity": 0.5748031496062992,
          "duration": 0.25
        },
        {
          "name": "G4",
          "midi": 67,
          "time": 111.5,
          "velocity": 0.5748031496062992,
          "duration": 1
        },
        {
          "name": "D#4",
          "midi": 63,
          "time": 111.5,
          "velocity": 0.5748031496062992,
          "duration": 1
        },
        {
          "name": "A#3",
          "midi": 58,
          "time": 111.5,
          "velocity": 0.5748031496062992,
          "duration": 1
        },
        {
          "name": "G3",
          "midi": 55,
          "time": 111.5,
          "velocity": 0.5748031496062992,
          "duration": 1
        },
        {
          "name": "D#3",
          "midi": 51,
          "time": 111.5,
          "velocity": 0.5748031496062992,
          "duration": 1
        },
        {
          "name": "A#2",
          "midi": 46,
          "time": 111.5,
          "velocity": 0.5748031496062992,
          "duration": 1
        },
        {
          "name": "D#2",
          "midi": 39,
          "time": 111.5,
          "velocity": 0.5748031496062992,
          "duration": 1
        },
        {
          "name": "A#4",
          "midi": 70,
          "time": 111.5,
          "velocity": 0.5748031496062992,
          "duration": 1
        },
        {
          "name": "B3",
          "midi": 59,
          "time": 112.5,
          "velocity": 0.5826771653543307,
          "duration": 1.5
        },
        {
          "name": "G#3",
          "midi": 56,
          "time": 112.5,
          "velocity": 0.5826771653543307,
          "duration": 1.5
        },
        {
          "name": "E3",
          "midi": 52,
          "time": 112.5,
          "velocity": 0.5826771653543307,
          "duration": 1.5
        },
        {
          "name": "B3",
          "midi": 59,
          "time": 114,
          "velocity": 0.5826771653543307,
          "duration": 0.5
        },
        {
          "name": "G#3",
          "midi": 56,
          "time": 114,
          "velocity": 0.5826771653543307,
          "duration": 0.5
        },
        {
          "name": "E3",
          "midi": 52,
          "time": 114,
          "velocity": 0.5826771653543307,
          "duration": 0.5
        },
        {
          "name": "D#4",
          "midi": 63,
          "time": 114.5,
          "velocity": 0.5826771653543307,
          "duration": 1.5
        },
        {
          "name": "A#3",
          "midi": 58,
          "time": 114.5,
          "velocity": 0.5826771653543307,
          "duration": 1.5
        },
        {
          "name": "G3",
          "midi": 55,
          "time": 114.5,
          "velocity": 0.5826771653543307,
          "duration": 1.5
        },
        {
          "name": "D#4",
          "midi": 63,
          "time": 116,
          "velocity": 0.5826771653543307,
          "duration": 2
        },
        {
          "name": "B3",
          "midi": 59,
          "time": 116,
          "velocity": 0.5826771653543307,
          "duration": 2
        },
        {
          "name": "G#3",
          "midi": 56,
          "time": 116,
          "velocity": 0.5826771653543307,
          "duration": 2
        },
        {
          "name": "D4",
          "midi": 62,
          "time": 118,
          "velocity": 0.5826771653543307,
          "duration": 0.5
        },
        {
          "name": "A#3",
          "midi": 58,
          "time": 118,
          "velocity": 0.5826771653543307,
          "duration": 0.5
        },
        {
          "name": "G3",
          "midi": 55,
          "time": 118,
          "velocity": 0.5826771653543307,
          "duration": 0.5
        },
        {
          "name": "E4",
          "midi": 64,
          "time": 118.5,
          "velocity": 0.5826771653543307,
          "duration": 1
        },
        {
          "name": "C#4",
          "midi": 61,
          "time": 118.5,
          "velocity": 0.5826771653543307,
          "duration": 1
        },
        {
          "name": "A3",
          "midi": 57,
          "time": 118.5,
          "velocity": 0.5826771653543307,
          "duration": 1
        },
        {
          "name": "F#3",
          "midi": 54,
          "time": 118.5,
          "velocity": 0.5826771653543307,
          "duration": 1
        },
        {
          "name": "D#4",
          "midi": 63,
          "time": 119.5,
          "velocity": 0.5826771653543307,
          "duration": 1
        },
        {
          "name": "B3",
          "midi": 59,
          "time": 119.5,
          "velocity": 0.5826771653543307,
          "duration": 1
        },
        {
          "name": "F#3",
          "midi": 54,
          "time": 119.5,
          "velocity": 0.5826771653543307,
          "duration": 1
        },
        {
          "name": "E4",
          "midi": 64,
          "time": 120.5,
          "velocity": 0.5826771653543307,
          "duration": 1.5
        },
        {
          "name": "C#4",
          "midi": 61,
          "time": 120.5,
          "velocity": 0.5826771653543307,
          "duration": 1.5
        },
        {
          "name": "A3",
          "midi": 57,
          "time": 120.5,
          "velocity": 0.5826771653543307,
          "duration": 1.5
        },
        {
          "name": "F#3",
          "midi": 54,
          "time": 120.5,
          "velocity": 0.5826771653543307,
          "duration": 1.5
        },
        {
          "name": "C#4",
          "midi": 61,
          "time": 122,
          "velocity": 0.5826771653543307,
          "duration": 0.5
        },
        {
          "name": "A3",
          "midi": 57,
          "time": 122,
          "velocity": 0.5826771653543307,
          "duration": 0.5
        },
        {
          "name": "F#3",
          "midi": 54,
          "time": 122,
          "velocity": 0.5826771653543307,
          "duration": 0.5
        },
        {
          "name": "D#4",
          "midi": 63,
          "time": 122.5,
          "velocity": 0.5826771653543307,
          "duration": 1
        },
        {
          "name": "C#4",
          "midi": 61,
          "time": 122.5,
          "velocity": 0.5826771653543307,
          "duration": 1
        },
        {
          "name": "A#3",
          "midi": 58,
          "time": 122.5,
          "velocity": 0.5826771653543307,
          "duration": 1
        },
        {
          "name": "G3",
          "midi": 55,
          "time": 122.5,
          "velocity": 0.5826771653543307,
          "duration": 1
        },
        {
          "name": "D#4",
          "midi": 63,
          "time": 123.5,
          "velocity": 0.5826771653543307,
          "duration": 1
        },
        {
          "name": "C#4",
          "midi": 61,
          "time": 123.5,
          "velocity": 0.5826771653543307,
          "duration": 1
        },
        {
          "name": "A#3",
          "midi": 58,
          "time": 123.5,
          "velocity": 0.5826771653543307,
          "duration": 1
        },
        {
          "name": "G3",
          "midi": 55,
          "time": 123.5,
          "velocity": 0.5826771653543307,
          "duration": 1
        },
        {
          "name": "D#4",
          "midi": 63,
          "time": 124.5,
          "velocity": 0.5826771653543307,
          "duration": 0.5
        },
        {
          "name": "B3",
          "midi": 59,
          "time": 124.5,
          "velocity": 0.5826771653543307,
          "duration": 0.5
        },
        {
          "name": "G#3",
          "midi": 56,
          "time": 124.5,
          "velocity": 0.5826771653543307,
          "duration": 0.5
        },
        {
          "name": "F#3",
          "midi": 54,
          "time": 124.5,
          "velocity": 0.5826771653543307,
          "duration": 0.5
        },
        {
          "name": "E4",
          "midi": 64,
          "time": 125.5,
          "velocity": 0.5826771653543307,
          "duration": 0.5
        },
        {
          "name": "C#4",
          "midi": 61,
          "time": 125.5,
          "velocity": 0.5826771653543307,
          "duration": 0.5
        },
        {
          "name": "A#3",
          "midi": 58,
          "time": 125.5,
          "velocity": 0.5826771653543307,
          "duration": 0.5
        },
        {
          "name": "G3",
          "midi": 55,
          "time": 125.5,
          "velocity": 0.5826771653543307,
          "duration": 0.5
        },
        {
          "name": "D#4",
          "midi": 63,
          "time": 126.5,
          "velocity": 0.5826771653543307,
          "duration": 0.5
        },
        {
          "name": "B3",
          "midi": 59,
          "time": 126.5,
          "velocity": 0.5826771653543307,
          "duration": 0.5
        },
        {
          "name": "F#3",
          "midi": 54,
          "time": 126.5,
          "velocity": 0.5826771653543307,
          "duration": 0.5
        },
        {
          "name": "D#4",
          "midi": 63,
          "time": 127,
          "velocity": 0.5826771653543307,
          "duration": 0.5
        },
        {
          "name": "B3",
          "midi": 59,
          "time": 127,
          "velocity": 0.5826771653543307,
          "duration": 0.5
        },
        {
          "name": "B3",
          "midi": 59,
          "time": 127.5,
          "velocity": 0.5826771653543307,
          "duration": 0.5
        },
        {
          "name": "A3",
          "midi": 57,
          "time": 127.5,
          "velocity": 0.5826771653543307,
          "duration": 0.5
        },
        {
          "name": "G#4",
          "midi": 68,
          "time": 128.5,
          "velocity": 0.5826771653543307,
          "duration": 2
        },
        {
          "name": "E4",
          "midi": 64,
          "time": 128.5,
          "velocity": 0.5826771653543307,
          "duration": 2
        },
        {
          "name": "D#4",
          "midi": 63,
          "time": 128.5,
          "velocity": 0.5826771653543307,
          "duration": 2
        },
        {
          "name": "B3",
          "midi": 59,
          "time": 128.5,
          "velocity": 0.5826771653543307,
          "duration": 2
        },
        {
          "name": "G#3",
          "midi": 56,
          "time": 128.5,
          "velocity": 0.5826771653543307,
          "duration": 2
        },
        {
          "name": "G4",
          "midi": 67,
          "time": 130.5,
          "velocity": 0.5826771653543307,
          "duration": 1.5
        },
        {
          "name": "D#4",
          "midi": 63,
          "time": 130.5,
          "velocity": 0.5826771653543307,
          "duration": 1.5
        },
        {
          "name": "G3",
          "midi": 55,
          "time": 130.5,
          "velocity": 0.5826771653543307,
          "duration": 1.5
        },
        {
          "name": "A#3",
          "midi": 58,
          "time": 130.5,
          "velocity": 0.5826771653543307,
          "duration": 1.5
        },
        {
          "name": "G#4",
          "midi": 68,
          "time": 132,
          "velocity": 0.5826771653543307,
          "duration": 2.5
        },
        {
          "name": "D#4",
          "midi": 63,
          "time": 132,
          "velocity": 0.5826771653543307,
          "duration": 2.5
        },
        {
          "name": "B3",
          "midi": 59,
          "time": 132,
          "velocity": 0.5826771653543307,
          "duration": 2.5
        },
        {
          "name": "G#3",
          "midi": 56,
          "time": 132,
          "velocity": 0.5826771653543307,
          "duration": 2.5
        },
        {
          "name": "F#4",
          "midi": 66,
          "time": 134.5,
          "velocity": 0.5826771653543307,
          "duration": 2
        },
        {
          "name": "B3",
          "midi": 59,
          "time": 134.5,
          "velocity": 0.5826771653543307,
          "duration": 2
        },
        {
          "name": "D#4",
          "midi": 63,
          "time": 134.5,
          "velocity": 0.5826771653543307,
          "duration": 2
        },
        {
          "name": "G#4",
          "midi": 68,
          "time": 136.5,
          "velocity": 0.5826771653543307,
          "duration": 8
        },
        {
          "name": "E4",
          "midi": 64,
          "time": 136.5,
          "velocity": 0.5826771653543307,
          "duration": 8
        },
        {
          "name": "C#4",
          "midi": 61,
          "time": 136.5,
          "velocity": 0.5826771653543307,
          "duration": 8
        },
        {
          "name": "B3",
          "midi": 59,
          "time": 136.5,
          "velocity": 0.5826771653543307,
          "duration": 8
        },
        {
          "name": "G#3",
          "midi": 56,
          "time": 136.5,
          "velocity": 0.5826771653543307,
          "duration": 8
        },
        {
          "name": "E3",
          "midi": 52,
          "time": 136.5,
          "velocity": 0.5826771653543307,
          "duration": 8
        },
        {
          "name": "D#4",
          "midi": 63,
          "time": 144.5,
          "velocity": 0.5826771653543307,
          "duration": 0.5
        },
        {
          "name": "A#3",
          "midi": 58,
          "time": 144.5,
          "velocity": 0.5826771653543307,
          "duration": 0.5
        },
        {
          "name": "G3",
          "midi": 55,
          "time": 144.5,
          "velocity": 0.5826771653543307,
          "duration": 0.5
        },
        {
          "name": "E4",
          "midi": 64,
          "time": 146,
          "velocity": 0.5748031496062992,
          "duration": 0.5
        },
        {
          "name": "G3",
          "midi": 55,
          "time": 146,
          "velocity": 0.5748031496062992,
          "duration": 0.5
        },
        {
          "name": "A#3",
          "midi": 58,
          "time": 146,
          "velocity": 0.5748031496062992,
          "duration": 0.5
        },
        {
          "name": "D#4",
          "midi": 63,
          "time": 146.5,
          "velocity": 0.5748031496062992,
          "duration": 0.5
        },
        {
          "name": "A#3",
          "midi": 58,
          "time": 146.5,
          "velocity": 0.5748031496062992,
          "duration": 0.5
        },
        {
          "name": "G3",
          "midi": 55,
          "time": 146.5,
          "velocity": 0.5748031496062992,
          "duration": 0.5
        },
        {
          "name": "D#4",
          "midi": 63,
          "time": 148,
          "velocity": 0.5669291338582677,
          "duration": 0.5
        },
        {
          "name": "C#4",
          "midi": 61,
          "time": 148,
          "velocity": 0.5669291338582677,
          "duration": 0.5
        },
        {
          "name": "G3",
          "midi": 55,
          "time": 148,
          "velocity": 0.5669291338582677,
          "duration": 0.5
        },
        {
          "name": "A#3",
          "midi": 58,
          "time": 148,
          "velocity": 0.5669291338582677,
          "duration": 0.5
        },
        {
          "name": "C#5",
          "midi": 73,
          "time": 148,
          "velocity": 0.5669291338582677,
          "duration": 0.5
        },
        {
          "name": "C#5",
          "midi": 73,
          "time": 149,
          "velocity": 0.5590551181102362,
          "duration": 0.5
        },
        {
          "name": "D#4",
          "midi": 63,
          "time": 149,
          "velocity": 0.5590551181102362,
          "duration": 0.5
        },
        {
          "name": "C#4",
          "midi": 61,
          "time": 149,
          "velocity": 0.5590551181102362,
          "duration": 0.5
        },
        {
          "name": "A#3",
          "midi": 58,
          "time": 149,
          "velocity": 0.5590551181102362,
          "duration": 0.5
        },
        {
          "name": "G3",
          "midi": 55,
          "time": 149,
          "velocity": 0.5590551181102362,
          "duration": 0.5
        },
        {
          "name": "C#4",
          "midi": 61,
          "time": 150,
          "velocity": 0.5511811023622047,
          "duration": 0.5
        },
        {
          "name": "A#3",
          "midi": 58,
          "time": 150,
          "velocity": 0.5511811023622047,
          "duration": 0.5
        },
        {
          "name": "D#4",
          "midi": 63,
          "time": 150.5,
          "velocity": 0.5511811023622047,
          "duration": 0.5
        },
        {
          "name": "F2",
          "midi": 41,
          "time": 152.5,
          "velocity": 0.6456692913385826,
          "duration": 2
        },
        {
          "name": "C3",
          "midi": 48,
          "time": 152.5,
          "velocity": 0.6456692913385826,
          "duration": 2
        },
        {
          "name": "F3",
          "midi": 53,
          "time": 152.5,
          "velocity": 0.6456692913385826,
          "duration": 2
        },
        {
          "name": "A3",
          "midi": 57,
          "time": 152.5,
          "velocity": 0.6456692913385826,
          "duration": 2
        },
        {
          "name": "C4",
          "midi": 60,
          "time": 152.5,
          "velocity": 0.6456692913385826,
          "duration": 2
        },
        {
          "name": "F4",
          "midi": 65,
          "time": 152.5,
          "velocity": 0.6456692913385826,
          "duration": 2
        },
        {
          "name": "A4",
          "midi": 69,
          "time": 152.5,
          "velocity": 0.6456692913385826,
          "duration": 2
        },
        {
          "name": "G4",
          "midi": 67,
          "time": 154.5,
          "velocity": 0.6456692913385826,
          "duration": 1.5
        },
        {
          "name": "E4",
          "midi": 64,
          "time": 154.5,
          "velocity": 0.6456692913385826,
          "duration": 1.5
        },
        {
          "name": "D4",
          "midi": 62,
          "time": 154.5,
          "velocity": 0.6456692913385826,
          "duration": 1.5
        },
        {
          "name": "G3",
          "midi": 55,
          "time": 154.5,
          "velocity": 0.6456692913385826,
          "duration": 1.5
        },
        {
          "name": "B3",
          "midi": 59,
          "time": 154.5,
          "velocity": 0.6456692913385826,
          "duration": 1.5
        },
        {
          "name": "D3",
          "midi": 50,
          "time": 154.5,
          "velocity": 0.6456692913385826,
          "duration": 1.5
        },
        {
          "name": "E3",
          "midi": 52,
          "time": 154.5,
          "velocity": 0.6456692913385826,
          "duration": 1.5
        },
        {
          "name": "B2",
          "midi": 47,
          "time": 154.5,
          "velocity": 0.6456692913385826,
          "duration": 1.5
        },
        {
          "name": "E2",
          "midi": 40,
          "time": 154.5,
          "velocity": 0.6456692913385826,
          "duration": 1.5
        },
        {
          "name": "C5",
          "midi": 72,
          "time": 156,
          "velocity": 0.6456692913385826,
          "duration": 2.5
        },
        {
          "name": "A4",
          "midi": 69,
          "time": 156,
          "velocity": 0.6456692913385826,
          "duration": 2.5
        },
        {
          "name": "E4",
          "midi": 64,
          "time": 156,
          "velocity": 0.6456692913385826,
          "duration": 2.5
        },
        {
          "name": "C4",
          "midi": 60,
          "time": 156,
          "velocity": 0.6456692913385826,
          "duration": 2.5
        },
        {
          "name": "A3",
          "midi": 57,
          "time": 156,
          "velocity": 0.6456692913385826,
          "duration": 2.5
        },
        {
          "name": "E3",
          "midi": 52,
          "time": 156,
          "velocity": 0.6456692913385826,
          "duration": 2.5
        },
        {
          "name": "A2",
          "midi": 45,
          "time": 156,
          "velocity": 0.6456692913385826,
          "duration": 2.5
        },
        {
          "name": "C5",
          "midi": 72,
          "time": 158.5,
          "velocity": 0.6456692913385826,
          "duration": 1
        },
        {
          "name": "A4",
          "midi": 69,
          "time": 158.5,
          "velocity": 0.6456692913385826,
          "duration": 1
        },
        {
          "name": "G4",
          "midi": 67,
          "time": 158.5,
          "velocity": 0.6456692913385826,
          "duration": 2
        },
        {
          "name": "E4",
          "midi": 64,
          "time": 158.5,
          "velocity": 0.6456692913385826,
          "duration": 2
        },
        {
          "name": "C4",
          "midi": 60,
          "time": 158.5,
          "velocity": 0.6456692913385826,
          "duration": 2
        },
        {
          "name": "G3",
          "midi": 55,
          "time": 158.5,
          "velocity": 0.6456692913385826,
          "duration": 2
        },
        {
          "name": "E3",
          "midi": 52,
          "time": 158.5,
          "velocity": 0.6456692913385826,
          "duration": 2
        },
        {
          "name": "C3",
          "midi": 48,
          "time": 158.5,
          "velocity": 0.6456692913385826,
          "duration": 2
        },
        {
          "name": "D5",
          "midi": 74,
          "time": 159.5,
          "velocity": 0.6456692913385826,
          "duration": 1
        },
        {
          "name": "B4",
          "midi": 71,
          "time": 159.5,
          "velocity": 0.6456692913385826,
          "duration": 1
        },
        {
          "name": "C5",
          "midi": 72,
          "time": 160.5,
          "velocity": 0.6456692913385826,
          "duration": 2
        },
        {
          "name": "A4",
          "midi": 69,
          "time": 160.5,
          "velocity": 0.6456692913385826,
          "duration": 2
        },
        {
          "name": "F4",
          "midi": 65,
          "time": 160.5,
          "velocity": 0.6456692913385826,
          "duration": 2
        },
        {
          "name": "D4",
          "midi": 62,
          "time": 160.5,
          "velocity": 0.6456692913385826,
          "duration": 2
        },
        {
          "name": "A3",
          "midi": 57,
          "time": 160.5,
          "velocity": 0.6456692913385826,
          "duration": 2
        },
        {
          "name": "D3",
          "midi": 50,
          "time": 160.5,
          "velocity": 0.6456692913385826,
          "duration": 2
        },
        {
          "name": "A2",
          "midi": 45,
          "time": 160.5,
          "velocity": 0.6456692913385826,
          "duration": 2
        },
        {
          "name": "D2",
          "midi": 38,
          "time": 160.5,
          "velocity": 0.6456692913385826,
          "duration": 2
        },
        {
          "name": "B4",
          "midi": 71,
          "time": 162.5,
          "velocity": 0.6456692913385826,
          "duration": 1.5
        },
        {
          "name": "G4",
          "midi": 67,
          "time": 162.5,
          "velocity": 0.6456692913385826,
          "duration": 1.5
        },
        {
          "name": "E4",
          "midi": 64,
          "time": 162.5,
          "velocity": 0.6456692913385826,
          "duration": 1.5
        },
        {
          "name": "B3",
          "midi": 59,
          "time": 162.5,
          "velocity": 0.6456692913385826,
          "duration": 1.5
        },
        {
          "name": "G3",
          "midi": 55,
          "time": 162.5,
          "velocity": 0.6456692913385826,
          "duration": 1.5
        },
        {
          "name": "E3",
          "midi": 52,
          "time": 162.5,
          "velocity": 0.6456692913385826,
          "duration": 1.5
        },
        {
          "name": "B2",
          "midi": 47,
          "time": 162.5,
          "velocity": 0.6456692913385826,
          "duration": 1.5
        },
        {
          "name": "E2",
          "midi": 40,
          "time": 162.5,
          "velocity": 0.6456692913385826,
          "duration": 1.5
        },
        {
          "name": "E5",
          "midi": 76,
          "time": 164,
          "velocity": 0.6456692913385826,
          "duration": 2.5
        },
        {
          "name": "C5",
          "midi": 72,
          "time": 164,
          "velocity": 0.6456692913385826,
          "duration": 2.5
        },
        {
          "name": "A4",
          "midi": 69,
          "time": 164,
          "velocity": 0.6456692913385826,
          "duration": 2.5
        },
        {
          "name": "E4",
          "midi": 64,
          "time": 164,
          "velocity": 0.6456692913385826,
          "duration": 2.5
        },
        {
          "name": "E3",
          "midi": 52,
          "time": 164,
          "velocity": 0.6456692913385826,
          "duration": 2.5
        },
        {
          "name": "A2",
          "midi": 45,
          "time": 164,
          "velocity": 0.6456692913385826,
          "duration": 2.5
        },
        {
          "name": "A3",
          "midi": 57,
          "time": 164,
          "velocity": 0.6456692913385826,
          "duration": 2.5
        },
        {
          "name": "C4",
          "midi": 60,
          "time": 164,
          "velocity": 0.6456692913385826,
          "duration": 2.5
        },
        {
          "name": "A5",
          "midi": 81,
          "time": 166.5,
          "velocity": 0.6456692913385826,
          "duration": 0.5
        },
        {
          "name": "F5",
          "midi": 77,
          "time": 166.5,
          "velocity": 0.6456692913385826,
          "duration": 0.5
        },
        {
          "name": "A4",
          "midi": 69,
          "time": 166.5,
          "velocity": 0.6456692913385826,
          "duration": 0.5
        },
        {
          "name": "F4",
          "midi": 65,
          "time": 166.5,
          "velocity": 0.6456692913385826,
          "duration": 0.5
        },
        {
          "name": "C4",
          "midi": 60,
          "time": 166.5,
          "velocity": 0.6456692913385826,
          "duration": 0.5
        },
        {
          "name": "A3",
          "midi": 57,
          "time": 166.5,
          "velocity": 0.6456692913385826,
          "duration": 0.5
        },
        {
          "name": "F3",
          "midi": 53,
          "time": 166.5,
          "velocity": 0.6456692913385826,
          "duration": 0.5
        },
        {
          "name": "C3",
          "midi": 48,
          "time": 166.5,
          "velocity": 0.6456692913385826,
          "duration": 0.5
        },
        {
          "name": "F2",
          "midi": 41,
          "time": 166.5,
          "velocity": 0.6456692913385826,
          "duration": 0.5
        },
        {
          "name": "G2",
          "midi": 43,
          "time": 166.5,
          "velocity": 0.6456692913385826,
          "duration": 0.5
        },
        {
          "name": "G5",
          "midi": 79,
          "time": 167.5,
          "velocity": 0.6456692913385826,
          "duration": 0.5
        },
        {
          "name": "E5",
          "midi": 76,
          "time": 167.5,
          "velocity": 0.6456692913385826,
          "duration": 0.5
        },
        {
          "name": "G4",
          "midi": 67,
          "time": 167.5,
          "velocity": 0.6456692913385826,
          "duration": 0.5
        },
        {
          "name": "E4",
          "midi": 64,
          "time": 167.5,
          "velocity": 0.6456692913385826,
          "duration": 0.5
        },
        {
          "name": "B3",
          "midi": 59,
          "time": 167.5,
          "velocity": 0.6456692913385826,
          "duration": 0.5
        },
        {
          "name": "G3",
          "midi": 55,
          "time": 167.5,
          "velocity": 0.6456692913385826,
          "duration": 0.5
        },
        {
          "name": "E3",
          "midi": 52,
          "time": 167.5,
          "velocity": 0.6456692913385826,
          "duration": 0.5
        },
        {
          "name": "B2",
          "midi": 47,
          "time": 167.5,
          "velocity": 0.6456692913385826,
          "duration": 0.5
        },
        {
          "name": "E2",
          "midi": 40,
          "time": 167.5,
          "velocity": 0.6456692913385826,
          "duration": 0.5
        },
        {
          "name": "F2",
          "midi": 41,
          "time": 168.5,
          "velocity": 0.6456692913385826,
          "duration": 2
        },
        {
          "name": "C3",
          "midi": 48,
          "time": 168.5,
          "velocity": 0.6456692913385826,
          "duration": 2
        },
        {
          "name": "F3",
          "midi": 53,
          "time": 168.5,
          "velocity": 0.6456692913385826,
          "duration": 2
        },
        {
          "name": "A3",
          "midi": 57,
          "time": 168.5,
          "velocity": 0.6456692913385826,
          "duration": 2
        },
        {
          "name": "C4",
          "midi": 60,
          "time": 168.5,
          "velocity": 0.6456692913385826,
          "duration": 2
        },
        {
          "name": "F4",
          "midi": 65,
          "time": 168.5,
          "velocity": 0.6456692913385826,
          "duration": 2
        },
        {
          "name": "A4",
          "midi": 69,
          "time": 168.5,
          "velocity": 0.6456692913385826,
          "duration": 2
        },
        {
          "name": "G4",
          "midi": 67,
          "time": 170.5,
          "velocity": 0.6456692913385826,
          "duration": 1.5
        },
        {
          "name": "E4",
          "midi": 64,
          "time": 170.5,
          "velocity": 0.6456692913385826,
          "duration": 1.5
        },
        {
          "name": "D4",
          "midi": 62,
          "time": 170.5,
          "velocity": 0.6456692913385826,
          "duration": 1.5
        },
        {
          "name": "G3",
          "midi": 55,
          "time": 170.5,
          "velocity": 0.6456692913385826,
          "duration": 1.5
        },
        {
          "name": "B3",
          "midi": 59,
          "time": 170.5,
          "velocity": 0.6456692913385826,
          "duration": 1.5
        },
        {
          "name": "D3",
          "midi": 50,
          "time": 170.5,
          "velocity": 0.6456692913385826,
          "duration": 1.5
        },
        {
          "name": "E3",
          "midi": 52,
          "time": 170.5,
          "velocity": 0.6456692913385826,
          "duration": 1.5
        },
        {
          "name": "B2",
          "midi": 47,
          "time": 170.5,
          "velocity": 0.6456692913385826,
          "duration": 1.5
        },
        {
          "name": "E2",
          "midi": 40,
          "time": 170.5,
          "velocity": 0.6456692913385826,
          "duration": 1.5
        },
        {
          "name": "C5",
          "midi": 72,
          "time": 172,
          "velocity": 0.6456692913385826,
          "duration": 2.5
        },
        {
          "name": "A4",
          "midi": 69,
          "time": 172,
          "velocity": 0.6456692913385826,
          "duration": 2.5
        },
        {
          "name": "E4",
          "midi": 64,
          "time": 172,
          "velocity": 0.6456692913385826,
          "duration": 2.5
        },
        {
          "name": "C4",
          "midi": 60,
          "time": 172,
          "velocity": 0.6456692913385826,
          "duration": 2.5
        },
        {
          "name": "A3",
          "midi": 57,
          "time": 172,
          "velocity": 0.6456692913385826,
          "duration": 2.5
        },
        {
          "name": "E3",
          "midi": 52,
          "time": 172,
          "velocity": 0.6456692913385826,
          "duration": 2.5
        },
        {
          "name": "A2",
          "midi": 45,
          "time": 172,
          "velocity": 0.6456692913385826,
          "duration": 2.5
        },
        {
          "name": "C5",
          "midi": 72,
          "time": 174.5,
          "velocity": 0.6456692913385826,
          "duration": 1
        },
        {
          "name": "A4",
          "midi": 69,
          "time": 174.5,
          "velocity": 0.6456692913385826,
          "duration": 1
        },
        {
          "name": "G4",
          "midi": 67,
          "time": 174.5,
          "velocity": 0.6456692913385826,
          "duration": 2
        },
        {
          "name": "E4",
          "midi": 64,
          "time": 174.5,
          "velocity": 0.6456692913385826,
          "duration": 2
        },
        {
          "name": "C4",
          "midi": 60,
          "time": 174.5,
          "velocity": 0.6456692913385826,
          "duration": 2
        },
        {
          "name": "G3",
          "midi": 55,
          "time": 174.5,
          "velocity": 0.6456692913385826,
          "duration": 2
        },
        {
          "name": "E3",
          "midi": 52,
          "time": 174.5,
          "velocity": 0.6456692913385826,
          "duration": 2
        },
        {
          "name": "C3",
          "midi": 48,
          "time": 174.5,
          "velocity": 0.6456692913385826,
          "duration": 2
        },
        {
          "name": "D5",
          "midi": 74,
          "time": 175.5,
          "velocity": 0.6456692913385826,
          "duration": 1
        },
        {
          "name": "B4",
          "midi": 71,
          "time": 175.5,
          "velocity": 0.6456692913385826,
          "duration": 1
        },
        {
          "name": "C5",
          "midi": 72,
          "time": 176.5,
          "velocity": 0.6456692913385826,
          "duration": 2
        },
        {
          "name": "A4",
          "midi": 69,
          "time": 176.5,
          "velocity": 0.6456692913385826,
          "duration": 2
        },
        {
          "name": "F4",
          "midi": 65,
          "time": 176.5,
          "velocity": 0.6456692913385826,
          "duration": 2
        },
        {
          "name": "D4",
          "midi": 62,
          "time": 176.5,
          "velocity": 0.6456692913385826,
          "duration": 2
        },
        {
          "name": "A3",
          "midi": 57,
          "time": 176.5,
          "velocity": 0.6456692913385826,
          "duration": 2
        },
        {
          "name": "D3",
          "midi": 50,
          "time": 176.5,
          "velocity": 0.6456692913385826,
          "duration": 2
        },
        {
          "name": "A2",
          "midi": 45,
          "time": 176.5,
          "velocity": 0.6456692913385826,
          "duration": 2
        },
        {
          "name": "D2",
          "midi": 38,
          "time": 176.5,
          "velocity": 0.6456692913385826,
          "duration": 2
        },
        {
          "name": "B4",
          "midi": 71,
          "time": 178.5,
          "velocity": 0.6456692913385826,
          "duration": 1.5
        },
        {
          "name": "G4",
          "midi": 67,
          "time": 178.5,
          "velocity": 0.6456692913385826,
          "duration": 1.5
        },
        {
          "name": "E4",
          "midi": 64,
          "time": 178.5,
          "velocity": 0.6456692913385826,
          "duration": 1.5
        },
        {
          "name": "B3",
          "midi": 59,
          "time": 178.5,
          "velocity": 0.6456692913385826,
          "duration": 1.5
        },
        {
          "name": "G3",
          "midi": 55,
          "time": 178.5,
          "velocity": 0.6456692913385826,
          "duration": 1.5
        },
        {
          "name": "E3",
          "midi": 52,
          "time": 178.5,
          "velocity": 0.6456692913385826,
          "duration": 1.5
        },
        {
          "name": "B2",
          "midi": 47,
          "time": 178.5,
          "velocity": 0.6456692913385826,
          "duration": 1.5
        },
        {
          "name": "E2",
          "midi": 40,
          "time": 178.5,
          "velocity": 0.6456692913385826,
          "duration": 1.5
        },
        {
          "name": "E5",
          "midi": 76,
          "time": 180,
          "velocity": 0.6456692913385826,
          "duration": 2.5
        },
        {
          "name": "C5",
          "midi": 72,
          "time": 180,
          "velocity": 0.6456692913385826,
          "duration": 2.5
        },
        {
          "name": "A4",
          "midi": 69,
          "time": 180,
          "velocity": 0.6456692913385826,
          "duration": 2.5
        },
        {
          "name": "E4",
          "midi": 64,
          "time": 180,
          "velocity": 0.6456692913385826,
          "duration": 2.5
        },
        {
          "name": "E3",
          "midi": 52,
          "time": 180,
          "velocity": 0.6456692913385826,
          "duration": 4.5
        },
        {
          "name": "A2",
          "midi": 45,
          "time": 180,
          "velocity": 0.6456692913385826,
          "duration": 4.5
        },
        {
          "name": "A3",
          "midi": 57,
          "time": 180,
          "velocity": 0.6456692913385826,
          "duration": 2.5
        },
        {
          "name": "C4",
          "midi": 60,
          "time": 180,
          "velocity": 0.6456692913385826,
          "duration": 2.5
        },
        {
          "name": "A4",
          "midi": 69,
          "time": 182.5,
          "velocity": 0.6456692913385826,
          "duration": 2
        },
        {
          "name": "E4",
          "midi": 64,
          "time": 182.5,
          "velocity": 0.6456692913385826,
          "duration": 2
        },
        {
          "name": "A3",
          "midi": 57,
          "time": 182.5,
          "velocity": 0.6456692913385826,
          "duration": 2
        },
        {
          "name": "C4",
          "midi": 60,
          "time": 182.5,
          "velocity": 0.6456692913385826,
          "duration": 2
        },
        {
          "name": "F4",
          "midi": 65,
          "time": 184.5,
          "velocity": 0.6299212598425197,
          "duration": 2
        },
        {
          "name": "C4",
          "midi": 60,
          "time": 184.5,
          "velocity": 0.6299212598425197,
          "duration": 2
        },
        {
          "name": "A3",
          "midi": 57,
          "time": 184.5,
          "velocity": 0.6299212598425197,
          "duration": 2
        },
        {
          "name": "E4",
          "midi": 64,
          "time": 186.5,
          "velocity": 0.6299212598425197,
          "duration": 1.5
        },
        {
          "name": "D4",
          "midi": 62,
          "time": 186.5,
          "velocity": 0.6299212598425197,
          "duration": 1.5
        },
        {
          "name": "B3",
          "midi": 59,
          "time": 186.5,
          "velocity": 0.6299212598425197,
          "duration": 1.5
        },
        {
          "name": "G#3",
          "midi": 56,
          "time": 186.5,
          "velocity": 0.6299212598425197,
          "duration": 1.5124999999999886
        },
        {
          "name": "E4",
          "midi": 64,
          "time": 188,
          "velocity": 0.6299212598425197,
          "duration": 3.5
        },
        {
          "name": "C4",
          "midi": 60,
          "time": 188,
          "velocity": 0.6299212598425197,
          "duration": 3.5
        },
        {
          "name": "A3",
          "midi": 57,
          "time": 188,
          "velocity": 0.6299212598425197,
          "duration": 3.5
        },
        {
          "name": "E4",
          "midi": 64,
          "time": 191.5,
          "velocity": 0.6299212598425197,
          "duration": 1
        },
        {
          "name": "C4",
          "midi": 60,
          "time": 191.5,
          "velocity": 0.6299212598425197,
          "duration": 1
        },
        {
          "name": "G3",
          "midi": 55,
          "time": 191.5,
          "velocity": 0.6299212598425197,
          "duration": 1
        },
        {
          "name": "F4",
          "midi": 65,
          "time": 192.5,
          "velocity": 0.6299212598425197,
          "duration": 1
        },
        {
          "name": "D4",
          "midi": 62,
          "time": 192.5,
          "velocity": 0.6299212598425197,
          "duration": 1
        },
        {
          "name": "A3",
          "midi": 57,
          "time": 192.5,
          "velocity": 0.6299212598425197,
          "duration": 1
        },
        {
          "name": "F4",
          "midi": 65,
          "time": 193.5,
          "velocity": 0.6299212598425197,
          "duration": 1
        },
        {
          "name": "C4",
          "midi": 60,
          "time": 193.5,
          "velocity": 0.6299212598425197,
          "duration": 1
        },
        {
          "name": "A3",
          "midi": 57,
          "time": 193.5,
          "velocity": 0.6299212598425197,
          "duration": 1
        },
        {
          "name": "E4",
          "midi": 64,
          "time": 194.5,
          "velocity": 0.6299212598425197,
          "duration": 1.5
        },
        {
          "name": "D4",
          "midi": 62,
          "time": 194.5,
          "velocity": 0.6299212598425197,
          "duration": 1.5
        },
        {
          "name": "B3",
          "midi": 59,
          "time": 194.5,
          "velocity": 0.6299212598425197,
          "duration": 1.5
        },
        {
          "name": "G#3",
          "midi": 56,
          "time": 194.5,
          "velocity": 0.6299212598425197,
          "duration": 1.5
        },
        {
          "name": "A4",
          "midi": 69,
          "time": 196,
          "velocity": 0.6299212598425197,
          "duration": 1.5
        },
        {
          "name": "E4",
          "midi": 64,
          "time": 196,
          "velocity": 0.6299212598425197,
          "duration": 1.5
        },
        {
          "name": "C4",
          "midi": 60,
          "time": 196,
          "velocity": 0.6299212598425197,
          "duration": 1.5
        },
        {
          "name": "A3",
          "midi": 57,
          "time": 196,
          "velocity": 0.6299212598425197,
          "duration": 1.5
        },
        {
          "name": "G#4",
          "midi": 68,
          "time": 197.5,
          "velocity": 0.6299212598425197,
          "duration": 1
        },
        {
          "name": "F4",
          "midi": 65,
          "time": 197.5,
          "velocity": 0.6299212598425197,
          "duration": 1
        },
        {
          "name": "D4",
          "midi": 62,
          "time": 197.5,
          "velocity": 0.6299212598425197,
          "duration": 1
        },
        {
          "name": "B3",
          "midi": 59,
          "time": 197.5,
          "velocity": 0.6299212598425197,
          "duration": 1
        },
        {
          "name": "G#3",
          "midi": 56,
          "time": 197.5,
          "velocity": 0.6299212598425197,
          "duration": 1
        },
        {
          "name": "G3",
          "midi": 55,
          "time": 198.5,
          "velocity": 0.6299212598425197,
          "duration": 1
        },
        {
          "name": "G4",
          "midi": 67,
          "time": 198.5,
          "velocity": 0.6299212598425197,
          "duration": 1
        },
        {
          "name": "F4",
          "midi": 65,
          "time": 198.5,
          "velocity": 0.6299212598425197,
          "duration": 1
        },
        {
          "name": "D4",
          "midi": 62,
          "time": 198.5,
          "velocity": 0.6299212598425197,
          "duration": 1
        },
        {
          "name": "A#3",
          "midi": 58,
          "time": 198.5,
          "velocity": 0.6299212598425197,
          "duration": 1
        },
        {
          "name": "G3",
          "midi": 55,
          "time": 199.5,
          "velocity": 0.6299212598425197,
          "duration": 1
        },
        {
          "name": "G4",
          "midi": 67,
          "time": 199.5,
          "velocity": 0.6299212598425197,
          "duration": 1
        },
        {
          "name": "D#4",
          "midi": 63,
          "time": 199.5,
          "velocity": 0.6299212598425197,
          "duration": 1
        },
        {
          "name": "C4",
          "midi": 60,
          "time": 199.5,
          "velocity": 0.6299212598425197,
          "duration": 1
        },
        {
          "name": "A#3",
          "midi": 58,
          "time": 199.5,
          "velocity": 0.6299212598425197,
          "duration": 1
        },
        {
          "name": "F4",
          "midi": 65,
          "time": 200.5,
          "velocity": 0.6299212598425197,
          "duration": 2
        },
        {
          "name": "C4",
          "midi": 60,
          "time": 200.5,
          "velocity": 0.6299212598425197,
          "duration": 2
        },
        {
          "name": "A3",
          "midi": 57,
          "time": 200.5,
          "velocity": 0.6299212598425197,
          "duration": 2
        },
        {
          "name": "E4",
          "midi": 64,
          "time": 202.5,
          "velocity": 0.6299212598425197,
          "duration": 1.5
        },
        {
          "name": "D4",
          "midi": 62,
          "time": 202.5,
          "velocity": 0.6299212598425197,
          "duration": 1.5
        },
        {
          "name": "B3",
          "midi": 59,
          "time": 202.5,
          "velocity": 0.6299212598425197,
          "duration": 1.5
        },
        {
          "name": "G#3",
          "midi": 56,
          "time": 202.5,
          "velocity": 0.6299212598425197,
          "duration": 1.5124999999999886
        },
        {
          "name": "A4",
          "midi": 69,
          "time": 204,
          "velocity": 0.6299212598425197,
          "duration": 1.5
        },
        {
          "name": "E4",
          "midi": 64,
          "time": 204,
          "velocity": 0.6299212598425197,
          "duration": 1.5
        },
        {
          "name": "C4",
          "midi": 60,
          "time": 204,
          "velocity": 0.6299212598425197,
          "duration": 1.5
        },
        {
          "name": "A3",
          "midi": 57,
          "time": 204,
          "velocity": 0.6299212598425197,
          "duration": 1.5
        },
        {
          "name": "G#4",
          "midi": 68,
          "time": 205.5,
          "velocity": 0.6299212598425197,
          "duration": 1
        },
        {
          "name": "F4",
          "midi": 65,
          "time": 205.5,
          "velocity": 0.6299212598425197,
          "duration": 1
        },
        {
          "name": "D4",
          "midi": 62,
          "time": 205.5,
          "velocity": 0.6299212598425197,
          "duration": 1
        },
        {
          "name": "B3",
          "midi": 59,
          "time": 205.5,
          "velocity": 0.6299212598425197,
          "duration": 1
        },
        {
          "name": "G#3",
          "midi": 56,
          "time": 205.5,
          "velocity": 0.6299212598425197,
          "duration": 1
        },
        {
          "name": "G3",
          "midi": 55,
          "time": 206.5,
          "velocity": 0.6299212598425197,
          "duration": 1
        },
        {
          "name": "G4",
          "midi": 67,
          "time": 206.5,
          "velocity": 0.6299212598425197,
          "duration": 1
        },
        {
          "name": "F4",
          "midi": 65,
          "time": 206.5,
          "velocity": 0.6299212598425197,
          "duration": 1
        },
        {
          "name": "D4",
          "midi": 62,
          "time": 206.5,
          "velocity": 0.6299212598425197,
          "duration": 1
        },
        {
          "name": "A#3",
          "midi": 58,
          "time": 206.5,
          "velocity": 0.6299212598425197,
          "duration": 1
        },
        {
          "name": "G3",
          "midi": 55,
          "time": 207.5,
          "velocity": 0.6299212598425197,
          "duration": 1
        },
        {
          "name": "G4",
          "midi": 67,
          "time": 207.5,
          "velocity": 0.6299212598425197,
          "duration": 1
        },
        {
          "name": "D#4",
          "midi": 63,
          "time": 207.5,
          "velocity": 0.6299212598425197,
          "duration": 1
        },
        {
          "name": "C4",
          "midi": 60,
          "time": 207.5,
          "velocity": 0.6299212598425197,
          "duration": 1
        },
        {
          "name": "A#3",
          "midi": 58,
          "time": 207.5,
          "velocity": 0.6299212598425197,
          "duration": 1
        },
        {
          "name": "F4",
          "midi": 65,
          "time": 208.5,
          "velocity": 0.6299212598425197,
          "duration": 2
        },
        {
          "name": "D4",
          "midi": 62,
          "time": 208.5,
          "velocity": 0.6299212598425197,
          "duration": 2
        },
        {
          "name": "A3",
          "midi": 57,
          "time": 208.5,
          "velocity": 0.6299212598425197,
          "duration": 2
        },
        {
          "name": "E4",
          "midi": 64,
          "time": 210.5,
          "velocity": 0.6299212598425197,
          "duration": 1
        },
        {
          "name": "D4",
          "midi": 62,
          "time": 210.5,
          "velocity": 0.6299212598425197,
          "duration": 1
        },
        {
          "name": "B3",
          "midi": 59,
          "time": 210.5,
          "velocity": 0.6299212598425197,
          "duration": 1
        },
        {
          "name": "G#3",
          "midi": 56,
          "time": 210.5,
          "velocity": 0.6299212598425197,
          "duration": 1
        },
        {
          "name": "E4",
          "midi": 64,
          "time": 211.5,
          "velocity": 0.6299212598425197,
          "duration": 0.5
        },
        {
          "name": "D4",
          "midi": 62,
          "time": 211.5,
          "velocity": 0.6299212598425197,
          "duration": 0.5
        },
        {
          "name": "B3",
          "midi": 59,
          "time": 211.5,
          "velocity": 0.6299212598425197,
          "duration": 0.5
        },
        {
          "name": "G#3",
          "midi": 56,
          "time": 211.5,
          "velocity": 0.6299212598425197,
          "duration": 0.5
        },
        {
          "name": "A3",
          "midi": 57,
          "time": 212,
          "velocity": 0.6299212598425197,
          "duration": 4.5
        },
        {
          "name": "C#4",
          "midi": 61,
          "time": 212,
          "velocity": 0.6299212598425197,
          "duration": 4.5
        },
        {
          "name": "E4",
          "midi": 64,
          "time": 212,
          "velocity": 0.6299212598425197,
          "duration": 4.5
        },
        {
          "name": "A4",
          "midi": 69,
          "time": 212,
          "velocity": 0.6299212598425197,
          "duration": 4.5
        },
        {
          "name": "A2",
          "midi": 45,
          "time": 216.5,
          "velocity": 0.7637795275590551,
          "duration": 8
        },
        {
          "name": "A3",
          "midi": 57,
          "time": 216.5,
          "velocity": 0.7637795275590551,
          "duration": 8
        },
        {
          "name": "C#4",
          "midi": 61,
          "time": 216.5,
          "velocity": 0.7637795275590551,
          "duration": 8
        },
        {
          "name": "E4",
          "midi": 64,
          "time": 216.5,
          "velocity": 0.7637795275590551,
          "duration": 8
        },
        {
          "name": "A4",
          "midi": 69,
          "time": 216.5,
          "velocity": 0.7637795275590551,
          "duration": 4
        },
        {
          "name": "C#5",
          "midi": 73,
          "time": 216.5,
          "velocity": 0.7637795275590551,
          "duration": 8
        },
        {
          "name": "D4",
          "midi": 62,
          "time": 220.5,
          "velocity": 0.7637795275590551,
          "duration": 4
        },
        {
          "name": "F4",
          "midi": 65,
          "time": 220.5,
          "velocity": 0.7637795275590551,
          "duration": 4
        },
        {
          "name": "A4",
          "midi": 69,
          "time": 220.5,
          "velocity": 0.7637795275590551,
          "duration": 4
        },
        {
          "name": "A3",
          "midi": 57,
          "time": 224.5,
          "velocity": 0.7559055118110236,
          "duration": 8
        },
        {
          "name": "A2",
          "midi": 45,
          "time": 224.5,
          "velocity": 0.7559055118110236,
          "duration": 8
        },
        {
          "name": "C#4",
          "midi": 61,
          "time": 224.5,
          "velocity": 0.7559055118110236,
          "duration": 8
        },
        {
          "name": "E4",
          "midi": 64,
          "time": 224.5,
          "velocity": 0.7559055118110236,
          "duration": 8
        },
        {
          "name": "A4",
          "midi": 69,
          "time": 224.5,
          "velocity": 0.7559055118110236,
          "duration": 8
        },
        {
          "name": "C#5",
          "midi": 73,
          "time": 224.5,
          "velocity": 0.7559055118110236,
          "duration": 8
        },
        {
          "name": "A2",
          "midi": 45,
          "time": 232.5,
          "velocity": 0.7559055118110236,
          "duration": 8
        },
        {
          "name": "A3",
          "midi": 57,
          "time": 232.5,
          "velocity": 0.7559055118110236,
          "duration": 8
        },
        {
          "name": "C#4",
          "midi": 61,
          "time": 232.5,
          "velocity": 0.7559055118110236,
          "duration": 8
        },
        {
          "name": "E4",
          "midi": 64,
          "time": 232.5,
          "velocity": 0.7559055118110236,
          "duration": 8
        },
        {
          "name": "A4",
          "midi": 69,
          "time": 232.5,
          "velocity": 0.7559055118110236,
          "duration": 4
        },
        {
          "name": "C#5",
          "midi": 73,
          "time": 232.5,
          "velocity": 0.7559055118110236,
          "duration": 8
        },
        {
          "name": "D4",
          "midi": 62,
          "time": 236.5,
          "velocity": 0.7480314960629921,
          "duration": 4
        },
        {
          "name": "F4",
          "midi": 65,
          "time": 236.5,
          "velocity": 0.7480314960629921,
          "duration": 4
        },
        {
          "name": "A4",
          "midi": 69,
          "time": 236.5,
          "velocity": 0.7480314960629921,
          "duration": 4
        },
        {
          "name": "A3",
          "midi": 57,
          "time": 240.5,
          "velocity": 0.7480314960629921,
          "duration": 4
        },
        {
          "name": "A2",
          "midi": 45,
          "time": 240.5,
          "velocity": 0.7480314960629921,
          "duration": 4
        },
        {
          "name": "C#4",
          "midi": 61,
          "time": 240.5,
          "velocity": 0.7480314960629921,
          "duration": 4
        },
        {
          "name": "E4",
          "midi": 64,
          "time": 240.5,
          "velocity": 0.7480314960629921,
          "duration": 4
        },
        {
          "name": "A4",
          "midi": 69,
          "time": 240.5,
          "velocity": 0.7480314960629921,
          "duration": 4
        },
        {
          "name": "C#5",
          "midi": 73,
          "time": 240.5,
          "velocity": 0.7480314960629921,
          "duration": 4
        }
      ],
      "controlChanges": {
        "1": [
          {
            "number": 1,
            "time": 0.40833333333333327,
            "value": 0
          }
        ],
        "6": [
          {
            "number": 6,
            "time": 0.4104166666666666,
            "value": 0.5039370078740157
          },
          {
            "number": 6,
            "time": 0.41874999999999996,
            "value": 0.5039370078740157
          },
          {
            "number": 6,
            "time": 0.42499999999999993,
            "value": 0.09448818897637795
          }
        ],
        "7": [
          {
            "number": 7,
            "time": 0.4020833333333333,
            "value": 0.7874015748031497
          }
        ],
        "10": [
          {
            "number": 10,
            "time": 0.39999999999999997,
            "value": 0.5039370078740157
          }
        ],
        "11": [
          {
            "number": 11,
            "time": 0.40624999999999994,
            "value": 1
          }
        ],
        "32": [
          {
            "number": 32,
            "time": 0.39375,
            "value": 0
          }
        ],
        "38": [
          {
            "number": 38,
            "time": 0.4104166666666666,
            "value": 0
          }
        ],
        "91": [
          {
            "number": 91,
            "time": 0.4041666666666666,
            "value": 0
          }
        ],
        "100": [
          {
            "number": 100,
            "time": 0.4104166666666666,
            "value": 0.007874015748031496
          },
          {
            "number": 100,
            "time": 0.41874999999999996,
            "value": 0.015748031496062992
          },
          {
            "number": 100,
            "time": 0.42499999999999993,
            "value": 0
          },
          {
            "number": 100,
            "time": 0.43333333333333324,
            "value": 1
          }
        ],
        "101": [
          {
            "number": 101,
            "time": 0.4104166666666666,
            "value": 0
          },
          {
            "number": 101,
            "time": 0.41874999999999996,
            "value": 0
          },
          {
            "number": 101,
            "time": 0.42499999999999993,
            "value": 0
          },
          {
            "number": 101,
            "time": 0.43333333333333324,
            "value": 1
          }
        ],
        "121": [
          {
            "number": 121,
            "time": 0.39166666666666666,
            "value": 0
          }
        ]
      },
      "id": 3,
      "name": "",
      "instrumentNumber": 0,
      "instrument": "acoustic grand piano",
      "instrumentFamily": "piano",
      "channelNumber": 1,
      "isPercussion": false
    },
    {
      "startTime": 40.5,
      "duration": 244.5,
      "length": 298,
      "notes": [
        {
          "name": "D#4",
          "midi": 63,
          "time": 40.5,
          "velocity": 0.7874015748031497,
          "duration": 1
        },
        {
          "name": "C#4",
          "midi": 61,
          "time": 41.5,
          "velocity": 0.7874015748031497,
          "duration": 1
        },
        {
          "name": "D#4",
          "midi": 63,
          "time": 42.5,
          "velocity": 0.7874015748031497,
          "duration": 1
        },
        {
          "name": "E4",
          "midi": 64,
          "time": 43.5,
          "velocity": 0.7874015748031497,
          "duration": 1
        },
        {
          "name": "D#4",
          "midi": 63,
          "time": 44.5,
          "velocity": 0.7874015748031497,
          "duration": 1
        },
        {
          "name": "C#4",
          "midi": 61,
          "time": 45.5,
          "velocity": 0.7874015748031497,
          "duration": 1
        },
        {
          "name": "D#4",
          "midi": 63,
          "time": 46.5,
          "velocity": 0.7874015748031497,
          "duration": 1
        },
        {
          "name": "E4",
          "midi": 64,
          "time": 47.5,
          "velocity": 0.7874015748031497,
          "duration": 1
        },
        {
          "name": "D#4",
          "midi": 63,
          "time": 48.5,
          "velocity": 0.7874015748031497,
          "duration": 2
        },
        {
          "name": "G#3",
          "midi": 56,
          "time": 48.5,
          "velocity": 0.7874015748031497,
          "duration": 2
        },
        {
          "name": "D#3",
          "midi": 51,
          "time": 48.5,
          "velocity": 0.7874015748031497,
          "duration": 2
        },
        {
          "name": "C3",
          "midi": 48,
          "time": 48.5,
          "velocity": 0.7874015748031497,
          "duration": 2
        },
        {
          "name": "G#2",
          "midi": 44,
          "time": 48.5,
          "velocity": 0.7874015748031497,
          "duration": 2
        },
        {
          "name": "G#1",
          "midi": 32,
          "time": 48.5,
          "velocity": 0.7874015748031497,
          "duration": 1
        },
        {
          "name": "G#1",
          "midi": 32,
          "time": 49.5,
          "velocity": 0.7874015748031497,
          "duration": 0.5
        },
        {
          "name": "C#2",
          "midi": 37,
          "time": 50,
          "velocity": 0.7874015748031497,
          "duration": 0.25
        },
        {
          "name": "D#2",
          "midi": 39,
          "time": 50.25,
          "velocity": 0.7874015748031497,
          "duration": 0.25
        },
        {
          "name": "F#2",
          "midi": 42,
          "time": 50.5,
          "velocity": 0.7874015748031497,
          "duration": 0.25
        },
        {
          "name": "G#2",
          "midi": 44,
          "time": 50.75,
          "velocity": 0.7874015748031497,
          "duration": 0.25
        },
        {
          "name": "G#1",
          "midi": 32,
          "time": 51,
          "velocity": 0.7874015748031497,
          "duration": 0.5
        },
        {
          "name": "G#1",
          "midi": 32,
          "time": 52,
          "velocity": 0.7874015748031497,
          "duration": 0.5
        },
        {
          "name": "G#1",
          "midi": 32,
          "time": 52.5,
          "velocity": 0.7874015748031497,
          "duration": 0.5
        },
        {
          "name": "C#2",
          "midi": 37,
          "time": 53,
          "velocity": 0.7874015748031497,
          "duration": 0.25
        },
        {
          "name": "E2",
          "midi": 40,
          "time": 53.25,
          "velocity": 0.7874015748031497,
          "duration": 0.25
        },
        {
          "name": "F#2",
          "midi": 42,
          "time": 53.5,
          "velocity": 0.7874015748031497,
          "duration": 0.25
        },
        {
          "name": "G#2",
          "midi": 44,
          "time": 53.75,
          "velocity": 0.7874015748031497,
          "duration": 0.25
        },
        {
          "name": "G#1",
          "midi": 32,
          "time": 54,
          "velocity": 0.7874015748031497,
          "duration": 0.5
        },
        {
          "name": "G#1",
          "midi": 32,
          "time": 55,
          "velocity": 0.7874015748031497,
          "duration": 0.5
        },
        {
          "name": "G#1",
          "midi": 32,
          "time": 56,
          "velocity": 0.7874015748031497,
          "duration": 0.5
        },
        {
          "name": "E1",
          "midi": 28,
          "time": 56.5,
          "velocity": 0.7874015748031497,
          "duration": 1
        },
        {
          "name": "G#1",
          "midi": 32,
          "time": 57.5,
          "velocity": 0.7874015748031497,
          "duration": 0.5
        },
        {
          "name": "C#2",
          "midi": 37,
          "time": 58,
          "velocity": 0.7874015748031497,
          "duration": 0.25
        },
        {
          "name": "D#2",
          "midi": 39,
          "time": 58.25,
          "velocity": 0.7874015748031497,
          "duration": 0.25
        },
        {
          "name": "F#2",
          "midi": 42,
          "time": 58.5,
          "velocity": 0.7874015748031497,
          "duration": 0.25
        },
        {
          "name": "G#2",
          "midi": 44,
          "time": 58.75,
          "velocity": 0.7874015748031497,
          "duration": 0.25
        },
        {
          "name": "E1",
          "midi": 28,
          "time": 59,
          "velocity": 0.7874015748031497,
          "duration": 0.5
        },
        {
          "name": "E1",
          "midi": 28,
          "time": 60,
          "velocity": 0.7874015748031497,
          "duration": 0.5
        },
        {
          "name": "D#1",
          "midi": 27,
          "time": 60.5,
          "velocity": 0.7874015748031497,
          "duration": 0.5
        },
        {
          "name": "G#1",
          "midi": 32,
          "time": 61,
          "velocity": 0.7874015748031497,
          "duration": 0.25
        },
        {
          "name": "B1",
          "midi": 35,
          "time": 61.25,
          "velocity": 0.7874015748031497,
          "duration": 0.25
        },
        {
          "name": "C#2",
          "midi": 37,
          "time": 61.5,
          "velocity": 0.7874015748031497,
          "duration": 0.25
        },
        {
          "name": "D#2",
          "midi": 39,
          "time": 61.75,
          "velocity": 0.7874015748031497,
          "duration": 0.25
        },
        {
          "name": "D#1",
          "midi": 27,
          "time": 62,
          "velocity": 0.7874015748031497,
          "duration": 0.5
        },
        {
          "name": "D#1",
          "midi": 27,
          "time": 63,
          "velocity": 0.7874015748031497,
          "duration": 0.5
        },
        {
          "name": "D#1",
          "midi": 27,
          "time": 64,
          "velocity": 0.7874015748031497,
          "duration": 0.5
        },
        {
          "name": "G#1",
          "midi": 32,
          "time": 64.5,
          "velocity": 0.7874015748031497,
          "duration": 1
        },
        {
          "name": "G#1",
          "midi": 32,
          "time": 65.5,
          "velocity": 0.7874015748031497,
          "duration": 0.5
        },
        {
          "name": "C#2",
          "midi": 37,
          "time": 66,
          "velocity": 0.7874015748031497,
          "duration": 0.25
        },
        {
          "name": "D#2",
          "midi": 39,
          "time": 66.25,
          "velocity": 0.7874015748031497,
          "duration": 0.25
        },
        {
          "name": "F#2",
          "midi": 42,
          "time": 66.5,
          "velocity": 0.7874015748031497,
          "duration": 0.25
        },
        {
          "name": "G#2",
          "midi": 44,
          "time": 66.75,
          "velocity": 0.7874015748031497,
          "duration": 0.25
        },
        {
          "name": "G#1",
          "midi": 32,
          "time": 67,
          "velocity": 0.7874015748031497,
          "duration": 0.5
        },
        {
          "name": "G#1",
          "midi": 32,
          "time": 68,
          "velocity": 0.7874015748031497,
          "duration": 0.5
        },
        {
          "name": "G#1",
          "midi": 32,
          "time": 68.5,
          "velocity": 0.7874015748031497,
          "duration": 0.5
        },
        {
          "name": "C#2",
          "midi": 37,
          "time": 69,
          "velocity": 0.7874015748031497,
          "duration": 0.25
        },
        {
          "name": "E2",
          "midi": 40,
          "time": 69.25,
          "velocity": 0.7874015748031497,
          "duration": 0.25
        },
        {
          "name": "F#2",
          "midi": 42,
          "time": 69.5,
          "velocity": 0.7874015748031497,
          "duration": 0.25
        },
        {
          "name": "G#2",
          "midi": 44,
          "time": 69.75,
          "velocity": 0.7874015748031497,
          "duration": 0.25
        },
        {
          "name": "G#1",
          "midi": 32,
          "time": 70,
          "velocity": 0.7874015748031497,
          "duration": 0.5
        },
        {
          "name": "G#1",
          "midi": 32,
          "time": 71,
          "velocity": 0.7874015748031497,
          "duration": 0.5
        },
        {
          "name": "G#1",
          "midi": 32,
          "time": 72,
          "velocity": 0.7874015748031497,
          "duration": 0.5
        },
        {
          "name": "E1",
          "midi": 28,
          "time": 72.5,
          "velocity": 0.7874015748031497,
          "duration": 1
        },
        {
          "name": "G#1",
          "midi": 32,
          "time": 73.5,
          "velocity": 0.7874015748031497,
          "duration": 0.5
        },
        {
          "name": "C#2",
          "midi": 37,
          "time": 74,
          "velocity": 0.7874015748031497,
          "duration": 0.25
        },
        {
          "name": "D#2",
          "midi": 39,
          "time": 74.25,
          "velocity": 0.7874015748031497,
          "duration": 0.25
        },
        {
          "name": "F#2",
          "midi": 42,
          "time": 74.5,
          "velocity": 0.7874015748031497,
          "duration": 0.25
        },
        {
          "name": "G#2",
          "midi": 44,
          "time": 74.75,
          "velocity": 0.7874015748031497,
          "duration": 0.25
        },
        {
          "name": "E1",
          "midi": 28,
          "time": 75,
          "velocity": 0.7874015748031497,
          "duration": 0.5
        },
        {
          "name": "E1",
          "midi": 28,
          "time": 76,
          "velocity": 0.7874015748031497,
          "duration": 0.5
        },
        {
          "name": "D#1",
          "midi": 27,
          "time": 76.5,
          "velocity": 0.7874015748031497,
          "duration": 0.5
        },
        {
          "name": "G#1",
          "midi": 32,
          "time": 77,
          "velocity": 0.7874015748031497,
          "duration": 0.25
        },
        {
          "name": "B1",
          "midi": 35,
          "time": 77.25,
          "velocity": 0.7874015748031497,
          "duration": 0.25
        },
        {
          "name": "C#2",
          "midi": 37,
          "time": 77.5,
          "velocity": 0.7874015748031497,
          "duration": 0.25
        },
        {
          "name": "D#2",
          "midi": 39,
          "time": 77.75,
          "velocity": 0.7874015748031497,
          "duration": 0.25
        },
        {
          "name": "D#1",
          "midi": 27,
          "time": 78,
          "velocity": 0.7874015748031497,
          "duration": 0.5
        },
        {
          "name": "D#1",
          "midi": 27,
          "time": 79,
          "velocity": 0.7874015748031497,
          "duration": 0.5
        },
        {
          "name": "D#1",
          "midi": 27,
          "time": 80,
          "velocity": 0.7874015748031497,
          "duration": 0.5
        },
        {
          "name": "G#1",
          "midi": 32,
          "time": 80.5,
          "velocity": 0.7874015748031497,
          "duration": 0.5
        },
        {
          "name": "G#2",
          "midi": 44,
          "time": 81.25,
          "velocity": 0.7874015748031497,
          "duration": 0.5
        },
        {
          "name": "G#2",
          "midi": 44,
          "time": 82,
          "velocity": 0.7874015748031497,
          "duration": 0.5
        },
        {
          "name": "G1",
          "midi": 31,
          "time": 82.5,
          "velocity": 0.7874015748031497,
          "duration": 0.5
        },
        {
          "name": "G2",
          "midi": 43,
          "time": 83,
          "velocity": 0.7874015748031497,
          "duration": 0.5
        },
        {
          "name": "G1",
          "midi": 31,
          "time": 83.5,
          "velocity": 0.7874015748031497,
          "duration": 0.5
        },
        {
          "name": "G2",
          "midi": 43,
          "time": 84,
          "velocity": 0.7874015748031497,
          "duration": 0.5
        },
        {
          "name": "F#1",
          "midi": 30,
          "time": 84.5,
          "velocity": 0.7874015748031497,
          "duration": 0.5
        },
        {
          "name": "F#2",
          "midi": 42,
          "time": 85.25,
          "velocity": 0.7874015748031497,
          "duration": 0.5
        },
        {
          "name": "F#2",
          "midi": 42,
          "time": 86,
          "velocity": 0.7874015748031497,
          "duration": 0.5
        },
        {
          "name": "F1",
          "midi": 29,
          "time": 86.5,
          "velocity": 0.7874015748031497,
          "duration": 0.5
        },
        {
          "name": "F2",
          "midi": 41,
          "time": 87,
          "velocity": 0.7874015748031497,
          "duration": 0.5
        },
        {
          "name": "F1",
          "midi": 29,
          "time": 87.5,
          "velocity": 0.7874015748031497,
          "duration": 0.5
        },
        {
          "name": "F2",
          "midi": 41,
          "time": 88,
          "velocity": 0.7874015748031497,
          "duration": 0.5
        },
        {
          "name": "E1",
          "midi": 28,
          "time": 88.5,
          "velocity": 0.7874015748031497,
          "duration": 0.5
        },
        {
          "name": "E2",
          "midi": 40,
          "time": 89.25,
          "velocity": 0.7874015748031497,
          "duration": 0.5
        },
        {
          "name": "E2",
          "midi": 40,
          "time": 90,
          "velocity": 0.7874015748031497,
          "duration": 0.5
        },
        {
          "name": "D#1",
          "midi": 27,
          "time": 90.5,
          "velocity": 0.7874015748031497,
          "duration": 0.5
        },
        {
          "name": "D#2",
          "midi": 39,
          "time": 91,
          "velocity": 0.7874015748031497,
          "duration": 0.5
        },
        {
          "name": "D#1",
          "midi": 27,
          "time": 91.5,
          "velocity": 0.7874015748031497,
          "duration": 0.5
        },
        {
          "name": "D#2",
          "midi": 39,
          "time": 92,
          "velocity": 0.7874015748031497,
          "duration": 0.5
        },
        {
          "name": "A#1",
          "midi": 34,
          "time": 92.5,
          "velocity": 0.7874015748031497,
          "duration": 0.5
        },
        {
          "name": "A#2",
          "midi": 46,
          "time": 93,
          "velocity": 0.7874015748031497,
          "duration": 0.5
        },
        {
          "name": "A#1",
          "midi": 34,
          "time": 93.5,
          "velocity": 0.7874015748031497,
          "duration": 0.5
        },
        {
          "name": "A#2",
          "midi": 46,
          "time": 94,
          "velocity": 0.7874015748031497,
          "duration": 0.5
        },
        {
          "name": "D#1",
          "midi": 27,
          "time": 94.5,
          "velocity": 0.7874015748031497,
          "duration": 0.25
        },
        {
          "name": "D#1",
          "midi": 27,
          "time": 95.5,
          "velocity": 0.7874015748031497,
          "duration": 1
        },
        {
          "name": "G#1",
          "midi": 32,
          "time": 96.5,
          "velocity": 0.7874015748031497,
          "duration": 0.5
        },
        {
          "name": "G#2",
          "midi": 44,
          "time": 97.25,
          "velocity": 0.7874015748031497,
          "duration": 0.5
        },
        {
          "name": "G#2",
          "midi": 44,
          "time": 98,
          "velocity": 0.7874015748031497,
          "duration": 0.5
        },
        {
          "name": "G1",
          "midi": 31,
          "time": 98.5,
          "velocity": 0.7874015748031497,
          "duration": 0.5
        },
        {
          "name": "G2",
          "midi": 43,
          "time": 99,
          "velocity": 0.7874015748031497,
          "duration": 0.5
        },
        {
          "name": "G1",
          "midi": 31,
          "time": 99.5,
          "velocity": 0.7874015748031497,
          "duration": 0.5
        },
        {
          "name": "G2",
          "midi": 43,
          "time": 100,
          "velocity": 0.7874015748031497,
          "duration": 0.5
        },
        {
          "name": "F#1",
          "midi": 30,
          "time": 100.5,
          "velocity": 0.7874015748031497,
          "duration": 0.5
        },
        {
          "name": "F#2",
          "midi": 42,
          "time": 101.25,
          "velocity": 0.7874015748031497,
          "duration": 0.5
        },
        {
          "name": "F#2",
          "midi": 42,
          "time": 102,
          "velocity": 0.7874015748031497,
          "duration": 0.5
        },
        {
          "name": "F1",
          "midi": 29,
          "time": 102.5,
          "velocity": 0.7874015748031497,
          "duration": 0.5
        },
        {
          "name": "F2",
          "midi": 41,
          "time": 103,
          "velocity": 0.7874015748031497,
          "duration": 0.5
        },
        {
          "name": "F1",
          "midi": 29,
          "time": 103.5,
          "velocity": 0.7874015748031497,
          "duration": 0.5
        },
        {
          "name": "F2",
          "midi": 41,
          "time": 104,
          "velocity": 0.7874015748031497,
          "duration": 0.5
        },
        {
          "name": "E1",
          "midi": 28,
          "time": 104.5,
          "velocity": 0.7874015748031497,
          "duration": 0.5
        },
        {
          "name": "E2",
          "midi": 40,
          "time": 105.25,
          "velocity": 0.7874015748031497,
          "duration": 0.5
        },
        {
          "name": "E2",
          "midi": 40,
          "time": 106,
          "velocity": 0.7874015748031497,
          "duration": 0.5
        },
        {
          "name": "D#1",
          "midi": 27,
          "time": 106.5,
          "velocity": 0.7874015748031497,
          "duration": 0.5
        },
        {
          "name": "D#2",
          "midi": 39,
          "time": 107,
          "velocity": 0.7874015748031497,
          "duration": 0.5
        },
        {
          "name": "D#1",
          "midi": 27,
          "time": 107.5,
          "velocity": 0.7874015748031497,
          "duration": 0.5
        },
        {
          "name": "D#2",
          "midi": 39,
          "time": 108,
          "velocity": 0.7874015748031497,
          "duration": 0.5
        },
        {
          "name": "A#1",
          "midi": 34,
          "time": 108.5,
          "velocity": 0.7874015748031497,
          "duration": 0.5
        },
        {
          "name": "A#2",
          "midi": 46,
          "time": 109,
          "velocity": 0.7874015748031497,
          "duration": 0.5
        },
        {
          "name": "A#1",
          "midi": 34,
          "time": 109.5,
          "velocity": 0.7874015748031497,
          "duration": 0.5
        },
        {
          "name": "A#2",
          "midi": 46,
          "time": 110,
          "velocity": 0.7874015748031497,
          "duration": 0.5
        },
        {
          "name": "D#1",
          "midi": 27,
          "time": 110.5,
          "velocity": 0.7874015748031497,
          "duration": 0.25
        },
        {
          "name": "D#1",
          "midi": 27,
          "time": 111.5,
          "velocity": 0.7874015748031497,
          "duration": 1
        },
        {
          "name": "D#3",
          "midi": 51,
          "time": 128.5,
          "velocity": 0.7874015748031497,
          "duration": 2
        },
        {
          "name": "E2",
          "midi": 40,
          "time": 128.5,
          "velocity": 0.7874015748031497,
          "duration": 2
        },
        {
          "name": "D#3",
          "midi": 51,
          "time": 130.5,
          "velocity": 0.7874015748031497,
          "duration": 1.5
        },
        {
          "name": "D#3",
          "midi": 51,
          "time": 132,
          "velocity": 0.7874015748031497,
          "duration": 2.5
        },
        {
          "name": "G#2",
          "midi": 44,
          "time": 132,
          "velocity": 0.7874015748031497,
          "duration": 2.5
        },
        {
          "name": "F#3",
          "midi": 54,
          "time": 134.5,
          "velocity": 0.7874015748031497,
          "duration": 2
        },
        {
          "name": "B2",
          "midi": 47,
          "time": 134.5,
          "velocity": 0.7874015748031497,
          "duration": 2
        },
        {
          "name": "C#3",
          "midi": 49,
          "time": 136.5,
          "velocity": 0.7874015748031497,
          "duration": 8
        },
        {
          "name": "F1",
          "midi": 29,
          "time": 152.5,
          "velocity": 0.7874015748031497,
          "duration": 0.5
        },
        {
          "name": "F2",
          "midi": 41,
          "time": 153,
          "velocity": 0.7874015748031497,
          "duration": 0.5
        },
        {
          "name": "F1",
          "midi": 29,
          "time": 153.5,
          "velocity": 0.7874015748031497,
          "duration": 0.5
        },
        {
          "name": "F2",
          "midi": 41,
          "time": 154,
          "velocity": 0.7874015748031497,
          "duration": 0.5
        },
        {
          "name": "E1",
          "midi": 28,
          "time": 154.5,
          "velocity": 0.7874015748031497,
          "duration": 0.5
        },
        {
          "name": "E2",
          "midi": 40,
          "time": 155,
          "velocity": 0.7874015748031497,
          "duration": 0.5
        },
        {
          "name": "E1",
          "midi": 28,
          "time": 155.5,
          "velocity": 0.7874015748031497,
          "duration": 0.5
        },
        {
          "name": "A1",
          "midi": 33,
          "time": 156,
          "velocity": 0.7874015748031497,
          "duration": 1
        },
        {
          "name": "A2",
          "midi": 45,
          "time": 157,
          "velocity": 0.7874015748031497,
          "duration": 0.5
        },
        {
          "name": "A1",
          "midi": 33,
          "time": 157.5,
          "velocity": 0.7874015748031497,
          "duration": 0.5
        },
        {
          "name": "A2",
          "midi": 45,
          "time": 158,
          "velocity": 0.7874015748031497,
          "duration": 0.5
        },
        {
          "name": "C2",
          "midi": 36,
          "time": 158.5,
          "velocity": 0.7874015748031497,
          "duration": 0.5
        },
        {
          "name": "C3",
          "midi": 48,
          "time": 159,
          "velocity": 0.7874015748031497,
          "duration": 0.5
        },
        {
          "name": "C2",
          "midi": 36,
          "time": 159.5,
          "velocity": 0.7874015748031497,
          "duration": 0.5
        },
        {
          "name": "C3",
          "midi": 48,
          "time": 160,
          "velocity": 0.7874015748031497,
          "duration": 0.5
        },
        {
          "name": "D1",
          "midi": 26,
          "time": 160.5,
          "velocity": 0.7874015748031497,
          "duration": 0.5
        },
        {
          "name": "D2",
          "midi": 38,
          "time": 161,
          "velocity": 0.7874015748031497,
          "duration": 0.5
        },
        {
          "name": "D1",
          "midi": 26,
          "time": 161.5,
          "velocity": 0.7874015748031497,
          "duration": 0.5
        },
        {
          "name": "D2",
          "midi": 38,
          "time": 162,
          "velocity": 0.7874015748031497,
          "duration": 0.5
        },
        {
          "name": "E1",
          "midi": 28,
          "time": 162.5,
          "velocity": 0.7874015748031497,
          "duration": 0.5
        },
        {
          "name": "E2",
          "midi": 40,
          "time": 163,
          "velocity": 0.7874015748031497,
          "duration": 0.5
        },
        {
          "name": "E1",
          "midi": 28,
          "time": 163.5,
          "velocity": 0.7874015748031497,
          "duration": 0.5
        },
        {
          "name": "A1",
          "midi": 33,
          "time": 164,
          "velocity": 0.7874015748031497,
          "duration": 1
        },
        {
          "name": "E2",
          "midi": 40,
          "time": 165,
          "velocity": 0.7874015748031497,
          "duration": 0.5
        },
        {
          "name": "A1",
          "midi": 33,
          "time": 165.5,
          "velocity": 0.7874015748031497,
          "duration": 0.5
        },
        {
          "name": "G#2",
          "midi": 44,
          "time": 166,
          "velocity": 0.7874015748031497,
          "duration": 0.5
        },
        {
          "name": "F1",
          "midi": 29,
          "time": 168.5,
          "velocity": 0.7874015748031497,
          "duration": 0.5
        },
        {
          "name": "F2",
          "midi": 41,
          "time": 169,
          "velocity": 0.7874015748031497,
          "duration": 0.5
        },
        {
          "name": "F1",
          "midi": 29,
          "time": 169.5,
          "velocity": 0.7874015748031497,
          "duration": 0.5
        },
        {
          "name": "F2",
          "midi": 41,
          "time": 170,
          "velocity": 0.7874015748031497,
          "duration": 0.5
        },
        {
          "name": "E1",
          "midi": 28,
          "time": 170.5,
          "velocity": 0.7874015748031497,
          "duration": 0.5
        },
        {
          "name": "E2",
          "midi": 40,
          "time": 171,
          "velocity": 0.7874015748031497,
          "duration": 0.5
        },
        {
          "name": "E1",
          "midi": 28,
          "time": 171.5,
          "velocity": 0.7874015748031497,
          "duration": 0.5
        },
        {
          "name": "A1",
          "midi": 33,
          "time": 172,
          "velocity": 0.7874015748031497,
          "duration": 1
        },
        {
          "name": "A2",
          "midi": 45,
          "time": 173,
          "velocity": 0.7874015748031497,
          "duration": 0.5
        },
        {
          "name": "A1",
          "midi": 33,
          "time": 173.5,
          "velocity": 0.7874015748031497,
          "duration": 0.5
        },
        {
          "name": "A2",
          "midi": 45,
          "time": 174,
          "velocity": 0.7874015748031497,
          "duration": 0.5
        },
        {
          "name": "C2",
          "midi": 36,
          "time": 174.5,
          "velocity": 0.7874015748031497,
          "duration": 0.5
        },
        {
          "name": "C3",
          "midi": 48,
          "time": 175,
          "velocity": 0.7874015748031497,
          "duration": 0.5
        },
        {
          "name": "C2",
          "midi": 36,
          "time": 175.5,
          "velocity": 0.7874015748031497,
          "duration": 0.5
        },
        {
          "name": "C3",
          "midi": 48,
          "time": 176,
          "velocity": 0.7874015748031497,
          "duration": 0.5
        },
        {
          "name": "D1",
          "midi": 26,
          "time": 176.5,
          "velocity": 0.7874015748031497,
          "duration": 0.5
        },
        {
          "name": "D2",
          "midi": 38,
          "time": 177,
          "velocity": 0.7874015748031497,
          "duration": 0.5
        },
        {
          "name": "D1",
          "midi": 26,
          "time": 177.5,
          "velocity": 0.7874015748031497,
          "duration": 0.5
        },
        {
          "name": "D2",
          "midi": 38,
          "time": 178,
          "velocity": 0.7874015748031497,
          "duration": 0.5
        },
        {
          "name": "E1",
          "midi": 28,
          "time": 178.5,
          "velocity": 0.7874015748031497,
          "duration": 0.5
        },
        {
          "name": "E2",
          "midi": 40,
          "time": 179,
          "velocity": 0.7874015748031497,
          "duration": 0.5
        },
        {
          "name": "E1",
          "midi": 28,
          "time": 179.5,
          "velocity": 0.7874015748031497,
          "duration": 0.5
        },
        {
          "name": "A1",
          "midi": 33,
          "time": 180,
          "velocity": 0.7874015748031497,
          "duration": 1
        },
        {
          "name": "E2",
          "midi": 40,
          "time": 181,
          "velocity": 0.7874015748031497,
          "duration": 0.5
        },
        {
          "name": "A1",
          "midi": 33,
          "time": 181.5,
          "velocity": 0.7874015748031497,
          "duration": 0.5
        },
        {
          "name": "A2",
          "midi": 45,
          "time": 182,
          "velocity": 0.7874015748031497,
          "duration": 0.5
        },
        {
          "name": "A1",
          "midi": 33,
          "time": 182.5,
          "velocity": 0.7874015748031497,
          "duration": 0.5
        },
        {
          "name": "A2",
          "midi": 45,
          "time": 183,
          "velocity": 0.7874015748031497,
          "duration": 0.5
        },
        {
          "name": "A1",
          "midi": 33,
          "time": 183.5,
          "velocity": 0.7874015748031497,
          "duration": 0.5
        },
        {
          "name": "A2",
          "midi": 45,
          "time": 184,
          "velocity": 0.7874015748031497,
          "duration": 0.5
        },
        {
          "name": "F1",
          "midi": 29,
          "time": 184.5,
          "velocity": 0.7874015748031497,
          "duration": 0.5
        },
        {
          "name": "F1",
          "midi": 29,
          "time": 185.5,
          "velocity": 0.7874015748031497,
          "duration": 0.5
        },
        {
          "name": "E1",
          "midi": 28,
          "time": 186.5,
          "velocity": 0.7874015748031497,
          "duration": 0.5
        },
        {
          "name": "E1",
          "midi": 28,
          "time": 187.25,
          "velocity": 0.7874015748031497,
          "duration": 0.5
        },
        {
          "name": "A1",
          "midi": 33,
          "time": 188,
          "velocity": 0.7874015748031497,
          "duration": 0.5
        },
        {
          "name": "A2",
          "midi": 45,
          "time": 189,
          "velocity": 0.7874015748031497,
          "duration": 0.5
        },
        {
          "name": "A1",
          "midi": 33,
          "time": 189.5,
          "velocity": 0.7874015748031497,
          "duration": 0.5
        },
        {
          "name": "A1",
          "midi": 33,
          "time": 190,
          "velocity": 0.7874015748031497,
          "duration": 0.5
        },
        {
          "name": "A1",
          "midi": 33,
          "time": 190.5,
          "velocity": 0.7874015748031497,
          "duration": 0.5
        },
        {
          "name": "A2",
          "midi": 45,
          "time": 191,
          "velocity": 0.7874015748031497,
          "duration": 0.5
        },
        {
          "name": "C2",
          "midi": 36,
          "time": 191.5,
          "velocity": 0.7874015748031497,
          "duration": 0.5
        },
        {
          "name": "C3",
          "midi": 48,
          "time": 192,
          "velocity": 0.7874015748031497,
          "duration": 0.5
        },
        {
          "name": "D1",
          "midi": 26,
          "time": 192.5,
          "velocity": 0.7874015748031497,
          "duration": 0.5
        },
        {
          "name": "F1",
          "midi": 29,
          "time": 193.5,
          "velocity": 0.7874015748031497,
          "duration": 0.5
        },
        {
          "name": "E1",
          "midi": 28,
          "time": 194.5,
          "velocity": 0.7874015748031497,
          "duration": 0.5
        },
        {
          "name": "E1",
          "midi": 28,
          "time": 195.25,
          "velocity": 0.7874015748031497,
          "duration": 0.5
        },
        {
          "name": "A1",
          "midi": 33,
          "time": 196,
          "velocity": 0.7874015748031497,
          "duration": 1
        },
        {
          "name": "A2",
          "midi": 45,
          "time": 197,
          "velocity": 0.7874015748031497,
          "duration": 0.5
        },
        {
          "name": "G#1",
          "midi": 32,
          "time": 197.5,
          "velocity": 0.7874015748031497,
          "duration": 0.5
        },
        {
          "name": "G#2",
          "midi": 44,
          "time": 198,
          "velocity": 0.7874015748031497,
          "duration": 0.5
        },
        {
          "name": "G1",
          "midi": 31,
          "time": 198.5,
          "velocity": 0.7874015748031497,
          "duration": 0.5
        },
        {
          "name": "G2",
          "midi": 43,
          "time": 199,
          "velocity": 0.7874015748031497,
          "duration": 0.5
        },
        {
          "name": "C2",
          "midi": 36,
          "time": 199.5,
          "velocity": 0.7874015748031497,
          "duration": 0.5
        },
        {
          "name": "C3",
          "midi": 48,
          "time": 200,
          "velocity": 0.7874015748031497,
          "duration": 0.5
        },
        {
          "name": "F1",
          "midi": 29,
          "time": 200.5,
          "velocity": 0.7874015748031497,
          "duration": 0.5
        },
        {
          "name": "F1",
          "midi": 29,
          "time": 201.5,
          "velocity": 0.7874015748031497,
          "duration": 0.5
        },
        {
          "name": "E1",
          "midi": 28,
          "time": 202.5,
          "velocity": 0.7874015748031497,
          "duration": 0.5
        },
        {
          "name": "G#1",
          "midi": 32,
          "time": 203.25,
          "velocity": 0.7874015748031497,
          "duration": 0.5
        },
        {
          "name": "A1",
          "midi": 33,
          "time": 204,
          "velocity": 0.7874015748031497,
          "duration": 1
        },
        {
          "name": "A2",
          "midi": 45,
          "time": 205,
          "velocity": 0.7874015748031497,
          "duration": 0.5
        },
        {
          "name": "G#1",
          "midi": 32,
          "time": 205.5,
          "velocity": 0.7874015748031497,
          "duration": 0.5
        },
        {
          "name": "G#2",
          "midi": 44,
          "time": 206,
          "velocity": 0.7874015748031497,
          "duration": 0.5
        },
        {
          "name": "G1",
          "midi": 31,
          "time": 206.5,
          "velocity": 0.7874015748031497,
          "duration": 0.5
        },
        {
          "name": "G2",
          "midi": 43,
          "time": 207,
          "velocity": 0.7874015748031497,
          "duration": 0.5
        },
        {
          "name": "C2",
          "midi": 36,
          "time": 207.5,
          "velocity": 0.7874015748031497,
          "duration": 0.5
        },
        {
          "name": "C3",
          "midi": 48,
          "time": 208,
          "velocity": 0.7874015748031497,
          "duration": 0.5
        },
        {
          "name": "D1",
          "midi": 26,
          "time": 208.5,
          "velocity": 0.7874015748031497,
          "duration": 0.5
        },
        {
          "name": "F1",
          "midi": 29,
          "time": 209.5,
          "velocity": 0.7874015748031497,
          "duration": 0.5
        },
        {
          "name": "E1",
          "midi": 28,
          "time": 210.5,
          "velocity": 0.7874015748031497,
          "duration": 0.5
        },
        {
          "name": "E1",
          "midi": 28,
          "time": 211.5,
          "velocity": 0.7874015748031497,
          "duration": 0.5
        },
        {
          "name": "A1",
          "midi": 33,
          "time": 212,
          "velocity": 0.7874015748031497,
          "duration": 1
        },
        {
          "name": "E2",
          "midi": 40,
          "time": 213,
          "velocity": 0.7874015748031497,
          "duration": 0.5
        },
        {
          "name": "A2",
          "midi": 45,
          "time": 213.5,
          "velocity": 0.7874015748031497,
          "duration": 0.5
        },
        {
          "name": "C#3",
          "midi": 49,
          "time": 214,
          "velocity": 0.7874015748031497,
          "duration": 0.5
        },
        {
          "name": "C#3",
          "midi": 49,
          "time": 214.5,
          "velocity": 0.7874015748031497,
          "duration": 0.5
        },
        {
          "name": "A2",
          "midi": 45,
          "time": 215,
          "velocity": 0.7874015748031497,
          "duration": 0.5
        },
        {
          "name": "A1",
          "midi": 33,
          "time": 215.5,
          "velocity": 0.7874015748031497,
          "duration": 1.0270833333333371
        },
        {
          "name": "A1",
          "midi": 33,
          "time": 216.5,
          "velocity": 0.5039370078740157,
          "duration": 0.75
        },
        {
          "name": "A1",
          "midi": 33,
          "time": 218,
          "velocity": 0.5039370078740157,
          "duration": 0.5
        },
        {
          "name": "D2",
          "midi": 38,
          "time": 218,
          "velocity": 0.2755905511811024,
          "duration": 0.25
        },
        {
          "name": "E2",
          "midi": 40,
          "time": 218.25,
          "velocity": 0.2755905511811024,
          "duration": 0.25
        },
        {
          "name": "G2",
          "midi": 43,
          "time": 218.5,
          "velocity": 0.2755905511811024,
          "duration": 0.25
        },
        {
          "name": "A2",
          "midi": 45,
          "time": 218.75,
          "velocity": 0.2755905511811024,
          "duration": 0.25
        },
        {
          "name": "A1",
          "midi": 33,
          "time": 219,
          "velocity": 0.5039370078740157,
          "duration": 0.5
        },
        {
          "name": "A1",
          "midi": 33,
          "time": 220,
          "velocity": 0.5039370078740157,
          "duration": 0.5
        },
        {
          "name": "A#1",
          "midi": 34,
          "time": 220.5,
          "velocity": 0.5039370078740157,
          "duration": 0.75
        },
        {
          "name": "D2",
          "midi": 38,
          "time": 221,
          "velocity": 0.2677165354330709,
          "duration": 0.25
        },
        {
          "name": "F2",
          "midi": 41,
          "time": 221.25,
          "velocity": 0.2677165354330709,
          "duration": 0.25
        },
        {
          "name": "G2",
          "midi": 43,
          "time": 221.5,
          "velocity": 0.2677165354330709,
          "duration": 0.25
        },
        {
          "name": "A2",
          "midi": 45,
          "time": 221.75,
          "velocity": 0.2677165354330709,
          "duration": 0.25
        },
        {
          "name": "A#1",
          "midi": 34,
          "time": 222,
          "velocity": 0.5118110236220472,
          "duration": 0.5
        },
        {
          "name": "A#1",
          "midi": 34,
          "time": 223,
          "velocity": 0.5118110236220472,
          "duration": 0.5
        },
        {
          "name": "A#1",
          "midi": 34,
          "time": 224,
          "velocity": 0.5118110236220472,
          "duration": 0.5
        },
        {
          "name": "A1",
          "midi": 33,
          "time": 224.5,
          "velocity": 0.5118110236220472,
          "duration": 0.75
        },
        {
          "name": "A1",
          "midi": 33,
          "time": 226,
          "velocity": 0.5118110236220472,
          "duration": 0.5
        },
        {
          "name": "D2",
          "midi": 38,
          "time": 226,
          "velocity": 0.25984251968503935,
          "duration": 0.25
        },
        {
          "name": "E2",
          "midi": 40,
          "time": 226.25,
          "velocity": 0.25984251968503935,
          "duration": 0.25
        },
        {
          "name": "G2",
          "midi": 43,
          "time": 226.5,
          "velocity": 0.25984251968503935,
          "duration": 0.25
        },
        {
          "name": "A2",
          "midi": 45,
          "time": 226.75,
          "velocity": 0.25984251968503935,
          "duration": 0.25
        },
        {
          "name": "A1",
          "midi": 33,
          "time": 227,
          "velocity": 0.5118110236220472,
          "duration": 0.5
        },
        {
          "name": "A1",
          "midi": 33,
          "time": 228,
          "velocity": 0.5118110236220472,
          "duration": 0.5
        },
        {
          "name": "A1",
          "midi": 33,
          "time": 228.5,
          "velocity": 0.5118110236220472,
          "duration": 0.5
        },
        {
          "name": "D2",
          "midi": 38,
          "time": 229,
          "velocity": 0.2755905511811024,
          "duration": 0.25
        },
        {
          "name": "E2",
          "midi": 40,
          "time": 229.25,
          "velocity": 0.2755905511811024,
          "duration": 0.25
        },
        {
          "name": "G2",
          "midi": 43,
          "time": 229.5,
          "velocity": 0.2677165354330709,
          "duration": 0.25
        },
        {
          "name": "A2",
          "midi": 45,
          "time": 229.75,
          "velocity": 0.2677165354330709,
          "duration": 0.25
        },
        {
          "name": "A1",
          "midi": 33,
          "time": 230,
          "velocity": 0.5118110236220472,
          "duration": 0.5
        },
        {
          "name": "A1",
          "midi": 33,
          "time": 231,
          "velocity": 0.5118110236220472,
          "duration": 0.5
        },
        {
          "name": "A1",
          "midi": 33,
          "time": 232,
          "velocity": 0.5196850393700787,
          "duration": 0.5
        },
        {
          "name": "A1",
          "midi": 33,
          "time": 232.5,
          "velocity": 0.5196850393700787,
          "duration": 0.75
        },
        {
          "name": "A1",
          "midi": 33,
          "time": 234,
          "velocity": 0.5196850393700787,
          "duration": 0.5
        },
        {
          "name": "D2",
          "midi": 38,
          "time": 234,
          "velocity": 0.7874015748031497,
          "duration": 0.25
        },
        {
          "name": "E2",
          "midi": 40,
          "time": 234.25,
          "velocity": 0.7874015748031497,
          "duration": 0.25
        },
        {
          "name": "G2",
          "midi": 43,
          "time": 234.5,
          "velocity": 0.7874015748031497,
          "duration": 0.25
        },
        {
          "name": "A2",
          "midi": 45,
          "time": 234.75,
          "velocity": 0.7874015748031497,
          "duration": 0.25
        },
        {
          "name": "A1",
          "midi": 33,
          "time": 235,
          "velocity": 0.5196850393700787,
          "duration": 0.5
        },
        {
          "name": "A1",
          "midi": 33,
          "time": 236,
          "velocity": 0.5196850393700787,
          "duration": 0.5
        },
        {
          "name": "A#1",
          "midi": 34,
          "time": 236.5,
          "velocity": 0.5196850393700787,
          "duration": 0.75
        },
        {
          "name": "D2",
          "midi": 38,
          "time": 237,
          "velocity": 0.7874015748031497,
          "duration": 0.25
        },
        {
          "name": "F2",
          "midi": 41,
          "time": 237.25,
          "velocity": 0.7874015748031497,
          "duration": 0.25
        },
        {
          "name": "G2",
          "midi": 43,
          "time": 237.5,
          "velocity": 0.7874015748031497,
          "duration": 0.25
        },
        {
          "name": "A2",
          "midi": 45,
          "time": 237.75,
          "velocity": 0.7874015748031497,
          "duration": 0.25
        },
        {
          "name": "A#1",
          "midi": 34,
          "time": 238,
          "velocity": 0.5196850393700787,
          "duration": 0.5
        },
        {
          "name": "A#1",
          "midi": 34,
          "time": 239,
          "velocity": 0.5196850393700787,
          "duration": 0.5
        },
        {
          "name": "A#1",
          "midi": 34,
          "time": 240,
          "velocity": 0.5196850393700787,
          "duration": 0.5
        },
        {
          "name": "A1",
          "midi": 33,
          "time": 240.5,
          "velocity": 0.5196850393700787,
          "duration": 0.75
        },
        {
          "name": "A1",
          "midi": 33,
          "time": 242,
          "velocity": 0.5196850393700787,
          "duration": 0.5
        },
        {
          "name": "D2",
          "midi": 38,
          "time": 242,
          "velocity": 0.7874015748031497,
          "duration": 0.25
        },
        {
          "name": "E2",
          "midi": 40,
          "time": 242.25,
          "velocity": 0.7874015748031497,
          "duration": 0.25
        },
        {
          "name": "G2",
          "midi": 43,
          "time": 242.5,
          "velocity": 0.7874015748031497,
          "duration": 0.25
        },
        {
          "name": "A2",
          "midi": 45,
          "time": 242.75,
          "velocity": 0.7874015748031497,
          "duration": 0.25
        },
        {
          "name": "A1",
          "midi": 33,
          "time": 243,
          "velocity": 0.5275590551181102,
          "duration": 0.5
        },
        {
          "name": "A1",
          "midi": 33,
          "time": 244,
          "velocity": 0.5275590551181102,
          "duration": 0.5
        }
      ],
      "controlChanges": {
        "1": [
          {
            "number": 1,
            "time": 0.40833333333333327,
            "value": 0
          }
        ],
        "6": [
          {
            "number": 6,
            "time": 0.4104166666666666,
            "value": 0.5039370078740157
          },
          {
            "number": 6,
            "time": 0.41874999999999996,
            "value": 0.5039370078740157
          },
          {
            "number": 6,
            "time": 0.42499999999999993,
            "value": 0.09448818897637795
          }
        ],
        "7": [
          {
            "number": 7,
            "time": 0.4020833333333333,
            "value": 0.7874015748031497
          }
        ],
        "10": [
          {
            "number": 10,
            "time": 0.39999999999999997,
            "value": 0.5039370078740157
          }
        ],
        "11": [
          {
            "number": 11,
            "time": 0.40624999999999994,
            "value": 1
          }
        ],
        "32": [
          {
            "number": 32,
            "time": 0.39375,
            "value": 0
          }
        ],
        "38": [
          {
            "number": 38,
            "time": 0.4104166666666666,
            "value": 0
          }
        ],
        "91": [
          {
            "number": 91,
            "time": 0.4041666666666666,
            "value": 0
          }
        ],
        "100": [
          {
            "number": 100,
            "time": 0.4104166666666666,
            "value": 0.007874015748031496
          },
          {
            "number": 100,
            "time": 0.41874999999999996,
            "value": 0.015748031496062992
          },
          {
            "number": 100,
            "time": 0.42499999999999993,
            "value": 0
          },
          {
            "number": 100,
            "time": 0.43333333333333324,
            "value": 1
          }
        ],
        "101": [
          {
            "number": 101,
            "time": 0.4104166666666666,
            "value": 0
          },
          {
            "number": 101,
            "time": 0.41874999999999996,
            "value": 0
          },
          {
            "number": 101,
            "time": 0.42499999999999993,
            "value": 0
          },
          {
            "number": 101,
            "time": 0.43333333333333324,
            "value": 1
          }
        ],
        "121": [
          {
            "number": 121,
            "time": 0.39166666666666666,
            "value": 0
          }
        ]
      },
      "id": 4,
      "name": "",
      "instrumentNumber": 0,
      "instrument": "acoustic grand piano",
      "instrumentFamily": "piano",
      "channelNumber": 2,
      "isPercussion": false
    },
    {
      "startTime": 78.5,
      "duration": 216.5,
      "length": 387,
      "notes": [
        {
          "name": "D#4",
          "midi": 63,
          "time": 78.5,
          "velocity": 0.5669291338582677,
          "duration": 0.5
        },
        {
          "name": "D#3",
          "midi": 51,
          "time": 78.5,
          "velocity": 0.5669291338582677,
          "duration": 0.5
        },
        {
          "name": "C#4",
          "midi": 61,
          "time": 79,
          "velocity": 0.5748031496062992,
          "duration": 0.5
        },
        {
          "name": "C#3",
          "midi": 49,
          "time": 79,
          "velocity": 0.5748031496062992,
          "duration": 0.5
        },
        {
          "name": "B3",
          "midi": 59,
          "time": 79.5,
          "velocity": 0.5748031496062992,
          "duration": 0.5
        },
        {
          "name": "B2",
          "midi": 47,
          "time": 79.5,
          "velocity": 0.5748031496062992,
          "duration": 0.5
        },
        {
          "name": "A#3",
          "midi": 58,
          "time": 80,
          "velocity": 0.5826771653543307,
          "duration": 0.5
        },
        {
          "name": "A#2",
          "midi": 46,
          "time": 80,
          "velocity": 0.5826771653543307,
          "duration": 0.5
        },
        {
          "name": "G#4",
          "midi": 68,
          "time": 81.5,
          "velocity": 0.6692913385826772,
          "duration": 0.5
        },
        {
          "name": "G#3",
          "midi": 56,
          "time": 81.5,
          "velocity": 0.6692913385826772,
          "duration": 0.5
        },
        {
          "name": "B4",
          "midi": 71,
          "time": 82.5,
          "velocity": 0.6692913385826772,
          "duration": 0.5
        },
        {
          "name": "B3",
          "midi": 59,
          "time": 82.5,
          "velocity": 0.6692913385826772,
          "duration": 0.5
        },
        {
          "name": "C#5",
          "midi": 73,
          "time": 83,
          "velocity": 0.6692913385826772,
          "duration": 0.5
        },
        {
          "name": "C#4",
          "midi": 61,
          "time": 83,
          "velocity": 0.6692913385826772,
          "duration": 0.5
        },
        {
          "name": "D#5",
          "midi": 75,
          "time": 84,
          "velocity": 0.6692913385826772,
          "duration": 0.5
        },
        {
          "name": "D#4",
          "midi": 63,
          "time": 84,
          "velocity": 0.6692913385826772,
          "duration": 0.5
        },
        {
          "name": "B4",
          "midi": 71,
          "time": 88.5,
          "velocity": 0.6692913385826772,
          "duration": 0.5
        },
        {
          "name": "B3",
          "midi": 59,
          "time": 88.5,
          "velocity": 0.6692913385826772,
          "duration": 0.5
        },
        {
          "name": "G#4",
          "midi": 68,
          "time": 89.5,
          "velocity": 0.6692913385826772,
          "duration": 0.5
        },
        {
          "name": "G#3",
          "midi": 56,
          "time": 89.5,
          "velocity": 0.6692913385826772,
          "duration": 0.5
        },
        {
          "name": "A#4",
          "midi": 70,
          "time": 90.5,
          "velocity": 0.6692913385826772,
          "duration": 0.5
        },
        {
          "name": "A#3",
          "midi": 58,
          "time": 90.5,
          "velocity": 0.6692913385826772,
          "duration": 0.5
        },
        {
          "name": "B4",
          "midi": 71,
          "time": 91,
          "velocity": 0.6692913385826772,
          "duration": 0.5
        },
        {
          "name": "B3",
          "midi": 59,
          "time": 91,
          "velocity": 0.6692913385826772,
          "duration": 0.5
        },
        {
          "name": "A#4",
          "midi": 70,
          "time": 92,
          "velocity": 0.6692913385826772,
          "duration": 0.5
        },
        {
          "name": "A#3",
          "midi": 58,
          "time": 92,
          "velocity": 0.6692913385826772,
          "duration": 0.5
        },
        {
          "name": "G#4",
          "midi": 68,
          "time": 97.5,
          "velocity": 0.6692913385826772,
          "duration": 0.5
        },
        {
          "name": "G#3",
          "midi": 56,
          "time": 97.5,
          "velocity": 0.6692913385826772,
          "duration": 0.5
        },
        {
          "name": "B4",
          "midi": 71,
          "time": 98.5,
          "velocity": 0.6614173228346457,
          "duration": 0.5
        },
        {
          "name": "B3",
          "midi": 59,
          "time": 98.5,
          "velocity": 0.6614173228346457,
          "duration": 0.5
        },
        {
          "name": "C#5",
          "midi": 73,
          "time": 99,
          "velocity": 0.6614173228346457,
          "duration": 0.5
        },
        {
          "name": "C#4",
          "midi": 61,
          "time": 99,
          "velocity": 0.6614173228346457,
          "duration": 0.5
        },
        {
          "name": "D#5",
          "midi": 75,
          "time": 100,
          "velocity": 0.6614173228346457,
          "duration": 0.5
        },
        {
          "name": "D#4",
          "midi": 63,
          "time": 100,
          "velocity": 0.6614173228346457,
          "duration": 0.5
        },
        {
          "name": "B4",
          "midi": 71,
          "time": 104.5,
          "velocity": 0.6614173228346457,
          "duration": 0.5
        },
        {
          "name": "B3",
          "midi": 59,
          "time": 104.5,
          "velocity": 0.6614173228346457,
          "duration": 0.5
        },
        {
          "name": "G#4",
          "midi": 68,
          "time": 105.5,
          "velocity": 0.6614173228346457,
          "duration": 0.5
        },
        {
          "name": "G#3",
          "midi": 56,
          "time": 105.5,
          "velocity": 0.6614173228346457,
          "duration": 0.5
        },
        {
          "name": "A#4",
          "midi": 70,
          "time": 106.5,
          "velocity": 0.6614173228346457,
          "duration": 0.5
        },
        {
          "name": "A#3",
          "midi": 58,
          "time": 106.5,
          "velocity": 0.6614173228346457,
          "duration": 0.5
        },
        {
          "name": "B4",
          "midi": 71,
          "time": 107,
          "velocity": 0.6614173228346457,
          "duration": 0.5
        },
        {
          "name": "B3",
          "midi": 59,
          "time": 107,
          "velocity": 0.6614173228346457,
          "duration": 0.5
        },
        {
          "name": "A#4",
          "midi": 70,
          "time": 108,
          "velocity": 0.6614173228346457,
          "duration": 0.5
        },
        {
          "name": "A#3",
          "midi": 58,
          "time": 108,
          "velocity": 0.6614173228346457,
          "duration": 0.5
        },
        {
          "name": "E3",
          "midi": 52,
          "time": 128.5,
          "velocity": 0.5511811023622047,
          "duration": 1.5
        },
        {
          "name": "D#4",
          "midi": 63,
          "time": 129,
          "velocity": 0.5511811023622047,
          "duration": 0.5
        },
        {
          "name": "G#4",
          "midi": 68,
          "time": 129.5,
          "velocity": 0.5511811023622047,
          "duration": 0.5
        },
        {
          "name": "E3",
          "midi": 52,
          "time": 130,
          "velocity": 0.5511811023622047,
          "duration": 0.5
        },
        {
          "name": "G#3",
          "midi": 56,
          "time": 130,
          "velocity": 0.5511811023622047,
          "duration": 0.5
        },
        {
          "name": "B3",
          "midi": 59,
          "time": 130,
          "velocity": 0.5511811023622047,
          "duration": 0.5
        },
        {
          "name": "D#5",
          "midi": 75,
          "time": 130,
          "velocity": 0.5511811023622047,
          "duration": 0.5
        },
        {
          "name": "C#5",
          "midi": 73,
          "time": 130.5,
          "velocity": 0.5511811023622047,
          "duration": 1.5
        },
        {
          "name": "D#4",
          "midi": 63,
          "time": 130.5,
          "velocity": 0.5511811023622047,
          "duration": 1.5
        },
        {
          "name": "A#3",
          "midi": 58,
          "time": 130.5,
          "velocity": 0.5511811023622047,
          "duration": 1.5
        },
        {
          "name": "G3",
          "midi": 55,
          "time": 130.5,
          "velocity": 0.5511811023622047,
          "duration": 1.5
        },
        {
          "name": "B4",
          "midi": 71,
          "time": 132,
          "velocity": 0.5511811023622047,
          "duration": 1
        },
        {
          "name": "G#4",
          "midi": 68,
          "time": 133,
          "velocity": 0.5511811023622047,
          "duration": 0.5
        },
        {
          "name": "B4",
          "midi": 71,
          "time": 133.5,
          "velocity": 0.5511811023622047,
          "duration": 0.5
        },
        {
          "name": "C#5",
          "midi": 73,
          "time": 134,
          "velocity": 0.5511811023622047,
          "duration": 0.5
        },
        {
          "name": "D4",
          "midi": 62,
          "time": 134,
          "velocity": 0.5511811023622047,
          "duration": 0.5
        },
        {
          "name": "A#3",
          "midi": 58,
          "time": 134,
          "velocity": 0.5511811023622047,
          "duration": 0.5
        },
        {
          "name": "G3",
          "midi": 55,
          "time": 134,
          "velocity": 0.5511811023622047,
          "duration": 0.5
        },
        {
          "name": "D#5",
          "midi": 75,
          "time": 134.5,
          "velocity": 0.5511811023622047,
          "duration": 1
        },
        {
          "name": "E4",
          "midi": 64,
          "time": 134.5,
          "velocity": 0.5511811023622047,
          "duration": 1
        },
        {
          "name": "C#4",
          "midi": 61,
          "time": 134.5,
          "velocity": 0.5511811023622047,
          "duration": 1
        },
        {
          "name": "A3",
          "midi": 57,
          "time": 134.5,
          "velocity": 0.5511811023622047,
          "duration": 1
        },
        {
          "name": "F#5",
          "midi": 78,
          "time": 135.5,
          "velocity": 0.5511811023622047,
          "duration": 1
        },
        {
          "name": "F#3",
          "midi": 54,
          "time": 135.5,
          "velocity": 0.5511811023622047,
          "duration": 1
        },
        {
          "name": "B3",
          "midi": 59,
          "time": 135.5,
          "velocity": 0.5511811023622047,
          "duration": 1
        },
        {
          "name": "D#4",
          "midi": 63,
          "time": 135.5,
          "velocity": 0.5511811023622047,
          "duration": 1
        },
        {
          "name": "B4",
          "midi": 71,
          "time": 136.5,
          "velocity": 0.5511811023622047,
          "duration": 0.5
        },
        {
          "name": "E3",
          "midi": 52,
          "time": 136.5,
          "velocity": 0.5511811023622047,
          "duration": 1.5
        },
        {
          "name": "G#3",
          "midi": 56,
          "time": 136.5,
          "velocity": 0.5511811023622047,
          "duration": 1.5
        },
        {
          "name": "B3",
          "midi": 59,
          "time": 136.5,
          "velocity": 0.5511811023622047,
          "duration": 1.5
        },
        {
          "name": "C#4",
          "midi": 61,
          "time": 136.5,
          "velocity": 0.5511811023622047,
          "duration": 1.5
        },
        {
          "name": "G#4",
          "midi": 68,
          "time": 137,
          "velocity": 0.5511811023622047,
          "duration": 0.5
        },
        {
          "name": "B4",
          "midi": 71,
          "time": 137.5,
          "velocity": 0.5511811023622047,
          "duration": 0.5
        },
        {
          "name": "C#5",
          "midi": 73,
          "time": 138,
          "velocity": 0.5511811023622047,
          "duration": 0.5
        },
        {
          "name": "E3",
          "midi": 52,
          "time": 138,
          "velocity": 0.5511811023622047,
          "duration": 0.5
        },
        {
          "name": "G#3",
          "midi": 56,
          "time": 138,
          "velocity": 0.5511811023622047,
          "duration": 0.5
        },
        {
          "name": "B3",
          "midi": 59,
          "time": 138,
          "velocity": 0.5511811023622047,
          "duration": 0.5
        },
        {
          "name": "C#4",
          "midi": 61,
          "time": 138,
          "velocity": 0.5511811023622047,
          "duration": 0.5
        },
        {
          "name": "D#5",
          "midi": 75,
          "time": 138.5,
          "velocity": 0.5511811023622047,
          "duration": 1
        },
        {
          "name": "C#4",
          "midi": 61,
          "time": 138.5,
          "velocity": 0.5511811023622047,
          "duration": 1
        },
        {
          "name": "B3",
          "midi": 59,
          "time": 138.5,
          "velocity": 0.5511811023622047,
          "duration": 1
        },
        {
          "name": "G#3",
          "midi": 56,
          "time": 138.5,
          "velocity": 0.5511811023622047,
          "duration": 1
        },
        {
          "name": "E3",
          "midi": 52,
          "time": 138.5,
          "velocity": 0.5511811023622047,
          "duration": 1
        },
        {
          "name": "G#5",
          "midi": 80,
          "time": 139.5,
          "velocity": 0.5511811023622047,
          "duration": 1
        },
        {
          "name": "G#4",
          "midi": 68,
          "time": 139.5,
          "velocity": 0.5511811023622047,
          "duration": 1
        },
        {
          "name": "E3",
          "midi": 52,
          "time": 139.5,
          "velocity": 0.5511811023622047,
          "duration": 1
        },
        {
          "name": "G#3",
          "midi": 56,
          "time": 139.5,
          "velocity": 0.5511811023622047,
          "duration": 1
        },
        {
          "name": "B3",
          "midi": 59,
          "time": 139.5,
          "velocity": 0.5511811023622047,
          "duration": 1
        },
        {
          "name": "C#4",
          "midi": 61,
          "time": 139.5,
          "velocity": 0.5511811023622047,
          "duration": 1
        },
        {
          "name": "B4",
          "midi": 71,
          "time": 140.5,
          "velocity": 0.5511811023622047,
          "duration": 0.5
        },
        {
          "name": "E3",
          "midi": 52,
          "time": 140.5,
          "velocity": 0.5511811023622047,
          "duration": 1.5
        },
        {
          "name": "G#3",
          "midi": 56,
          "time": 140.5,
          "velocity": 0.5511811023622047,
          "duration": 1.5
        },
        {
          "name": "B3",
          "midi": 59,
          "time": 140.5,
          "velocity": 0.5511811023622047,
          "duration": 1.5
        },
        {
          "name": "C#4",
          "midi": 61,
          "time": 140.5,
          "velocity": 0.5511811023622047,
          "duration": 1.5
        },
        {
          "name": "G#4",
          "midi": 68,
          "time": 141,
          "velocity": 0.5511811023622047,
          "duration": 0.5
        },
        {
          "name": "B4",
          "midi": 71,
          "time": 141.5,
          "velocity": 0.5511811023622047,
          "duration": 0.5
        },
        {
          "name": "C#5",
          "midi": 73,
          "time": 142,
          "velocity": 0.5511811023622047,
          "duration": 0.5
        },
        {
          "name": "E3",
          "midi": 52,
          "time": 142,
          "velocity": 0.5511811023622047,
          "duration": 0.5
        },
        {
          "name": "G#3",
          "midi": 56,
          "time": 142,
          "velocity": 0.5511811023622047,
          "duration": 0.5
        },
        {
          "name": "B3",
          "midi": 59,
          "time": 142,
          "velocity": 0.5511811023622047,
          "duration": 0.5
        },
        {
          "name": "C#4",
          "midi": 61,
          "time": 142,
          "velocity": 0.5511811023622047,
          "duration": 0.5
        },
        {
          "name": "D#5",
          "midi": 75,
          "time": 142.5,
          "velocity": 0.5511811023622047,
          "duration": 1
        },
        {
          "name": "C#4",
          "midi": 61,
          "time": 142.5,
          "velocity": 0.5511811023622047,
          "duration": 1
        },
        {
          "name": "B3",
          "midi": 59,
          "time": 142.5,
          "velocity": 0.5511811023622047,
          "duration": 1
        },
        {
          "name": "G#3",
          "midi": 56,
          "time": 142.5,
          "velocity": 0.5511811023622047,
          "duration": 1
        },
        {
          "name": "E3",
          "midi": 52,
          "time": 142.5,
          "velocity": 0.5511811023622047,
          "duration": 1
        },
        {
          "name": "G#5",
          "midi": 80,
          "time": 143.5,
          "velocity": 0.5511811023622047,
          "duration": 1
        },
        {
          "name": "G#4",
          "midi": 68,
          "time": 143.5,
          "velocity": 0.5511811023622047,
          "duration": 1
        },
        {
          "name": "E3",
          "midi": 52,
          "time": 143.5,
          "velocity": 0.5511811023622047,
          "duration": 1
        },
        {
          "name": "G#3",
          "midi": 56,
          "time": 143.5,
          "velocity": 0.5511811023622047,
          "duration": 1
        },
        {
          "name": "B3",
          "midi": 59,
          "time": 143.5,
          "velocity": 0.5511811023622047,
          "duration": 1
        },
        {
          "name": "C#4",
          "midi": 61,
          "time": 143.5,
          "velocity": 0.5511811023622047,
          "duration": 1
        },
        {
          "name": "A4",
          "midi": 69,
          "time": 153,
          "velocity": 0.49606299212598426,
          "duration": 0.5
        },
        {
          "name": "F4",
          "midi": 65,
          "time": 153,
          "velocity": 0.49606299212598426,
          "duration": 0.5
        },
        {
          "name": "C4",
          "midi": 60,
          "time": 153,
          "velocity": 0.49606299212598426,
          "duration": 0.5
        },
        {
          "name": "A4",
          "midi": 69,
          "time": 154,
          "velocity": 0.49606299212598426,
          "duration": 0.5
        },
        {
          "name": "F4",
          "midi": 65,
          "time": 154,
          "velocity": 0.49606299212598426,
          "duration": 0.5
        },
        {
          "name": "C4",
          "midi": 60,
          "time": 154,
          "velocity": 0.49606299212598426,
          "duration": 0.5
        },
        {
          "name": "B3",
          "midi": 59,
          "time": 155,
          "velocity": 0.49606299212598426,
          "duration": 0.5
        },
        {
          "name": "D4",
          "midi": 62,
          "time": 155,
          "velocity": 0.49606299212598426,
          "duration": 0.5
        },
        {
          "name": "E4",
          "midi": 64,
          "time": 155,
          "velocity": 0.49606299212598426,
          "duration": 0.5
        },
        {
          "name": "G4",
          "midi": 67,
          "time": 155,
          "velocity": 0.49606299212598426,
          "duration": 0.5
        },
        {
          "name": "C4",
          "midi": 60,
          "time": 157,
          "velocity": 0.49606299212598426,
          "duration": 0.5
        },
        {
          "name": "E4",
          "midi": 64,
          "time": 157,
          "velocity": 0.49606299212598426,
          "duration": 0.5
        },
        {
          "name": "A4",
          "midi": 69,
          "time": 157,
          "velocity": 0.49606299212598426,
          "duration": 0.5
        },
        {
          "name": "A4",
          "midi": 69,
          "time": 158,
          "velocity": 0.49606299212598426,
          "duration": 0.5
        },
        {
          "name": "E4",
          "midi": 64,
          "time": 158,
          "velocity": 0.49606299212598426,
          "duration": 0.5
        },
        {
          "name": "C4",
          "midi": 60,
          "time": 158,
          "velocity": 0.49606299212598426,
          "duration": 0.5
        },
        {
          "name": "C4",
          "midi": 60,
          "time": 159,
          "velocity": 0.49606299212598426,
          "duration": 0.5
        },
        {
          "name": "E4",
          "midi": 64,
          "time": 159,
          "velocity": 0.49606299212598426,
          "duration": 0.5
        },
        {
          "name": "G4",
          "midi": 67,
          "time": 159,
          "velocity": 0.49606299212598426,
          "duration": 0.5
        },
        {
          "name": "C4",
          "midi": 60,
          "time": 160,
          "velocity": 0.49606299212598426,
          "duration": 0.5
        },
        {
          "name": "E4",
          "midi": 64,
          "time": 160,
          "velocity": 0.49606299212598426,
          "duration": 0.5
        },
        {
          "name": "G4",
          "midi": 67,
          "time": 160,
          "velocity": 0.49606299212598426,
          "duration": 0.5
        },
        {
          "name": "D4",
          "midi": 62,
          "time": 161,
          "velocity": 0.49606299212598426,
          "duration": 0.5
        },
        {
          "name": "F4",
          "midi": 65,
          "time": 161,
          "velocity": 0.49606299212598426,
          "duration": 0.5
        },
        {
          "name": "A4",
          "midi": 69,
          "time": 161,
          "velocity": 0.49606299212598426,
          "duration": 0.5
        },
        {
          "name": "A4",
          "midi": 69,
          "time": 162,
          "velocity": 0.49606299212598426,
          "duration": 0.5
        },
        {
          "name": "F4",
          "midi": 65,
          "time": 162,
          "velocity": 0.49606299212598426,
          "duration": 0.5
        },
        {
          "name": "D4",
          "midi": 62,
          "time": 162,
          "velocity": 0.49606299212598426,
          "duration": 0.5
        },
        {
          "name": "B3",
          "midi": 59,
          "time": 163,
          "velocity": 0.49606299212598426,
          "duration": 0.5
        },
        {
          "name": "E4",
          "midi": 64,
          "time": 163,
          "velocity": 0.49606299212598426,
          "duration": 0.5
        },
        {
          "name": "G4",
          "midi": 67,
          "time": 163,
          "velocity": 0.49606299212598426,
          "duration": 0.5
        },
        {
          "name": "A4",
          "midi": 69,
          "time": 165,
          "velocity": 0.49606299212598426,
          "duration": 0.5
        },
        {
          "name": "E4",
          "midi": 64,
          "time": 165,
          "velocity": 0.49606299212598426,
          "duration": 0.5
        },
        {
          "name": "C4",
          "midi": 60,
          "time": 165,
          "velocity": 0.49606299212598426,
          "duration": 0.5
        },
        {
          "name": "C4",
          "midi": 60,
          "time": 166,
          "velocity": 0.49606299212598426,
          "duration": 0.5
        },
        {
          "name": "E4",
          "midi": 64,
          "time": 166,
          "velocity": 0.49606299212598426,
          "duration": 0.5
        },
        {
          "name": "A4",
          "midi": 69,
          "time": 166,
          "velocity": 0.49606299212598426,
          "duration": 0.5
        },
        {
          "name": "A4",
          "midi": 69,
          "time": 169,
          "velocity": 0.49606299212598426,
          "duration": 0.5
        },
        {
          "name": "F4",
          "midi": 65,
          "time": 169,
          "velocity": 0.49606299212598426,
          "duration": 0.5
        },
        {
          "name": "C4",
          "midi": 60,
          "time": 169,
          "velocity": 0.49606299212598426,
          "duration": 0.5
        },
        {
          "name": "A4",
          "midi": 69,
          "time": 170,
          "velocity": 0.49606299212598426,
          "duration": 0.5
        },
        {
          "name": "F4",
          "midi": 65,
          "time": 170,
          "velocity": 0.49606299212598426,
          "duration": 0.5
        },
        {
          "name": "C4",
          "midi": 60,
          "time": 170,
          "velocity": 0.49606299212598426,
          "duration": 0.5
        },
        {
          "name": "B3",
          "midi": 59,
          "time": 171,
          "velocity": 0.49606299212598426,
          "duration": 0.5
        },
        {
          "name": "D4",
          "midi": 62,
          "time": 171,
          "velocity": 0.49606299212598426,
          "duration": 0.5
        },
        {
          "name": "E4",
          "midi": 64,
          "time": 171,
          "velocity": 0.49606299212598426,
          "duration": 0.5
        },
        {
          "name": "G4",
          "midi": 67,
          "time": 171,
          "velocity": 0.49606299212598426,
          "duration": 0.5
        },
        {
          "name": "C4",
          "midi": 60,
          "time": 173,
          "velocity": 0.49606299212598426,
          "duration": 0.5
        },
        {
          "name": "E4",
          "midi": 64,
          "time": 173,
          "velocity": 0.49606299212598426,
          "duration": 0.5
        },
        {
          "name": "A4",
          "midi": 69,
          "time": 173,
          "velocity": 0.49606299212598426,
          "duration": 0.5
        },
        {
          "name": "A4",
          "midi": 69,
          "time": 174,
          "velocity": 0.49606299212598426,
          "duration": 0.5
        },
        {
          "name": "E4",
          "midi": 64,
          "time": 174,
          "velocity": 0.49606299212598426,
          "duration": 0.5
        },
        {
          "name": "C4",
          "midi": 60,
          "time": 174,
          "velocity": 0.49606299212598426,
          "duration": 0.5
        },
        {
          "name": "C4",
          "midi": 60,
          "time": 175,
          "velocity": 0.49606299212598426,
          "duration": 0.5
        },
        {
          "name": "E4",
          "midi": 64,
          "time": 175,
          "velocity": 0.49606299212598426,
          "duration": 0.5
        },
        {
          "name": "G4",
          "midi": 67,
          "time": 175,
          "velocity": 0.49606299212598426,
          "duration": 0.5
        },
        {
          "name": "C4",
          "midi": 60,
          "time": 176,
          "velocity": 0.49606299212598426,
          "duration": 0.5
        },
        {
          "name": "E4",
          "midi": 64,
          "time": 176,
          "velocity": 0.49606299212598426,
          "duration": 0.5
        },
        {
          "name": "G4",
          "midi": 67,
          "time": 176,
          "velocity": 0.49606299212598426,
          "duration": 0.5
        },
        {
          "name": "D4",
          "midi": 62,
          "time": 177,
          "velocity": 0.49606299212598426,
          "duration": 0.5
        },
        {
          "name": "F4",
          "midi": 65,
          "time": 177,
          "velocity": 0.49606299212598426,
          "duration": 0.5
        },
        {
          "name": "A4",
          "midi": 69,
          "time": 177,
          "velocity": 0.49606299212598426,
          "duration": 0.5
        },
        {
          "name": "A4",
          "midi": 69,
          "time": 178,
          "velocity": 0.49606299212598426,
          "duration": 0.5
        },
        {
          "name": "F4",
          "midi": 65,
          "time": 178,
          "velocity": 0.49606299212598426,
          "duration": 0.5
        },
        {
          "name": "D4",
          "midi": 62,
          "time": 178,
          "velocity": 0.49606299212598426,
          "duration": 0.5
        },
        {
          "name": "B3",
          "midi": 59,
          "time": 179,
          "velocity": 0.49606299212598426,
          "duration": 0.5
        },
        {
          "name": "E4",
          "midi": 64,
          "time": 179,
          "velocity": 0.49606299212598426,
          "duration": 0.5
        },
        {
          "name": "G4",
          "midi": 67,
          "time": 179,
          "velocity": 0.49606299212598426,
          "duration": 0.5
        },
        {
          "name": "A4",
          "midi": 69,
          "time": 181,
          "velocity": 0.49606299212598426,
          "duration": 0.5
        },
        {
          "name": "E4",
          "midi": 64,
          "time": 181,
          "velocity": 0.49606299212598426,
          "duration": 0.5
        },
        {
          "name": "C4",
          "midi": 60,
          "time": 181,
          "velocity": 0.49606299212598426,
          "duration": 0.5
        },
        {
          "name": "C4",
          "midi": 60,
          "time": 182,
          "velocity": 0.49606299212598426,
          "duration": 0.5
        },
        {
          "name": "E4",
          "midi": 64,
          "time": 182,
          "velocity": 0.49606299212598426,
          "duration": 0.5
        },
        {
          "name": "A4",
          "midi": 69,
          "time": 182,
          "velocity": 0.49606299212598426,
          "duration": 0.5
        },
        {
          "name": "A4",
          "midi": 69,
          "time": 183,
          "velocity": 0.49606299212598426,
          "duration": 0.5
        },
        {
          "name": "E4",
          "midi": 64,
          "time": 183,
          "velocity": 0.49606299212598426,
          "duration": 0.5
        },
        {
          "name": "C4",
          "midi": 60,
          "time": 183,
          "velocity": 0.49606299212598426,
          "duration": 0.5
        },
        {
          "name": "C4",
          "midi": 60,
          "time": 184,
          "velocity": 0.49606299212598426,
          "duration": 0.5
        },
        {
          "name": "E4",
          "midi": 64,
          "time": 184,
          "velocity": 0.49606299212598426,
          "duration": 0.5
        },
        {
          "name": "A4",
          "midi": 69,
          "time": 184,
          "velocity": 0.49606299212598426,
          "duration": 0.5
        },
        {
          "name": "A4",
          "midi": 69,
          "time": 184.5,
          "velocity": 0.5039370078740157,
          "duration": 0.5
        },
        {
          "name": "E4",
          "midi": 64,
          "time": 184.5,
          "velocity": 0.5039370078740157,
          "duration": 0.5
        },
        {
          "name": "C4",
          "midi": 60,
          "time": 184.5,
          "velocity": 0.5039370078740157,
          "duration": 0.5
        },
        {
          "name": "F3",
          "midi": 53,
          "time": 184.5,
          "velocity": 0.5039370078740157,
          "duration": 0.5
        },
        {
          "name": "C3",
          "midi": 48,
          "time": 184.5,
          "velocity": 0.5039370078740157,
          "duration": 0.5
        },
        {
          "name": "F2",
          "midi": 41,
          "time": 184.5,
          "velocity": 0.5039370078740157,
          "duration": 0.5
        },
        {
          "name": "A4",
          "midi": 69,
          "time": 185.5,
          "velocity": 0.5039370078740157,
          "duration": 0.5
        },
        {
          "name": "E4",
          "midi": 64,
          "time": 185.5,
          "velocity": 0.5039370078740157,
          "duration": 0.5
        },
        {
          "name": "C4",
          "midi": 60,
          "time": 185.5,
          "velocity": 0.5039370078740157,
          "duration": 0.5
        },
        {
          "name": "F3",
          "midi": 53,
          "time": 185.5,
          "velocity": 0.5039370078740157,
          "duration": 0.5
        },
        {
          "name": "C3",
          "midi": 48,
          "time": 185.5,
          "velocity": 0.5039370078740157,
          "duration": 0.5
        },
        {
          "name": "F2",
          "midi": 41,
          "time": 185.5,
          "velocity": 0.5039370078740157,
          "duration": 0.5
        },
        {
          "name": "B4",
          "midi": 71,
          "time": 186.5,
          "velocity": 0.5039370078740157,
          "duration": 0.5
        },
        {
          "name": "G#4",
          "midi": 68,
          "time": 186.5,
          "velocity": 0.5039370078740157,
          "duration": 0.5
        },
        {
          "name": "E4",
          "midi": 64,
          "time": 186.5,
          "velocity": 0.5039370078740157,
          "duration": 0.5
        },
        {
          "name": "D4",
          "midi": 62,
          "time": 186.5,
          "velocity": 0.5039370078740157,
          "duration": 0.5
        },
        {
          "name": "E3",
          "midi": 52,
          "time": 186.5,
          "velocity": 0.5039370078740157,
          "duration": 0.5
        },
        {
          "name": "A3",
          "midi": 57,
          "time": 186.5,
          "velocity": 0.5039370078740157,
          "duration": 0.5
        },
        {
          "name": "D3",
          "midi": 50,
          "time": 186.5,
          "velocity": 0.5039370078740157,
          "duration": 0.5
        },
        {
          "name": "B2",
          "midi": 47,
          "time": 186.5,
          "velocity": 0.5039370078740157,
          "duration": 0.5
        },
        {
          "name": "E2",
          "midi": 40,
          "time": 186.5,
          "velocity": 0.5039370078740157,
          "duration": 0.5
        },
        {
          "name": "B4",
          "midi": 71,
          "time": 187.25,
          "velocity": 0.5039370078740157,
          "duration": 0.5
        },
        {
          "name": "G#4",
          "midi": 68,
          "time": 187.25,
          "velocity": 0.5039370078740157,
          "duration": 0.5
        },
        {
          "name": "E4",
          "midi": 64,
          "time": 187.25,
          "velocity": 0.5039370078740157,
          "duration": 0.5
        },
        {
          "name": "D4",
          "midi": 62,
          "time": 187.25,
          "velocity": 0.5039370078740157,
          "duration": 0.5
        },
        {
          "name": "A3",
          "midi": 57,
          "time": 187.25,
          "velocity": 0.5039370078740157,
          "duration": 0.5
        },
        {
          "name": "E3",
          "midi": 52,
          "time": 187.25,
          "velocity": 0.5039370078740157,
          "duration": 0.5
        },
        {
          "name": "D3",
          "midi": 50,
          "time": 187.25,
          "velocity": 0.5039370078740157,
          "duration": 0.5
        },
        {
          "name": "B2",
          "midi": 47,
          "time": 187.25,
          "velocity": 0.5039370078740157,
          "duration": 0.5
        },
        {
          "name": "E2",
          "midi": 40,
          "time": 187.25,
          "velocity": 0.5039370078740157,
          "duration": 0.5
        },
        {
          "name": "A4",
          "midi": 69,
          "time": 188,
          "velocity": 0.5039370078740157,
          "duration": 0.5
        },
        {
          "name": "E4",
          "midi": 64,
          "time": 188,
          "velocity": 0.5039370078740157,
          "duration": 0.5
        },
        {
          "name": "C4",
          "midi": 60,
          "time": 188,
          "velocity": 0.5039370078740157,
          "duration": 0.5
        },
        {
          "name": "A3",
          "midi": 57,
          "time": 188,
          "velocity": 0.5039370078740157,
          "duration": 0.5
        },
        {
          "name": "E3",
          "midi": 52,
          "time": 188,
          "velocity": 0.5039370078740157,
          "duration": 0.5
        },
        {
          "name": "A2",
          "midi": 45,
          "time": 188,
          "velocity": 0.5039370078740157,
          "duration": 0.5
        },
        {
          "name": "A4",
          "midi": 69,
          "time": 189,
          "velocity": 0.5039370078740157,
          "duration": 0.5
        },
        {
          "name": "E4",
          "midi": 64,
          "time": 189,
          "velocity": 0.5039370078740157,
          "duration": 0.5
        },
        {
          "name": "C4",
          "midi": 60,
          "time": 189,
          "velocity": 0.5039370078740157,
          "duration": 0.5
        },
        {
          "name": "A3",
          "midi": 57,
          "time": 189,
          "velocity": 0.5039370078740157,
          "duration": 0.5
        },
        {
          "name": "E3",
          "midi": 52,
          "time": 189,
          "velocity": 0.5039370078740157,
          "duration": 0.5
        },
        {
          "name": "A2",
          "midi": 45,
          "time": 189,
          "velocity": 0.5039370078740157,
          "duration": 0.5
        },
        {
          "name": "A4",
          "midi": 69,
          "time": 189.5,
          "velocity": 0.5039370078740157,
          "duration": 0.5
        },
        {
          "name": "E4",
          "midi": 64,
          "time": 189.5,
          "velocity": 0.5039370078740157,
          "duration": 0.5
        },
        {
          "name": "C4",
          "midi": 60,
          "time": 189.5,
          "velocity": 0.5039370078740157,
          "duration": 0.5
        },
        {
          "name": "A3",
          "midi": 57,
          "time": 189.5,
          "velocity": 0.5039370078740157,
          "duration": 0.5
        },
        {
          "name": "E3",
          "midi": 52,
          "time": 189.5,
          "velocity": 0.5039370078740157,
          "duration": 0.5
        },
        {
          "name": "A2",
          "midi": 45,
          "time": 189.5,
          "velocity": 0.5039370078740157,
          "duration": 0.5
        },
        {
          "name": "A4",
          "midi": 69,
          "time": 190,
          "velocity": 0.5039370078740157,
          "duration": 0.5
        },
        {
          "name": "E4",
          "midi": 64,
          "time": 190,
          "velocity": 0.5039370078740157,
          "duration": 0.5
        },
        {
          "name": "C4",
          "midi": 60,
          "time": 190,
          "velocity": 0.5039370078740157,
          "duration": 0.5
        },
        {
          "name": "A3",
          "midi": 57,
          "time": 190,
          "velocity": 0.5039370078740157,
          "duration": 0.5
        },
        {
          "name": "E3",
          "midi": 52,
          "time": 190,
          "velocity": 0.5039370078740157,
          "duration": 0.5
        },
        {
          "name": "A2",
          "midi": 45,
          "time": 190,
          "velocity": 0.5039370078740157,
          "duration": 0.5
        },
        {
          "name": "A4",
          "midi": 69,
          "time": 190.5,
          "velocity": 0.5039370078740157,
          "duration": 0.5
        },
        {
          "name": "E4",
          "midi": 64,
          "time": 190.5,
          "velocity": 0.5039370078740157,
          "duration": 0.5
        },
        {
          "name": "C4",
          "midi": 60,
          "time": 190.5,
          "velocity": 0.5039370078740157,
          "duration": 0.5
        },
        {
          "name": "A3",
          "midi": 57,
          "time": 190.5,
          "velocity": 0.5039370078740157,
          "duration": 0.5
        },
        {
          "name": "E3",
          "midi": 52,
          "time": 190.5,
          "velocity": 0.5039370078740157,
          "duration": 0.5
        },
        {
          "name": "A2",
          "midi": 45,
          "time": 190.5,
          "velocity": 0.5039370078740157,
          "duration": 0.5
        },
        {
          "name": "G4",
          "midi": 67,
          "time": 191.5,
          "velocity": 0.5039370078740157,
          "duration": 0.5
        },
        {
          "name": "E4",
          "midi": 64,
          "time": 191.5,
          "velocity": 0.5039370078740157,
          "duration": 0.5
        },
        {
          "name": "C4",
          "midi": 60,
          "time": 191.5,
          "velocity": 0.5039370078740157,
          "duration": 0.5
        },
        {
          "name": "G3",
          "midi": 55,
          "time": 191.5,
          "velocity": 0.5039370078740157,
          "duration": 0.5
        },
        {
          "name": "E3",
          "midi": 52,
          "time": 191.5,
          "velocity": 0.5039370078740157,
          "duration": 0.5
        },
        {
          "name": "C3",
          "midi": 48,
          "time": 191.5,
          "velocity": 0.5039370078740157,
          "duration": 0.5
        },
        {
          "name": "D2",
          "midi": 38,
          "time": 192.5,
          "velocity": 0.5039370078740157,
          "duration": 0.5
        },
        {
          "name": "D3",
          "midi": 50,
          "time": 192.5,
          "velocity": 0.5039370078740157,
          "duration": 0.5
        },
        {
          "name": "D4",
          "midi": 62,
          "time": 192.5,
          "velocity": 0.5039370078740157,
          "duration": 0.5
        },
        {
          "name": "F4",
          "midi": 65,
          "time": 192.5,
          "velocity": 0.5039370078740157,
          "duration": 0.5
        },
        {
          "name": "A4",
          "midi": 69,
          "time": 192.5,
          "velocity": 0.5039370078740157,
          "duration": 0.5
        },
        {
          "name": "A2",
          "midi": 45,
          "time": 192.5,
          "velocity": 0.5039370078740157,
          "duration": 0.5
        },
        {
          "name": "A3",
          "midi": 57,
          "time": 192.5,
          "velocity": 0.5039370078740157,
          "duration": 0.5
        },
        {
          "name": "A4",
          "midi": 69,
          "time": 193.5,
          "velocity": 0.5039370078740157,
          "duration": 0.5
        },
        {
          "name": "F4",
          "midi": 65,
          "time": 193.5,
          "velocity": 0.5039370078740157,
          "duration": 0.5
        },
        {
          "name": "C4",
          "midi": 60,
          "time": 193.5,
          "velocity": 0.5039370078740157,
          "duration": 0.5
        },
        {
          "name": "A3",
          "midi": 57,
          "time": 193.5,
          "velocity": 0.5039370078740157,
          "duration": 0.5
        },
        {
          "name": "F3",
          "midi": 53,
          "time": 193.5,
          "velocity": 0.5039370078740157,
          "duration": 0.5
        },
        {
          "name": "C3",
          "midi": 48,
          "time": 193.5,
          "velocity": 0.5039370078740157,
          "duration": 0.5
        },
        {
          "name": "F2",
          "midi": 41,
          "time": 193.5,
          "velocity": 0.5039370078740157,
          "duration": 0.5
        },
        {
          "name": "G#4",
          "midi": 68,
          "time": 194.5,
          "velocity": 0.5039370078740157,
          "duration": 0.5
        },
        {
          "name": "D4",
          "midi": 62,
          "time": 194.5,
          "velocity": 0.5039370078740157,
          "duration": 0.5
        },
        {
          "name": "E4",
          "midi": 64,
          "time": 194.5,
          "velocity": 0.5039370078740157,
          "duration": 0.5
        },
        {
          "name": "B3",
          "midi": 59,
          "time": 194.5,
          "velocity": 0.5039370078740157,
          "duration": 0.5
        },
        {
          "name": "G#3",
          "midi": 56,
          "time": 194.5,
          "velocity": 0.5039370078740157,
          "duration": 0.5
        },
        {
          "name": "E3",
          "midi": 52,
          "time": 194.5,
          "velocity": 0.5039370078740157,
          "duration": 0.5
        },
        {
          "name": "D3",
          "midi": 50,
          "time": 194.5,
          "velocity": 0.5039370078740157,
          "duration": 0.5
        },
        {
          "name": "B2",
          "midi": 47,
          "time": 194.5,
          "velocity": 0.5039370078740157,
          "duration": 0.5
        },
        {
          "name": "E2",
          "midi": 40,
          "time": 194.5,
          "velocity": 0.5039370078740157,
          "duration": 0.5
        },
        {
          "name": "G#4",
          "midi": 68,
          "time": 195.25,
          "velocity": 0.5039370078740157,
          "duration": 0.5
        },
        {
          "name": "E4",
          "midi": 64,
          "time": 195.25,
          "velocity": 0.5039370078740157,
          "duration": 0.5
        },
        {
          "name": "D4",
          "midi": 62,
          "time": 195.25,
          "velocity": 0.5039370078740157,
          "duration": 0.5
        },
        {
          "name": "B3",
          "midi": 59,
          "time": 195.25,
          "velocity": 0.5039370078740157,
          "duration": 0.5
        },
        {
          "name": "G#3",
          "midi": 56,
          "time": 195.25,
          "velocity": 0.5039370078740157,
          "duration": 0.5
        },
        {
          "name": "E3",
          "midi": 52,
          "time": 195.25,
          "velocity": 0.5039370078740157,
          "duration": 0.5
        },
        {
          "name": "D3",
          "midi": 50,
          "time": 195.25,
          "velocity": 0.5039370078740157,
          "duration": 0.5
        },
        {
          "name": "B2",
          "midi": 47,
          "time": 195.25,
          "velocity": 0.5039370078740157,
          "duration": 0.5
        },
        {
          "name": "E2",
          "midi": 40,
          "time": 195.25,
          "velocity": 0.5039370078740157,
          "duration": 0.5
        },
        {
          "name": "E3",
          "midi": 52,
          "time": 196,
          "velocity": 0.5039370078740157,
          "duration": 1.5
        },
        {
          "name": "A2",
          "midi": 45,
          "time": 196,
          "velocity": 0.5039370078740157,
          "duration": 1.5
        },
        {
          "name": "D#3",
          "midi": 51,
          "time": 197.5,
          "velocity": 0.5039370078740157,
          "duration": 1
        },
        {
          "name": "G#2",
          "midi": 44,
          "time": 197.5,
          "velocity": 0.5039370078740157,
          "duration": 1
        },
        {
          "name": "F3",
          "midi": 53,
          "time": 197.5,
          "velocity": 0.5039370078740157,
          "duration": 1
        },
        {
          "name": "F3",
          "midi": 53,
          "time": 198.5,
          "velocity": 0.5039370078740157,
          "duration": 1
        },
        {
          "name": "D3",
          "midi": 50,
          "time": 198.5,
          "velocity": 0.5039370078740157,
          "duration": 1
        },
        {
          "name": "G2",
          "midi": 43,
          "time": 198.5,
          "velocity": 0.5039370078740157,
          "duration": 1
        },
        {
          "name": "E3",
          "midi": 52,
          "time": 199.5,
          "velocity": 0.5039370078740157,
          "duration": 1
        },
        {
          "name": "C3",
          "midi": 48,
          "time": 199.5,
          "velocity": 0.5039370078740157,
          "duration": 1
        },
        {
          "name": "A4",
          "midi": 69,
          "time": 200.5,
          "velocity": 0.5039370078740157,
          "duration": 0.5
        },
        {
          "name": "F4",
          "midi": 65,
          "time": 200.5,
          "velocity": 0.5039370078740157,
          "duration": 0.5
        },
        {
          "name": "C4",
          "midi": 60,
          "time": 200.5,
          "velocity": 0.5039370078740157,
          "duration": 0.5
        },
        {
          "name": "A3",
          "midi": 57,
          "time": 200.5,
          "velocity": 0.5039370078740157,
          "duration": 0.5
        },
        {
          "name": "F3",
          "midi": 53,
          "time": 200.5,
          "velocity": 0.5039370078740157,
          "duration": 0.5
        },
        {
          "name": "C3",
          "midi": 48,
          "time": 200.5,
          "velocity": 0.5039370078740157,
          "duration": 0.5
        },
        {
          "name": "F2",
          "midi": 41,
          "time": 200.5,
          "velocity": 0.5039370078740157,
          "duration": 0.5
        },
        {
          "name": "A4",
          "midi": 69,
          "time": 201.5,
          "velocity": 0.5039370078740157,
          "duration": 0.5
        },
        {
          "name": "F4",
          "midi": 65,
          "time": 201.5,
          "velocity": 0.5039370078740157,
          "duration": 0.5
        },
        {
          "name": "C4",
          "midi": 60,
          "time": 201.5,
          "velocity": 0.5039370078740157,
          "duration": 0.5
        },
        {
          "name": "A3",
          "midi": 57,
          "time": 201.5,
          "velocity": 0.5039370078740157,
          "duration": 0.5
        },
        {
          "name": "F3",
          "midi": 53,
          "time": 201.5,
          "velocity": 0.5039370078740157,
          "duration": 0.5
        },
        {
          "name": "C3",
          "midi": 48,
          "time": 201.5,
          "velocity": 0.5039370078740157,
          "duration": 0.5
        },
        {
          "name": "F2",
          "midi": 41,
          "time": 201.5,
          "velocity": 0.5039370078740157,
          "duration": 0.5
        },
        {
          "name": "B4",
          "midi": 71,
          "time": 202.5,
          "velocity": 0.5039370078740157,
          "duration": 0.5
        },
        {
          "name": "G#4",
          "midi": 68,
          "time": 202.5,
          "velocity": 0.5039370078740157,
          "duration": 0.5
        },
        {
          "name": "E4",
          "midi": 64,
          "time": 202.5,
          "velocity": 0.5039370078740157,
          "duration": 0.5
        },
        {
          "name": "D4",
          "midi": 62,
          "time": 202.5,
          "velocity": 0.5039370078740157,
          "duration": 0.5
        },
        {
          "name": "B3",
          "midi": 59,
          "time": 202.5,
          "velocity": 0.5039370078740157,
          "duration": 0.5
        },
        {
          "name": "G#3",
          "midi": 56,
          "time": 202.5,
          "velocity": 0.5039370078740157,
          "duration": 0.5
        },
        {
          "name": "E3",
          "midi": 52,
          "time": 202.5,
          "velocity": 0.5039370078740157,
          "duration": 0.5
        },
        {
          "name": "D3",
          "midi": 50,
          "time": 202.5,
          "velocity": 0.5039370078740157,
          "duration": 0.5
        },
        {
          "name": "B2",
          "midi": 47,
          "time": 202.5,
          "velocity": 0.5039370078740157,
          "duration": 0.5
        },
        {
          "name": "E2",
          "midi": 40,
          "time": 202.5,
          "velocity": 0.5039370078740157,
          "duration": 0.5
        },
        {
          "name": "B4",
          "midi": 71,
          "time": 203.25,
          "velocity": 0.5039370078740157,
          "duration": 0.5
        },
        {
          "name": "G#4",
          "midi": 68,
          "time": 203.25,
          "velocity": 0.5039370078740157,
          "duration": 0.5
        },
        {
          "name": "E4",
          "midi": 64,
          "time": 203.25,
          "velocity": 0.5039370078740157,
          "duration": 0.5
        },
        {
          "name": "D4",
          "midi": 62,
          "time": 203.25,
          "velocity": 0.5039370078740157,
          "duration": 0.5
        },
        {
          "name": "B3",
          "midi": 59,
          "time": 203.25,
          "velocity": 0.5039370078740157,
          "duration": 0.5
        },
        {
          "name": "G#3",
          "midi": 56,
          "time": 203.25,
          "velocity": 0.5039370078740157,
          "duration": 0.5
        },
        {
          "name": "D#3",
          "midi": 51,
          "time": 203.25,
          "velocity": 0.5039370078740157,
          "duration": 0.5
        },
        {
          "name": "D3",
          "midi": 50,
          "time": 203.25,
          "velocity": 0.5039370078740157,
          "duration": 0.5
        },
        {
          "name": "B2",
          "midi": 47,
          "time": 203.25,
          "velocity": 0.5039370078740157,
          "duration": 0.5
        },
        {
          "name": "G#2",
          "midi": 44,
          "time": 203.25,
          "velocity": 0.5039370078740157,
          "duration": 0.5
        },
        {
          "name": "E2",
          "midi": 40,
          "time": 203.25,
          "velocity": 0.5039370078740157,
          "duration": 0.5
        },
        {
          "name": "A4",
          "midi": 69,
          "time": 204,
          "velocity": 0.5039370078740157,
          "duration": 1
        },
        {
          "name": "E4",
          "midi": 64,
          "time": 204,
          "velocity": 0.5039370078740157,
          "duration": 1
        },
        {
          "name": "C4",
          "midi": 60,
          "time": 204,
          "velocity": 0.5039370078740157,
          "duration": 1
        },
        {
          "name": "A3",
          "midi": 57,
          "time": 204,
          "velocity": 0.5039370078740157,
          "duration": 1
        },
        {
          "name": "E3",
          "midi": 52,
          "time": 204,
          "velocity": 0.5039370078740157,
          "duration": 1
        },
        {
          "name": "A2",
          "midi": 45,
          "time": 204,
          "velocity": 0.5039370078740157,
          "duration": 1
        },
        {
          "name": "F3",
          "midi": 53,
          "time": 205.5,
          "velocity": 0.5039370078740157,
          "duration": 1
        },
        {
          "name": "D#3",
          "midi": 51,
          "time": 205.5,
          "velocity": 0.5039370078740157,
          "duration": 1
        },
        {
          "name": "G#2",
          "midi": 44,
          "time": 205.5,
          "velocity": 0.5039370078740157,
          "duration": 1
        },
        {
          "name": "F3",
          "midi": 53,
          "time": 206.5,
          "velocity": 0.5039370078740157,
          "duration": 1
        },
        {
          "name": "D3",
          "midi": 50,
          "time": 206.5,
          "velocity": 0.5039370078740157,
          "duration": 1
        },
        {
          "name": "G2",
          "midi": 43,
          "time": 206.5,
          "velocity": 0.5039370078740157,
          "duration": 1
        },
        {
          "name": "E3",
          "midi": 52,
          "time": 207.5,
          "velocity": 0.5039370078740157,
          "duration": 1
        },
        {
          "name": "C3",
          "midi": 48,
          "time": 207.5,
          "velocity": 0.5039370078740157,
          "duration": 1
        },
        {
          "name": "F4",
          "midi": 65,
          "time": 208.5,
          "velocity": 0.5039370078740157,
          "duration": 0.5
        },
        {
          "name": "D4",
          "midi": 62,
          "time": 208.5,
          "velocity": 0.5039370078740157,
          "duration": 0.5
        },
        {
          "name": "A3",
          "midi": 57,
          "time": 208.5,
          "velocity": 0.5039370078740157,
          "duration": 0.5
        },
        {
          "name": "D3",
          "midi": 50,
          "time": 208.5,
          "velocity": 0.5039370078740157,
          "duration": 0.5
        },
        {
          "name": "A2",
          "midi": 45,
          "time": 208.5,
          "velocity": 0.5039370078740157,
          "duration": 0.5
        },
        {
          "name": "D2",
          "midi": 38,
          "time": 208.5,
          "velocity": 0.5039370078740157,
          "duration": 0.5
        },
        {
          "name": "F4",
          "midi": 65,
          "time": 209.5,
          "velocity": 0.5039370078740157,
          "duration": 0.5
        },
        {
          "name": "A4",
          "midi": 69,
          "time": 209.5,
          "velocity": 0.5039370078740157,
          "duration": 0.5
        },
        {
          "name": "C4",
          "midi": 60,
          "time": 209.5,
          "velocity": 0.5039370078740157,
          "duration": 0.5
        },
        {
          "name": "A3",
          "midi": 57,
          "time": 209.5,
          "velocity": 0.5039370078740157,
          "duration": 0.5
        },
        {
          "name": "F3",
          "midi": 53,
          "time": 209.5,
          "velocity": 0.5039370078740157,
          "duration": 0.5
        },
        {
          "name": "C3",
          "midi": 48,
          "time": 209.5,
          "velocity": 0.5039370078740157,
          "duration": 0.5
        },
        {
          "name": "F2",
          "midi": 41,
          "time": 209.5,
          "velocity": 0.5039370078740157,
          "duration": 0.5
        },
        {
          "name": "G#4",
          "midi": 68,
          "time": 210.5,
          "velocity": 0.5039370078740157,
          "duration": 0.5
        },
        {
          "name": "D4",
          "midi": 62,
          "time": 210.5,
          "velocity": 0.5039370078740157,
          "duration": 0.5
        },
        {
          "name": "E4",
          "midi": 64,
          "time": 210.5,
          "velocity": 0.5039370078740157,
          "duration": 0.5
        },
        {
          "name": "B3",
          "midi": 59,
          "time": 210.5,
          "velocity": 0.5039370078740157,
          "duration": 0.5
        },
        {
          "name": "G#3",
          "midi": 56,
          "time": 210.5,
          "velocity": 0.5039370078740157,
          "duration": 0.5
        },
        {
          "name": "E3",
          "midi": 52,
          "time": 210.5,
          "velocity": 0.5039370078740157,
          "duration": 0.5
        },
        {
          "name": "D3",
          "midi": 50,
          "time": 210.5,
          "velocity": 0.5039370078740157,
          "duration": 0.5
        },
        {
          "name": "B2",
          "midi": 47,
          "time": 210.5,
          "velocity": 0.5039370078740157,
          "duration": 0.5
        },
        {
          "name": "E2",
          "midi": 40,
          "time": 210.5,
          "velocity": 0.5039370078740157,
          "duration": 0.5
        },
        {
          "name": "B4",
          "midi": 71,
          "time": 211.5,
          "velocity": 0.5039370078740157,
          "duration": 0.5
        },
        {
          "name": "G#4",
          "midi": 68,
          "time": 211.5,
          "velocity": 0.5039370078740157,
          "duration": 0.5
        },
        {
          "name": "E4",
          "midi": 64,
          "time": 211.5,
          "velocity": 0.5039370078740157,
          "duration": 0.5
        },
        {
          "name": "D4",
          "midi": 62,
          "time": 211.5,
          "velocity": 0.5039370078740157,
          "duration": 0.5
        },
        {
          "name": "B3",
          "midi": 59,
          "time": 211.5,
          "velocity": 0.5039370078740157,
          "duration": 0.5
        },
        {
          "name": "G#3",
          "midi": 56,
          "time": 211.5,
          "velocity": 0.5039370078740157,
          "duration": 0.5
        },
        {
          "name": "E3",
          "midi": 52,
          "time": 211.5,
          "velocity": 0.5039370078740157,
          "duration": 0.5
        },
        {
          "name": "D3",
          "midi": 50,
          "time": 211.5,
          "velocity": 0.5039370078740157,
          "duration": 0.5
        },
        {
          "name": "B2",
          "midi": 47,
          "time": 211.5,
          "velocity": 0.5039370078740157,
          "duration": 0.5
        },
        {
          "name": "E2",
          "midi": 40,
          "time": 211.5,
          "velocity": 0.5039370078740157,
          "duration": 0.5
        },
        {
          "name": "A2",
          "midi": 45,
          "time": 212,
          "velocity": 0.5039370078740157,
          "duration": 4.5
        },
        {
          "name": "E3",
          "midi": 52,
          "time": 212,
          "velocity": 0.5039370078740157,
          "duration": 4.5
        }
      ],
      "controlChanges": {
        "1": [
          {
            "number": 1,
            "time": 0.40833333333333327,
            "value": 0
          }
        ],
        "6": [
          {
            "number": 6,
            "time": 0.4104166666666666,
            "value": 0.5039370078740157
          },
          {
            "number": 6,
            "time": 0.41874999999999996,
            "value": 0.5039370078740157
          },
          {
            "number": 6,
            "time": 0.42499999999999993,
            "value": 0.09448818897637795
          }
        ],
        "7": [
          {
            "number": 7,
            "time": 0.4020833333333333,
            "value": 0.7874015748031497
          }
        ],
        "10": [
          {
            "number": 10,
            "time": 0.39999999999999997,
            "value": 0.5039370078740157
          }
        ],
        "11": [
          {
            "number": 11,
            "time": 0.40624999999999994,
            "value": 1
          }
        ],
        "32": [
          {
            "number": 32,
            "time": 0.39375,
            "value": 0
          }
        ],
        "38": [
          {
            "number": 38,
            "time": 0.4104166666666666,
            "value": 0
          }
        ],
        "91": [
          {
            "number": 91,
            "time": 0.4041666666666666,
            "value": 0
          }
        ],
        "100": [
          {
            "number": 100,
            "time": 0.4104166666666666,
            "value": 0.007874015748031496
          },
          {
            "number": 100,
            "time": 0.41874999999999996,
            "value": 0.015748031496062992
          },
          {
            "number": 100,
            "time": 0.42499999999999993,
            "value": 0
          },
          {
            "number": 100,
            "time": 0.43333333333333324,
            "value": 1
          }
        ],
        "101": [
          {
            "number": 101,
            "time": 0.4104166666666666,
            "value": 0
          },
          {
            "number": 101,
            "time": 0.41874999999999996,
            "value": 0
          },
          {
            "number": 101,
            "time": 0.42499999999999993,
            "value": 0
          },
          {
            "number": 101,
            "time": 0.43333333333333324,
            "value": 1
          }
        ],
        "121": [
          {
            "number": 121,
            "time": 0.39166666666666666,
            "value": 0
          }
        ]
      },
      "id": 5,
      "name": "",
      "instrumentNumber": 0,
      "instrument": "acoustic grand piano",
      "instrumentFamily": "piano",
      "channelNumber": 3,
      "isPercussion": false
    },
    {
      "startTime": 81.25,
      "duration": 216.5,
      "length": 257,
      "notes": [
        {
          "name": "D#3",
          "midi": 51,
          "time": 81.25,
          "velocity": 0.49606299212598426,
          "duration": 0.5
        },
        {
          "name": "D#4",
          "midi": 63,
          "time": 81.25,
          "velocity": 0.49606299212598426,
          "duration": 0.5
        },
        {
          "name": "B3",
          "midi": 59,
          "time": 81.25,
          "velocity": 0.49606299212598426,
          "duration": 0.5
        },
        {
          "name": "D#4",
          "midi": 63,
          "time": 82,
          "velocity": 0.49606299212598426,
          "duration": 0.5
        },
        {
          "name": "B3",
          "midi": 59,
          "time": 82,
          "velocity": 0.49606299212598426,
          "duration": 0.5
        },
        {
          "name": "D#3",
          "midi": 51,
          "time": 82,
          "velocity": 0.49606299212598426,
          "duration": 0.5
        },
        {
          "name": "D#4",
          "midi": 63,
          "time": 83,
          "velocity": 0.49606299212598426,
          "duration": 0.5
        },
        {
          "name": "C#4",
          "midi": 61,
          "time": 83,
          "velocity": 0.49606299212598426,
          "duration": 0.5
        },
        {
          "name": "A#3",
          "midi": 58,
          "time": 83,
          "velocity": 0.49606299212598426,
          "duration": 0.5
        },
        {
          "name": "G3",
          "midi": 55,
          "time": 83,
          "velocity": 0.49606299212598426,
          "duration": 0.5
        },
        {
          "name": "D#4",
          "midi": 63,
          "time": 84,
          "velocity": 0.49606299212598426,
          "duration": 0.5
        },
        {
          "name": "C#4",
          "midi": 61,
          "time": 84,
          "velocity": 0.49606299212598426,
          "duration": 0.5
        },
        {
          "name": "A#3",
          "midi": 58,
          "time": 84,
          "velocity": 0.49606299212598426,
          "duration": 0.5
        },
        {
          "name": "G3",
          "midi": 55,
          "time": 84,
          "velocity": 0.49606299212598426,
          "duration": 0.5
        },
        {
          "name": "C#4",
          "midi": 61,
          "time": 85.25,
          "velocity": 0.49606299212598426,
          "duration": 0.5
        },
        {
          "name": "A#3",
          "midi": 58,
          "time": 85.25,
          "velocity": 0.49606299212598426,
          "duration": 0.5
        },
        {
          "name": "F#3",
          "midi": 54,
          "time": 85.25,
          "velocity": 0.49606299212598426,
          "duration": 0.5
        },
        {
          "name": "A#3",
          "midi": 58,
          "time": 86,
          "velocity": 0.49606299212598426,
          "duration": 0.5
        },
        {
          "name": "F#3",
          "midi": 54,
          "time": 86,
          "velocity": 0.49606299212598426,
          "duration": 0.5
        },
        {
          "name": "C#4",
          "midi": 61,
          "time": 86,
          "velocity": 0.49606299212598426,
          "duration": 0.5
        },
        {
          "name": "C#4",
          "midi": 61,
          "time": 87,
          "velocity": 0.49606299212598426,
          "duration": 0.5
        },
        {
          "name": "G#3",
          "midi": 56,
          "time": 87,
          "velocity": 0.49606299212598426,
          "duration": 0.5
        },
        {
          "name": "F3",
          "midi": 53,
          "time": 87,
          "velocity": 0.49606299212598426,
          "duration": 0.5
        },
        {
          "name": "G#3",
          "midi": 56,
          "time": 88,
          "velocity": 0.49606299212598426,
          "duration": 0.5
        },
        {
          "name": "F3",
          "midi": 53,
          "time": 88,
          "velocity": 0.49606299212598426,
          "duration": 0.5
        },
        {
          "name": "C#4",
          "midi": 61,
          "time": 88,
          "velocity": 0.49606299212598426,
          "duration": 0.5
        },
        {
          "name": "E3",
          "midi": 52,
          "time": 89.25,
          "velocity": 0.49606299212598426,
          "duration": 0.5
        },
        {
          "name": "G#3",
          "midi": 56,
          "time": 89.25,
          "velocity": 0.49606299212598426,
          "duration": 0.5
        },
        {
          "name": "B3",
          "midi": 59,
          "time": 89.25,
          "velocity": 0.49606299212598426,
          "duration": 0.5
        },
        {
          "name": "B3",
          "midi": 59,
          "time": 90,
          "velocity": 0.49606299212598426,
          "duration": 0.5
        },
        {
          "name": "G#3",
          "midi": 56,
          "time": 90,
          "velocity": 0.49606299212598426,
          "duration": 0.5
        },
        {
          "name": "E3",
          "midi": 52,
          "time": 90,
          "velocity": 0.49606299212598426,
          "duration": 0.5
        },
        {
          "name": "G3",
          "midi": 55,
          "time": 91,
          "velocity": 0.49606299212598426,
          "duration": 0.5
        },
        {
          "name": "A#3",
          "midi": 58,
          "time": 91,
          "velocity": 0.49606299212598426,
          "duration": 0.5
        },
        {
          "name": "D#4",
          "midi": 63,
          "time": 91,
          "velocity": 0.49606299212598426,
          "duration": 0.5
        },
        {
          "name": "G3",
          "midi": 55,
          "time": 92,
          "velocity": 0.49606299212598426,
          "duration": 0.5
        },
        {
          "name": "A#3",
          "midi": 58,
          "time": 92,
          "velocity": 0.49606299212598426,
          "duration": 0.5
        },
        {
          "name": "D#4",
          "midi": 63,
          "time": 92,
          "velocity": 0.49606299212598426,
          "duration": 0.5
        },
        {
          "name": "F3",
          "midi": 53,
          "time": 93,
          "velocity": 0.49606299212598426,
          "duration": 0.5
        },
        {
          "name": "G#3",
          "midi": 56,
          "time": 93,
          "velocity": 0.49606299212598426,
          "duration": 0.5
        },
        {
          "name": "D4",
          "midi": 62,
          "time": 93,
          "velocity": 0.49606299212598426,
          "duration": 0.5
        },
        {
          "name": "F3",
          "midi": 53,
          "time": 94,
          "velocity": 0.49606299212598426,
          "duration": 0.5
        },
        {
          "name": "G#3",
          "midi": 56,
          "time": 94,
          "velocity": 0.49606299212598426,
          "duration": 0.5
        },
        {
          "name": "D4",
          "midi": 62,
          "time": 94,
          "velocity": 0.49606299212598426,
          "duration": 0.5
        },
        {
          "name": "D#3",
          "midi": 51,
          "time": 97.25,
          "velocity": 0.49606299212598426,
          "duration": 0.5
        },
        {
          "name": "D#4",
          "midi": 63,
          "time": 97.25,
          "velocity": 0.49606299212598426,
          "duration": 0.5
        },
        {
          "name": "B3",
          "midi": 59,
          "time": 97.25,
          "velocity": 0.49606299212598426,
          "duration": 0.5
        },
        {
          "name": "D#4",
          "midi": 63,
          "time": 98,
          "velocity": 0.49606299212598426,
          "duration": 0.5
        },
        {
          "name": "B3",
          "midi": 59,
          "time": 98,
          "velocity": 0.49606299212598426,
          "duration": 0.5
        },
        {
          "name": "D#3",
          "midi": 51,
          "time": 98,
          "velocity": 0.49606299212598426,
          "duration": 0.5
        },
        {
          "name": "D#4",
          "midi": 63,
          "time": 99,
          "velocity": 0.49606299212598426,
          "duration": 0.5
        },
        {
          "name": "C#4",
          "midi": 61,
          "time": 99,
          "velocity": 0.49606299212598426,
          "duration": 0.5
        },
        {
          "name": "A#3",
          "midi": 58,
          "time": 99,
          "velocity": 0.49606299212598426,
          "duration": 0.5
        },
        {
          "name": "G3",
          "midi": 55,
          "time": 99,
          "velocity": 0.49606299212598426,
          "duration": 0.5
        },
        {
          "name": "D#4",
          "midi": 63,
          "time": 100,
          "velocity": 0.49606299212598426,
          "duration": 0.5
        },
        {
          "name": "C#4",
          "midi": 61,
          "time": 100,
          "velocity": 0.49606299212598426,
          "duration": 0.5
        },
        {
          "name": "A#3",
          "midi": 58,
          "time": 100,
          "velocity": 0.49606299212598426,
          "duration": 0.5
        },
        {
          "name": "G3",
          "midi": 55,
          "time": 100,
          "velocity": 0.49606299212598426,
          "duration": 0.5
        },
        {
          "name": "C#4",
          "midi": 61,
          "time": 101.25,
          "velocity": 0.49606299212598426,
          "duration": 0.5
        },
        {
          "name": "A#3",
          "midi": 58,
          "time": 101.25,
          "velocity": 0.49606299212598426,
          "duration": 0.5
        },
        {
          "name": "F#3",
          "midi": 54,
          "time": 101.25,
          "velocity": 0.49606299212598426,
          "duration": 0.5
        },
        {
          "name": "A#3",
          "midi": 58,
          "time": 102,
          "velocity": 0.49606299212598426,
          "duration": 0.5
        },
        {
          "name": "F#3",
          "midi": 54,
          "time": 102,
          "velocity": 0.49606299212598426,
          "duration": 0.5
        },
        {
          "name": "C#4",
          "midi": 61,
          "time": 102,
          "velocity": 0.49606299212598426,
          "duration": 0.5
        },
        {
          "name": "C#4",
          "midi": 61,
          "time": 103,
          "velocity": 0.49606299212598426,
          "duration": 0.5
        },
        {
          "name": "G#3",
          "midi": 56,
          "time": 103,
          "velocity": 0.49606299212598426,
          "duration": 0.5
        },
        {
          "name": "F3",
          "midi": 53,
          "time": 103,
          "velocity": 0.49606299212598426,
          "duration": 0.5
        },
        {
          "name": "G#3",
          "midi": 56,
          "time": 104,
          "velocity": 0.49606299212598426,
          "duration": 0.5
        },
        {
          "name": "F3",
          "midi": 53,
          "time": 104,
          "velocity": 0.49606299212598426,
          "duration": 0.5
        },
        {
          "name": "C#4",
          "midi": 61,
          "time": 104,
          "velocity": 0.49606299212598426,
          "duration": 0.5
        },
        {
          "name": "E3",
          "midi": 52,
          "time": 105.25,
          "velocity": 0.49606299212598426,
          "duration": 0.5
        },
        {
          "name": "G#3",
          "midi": 56,
          "time": 105.25,
          "velocity": 0.49606299212598426,
          "duration": 0.5
        },
        {
          "name": "B3",
          "midi": 59,
          "time": 105.25,
          "velocity": 0.49606299212598426,
          "duration": 0.5
        },
        {
          "name": "B3",
          "midi": 59,
          "time": 106,
          "velocity": 0.49606299212598426,
          "duration": 0.5
        },
        {
          "name": "G#3",
          "midi": 56,
          "time": 106,
          "velocity": 0.49606299212598426,
          "duration": 0.5
        },
        {
          "name": "E3",
          "midi": 52,
          "time": 106,
          "velocity": 0.49606299212598426,
          "duration": 0.5
        },
        {
          "name": "G3",
          "midi": 55,
          "time": 107,
          "velocity": 0.49606299212598426,
          "duration": 0.5
        },
        {
          "name": "A#3",
          "midi": 58,
          "time": 107,
          "velocity": 0.49606299212598426,
          "duration": 0.5
        },
        {
          "name": "D#4",
          "midi": 63,
          "time": 107,
          "velocity": 0.49606299212598426,
          "duration": 0.5
        },
        {
          "name": "G3",
          "midi": 55,
          "time": 108,
          "velocity": 0.49606299212598426,
          "duration": 0.5
        },
        {
          "name": "A#3",
          "midi": 58,
          "time": 108,
          "velocity": 0.49606299212598426,
          "duration": 0.5
        },
        {
          "name": "D#4",
          "midi": 63,
          "time": 108,
          "velocity": 0.49606299212598426,
          "duration": 0.5
        },
        {
          "name": "F3",
          "midi": 53,
          "time": 109,
          "velocity": 0.49606299212598426,
          "duration": 0.5
        },
        {
          "name": "G#3",
          "midi": 56,
          "time": 109,
          "velocity": 0.49606299212598426,
          "duration": 0.5
        },
        {
          "name": "D4",
          "midi": 62,
          "time": 109,
          "velocity": 0.49606299212598426,
          "duration": 0.5
        },
        {
          "name": "F3",
          "midi": 53,
          "time": 110,
          "velocity": 0.49606299212598426,
          "duration": 0.5
        },
        {
          "name": "G#3",
          "midi": 56,
          "time": 110,
          "velocity": 0.49606299212598426,
          "duration": 0.5
        },
        {
          "name": "D4",
          "midi": 62,
          "time": 110,
          "velocity": 0.49606299212598426,
          "duration": 0.5
        },
        {
          "name": "G#4",
          "midi": 68,
          "time": 129,
          "velocity": 0.4330708661417323,
          "duration": 0.5
        },
        {
          "name": "E4",
          "midi": 64,
          "time": 129,
          "velocity": 0.4330708661417323,
          "duration": 0.5
        },
        {
          "name": "D#4",
          "midi": 63,
          "time": 129,
          "velocity": 0.4330708661417323,
          "duration": 0.5
        },
        {
          "name": "B3",
          "midi": 59,
          "time": 129,
          "velocity": 0.4330708661417323,
          "duration": 0.5
        },
        {
          "name": "G#4",
          "midi": 68,
          "time": 130,
          "velocity": 0.4330708661417323,
          "duration": 0.5
        },
        {
          "name": "E4",
          "midi": 64,
          "time": 130,
          "velocity": 0.4330708661417323,
          "duration": 0.5
        },
        {
          "name": "D#4",
          "midi": 63,
          "time": 130,
          "velocity": 0.4330708661417323,
          "duration": 0.5
        },
        {
          "name": "B3",
          "midi": 59,
          "time": 130,
          "velocity": 0.4330708661417323,
          "duration": 0.5
        },
        {
          "name": "G4",
          "midi": 67,
          "time": 131,
          "velocity": 0.4330708661417323,
          "duration": 0.5
        },
        {
          "name": "D#4",
          "midi": 63,
          "time": 131,
          "velocity": 0.4330708661417323,
          "duration": 0.5
        },
        {
          "name": "A#3",
          "midi": 58,
          "time": 131,
          "velocity": 0.4330708661417323,
          "duration": 0.5
        },
        {
          "name": "G4",
          "midi": 67,
          "time": 132,
          "velocity": 0.4330708661417323,
          "duration": 0.5
        },
        {
          "name": "D#4",
          "midi": 63,
          "time": 132,
          "velocity": 0.4330708661417323,
          "duration": 0.5
        },
        {
          "name": "A#3",
          "midi": 58,
          "time": 132,
          "velocity": 0.4330708661417323,
          "duration": 0.5
        },
        {
          "name": "G#4",
          "midi": 68,
          "time": 133,
          "velocity": 0.4330708661417323,
          "duration": 0.5
        },
        {
          "name": "B3",
          "midi": 59,
          "time": 133,
          "velocity": 0.4330708661417323,
          "duration": 0.5
        },
        {
          "name": "D#4",
          "midi": 63,
          "time": 133,
          "velocity": 0.4330708661417323,
          "duration": 0.5
        },
        {
          "name": "G#4",
          "midi": 68,
          "time": 134,
          "velocity": 0.4330708661417323,
          "duration": 0.5
        },
        {
          "name": "D#4",
          "midi": 63,
          "time": 134,
          "velocity": 0.4330708661417323,
          "duration": 0.5
        },
        {
          "name": "B3",
          "midi": 59,
          "time": 134,
          "velocity": 0.4330708661417323,
          "duration": 0.5
        },
        {
          "name": "B3",
          "midi": 59,
          "time": 135,
          "velocity": 0.4330708661417323,
          "duration": 0.5
        },
        {
          "name": "D#4",
          "midi": 63,
          "time": 135,
          "velocity": 0.4330708661417323,
          "duration": 0.5
        },
        {
          "name": "F#4",
          "midi": 66,
          "time": 135,
          "velocity": 0.4330708661417323,
          "duration": 0.5
        },
        {
          "name": "B3",
          "midi": 59,
          "time": 136,
          "velocity": 0.4330708661417323,
          "duration": 0.5
        },
        {
          "name": "D#4",
          "midi": 63,
          "time": 136,
          "velocity": 0.4330708661417323,
          "duration": 0.5
        },
        {
          "name": "F#4",
          "midi": 66,
          "time": 136,
          "velocity": 0.4330708661417323,
          "duration": 0.5
        },
        {
          "name": "B3",
          "midi": 59,
          "time": 137,
          "velocity": 0.4330708661417323,
          "duration": 0.5
        },
        {
          "name": "C#4",
          "midi": 61,
          "time": 137,
          "velocity": 0.4330708661417323,
          "duration": 0.5
        },
        {
          "name": "E4",
          "midi": 64,
          "time": 137,
          "velocity": 0.4330708661417323,
          "duration": 0.5
        },
        {
          "name": "G#4",
          "midi": 68,
          "time": 137,
          "velocity": 0.4330708661417323,
          "duration": 0.5
        },
        {
          "name": "G#4",
          "midi": 68,
          "time": 138,
          "velocity": 0.4330708661417323,
          "duration": 0.5
        },
        {
          "name": "E4",
          "midi": 64,
          "time": 138,
          "velocity": 0.4330708661417323,
          "duration": 0.5
        },
        {
          "name": "C#4",
          "midi": 61,
          "time": 138,
          "velocity": 0.4330708661417323,
          "duration": 0.5
        },
        {
          "name": "B3",
          "midi": 59,
          "time": 138,
          "velocity": 0.4330708661417323,
          "duration": 0.5
        },
        {
          "name": "B3",
          "midi": 59,
          "time": 139,
          "velocity": 0.4330708661417323,
          "duration": 0.5
        },
        {
          "name": "C#4",
          "midi": 61,
          "time": 139,
          "velocity": 0.4330708661417323,
          "duration": 0.5
        },
        {
          "name": "E4",
          "midi": 64,
          "time": 139,
          "velocity": 0.4330708661417323,
          "duration": 0.5
        },
        {
          "name": "G#4",
          "midi": 68,
          "time": 139,
          "velocity": 0.4330708661417323,
          "duration": 0.5
        },
        {
          "name": "G#4",
          "midi": 68,
          "time": 140,
          "velocity": 0.4330708661417323,
          "duration": 0.5
        },
        {
          "name": "E4",
          "midi": 64,
          "time": 140,
          "velocity": 0.4330708661417323,
          "duration": 0.5
        },
        {
          "name": "C#4",
          "midi": 61,
          "time": 140,
          "velocity": 0.4330708661417323,
          "duration": 0.5
        },
        {
          "name": "B3",
          "midi": 59,
          "time": 140,
          "velocity": 0.4330708661417323,
          "duration": 0.5
        },
        {
          "name": "B3",
          "midi": 59,
          "time": 141,
          "velocity": 0.4330708661417323,
          "duration": 0.5
        },
        {
          "name": "C#4",
          "midi": 61,
          "time": 141,
          "velocity": 0.4330708661417323,
          "duration": 0.5
        },
        {
          "name": "E4",
          "midi": 64,
          "time": 141,
          "velocity": 0.4330708661417323,
          "duration": 0.5
        },
        {
          "name": "G#4",
          "midi": 68,
          "time": 141,
          "velocity": 0.4330708661417323,
          "duration": 0.5
        },
        {
          "name": "B3",
          "midi": 59,
          "time": 142,
          "velocity": 0.4330708661417323,
          "duration": 0.5
        },
        {
          "name": "C#4",
          "midi": 61,
          "time": 142,
          "velocity": 0.4330708661417323,
          "duration": 0.5
        },
        {
          "name": "E4",
          "midi": 64,
          "time": 142,
          "velocity": 0.4330708661417323,
          "duration": 0.5
        },
        {
          "name": "G#4",
          "midi": 68,
          "time": 142,
          "velocity": 0.4330708661417323,
          "duration": 0.5
        },
        {
          "name": "B3",
          "midi": 59,
          "time": 143,
          "velocity": 0.4330708661417323,
          "duration": 0.5
        },
        {
          "name": "C#4",
          "midi": 61,
          "time": 143,
          "velocity": 0.4330708661417323,
          "duration": 0.5
        },
        {
          "name": "E4",
          "midi": 64,
          "time": 143,
          "velocity": 0.4330708661417323,
          "duration": 0.5
        },
        {
          "name": "G#4",
          "midi": 68,
          "time": 143,
          "velocity": 0.4330708661417323,
          "duration": 0.5
        },
        {
          "name": "G#4",
          "midi": 68,
          "time": 144,
          "velocity": 0.4330708661417323,
          "duration": 0.5
        },
        {
          "name": "E4",
          "midi": 64,
          "time": 144,
          "velocity": 0.4330708661417323,
          "duration": 0.5
        },
        {
          "name": "C#4",
          "midi": 61,
          "time": 144,
          "velocity": 0.4330708661417323,
          "duration": 0.5
        },
        {
          "name": "B3",
          "midi": 59,
          "time": 144,
          "velocity": 0.4330708661417323,
          "duration": 0.5
        },
        {
          "name": "A5",
          "midi": 81,
          "time": 153,
          "velocity": 0.6299212598425197,
          "duration": 0.5
        },
        {
          "name": "E5",
          "midi": 76,
          "time": 153.5,
          "velocity": 0.6299212598425197,
          "duration": 0.5
        },
        {
          "name": "G5",
          "midi": 79,
          "time": 154,
          "velocity": 0.6299212598425197,
          "duration": 0.5
        },
        {
          "name": "D5",
          "midi": 74,
          "time": 154.5,
          "velocity": 0.6299212598425197,
          "duration": 0.75
        },
        {
          "name": "E5",
          "midi": 76,
          "time": 155.25,
          "velocity": 0.6299212598425197,
          "duration": 0.5
        },
        {
          "name": "A4",
          "midi": 69,
          "time": 156,
          "velocity": 0.6299212598425197,
          "duration": 0.5
        },
        {
          "name": "G4",
          "midi": 67,
          "time": 157,
          "velocity": 0.6299212598425197,
          "duration": 0.25
        },
        {
          "name": "A4",
          "midi": 69,
          "time": 157.25,
          "velocity": 0.6299212598425197,
          "duration": 0.25
        },
        {
          "name": "E5",
          "midi": 76,
          "time": 157.5,
          "velocity": 0.6299212598425197,
          "duration": 0.25
        },
        {
          "name": "G4",
          "midi": 67,
          "time": 158,
          "velocity": 0.6299212598425197,
          "duration": 0.25
        },
        {
          "name": "A4",
          "midi": 69,
          "time": 158.25,
          "velocity": 0.6299212598425197,
          "duration": 0.25
        },
        {
          "name": "E5",
          "midi": 76,
          "time": 158.5,
          "velocity": 0.6299212598425197,
          "duration": 0.25
        },
        {
          "name": "D5",
          "midi": 74,
          "time": 159,
          "velocity": 0.6299212598425197,
          "duration": 0.5
        },
        {
          "name": "C5",
          "midi": 72,
          "time": 159.5,
          "velocity": 0.6299212598425197,
          "duration": 0.5
        },
        {
          "name": "B4",
          "midi": 71,
          "time": 160,
          "velocity": 0.6299212598425197,
          "duration": 0.5
        },
        {
          "name": "A4",
          "midi": 69,
          "time": 160.5,
          "velocity": 0.6299212598425197,
          "duration": 0.5
        },
        {
          "name": "E5",
          "midi": 76,
          "time": 161,
          "velocity": 0.6299212598425197,
          "duration": 0.5
        },
        {
          "name": "D5",
          "midi": 74,
          "time": 161.5,
          "velocity": 0.6299212598425197,
          "duration": 0.5
        },
        {
          "name": "E5",
          "midi": 76,
          "time": 162,
          "velocity": 0.6299212598425197,
          "duration": 0.5
        },
        {
          "name": "B4",
          "midi": 71,
          "time": 162.5,
          "velocity": 0.6299212598425197,
          "duration": 0.5
        },
        {
          "name": "G4",
          "midi": 67,
          "time": 163.25,
          "velocity": 0.6299212598425197,
          "duration": 0.5
        },
        {
          "name": "A4",
          "midi": 69,
          "time": 164,
          "velocity": 0.6299212598425197,
          "duration": 0.5
        },
        {
          "name": "D4",
          "midi": 62,
          "time": 165,
          "velocity": 0.6299212598425197,
          "duration": 0.5
        },
        {
          "name": "E4",
          "midi": 64,
          "time": 165.5,
          "velocity": 0.6299212598425197,
          "duration": 0.5
        },
        {
          "name": "G4",
          "midi": 67,
          "time": 166,
          "velocity": 0.6299212598425197,
          "duration": 0.5
        },
        {
          "name": "A5",
          "midi": 81,
          "time": 169,
          "velocity": 0.6299212598425197,
          "duration": 0.5
        },
        {
          "name": "E5",
          "midi": 76,
          "time": 169.5,
          "velocity": 0.6299212598425197,
          "duration": 0.5
        },
        {
          "name": "G5",
          "midi": 79,
          "time": 170,
          "velocity": 0.6299212598425197,
          "duration": 0.5
        },
        {
          "name": "D5",
          "midi": 74,
          "time": 170.5,
          "velocity": 0.6299212598425197,
          "duration": 0.75
        },
        {
          "name": "E5",
          "midi": 76,
          "time": 171.25,
          "velocity": 0.6299212598425197,
          "duration": 0.5
        },
        {
          "name": "A4",
          "midi": 69,
          "time": 172,
          "velocity": 0.6299212598425197,
          "duration": 0.5
        },
        {
          "name": "G4",
          "midi": 67,
          "time": 173,
          "velocity": 0.6299212598425197,
          "duration": 0.25
        },
        {
          "name": "A4",
          "midi": 69,
          "time": 173.25,
          "velocity": 0.6299212598425197,
          "duration": 0.25
        },
        {
          "name": "E5",
          "midi": 76,
          "time": 173.5,
          "velocity": 0.6299212598425197,
          "duration": 0.25
        },
        {
          "name": "G4",
          "midi": 67,
          "time": 174,
          "velocity": 0.6299212598425197,
          "duration": 0.25
        },
        {
          "name": "A4",
          "midi": 69,
          "time": 174.25,
          "velocity": 0.6299212598425197,
          "duration": 0.25
        },
        {
          "name": "E5",
          "midi": 76,
          "time": 174.5,
          "velocity": 0.6299212598425197,
          "duration": 0.25
        },
        {
          "name": "D5",
          "midi": 74,
          "time": 175,
          "velocity": 0.6299212598425197,
          "duration": 0.5
        },
        {
          "name": "C5",
          "midi": 72,
          "time": 175.5,
          "velocity": 0.6299212598425197,
          "duration": 0.5
        },
        {
          "name": "B4",
          "midi": 71,
          "time": 176,
          "velocity": 0.6299212598425197,
          "duration": 0.5
        },
        {
          "name": "A4",
          "midi": 69,
          "time": 176.5,
          "velocity": 0.6299212598425197,
          "duration": 0.5
        },
        {
          "name": "E5",
          "midi": 76,
          "time": 177,
          "velocity": 0.6299212598425197,
          "duration": 0.5
        },
        {
          "name": "D5",
          "midi": 74,
          "time": 177.5,
          "velocity": 0.6299212598425197,
          "duration": 0.5
        },
        {
          "name": "E5",
          "midi": 76,
          "time": 178,
          "velocity": 0.6299212598425197,
          "duration": 0.5
        },
        {
          "name": "B4",
          "midi": 71,
          "time": 178.5,
          "velocity": 0.6299212598425197,
          "duration": 0.5
        },
        {
          "name": "G4",
          "midi": 67,
          "time": 179.25,
          "velocity": 0.6299212598425197,
          "duration": 0.5
        },
        {
          "name": "A4",
          "midi": 69,
          "time": 180,
          "velocity": 0.6299212598425197,
          "duration": 0.5
        },
        {
          "name": "D4",
          "midi": 62,
          "time": 181,
          "velocity": 0.6299212598425197,
          "duration": 0.5
        },
        {
          "name": "E4",
          "midi": 64,
          "time": 181.5,
          "velocity": 0.6299212598425197,
          "duration": 0.5
        },
        {
          "name": "G4",
          "midi": 67,
          "time": 182,
          "velocity": 0.6299212598425197,
          "duration": 0.5
        },
        {
          "name": "A4",
          "midi": 69,
          "time": 182.5,
          "velocity": 0.6299212598425197,
          "duration": 0.5
        },
        {
          "name": "C5",
          "midi": 72,
          "time": 183,
          "velocity": 0.6299212598425197,
          "duration": 0.5
        },
        {
          "name": "D5",
          "midi": 74,
          "time": 183.5,
          "velocity": 0.6299212598425197,
          "duration": 0.5
        },
        {
          "name": "E5",
          "midi": 76,
          "time": 184,
          "velocity": 0.6299212598425197,
          "duration": 0.5
        },
        {
          "name": "A4",
          "midi": 69,
          "time": 184.5,
          "velocity": 0.6299212598425197,
          "duration": 0.5
        },
        {
          "name": "A5",
          "midi": 81,
          "time": 185,
          "velocity": 0.6299212598425197,
          "duration": 0.5
        },
        {
          "name": "E5",
          "midi": 76,
          "time": 185.5,
          "velocity": 0.6299212598425197,
          "duration": 0.5
        },
        {
          "name": "G5",
          "midi": 79,
          "time": 186,
          "velocity": 0.6299212598425197,
          "duration": 0.5
        },
        {
          "name": "D5",
          "midi": 74,
          "time": 186.5,
          "velocity": 0.6299212598425197,
          "duration": 0.5
        },
        {
          "name": "E5",
          "midi": 76,
          "time": 187.25,
          "velocity": 0.6299212598425197,
          "duration": 0.5
        },
        {
          "name": "A4",
          "midi": 69,
          "time": 188,
          "velocity": 0.6299212598425197,
          "duration": 0.5
        },
        {
          "name": "G4",
          "midi": 67,
          "time": 189,
          "velocity": 0.6299212598425197,
          "duration": 0.25
        },
        {
          "name": "A4",
          "midi": 69,
          "time": 189.25,
          "velocity": 0.6299212598425197,
          "duration": 0.25
        },
        {
          "name": "E5",
          "midi": 76,
          "time": 189.5,
          "velocity": 0.6299212598425197,
          "duration": 0.25
        },
        {
          "name": "G4",
          "midi": 67,
          "time": 190,
          "velocity": 0.6299212598425197,
          "duration": 0.25
        },
        {
          "name": "A4",
          "midi": 69,
          "time": 190.25,
          "velocity": 0.6299212598425197,
          "duration": 0.25
        },
        {
          "name": "E5",
          "midi": 76,
          "time": 190.5,
          "velocity": 0.6299212598425197,
          "duration": 0.25
        },
        {
          "name": "D5",
          "midi": 74,
          "time": 191,
          "velocity": 0.6299212598425197,
          "duration": 0.5
        },
        {
          "name": "C5",
          "midi": 72,
          "time": 191.5,
          "velocity": 0.6299212598425197,
          "duration": 0.5
        },
        {
          "name": "B4",
          "midi": 71,
          "time": 192,
          "velocity": 0.6299212598425197,
          "duration": 0.5
        },
        {
          "name": "A4",
          "midi": 69,
          "time": 192.5,
          "velocity": 0.6299212598425197,
          "duration": 0.5
        },
        {
          "name": "E5",
          "midi": 76,
          "time": 193,
          "velocity": 0.6299212598425197,
          "duration": 0.5
        },
        {
          "name": "D5",
          "midi": 74,
          "time": 193.5,
          "velocity": 0.6299212598425197,
          "duration": 0.5
        },
        {
          "name": "E5",
          "midi": 76,
          "time": 194,
          "velocity": 0.6299212598425197,
          "duration": 0.5
        },
        {
          "name": "B4",
          "midi": 71,
          "time": 194.5,
          "velocity": 0.6299212598425197,
          "duration": 0.5
        },
        {
          "name": "G4",
          "midi": 67,
          "time": 195.25,
          "velocity": 0.6299212598425197,
          "duration": 0.5
        },
        {
          "name": "A4",
          "midi": 69,
          "time": 196,
          "velocity": 0.6299212598425197,
          "duration": 0.5
        },
        {
          "name": "D5",
          "midi": 74,
          "time": 197,
          "velocity": 0.6299212598425197,
          "duration": 0.5
        },
        {
          "name": "E5",
          "midi": 76,
          "time": 197.5,
          "velocity": 0.6299212598425197,
          "duration": 0.5
        },
        {
          "name": "G5",
          "midi": 79,
          "time": 198,
          "velocity": 0.6299212598425197,
          "duration": 0.5
        },
        {
          "name": "A5",
          "midi": 81,
          "time": 198.5,
          "velocity": 0.6299212598425197,
          "duration": 0.5
        },
        {
          "name": "G5",
          "midi": 79,
          "time": 199,
          "velocity": 0.6299212598425197,
          "duration": 0.5
        },
        {
          "name": "C6",
          "midi": 84,
          "time": 199.5,
          "velocity": 0.6299212598425197,
          "duration": 0.5
        },
        {
          "name": "D6",
          "midi": 86,
          "time": 200,
          "velocity": 0.6299212598425197,
          "duration": 0.5
        },
        {
          "name": "A4",
          "midi": 69,
          "time": 200.5,
          "velocity": 0.6299212598425197,
          "duration": 0.5
        },
        {
          "name": "A5",
          "midi": 81,
          "time": 201,
          "velocity": 0.6299212598425197,
          "duration": 0.5
        },
        {
          "name": "E5",
          "midi": 76,
          "time": 201.5,
          "velocity": 0.6299212598425197,
          "duration": 0.5
        },
        {
          "name": "G5",
          "midi": 79,
          "time": 202,
          "velocity": 0.6299212598425197,
          "duration": 0.5
        },
        {
          "name": "D5",
          "midi": 74,
          "time": 202.5,
          "velocity": 0.6299212598425197,
          "duration": 0.5
        },
        {
          "name": "E5",
          "midi": 76,
          "time": 203.25,
          "velocity": 0.6299212598425197,
          "duration": 0.5
        },
        {
          "name": "A4",
          "midi": 69,
          "time": 204,
          "velocity": 0.6299212598425197,
          "duration": 0.5
        },
        {
          "name": "G4",
          "midi": 67,
          "time": 205,
          "velocity": 0.6299212598425197,
          "duration": 0.25
        },
        {
          "name": "A4",
          "midi": 69,
          "time": 205.25,
          "velocity": 0.6299212598425197,
          "duration": 0.25
        },
        {
          "name": "E5",
          "midi": 76,
          "time": 205.5,
          "velocity": 0.6299212598425197,
          "duration": 0.25
        },
        {
          "name": "G4",
          "midi": 67,
          "time": 206,
          "velocity": 0.6299212598425197,
          "duration": 0.25
        },
        {
          "name": "A4",
          "midi": 69,
          "time": 206.25,
          "velocity": 0.6299212598425197,
          "duration": 0.25
        },
        {
          "name": "E5",
          "midi": 76,
          "time": 206.5,
          "velocity": 0.6299212598425197,
          "duration": 0.25
        },
        {
          "name": "D5",
          "midi": 74,
          "time": 207,
          "velocity": 0.6299212598425197,
          "duration": 0.5
        },
        {
          "name": "C5",
          "midi": 72,
          "time": 207.5,
          "velocity": 0.6299212598425197,
          "duration": 0.5
        },
        {
          "name": "B4",
          "midi": 71,
          "time": 208,
          "velocity": 0.6299212598425197,
          "duration": 0.5
        },
        {
          "name": "A4",
          "midi": 69,
          "time": 208.5,
          "velocity": 0.6299212598425197,
          "duration": 0.5
        },
        {
          "name": "E5",
          "midi": 76,
          "time": 209,
          "velocity": 0.6299212598425197,
          "duration": 0.5
        },
        {
          "name": "D5",
          "midi": 74,
          "time": 209.5,
          "velocity": 0.6299212598425197,
          "duration": 0.5
        },
        {
          "name": "E5",
          "midi": 76,
          "time": 210,
          "velocity": 0.6299212598425197,
          "duration": 0.5
        },
        {
          "name": "B4",
          "midi": 71,
          "time": 210.5,
          "velocity": 0.6299212598425197,
          "duration": 0.5
        },
        {
          "name": "G4",
          "midi": 67,
          "time": 211,
          "velocity": 0.6299212598425197,
          "duration": 0.5
        },
        {
          "name": "G#4",
          "midi": 68,
          "time": 211.5,
          "velocity": 0.6299212598425197,
          "duration": 0.5
        },
        {
          "name": "A4",
          "midi": 69,
          "time": 212,
          "velocity": 0.6299212598425197,
          "duration": 0.5
        },
        {
          "name": "E5",
          "midi": 76,
          "time": 213,
          "velocity": 0.6299212598425197,
          "duration": 0.5
        },
        {
          "name": "D5",
          "midi": 74,
          "time": 214,
          "velocity": 0.6299212598425197,
          "duration": 0.5
        },
        {
          "name": "C#5",
          "midi": 73,
          "time": 214.5,
          "velocity": 0.6299212598425197,
          "duration": 2
        }
      ],
      "controlChanges": {
        "1": [
          {
            "number": 1,
            "time": 0.40833333333333327,
            "value": 0
          }
        ],
        "6": [
          {
            "number": 6,
            "time": 0.4104166666666666,
            "value": 0.5039370078740157
          },
          {
            "number": 6,
            "time": 0.41874999999999996,
            "value": 0.5039370078740157
          },
          {
            "number": 6,
            "time": 0.42499999999999993,
            "value": 0.09448818897637795
          }
        ],
        "7": [
          {
            "number": 7,
            "time": 0.4020833333333333,
            "value": 0.7874015748031497
          }
        ],
        "10": [
          {
            "number": 10,
            "time": 0.39999999999999997,
            "value": 0.5039370078740157
          }
        ],
        "11": [
          {
            "number": 11,
            "time": 0.40624999999999994,
            "value": 1
          }
        ],
        "32": [
          {
            "number": 32,
            "time": 0.39375,
            "value": 0
          }
        ],
        "38": [
          {
            "number": 38,
            "time": 0.4104166666666666,
            "value": 0
          }
        ],
        "91": [
          {
            "number": 91,
            "time": 0.4041666666666666,
            "value": 0
          }
        ],
        "100": [
          {
            "number": 100,
            "time": 0.4104166666666666,
            "value": 0.007874015748031496
          },
          {
            "number": 100,
            "time": 0.41874999999999996,
            "value": 0.015748031496062992
          },
          {
            "number": 100,
            "time": 0.42499999999999993,
            "value": 0
          },
          {
            "number": 100,
            "time": 0.43333333333333324,
            "value": 1
          }
        ],
        "101": [
          {
            "number": 101,
            "time": 0.4104166666666666,
            "value": 0
          },
          {
            "number": 101,
            "time": 0.41874999999999996,
            "value": 0
          },
          {
            "number": 101,
            "time": 0.42499999999999993,
            "value": 0
          },
          {
            "number": 101,
            "time": 0.43333333333333324,
            "value": 1
          }
        ],
        "121": [
          {
            "number": 121,
            "time": 0.39166666666666666,
            "value": 0
          }
        ]
      },
      "id": 6,
      "name": "",
      "instrumentNumber": 0,
      "instrument": "acoustic grand piano",
      "instrumentFamily": "piano",
      "channelNumber": 4,
      "isPercussion": false
    },
    {
      "startTime": 97,
      "duration": 150.75,
      "length": 131,
      "notes": [
        {
          "name": "G#4",
          "midi": 68,
          "time": 97,
          "velocity": 0.4094488188976378,
          "duration": 0.5
        },
        {
          "name": "D#4",
          "midi": 63,
          "time": 97,
          "velocity": 0.4094488188976378,
          "duration": 0.5
        },
        {
          "name": "B3",
          "midi": 59,
          "time": 97,
          "velocity": 0.4094488188976378,
          "duration": 0.5
        },
        {
          "name": "G#3",
          "midi": 56,
          "time": 97,
          "velocity": 0.4094488188976378,
          "duration": 0.5
        },
        {
          "name": "D#3",
          "midi": 51,
          "time": 97,
          "velocity": 0.4094488188976378,
          "duration": 0.5
        },
        {
          "name": "G#2",
          "midi": 44,
          "time": 97,
          "velocity": 0.4094488188976378,
          "duration": 0.5
        },
        {
          "name": "G#4",
          "midi": 68,
          "time": 98,
          "velocity": 0.4094488188976378,
          "duration": 0.5
        },
        {
          "name": "D#4",
          "midi": 63,
          "time": 98,
          "velocity": 0.4094488188976378,
          "duration": 0.5
        },
        {
          "name": "B3",
          "midi": 59,
          "time": 98,
          "velocity": 0.4094488188976378,
          "duration": 0.5
        },
        {
          "name": "G#3",
          "midi": 56,
          "time": 98,
          "velocity": 0.4094488188976378,
          "duration": 0.5
        },
        {
          "name": "D#3",
          "midi": 51,
          "time": 98,
          "velocity": 0.4094488188976378,
          "duration": 0.5
        },
        {
          "name": "G#2",
          "midi": 44,
          "time": 98,
          "velocity": 0.4094488188976378,
          "duration": 0.5
        },
        {
          "name": "G4",
          "midi": 67,
          "time": 99,
          "velocity": 0.4094488188976378,
          "duration": 0.5
        },
        {
          "name": "G2",
          "midi": 43,
          "time": 99,
          "velocity": 0.4094488188976378,
          "duration": 0.5
        },
        {
          "name": "D#4",
          "midi": 63,
          "time": 99,
          "velocity": 0.4094488188976378,
          "duration": 0.5
        },
        {
          "name": "C#4",
          "midi": 61,
          "time": 99,
          "velocity": 0.4094488188976378,
          "duration": 0.5
        },
        {
          "name": "A#3",
          "midi": 58,
          "time": 99,
          "velocity": 0.4094488188976378,
          "duration": 0.5
        },
        {
          "name": "G3",
          "midi": 55,
          "time": 99,
          "velocity": 0.4094488188976378,
          "duration": 0.5
        },
        {
          "name": "D#3",
          "midi": 51,
          "time": 99,
          "velocity": 0.4094488188976378,
          "duration": 0.5
        },
        {
          "name": "G4",
          "midi": 67,
          "time": 100,
          "velocity": 0.4094488188976378,
          "duration": 0.5
        },
        {
          "name": "G2",
          "midi": 43,
          "time": 100,
          "velocity": 0.4094488188976378,
          "duration": 0.5
        },
        {
          "name": "D#4",
          "midi": 63,
          "time": 100,
          "velocity": 0.4094488188976378,
          "duration": 0.5
        },
        {
          "name": "C#4",
          "midi": 61,
          "time": 100,
          "velocity": 0.4094488188976378,
          "duration": 0.5
        },
        {
          "name": "A#3",
          "midi": 58,
          "time": 100,
          "velocity": 0.4094488188976378,
          "duration": 0.5
        },
        {
          "name": "G3",
          "midi": 55,
          "time": 100,
          "velocity": 0.4094488188976378,
          "duration": 0.5
        },
        {
          "name": "D#3",
          "midi": 51,
          "time": 100,
          "velocity": 0.4094488188976378,
          "duration": 0.5
        },
        {
          "name": "F#4",
          "midi": 66,
          "time": 101,
          "velocity": 0.4094488188976378,
          "duration": 0.5
        },
        {
          "name": "C#4",
          "midi": 61,
          "time": 101,
          "velocity": 0.4094488188976378,
          "duration": 0.5
        },
        {
          "name": "A#3",
          "midi": 58,
          "time": 101,
          "velocity": 0.4094488188976378,
          "duration": 0.5
        },
        {
          "name": "F#3",
          "midi": 54,
          "time": 101,
          "velocity": 0.4094488188976378,
          "duration": 0.5
        },
        {
          "name": "C#3",
          "midi": 49,
          "time": 101,
          "velocity": 0.4094488188976378,
          "duration": 0.5
        },
        {
          "name": "F#2",
          "midi": 42,
          "time": 101,
          "velocity": 0.4094488188976378,
          "duration": 0.5
        },
        {
          "name": "F#4",
          "midi": 66,
          "time": 102,
          "velocity": 0.4094488188976378,
          "duration": 0.5
        },
        {
          "name": "C#4",
          "midi": 61,
          "time": 102,
          "velocity": 0.4094488188976378,
          "duration": 0.5
        },
        {
          "name": "A#3",
          "midi": 58,
          "time": 102,
          "velocity": 0.4094488188976378,
          "duration": 0.5
        },
        {
          "name": "F#3",
          "midi": 54,
          "time": 102,
          "velocity": 0.4094488188976378,
          "duration": 0.5
        },
        {
          "name": "C#3",
          "midi": 49,
          "time": 102,
          "velocity": 0.4094488188976378,
          "duration": 0.5
        },
        {
          "name": "F#2",
          "midi": 42,
          "time": 102,
          "velocity": 0.4094488188976378,
          "duration": 0.5
        },
        {
          "name": "F4",
          "midi": 65,
          "time": 103,
          "velocity": 0.4094488188976378,
          "duration": 0.5
        },
        {
          "name": "C#4",
          "midi": 61,
          "time": 103,
          "velocity": 0.4094488188976378,
          "duration": 0.5
        },
        {
          "name": "G#3",
          "midi": 56,
          "time": 103,
          "velocity": 0.4094488188976378,
          "duration": 0.5
        },
        {
          "name": "F3",
          "midi": 53,
          "time": 103,
          "velocity": 0.4094488188976378,
          "duration": 0.5
        },
        {
          "name": "C#3",
          "midi": 49,
          "time": 103,
          "velocity": 0.4094488188976378,
          "duration": 0.5
        },
        {
          "name": "F2",
          "midi": 41,
          "time": 103,
          "velocity": 0.4094488188976378,
          "duration": 0.5
        },
        {
          "name": "F4",
          "midi": 65,
          "time": 104,
          "velocity": 0.4094488188976378,
          "duration": 0.5
        },
        {
          "name": "F2",
          "midi": 41,
          "time": 104,
          "velocity": 0.4094488188976378,
          "duration": 0.5
        },
        {
          "name": "C#3",
          "midi": 49,
          "time": 104,
          "velocity": 0.4094488188976378,
          "duration": 0.5
        },
        {
          "name": "F3",
          "midi": 53,
          "time": 104,
          "velocity": 0.4094488188976378,
          "duration": 0.5
        },
        {
          "name": "G#3",
          "midi": 56,
          "time": 104,
          "velocity": 0.4094488188976378,
          "duration": 0.5
        },
        {
          "name": "C#4",
          "midi": 61,
          "time": 104,
          "velocity": 0.4094488188976378,
          "duration": 0.5
        },
        {
          "name": "E4",
          "midi": 64,
          "time": 105,
          "velocity": 0.41732283464566927,
          "duration": 0.5
        },
        {
          "name": "B3",
          "midi": 59,
          "time": 105,
          "velocity": 0.41732283464566927,
          "duration": 0.5
        },
        {
          "name": "G#3",
          "midi": 56,
          "time": 105,
          "velocity": 0.41732283464566927,
          "duration": 0.5
        },
        {
          "name": "E3",
          "midi": 52,
          "time": 105,
          "velocity": 0.41732283464566927,
          "duration": 0.5
        },
        {
          "name": "B2",
          "midi": 47,
          "time": 105,
          "velocity": 0.41732283464566927,
          "duration": 0.5
        },
        {
          "name": "E2",
          "midi": 40,
          "time": 105,
          "velocity": 0.41732283464566927,
          "duration": 0.5
        },
        {
          "name": "E4",
          "midi": 64,
          "time": 106,
          "velocity": 0.41732283464566927,
          "duration": 0.5
        },
        {
          "name": "B3",
          "midi": 59,
          "time": 106,
          "velocity": 0.41732283464566927,
          "duration": 0.5
        },
        {
          "name": "G#3",
          "midi": 56,
          "time": 106,
          "velocity": 0.41732283464566927,
          "duration": 0.5
        },
        {
          "name": "E3",
          "midi": 52,
          "time": 106,
          "velocity": 0.41732283464566927,
          "duration": 0.5
        },
        {
          "name": "B2",
          "midi": 47,
          "time": 106,
          "velocity": 0.41732283464566927,
          "duration": 0.5
        },
        {
          "name": "E2",
          "midi": 40,
          "time": 106,
          "velocity": 0.41732283464566927,
          "duration": 0.5
        },
        {
          "name": "D#4",
          "midi": 63,
          "time": 107,
          "velocity": 0.41732283464566927,
          "duration": 0.5
        },
        {
          "name": "A#3",
          "midi": 58,
          "time": 107,
          "velocity": 0.41732283464566927,
          "duration": 0.5
        },
        {
          "name": "G3",
          "midi": 55,
          "time": 107,
          "velocity": 0.41732283464566927,
          "duration": 0.5
        },
        {
          "name": "D#3",
          "midi": 51,
          "time": 107,
          "velocity": 0.41732283464566927,
          "duration": 0.5
        },
        {
          "name": "A#2",
          "midi": 46,
          "time": 107,
          "velocity": 0.41732283464566927,
          "duration": 0.5
        },
        {
          "name": "D#2",
          "midi": 39,
          "time": 107,
          "velocity": 0.41732283464566927,
          "duration": 0.5
        },
        {
          "name": "D#4",
          "midi": 63,
          "time": 108,
          "velocity": 0.41732283464566927,
          "duration": 0.5
        },
        {
          "name": "A#3",
          "midi": 58,
          "time": 108,
          "velocity": 0.41732283464566927,
          "duration": 0.5
        },
        {
          "name": "G3",
          "midi": 55,
          "time": 108,
          "velocity": 0.41732283464566927,
          "duration": 0.5
        },
        {
          "name": "D#3",
          "midi": 51,
          "time": 108,
          "velocity": 0.41732283464566927,
          "duration": 0.5
        },
        {
          "name": "A#2",
          "midi": 46,
          "time": 108,
          "velocity": 0.41732283464566927,
          "duration": 0.5
        },
        {
          "name": "D#2",
          "midi": 39,
          "time": 108,
          "velocity": 0.41732283464566927,
          "duration": 0.5
        },
        {
          "name": "A#4",
          "midi": 70,
          "time": 109,
          "velocity": 0.41732283464566927,
          "duration": 0.5
        },
        {
          "name": "F4",
          "midi": 65,
          "time": 109,
          "velocity": 0.41732283464566927,
          "duration": 0.5
        },
        {
          "name": "D4",
          "midi": 62,
          "time": 109,
          "velocity": 0.41732283464566927,
          "duration": 0.5
        },
        {
          "name": "A#3",
          "midi": 58,
          "time": 109,
          "velocity": 0.41732283464566927,
          "duration": 0.5
        },
        {
          "name": "G#3",
          "midi": 56,
          "time": 109,
          "velocity": 0.41732283464566927,
          "duration": 0.5
        },
        {
          "name": "F3",
          "midi": 53,
          "time": 109,
          "velocity": 0.41732283464566927,
          "duration": 0.5
        },
        {
          "name": "A#2",
          "midi": 46,
          "time": 109,
          "velocity": 0.41732283464566927,
          "duration": 0.5
        },
        {
          "name": "A#4",
          "midi": 70,
          "time": 110,
          "velocity": 0.41732283464566927,
          "duration": 0.5
        },
        {
          "name": "F4",
          "midi": 65,
          "time": 110,
          "velocity": 0.41732283464566927,
          "duration": 0.5
        },
        {
          "name": "D4",
          "midi": 62,
          "time": 110,
          "velocity": 0.41732283464566927,
          "duration": 0.5
        },
        {
          "name": "A#3",
          "midi": 58,
          "time": 110,
          "velocity": 0.41732283464566927,
          "duration": 0.5
        },
        {
          "name": "G#3",
          "midi": 56,
          "time": 110,
          "velocity": 0.41732283464566927,
          "duration": 0.5
        },
        {
          "name": "F3",
          "midi": 53,
          "time": 110,
          "velocity": 0.41732283464566927,
          "duration": 0.5
        },
        {
          "name": "A#2",
          "midi": 46,
          "time": 110,
          "velocity": 0.41732283464566927,
          "duration": 0.5
        },
        {
          "name": "E1",
          "midi": 28,
          "time": 110,
          "velocity": 0.7874015748031497,
          "duration": 1.5
        },
        {
          "name": "E1",
          "midi": 28,
          "time": 111.5,
          "velocity": 0.7874015748031497,
          "duration": 0.5
        },
        {
          "name": "D#1",
          "midi": 27,
          "time": 112,
          "velocity": 0.7874015748031497,
          "duration": 0.5
        },
        {
          "name": "E1",
          "midi": 28,
          "time": 128.5,
          "velocity": 0.7874015748031497,
          "duration": 1.5
        },
        {
          "name": "E1",
          "midi": 28,
          "time": 130,
          "velocity": 0.7874015748031497,
          "duration": 0.5
        },
        {
          "name": "D#1",
          "midi": 27,
          "time": 130.5,
          "velocity": 0.7874015748031497,
          "duration": 0.5
        },
        {
          "name": "A#1",
          "midi": 34,
          "time": 131,
          "velocity": 0.7874015748031497,
          "duration": 0.25
        },
        {
          "name": "D#2",
          "midi": 39,
          "time": 131.25,
          "velocity": 0.7874015748031497,
          "duration": 0.25
        },
        {
          "name": "D#2",
          "midi": 39,
          "time": 131.75,
          "velocity": 0.7874015748031497,
          "duration": 0.25
        },
        {
          "name": "D#1",
          "midi": 27,
          "time": 132,
          "velocity": 0.7874015748031497,
          "duration": 0.5
        },
        {
          "name": "G#1",
          "midi": 32,
          "time": 132.5,
          "velocity": 0.7874015748031497,
          "duration": 0.75
        },
        {
          "name": "G#2",
          "midi": 44,
          "time": 133.25,
          "velocity": 0.7874015748031497,
          "duration": 0.25
        },
        {
          "name": "G#2",
          "midi": 44,
          "time": 133.75,
          "velocity": 0.7874015748031497,
          "duration": 0.25
        },
        {
          "name": "G#1",
          "midi": 32,
          "time": 134,
          "velocity": 0.7874015748031497,
          "duration": 0.5
        },
        {
          "name": "B1",
          "midi": 35,
          "time": 134.5,
          "velocity": 0.7874015748031497,
          "duration": 0.5
        },
        {
          "name": "C#3",
          "midi": 49,
          "time": 135,
          "velocity": 0.7874015748031497,
          "duration": 0.25
        },
        {
          "name": "B2",
          "midi": 47,
          "time": 135.25,
          "velocity": 0.7874015748031497,
          "duration": 0.25
        },
        {
          "name": "B2",
          "midi": 47,
          "time": 135.75,
          "velocity": 0.7874015748031497,
          "duration": 0.25
        },
        {
          "name": "B1",
          "midi": 35,
          "time": 136,
          "velocity": 0.7874015748031497,
          "duration": 0.5
        },
        {
          "name": "C#1",
          "midi": 25,
          "time": 137,
          "velocity": 0.7874015748031497,
          "duration": 0.5
        },
        {
          "name": "C#1",
          "midi": 25,
          "time": 138,
          "velocity": 0.7874015748031497,
          "duration": 0.5
        },
        {
          "name": "G#1",
          "midi": 32,
          "time": 139,
          "velocity": 0.7874015748031497,
          "duration": 0.25
        },
        {
          "name": "C#2",
          "midi": 37,
          "time": 139.25,
          "velocity": 0.7874015748031497,
          "duration": 0.25
        },
        {
          "name": "C#2",
          "midi": 37,
          "time": 139.75,
          "velocity": 0.7874015748031497,
          "duration": 0.25
        },
        {
          "name": "C#1",
          "midi": 25,
          "time": 140,
          "velocity": 0.7874015748031497,
          "duration": 0.5
        },
        {
          "name": "C#1",
          "midi": 25,
          "time": 141,
          "velocity": 0.7874015748031497,
          "duration": 0.5
        },
        {
          "name": "C#1",
          "midi": 25,
          "time": 142,
          "velocity": 0.7874015748031497,
          "duration": 0.5
        },
        {
          "name": "G#1",
          "midi": 32,
          "time": 143,
          "velocity": 0.7874015748031497,
          "duration": 0.25
        },
        {
          "name": "C#2",
          "midi": 37,
          "time": 143.25,
          "velocity": 0.7874015748031497,
          "duration": 0.25
        },
        {
          "name": "C#2",
          "midi": 37,
          "time": 143.75,
          "velocity": 0.7874015748031497,
          "duration": 0.25
        },
        {
          "name": "C#1",
          "midi": 25,
          "time": 144,
          "velocity": 0.7874015748031497,
          "duration": 0.5
        },
        {
          "name": "D#2",
          "midi": 39,
          "time": 145.25,
          "velocity": 0.7874015748031497,
          "duration": 0.25
        },
        {
          "name": "D#2",
          "midi": 39,
          "time": 145.75,
          "velocity": 0.7874015748031497,
          "duration": 0.25
        },
        {
          "name": "D#2",
          "midi": 39,
          "time": 146,
          "velocity": 0.7874015748031497,
          "duration": 0.25
        },
        {
          "name": "D#2",
          "midi": 39,
          "time": 146.5,
          "velocity": 0.7874015748031497,
          "duration": 0.25
        },
        {
          "name": "A2",
          "midi": 45,
          "time": 147,
          "velocity": 0.7874015748031497,
          "duration": 0.25
        },
        {
          "name": "B2",
          "midi": 47,
          "time": 147.25,
          "velocity": 0.7874015748031497,
          "duration": 0.25
        },
        {
          "name": "D#2",
          "midi": 39,
          "time": 147.5,
          "velocity": 0.7874015748031497,
          "duration": 0.25
        },
        {
          "name": "C#2",
          "midi": 37,
          "time": 147.75,
          "velocity": 0.7874015748031497,
          "duration": 0.25
        },
        {
          "name": "D#2",
          "midi": 39,
          "time": 148,
          "velocity": 0.7874015748031497,
          "duration": 0.25
        },
        {
          "name": "D#2",
          "midi": 39,
          "time": 149,
          "velocity": 0.7874015748031497,
          "duration": 0.25
        },
        {
          "name": "D#2",
          "midi": 39,
          "time": 150,
          "velocity": 0.7874015748031497,
          "duration": 0.25
        },
        {
          "name": "D#2",
          "midi": 39,
          "time": 150.5,
          "velocity": 0.7874015748031497,
          "duration": 0.25
        }
      ],
      "controlChanges": {
        "1": [
          {
            "number": 1,
            "time": 0.40833333333333327,
            "value": 0
          }
        ],
        "6": [
          {
            "number": 6,
            "time": 0.4104166666666666,
            "value": 0.5039370078740157
          },
          {
            "number": 6,
            "time": 0.41874999999999996,
            "value": 0.5039370078740157
          },
          {
            "number": 6,
            "time": 0.42499999999999993,
            "value": 0.09448818897637795
          }
        ],
        "7": [
          {
            "number": 7,
            "time": 0.4020833333333333,
            "value": 0.7874015748031497
          }
        ],
        "10": [
          {
            "number": 10,
            "time": 0.39999999999999997,
            "value": 0.5039370078740157
          }
        ],
        "11": [
          {
            "number": 11,
            "time": 0.40624999999999994,
            "value": 1
          }
        ],
        "32": [
          {
            "number": 32,
            "time": 0.39375,
            "value": 0
          }
        ],
        "38": [
          {
            "number": 38,
            "time": 0.4104166666666666,
            "value": 0
          }
        ],
        "91": [
          {
            "number": 91,
            "time": 0.4041666666666666,
            "value": 0
          }
        ],
        "100": [
          {
            "number": 100,
            "time": 0.4104166666666666,
            "value": 0.007874015748031496
          },
          {
            "number": 100,
            "time": 0.41874999999999996,
            "value": 0.015748031496062992
          },
          {
            "number": 100,
            "time": 0.42499999999999993,
            "value": 0
          },
          {
            "number": 100,
            "time": 0.43333333333333324,
            "value": 1
          }
        ],
        "101": [
          {
            "number": 101,
            "time": 0.4104166666666666,
            "value": 0
          },
          {
            "number": 101,
            "time": 0.41874999999999996,
            "value": 0
          },
          {
            "number": 101,
            "time": 0.42499999999999993,
            "value": 0
          },
          {
            "number": 101,
            "time": 0.43333333333333324,
            "value": 1
          }
        ],
        "121": [
          {
            "number": 121,
            "time": 0.39166666666666666,
            "value": 0
          }
        ]
      },
      "id": 7,
      "name": "",
      "instrumentNumber": 0,
      "instrument": "acoustic grand piano",
      "instrumentFamily": "piano",
      "channelNumber": 5,
      "isPercussion": false
    },
    {
      "startTime": 0,
      "duration": 0,
      "length": 0,
      "notes": [],
      "controlChanges": {
        "1": [
          {
            "number": 1,
            "time": 0.40833333333333327,
            "value": 0
          }
        ],
        "6": [
          {
            "number": 6,
            "time": 0.4104166666666666,
            "value": 0.5039370078740157
          },
          {
            "number": 6,
            "time": 0.41874999999999996,
            "value": 0.5039370078740157
          },
          {
            "number": 6,
            "time": 0.42499999999999993,
            "value": 0.09448818897637795
          }
        ],
        "7": [
          {
            "number": 7,
            "time": 0.4020833333333333,
            "value": 0.7874015748031497
          }
        ],
        "10": [
          {
            "number": 10,
            "time": 0.39999999999999997,
            "value": 0.5039370078740157
          }
        ],
        "11": [
          {
            "number": 11,
            "time": 0.40624999999999994,
            "value": 1
          }
        ],
        "32": [
          {
            "number": 32,
            "time": 0.39375,
            "value": 0
          }
        ],
        "38": [
          {
            "number": 38,
            "time": 0.4104166666666666,
            "value": 0
          }
        ],
        "91": [
          {
            "number": 91,
            "time": 0.4041666666666666,
            "value": 0
          }
        ],
        "100": [
          {
            "number": 100,
            "time": 0.4104166666666666,
            "value": 0.007874015748031496
          },
          {
            "number": 100,
            "time": 0.41874999999999996,
            "value": 0.015748031496062992
          },
          {
            "number": 100,
            "time": 0.42499999999999993,
            "value": 0
          },
          {
            "number": 100,
            "time": 0.43333333333333324,
            "value": 1
          }
        ],
        "101": [
          {
            "number": 101,
            "time": 0.4104166666666666,
            "value": 0
          },
          {
            "number": 101,
            "time": 0.41874999999999996,
            "value": 0
          },
          {
            "number": 101,
            "time": 0.42499999999999993,
            "value": 0
          },
          {
            "number": 101,
            "time": 0.43333333333333324,
            "value": 1
          }
        ],
        "121": [
          {
            "number": 121,
            "time": 0.39166666666666666,
            "value": 0
          }
        ]
      },
      "id": 8,
      "name": "",
      "instrumentNumber": 0,
      "instrument": "acoustic grand piano",
      "instrumentFamily": "piano",
      "channelNumber": 6,
      "isPercussion": false
    },
    {
      "startTime": 0,
      "duration": 0,
      "length": 0,
      "notes": [],
      "controlChanges": {
        "1": [
          {
            "number": 1,
            "time": 0.40833333333333327,
            "value": 0
          }
        ],
        "6": [
          {
            "number": 6,
            "time": 0.4104166666666666,
            "value": 0.5039370078740157
          },
          {
            "number": 6,
            "time": 0.41874999999999996,
            "value": 0.5039370078740157
          },
          {
            "number": 6,
            "time": 0.42499999999999993,
            "value": 0.09448818897637795
          }
        ],
        "7": [
          {
            "number": 7,
            "time": 0.4020833333333333,
            "value": 0.7874015748031497
          }
        ],
        "10": [
          {
            "number": 10,
            "time": 0.39999999999999997,
            "value": 0.5039370078740157
          }
        ],
        "11": [
          {
            "number": 11,
            "time": 0.40624999999999994,
            "value": 1
          }
        ],
        "32": [
          {
            "number": 32,
            "time": 0.39375,
            "value": 0
          }
        ],
        "38": [
          {
            "number": 38,
            "time": 0.4104166666666666,
            "value": 0
          }
        ],
        "91": [
          {
            "number": 91,
            "time": 0.4041666666666666,
            "value": 0
          }
        ],
        "100": [
          {
            "number": 100,
            "time": 0.4104166666666666,
            "value": 0.007874015748031496
          },
          {
            "number": 100,
            "time": 0.41874999999999996,
            "value": 0.015748031496062992
          },
          {
            "number": 100,
            "time": 0.42499999999999993,
            "value": 0
          },
          {
            "number": 100,
            "time": 0.43333333333333324,
            "value": 1
          }
        ],
        "101": [
          {
            "number": 101,
            "time": 0.4104166666666666,
            "value": 0
          },
          {
            "number": 101,
            "time": 0.41874999999999996,
            "value": 0
          },
          {
            "number": 101,
            "time": 0.42499999999999993,
            "value": 0
          },
          {
            "number": 101,
            "time": 0.43333333333333324,
            "value": 1
          }
        ],
        "121": [
          {
            "number": 121,
            "time": 0.39166666666666666,
            "value": 0
          }
        ]
      },
      "id": 9,
      "name": "",
      "instrumentNumber": 0,
      "instrument": "acoustic grand piano",
      "instrumentFamily": "piano",
      "channelNumber": 7,
      "isPercussion": false
    },
    {
      "startTime": 0,
      "duration": 0,
      "length": 0,
      "notes": [],
      "controlChanges": {
        "1": [
          {
            "number": 1,
            "time": 0.40833333333333327,
            "value": 0
          }
        ],
        "6": [
          {
            "number": 6,
            "time": 0.4104166666666666,
            "value": 0.5039370078740157
          },
          {
            "number": 6,
            "time": 0.41874999999999996,
            "value": 0.5039370078740157
          },
          {
            "number": 6,
            "time": 0.42499999999999993,
            "value": 0.09448818897637795
          }
        ],
        "7": [
          {
            "number": 7,
            "time": 0.4020833333333333,
            "value": 0.7874015748031497
          }
        ],
        "10": [
          {
            "number": 10,
            "time": 0.39999999999999997,
            "value": 0.5039370078740157
          }
        ],
        "11": [
          {
            "number": 11,
            "time": 0.40624999999999994,
            "value": 1
          }
        ],
        "32": [
          {
            "number": 32,
            "time": 0.39375,
            "value": 0
          }
        ],
        "38": [
          {
            "number": 38,
            "time": 0.4104166666666666,
            "value": 0
          }
        ],
        "91": [
          {
            "number": 91,
            "time": 0.4041666666666666,
            "value": 0
          }
        ],
        "100": [
          {
            "number": 100,
            "time": 0.4104166666666666,
            "value": 0.007874015748031496
          },
          {
            "number": 100,
            "time": 0.41874999999999996,
            "value": 0.015748031496062992
          },
          {
            "number": 100,
            "time": 0.42499999999999993,
            "value": 0
          },
          {
            "number": 100,
            "time": 0.43333333333333324,
            "value": 1
          }
        ],
        "101": [
          {
            "number": 101,
            "time": 0.4104166666666666,
            "value": 0
          },
          {
            "number": 101,
            "time": 0.41874999999999996,
            "value": 0
          },
          {
            "number": 101,
            "time": 0.42499999999999993,
            "value": 0
          },
          {
            "number": 101,
            "time": 0.43333333333333324,
            "value": 1
          }
        ],
        "121": [
          {
            "number": 121,
            "time": 0.39166666666666666,
            "value": 0
          }
        ]
      },
      "id": 10,
      "name": "",
      "instrumentNumber": 0,
      "instrument": "acoustic grand piano",
      "instrumentFamily": "piano",
      "channelNumber": 8,
      "isPercussion": false
    },
    {
      "startTime": 0,
      "duration": 0,
      "length": 0,
      "notes": [],
      "controlChanges": {
        "1": [
          {
            "number": 1,
            "time": 0.40833333333333327,
            "value": 0
          }
        ],
        "6": [
          {
            "number": 6,
            "time": 0.4104166666666666,
            "value": 0.5039370078740157
          },
          {
            "number": 6,
            "time": 0.41874999999999996,
            "value": 0.5039370078740157
          },
          {
            "number": 6,
            "time": 0.42499999999999993,
            "value": 0.09448818897637795
          }
        ],
        "7": [
          {
            "number": 7,
            "time": 0.4020833333333333,
            "value": 0.7874015748031497
          }
        ],
        "10": [
          {
            "number": 10,
            "time": 0.39999999999999997,
            "value": 0.5039370078740157
          }
        ],
        "11": [
          {
            "number": 11,
            "time": 0.40624999999999994,
            "value": 1
          }
        ],
        "32": [
          {
            "number": 32,
            "time": 0.39375,
            "value": 0
          }
        ],
        "38": [
          {
            "number": 38,
            "time": 0.4104166666666666,
            "value": 0
          }
        ],
        "91": [
          {
            "number": 91,
            "time": 0.4041666666666666,
            "value": 0
          }
        ],
        "100": [
          {
            "number": 100,
            "time": 0.4104166666666666,
            "value": 0.007874015748031496
          },
          {
            "number": 100,
            "time": 0.41874999999999996,
            "value": 0.015748031496062992
          },
          {
            "number": 100,
            "time": 0.42499999999999993,
            "value": 0
          },
          {
            "number": 100,
            "time": 0.43333333333333324,
            "value": 1
          }
        ],
        "101": [
          {
            "number": 101,
            "time": 0.4104166666666666,
            "value": 0
          },
          {
            "number": 101,
            "time": 0.41874999999999996,
            "value": 0
          },
          {
            "number": 101,
            "time": 0.42499999999999993,
            "value": 0
          },
          {
            "number": 101,
            "time": 0.43333333333333324,
            "value": 1
          }
        ],
        "121": [
          {
            "number": 121,
            "time": 0.39166666666666666,
            "value": 0
          }
        ]
      },
      "id": 11,
      "name": "",
      "instrumentNumber": 0,
      "instrument": "standard kit",
      "instrumentFamily": "drums",
      "channelNumber": 9,
      "isPercussion": true
    },
    {
      "startTime": 0,
      "duration": 0,
      "length": 0,
      "notes": [],
      "controlChanges": {
        "1": [
          {
            "number": 1,
            "time": 0.40833333333333327,
            "value": 0
          }
        ],
        "6": [
          {
            "number": 6,
            "time": 0.4104166666666666,
            "value": 0.5039370078740157
          },
          {
            "number": 6,
            "time": 0.41874999999999996,
            "value": 0.5039370078740157
          },
          {
            "number": 6,
            "time": 0.42499999999999993,
            "value": 0.09448818897637795
          }
        ],
        "7": [
          {
            "number": 7,
            "time": 0.4020833333333333,
            "value": 0.7874015748031497
          }
        ],
        "10": [
          {
            "number": 10,
            "time": 0.39999999999999997,
            "value": 0.5039370078740157
          }
        ],
        "11": [
          {
            "number": 11,
            "time": 0.40624999999999994,
            "value": 1
          }
        ],
        "32": [
          {
            "number": 32,
            "time": 0.39375,
            "value": 0
          }
        ],
        "38": [
          {
            "number": 38,
            "time": 0.4104166666666666,
            "value": 0
          }
        ],
        "91": [
          {
            "number": 91,
            "time": 0.4041666666666666,
            "value": 0
          }
        ],
        "100": [
          {
            "number": 100,
            "time": 0.4104166666666666,
            "value": 0.007874015748031496
          },
          {
            "number": 100,
            "time": 0.41874999999999996,
            "value": 0.015748031496062992
          },
          {
            "number": 100,
            "time": 0.42499999999999993,
            "value": 0
          },
          {
            "number": 100,
            "time": 0.43333333333333324,
            "value": 1
          }
        ],
        "101": [
          {
            "number": 101,
            "time": 0.4104166666666666,
            "value": 0
          },
          {
            "number": 101,
            "time": 0.41874999999999996,
            "value": 0
          },
          {
            "number": 101,
            "time": 0.42499999999999993,
            "value": 0
          },
          {
            "number": 101,
            "time": 0.43333333333333324,
            "value": 1
          }
        ],
        "121": [
          {
            "number": 121,
            "time": 0.39166666666666666,
            "value": 0
          }
        ]
      },
      "id": 12,
      "name": "",
      "instrumentNumber": 0,
      "instrument": "standard kit",
      "instrumentFamily": "drums",
      "channelNumber": 10,
      "isPercussion": true
    },
    {
      "startTime": 0,
      "duration": 0,
      "length": 0,
      "notes": [],
      "controlChanges": {
        "1": [
          {
            "number": 1,
            "time": 0.40833333333333327,
            "value": 0
          }
        ],
        "6": [
          {
            "number": 6,
            "time": 0.4104166666666666,
            "value": 0.5039370078740157
          },
          {
            "number": 6,
            "time": 0.41874999999999996,
            "value": 0.5039370078740157
          },
          {
            "number": 6,
            "time": 0.42499999999999993,
            "value": 0.09448818897637795
          }
        ],
        "7": [
          {
            "number": 7,
            "time": 0.4020833333333333,
            "value": 0.7874015748031497
          }
        ],
        "10": [
          {
            "number": 10,
            "time": 0.39999999999999997,
            "value": 0.5039370078740157
          }
        ],
        "11": [
          {
            "number": 11,
            "time": 0.40624999999999994,
            "value": 1
          }
        ],
        "32": [
          {
            "number": 32,
            "time": 0.39375,
            "value": 0
          }
        ],
        "38": [
          {
            "number": 38,
            "time": 0.4104166666666666,
            "value": 0
          }
        ],
        "91": [
          {
            "number": 91,
            "time": 0.4041666666666666,
            "value": 0
          }
        ],
        "100": [
          {
            "number": 100,
            "time": 0.4104166666666666,
            "value": 0.007874015748031496
          },
          {
            "number": 100,
            "time": 0.41874999999999996,
            "value": 0.015748031496062992
          },
          {
            "number": 100,
            "time": 0.42499999999999993,
            "value": 0
          },
          {
            "number": 100,
            "time": 0.43333333333333324,
            "value": 1
          }
        ],
        "101": [
          {
            "number": 101,
            "time": 0.4104166666666666,
            "value": 0
          },
          {
            "number": 101,
            "time": 0.41874999999999996,
            "value": 0
          },
          {
            "number": 101,
            "time": 0.42499999999999993,
            "value": 0
          },
          {
            "number": 101,
            "time": 0.43333333333333324,
            "value": 1
          }
        ],
        "121": [
          {
            "number": 121,
            "time": 0.39166666666666666,
            "value": 0
          }
        ]
      },
      "id": 13,
      "name": "",
      "instrumentNumber": 0,
      "instrument": "acoustic grand piano",
      "instrumentFamily": "piano",
      "channelNumber": 11,
      "isPercussion": false
    },
    {
      "startTime": 0,
      "duration": 0,
      "length": 0,
      "notes": [],
      "controlChanges": {
        "1": [
          {
            "number": 1,
            "time": 0.40833333333333327,
            "value": 0
          }
        ],
        "6": [
          {
            "number": 6,
            "time": 0.4104166666666666,
            "value": 0.5039370078740157
          },
          {
            "number": 6,
            "time": 0.41874999999999996,
            "value": 0.5039370078740157
          },
          {
            "number": 6,
            "time": 0.42499999999999993,
            "value": 0.09448818897637795
          }
        ],
        "7": [
          {
            "number": 7,
            "time": 0.4020833333333333,
            "value": 0.7874015748031497
          }
        ],
        "10": [
          {
            "number": 10,
            "time": 0.39999999999999997,
            "value": 0.5039370078740157
          }
        ],
        "11": [
          {
            "number": 11,
            "time": 0.40624999999999994,
            "value": 1
          }
        ],
        "32": [
          {
            "number": 32,
            "time": 0.39375,
            "value": 0
          }
        ],
        "38": [
          {
            "number": 38,
            "time": 0.4104166666666666,
            "value": 0
          }
        ],
        "91": [
          {
            "number": 91,
            "time": 0.4041666666666666,
            "value": 0
          }
        ],
        "100": [
          {
            "number": 100,
            "time": 0.4104166666666666,
            "value": 0.007874015748031496
          },
          {
            "number": 100,
            "time": 0.41874999999999996,
            "value": 0.015748031496062992
          },
          {
            "number": 100,
            "time": 0.42499999999999993,
            "value": 0
          },
          {
            "number": 100,
            "time": 0.43333333333333324,
            "value": 1
          }
        ],
        "101": [
          {
            "number": 101,
            "time": 0.4104166666666666,
            "value": 0
          },
          {
            "number": 101,
            "time": 0.41874999999999996,
            "value": 0
          },
          {
            "number": 101,
            "time": 0.42499999999999993,
            "value": 0
          },
          {
            "number": 101,
            "time": 0.43333333333333324,
            "value": 1
          }
        ],
        "121": [
          {
            "number": 121,
            "time": 0.39166666666666666,
            "value": 0
          }
        ]
      },
      "id": 14,
      "name": "",
      "instrumentNumber": 0,
      "instrument": "acoustic grand piano",
      "instrumentFamily": "piano",
      "channelNumber": 12,
      "isPercussion": false
    },
    {
      "startTime": 0,
      "duration": 0,
      "length": 0,
      "notes": [],
      "controlChanges": {
        "1": [
          {
            "number": 1,
            "time": 0.40833333333333327,
            "value": 0
          }
        ],
        "6": [
          {
            "number": 6,
            "time": 0.4104166666666666,
            "value": 0.5039370078740157
          },
          {
            "number": 6,
            "time": 0.41874999999999996,
            "value": 0.5039370078740157
          },
          {
            "number": 6,
            "time": 0.42499999999999993,
            "value": 0.09448818897637795
          }
        ],
        "7": [
          {
            "number": 7,
            "time": 0.4020833333333333,
            "value": 0.7874015748031497
          }
        ],
        "10": [
          {
            "number": 10,
            "time": 0.39999999999999997,
            "value": 0.5039370078740157
          }
        ],
        "11": [
          {
            "number": 11,
            "time": 0.40624999999999994,
            "value": 1
          }
        ],
        "32": [
          {
            "number": 32,
            "time": 0.39375,
            "value": 0
          }
        ],
        "38": [
          {
            "number": 38,
            "time": 0.4104166666666666,
            "value": 0
          }
        ],
        "91": [
          {
            "number": 91,
            "time": 0.4041666666666666,
            "value": 0
          }
        ],
        "100": [
          {
            "number": 100,
            "time": 0.4104166666666666,
            "value": 0.007874015748031496
          },
          {
            "number": 100,
            "time": 0.41874999999999996,
            "value": 0.015748031496062992
          },
          {
            "number": 100,
            "time": 0.42499999999999993,
            "value": 0
          },
          {
            "number": 100,
            "time": 0.43333333333333324,
            "value": 1
          }
        ],
        "101": [
          {
            "number": 101,
            "time": 0.4104166666666666,
            "value": 0
          },
          {
            "number": 101,
            "time": 0.41874999999999996,
            "value": 0
          },
          {
            "number": 101,
            "time": 0.42499999999999993,
            "value": 0
          },
          {
            "number": 101,
            "time": 0.43333333333333324,
            "value": 1
          }
        ],
        "121": [
          {
            "number": 121,
            "time": 0.39166666666666666,
            "value": 0
          }
        ]
      },
      "id": 15,
      "name": "",
      "instrumentNumber": 0,
      "instrument": "acoustic grand piano",
      "instrumentFamily": "piano",
      "channelNumber": 13,
      "isPercussion": false
    },
    {
      "startTime": 0,
      "duration": 0,
      "length": 0,
      "notes": [],
      "controlChanges": {
        "1": [
          {
            "number": 1,
            "time": 0.40833333333333327,
            "value": 0
          }
        ],
        "6": [
          {
            "number": 6,
            "time": 0.4104166666666666,
            "value": 0.5039370078740157
          },
          {
            "number": 6,
            "time": 0.41874999999999996,
            "value": 0.5039370078740157
          },
          {
            "number": 6,
            "time": 0.42499999999999993,
            "value": 0.09448818897637795
          }
        ],
        "7": [
          {
            "number": 7,
            "time": 0.4020833333333333,
            "value": 0.7874015748031497
          }
        ],
        "10": [
          {
            "number": 10,
            "time": 0.39999999999999997,
            "value": 0.5039370078740157
          }
        ],
        "11": [
          {
            "number": 11,
            "time": 0.40624999999999994,
            "value": 1
          }
        ],
        "32": [
          {
            "number": 32,
            "time": 0.39375,
            "value": 0
          }
        ],
        "38": [
          {
            "number": 38,
            "time": 0.4104166666666666,
            "value": 0
          }
        ],
        "91": [
          {
            "number": 91,
            "time": 0.4041666666666666,
            "value": 0
          }
        ],
        "100": [
          {
            "number": 100,
            "time": 0.4104166666666666,
            "value": 0.007874015748031496
          },
          {
            "number": 100,
            "time": 0.41874999999999996,
            "value": 0.015748031496062992
          },
          {
            "number": 100,
            "time": 0.42499999999999993,
            "value": 0
          },
          {
            "number": 100,
            "time": 0.43333333333333324,
            "value": 1
          }
        ],
        "101": [
          {
            "number": 101,
            "time": 0.4104166666666666,
            "value": 0
          },
          {
            "number": 101,
            "time": 0.41874999999999996,
            "value": 0
          },
          {
            "number": 101,
            "time": 0.42499999999999993,
            "value": 0
          },
          {
            "number": 101,
            "time": 0.43333333333333324,
            "value": 1
          }
        ],
        "121": [
          {
            "number": 121,
            "time": 0.39166666666666666,
            "value": 0
          }
        ]
      },
      "id": 16,
      "name": "",
      "instrumentNumber": 0,
      "instrument": "acoustic grand piano",
      "instrumentFamily": "piano",
      "channelNumber": 14,
      "isPercussion": false
    },
    {
      "startTime": 0,
      "duration": 0,
      "length": 0,
      "notes": [],
      "controlChanges": {
        "1": [
          {
            "number": 1,
            "time": 0.40833333333333327,
            "value": 0
          }
        ],
        "6": [
          {
            "number": 6,
            "time": 0.4104166666666666,
            "value": 0.5039370078740157
          },
          {
            "number": 6,
            "time": 0.41874999999999996,
            "value": 0.5039370078740157
          },
          {
            "number": 6,
            "time": 0.42499999999999993,
            "value": 0.09448818897637795
          }
        ],
        "7": [
          {
            "number": 7,
            "time": 0.4020833333333333,
            "value": 0.7874015748031497
          }
        ],
        "10": [
          {
            "number": 10,
            "time": 0.39999999999999997,
            "value": 0.5039370078740157
          }
        ],
        "11": [
          {
            "number": 11,
            "time": 0.40624999999999994,
            "value": 1
          }
        ],
        "32": [
          {
            "number": 32,
            "time": 0.39375,
            "value": 0
          }
        ],
        "38": [
          {
            "number": 38,
            "time": 0.4104166666666666,
            "value": 0
          }
        ],
        "91": [
          {
            "number": 91,
            "time": 0.4041666666666666,
            "value": 0
          }
        ],
        "100": [
          {
            "number": 100,
            "time": 0.4104166666666666,
            "value": 0.007874015748031496
          },
          {
            "number": 100,
            "time": 0.41874999999999996,
            "value": 0.015748031496062992
          },
          {
            "number": 100,
            "time": 0.42499999999999993,
            "value": 0
          },
          {
            "number": 100,
            "time": 0.43333333333333324,
            "value": 1
          }
        ],
        "101": [
          {
            "number": 101,
            "time": 0.4104166666666666,
            "value": 0
          },
          {
            "number": 101,
            "time": 0.41874999999999996,
            "value": 0
          },
          {
            "number": 101,
            "time": 0.42499999999999993,
            "value": 0
          },
          {
            "number": 101,
            "time": 0.43333333333333324,
            "value": 1
          }
        ],
        "121": [
          {
            "number": 121,
            "time": 0.39166666666666666,
            "value": 0
          }
        ]
      },
      "id": 17,
      "name": "",
      "instrumentNumber": 0,
      "instrument": "acoustic grand piano",
      "instrumentFamily": "piano",
      "channelNumber": 15,
      "isPercussion": false
    }
  ]
}