{
  "header": {
    "PPQ": 480,
    "bpm": 60,
    "timeSignature": [
      4,
      4
    ],
    "name": "System Setup"
  },
  "tempo": [
    {
      "absoluteTime": 0,
      "seconds": 0,
      "bpm": 60
    },
    {
      "absoluteTime": 240,
      "seconds": 0.5,
      "bpm": 150
    },
    {
      "absoluteTime": 2400,
      "seconds": 5,
      "bpm": 160
    },
    {
      "absoluteTime": 2760,
      "seconds": 5.75,
      "bpm": 178.00034413399865
    },
    {
      "absoluteTime": 3360,
      "seconds": 7,
      "bpm": 184.00053973491654
    },
    {
      "absoluteTime": 3480,
      "seconds": 7.25,
      "bpm": 192
    },
    {
      "absoluteTime": 4080,
      "seconds": 8.5,
      "bpm": 124.000248000496
    },
    {
      "absoluteTime": 9840,
      "seconds": 20.5,
      "bpm": 116.00008506672904
    },
    {
      "absoluteTime": 10800,
      "seconds": 22.5,
      "bpm": 100
    },
    {
      "absoluteTime": 11760,
      "seconds": 24.5,
      "bpm": 140.00014000014
    },
    {
      "absoluteTime": 13200,
      "seconds": 27.5,
      "bpm": 152.00032426735845
    },
    {
      "absoluteTime": 15120,
      "seconds": 31.5,
      "bpm": 165.000165000165
    },
    {
      "absoluteTime": 18000,
      "seconds": 37.5,
      "bpm": 158.0003476007647
    },
    {
      "absoluteTime": 19920,
      "seconds": 41.5,
      "bpm": 147.0000955500621
    },
    {
      "absoluteTime": 22800,
      "seconds": 47.5,
      "bpm": 131.00007641671124
    },
    {
      "absoluteTime": 24720,
      "seconds": 51.5,
      "bpm": 175.00007291669704
    },
    {
      "absoluteTime": 66000,
      "seconds": 137.5,
      "bpm": 170.0000850000425
    },
    {
      "absoluteTime": 93840,
      "seconds": 195.5,
      "bpm": 174.00029580050287
    },
    {
      "absoluteTime": 94000,
      "seconds": 195.83333333333334,
      "bpm": 175.00007291669704
    },
    {
      "absoluteTime": 94160,
      "seconds": 196.16666666666669,
      "bpm": 176.00004693334586
    },
    {
      "absoluteTime": 94320,
      "seconds": 196.50000000000003,
      "bpm": 177.00002655000398
    },
    {
      "absoluteTime": 94480,
      "seconds": 196.83333333333337,
      "bpm": 178.00034413399865
    },
    {
      "absoluteTime": 94640,
      "seconds": 197.1666666666667,
      "bpm": 179.0002834171154
    },
    {
      "absoluteTime": 94800,
      "seconds": 197.50000000000006,
      "bpm": 180.00018000018
    },
    {
      "absoluteTime": 94960,
      "seconds": 197.8333333333334,
      "bpm": 181.00038915083667
    },
    {
      "absoluteTime": 95120,
      "seconds": 198.16666666666674,
      "bpm": 182.000182000182
    },
    {
      "absoluteTime": 95280,
      "seconds": 198.50000000000009,
      "bpm": 183.0004758012371
    },
    {
      "absoluteTime": 95440,
      "seconds": 198.83333333333343,
      "bpm": 184.00053973491654
    },
    {
      "absoluteTime": 95600,
      "seconds": 199.16666666666677,
      "bpm": 185.000185000185
    },
    {
      "absoluteTime": 95760,
      "seconds": 199.5000000000001,
      "bpm": 186.000372000744
    },
    {
      "absoluteTime": 95920,
      "seconds": 199.83333333333346,
      "bpm": 187.00035841735362
    },
    {
      "absoluteTime": 96080,
      "seconds": 200.1666666666668,
      "bpm": 188.0005514682843
    },
    {
      "absoluteTime": 96240,
      "seconds": 200.50000000000014,
      "bpm": 189.000189000189
    },
    {
      "absoluteTime": 96400,
      "seconds": 200.83333333333348,
      "bpm": 190.0002850004275
    },
    {
      "absoluteTime": 96560,
      "seconds": 201.16666666666683,
      "bpm": 191.00007640003057
    },
    {
      "absoluteTime": 96720,
      "seconds": 201.50000000000017,
      "bpm": 192
    },
    {
      "absoluteTime": 97040,
      "seconds": 202.16666666666683,
      "bpm": 193.0005146680391
    },
    {
      "absoluteTime": 97200,
      "seconds": 202.50000000000017,
      "bpm": 194.00021986691584
    },
    {
      "absoluteTime": 97520,
      "seconds": 203.16666666666683,
      "bpm": 195.000195000195
    },
    {
      "absoluteTime": 97680,
      "seconds": 203.50000000000017,
      "bpm": 196.0002874670883
    },
    {
      "absoluteTime": 98160,
      "seconds": 204.50000000000017,
      "bpm": 197.00034146725855
    },
    {
      "absoluteTime": 98640,
      "seconds": 205.50000000000017,
      "bpm": 198.000198000198
    },
    {
      "absoluteTime": 99120,
      "seconds": 206.50000000000017,
      "bpm": 199.0003548839662
    },
    {
      "absoluteTime": 99600,
      "seconds": 207.50000000000017,
      "bpm": 200
    },
    {
      "absoluteTime": 112080,
      "seconds": 233.50000000000017,
      "bpm": 198.000198000198
    },
    {
      "absoluteTime": 112560,
      "seconds": 234.50000000000017,
      "bpm": 196.0002874670883
    },
    {
      "absoluteTime": 113040,
      "seconds": 235.50000000000017,
      "bpm": 194.00021986691584
    },
    {
      "absoluteTime": 113520,
      "seconds": 236.50000000000017,
      "bpm": 192
    },
    {
      "absoluteTime": 114000,
      "seconds": 237.50000000000017,
      "bpm": 189.000189000189
    },
    {
      "absoluteTime": 114480,
      "seconds": 238.50000000000017,
      "bpm": 186.000372000744
    },
    {
      "absoluteTime": 114960,
      "seconds": 239.50000000000017,
      "bpm": 183.0004758012371
    },
    {
      "absoluteTime": 115440,
      "seconds": 240.50000000000017,
      "bpm": 180.00018000018
    },
    {
      "absoluteTime": 116400,
      "seconds": 242.50000000000017,
      "bpm": 177.00002655000398
    },
    {
      "absoluteTime": 117360,
      "seconds": 244.50000000000017,
      "bpm": 174.00029580050287
    },
    {
      "absoluteTime": 117840,
      "seconds": 245.50000000000017,
      "bpm": 171.00009405005173
    },
    {
      "absoluteTime": 118320,
      "seconds": 246.50000000000017,
      "bpm": 168.0004032009677
    },
    {
      "absoluteTime": 119280,
      "seconds": 248.50000000000017,
      "bpm": 174.00029580050287
    },
    {
      "absoluteTime": 119760,
      "seconds": 249.50000000000017,
      "bpm": 180.00018000018
    },
    {
      "absoluteTime": 150480,
      "seconds": 313.50000000000017,
      "bpm": 175.00007291669704
    },
    {
      "absoluteTime": 151440,
      "seconds": 315.50000000000017,
      "bpm": 180.00018000018
    },
    {
      "absoluteTime": 162960,
      "seconds": 339.50000000000017,
      "bpm": 172.00010320006191
    },
    {
      "absoluteTime": 163920,
      "seconds": 341.50000000000017,
      "bpm": 158.0003476007647
    },
    {
      "absoluteTime": 164880,
      "seconds": 343.50000000000017,
      "bpm": 150
    },
    {
      "absoluteTime": 170640,
      "seconds": 355.50000000000017,
      "bpm": 142.0000710000355
    },
    {
      "absoluteTime": 171600,
      "seconds": 357.50000000000017,
      "bpm": 132.000132000132
    },
    {
      "absoluteTime": 172560,
      "seconds": 359.50000000000017,
      "bpm": 152.00032426735845
    },
    {
      "absoluteTime": 173040,
      "seconds": 360.50000000000017,
      "bpm": 157.00024858372691
    },
    {
      "absoluteTime": 173520,
      "seconds": 361.50000000000017,
      "bpm": 162.000162000162
    },
    {
      "absoluteTime": 174000,
      "seconds": 362.50000000000017,
      "bpm": 167.00020318358054
    },
    {
      "absoluteTime": 174960,
      "seconds": 364.50000000000017,
      "bpm": 172.00010320006191
    },
    {
      "absoluteTime": 175440,
      "seconds": 365.50000000000017,
      "bpm": 176.00004693334586
    },
    {
      "absoluteTime": 175920,
      "seconds": 366.50000000000017,
      "bpm": 180.00018000018
    },
    {
      "absoluteTime": 179760,
      "seconds": 374.50000000000017,
      "bpm": 168.0004032009677
    },
    {
      "absoluteTime": 181680,
      "seconds": 378.50000000000017,
      "bpm": 180.00018000018
    },
    {
      "absoluteTime": 184080,
      "seconds": 383.50000000000017,
      "bpm": 168.0004032009677
    },
    {
      "absoluteTime": 186000,
      "seconds": 387.50000000000017,
      "bpm": 164.00029520053135
    },
    {
      "absoluteTime": 186960,
      "seconds": 389.50000000000017,
      "bpm": 160
    },
    {
      "absoluteTime": 188880,
      "seconds": 393.50000000000017,
      "bpm": 165.000165000165
    },
    {
      "absoluteTime": 189840,
      "seconds": 395.50000000000017,
      "bpm": 170.0000850000425
    },
    {
      "absoluteTime": 190320,
      "seconds": 396.50000000000017,
      "bpm": 175.00007291669704
    },
    {
      "absoluteTime": 190800,
      "seconds": 397.50000000000017,
      "bpm": 180.00018000018
    }
  ],
  "timeSignature": [
    {
      "absoluteTime": 0,
      "seconds": 0,
      "numerator": 1,
      "denominator": 3,
      "click": 24,
      "notesQ": 8
    },
    {
      "absoluteTime": 240,
      "seconds": 0.5,
      "numerator": 4,
      "denominator": 2,
      "click": 24,
      "notesQ": 8
    },
    {
      "absoluteTime": 11760,
      "seconds": 24.5,
      "numerator": 3,
      "denominator": 2,
      "click": 24,
      "notesQ": 8
    },
    {
      "absoluteTime": 13200,
      "seconds": 27.5,
      "numerator": 4,
      "denominator": 2,
      "click": 24,
      "notesQ": 8
    }
  ],
  "startTime": 0,
  "duration": 398.5000000000011,
  "tracks": [
    {
      "startTime": 0,
      "duration": 0,
      "length": 0,
      "notes": [],
      "controlChanges": {},
      "id": 0,
      "name": ""
    },
    {
      "startTime": 0,
      "duration": 0,
      "length": 0,
      "notes": [],
      "controlChanges": {},
      "id": 1,
      "name": "System Setup"
    },
    {
      "startTime": 4.5,
      "duration": 398.5000000000011,
      "length": 1397,
      "notes": [
        {
          "name": "C7",
          "midi": 96,
          "time": 4.5,
          "velocity": 0.7874015748031497,
          "duration": 8
        },
        {
          "name": "C6",
          "midi": 84,
          "time": 4.75,
          "velocity": 0.7874015748031497,
          "duration": 1
        },
        {
          "name": "C5",
          "midi": 72,
          "time": 5,
          "velocity": 0.7874015748031497,
          "duration": 1
        },
        {
          "name": "C4",
          "midi": 60,
          "time": 5.25,
          "velocity": 0.7874015748031497,
          "duration": 1
        },
        {
          "name": "C3",
          "midi": 48,
          "time": 5.5,
          "velocity": 0.7874015748031497,
          "duration": 1
        },
        {
          "name": "C2",
          "midi": 36,
          "time": 5.75,
          "velocity": 0.7874015748031497,
          "duration": 1
        },
        {
          "name": "C6",
          "midi": 84,
          "time": 6,
          "velocity": 0.7874015748031497,
          "duration": 6.5
        },
        {
          "name": "C5",
          "midi": 72,
          "time": 6.25,
          "velocity": 0.7874015748031497,
          "duration": 4.25
        },
        {
          "name": "C4",
          "midi": 60,
          "time": 6.5,
          "velocity": 0.7874015748031497,
          "duration": 6
        },
        {
          "name": "C3",
          "midi": 48,
          "time": 6.75,
          "velocity": 0.7874015748031497,
          "duration": 5.75
        },
        {
          "name": "C2",
          "midi": 36,
          "time": 7,
          "velocity": 0.7874015748031497,
          "duration": 5.5
        },
        {
          "name": "C1",
          "midi": 24,
          "time": 7.25,
          "velocity": 0.7874015748031497,
          "duration": 4.25
        },
        {
          "name": "G4",
          "midi": 67,
          "time": 10.5,
          "velocity": 0.7874015748031497,
          "duration": 4
        },
        {
          "name": "G5",
          "midi": 79,
          "time": 10.5,
          "velocity": 0.7874015748031497,
          "duration": 4
        },
        {
          "name": "C5",
          "midi": 72,
          "time": 10.5,
          "velocity": 0.7874015748031497,
          "duration": 4
        },
        {
          "name": "G#4",
          "midi": 68,
          "time": 14.5,
          "velocity": 0.7874015748031497,
          "duration": 4
        },
        {
          "name": "C#5",
          "midi": 73,
          "time": 14.5,
          "velocity": 0.7874015748031497,
          "duration": 4
        },
        {
          "name": "D#5",
          "midi": 75,
          "time": 14.5,
          "velocity": 0.7874015748031497,
          "duration": 4
        },
        {
          "name": "G#5",
          "midi": 80,
          "time": 14.5,
          "velocity": 0.7874015748031497,
          "duration": 4
        },
        {
          "name": "F#4",
          "midi": 66,
          "time": 18.5,
          "velocity": 0.7874015748031497,
          "duration": 4
        },
        {
          "name": "A#4",
          "midi": 70,
          "time": 18.5,
          "velocity": 0.7874015748031497,
          "duration": 4
        },
        {
          "name": "C#5",
          "midi": 73,
          "time": 18.5,
          "velocity": 0.7874015748031497,
          "duration": 4
        },
        {
          "name": "F#5",
          "midi": 78,
          "time": 18.5,
          "velocity": 0.7874015748031497,
          "duration": 4
        },
        {
          "name": "G5",
          "midi": 79,
          "time": 22.5,
          "velocity": 0.7874015748031497,
          "duration": 5
        },
        {
          "name": "C5",
          "midi": 72,
          "time": 22.5,
          "velocity": 0.7874015748031497,
          "duration": 5
        },
        {
          "name": "G4",
          "midi": 67,
          "time": 22.5,
          "velocity": 0.7874015748031497,
          "duration": 5
        },
        {
          "name": "G3",
          "midi": 55,
          "time": 22.5,
          "velocity": 0.7874015748031497,
          "duration": 5
        },
        {
          "name": "A#4",
          "midi": 70,
          "time": 27.5,
          "velocity": 0.7874015748031497,
          "duration": 4.000000000000007
        },
        {
          "name": "C5",
          "midi": 72,
          "time": 27.666666666666668,
          "velocity": 0.7874015748031497,
          "duration": 3.8333333333333393
        },
        {
          "name": "D#5",
          "midi": 75,
          "time": 27.833333333333336,
          "velocity": 0.7874015748031497,
          "duration": 3.6666666666666714
        },
        {
          "name": "G5",
          "midi": 79,
          "time": 28.000000000000004,
          "velocity": 0.7874015748031497,
          "duration": 3.5000000000000036
        },
        {
          "name": "C6",
          "midi": 84,
          "time": 28.16666666666667,
          "velocity": 0.7874015748031497,
          "duration": 3.3333333333333357
        },
        {
          "name": "D6",
          "midi": 86,
          "time": 28.33333333333334,
          "velocity": 0.7874015748031497,
          "duration": 3.166666666666668
        },
        {
          "name": "G6",
          "midi": 91,
          "time": 28.500000000000007,
          "velocity": 0.7874015748031497,
          "duration": 3
        },
        {
          "name": "A#4",
          "midi": 70,
          "time": 31.500000000000007,
          "velocity": 0.49606299212598426,
          "duration": 1
        },
        {
          "name": "F5",
          "midi": 77,
          "time": 31.500000000000007,
          "velocity": 0.49606299212598426,
          "duration": 2
        },
        {
          "name": "A#5",
          "midi": 82,
          "time": 32.50000000000001,
          "velocity": 0.49606299212598426,
          "duration": 1
        },
        {
          "name": "A#4",
          "midi": 70,
          "time": 32.50000000000001,
          "velocity": 0.49606299212598426,
          "duration": 1
        },
        {
          "name": "A#4",
          "midi": 70,
          "time": 33.50000000000001,
          "velocity": 0.49606299212598426,
          "duration": 2
        },
        {
          "name": "D#5",
          "midi": 75,
          "time": 33.50000000000001,
          "velocity": 0.49606299212598426,
          "duration": 2
        },
        {
          "name": "C#5",
          "midi": 73,
          "time": 35.50000000000001,
          "velocity": 0.49606299212598426,
          "duration": 2
        },
        {
          "name": "G#4",
          "midi": 68,
          "time": 35.50000000000001,
          "velocity": 0.49606299212598426,
          "duration": 1
        },
        {
          "name": "G#4",
          "midi": 68,
          "time": 36.50000000000001,
          "velocity": 0.49606299212598426,
          "duration": 1
        },
        {
          "name": "G#5",
          "midi": 80,
          "time": 36.50000000000001,
          "velocity": 0.49606299212598426,
          "duration": 1
        },
        {
          "name": "G5",
          "midi": 79,
          "time": 37.50000000000001,
          "velocity": 0.49606299212598426,
          "duration": 2
        },
        {
          "name": "C5",
          "midi": 72,
          "time": 37.50000000000001,
          "velocity": 0.49606299212598426,
          "duration": 1
        },
        {
          "name": "G4",
          "midi": 67,
          "time": 37.50000000000001,
          "velocity": 0.49606299212598426,
          "duration": 1
        },
        {
          "name": "C5",
          "midi": 72,
          "time": 38.50000000000001,
          "velocity": 0.49606299212598426,
          "duration": 1
        },
        {
          "name": "G4",
          "midi": 67,
          "time": 38.50000000000001,
          "velocity": 0.49606299212598426,
          "duration": 1
        },
        {
          "name": "C4",
          "midi": 60,
          "time": 38.50000000000001,
          "velocity": 0.49606299212598426,
          "duration": 2
        },
        {
          "name": "A4",
          "midi": 69,
          "time": 39.50000000000001,
          "velocity": 0.49606299212598426,
          "duration": 2
        },
        {
          "name": "G5",
          "midi": 79,
          "time": 40.50000000000001,
          "velocity": 0.49606299212598426,
          "duration": 1
        },
        {
          "name": "A4",
          "midi": 69,
          "time": 41.50000000000001,
          "velocity": 0.49606299212598426,
          "duration": 4
        },
        {
          "name": "D5",
          "midi": 74,
          "time": 41.50000000000001,
          "velocity": 0.49606299212598426,
          "duration": 4
        },
        {
          "name": "G5",
          "midi": 79,
          "time": 41.50000000000001,
          "velocity": 0.49606299212598426,
          "duration": 4
        },
        {
          "name": "F5",
          "midi": 77,
          "time": 45.50000000000001,
          "velocity": 0.4881889763779528,
          "duration": 2
        },
        {
          "name": "C6",
          "midi": 84,
          "time": 45.50000000000001,
          "velocity": 0.4881889763779528,
          "duration": 2
        },
        {
          "name": "D6",
          "midi": 86,
          "time": 46.50000000000001,
          "velocity": 0.4881889763779528,
          "duration": 1
        },
        {
          "name": "D6",
          "midi": 86,
          "time": 47.50000000000001,
          "velocity": 0.4881889763779528,
          "duration": 4
        },
        {
          "name": "G5",
          "midi": 79,
          "time": 47.50000000000001,
          "velocity": 0.4881889763779528,
          "duration": 4
        },
        {
          "name": "G4",
          "midi": 67,
          "time": 54.50000000000001,
          "velocity": 0.7874015748031497,
          "duration": 1
        },
        {
          "name": "B4",
          "midi": 71,
          "time": 54.50000000000001,
          "velocity": 0.7874015748031497,
          "duration": 1
        },
        {
          "name": "D5",
          "midi": 74,
          "time": 54.75000000000001,
          "velocity": 0.7874015748031497,
          "duration": 0.75
        },
        {
          "name": "D#5",
          "midi": 75,
          "time": 55.00000000000001,
          "velocity": 0.7874015748031497,
          "duration": 0.5
        },
        {
          "name": "F5",
          "midi": 77,
          "time": 55.25000000000001,
          "velocity": 0.7874015748031497,
          "duration": 0.25
        },
        {
          "name": "C5",
          "midi": 72,
          "time": 55.50000000000001,
          "velocity": 0.7874015748031497,
          "duration": 0.5
        },
        {
          "name": "C5",
          "midi": 72,
          "time": 56.00000000000001,
          "velocity": 0.7874015748031497,
          "duration": 0.5
        },
        {
          "name": "G5",
          "midi": 79,
          "time": 56.25000000000001,
          "velocity": 0.7874015748031497,
          "duration": 0.25
        },
        {
          "name": "G#5",
          "midi": 80,
          "time": 56.50000000000001,
          "velocity": 0.7874015748031497,
          "duration": 0.25
        },
        {
          "name": "D#5",
          "midi": 75,
          "time": 56.50000000000001,
          "velocity": 0.7874015748031497,
          "duration": 1
        },
        {
          "name": "G5",
          "midi": 79,
          "time": 56.75000000000001,
          "velocity": 0.7874015748031497,
          "duration": 0.25
        },
        {
          "name": "F#5",
          "midi": 78,
          "time": 57.00000000000001,
          "velocity": 0.7874015748031497,
          "duration": 0.25
        },
        {
          "name": "G5",
          "midi": 79,
          "time": 57.25000000000001,
          "velocity": 0.7874015748031497,
          "duration": 0.25
        },
        {
          "name": "G5",
          "midi": 79,
          "time": 57.50000000000001,
          "velocity": 0.7874015748031497,
          "duration": 0.75
        },
        {
          "name": "B4",
          "midi": 71,
          "time": 57.75000000000001,
          "velocity": 0.7874015748031497,
          "duration": 0.75
        },
        {
          "name": "D5",
          "midi": 74,
          "time": 58.00000000000001,
          "velocity": 0.7874015748031497,
          "duration": 0.5
        },
        {
          "name": "G5",
          "midi": 79,
          "time": 58.25000000000001,
          "velocity": 0.7874015748031497,
          "duration": 0.25
        },
        {
          "name": "D5",
          "midi": 74,
          "time": 58.50000000000001,
          "velocity": 0.7874015748031497,
          "duration": 1
        },
        {
          "name": "A#4",
          "midi": 70,
          "time": 58.75000000000001,
          "velocity": 0.7874015748031497,
          "duration": 0.75
        },
        {
          "name": "E5",
          "midi": 76,
          "time": 59.00000000000001,
          "velocity": 0.7874015748031497,
          "duration": 0.5
        },
        {
          "name": "C5",
          "midi": 72,
          "time": 59.25000000000001,
          "velocity": 0.7874015748031497,
          "duration": 0.25
        },
        {
          "name": "F5",
          "midi": 77,
          "time": 59.50000000000001,
          "velocity": 0.7874015748031497,
          "duration": 0.75
        },
        {
          "name": "A4",
          "midi": 69,
          "time": 59.75000000000001,
          "velocity": 0.7874015748031497,
          "duration": 0.75
        },
        {
          "name": "C5",
          "midi": 72,
          "time": 60.00000000000001,
          "velocity": 0.7874015748031497,
          "duration": 0.5
        },
        {
          "name": "F5",
          "midi": 77,
          "time": 60.25000000000001,
          "velocity": 0.7874015748031497,
          "duration": 0.25
        },
        {
          "name": "D#5",
          "midi": 75,
          "time": 60.50000000000001,
          "velocity": 0.7874015748031497,
          "duration": 1
        },
        {
          "name": "D5",
          "midi": 74,
          "time": 60.75000000000001,
          "velocity": 0.7874015748031497,
          "duration": 0.75
        },
        {
          "name": "C#5",
          "midi": 73,
          "time": 61.00000000000001,
          "velocity": 0.7874015748031497,
          "duration": 0.5
        },
        {
          "name": "C5",
          "midi": 72,
          "time": 61.25000000000001,
          "velocity": 0.7874015748031497,
          "duration": 0.25
        },
        {
          "name": "A#4",
          "midi": 70,
          "time": 61.50000000000001,
          "velocity": 0.7874015748031497,
          "duration": 0.25
        },
        {
          "name": "A#4",
          "midi": 70,
          "time": 61.75000000000001,
          "velocity": 0.7874015748031497,
          "duration": 0.5
        },
        {
          "name": "D#5",
          "midi": 75,
          "time": 62.00000000000001,
          "velocity": 0.7874015748031497,
          "duration": 0.5
        },
        {
          "name": "A#4",
          "midi": 70,
          "time": 62.25000000000001,
          "velocity": 0.7874015748031497,
          "duration": 0.25
        },
        {
          "name": "G5",
          "midi": 79,
          "time": 62.50000000000001,
          "velocity": 0.7874015748031497,
          "duration": 1
        },
        {
          "name": "D#5",
          "midi": 75,
          "time": 62.75000000000001,
          "velocity": 0.7874015748031497,
          "duration": 0.75
        },
        {
          "name": "A#5",
          "midi": 82,
          "time": 63.00000000000001,
          "velocity": 0.7874015748031497,
          "duration": 0.5
        },
        {
          "name": "F5",
          "midi": 77,
          "time": 63.25000000000001,
          "velocity": 0.7874015748031497,
          "duration": 0.25
        },
        {
          "name": "A#5",
          "midi": 82,
          "time": 63.50000000000001,
          "velocity": 0.7874015748031497,
          "duration": 0.9999999999999929
        },
        {
          "name": "F5",
          "midi": 77,
          "time": 63.50000000000001,
          "velocity": 0.7874015748031497,
          "duration": 0.7499999999999929
        },
        {
          "name": "A#4",
          "midi": 70,
          "time": 63.50000000000001,
          "velocity": 0.7874015748031497,
          "duration": 0.9999999999999929
        },
        {
          "name": "F5",
          "midi": 77,
          "time": 64.25,
          "velocity": 0.7874015748031497,
          "duration": 0.25
        },
        {
          "name": "G#5",
          "midi": 80,
          "time": 64.25,
          "velocity": 0.7874015748031497,
          "duration": 0.25
        },
        {
          "name": "C5",
          "midi": 72,
          "time": 64.25,
          "velocity": 0.7874015748031497,
          "duration": 0.25
        },
        {
          "name": "G#5",
          "midi": 80,
          "time": 64.5,
          "velocity": 0.7874015748031497,
          "duration": 1
        },
        {
          "name": "A#5",
          "midi": 82,
          "time": 64.75,
          "velocity": 0.7874015748031497,
          "duration": 0.75
        },
        {
          "name": "C6",
          "midi": 84,
          "time": 65,
          "velocity": 0.7874015748031497,
          "duration": 0.5
        },
        {
          "name": "F6",
          "midi": 89,
          "time": 65.25,
          "velocity": 0.7874015748031497,
          "duration": 0.25
        },
        {
          "name": "G#4",
          "midi": 68,
          "time": 65.5,
          "velocity": 0.7874015748031497,
          "duration": 1
        },
        {
          "name": "A#4",
          "midi": 70,
          "time": 65.5,
          "velocity": 0.7874015748031497,
          "duration": 0.75
        },
        {
          "name": "D#5",
          "midi": 75,
          "time": 65.5,
          "velocity": 0.7874015748031497,
          "duration": 0.75
        },
        {
          "name": "G#5",
          "midi": 80,
          "time": 65.5,
          "velocity": 0.7874015748031497,
          "duration": 1
        },
        {
          "name": "G5",
          "midi": 79,
          "time": 66.25,
          "velocity": 0.7874015748031497,
          "duration": 0.25
        },
        {
          "name": "D#5",
          "midi": 75,
          "time": 66.25,
          "velocity": 0.7874015748031497,
          "duration": 0.25
        },
        {
          "name": "A#4",
          "midi": 70,
          "time": 66.25,
          "velocity": 0.7874015748031497,
          "duration": 0.25
        },
        {
          "name": "G5",
          "midi": 79,
          "time": 66.5,
          "velocity": 0.7874015748031497,
          "duration": 1
        },
        {
          "name": "A#5",
          "midi": 82,
          "time": 66.75,
          "velocity": 0.7874015748031497,
          "duration": 0.75
        },
        {
          "name": "D#6",
          "midi": 87,
          "time": 67,
          "velocity": 0.7874015748031497,
          "duration": 0.5
        },
        {
          "name": "A#6",
          "midi": 94,
          "time": 67.25,
          "velocity": 0.7874015748031497,
          "duration": 0.25
        },
        {
          "name": "B6",
          "midi": 95,
          "time": 67.5,
          "velocity": 0.7874015748031497,
          "duration": 2
        },
        {
          "name": "B5",
          "midi": 83,
          "time": 67.75,
          "velocity": 0.7874015748031497,
          "duration": 1.75
        },
        {
          "name": "G#6",
          "midi": 92,
          "time": 68,
          "velocity": 0.7874015748031497,
          "duration": 1.5
        },
        {
          "name": "G#5",
          "midi": 80,
          "time": 68.25,
          "velocity": 0.7874015748031497,
          "duration": 1.25
        },
        {
          "name": "F6",
          "midi": 89,
          "time": 68.5,
          "velocity": 0.7874015748031497,
          "duration": 1
        },
        {
          "name": "F5",
          "midi": 77,
          "time": 68.75,
          "velocity": 0.7874015748031497,
          "duration": 0.75
        },
        {
          "name": "G6",
          "midi": 91,
          "time": 69,
          "velocity": 0.7874015748031497,
          "duration": 0.5
        },
        {
          "name": "G5",
          "midi": 79,
          "time": 69.25,
          "velocity": 0.7874015748031497,
          "duration": 0.25
        },
        {
          "name": "G#6",
          "midi": 92,
          "time": 69.5,
          "velocity": 0.7874015748031497,
          "duration": 2.0000000000000284
        },
        {
          "name": "G6",
          "midi": 91,
          "time": 69.75,
          "velocity": 0.7874015748031497,
          "duration": 1.7500000000000284
        },
        {
          "name": "F6",
          "midi": 89,
          "time": 70,
          "velocity": 0.7874015748031497,
          "duration": 1.5000000000000284
        },
        {
          "name": "D#6",
          "midi": 87,
          "time": 70.25,
          "velocity": 0.7874015748031497,
          "duration": 1.2500000000000284
        },
        {
          "name": "D6",
          "midi": 86,
          "time": 70.5,
          "velocity": 0.7874015748031497,
          "duration": 1.0000000000000284
        },
        {
          "name": "C#6",
          "midi": 85,
          "time": 70.66666666666667,
          "velocity": 0.7874015748031497,
          "duration": 0.833333333333357
        },
        {
          "name": "B5",
          "midi": 83,
          "time": 70.83333333333334,
          "velocity": 0.7874015748031497,
          "duration": 0.6666666666666856
        },
        {
          "name": "G#5",
          "midi": 80,
          "time": 71.00000000000001,
          "velocity": 0.7874015748031497,
          "duration": 0.5000000000000142
        },
        {
          "name": "G5",
          "midi": 79,
          "time": 71.16666666666669,
          "velocity": 0.7874015748031497,
          "duration": 0.3333333333333428
        },
        {
          "name": "F5",
          "midi": 77,
          "time": 71.33333333333336,
          "velocity": 0.7874015748031497,
          "duration": 0.1666666666666714
        },
        {
          "name": "C5",
          "midi": 72,
          "time": 71.50000000000003,
          "velocity": 0.7874015748031497,
          "duration": 0.75
        },
        {
          "name": "D#5",
          "midi": 75,
          "time": 71.75000000000003,
          "velocity": 0.7874015748031497,
          "duration": 0.75
        },
        {
          "name": "G5",
          "midi": 79,
          "time": 72.00000000000003,
          "velocity": 0.7874015748031497,
          "duration": 0.5
        },
        {
          "name": "C5",
          "midi": 72,
          "time": 72.25000000000003,
          "velocity": 0.7874015748031497,
          "duration": 0.25
        },
        {
          "name": "G#5",
          "midi": 80,
          "time": 72.50000000000003,
          "velocity": 0.7874015748031497,
          "duration": 1
        },
        {
          "name": "D#5",
          "midi": 75,
          "time": 72.75000000000003,
          "velocity": 0.7874015748031497,
          "duration": 0.75
        },
        {
          "name": "F#5",
          "midi": 78,
          "time": 73.00000000000003,
          "velocity": 0.7874015748031497,
          "duration": 0.5
        },
        {
          "name": "C5",
          "midi": 72,
          "time": 73.25000000000003,
          "velocity": 0.7874015748031497,
          "duration": 0.25
        },
        {
          "name": "G5",
          "midi": 79,
          "time": 73.50000000000003,
          "velocity": 0.7874015748031497,
          "duration": 0.75
        },
        {
          "name": "B5",
          "midi": 83,
          "time": 73.75000000000003,
          "velocity": 0.7874015748031497,
          "duration": 0.75
        },
        {
          "name": "D6",
          "midi": 86,
          "time": 74.00000000000003,
          "velocity": 0.7874015748031497,
          "duration": 0.5
        },
        {
          "name": "G5",
          "midi": 79,
          "time": 74.25000000000003,
          "velocity": 0.7874015748031497,
          "duration": 0.25
        },
        {
          "name": "E6",
          "midi": 88,
          "time": 74.50000000000003,
          "velocity": 0.7874015748031497,
          "duration": 1
        },
        {
          "name": "A#5",
          "midi": 82,
          "time": 74.75000000000003,
          "velocity": 0.7874015748031497,
          "duration": 0.75
        },
        {
          "name": "C6",
          "midi": 84,
          "time": 75.00000000000003,
          "velocity": 0.7874015748031497,
          "duration": 0.5
        },
        {
          "name": "G5",
          "midi": 79,
          "time": 75.25000000000003,
          "velocity": 0.7874015748031497,
          "duration": 0.25
        },
        {
          "name": "F5",
          "midi": 77,
          "time": 75.50000000000003,
          "velocity": 0.7874015748031497,
          "duration": 0.75
        },
        {
          "name": "C5",
          "midi": 72,
          "time": 75.75000000000003,
          "velocity": 0.7874015748031497,
          "duration": 0.75
        },
        {
          "name": "C6",
          "midi": 84,
          "time": 76.00000000000003,
          "velocity": 0.7874015748031497,
          "duration": 0.5
        },
        {
          "name": "F5",
          "midi": 77,
          "time": 76.25000000000003,
          "velocity": 0.7874015748031497,
          "duration": 0.25
        },
        {
          "name": "D6",
          "midi": 86,
          "time": 76.50000000000003,
          "velocity": 0.7874015748031497,
          "duration": 1
        },
        {
          "name": "D#6",
          "midi": 87,
          "time": 76.75000000000003,
          "velocity": 0.7874015748031497,
          "duration": 0.75
        },
        {
          "name": "F6",
          "midi": 89,
          "time": 77.00000000000003,
          "velocity": 0.7874015748031497,
          "duration": 0.5
        },
        {
          "name": "A#5",
          "midi": 82,
          "time": 77.25000000000003,
          "velocity": 0.7874015748031497,
          "duration": 0.25
        },
        {
          "name": "A#4",
          "midi": 70,
          "time": 77.50000000000003,
          "velocity": 0.7874015748031497,
          "duration": 0.75
        },
        {
          "name": "A#5",
          "midi": 82,
          "time": 77.75000000000003,
          "velocity": 0.7874015748031497,
          "duration": 0.75
        },
        {
          "name": "D#5",
          "midi": 75,
          "time": 78.00000000000003,
          "velocity": 0.7874015748031497,
          "duration": 0.5
        },
        {
          "name": "A#4",
          "midi": 70,
          "time": 78.25000000000003,
          "velocity": 0.7874015748031497,
          "duration": 0.25
        },
        {
          "name": "G5",
          "midi": 79,
          "time": 78.50000000000003,
          "velocity": 0.7874015748031497,
          "duration": 1
        },
        {
          "name": "D#5",
          "midi": 75,
          "time": 78.75000000000003,
          "velocity": 0.7874015748031497,
          "duration": 0.75
        },
        {
          "name": "A#5",
          "midi": 82,
          "time": 79.00000000000003,
          "velocity": 0.7874015748031497,
          "duration": 0.5
        },
        {
          "name": "A#4",
          "midi": 70,
          "time": 79.25000000000003,
          "velocity": 0.7874015748031497,
          "duration": 0.25
        },
        {
          "name": "G#4",
          "midi": 68,
          "time": 79.50000000000003,
          "velocity": 0.7874015748031497,
          "duration": 2
        },
        {
          "name": "C5",
          "midi": 72,
          "time": 79.50000000000003,
          "velocity": 0.7874015748031497,
          "duration": 2
        },
        {
          "name": "F5",
          "midi": 77,
          "time": 79.50000000000003,
          "velocity": 0.7874015748031497,
          "duration": 0.75
        },
        {
          "name": "G#5",
          "midi": 80,
          "time": 79.50000000000003,
          "velocity": 0.7874015748031497,
          "duration": 1
        },
        {
          "name": "F5",
          "midi": 77,
          "time": 80.25000000000003,
          "velocity": 0.7874015748031497,
          "duration": 1.25
        },
        {
          "name": "G5",
          "midi": 79,
          "time": 80.50000000000003,
          "velocity": 0.7874015748031497,
          "duration": 1
        },
        {
          "name": "G#5",
          "midi": 80,
          "time": 80.75000000000003,
          "velocity": 0.7874015748031497,
          "duration": 0.75
        },
        {
          "name": "C6",
          "midi": 84,
          "time": 81.00000000000003,
          "velocity": 0.7874015748031497,
          "duration": 0.5
        },
        {
          "name": "F6",
          "midi": 89,
          "time": 81.25000000000003,
          "velocity": 0.7874015748031497,
          "duration": 0.25
        },
        {
          "name": "C5",
          "midi": 72,
          "time": 81.50000000000003,
          "velocity": 0.7874015748031497,
          "duration": 2
        },
        {
          "name": "D#5",
          "midi": 75,
          "time": 81.50000000000003,
          "velocity": 0.7874015748031497,
          "duration": 2
        },
        {
          "name": "G5",
          "midi": 79,
          "time": 81.50000000000003,
          "velocity": 0.7874015748031497,
          "duration": 0.75
        },
        {
          "name": "C6",
          "midi": 84,
          "time": 81.50000000000003,
          "velocity": 0.7874015748031497,
          "duration": 1.25
        },
        {
          "name": "G5",
          "midi": 79,
          "time": 82.25000000000003,
          "velocity": 0.7874015748031497,
          "duration": 1.25
        },
        {
          "name": "G#5",
          "midi": 80,
          "time": 82.50000000000003,
          "velocity": 0.7874015748031497,
          "duration": 1
        },
        {
          "name": "C6",
          "midi": 84,
          "time": 82.75000000000003,
          "velocity": 0.7874015748031497,
          "duration": 0.75
        },
        {
          "name": "D#6",
          "midi": 87,
          "time": 83.00000000000003,
          "velocity": 0.7874015748031497,
          "duration": 0.5
        },
        {
          "name": "G#6",
          "midi": 92,
          "time": 83.25000000000003,
          "velocity": 0.7874015748031497,
          "duration": 0.25
        },
        {
          "name": "G#4",
          "midi": 68,
          "time": 83.50000000000003,
          "velocity": 0.7874015748031497,
          "duration": 2
        },
        {
          "name": "C5",
          "midi": 72,
          "time": 83.50000000000003,
          "velocity": 0.7874015748031497,
          "duration": 2
        },
        {
          "name": "F5",
          "midi": 77,
          "time": 83.50000000000003,
          "velocity": 0.7874015748031497,
          "duration": 0.75
        },
        {
          "name": "G#5",
          "midi": 80,
          "time": 83.50000000000003,
          "velocity": 0.7874015748031497,
          "duration": 1
        },
        {
          "name": "F5",
          "midi": 77,
          "time": 84.25000000000003,
          "velocity": 0.7874015748031497,
          "duration": 1.25
        },
        {
          "name": "G5",
          "midi": 79,
          "time": 84.50000000000003,
          "velocity": 0.7874015748031497,
          "duration": 1
        },
        {
          "name": "G#5",
          "midi": 80,
          "time": 84.75000000000003,
          "velocity": 0.7874015748031497,
          "duration": 0.75
        },
        {
          "name": "C6",
          "midi": 84,
          "time": 85.00000000000003,
          "velocity": 0.7874015748031497,
          "duration": 0.5
        },
        {
          "name": "F6",
          "midi": 89,
          "time": 85.25000000000003,
          "velocity": 0.7874015748031497,
          "duration": 0.25
        },
        {
          "name": "D#5",
          "midi": 75,
          "time": 85.50000000000003,
          "velocity": 0.7874015748031497,
          "duration": 2
        },
        {
          "name": "G#5",
          "midi": 80,
          "time": 85.50000000000003,
          "velocity": 0.7874015748031497,
          "duration": 0.75
        },
        {
          "name": "C6",
          "midi": 84,
          "time": 85.50000000000003,
          "velocity": 0.7874015748031497,
          "duration": 1.25
        },
        {
          "name": "D#6",
          "midi": 87,
          "time": 85.50000000000003,
          "velocity": 0.7874015748031497,
          "duration": 1.5
        },
        {
          "name": "G#5",
          "midi": 80,
          "time": 86.25000000000003,
          "velocity": 0.7874015748031497,
          "duration": 0.25
        },
        {
          "name": "G#5",
          "midi": 80,
          "time": 86.50000000000003,
          "velocity": 0.7874015748031497,
          "duration": 1
        },
        {
          "name": "C6",
          "midi": 84,
          "time": 86.75000000000003,
          "velocity": 0.7874015748031497,
          "duration": 0.75
        },
        {
          "name": "D#6",
          "midi": 87,
          "time": 87.00000000000003,
          "velocity": 0.7874015748031497,
          "duration": 0.5
        },
        {
          "name": "G#6",
          "midi": 92,
          "time": 87.25000000000003,
          "velocity": 0.7874015748031497,
          "duration": 0.25
        },
        {
          "name": "D5",
          "midi": 74,
          "time": 87.50000000000003,
          "velocity": 0.7874015748031497,
          "duration": 2
        },
        {
          "name": "F5",
          "midi": 77,
          "time": 87.50000000000003,
          "velocity": 0.7874015748031497,
          "duration": 2
        },
        {
          "name": "B5",
          "midi": 83,
          "time": 87.50000000000003,
          "velocity": 0.7874015748031497,
          "duration": 0.75
        },
        {
          "name": "D6",
          "midi": 86,
          "time": 87.50000000000003,
          "velocity": 0.7874015748031497,
          "duration": 1
        },
        {
          "name": "B5",
          "midi": 83,
          "time": 88.25000000000003,
          "velocity": 0.7874015748031497,
          "duration": 1.25
        },
        {
          "name": "D6",
          "midi": 86,
          "time": 88.50000000000003,
          "velocity": 0.7874015748031497,
          "duration": 1
        },
        {
          "name": "D#6",
          "midi": 87,
          "time": 88.75000000000003,
          "velocity": 0.7874015748031497,
          "duration": 0.75
        },
        {
          "name": "F6",
          "midi": 89,
          "time": 89.00000000000003,
          "velocity": 0.7874015748031497,
          "duration": 0.5
        },
        {
          "name": "G#6",
          "midi": 92,
          "time": 89.25000000000003,
          "velocity": 0.7874015748031497,
          "duration": 0.25
        },
        {
          "name": "D#5",
          "midi": 75,
          "time": 89.50000000000003,
          "velocity": 0.7874015748031497,
          "duration": 2
        },
        {
          "name": "G#5",
          "midi": 80,
          "time": 89.50000000000003,
          "velocity": 0.7874015748031497,
          "duration": 0.75
        },
        {
          "name": "C6",
          "midi": 84,
          "time": 89.50000000000003,
          "velocity": 0.7874015748031497,
          "duration": 1.25
        },
        {
          "name": "D#6",
          "midi": 87,
          "time": 89.50000000000003,
          "velocity": 0.7874015748031497,
          "duration": 1.5
        },
        {
          "name": "G#5",
          "midi": 80,
          "time": 90.25000000000003,
          "velocity": 0.7874015748031497,
          "duration": 0.25
        },
        {
          "name": "G#5",
          "midi": 80,
          "time": 90.50000000000003,
          "velocity": 0.7874015748031497,
          "duration": 1
        },
        {
          "name": "C6",
          "midi": 84,
          "time": 90.75000000000003,
          "velocity": 0.7874015748031497,
          "duration": 0.75
        },
        {
          "name": "D#6",
          "midi": 87,
          "time": 91.00000000000003,
          "velocity": 0.7874015748031497,
          "duration": 0.5
        },
        {
          "name": "G6",
          "midi": 91,
          "time": 91.25000000000003,
          "velocity": 0.7874015748031497,
          "duration": 0.25
        },
        {
          "name": "C6",
          "midi": 84,
          "time": 91.50000000000003,
          "velocity": 0.7874015748031497,
          "duration": 0.25
        },
        {
          "name": "F6",
          "midi": 89,
          "time": 91.50000000000003,
          "velocity": 0.7874015748031497,
          "duration": 1
        },
        {
          "name": "G6",
          "midi": 91,
          "time": 91.75000000000003,
          "velocity": 0.7874015748031497,
          "duration": 0.5
        },
        {
          "name": "G#6",
          "midi": 92,
          "time": 92.00000000000003,
          "velocity": 0.7874015748031497,
          "duration": 1.5
        },
        {
          "name": "G6",
          "midi": 91,
          "time": 92.25000000000003,
          "velocity": 0.7874015748031497,
          "duration": 1.25
        },
        {
          "name": "F6",
          "midi": 89,
          "time": 92.50000000000003,
          "velocity": 0.7874015748031497,
          "duration": 1
        },
        {
          "name": "D#6",
          "midi": 87,
          "time": 92.75000000000003,
          "velocity": 0.7874015748031497,
          "duration": 0.75
        },
        {
          "name": "D6",
          "midi": 86,
          "time": 93.00000000000003,
          "velocity": 0.7874015748031497,
          "duration": 0.5
        },
        {
          "name": "B5",
          "midi": 83,
          "time": 93.25000000000003,
          "velocity": 0.7874015748031497,
          "duration": 0.75
        },
        {
          "name": "D6",
          "midi": 86,
          "time": 93.50000000000003,
          "velocity": 0.7874015748031497,
          "duration": 0.25
        },
        {
          "name": "C6",
          "midi": 84,
          "time": 93.75000000000003,
          "velocity": 0.7874015748031497,
          "duration": 1.75
        },
        {
          "name": "B5",
          "midi": 83,
          "time": 94.00000000000003,
          "velocity": 0.7874015748031497,
          "duration": 1.5
        },
        {
          "name": "G#5",
          "midi": 80,
          "time": 94.25000000000003,
          "velocity": 0.7874015748031497,
          "duration": 1.25
        },
        {
          "name": "G5",
          "midi": 79,
          "time": 94.50000000000003,
          "velocity": 0.7874015748031497,
          "duration": 1
        },
        {
          "name": "F5",
          "midi": 77,
          "time": 94.75000000000003,
          "velocity": 0.7874015748031497,
          "duration": 0.75
        },
        {
          "name": "D5",
          "midi": 74,
          "time": 95.00000000000003,
          "velocity": 0.7874015748031497,
          "duration": 0.5
        },
        {
          "name": "B4",
          "midi": 71,
          "time": 95.25000000000003,
          "velocity": 0.7874015748031497,
          "duration": 0.25
        },
        {
          "name": "E5",
          "midi": 76,
          "time": 95.50000000000003,
          "velocity": 0.7874015748031497,
          "duration": 1
        },
        {
          "name": "G4",
          "midi": 67,
          "time": 95.50000000000003,
          "velocity": 0.7874015748031497,
          "duration": 1
        },
        {
          "name": "E4",
          "midi": 64,
          "time": 95.50000000000003,
          "velocity": 0.7874015748031497,
          "duration": 1
        },
        {
          "name": "A#4",
          "midi": 70,
          "time": 96.00000000000003,
          "velocity": 0.7874015748031497,
          "duration": 0.5
        },
        {
          "name": "C5",
          "midi": 72,
          "time": 96.00000000000003,
          "velocity": 0.7874015748031497,
          "duration": 0.5
        },
        {
          "name": "A#4",
          "midi": 70,
          "time": 96.50000000000003,
          "velocity": 0.7874015748031497,
          "duration": 1
        },
        {
          "name": "C5",
          "midi": 72,
          "time": 96.75000000000003,
          "velocity": 0.7874015748031497,
          "duration": 0.75
        },
        {
          "name": "E5",
          "midi": 76,
          "time": 97.00000000000003,
          "velocity": 0.7874015748031497,
          "duration": 0.5
        },
        {
          "name": "F5",
          "midi": 77,
          "time": 97.25000000000003,
          "velocity": 0.7874015748031497,
          "duration": 0.25
        },
        {
          "name": "G4",
          "midi": 67,
          "time": 97.50000000000003,
          "velocity": 0.7874015748031497,
          "duration": 2
        },
        {
          "name": "E5",
          "midi": 76,
          "time": 97.50000000000003,
          "velocity": 0.7874015748031497,
          "duration": 2
        },
        {
          "name": "G5",
          "midi": 79,
          "time": 97.50000000000003,
          "velocity": 0.7874015748031497,
          "duration": 2
        },
        {
          "name": "A#4",
          "midi": 70,
          "time": 97.50000000000003,
          "velocity": 0.7874015748031497,
          "duration": 2
        },
        {
          "name": "A#5",
          "midi": 82,
          "time": 98.50000000000003,
          "velocity": 0.7874015748031497,
          "duration": 1
        },
        {
          "name": "C6",
          "midi": 84,
          "time": 98.75000000000003,
          "velocity": 0.7874015748031497,
          "duration": 0.75
        },
        {
          "name": "E6",
          "midi": 88,
          "time": 99.00000000000003,
          "velocity": 0.7874015748031497,
          "duration": 0.5
        },
        {
          "name": "F6",
          "midi": 89,
          "time": 99.25000000000003,
          "velocity": 0.7874015748031497,
          "duration": 0.25
        },
        {
          "name": "G6",
          "midi": 91,
          "time": 99.50000000000003,
          "velocity": 0.7874015748031497,
          "duration": 1
        },
        {
          "name": "E6",
          "midi": 88,
          "time": 99.50000000000003,
          "velocity": 0.7874015748031497,
          "duration": 0.75
        },
        {
          "name": "G5",
          "midi": 79,
          "time": 99.50000000000003,
          "velocity": 0.7874015748031497,
          "duration": 1
        },
        {
          "name": "E6",
          "midi": 88,
          "time": 100.25000000000003,
          "velocity": 0.7874015748031497,
          "duration": 0.25
        },
        {
          "name": "C6",
          "midi": 84,
          "time": 100.25000000000003,
          "velocity": 0.7874015748031497,
          "duration": 0.25
        },
        {
          "name": "E5",
          "midi": 76,
          "time": 100.25000000000003,
          "velocity": 0.7874015748031497,
          "duration": 0.25
        },
        {
          "name": "F5",
          "midi": 77,
          "time": 100.50000000000003,
          "velocity": 0.7874015748031497,
          "duration": 1
        },
        {
          "name": "G#5",
          "midi": 80,
          "time": 100.50000000000003,
          "velocity": 0.7874015748031497,
          "duration": 1
        },
        {
          "name": "F6",
          "midi": 89,
          "time": 100.50000000000003,
          "velocity": 0.7874015748031497,
          "duration": 1
        },
        {
          "name": "C5",
          "midi": 72,
          "time": 102.00000000000003,
          "velocity": 0.7874015748031497,
          "duration": 0.25
        },
        {
          "name": "C5",
          "midi": 72,
          "time": 102.25000000000003,
          "velocity": 0.7874015748031497,
          "duration": 0.25
        },
        {
          "name": "F5",
          "midi": 77,
          "time": 102.50000000000003,
          "velocity": 0.7874015748031497,
          "duration": 1
        },
        {
          "name": "D4",
          "midi": 62,
          "time": 103.50000000000003,
          "velocity": 0.7874015748031497,
          "duration": 1
        },
        {
          "name": "F4",
          "midi": 65,
          "time": 103.50000000000003,
          "velocity": 0.7874015748031497,
          "duration": 1
        },
        {
          "name": "D5",
          "midi": 74,
          "time": 103.50000000000003,
          "velocity": 0.7874015748031497,
          "duration": 1
        },
        {
          "name": "B4",
          "midi": 71,
          "time": 104.00000000000003,
          "velocity": 0.7874015748031497,
          "duration": 0.75
        },
        {
          "name": "G#4",
          "midi": 68,
          "time": 104.00000000000003,
          "velocity": 0.7874015748031497,
          "duration": 0.5
        },
        {
          "name": "G#4",
          "midi": 68,
          "time": 104.50000000000003,
          "velocity": 0.7874015748031497,
          "duration": 1
        },
        {
          "name": "B4",
          "midi": 71,
          "time": 104.75000000000003,
          "velocity": 0.7874015748031497,
          "duration": 0.75
        },
        {
          "name": "D5",
          "midi": 74,
          "time": 105.00000000000003,
          "velocity": 0.7874015748031497,
          "duration": 0.5
        },
        {
          "name": "D#5",
          "midi": 75,
          "time": 105.25000000000003,
          "velocity": 0.7874015748031497,
          "duration": 0.25
        },
        {
          "name": "G#4",
          "midi": 68,
          "time": 105.50000000000003,
          "velocity": 0.7874015748031497,
          "duration": 1
        },
        {
          "name": "B4",
          "midi": 71,
          "time": 105.50000000000003,
          "velocity": 0.7874015748031497,
          "duration": 1
        },
        {
          "name": "D5",
          "midi": 74,
          "time": 105.50000000000003,
          "velocity": 0.7874015748031497,
          "duration": 1
        },
        {
          "name": "F5",
          "midi": 77,
          "time": 105.50000000000003,
          "velocity": 0.7874015748031497,
          "duration": 1
        },
        {
          "name": "G#5",
          "midi": 80,
          "time": 106.50000000000003,
          "velocity": 0.7874015748031497,
          "duration": 1
        },
        {
          "name": "B5",
          "midi": 83,
          "time": 106.75000000000003,
          "velocity": 0.7874015748031497,
          "duration": 0.75
        },
        {
          "name": "D6",
          "midi": 86,
          "time": 107.00000000000003,
          "velocity": 0.7874015748031497,
          "duration": 0.5
        },
        {
          "name": "F6",
          "midi": 89,
          "time": 107.25000000000003,
          "velocity": 0.7874015748031497,
          "duration": 0.25
        },
        {
          "name": "F6",
          "midi": 89,
          "time": 107.50000000000003,
          "velocity": 0.7874015748031497,
          "duration": 1
        },
        {
          "name": "F5",
          "midi": 77,
          "time": 107.50000000000003,
          "velocity": 0.7874015748031497,
          "duration": 1
        },
        {
          "name": "G#5",
          "midi": 80,
          "time": 107.50000000000003,
          "velocity": 0.7874015748031497,
          "duration": 1
        },
        {
          "name": "B5",
          "midi": 83,
          "time": 107.50000000000003,
          "velocity": 0.7874015748031497,
          "duration": 1
        },
        {
          "name": "D6",
          "midi": 86,
          "time": 108.25000000000003,
          "velocity": 0.7874015748031497,
          "duration": 0.25
        },
        {
          "name": "A#5",
          "midi": 82,
          "time": 108.25000000000003,
          "velocity": 0.7874015748031497,
          "duration": 0.25
        },
        {
          "name": "D5",
          "midi": 74,
          "time": 108.25000000000003,
          "velocity": 0.7874015748031497,
          "duration": 0.25
        },
        {
          "name": "D#5",
          "midi": 75,
          "time": 108.50000000000003,
          "velocity": 0.7874015748031497,
          "duration": 1
        },
        {
          "name": "G5",
          "midi": 79,
          "time": 108.50000000000003,
          "velocity": 0.7874015748031497,
          "duration": 1
        },
        {
          "name": "A#5",
          "midi": 82,
          "time": 108.50000000000003,
          "velocity": 0.7874015748031497,
          "duration": 1
        },
        {
          "name": "D#6",
          "midi": 87,
          "time": 108.50000000000003,
          "velocity": 0.7874015748031497,
          "duration": 1
        },
        {
          "name": "A#4",
          "midi": 70,
          "time": 110.00000000000003,
          "velocity": 0.7874015748031497,
          "duration": 0.25
        },
        {
          "name": "A#4",
          "midi": 70,
          "time": 110.25000000000003,
          "velocity": 0.7874015748031497,
          "duration": 0.25
        },
        {
          "name": "D#5",
          "midi": 75,
          "time": 110.50000000000003,
          "velocity": 0.7874015748031497,
          "duration": 1
        },
        {
          "name": "A#4",
          "midi": 70,
          "time": 111.50000000000003,
          "velocity": 0.7874015748031497,
          "duration": 1
        },
        {
          "name": "C#5",
          "midi": 73,
          "time": 111.50000000000003,
          "velocity": 0.7874015748031497,
          "duration": 1
        },
        {
          "name": "E5",
          "midi": 76,
          "time": 111.50000000000003,
          "velocity": 0.7874015748031497,
          "duration": 1
        },
        {
          "name": "G5",
          "midi": 79,
          "time": 111.50000000000003,
          "velocity": 0.7874015748031497,
          "duration": 1
        },
        {
          "name": "A#4",
          "midi": 70,
          "time": 112.50000000000003,
          "velocity": 0.7874015748031497,
          "duration": 1
        },
        {
          "name": "E5",
          "midi": 76,
          "time": 112.75000000000003,
          "velocity": 0.7874015748031497,
          "duration": 0.75
        },
        {
          "name": "G5",
          "midi": 79,
          "time": 113.00000000000003,
          "velocity": 0.7874015748031497,
          "duration": 0.5
        },
        {
          "name": "G#5",
          "midi": 80,
          "time": 113.25000000000003,
          "velocity": 0.7874015748031497,
          "duration": 0.25
        },
        {
          "name": "A#5",
          "midi": 82,
          "time": 113.50000000000003,
          "velocity": 0.7874015748031497,
          "duration": 2
        },
        {
          "name": "G5",
          "midi": 79,
          "time": 113.50000000000003,
          "velocity": 0.7874015748031497,
          "duration": 2
        },
        {
          "name": "E5",
          "midi": 76,
          "time": 113.50000000000003,
          "velocity": 0.7874015748031497,
          "duration": 1
        },
        {
          "name": "A#4",
          "midi": 70,
          "time": 113.50000000000003,
          "velocity": 0.7874015748031497,
          "duration": 1.5
        },
        {
          "name": "E5",
          "midi": 76,
          "time": 114.50000000000003,
          "velocity": 0.7874015748031497,
          "duration": 0.25
        },
        {
          "name": "E5",
          "midi": 76,
          "time": 114.75000000000003,
          "velocity": 0.7874015748031497,
          "duration": 0.25
        },
        {
          "name": "A#4",
          "midi": 70,
          "time": 115.00000000000003,
          "velocity": 0.7874015748031497,
          "duration": 0.25
        },
        {
          "name": "A#4",
          "midi": 70,
          "time": 115.50000000000003,
          "velocity": 0.7874015748031497,
          "duration": 1
        },
        {
          "name": "G5",
          "midi": 79,
          "time": 115.50000000000003,
          "velocity": 0.7874015748031497,
          "duration": 0.75
        },
        {
          "name": "A#5",
          "midi": 82,
          "time": 115.50000000000003,
          "velocity": 0.7874015748031497,
          "duration": 1
        },
        {
          "name": "G5",
          "midi": 79,
          "time": 116.25000000000003,
          "velocity": 0.7874015748031497,
          "duration": 0.25
        },
        {
          "name": "G4",
          "midi": 67,
          "time": 116.25000000000003,
          "velocity": 0.7874015748031497,
          "duration": 0.25
        },
        {
          "name": "G#4",
          "midi": 68,
          "time": 116.50000000000003,
          "velocity": 0.7874015748031497,
          "duration": 1
        },
        {
          "name": "G#5",
          "midi": 80,
          "time": 116.50000000000003,
          "velocity": 0.7874015748031497,
          "duration": 1
        },
        {
          "name": "C5",
          "midi": 72,
          "time": 116.50000000000003,
          "velocity": 0.7874015748031497,
          "duration": 1
        },
        {
          "name": "G#4",
          "midi": 68,
          "time": 117.50000000000003,
          "velocity": 0.7874015748031497,
          "duration": 1
        },
        {
          "name": "C5",
          "midi": 72,
          "time": 118.00000000000003,
          "velocity": 0.7874015748031497,
          "duration": 0.25
        },
        {
          "name": "C5",
          "midi": 72,
          "time": 118.25000000000003,
          "velocity": 0.7874015748031497,
          "duration": 1.25
        },
        {
          "name": "G#5",
          "midi": 80,
          "time": 118.50000000000003,
          "velocity": 0.7874015748031497,
          "duration": 1
        },
        {
          "name": "G5",
          "midi": 79,
          "time": 118.75000000000003,
          "velocity": 0.7874015748031497,
          "duration": 0.75
        },
        {
          "name": "F5",
          "midi": 77,
          "time": 119.00000000000003,
          "velocity": 0.7874015748031497,
          "duration": 0.5
        },
        {
          "name": "D#5",
          "midi": 75,
          "time": 119.25000000000003,
          "velocity": 0.7874015748031497,
          "duration": 0.25
        },
        {
          "name": "G4",
          "midi": 67,
          "time": 119.50000000000003,
          "velocity": 0.7874015748031497,
          "duration": 2
        },
        {
          "name": "A#4",
          "midi": 70,
          "time": 119.75000000000003,
          "velocity": 0.7874015748031497,
          "duration": 1.75
        },
        {
          "name": "D#5",
          "midi": 75,
          "time": 120.00000000000003,
          "velocity": 0.7874015748031497,
          "duration": 1.5
        },
        {
          "name": "F5",
          "midi": 77,
          "time": 120.25000000000003,
          "velocity": 0.7874015748031497,
          "duration": 1.25
        },
        {
          "name": "G5",
          "midi": 79,
          "time": 120.50000000000003,
          "velocity": 0.7874015748031497,
          "duration": 1
        },
        {
          "name": "A#5",
          "midi": 82,
          "time": 120.75000000000003,
          "velocity": 0.7874015748031497,
          "duration": 0.75
        },
        {
          "name": "D#6",
          "midi": 87,
          "time": 121.00000000000003,
          "velocity": 0.7874015748031497,
          "duration": 0.5
        },
        {
          "name": "G6",
          "midi": 91,
          "time": 121.25000000000003,
          "velocity": 0.7874015748031497,
          "duration": 2.25
        },
        {
          "name": "G#6",
          "midi": 92,
          "time": 121.50000000000003,
          "velocity": 0.7874015748031497,
          "duration": 2
        },
        {
          "name": "F6",
          "midi": 89,
          "time": 121.75000000000003,
          "velocity": 0.7874015748031497,
          "duration": 1.75
        },
        {
          "name": "D6",
          "midi": 86,
          "time": 122.00000000000003,
          "velocity": 0.7874015748031497,
          "duration": 1.5
        },
        {
          "name": "A#5",
          "midi": 82,
          "time": 122.25000000000003,
          "velocity": 0.7874015748031497,
          "duration": 1.25
        },
        {
          "name": "G#5",
          "midi": 80,
          "time": 122.50000000000003,
          "velocity": 0.7874015748031497,
          "duration": 1
        },
        {
          "name": "F5",
          "midi": 77,
          "time": 122.75000000000003,
          "velocity": 0.7874015748031497,
          "duration": 0.75
        },
        {
          "name": "D5",
          "midi": 74,
          "time": 123.00000000000003,
          "velocity": 0.7874015748031497,
          "duration": 0.5
        },
        {
          "name": "A#4",
          "midi": 70,
          "time": 123.25000000000003,
          "velocity": 0.7874015748031497,
          "duration": 0.25
        },
        {
          "name": "D#5",
          "midi": 75,
          "time": 123.50000000000003,
          "velocity": 0.7874015748031497,
          "duration": 2
        },
        {
          "name": "D#5",
          "midi": 75,
          "time": 125.50000000000003,
          "velocity": 0.7874015748031497,
          "duration": 0.5
        },
        {
          "name": "A#4",
          "midi": 70,
          "time": 125.50000000000003,
          "velocity": 0.7874015748031497,
          "duration": 2
        },
        {
          "name": "F5",
          "midi": 77,
          "time": 126.00000000000003,
          "velocity": 0.7874015748031497,
          "duration": 1.5
        },
        {
          "name": "G5",
          "midi": 79,
          "time": 126.50000000000003,
          "velocity": 0.7874015748031497,
          "duration": 1
        },
        {
          "name": "A#5",
          "midi": 82,
          "time": 127.00000000000003,
          "velocity": 0.7874015748031497,
          "duration": 0.5
        },
        {
          "name": "A#5",
          "midi": 82,
          "time": 127.50000000000003,
          "velocity": 0.7874015748031497,
          "duration": 0.75
        },
        {
          "name": "A#4",
          "midi": 70,
          "time": 127.50000000000003,
          "velocity": 0.7874015748031497,
          "duration": 0.75
        },
        {
          "name": "G5",
          "midi": 79,
          "time": 128.25000000000003,
          "velocity": 0.7874015748031497,
          "duration": 0.25
        },
        {
          "name": "D#5",
          "midi": 75,
          "time": 128.25000000000003,
          "velocity": 0.7874015748031497,
          "duration": 0.25
        },
        {
          "name": "D#5",
          "midi": 75,
          "time": 128.50000000000003,
          "velocity": 0.7874015748031497,
          "duration": 1
        },
        {
          "name": "G#5",
          "midi": 80,
          "time": 128.50000000000003,
          "velocity": 0.7874015748031497,
          "duration": 1
        },
        {
          "name": "D5",
          "midi": 74,
          "time": 129.50000000000003,
          "velocity": 0.7874015748031497,
          "duration": 0.5
        },
        {
          "name": "D#5",
          "midi": 75,
          "time": 130.00000000000003,
          "velocity": 0.7874015748031497,
          "duration": 0.5
        },
        {
          "name": "F5",
          "midi": 77,
          "time": 130.50000000000003,
          "velocity": 0.7874015748031497,
          "duration": 1
        },
        {
          "name": "G#5",
          "midi": 80,
          "time": 131.00000000000003,
          "velocity": 0.7874015748031497,
          "duration": 0.5
        },
        {
          "name": "G#5",
          "midi": 80,
          "time": 131.50000000000003,
          "velocity": 0.7874015748031497,
          "duration": 1
        },
        {
          "name": "G#4",
          "midi": 68,
          "time": 131.50000000000003,
          "velocity": 0.7874015748031497,
          "duration": 1
        },
        {
          "name": "F5",
          "midi": 77,
          "time": 132.25000000000003,
          "velocity": 0.7874015748031497,
          "duration": 0.25
        },
        {
          "name": "A#4",
          "midi": 70,
          "time": 132.25000000000003,
          "velocity": 0.7874015748031497,
          "duration": 1.25
        },
        {
          "name": "G5",
          "midi": 79,
          "time": 132.50000000000003,
          "velocity": 0.7874015748031497,
          "duration": 1
        },
        {
          "name": "D#5",
          "midi": 75,
          "time": 132.50000000000003,
          "velocity": 0.7874015748031497,
          "duration": 1
        },
        {
          "name": "D#5",
          "midi": 75,
          "time": 133.50000000000003,
          "velocity": 0.7874015748031497,
          "duration": 0.5
        },
        {
          "name": "A#4",
          "midi": 70,
          "time": 133.50000000000003,
          "velocity": 0.7874015748031497,
          "duration": 0.5
        },
        {
          "name": "F5",
          "midi": 77,
          "time": 134.00000000000003,
          "velocity": 0.7874015748031497,
          "duration": 1.5
        },
        {
          "name": "G5",
          "midi": 79,
          "time": 134.54166666666669,
          "velocity": 0.7874015748031497,
          "duration": 1.5
        },
        {
          "name": "A#5",
          "midi": 82,
          "time": 135.00000000000003,
          "velocity": 0.7874015748031497,
          "duration": 1.5
        },
        {
          "name": "C6",
          "midi": 84,
          "time": 135.50000000000003,
          "velocity": 0.7874015748031497,
          "duration": 1.5
        },
        {
          "name": "C5",
          "midi": 72,
          "time": 135.50000000000003,
          "velocity": 0.7874015748031497,
          "duration": 1.5
        },
        {
          "name": "A4",
          "midi": 69,
          "time": 136.25000000000003,
          "velocity": 0.7874015748031497,
          "duration": 0.25
        },
        {
          "name": "E5",
          "midi": 76,
          "time": 136.25000000000003,
          "velocity": 0.7874015748031497,
          "duration": 0.25
        },
        {
          "name": "A4",
          "midi": 69,
          "time": 136.50000000000003,
          "velocity": 0.7874015748031497,
          "duration": 1
        },
        {
          "name": "F5",
          "midi": 77,
          "time": 136.50000000000003,
          "velocity": 0.7874015748031497,
          "duration": 1
        },
        {
          "name": "D5",
          "midi": 74,
          "time": 137.50000000000003,
          "velocity": 0.7874015748031497,
          "duration": 0.5
        },
        {
          "name": "D#5",
          "midi": 75,
          "time": 138.00000000000003,
          "velocity": 0.7874015748031497,
          "duration": 0.5
        },
        {
          "name": "F5",
          "midi": 77,
          "time": 138.50000000000003,
          "velocity": 0.7874015748031497,
          "duration": 0.5
        },
        {
          "name": "D5",
          "midi": 74,
          "time": 139.00000000000003,
          "velocity": 0.7874015748031497,
          "duration": 0.5
        },
        {
          "name": "D#5",
          "midi": 75,
          "time": 139.50000000000003,
          "velocity": 0.7874015748031497,
          "duration": 4
        },
        {
          "name": "D#6",
          "midi": 87,
          "time": 141.50000000000003,
          "velocity": 0.7874015748031497,
          "duration": 2
        },
        {
          "name": "F6",
          "midi": 89,
          "time": 142.00000000000003,
          "velocity": 0.7874015748031497,
          "duration": 1.5
        },
        {
          "name": "G6",
          "midi": 91,
          "time": 142.50000000000003,
          "velocity": 0.7874015748031497,
          "duration": 1
        },
        {
          "name": "A#6",
          "midi": 94,
          "time": 143.00000000000003,
          "velocity": 0.7874015748031497,
          "duration": 0.5
        },
        {
          "name": "A#6",
          "midi": 94,
          "time": 143.50000000000003,
          "velocity": 0.7874015748031497,
          "duration": 9.75
        },
        {
          "name": "G#6",
          "midi": 92,
          "time": 144.50000000000003,
          "velocity": 0.7874015748031497,
          "duration": 2.5
        },
        {
          "name": "D6",
          "midi": 86,
          "time": 145.50000000000003,
          "velocity": 0.7874015748031497,
          "duration": 7.5
        },
        {
          "name": "D#6",
          "midi": 87,
          "time": 146.00000000000003,
          "velocity": 0.7874015748031497,
          "duration": 8
        },
        {
          "name": "F6",
          "midi": 89,
          "time": 146.50000000000003,
          "velocity": 0.7874015748031497,
          "duration": 6.25
        },
        {
          "name": "G#6",
          "midi": 92,
          "time": 147.00000000000003,
          "velocity": 0.7874015748031497,
          "duration": 0.5
        },
        {
          "name": "G#6",
          "midi": 92,
          "time": 147.50000000000003,
          "velocity": 0.7874015748031497,
          "duration": 5.5
        },
        {
          "name": "G6",
          "midi": 91,
          "time": 148.50000000000003,
          "velocity": 0.7874015748031497,
          "duration": 5.5
        },
        {
          "name": "A#5",
          "midi": 82,
          "time": 148.50000000000003,
          "velocity": 0.7874015748031497,
          "duration": 3
        },
        {
          "name": "D#5",
          "midi": 75,
          "time": 149.50000000000003,
          "velocity": 0.7874015748031497,
          "duration": 1.5
        },
        {
          "name": "F5",
          "midi": 77,
          "time": 150.00000000000003,
          "velocity": 0.7874015748031497,
          "duration": 4
        },
        {
          "name": "G5",
          "midi": 79,
          "time": 150.50000000000003,
          "velocity": 0.7874015748031497,
          "duration": 4.5
        },
        {
          "name": "D#5",
          "midi": 75,
          "time": 151.00000000000003,
          "velocity": 0.7874015748031497,
          "duration": 2.75
        },
        {
          "name": "A#5",
          "midi": 82,
          "time": 151.50000000000003,
          "velocity": 0.7874015748031497,
          "duration": 2.75
        },
        {
          "name": "G#5",
          "midi": 80,
          "time": 152.50000000000003,
          "velocity": 0.7874015748031497,
          "duration": 2.75
        },
        {
          "name": "B4",
          "midi": 71,
          "time": 153.50000000000003,
          "velocity": 0.7874015748031497,
          "duration": 2.75
        },
        {
          "name": "D5",
          "midi": 74,
          "time": 154.00000000000003,
          "velocity": 0.7874015748031497,
          "duration": 0.5
        },
        {
          "name": "D5",
          "midi": 74,
          "time": 154.50000000000003,
          "velocity": 0.7874015748031497,
          "duration": 1
        },
        {
          "name": "G5",
          "midi": 79,
          "time": 155.00000000000003,
          "velocity": 0.7874015748031497,
          "duration": 1.25
        },
        {
          "name": "F5",
          "midi": 77,
          "time": 155.50000000000003,
          "velocity": 0.7874015748031497,
          "duration": 1.25
        },
        {
          "name": "D5",
          "midi": 74,
          "time": 155.50000000000003,
          "velocity": 0.7874015748031497,
          "duration": 1.25
        },
        {
          "name": "F5",
          "midi": 77,
          "time": 156.75000000000003,
          "velocity": 0.7874015748031497,
          "duration": 0.75
        },
        {
          "name": "G5",
          "midi": 79,
          "time": 157.00000000000003,
          "velocity": 0.7874015748031497,
          "duration": 0.75
        },
        {
          "name": "G#5",
          "midi": 80,
          "time": 157.25000000000003,
          "velocity": 0.7874015748031497,
          "duration": 0.5
        },
        {
          "name": "A#5",
          "midi": 82,
          "time": 157.50000000000003,
          "velocity": 0.7874015748031497,
          "duration": 2
        },
        {
          "name": "A#4",
          "midi": 70,
          "time": 157.50000000000003,
          "velocity": 0.7874015748031497,
          "duration": 2
        },
        {
          "name": "F5",
          "midi": 77,
          "time": 157.50000000000003,
          "velocity": 0.7874015748031497,
          "duration": 1
        },
        {
          "name": "F5",
          "midi": 77,
          "time": 158.50000000000003,
          "velocity": 0.7874015748031497,
          "duration": 1
        },
        {
          "name": "D#5",
          "midi": 75,
          "time": 159.50000000000003,
          "velocity": 0.7874015748031497,
          "duration": 2
        },
        {
          "name": "C5",
          "midi": 72,
          "time": 159.50000000000003,
          "velocity": 0.7874015748031497,
          "duration": 2
        },
        {
          "name": "G5",
          "midi": 79,
          "time": 160.50000000000003,
          "velocity": 0.7874015748031497,
          "duration": 3
        },
        {
          "name": "G#5",
          "midi": 80,
          "time": 160.75000000000003,
          "velocity": 0.7874015748031497,
          "duration": 1
        },
        {
          "name": "C6",
          "midi": 84,
          "time": 161.00000000000003,
          "velocity": 0.7874015748031497,
          "duration": 1.25
        },
        {
          "name": "D6",
          "midi": 86,
          "time": 161.25000000000003,
          "velocity": 0.7874015748031497,
          "duration": 2.25
        },
        {
          "name": "D#6",
          "midi": 87,
          "time": 161.50000000000003,
          "velocity": 0.7874015748031497,
          "duration": 2
        },
        {
          "name": "D#5",
          "midi": 75,
          "time": 161.50000000000003,
          "velocity": 0.7874015748031497,
          "duration": 2
        },
        {
          "name": "G#5",
          "midi": 80,
          "time": 161.75000000000003,
          "velocity": 0.7874015748031497,
          "duration": 1
        },
        {
          "name": "A#5",
          "midi": 82,
          "time": 162.00000000000003,
          "velocity": 0.7874015748031497,
          "duration": 1.5
        },
        {
          "name": "C6",
          "midi": 84,
          "time": 162.25000000000003,
          "velocity": 0.7874015748031497,
          "duration": 0.75
        },
        {
          "name": "F6",
          "midi": 89,
          "time": 162.50000000000003,
          "velocity": 0.7874015748031497,
          "duration": 0.75
        },
        {
          "name": "F5",
          "midi": 77,
          "time": 162.50000000000003,
          "velocity": 0.7874015748031497,
          "duration": 1
        },
        {
          "name": "G#5",
          "midi": 80,
          "time": 162.75000000000003,
          "velocity": 0.7874015748031497,
          "duration": 0.75
        },
        {
          "name": "C6",
          "midi": 84,
          "time": 163.00000000000003,
          "velocity": 0.7874015748031497,
          "duration": 0.5
        },
        {
          "name": "F6",
          "midi": 89,
          "time": 163.25000000000003,
          "velocity": 0.7874015748031497,
          "duration": 0.25
        },
        {
          "name": "G6",
          "midi": 91,
          "time": 163.50000000000003,
          "velocity": 0.7874015748031497,
          "duration": 4
        },
        {
          "name": "D#6",
          "midi": 87,
          "time": 163.75000000000003,
          "velocity": 0.7874015748031497,
          "duration": 3.75
        },
        {
          "name": "A#5",
          "midi": 82,
          "time": 164.00000000000003,
          "velocity": 0.7874015748031497,
          "duration": 3.5
        },
        {
          "name": "G5",
          "midi": 79,
          "time": 164.25000000000003,
          "velocity": 0.7874015748031497,
          "duration": 3.25
        },
        {
          "name": "F5",
          "midi": 77,
          "time": 164.50000000000003,
          "velocity": 0.7874015748031497,
          "duration": 3
        },
        {
          "name": "D#5",
          "midi": 75,
          "time": 164.75000000000003,
          "velocity": 0.7874015748031497,
          "duration": 2.75
        },
        {
          "name": "A#4",
          "midi": 70,
          "time": 165.00000000000003,
          "velocity": 0.7874015748031497,
          "duration": 2.5
        },
        {
          "name": "G4",
          "midi": 67,
          "time": 165.25000000000003,
          "velocity": 0.7874015748031497,
          "duration": 2.25
        },
        {
          "name": "F4",
          "midi": 65,
          "time": 165.50000000000003,
          "velocity": 0.7874015748031497,
          "duration": 2
        },
        {
          "name": "D#4",
          "midi": 63,
          "time": 165.75000000000003,
          "velocity": 0.7874015748031497,
          "duration": 1.75
        },
        {
          "name": "A#3",
          "midi": 58,
          "time": 166.00000000000003,
          "velocity": 0.7874015748031497,
          "duration": 1.5
        },
        {
          "name": "G3",
          "midi": 55,
          "time": 166.25000000000003,
          "velocity": 0.7874015748031497,
          "duration": 1.25
        },
        {
          "name": "F3",
          "midi": 53,
          "time": 166.50000000000003,
          "velocity": 0.7874015748031497,
          "duration": 1
        },
        {
          "name": "D#3",
          "midi": 51,
          "time": 166.75000000000003,
          "velocity": 0.7874015748031497,
          "duration": 0.75
        },
        {
          "name": "A#2",
          "midi": 46,
          "time": 167.00000000000003,
          "velocity": 0.7874015748031497,
          "duration": 0.5
        },
        {
          "name": "G2",
          "midi": 43,
          "time": 167.25000000000003,
          "velocity": 0.7874015748031497,
          "duration": 1.25
        },
        {
          "name": "B2",
          "midi": 47,
          "time": 167.50000000000003,
          "velocity": 0.7874015748031497,
          "duration": 4
        },
        {
          "name": "D3",
          "midi": 50,
          "time": 167.75000000000003,
          "velocity": 0.7874015748031497,
          "duration": 3.75
        },
        {
          "name": "F3",
          "midi": 53,
          "time": 168.00000000000003,
          "velocity": 0.7874015748031497,
          "duration": 3.5
        },
        {
          "name": "G#3",
          "midi": 56,
          "time": 168.25000000000003,
          "velocity": 0.7874015748031497,
          "duration": 3.25
        },
        {
          "name": "B3",
          "midi": 59,
          "time": 168.50000000000003,
          "velocity": 0.7874015748031497,
          "duration": 3
        },
        {
          "name": "D4",
          "midi": 62,
          "time": 168.75000000000003,
          "velocity": 0.7874015748031497,
          "duration": 2.75
        },
        {
          "name": "F4",
          "midi": 65,
          "time": 169.00000000000003,
          "velocity": 0.7874015748031497,
          "duration": 2.5
        },
        {
          "name": "G#4",
          "midi": 68,
          "time": 169.25000000000003,
          "velocity": 0.7874015748031497,
          "duration": 2.25
        },
        {
          "name": "B4",
          "midi": 71,
          "time": 169.50000000000003,
          "velocity": 0.7874015748031497,
          "duration": 2
        },
        {
          "name": "D5",
          "midi": 74,
          "time": 169.75000000000003,
          "velocity": 0.7874015748031497,
          "duration": 1.75
        },
        {
          "name": "F5",
          "midi": 77,
          "time": 170.00000000000003,
          "velocity": 0.7874015748031497,
          "duration": 1.5
        },
        {
          "name": "G#5",
          "midi": 80,
          "time": 170.25000000000003,
          "velocity": 0.7874015748031497,
          "duration": 1.25
        },
        {
          "name": "B5",
          "midi": 83,
          "time": 170.50000000000003,
          "velocity": 0.7874015748031497,
          "duration": 1
        },
        {
          "name": "D6",
          "midi": 86,
          "time": 170.75000000000003,
          "velocity": 0.7874015748031497,
          "duration": 0.75
        },
        {
          "name": "D#6",
          "midi": 87,
          "time": 171.00000000000003,
          "velocity": 0.7874015748031497,
          "duration": 0.5
        },
        {
          "name": "F6",
          "midi": 89,
          "time": 171.25000000000003,
          "velocity": 0.7874015748031497,
          "duration": 4.25
        },
        {
          "name": "G6",
          "midi": 91,
          "time": 171.50000000000003,
          "velocity": 0.7874015748031497,
          "duration": 4
        },
        {
          "name": "D#6",
          "midi": 87,
          "time": 171.75000000000003,
          "velocity": 0.7874015748031497,
          "duration": 3.75
        },
        {
          "name": "A#5",
          "midi": 82,
          "time": 172.00000000000003,
          "velocity": 0.7874015748031497,
          "duration": 3.5
        },
        {
          "name": "G5",
          "midi": 79,
          "time": 172.25000000000003,
          "velocity": 0.7874015748031497,
          "duration": 3.25
        },
        {
          "name": "F5",
          "midi": 77,
          "time": 172.50000000000003,
          "velocity": 0.7874015748031497,
          "duration": 3
        },
        {
          "name": "D#5",
          "midi": 75,
          "time": 172.75000000000003,
          "velocity": 0.7874015748031497,
          "duration": 2.75
        },
        {
          "name": "A#4",
          "midi": 70,
          "time": 173.00000000000003,
          "velocity": 0.7874015748031497,
          "duration": 2.5
        },
        {
          "name": "G4",
          "midi": 67,
          "time": 173.25000000000003,
          "velocity": 0.7874015748031497,
          "duration": 2.25
        },
        {
          "name": "F4",
          "midi": 65,
          "time": 173.50000000000003,
          "velocity": 0.7874015748031497,
          "duration": 2
        },
        {
          "name": "D#4",
          "midi": 63,
          "time": 173.75000000000003,
          "velocity": 0.7874015748031497,
          "duration": 1.75
        },
        {
          "name": "A#3",
          "midi": 58,
          "time": 174.00000000000003,
          "velocity": 0.7874015748031497,
          "duration": 1.5
        },
        {
          "name": "G3",
          "midi": 55,
          "time": 174.25000000000003,
          "velocity": 0.7874015748031497,
          "duration": 1.25
        },
        {
          "name": "F3",
          "midi": 53,
          "time": 174.50000000000003,
          "velocity": 0.7874015748031497,
          "duration": 1
        },
        {
          "name": "D#3",
          "midi": 51,
          "time": 174.75000000000003,
          "velocity": 0.7874015748031497,
          "duration": 0.75
        },
        {
          "name": "A#2",
          "midi": 46,
          "time": 175.00000000000003,
          "velocity": 0.7874015748031497,
          "duration": 0.5
        },
        {
          "name": "G2",
          "midi": 43,
          "time": 175.25000000000003,
          "velocity": 0.7874015748031497,
          "duration": 1.25
        },
        {
          "name": "B2",
          "midi": 47,
          "time": 175.50000000000003,
          "velocity": 0.7874015748031497,
          "duration": 4
        },
        {
          "name": "D3",
          "midi": 50,
          "time": 175.75000000000003,
          "velocity": 0.7874015748031497,
          "duration": 3.75
        },
        {
          "name": "F3",
          "midi": 53,
          "time": 176.00000000000003,
          "velocity": 0.7874015748031497,
          "duration": 3.5
        },
        {
          "name": "G#3",
          "midi": 56,
          "time": 176.25000000000003,
          "velocity": 0.7874015748031497,
          "duration": 3.25
        },
        {
          "name": "B3",
          "midi": 59,
          "time": 176.50000000000003,
          "velocity": 0.7874015748031497,
          "duration": 3
        },
        {
          "name": "D4",
          "midi": 62,
          "time": 176.75000000000003,
          "velocity": 0.7874015748031497,
          "duration": 2.75
        },
        {
          "name": "F4",
          "midi": 65,
          "time": 177.00000000000003,
          "velocity": 0.7874015748031497,
          "duration": 2.5
        },
        {
          "name": "G#4",
          "midi": 68,
          "time": 177.25000000000003,
          "velocity": 0.7874015748031497,
          "duration": 2.25
        },
        {
          "name": "B4",
          "midi": 71,
          "time": 177.50000000000003,
          "velocity": 0.7874015748031497,
          "duration": 2
        },
        {
          "name": "D5",
          "midi": 74,
          "time": 177.75000000000003,
          "velocity": 0.7874015748031497,
          "duration": 1.75
        },
        {
          "name": "F5",
          "midi": 77,
          "time": 178.00000000000003,
          "velocity": 0.7874015748031497,
          "duration": 1.5
        },
        {
          "name": "G#5",
          "midi": 80,
          "time": 178.25000000000003,
          "velocity": 0.7874015748031497,
          "duration": 1.25
        },
        {
          "name": "B5",
          "midi": 83,
          "time": 178.50000000000003,
          "velocity": 0.7874015748031497,
          "duration": 1
        },
        {
          "name": "D6",
          "midi": 86,
          "time": 178.75000000000003,
          "velocity": 0.7874015748031497,
          "duration": 0.75
        },
        {
          "name": "D#6",
          "midi": 87,
          "time": 179.00000000000003,
          "velocity": 0.7874015748031497,
          "duration": 0.5
        },
        {
          "name": "F6",
          "midi": 89,
          "time": 179.25000000000003,
          "velocity": 0.7874015748031497,
          "duration": 0.75
        },
        {
          "name": "G6",
          "midi": 91,
          "time": 179.50000000000003,
          "velocity": 0.7874015748031497,
          "duration": 4
        },
        {
          "name": "E6",
          "midi": 88,
          "time": 179.75000000000003,
          "velocity": 0.7874015748031497,
          "duration": 3.75
        },
        {
          "name": "C6",
          "midi": 84,
          "time": 180.00000000000003,
          "velocity": 0.7874015748031497,
          "duration": 3.5
        },
        {
          "name": "A#5",
          "midi": 82,
          "time": 180.25000000000003,
          "velocity": 0.7874015748031497,
          "duration": 3.25
        },
        {
          "name": "G5",
          "midi": 79,
          "time": 180.50000000000003,
          "velocity": 0.7874015748031497,
          "duration": 3
        },
        {
          "name": "E5",
          "midi": 76,
          "time": 180.75000000000003,
          "velocity": 0.7874015748031497,
          "duration": 2.75
        },
        {
          "name": "C5",
          "midi": 72,
          "time": 181.00000000000003,
          "velocity": 0.7874015748031497,
          "duration": 2.5
        },
        {
          "name": "A#4",
          "midi": 70,
          "time": 181.25000000000003,
          "velocity": 0.7874015748031497,
          "duration": 2.25
        },
        {
          "name": "G4",
          "midi": 67,
          "time": 181.50000000000003,
          "velocity": 0.7874015748031497,
          "duration": 2
        },
        {
          "name": "E4",
          "midi": 64,
          "time": 181.75000000000003,
          "velocity": 0.7874015748031497,
          "duration": 1.75
        },
        {
          "name": "C4",
          "midi": 60,
          "time": 182.00000000000003,
          "velocity": 0.7874015748031497,
          "duration": 1.5
        },
        {
          "name": "A#3",
          "midi": 58,
          "time": 182.25000000000003,
          "velocity": 0.7874015748031497,
          "duration": 1.25
        },
        {
          "name": "G3",
          "midi": 55,
          "time": 182.50000000000003,
          "velocity": 0.7874015748031497,
          "duration": 0.75
        },
        {
          "name": "E3",
          "midi": 52,
          "time": 182.75000000000003,
          "velocity": 0.7874015748031497,
          "duration": 0.25
        },
        {
          "name": "A#2",
          "midi": 46,
          "time": 183.00000000000003,
          "velocity": 0.7874015748031497,
          "duration": 0.5
        },
        {
          "name": "E3",
          "midi": 52,
          "time": 183.00000000000003,
          "velocity": 0.7874015748031497,
          "duration": 0.5
        },
        {
          "name": "G3",
          "midi": 55,
          "time": 183.25000000000003,
          "velocity": 0.7874015748031497,
          "duration": 0.25
        },
        {
          "name": "G#3",
          "midi": 56,
          "time": 183.50000000000003,
          "velocity": 0.7874015748031497,
          "duration": 0.75
        },
        {
          "name": "A#3",
          "midi": 58,
          "time": 183.75000000000003,
          "velocity": 0.7874015748031497,
          "duration": 3.75
        },
        {
          "name": "C4",
          "midi": 60,
          "time": 184.00000000000003,
          "velocity": 0.7874015748031497,
          "duration": 0.5
        },
        {
          "name": "G#3",
          "midi": 56,
          "time": 184.25000000000003,
          "velocity": 0.7874015748031497,
          "duration": 3.25
        },
        {
          "name": "B3",
          "midi": 59,
          "time": 184.50000000000003,
          "velocity": 0.7874015748031497,
          "duration": 0.75
        },
        {
          "name": "C4",
          "midi": 60,
          "time": 184.75000000000003,
          "velocity": 0.7874015748031497,
          "duration": 0.75
        },
        {
          "name": "D4",
          "midi": 62,
          "time": 185.00000000000003,
          "velocity": 0.7874015748031497,
          "duration": 0.75
        },
        {
          "name": "B3",
          "midi": 59,
          "time": 185.25000000000003,
          "velocity": 0.7874015748031497,
          "duration": 2.25
        },
        {
          "name": "C4",
          "midi": 60,
          "time": 185.50000000000003,
          "velocity": 0.7874015748031497,
          "duration": 0.75
        },
        {
          "name": "D4",
          "midi": 62,
          "time": 185.75000000000003,
          "velocity": 0.7874015748031497,
          "duration": 0.75
        },
        {
          "name": "D#4",
          "midi": 63,
          "time": 186.00000000000003,
          "velocity": 0.7874015748031497,
          "duration": 0.75
        },
        {
          "name": "C4",
          "midi": 60,
          "time": 186.25000000000003,
          "velocity": 0.7874015748031497,
          "duration": 1.25
        },
        {
          "name": "D4",
          "midi": 62,
          "time": 186.50000000000003,
          "velocity": 0.7874015748031497,
          "duration": 1
        },
        {
          "name": "D#4",
          "midi": 63,
          "time": 186.75000000000003,
          "velocity": 0.7874015748031497,
          "duration": 0.75
        },
        {
          "name": "F4",
          "midi": 65,
          "time": 187.00000000000003,
          "velocity": 0.7874015748031497,
          "duration": 0.5
        },
        {
          "name": "G#4",
          "midi": 68,
          "time": 187.25000000000003,
          "velocity": 0.7874015748031497,
          "duration": 0.5
        },
        {
          "name": "G4",
          "midi": 67,
          "time": 187.50000000000003,
          "velocity": 0.7874015748031497,
          "duration": 0.25
        },
        {
          "name": "G4",
          "midi": 67,
          "time": 187.75000000000003,
          "velocity": 0.7874015748031497,
          "duration": 0.25
        },
        {
          "name": "G#4",
          "midi": 68,
          "time": 188.00000000000003,
          "velocity": 0.7874015748031497,
          "duration": 0.5
        },
        {
          "name": "F4",
          "midi": 65,
          "time": 188.25000000000003,
          "velocity": 0.7874015748031497,
          "duration": 3.25
        },
        {
          "name": "G#4",
          "midi": 68,
          "time": 188.50000000000003,
          "velocity": 0.7874015748031497,
          "duration": 0.75
        },
        {
          "name": "B4",
          "midi": 71,
          "time": 188.75000000000003,
          "velocity": 0.7874015748031497,
          "duration": 2.75
        },
        {
          "name": "D5",
          "midi": 74,
          "time": 189.00000000000003,
          "velocity": 0.7874015748031497,
          "duration": 0.5
        },
        {
          "name": "G#4",
          "midi": 68,
          "time": 189.25000000000003,
          "velocity": 0.7874015748031497,
          "duration": 2.25
        },
        {
          "name": "D5",
          "midi": 74,
          "time": 189.50000000000003,
          "velocity": 0.7874015748031497,
          "duration": 0.75
        },
        {
          "name": "D#5",
          "midi": 75,
          "time": 189.75000000000003,
          "velocity": 0.7874015748031497,
          "duration": 1.75
        },
        {
          "name": "F5",
          "midi": 77,
          "time": 190.00000000000003,
          "velocity": 0.7874015748031497,
          "duration": 0.5
        },
        {
          "name": "D5",
          "midi": 74,
          "time": 190.25000000000003,
          "velocity": 0.7874015748031497,
          "duration": 1.25
        },
        {
          "name": "F5",
          "midi": 77,
          "time": 190.50000000000003,
          "velocity": 0.7874015748031497,
          "duration": 1
        },
        {
          "name": "G5",
          "midi": 79,
          "time": 190.75000000000003,
          "velocity": 0.7874015748031497,
          "duration": 0.75
        },
        {
          "name": "G#5",
          "midi": 80,
          "time": 191.00000000000003,
          "velocity": 0.7874015748031497,
          "duration": 0.5
        },
        {
          "name": "D6",
          "midi": 86,
          "time": 191.25000000000003,
          "velocity": 0.7874015748031497,
          "duration": 0.75
        },
        {
          "name": "G5",
          "midi": 79,
          "time": 191.50000000000003,
          "velocity": 0.7874015748031497,
          "duration": 2
        },
        {
          "name": "C6",
          "midi": 84,
          "time": 191.50000000000003,
          "velocity": 0.7874015748031497,
          "duration": 0.75
        },
        {
          "name": "B5",
          "midi": 83,
          "time": 191.75000000000003,
          "velocity": 0.7874015748031497,
          "duration": 1.75
        },
        {
          "name": "D6",
          "midi": 86,
          "time": 192.00000000000003,
          "velocity": 0.7874015748031497,
          "duration": 0.25
        },
        {
          "name": "C6",
          "midi": 84,
          "time": 192.25000000000003,
          "velocity": 0.7874015748031497,
          "duration": 1.25
        },
        {
          "name": "D#6",
          "midi": 87,
          "time": 192.50000000000003,
          "velocity": 0.7874015748031497,
          "duration": 1
        },
        {
          "name": "D6",
          "midi": 86,
          "time": 192.75000000000003,
          "velocity": 0.7874015748031497,
          "duration": 0.75
        },
        {
          "name": "G6",
          "midi": 91,
          "time": 193.00000000000003,
          "velocity": 0.7874015748031497,
          "duration": 0.5
        },
        {
          "name": "F6",
          "midi": 89,
          "time": 193.25000000000003,
          "velocity": 0.7874015748031497,
          "duration": 0.25
        },
        {
          "name": "G#6",
          "midi": 92,
          "time": 193.50000000000003,
          "velocity": 0.7874015748031497,
          "duration": 0.5
        },
        {
          "name": "G6",
          "midi": 91,
          "time": 193.75000000000003,
          "velocity": 0.7874015748031497,
          "duration": 0.5
        },
        {
          "name": "B6",
          "midi": 95,
          "time": 194.00000000000003,
          "velocity": 0.7874015748031497,
          "duration": 0.5
        },
        {
          "name": "G#6",
          "midi": 92,
          "time": 194.25000000000003,
          "velocity": 0.7874015748031497,
          "duration": 0.5
        },
        {
          "name": "F6",
          "midi": 89,
          "time": 194.50000000000003,
          "velocity": 0.7874015748031497,
          "duration": 0.5
        },
        {
          "name": "G6",
          "midi": 91,
          "time": 194.75000000000003,
          "velocity": 0.7874015748031497,
          "duration": 0.5
        },
        {
          "name": "G#6",
          "midi": 92,
          "time": 195.00000000000003,
          "velocity": 0.7874015748031497,
          "duration": 0.5
        },
        {
          "name": "D7",
          "midi": 98,
          "time": 195.25000000000003,
          "velocity": 0.7874015748031497,
          "duration": 0.25
        },
        {
          "name": "C6",
          "midi": 84,
          "time": 195.50000000000003,
          "velocity": 0.7874015748031497,
          "duration": 0.3333333333333428
        },
        {
          "name": "C7",
          "midi": 96,
          "time": 195.50000000000003,
          "velocity": 0.7874015748031497,
          "duration": 0.3333333333333428
        },
        {
          "name": "C6",
          "midi": 84,
          "time": 195.83333333333337,
          "velocity": 0.7874015748031497,
          "duration": 0.3333333333333428
        },
        {
          "name": "C7",
          "midi": 96,
          "time": 195.83333333333337,
          "velocity": 0.7874015748031497,
          "duration": 0.3333333333333428
        },
        {
          "name": "C6",
          "midi": 84,
          "time": 196.1666666666667,
          "velocity": 0.7874015748031497,
          "duration": 0.3333333333333428
        },
        {
          "name": "C7",
          "midi": 96,
          "time": 196.1666666666667,
          "velocity": 0.7874015748031497,
          "duration": 0.3333333333333428
        },
        {
          "name": "C6",
          "midi": 84,
          "time": 196.50000000000006,
          "velocity": 0.7874015748031497,
          "duration": 0.3333333333333428
        },
        {
          "name": "C7",
          "midi": 96,
          "time": 196.50000000000006,
          "velocity": 0.7874015748031497,
          "duration": 0.3333333333333428
        },
        {
          "name": "C6",
          "midi": 84,
          "time": 196.8333333333334,
          "velocity": 0.7874015748031497,
          "duration": 0.3333333333333428
        },
        {
          "name": "C7",
          "midi": 96,
          "time": 196.8333333333334,
          "velocity": 0.7874015748031497,
          "duration": 0.3333333333333428
        },
        {
          "name": "C6",
          "midi": 84,
          "time": 197.16666666666674,
          "velocity": 0.7874015748031497,
          "duration": 0.3333333333333428
        },
        {
          "name": "C7",
          "midi": 96,
          "time": 197.16666666666674,
          "velocity": 0.7874015748031497,
          "duration": 0.3333333333333428
        },
        {
          "name": "C6",
          "midi": 84,
          "time": 197.50000000000009,
          "velocity": 0.7874015748031497,
          "duration": 0.3333333333333428
        },
        {
          "name": "C7",
          "midi": 96,
          "time": 197.50000000000009,
          "velocity": 0.7874015748031497,
          "duration": 0.3333333333333428
        },
        {
          "name": "C6",
          "midi": 84,
          "time": 197.83333333333343,
          "velocity": 0.7874015748031497,
          "duration": 0.3333333333333428
        },
        {
          "name": "C7",
          "midi": 96,
          "time": 197.83333333333343,
          "velocity": 0.7874015748031497,
          "duration": 0.3333333333333428
        },
        {
          "name": "C6",
          "midi": 84,
          "time": 198.16666666666677,
          "velocity": 0.7874015748031497,
          "duration": 0.3333333333333428
        },
        {
          "name": "C7",
          "midi": 96,
          "time": 198.16666666666677,
          "velocity": 0.7874015748031497,
          "duration": 0.3333333333333428
        },
        {
          "name": "C6",
          "midi": 84,
          "time": 198.5000000000001,
          "velocity": 0.7874015748031497,
          "duration": 0.3333333333333428
        },
        {
          "name": "C7",
          "midi": 96,
          "time": 198.5000000000001,
          "velocity": 0.7874015748031497,
          "duration": 0.3333333333333428
        },
        {
          "name": "C6",
          "midi": 84,
          "time": 198.83333333333346,
          "velocity": 0.7874015748031497,
          "duration": 0.3333333333333428
        },
        {
          "name": "C7",
          "midi": 96,
          "time": 198.83333333333346,
          "velocity": 0.7874015748031497,
          "duration": 0.3333333333333428
        },
        {
          "name": "C6",
          "midi": 84,
          "time": 199.1666666666668,
          "velocity": 0.7874015748031497,
          "duration": 0.3333333333333428
        },
        {
          "name": "C7",
          "midi": 96,
          "time": 199.1666666666668,
          "velocity": 0.7874015748031497,
          "duration": 0.3333333333333428
        },
        {
          "name": "C6",
          "midi": 84,
          "time": 199.50000000000014,
          "velocity": 0.7874015748031497,
          "duration": 0.3333333333333428
        },
        {
          "name": "C7",
          "midi": 96,
          "time": 199.50000000000014,
          "velocity": 0.7874015748031497,
          "duration": 0.3333333333333428
        },
        {
          "name": "C6",
          "midi": 84,
          "time": 199.83333333333348,
          "velocity": 0.7874015748031497,
          "duration": 0.3333333333333428
        },
        {
          "name": "C7",
          "midi": 96,
          "time": 199.83333333333348,
          "velocity": 0.7874015748031497,
          "duration": 0.3333333333333428
        },
        {
          "name": "C6",
          "midi": 84,
          "time": 200.16666666666683,
          "velocity": 0.7874015748031497,
          "duration": 0.3333333333333428
        },
        {
          "name": "C7",
          "midi": 96,
          "time": 200.16666666666683,
          "velocity": 0.7874015748031497,
          "duration": 0.3333333333333428
        },
        {
          "name": "C6",
          "midi": 84,
          "time": 200.50000000000017,
          "velocity": 0.7874015748031497,
          "duration": 0.3333333333333428
        },
        {
          "name": "C7",
          "midi": 96,
          "time": 200.50000000000017,
          "velocity": 0.7874015748031497,
          "duration": 0.3333333333333428
        },
        {
          "name": "C6",
          "midi": 84,
          "time": 200.8333333333335,
          "velocity": 0.7874015748031497,
          "duration": 0.3333333333333428
        },
        {
          "name": "C7",
          "midi": 96,
          "time": 200.8333333333335,
          "velocity": 0.7874015748031497,
          "duration": 0.3333333333333428
        },
        {
          "name": "C6",
          "midi": 84,
          "time": 201.16666666666686,
          "velocity": 0.7874015748031497,
          "duration": 0.3333333333333428
        },
        {
          "name": "C7",
          "midi": 96,
          "time": 201.16666666666686,
          "velocity": 0.7874015748031497,
          "duration": 0.3333333333333428
        },
        {
          "name": "C6",
          "midi": 84,
          "time": 201.5000000000002,
          "velocity": 0.7874015748031497,
          "duration": 0.3333333333333428
        },
        {
          "name": "C7",
          "midi": 96,
          "time": 201.5000000000002,
          "velocity": 0.7874015748031497,
          "duration": 0.3333333333333428
        },
        {
          "name": "C6",
          "midi": 84,
          "time": 201.83333333333354,
          "velocity": 0.7874015748031497,
          "duration": 0.3333333333333428
        },
        {
          "name": "C7",
          "midi": 96,
          "time": 201.83333333333354,
          "velocity": 0.7874015748031497,
          "duration": 0.3333333333333428
        },
        {
          "name": "C6",
          "midi": 84,
          "time": 202.16666666666688,
          "velocity": 0.7874015748031497,
          "duration": 0.3333333333333428
        },
        {
          "name": "C7",
          "midi": 96,
          "time": 202.16666666666688,
          "velocity": 0.7874015748031497,
          "duration": 0.3333333333333428
        },
        {
          "name": "C6",
          "midi": 84,
          "time": 202.50000000000023,
          "velocity": 0.7874015748031497,
          "duration": 0.3333333333333428
        },
        {
          "name": "C7",
          "midi": 96,
          "time": 202.50000000000023,
          "velocity": 0.7874015748031497,
          "duration": 0.3333333333333428
        },
        {
          "name": "C6",
          "midi": 84,
          "time": 202.83333333333357,
          "velocity": 0.7874015748031497,
          "duration": 0.3333333333333428
        },
        {
          "name": "C7",
          "midi": 96,
          "time": 202.83333333333357,
          "velocity": 0.7874015748031497,
          "duration": 0.3333333333333428
        },
        {
          "name": "C6",
          "midi": 84,
          "time": 203.1666666666669,
          "velocity": 0.7874015748031497,
          "duration": 0.3333333333333428
        },
        {
          "name": "C7",
          "midi": 96,
          "time": 203.1666666666669,
          "velocity": 0.7874015748031497,
          "duration": 0.3333333333333428
        },
        {
          "name": "C6",
          "midi": 84,
          "time": 203.50000000000026,
          "velocity": 0.7874015748031497,
          "duration": 0.3333333333333428
        },
        {
          "name": "C7",
          "midi": 96,
          "time": 203.50000000000026,
          "velocity": 0.7874015748031497,
          "duration": 0.3333333333333428
        },
        {
          "name": "C6",
          "midi": 84,
          "time": 203.8333333333336,
          "velocity": 0.7874015748031497,
          "duration": 0.3333333333333428
        },
        {
          "name": "C7",
          "midi": 96,
          "time": 203.8333333333336,
          "velocity": 0.7874015748031497,
          "duration": 0.3333333333333428
        },
        {
          "name": "C6",
          "midi": 84,
          "time": 204.16666666666694,
          "velocity": 0.7874015748031497,
          "duration": 0.3333333333333428
        },
        {
          "name": "C7",
          "midi": 96,
          "time": 204.16666666666694,
          "velocity": 0.7874015748031497,
          "duration": 0.3333333333333428
        },
        {
          "name": "C6",
          "midi": 84,
          "time": 204.50000000000028,
          "velocity": 0.7874015748031497,
          "duration": 0.3333333333333428
        },
        {
          "name": "C7",
          "midi": 96,
          "time": 204.50000000000028,
          "velocity": 0.7874015748031497,
          "duration": 0.3333333333333428
        },
        {
          "name": "C6",
          "midi": 84,
          "time": 204.83333333333363,
          "velocity": 0.7874015748031497,
          "duration": 0.3333333333333428
        },
        {
          "name": "C7",
          "midi": 96,
          "time": 204.83333333333363,
          "velocity": 0.7874015748031497,
          "duration": 0.3333333333333428
        },
        {
          "name": "C6",
          "midi": 84,
          "time": 205.16666666666697,
          "velocity": 0.7874015748031497,
          "duration": 0.3333333333333428
        },
        {
          "name": "C7",
          "midi": 96,
          "time": 205.16666666666697,
          "velocity": 0.7874015748031497,
          "duration": 0.3333333333333428
        },
        {
          "name": "C6",
          "midi": 84,
          "time": 205.5000000000003,
          "velocity": 0.7874015748031497,
          "duration": 0.3333333333333428
        },
        {
          "name": "C7",
          "midi": 96,
          "time": 205.5000000000003,
          "velocity": 0.7874015748031497,
          "duration": 0.3333333333333428
        },
        {
          "name": "C6",
          "midi": 84,
          "time": 205.83333333333366,
          "velocity": 0.7874015748031497,
          "duration": 0.3333333333333428
        },
        {
          "name": "C7",
          "midi": 96,
          "time": 205.83333333333366,
          "velocity": 0.7874015748031497,
          "duration": 0.3333333333333428
        },
        {
          "name": "C6",
          "midi": 84,
          "time": 206.166666666667,
          "velocity": 0.7874015748031497,
          "duration": 0.3333333333333428
        },
        {
          "name": "C7",
          "midi": 96,
          "time": 206.166666666667,
          "velocity": 0.7874015748031497,
          "duration": 0.3333333333333428
        },
        {
          "name": "C6",
          "midi": 84,
          "time": 206.50000000000034,
          "velocity": 0.7874015748031497,
          "duration": 0.3333333333333428
        },
        {
          "name": "C7",
          "midi": 96,
          "time": 206.50000000000034,
          "velocity": 0.7874015748031497,
          "duration": 0.3333333333333428
        },
        {
          "name": "C6",
          "midi": 84,
          "time": 206.83333333333368,
          "velocity": 0.7874015748031497,
          "duration": 0.3333333333333428
        },
        {
          "name": "C7",
          "midi": 96,
          "time": 206.83333333333368,
          "velocity": 0.7874015748031497,
          "duration": 0.3333333333333428
        },
        {
          "name": "C6",
          "midi": 84,
          "time": 207.16666666666703,
          "velocity": 0.7874015748031497,
          "duration": 0.3333333333333428
        },
        {
          "name": "C7",
          "midi": 96,
          "time": 207.16666666666703,
          "velocity": 0.7874015748031497,
          "duration": 0.3333333333333428
        },
        {
          "name": "C6",
          "midi": 84,
          "time": 207.50000000000037,
          "velocity": 0.7874015748031497,
          "duration": 0.3333333333333428
        },
        {
          "name": "C7",
          "midi": 96,
          "time": 207.50000000000037,
          "velocity": 0.7874015748031497,
          "duration": 0.3333333333333428
        },
        {
          "name": "C6",
          "midi": 84,
          "time": 207.8333333333337,
          "velocity": 0.7874015748031497,
          "duration": 0.3333333333333428
        },
        {
          "name": "C7",
          "midi": 96,
          "time": 207.8333333333337,
          "velocity": 0.7874015748031497,
          "duration": 0.3333333333333428
        },
        {
          "name": "C6",
          "midi": 84,
          "time": 208.16666666666706,
          "velocity": 0.7874015748031497,
          "duration": 0.3333333333333428
        },
        {
          "name": "C7",
          "midi": 96,
          "time": 208.16666666666706,
          "velocity": 0.7874015748031497,
          "duration": 0.3333333333333428
        },
        {
          "name": "C6",
          "midi": 84,
          "time": 208.5000000000004,
          "velocity": 0.7874015748031497,
          "duration": 0.3333333333333428
        },
        {
          "name": "C7",
          "midi": 96,
          "time": 208.5000000000004,
          "velocity": 0.7874015748031497,
          "duration": 0.3333333333333428
        },
        {
          "name": "C6",
          "midi": 84,
          "time": 208.83333333333374,
          "velocity": 0.7874015748031497,
          "duration": 0.3333333333333428
        },
        {
          "name": "C7",
          "midi": 96,
          "time": 208.83333333333374,
          "velocity": 0.7874015748031497,
          "duration": 0.3333333333333428
        },
        {
          "name": "C6",
          "midi": 84,
          "time": 209.16666666666708,
          "velocity": 0.7874015748031497,
          "duration": 0.3333333333333428
        },
        {
          "name": "C7",
          "midi": 96,
          "time": 209.16666666666708,
          "velocity": 0.7874015748031497,
          "duration": 0.3333333333333428
        },
        {
          "name": "C6",
          "midi": 84,
          "time": 209.50000000000043,
          "velocity": 0.7874015748031497,
          "duration": 0.3333333333333428
        },
        {
          "name": "C7",
          "midi": 96,
          "time": 209.50000000000043,
          "velocity": 0.7874015748031497,
          "duration": 0.3333333333333428
        },
        {
          "name": "C6",
          "midi": 84,
          "time": 209.83333333333377,
          "velocity": 0.7874015748031497,
          "duration": 0.3333333333333428
        },
        {
          "name": "C7",
          "midi": 96,
          "time": 209.83333333333377,
          "velocity": 0.7874015748031497,
          "duration": 0.3333333333333428
        },
        {
          "name": "C6",
          "midi": 84,
          "time": 210.1666666666671,
          "velocity": 0.7874015748031497,
          "duration": 0.3333333333333428
        },
        {
          "name": "C7",
          "midi": 96,
          "time": 210.1666666666671,
          "velocity": 0.7874015748031497,
          "duration": 0.3333333333333428
        },
        {
          "name": "C6",
          "midi": 84,
          "time": 210.50000000000045,
          "velocity": 0.7874015748031497,
          "duration": 0.3333333333333428
        },
        {
          "name": "C7",
          "midi": 96,
          "time": 210.50000000000045,
          "velocity": 0.7874015748031497,
          "duration": 0.3333333333333428
        },
        {
          "name": "C6",
          "midi": 84,
          "time": 210.8333333333338,
          "velocity": 0.7874015748031497,
          "duration": 0.3333333333333428
        },
        {
          "name": "C7",
          "midi": 96,
          "time": 210.8333333333338,
          "velocity": 0.7874015748031497,
          "duration": 0.3333333333333428
        },
        {
          "name": "C6",
          "midi": 84,
          "time": 211.16666666666714,
          "velocity": 0.7874015748031497,
          "duration": 0.3333333333333428
        },
        {
          "name": "C7",
          "midi": 96,
          "time": 211.16666666666714,
          "velocity": 0.7874015748031497,
          "duration": 0.3333333333333428
        },
        {
          "name": "C6",
          "midi": 84,
          "time": 211.50000000000048,
          "velocity": 0.7874015748031497,
          "duration": 0.3333333333333428
        },
        {
          "name": "C7",
          "midi": 96,
          "time": 211.50000000000048,
          "velocity": 0.7874015748031497,
          "duration": 0.3333333333333428
        },
        {
          "name": "C6",
          "midi": 84,
          "time": 211.83333333333383,
          "velocity": 0.7874015748031497,
          "duration": 0.3333333333333428
        },
        {
          "name": "C7",
          "midi": 96,
          "time": 211.83333333333383,
          "velocity": 0.7874015748031497,
          "duration": 0.3333333333333428
        },
        {
          "name": "C6",
          "midi": 84,
          "time": 212.16666666666717,
          "velocity": 0.7874015748031497,
          "duration": 0.3333333333333428
        },
        {
          "name": "C7",
          "midi": 96,
          "time": 212.16666666666717,
          "velocity": 0.7874015748031497,
          "duration": 0.3333333333333428
        },
        {
          "name": "C6",
          "midi": 84,
          "time": 212.5000000000005,
          "velocity": 0.7874015748031497,
          "duration": 0.3333333333333428
        },
        {
          "name": "C7",
          "midi": 96,
          "time": 212.5000000000005,
          "velocity": 0.7874015748031497,
          "duration": 0.3333333333333428
        },
        {
          "name": "C6",
          "midi": 84,
          "time": 212.83333333333385,
          "velocity": 0.7874015748031497,
          "duration": 0.3333333333333428
        },
        {
          "name": "C7",
          "midi": 96,
          "time": 212.83333333333385,
          "velocity": 0.7874015748031497,
          "duration": 0.3333333333333428
        },
        {
          "name": "C6",
          "midi": 84,
          "time": 213.1666666666672,
          "velocity": 0.7874015748031497,
          "duration": 0.3333333333333428
        },
        {
          "name": "C7",
          "midi": 96,
          "time": 213.1666666666672,
          "velocity": 0.7874015748031497,
          "duration": 0.3333333333333428
        },
        {
          "name": "C6",
          "midi": 84,
          "time": 213.50000000000054,
          "velocity": 0.7874015748031497,
          "duration": 0.3333333333333428
        },
        {
          "name": "C7",
          "midi": 96,
          "time": 213.50000000000054,
          "velocity": 0.7874015748031497,
          "duration": 0.3333333333333428
        },
        {
          "name": "C6",
          "midi": 84,
          "time": 213.83333333333388,
          "velocity": 0.7874015748031497,
          "duration": 0.3333333333333428
        },
        {
          "name": "C7",
          "midi": 96,
          "time": 213.83333333333388,
          "velocity": 0.7874015748031497,
          "duration": 0.3333333333333428
        },
        {
          "name": "C6",
          "midi": 84,
          "time": 214.16666666666723,
          "velocity": 0.7874015748031497,
          "duration": 0.3333333333333428
        },
        {
          "name": "C7",
          "midi": 96,
          "time": 214.16666666666723,
          "velocity": 0.7874015748031497,
          "duration": 0.3333333333333428
        },
        {
          "name": "C6",
          "midi": 84,
          "time": 214.50000000000057,
          "velocity": 0.7874015748031497,
          "duration": 0.3333333333333428
        },
        {
          "name": "C7",
          "midi": 96,
          "time": 214.50000000000057,
          "velocity": 0.7874015748031497,
          "duration": 0.3333333333333428
        },
        {
          "name": "C6",
          "midi": 84,
          "time": 214.8333333333339,
          "velocity": 0.7874015748031497,
          "duration": 0.3333333333333428
        },
        {
          "name": "C7",
          "midi": 96,
          "time": 214.8333333333339,
          "velocity": 0.7874015748031497,
          "duration": 0.3333333333333428
        },
        {
          "name": "C6",
          "midi": 84,
          "time": 215.16666666666725,
          "velocity": 0.7874015748031497,
          "duration": 0.3333333333333428
        },
        {
          "name": "C7",
          "midi": 96,
          "time": 215.16666666666725,
          "velocity": 0.7874015748031497,
          "duration": 0.3333333333333428
        },
        {
          "name": "C6",
          "midi": 84,
          "time": 215.5000000000006,
          "velocity": 0.7874015748031497,
          "duration": 0.3333333333333428
        },
        {
          "name": "C7",
          "midi": 96,
          "time": 215.5000000000006,
          "velocity": 0.7874015748031497,
          "duration": 0.3333333333333428
        },
        {
          "name": "C6",
          "midi": 84,
          "time": 215.83333333333394,
          "velocity": 0.7874015748031497,
          "duration": 0.3333333333333428
        },
        {
          "name": "C7",
          "midi": 96,
          "time": 215.83333333333394,
          "velocity": 0.7874015748031497,
          "duration": 0.3333333333333428
        },
        {
          "name": "C6",
          "midi": 84,
          "time": 216.16666666666728,
          "velocity": 0.7874015748031497,
          "duration": 0.3333333333333428
        },
        {
          "name": "C7",
          "midi": 96,
          "time": 216.16666666666728,
          "velocity": 0.7874015748031497,
          "duration": 0.3333333333333428
        },
        {
          "name": "C6",
          "midi": 84,
          "time": 216.50000000000063,
          "velocity": 0.7874015748031497,
          "duration": 0.3333333333333428
        },
        {
          "name": "C7",
          "midi": 96,
          "time": 216.50000000000063,
          "velocity": 0.7874015748031497,
          "duration": 0.3333333333333428
        },
        {
          "name": "C6",
          "midi": 84,
          "time": 216.83333333333397,
          "velocity": 0.7874015748031497,
          "duration": 0.3333333333333428
        },
        {
          "name": "C7",
          "midi": 96,
          "time": 216.83333333333397,
          "velocity": 0.7874015748031497,
          "duration": 0.3333333333333428
        },
        {
          "name": "C6",
          "midi": 84,
          "time": 217.1666666666673,
          "velocity": 0.7874015748031497,
          "duration": 0.3333333333333428
        },
        {
          "name": "C7",
          "midi": 96,
          "time": 217.1666666666673,
          "velocity": 0.7874015748031497,
          "duration": 0.3333333333333428
        },
        {
          "name": "C6",
          "midi": 84,
          "time": 217.50000000000065,
          "velocity": 0.7874015748031497,
          "duration": 0.3333333333333428
        },
        {
          "name": "C7",
          "midi": 96,
          "time": 217.50000000000065,
          "velocity": 0.7874015748031497,
          "duration": 0.3333333333333428
        },
        {
          "name": "C6",
          "midi": 84,
          "time": 217.833333333334,
          "velocity": 0.7874015748031497,
          "duration": 0.3333333333333428
        },
        {
          "name": "C7",
          "midi": 96,
          "time": 217.833333333334,
          "velocity": 0.7874015748031497,
          "duration": 0.3333333333333428
        },
        {
          "name": "C6",
          "midi": 84,
          "time": 218.16666666666734,
          "velocity": 0.7874015748031497,
          "duration": 0.3333333333333428
        },
        {
          "name": "C7",
          "midi": 96,
          "time": 218.16666666666734,
          "velocity": 0.7874015748031497,
          "duration": 0.3333333333333428
        },
        {
          "name": "C6",
          "midi": 84,
          "time": 218.50000000000068,
          "velocity": 0.7874015748031497,
          "duration": 0.3333333333333428
        },
        {
          "name": "C7",
          "midi": 96,
          "time": 218.50000000000068,
          "velocity": 0.7874015748031497,
          "duration": 0.3333333333333428
        },
        {
          "name": "C6",
          "midi": 84,
          "time": 218.83333333333402,
          "velocity": 0.7874015748031497,
          "duration": 0.3333333333333428
        },
        {
          "name": "C7",
          "midi": 96,
          "time": 218.83333333333402,
          "velocity": 0.7874015748031497,
          "duration": 0.3333333333333428
        },
        {
          "name": "C6",
          "midi": 84,
          "time": 219.16666666666737,
          "velocity": 0.7874015748031497,
          "duration": 0.3333333333333428
        },
        {
          "name": "C7",
          "midi": 96,
          "time": 219.16666666666737,
          "velocity": 0.7874015748031497,
          "duration": 0.3333333333333428
        },
        {
          "name": "C6",
          "midi": 84,
          "time": 219.5000000000007,
          "velocity": 0.7874015748031497,
          "duration": 0.3333333333333428
        },
        {
          "name": "C7",
          "midi": 96,
          "time": 219.5000000000007,
          "velocity": 0.7874015748031497,
          "duration": 0.3333333333333428
        },
        {
          "name": "C6",
          "midi": 84,
          "time": 219.83333333333405,
          "velocity": 0.7874015748031497,
          "duration": 0.3333333333333428
        },
        {
          "name": "C7",
          "midi": 96,
          "time": 219.83333333333405,
          "velocity": 0.7874015748031497,
          "duration": 0.3333333333333428
        },
        {
          "name": "C6",
          "midi": 84,
          "time": 220.1666666666674,
          "velocity": 0.7874015748031497,
          "duration": 0.3333333333333428
        },
        {
          "name": "C7",
          "midi": 96,
          "time": 220.1666666666674,
          "velocity": 0.7874015748031497,
          "duration": 0.3333333333333428
        },
        {
          "name": "C6",
          "midi": 84,
          "time": 220.50000000000074,
          "velocity": 0.7874015748031497,
          "duration": 0.3333333333333428
        },
        {
          "name": "C7",
          "midi": 96,
          "time": 220.50000000000074,
          "velocity": 0.7874015748031497,
          "duration": 0.3333333333333428
        },
        {
          "name": "C6",
          "midi": 84,
          "time": 220.83333333333408,
          "velocity": 0.7874015748031497,
          "duration": 0.3333333333333428
        },
        {
          "name": "C7",
          "midi": 96,
          "time": 220.83333333333408,
          "velocity": 0.7874015748031497,
          "duration": 0.3333333333333428
        },
        {
          "name": "C6",
          "midi": 84,
          "time": 221.16666666666742,
          "velocity": 0.7874015748031497,
          "duration": 0.3333333333333428
        },
        {
          "name": "C7",
          "midi": 96,
          "time": 221.16666666666742,
          "velocity": 0.7874015748031497,
          "duration": 0.3333333333333428
        },
        {
          "name": "C6",
          "midi": 84,
          "time": 221.50000000000077,
          "velocity": 0.7874015748031497,
          "duration": 0.3333333333333428
        },
        {
          "name": "C7",
          "midi": 96,
          "time": 221.50000000000077,
          "velocity": 0.7874015748031497,
          "duration": 0.3333333333333428
        },
        {
          "name": "C6",
          "midi": 84,
          "time": 221.8333333333341,
          "velocity": 0.7874015748031497,
          "duration": 0.3333333333333428
        },
        {
          "name": "C7",
          "midi": 96,
          "time": 221.8333333333341,
          "velocity": 0.7874015748031497,
          "duration": 0.3333333333333428
        },
        {
          "name": "C6",
          "midi": 84,
          "time": 222.16666666666745,
          "velocity": 0.7874015748031497,
          "duration": 0.3333333333333428
        },
        {
          "name": "C7",
          "midi": 96,
          "time": 222.16666666666745,
          "velocity": 0.7874015748031497,
          "duration": 0.3333333333333428
        },
        {
          "name": "C6",
          "midi": 84,
          "time": 222.5000000000008,
          "velocity": 0.7874015748031497,
          "duration": 0.3333333333333428
        },
        {
          "name": "C7",
          "midi": 96,
          "time": 222.5000000000008,
          "velocity": 0.7874015748031497,
          "duration": 0.3333333333333428
        },
        {
          "name": "C6",
          "midi": 84,
          "time": 222.83333333333414,
          "velocity": 0.7874015748031497,
          "duration": 0.3333333333333428
        },
        {
          "name": "C7",
          "midi": 96,
          "time": 222.83333333333414,
          "velocity": 0.7874015748031497,
          "duration": 0.3333333333333428
        },
        {
          "name": "C6",
          "midi": 84,
          "time": 223.16666666666748,
          "velocity": 0.7874015748031497,
          "duration": 0.3333333333333428
        },
        {
          "name": "C7",
          "midi": 96,
          "time": 223.16666666666748,
          "velocity": 0.7874015748031497,
          "duration": 0.3333333333333428
        },
        {
          "name": "C6",
          "midi": 84,
          "time": 223.50000000000082,
          "velocity": 0.7874015748031497,
          "duration": 0.3333333333333428
        },
        {
          "name": "C7",
          "midi": 96,
          "time": 223.50000000000082,
          "velocity": 0.7874015748031497,
          "duration": 0.3333333333333428
        },
        {
          "name": "C6",
          "midi": 84,
          "time": 223.83333333333417,
          "velocity": 0.7874015748031497,
          "duration": 0.3333333333333428
        },
        {
          "name": "C7",
          "midi": 96,
          "time": 223.83333333333417,
          "velocity": 0.7874015748031497,
          "duration": 0.3333333333333428
        },
        {
          "name": "C6",
          "midi": 84,
          "time": 224.1666666666675,
          "velocity": 0.7874015748031497,
          "duration": 0.3333333333333428
        },
        {
          "name": "C7",
          "midi": 96,
          "time": 224.1666666666675,
          "velocity": 0.7874015748031497,
          "duration": 0.3333333333333428
        },
        {
          "name": "C6",
          "midi": 84,
          "time": 224.50000000000085,
          "velocity": 0.7874015748031497,
          "duration": 0.3333333333333428
        },
        {
          "name": "C7",
          "midi": 96,
          "time": 224.50000000000085,
          "velocity": 0.7874015748031497,
          "duration": 0.3333333333333428
        },
        {
          "name": "C6",
          "midi": 84,
          "time": 224.8333333333342,
          "velocity": 0.7874015748031497,
          "duration": 0.3333333333333428
        },
        {
          "name": "C7",
          "midi": 96,
          "time": 224.8333333333342,
          "velocity": 0.7874015748031497,
          "duration": 0.3333333333333428
        },
        {
          "name": "C6",
          "midi": 84,
          "time": 225.16666666666754,
          "velocity": 0.7874015748031497,
          "duration": 0.3333333333333428
        },
        {
          "name": "C7",
          "midi": 96,
          "time": 225.16666666666754,
          "velocity": 0.7874015748031497,
          "duration": 0.3333333333333428
        },
        {
          "name": "C6",
          "midi": 84,
          "time": 225.50000000000088,
          "velocity": 0.7874015748031497,
          "duration": 0.3333333333333428
        },
        {
          "name": "C7",
          "midi": 96,
          "time": 225.50000000000088,
          "velocity": 0.7874015748031497,
          "duration": 0.3333333333333428
        },
        {
          "name": "C6",
          "midi": 84,
          "time": 225.83333333333422,
          "velocity": 0.7874015748031497,
          "duration": 0.3333333333333428
        },
        {
          "name": "C7",
          "midi": 96,
          "time": 225.83333333333422,
          "velocity": 0.7874015748031497,
          "duration": 0.3333333333333428
        },
        {
          "name": "C6",
          "midi": 84,
          "time": 226.16666666666757,
          "velocity": 0.7874015748031497,
          "duration": 0.3333333333333428
        },
        {
          "name": "C7",
          "midi": 96,
          "time": 226.16666666666757,
          "velocity": 0.7874015748031497,
          "duration": 0.3333333333333428
        },
        {
          "name": "C6",
          "midi": 84,
          "time": 226.5000000000009,
          "velocity": 0.7874015748031497,
          "duration": 0.3333333333333428
        },
        {
          "name": "C7",
          "midi": 96,
          "time": 226.5000000000009,
          "velocity": 0.7874015748031497,
          "duration": 0.3333333333333428
        },
        {
          "name": "C6",
          "midi": 84,
          "time": 226.83333333333425,
          "velocity": 0.7874015748031497,
          "duration": 0.3333333333333428
        },
        {
          "name": "C7",
          "midi": 96,
          "time": 226.83333333333425,
          "velocity": 0.7874015748031497,
          "duration": 0.3333333333333428
        },
        {
          "name": "C6",
          "midi": 84,
          "time": 227.1666666666676,
          "velocity": 0.7874015748031497,
          "duration": 0.3333333333333428
        },
        {
          "name": "C7",
          "midi": 96,
          "time": 227.1666666666676,
          "velocity": 0.7874015748031497,
          "duration": 0.3333333333333428
        },
        {
          "name": "C6",
          "midi": 84,
          "time": 227.50000000000094,
          "velocity": 0.7874015748031497,
          "duration": 0.3333333333333428
        },
        {
          "name": "C7",
          "midi": 96,
          "time": 227.50000000000094,
          "velocity": 0.7874015748031497,
          "duration": 0.3333333333333428
        },
        {
          "name": "C6",
          "midi": 84,
          "time": 227.83333333333428,
          "velocity": 0.7874015748031497,
          "duration": 0.3333333333333428
        },
        {
          "name": "C7",
          "midi": 96,
          "time": 227.83333333333428,
          "velocity": 0.7874015748031497,
          "duration": 0.3333333333333428
        },
        {
          "name": "C6",
          "midi": 84,
          "time": 228.16666666666762,
          "velocity": 0.7874015748031497,
          "duration": 0.3333333333333428
        },
        {
          "name": "C7",
          "midi": 96,
          "time": 228.16666666666762,
          "velocity": 0.7874015748031497,
          "duration": 0.3333333333333428
        },
        {
          "name": "C6",
          "midi": 84,
          "time": 228.50000000000097,
          "velocity": 0.7874015748031497,
          "duration": 0.3333333333333428
        },
        {
          "name": "C7",
          "midi": 96,
          "time": 228.50000000000097,
          "velocity": 0.7874015748031497,
          "duration": 0.3333333333333428
        },
        {
          "name": "C6",
          "midi": 84,
          "time": 228.8333333333343,
          "velocity": 0.7874015748031497,
          "duration": 0.3333333333333428
        },
        {
          "name": "C7",
          "midi": 96,
          "time": 228.8333333333343,
          "velocity": 0.7874015748031497,
          "duration": 0.3333333333333428
        },
        {
          "name": "C6",
          "midi": 84,
          "time": 229.16666666666765,
          "velocity": 0.7874015748031497,
          "duration": 0.3333333333333428
        },
        {
          "name": "C7",
          "midi": 96,
          "time": 229.16666666666765,
          "velocity": 0.7874015748031497,
          "duration": 0.3333333333333428
        },
        {
          "name": "C6",
          "midi": 84,
          "time": 229.500000000001,
          "velocity": 0.7874015748031497,
          "duration": 0.3333333333333428
        },
        {
          "name": "C7",
          "midi": 96,
          "time": 229.500000000001,
          "velocity": 0.7874015748031497,
          "duration": 0.3333333333333428
        },
        {
          "name": "C6",
          "midi": 84,
          "time": 229.83333333333434,
          "velocity": 0.7874015748031497,
          "duration": 0.3333333333333428
        },
        {
          "name": "C7",
          "midi": 96,
          "time": 229.83333333333434,
          "velocity": 0.7874015748031497,
          "duration": 0.3333333333333428
        },
        {
          "name": "C6",
          "midi": 84,
          "time": 230.16666666666768,
          "velocity": 0.7874015748031497,
          "duration": 0.3333333333333428
        },
        {
          "name": "C7",
          "midi": 96,
          "time": 230.16666666666768,
          "velocity": 0.7874015748031497,
          "duration": 0.3333333333333428
        },
        {
          "name": "C6",
          "midi": 84,
          "time": 230.50000000000102,
          "velocity": 0.7874015748031497,
          "duration": 0.3333333333333428
        },
        {
          "name": "C7",
          "midi": 96,
          "time": 230.50000000000102,
          "velocity": 0.7874015748031497,
          "duration": 0.3333333333333428
        },
        {
          "name": "C6",
          "midi": 84,
          "time": 230.83333333333437,
          "velocity": 0.7874015748031497,
          "duration": 0.3333333333333428
        },
        {
          "name": "C7",
          "midi": 96,
          "time": 230.83333333333437,
          "velocity": 0.7874015748031497,
          "duration": 0.3333333333333428
        },
        {
          "name": "C6",
          "midi": 84,
          "time": 231.1666666666677,
          "velocity": 0.7874015748031497,
          "duration": 0.3333333333333428
        },
        {
          "name": "C7",
          "midi": 96,
          "time": 231.1666666666677,
          "velocity": 0.7874015748031497,
          "duration": 0.3333333333333428
        },
        {
          "name": "D6",
          "midi": 86,
          "time": 231.50000000000105,
          "velocity": 0.7874015748031497,
          "duration": 0.3333333333333428
        },
        {
          "name": "D7",
          "midi": 98,
          "time": 231.50000000000105,
          "velocity": 0.7874015748031497,
          "duration": 0.3333333333333428
        },
        {
          "name": "D6",
          "midi": 86,
          "time": 231.8333333333344,
          "velocity": 0.7874015748031497,
          "duration": 0.3333333333333428
        },
        {
          "name": "D7",
          "midi": 98,
          "time": 231.8333333333344,
          "velocity": 0.7874015748031497,
          "duration": 0.3333333333333428
        },
        {
          "name": "D6",
          "midi": 86,
          "time": 232.16666666666774,
          "velocity": 0.7874015748031497,
          "duration": 0.3333333333333428
        },
        {
          "name": "D7",
          "midi": 98,
          "time": 232.16666666666774,
          "velocity": 0.7874015748031497,
          "duration": 0.3333333333333428
        },
        {
          "name": "B5",
          "midi": 83,
          "time": 232.50000000000108,
          "velocity": 0.7874015748031497,
          "duration": 0.3333333333333428
        },
        {
          "name": "B6",
          "midi": 95,
          "time": 232.50000000000108,
          "velocity": 0.7874015748031497,
          "duration": 0.3333333333333428
        },
        {
          "name": "B5",
          "midi": 83,
          "time": 232.83333333333442,
          "velocity": 0.7874015748031497,
          "duration": 0.3333333333333428
        },
        {
          "name": "B6",
          "midi": 95,
          "time": 232.83333333333442,
          "velocity": 0.7874015748031497,
          "duration": 0.3333333333333428
        },
        {
          "name": "B5",
          "midi": 83,
          "time": 233.16666666666777,
          "velocity": 0.7874015748031497,
          "duration": 0.3333333333333428
        },
        {
          "name": "B6",
          "midi": 95,
          "time": 233.16666666666777,
          "velocity": 0.7874015748031497,
          "duration": 0.3333333333333428
        },
        {
          "name": "G#5",
          "midi": 80,
          "time": 233.5000000000011,
          "velocity": 0.7874015748031497,
          "duration": 0.3333333333333428
        },
        {
          "name": "G#6",
          "midi": 92,
          "time": 233.5000000000011,
          "velocity": 0.7874015748031497,
          "duration": 0.3333333333333428
        },
        {
          "name": "G#5",
          "midi": 80,
          "time": 233.83333333333445,
          "velocity": 0.7874015748031497,
          "duration": 0.3333333333333428
        },
        {
          "name": "G#6",
          "midi": 92,
          "time": 233.83333333333445,
          "velocity": 0.7874015748031497,
          "duration": 0.3333333333333428
        },
        {
          "name": "G#5",
          "midi": 80,
          "time": 234.1666666666678,
          "velocity": 0.7874015748031497,
          "duration": 0.3333333333333428
        },
        {
          "name": "G#6",
          "midi": 92,
          "time": 234.1666666666678,
          "velocity": 0.7874015748031497,
          "duration": 0.3333333333333428
        },
        {
          "name": "F5",
          "midi": 77,
          "time": 234.50000000000114,
          "velocity": 0.7874015748031497,
          "duration": 0.3333333333333428
        },
        {
          "name": "F6",
          "midi": 89,
          "time": 234.50000000000114,
          "velocity": 0.7874015748031497,
          "duration": 0.3333333333333428
        },
        {
          "name": "F5",
          "midi": 77,
          "time": 234.83333333333448,
          "velocity": 0.7874015748031497,
          "duration": 0.3333333333333428
        },
        {
          "name": "F6",
          "midi": 89,
          "time": 234.83333333333448,
          "velocity": 0.7874015748031497,
          "duration": 0.3333333333333428
        },
        {
          "name": "F5",
          "midi": 77,
          "time": 235.16666666666782,
          "velocity": 0.7874015748031497,
          "duration": 0.3333333333333428
        },
        {
          "name": "F6",
          "midi": 89,
          "time": 235.16666666666782,
          "velocity": 0.7874015748031497,
          "duration": 0.3333333333333428
        },
        {
          "name": "B4",
          "midi": 71,
          "time": 235.50000000000117,
          "velocity": 0.7874015748031497,
          "duration": 0.6666666666666288
        },
        {
          "name": "C5",
          "midi": 72,
          "time": 235.66666666666782,
          "velocity": 0.7874015748031497,
          "duration": 0.6666666666666288
        },
        {
          "name": "D5",
          "midi": 74,
          "time": 235.83333333333448,
          "velocity": 0.7874015748031497,
          "duration": 0.6666666666666288
        },
        {
          "name": "E5",
          "midi": 76,
          "time": 236.00000000000114,
          "velocity": 0.7874015748031497,
          "duration": 0.6666666666666288
        },
        {
          "name": "F5",
          "midi": 77,
          "time": 236.1666666666678,
          "velocity": 0.7874015748031497,
          "duration": 0.3333333333333144
        },
        {
          "name": "F5",
          "midi": 77,
          "time": 236.5000000000011,
          "velocity": 0.7874015748031497,
          "duration": 0.25
        },
        {
          "name": "G5",
          "midi": 79,
          "time": 236.7500000000011,
          "velocity": 0.7874015748031497,
          "duration": 0.5
        },
        {
          "name": "B5",
          "midi": 83,
          "time": 237.0000000000011,
          "velocity": 0.7874015748031497,
          "duration": 0.4166666666666572
        },
        {
          "name": "C6",
          "midi": 84,
          "time": 237.16666666666777,
          "velocity": 0.7874015748031497,
          "duration": 0.5833333333333428
        },
        {
          "name": "D#6",
          "midi": 87,
          "time": 237.5000000000011,
          "velocity": 0.7874015748031497,
          "duration": 0.6666666666666572
        },
        {
          "name": "D6",
          "midi": 86,
          "time": 237.66666666666777,
          "velocity": 0.7874015748031497,
          "duration": 0.6666666666666572
        },
        {
          "name": "F6",
          "midi": 89,
          "time": 237.83333333333445,
          "velocity": 0.7874015748031497,
          "duration": 0.6666666666666288
        },
        {
          "name": "B5",
          "midi": 83,
          "time": 238.0000000000011,
          "velocity": 0.7874015748031497,
          "duration": 0.6666666666666288
        },
        {
          "name": "G#5",
          "midi": 80,
          "time": 238.16666666666777,
          "velocity": 0.7874015748031497,
          "duration": 0.6666666666666288
        },
        {
          "name": "D6",
          "midi": 86,
          "time": 238.33333333333442,
          "velocity": 0.7874015748031497,
          "duration": 0.6666666666666288
        },
        {
          "name": "F6",
          "midi": 89,
          "time": 238.50000000000108,
          "velocity": 0.7874015748031497,
          "duration": 0.6666666666666288
        },
        {
          "name": "B5",
          "midi": 83,
          "time": 238.66666666666774,
          "velocity": 0.7874015748031497,
          "duration": 0.6666666666666572
        },
        {
          "name": "G#6",
          "midi": 92,
          "time": 238.8333333333344,
          "velocity": 0.7874015748031497,
          "duration": 0.4166666666666572
        },
        {
          "name": "D6",
          "midi": 86,
          "time": 239.00000000000105,
          "velocity": 0.7874015748031497,
          "duration": 0.6666666666666856
        },
        {
          "name": "B6",
          "midi": 95,
          "time": 239.1666666666677,
          "velocity": 0.7874015748031497,
          "duration": 0.4166666666666856
        },
        {
          "name": "F7",
          "midi": 101,
          "time": 239.3333333333344,
          "velocity": 0.7874015748031497,
          "duration": 0.4166666666666856
        },
        {
          "name": "G7",
          "midi": 103,
          "time": 239.50000000000105,
          "velocity": 0.7874015748031497,
          "duration": 4.000000000000028
        },
        {
          "name": "D7",
          "midi": 98,
          "time": 239.75000000000108,
          "velocity": 0.7874015748031497,
          "duration": 0.5
        },
        {
          "name": "G6",
          "midi": 91,
          "time": 240.00000000000108,
          "velocity": 0.7874015748031497,
          "duration": 0.5
        },
        {
          "name": "D7",
          "midi": 98,
          "time": 240.25000000000108,
          "velocity": 0.7874015748031497,
          "duration": 3
        },
        {
          "name": "G6",
          "midi": 91,
          "time": 240.50000000000108,
          "velocity": 0.7874015748031497,
          "duration": 0.5
        },
        {
          "name": "D6",
          "midi": 86,
          "time": 240.75000000000108,
          "velocity": 0.7874015748031497,
          "duration": 0.5
        },
        {
          "name": "G6",
          "midi": 91,
          "time": 241.00000000000108,
          "velocity": 0.7874015748031497,
          "duration": 2
        },
        {
          "name": "D6",
          "midi": 86,
          "time": 241.25000000000108,
          "velocity": 0.7874015748031497,
          "duration": 0.5
        },
        {
          "name": "G5",
          "midi": 79,
          "time": 241.50000000000108,
          "velocity": 0.7874015748031497,
          "duration": 0.5
        },
        {
          "name": "D6",
          "midi": 86,
          "time": 241.75000000000108,
          "velocity": 0.7874015748031497,
          "duration": 1
        },
        {
          "name": "G5",
          "midi": 79,
          "time": 242.00000000000108,
          "velocity": 0.7874015748031497,
          "duration": 0.5
        },
        {
          "name": "D5",
          "midi": 74,
          "time": 242.25000000000108,
          "velocity": 0.7874015748031497,
          "duration": 1.75
        },
        {
          "name": "G5",
          "midi": 79,
          "time": 242.50000000000108,
          "velocity": 0.7874015748031497,
          "duration": 1.75
        },
        {
          "name": "D6",
          "midi": 86,
          "time": 242.75000000000108,
          "velocity": 0.7874015748031497,
          "duration": 2
        },
        {
          "name": "G6",
          "midi": 91,
          "time": 243.00000000000108,
          "velocity": 0.7874015748031497,
          "duration": 1
        },
        {
          "name": "D7",
          "midi": 98,
          "time": 243.25000000000108,
          "velocity": 0.7874015748031497,
          "duration": 0.5
        },
        {
          "name": "G7",
          "midi": 103,
          "time": 243.50000000000108,
          "velocity": 0.7874015748031497,
          "duration": 0.5
        },
        {
          "name": "D7",
          "midi": 98,
          "time": 243.75000000000108,
          "velocity": 0.7874015748031497,
          "duration": 0.5
        },
        {
          "name": "G6",
          "midi": 91,
          "time": 244.00000000000108,
          "velocity": 0.7874015748031497,
          "duration": 0.5
        },
        {
          "name": "D7",
          "midi": 98,
          "time": 244.25000000000108,
          "velocity": 0.7874015748031497,
          "duration": 0.5
        },
        {
          "name": "G6",
          "midi": 91,
          "time": 244.50000000000108,
          "velocity": 0.7874015748031497,
          "duration": 0.5
        },
        {
          "name": "D6",
          "midi": 86,
          "time": 244.75000000000108,
          "velocity": 0.7874015748031497,
          "duration": 0.5
        },
        {
          "name": "G6",
          "midi": 91,
          "time": 245.00000000000108,
          "velocity": 0.7874015748031497,
          "duration": 0.5
        },
        {
          "name": "D6",
          "midi": 86,
          "time": 245.25000000000108,
          "velocity": 0.7874015748031497,
          "duration": 0.5
        },
        {
          "name": "G5",
          "midi": 79,
          "time": 245.50000000000108,
          "velocity": 0.7874015748031497,
          "duration": 2
        },
        {
          "name": "D5",
          "midi": 74,
          "time": 245.75000000000108,
          "velocity": 0.7874015748031497,
          "duration": 0.25
        },
        {
          "name": "D5",
          "midi": 74,
          "time": 246.00000000000108,
          "velocity": 0.7874015748031497,
          "duration": 0.25
        },
        {
          "name": "G#4",
          "midi": 68,
          "time": 246.25000000000108,
          "velocity": 0.7874015748031497,
          "duration": 0.25
        },
        {
          "name": "G4",
          "midi": 67,
          "time": 246.50000000000108,
          "velocity": 0.7874015748031497,
          "duration": 1
        },
        {
          "name": "B4",
          "midi": 71,
          "time": 246.50000000000108,
          "velocity": 0.7874015748031497,
          "duration": 1
        },
        {
          "name": "D5",
          "midi": 74,
          "time": 246.75000000000108,
          "velocity": 0.7874015748031497,
          "duration": 0.75
        },
        {
          "name": "D#5",
          "midi": 75,
          "time": 247.00000000000108,
          "velocity": 0.7874015748031497,
          "duration": 0.5
        },
        {
          "name": "F5",
          "midi": 77,
          "time": 247.25000000000108,
          "velocity": 0.7874015748031497,
          "duration": 0.25
        },
        {
          "name": "C5",
          "midi": 72,
          "time": 247.50000000000108,
          "velocity": 0.7874015748031497,
          "duration": 0.5
        },
        {
          "name": "B4",
          "midi": 71,
          "time": 247.75000000000108,
          "velocity": 0.7874015748031497,
          "duration": 0.75
        },
        {
          "name": "C5",
          "midi": 72,
          "time": 248.00000000000108,
          "velocity": 0.7874015748031497,
          "duration": 0.5
        },
        {
          "name": "G5",
          "midi": 79,
          "time": 248.25000000000108,
          "velocity": 0.7874015748031497,
          "duration": 0.25
        },
        {
          "name": "G#5",
          "midi": 80,
          "time": 248.50000000000108,
          "velocity": 0.7874015748031497,
          "duration": 1
        },
        {
          "name": "G5",
          "midi": 79,
          "time": 248.75000000000108,
          "velocity": 0.7874015748031497,
          "duration": 0.5
        },
        {
          "name": "F#5",
          "midi": 78,
          "time": 249.00000000000108,
          "velocity": 0.7874015748031497,
          "duration": 0.25
        },
        {
          "name": "G5",
          "midi": 79,
          "time": 249.25000000000108,
          "velocity": 0.7874015748031497,
          "duration": 0.25
        },
        {
          "name": "G5",
          "midi": 79,
          "time": 249.50000000000108,
          "velocity": 0.7874015748031497,
          "duration": 0.75
        },
        {
          "name": "B4",
          "midi": 71,
          "time": 249.75000000000108,
          "velocity": 0.7874015748031497,
          "duration": 0.75
        },
        {
          "name": "D5",
          "midi": 74,
          "time": 250.00000000000108,
          "velocity": 0.7874015748031497,
          "duration": 0.5
        },
        {
          "name": "G5",
          "midi": 79,
          "time": 250.25000000000108,
          "velocity": 0.7874015748031497,
          "duration": 0.2708333333333428
        },
        {
          "name": "D5",
          "midi": 74,
          "time": 250.50000000000108,
          "velocity": 0.7874015748031497,
          "duration": 1
        },
        {
          "name": "A#4",
          "midi": 70,
          "time": 250.75000000000108,
          "velocity": 0.7874015748031497,
          "duration": 0.75
        },
        {
          "name": "E5",
          "midi": 76,
          "time": 251.00000000000108,
          "velocity": 0.7874015748031497,
          "duration": 0.5
        },
        {
          "name": "C5",
          "midi": 72,
          "time": 251.25000000000108,
          "velocity": 0.7874015748031497,
          "duration": 0.25
        },
        {
          "name": "F5",
          "midi": 77,
          "time": 251.50000000000108,
          "velocity": 0.7874015748031497,
          "duration": 0.75
        },
        {
          "name": "A4",
          "midi": 69,
          "time": 251.75000000000108,
          "velocity": 0.7874015748031497,
          "duration": 0.75
        },
        {
          "name": "C5",
          "midi": 72,
          "time": 252.00000000000108,
          "velocity": 0.7874015748031497,
          "duration": 0.5
        },
        {
          "name": "F5",
          "midi": 77,
          "time": 252.25000000000108,
          "velocity": 0.7874015748031497,
          "duration": 0.25
        },
        {
          "name": "D#5",
          "midi": 75,
          "time": 252.50000000000108,
          "velocity": 0.7874015748031497,
          "duration": 1
        },
        {
          "name": "D5",
          "midi": 74,
          "time": 252.75000000000108,
          "velocity": 0.7874015748031497,
          "duration": 0.75
        },
        {
          "name": "C#5",
          "midi": 73,
          "time": 253.00000000000108,
          "velocity": 0.7874015748031497,
          "duration": 0.5
        },
        {
          "name": "C5",
          "midi": 72,
          "time": 253.25000000000108,
          "velocity": 0.7874015748031497,
          "duration": 0.25
        },
        {
          "name": "A#4",
          "midi": 70,
          "time": 253.50000000000108,
          "velocity": 0.7874015748031497,
          "duration": 0.25
        },
        {
          "name": "A#4",
          "midi": 70,
          "time": 253.75000000000108,
          "velocity": 0.7874015748031497,
          "duration": 0.5
        },
        {
          "name": "D#5",
          "midi": 75,
          "time": 254.00000000000108,
          "velocity": 0.7874015748031497,
          "duration": 0.25
        },
        {
          "name": "A#4",
          "midi": 70,
          "time": 254.25000000000108,
          "velocity": 0.7874015748031497,
          "duration": 0.25
        },
        {
          "name": "G5",
          "midi": 79,
          "time": 254.50000000000108,
          "velocity": 0.7874015748031497,
          "duration": 1
        },
        {
          "name": "D#5",
          "midi": 75,
          "time": 254.75000000000108,
          "velocity": 0.7874015748031497,
          "duration": 0.5
        },
        {
          "name": "A#5",
          "midi": 82,
          "time": 255.00000000000108,
          "velocity": 0.7874015748031497,
          "duration": 0.5
        },
        {
          "name": "D#5",
          "midi": 75,
          "time": 255.25000000000108,
          "velocity": 0.7874015748031497,
          "duration": 0.25
        },
        {
          "name": "A#4",
          "midi": 70,
          "time": 255.50000000000108,
          "velocity": 0.7874015748031497,
          "duration": 1
        },
        {
          "name": "A#5",
          "midi": 82,
          "time": 255.50000000000108,
          "velocity": 0.7874015748031497,
          "duration": 1
        },
        {
          "name": "F5",
          "midi": 77,
          "time": 255.50000000000108,
          "velocity": 0.7874015748031497,
          "duration": 0.75
        },
        {
          "name": "C5",
          "midi": 72,
          "time": 255.50000000000108,
          "velocity": 0.7874015748031497,
          "duration": 0.75
        },
        {
          "name": "C5",
          "midi": 72,
          "time": 256.2500000000011,
          "velocity": 0.7874015748031497,
          "duration": 0.25
        },
        {
          "name": "F5",
          "midi": 77,
          "time": 256.2500000000011,
          "velocity": 0.7874015748031497,
          "duration": 0.25
        },
        {
          "name": "G#5",
          "midi": 80,
          "time": 256.2500000000011,
          "velocity": 0.7874015748031497,
          "duration": 0.25
        },
        {
          "name": "G#5",
          "midi": 80,
          "time": 256.5000000000011,
          "velocity": 0.7874015748031497,
          "duration": 1
        },
        {
          "name": "A#5",
          "midi": 82,
          "time": 256.7500000000011,
          "velocity": 0.7874015748031497,
          "duration": 0.75
        },
        {
          "name": "C6",
          "midi": 84,
          "time": 257.0000000000011,
          "velocity": 0.7874015748031497,
          "duration": 0.5
        },
        {
          "name": "F6",
          "midi": 89,
          "time": 257.2500000000011,
          "velocity": 0.7874015748031497,
          "duration": 0.5
        },
        {
          "name": "G#4",
          "midi": 68,
          "time": 257.5000000000011,
          "velocity": 0.7874015748031497,
          "duration": 1
        },
        {
          "name": "A#4",
          "midi": 70,
          "time": 257.5000000000011,
          "velocity": 0.7874015748031497,
          "duration": 0.75
        },
        {
          "name": "G#5",
          "midi": 80,
          "time": 257.5000000000011,
          "velocity": 0.7874015748031497,
          "duration": 1
        },
        {
          "name": "D#5",
          "midi": 75,
          "time": 257.5000000000011,
          "velocity": 0.7874015748031497,
          "duration": 0.75
        },
        {
          "name": "A#4",
          "midi": 70,
          "time": 258.2500000000011,
          "velocity": 0.7874015748031497,
          "duration": 0.25
        },
        {
          "name": "D#5",
          "midi": 75,
          "time": 258.2500000000011,
          "velocity": 0.7874015748031497,
          "duration": 0.25
        },
        {
          "name": "G5",
          "midi": 79,
          "time": 258.2500000000011,
          "velocity": 0.7874015748031497,
          "duration": 0.25
        },
        {
          "name": "G5",
          "midi": 79,
          "time": 258.5000000000011,
          "velocity": 0.7874015748031497,
          "duration": 1
        },
        {
          "name": "A#5",
          "midi": 82,
          "time": 258.7500000000011,
          "velocity": 0.7874015748031497,
          "duration": 0.75
        },
        {
          "name": "D#6",
          "midi": 87,
          "time": 259.0000000000011,
          "velocity": 0.7874015748031497,
          "duration": 0.5
        },
        {
          "name": "A#6",
          "midi": 94,
          "time": 259.2500000000011,
          "velocity": 0.7874015748031497,
          "duration": 0.5
        },
        {
          "name": "B6",
          "midi": 95,
          "time": 259.5000000000011,
          "velocity": 0.7874015748031497,
          "duration": 1
        },
        {
          "name": "B5",
          "midi": 83,
          "time": 259.7500000000011,
          "velocity": 0.7874015748031497,
          "duration": 1
        },
        {
          "name": "G#6",
          "midi": 92,
          "time": 260.0000000000011,
          "velocity": 0.7874015748031497,
          "duration": 1
        },
        {
          "name": "G#5",
          "midi": 80,
          "time": 260.2500000000011,
          "velocity": 0.7874015748031497,
          "duration": 1
        },
        {
          "name": "F6",
          "midi": 89,
          "time": 260.5000000000011,
          "velocity": 0.7874015748031497,
          "duration": 1
        },
        {
          "name": "F5",
          "midi": 77,
          "time": 260.7500000000011,
          "velocity": 0.7874015748031497,
          "duration": 1
        },
        {
          "name": "G6",
          "midi": 91,
          "time": 261.0000000000011,
          "velocity": 0.7874015748031497,
          "duration": 0.75
        },
        {
          "name": "G5",
          "midi": 79,
          "time": 261.2708333333344,
          "velocity": 0.7874015748031497,
          "duration": 1
        },
        {
          "name": "G#6",
          "midi": 92,
          "time": 261.5000000000011,
          "velocity": 0.7874015748031497,
          "duration": 1
        },
        {
          "name": "G6",
          "midi": 91,
          "time": 261.7500000000011,
          "velocity": 0.7874015748031497,
          "duration": 0.75
        },
        {
          "name": "F6",
          "midi": 89,
          "time": 262.0000000000011,
          "velocity": 0.7874015748031497,
          "duration": 0.5
        },
        {
          "name": "D#6",
          "midi": 87,
          "time": 262.2500000000011,
          "velocity": 0.7874015748031497,
          "duration": 0.25
        },
        {
          "name": "D6",
          "midi": 86,
          "time": 262.5000000000011,
          "velocity": 0.7874015748031497,
          "duration": 1.0000000000001137
        },
        {
          "name": "C#6",
          "midi": 85,
          "time": 262.66666666666777,
          "velocity": 0.7874015748031497,
          "duration": 0.8333333333334281
        },
        {
          "name": "B5",
          "midi": 83,
          "time": 262.83333333333445,
          "velocity": 0.7874015748031497,
          "duration": 0.6666666666667425
        },
        {
          "name": "G#5",
          "midi": 80,
          "time": 263.00000000000114,
          "velocity": 0.7874015748031497,
          "duration": 0.5000000000000568
        },
        {
          "name": "G5",
          "midi": 79,
          "time": 263.1666666666678,
          "velocity": 0.7874015748031497,
          "duration": 0.33333333333337123
        },
        {
          "name": "F5",
          "midi": 77,
          "time": 263.3333333333345,
          "velocity": 0.7874015748031497,
          "duration": 0.33333333333337123
        },
        {
          "name": "C5",
          "midi": 72,
          "time": 263.5000000000012,
          "velocity": 0.7874015748031497,
          "duration": 0.75
        },
        {
          "name": "D#5",
          "midi": 75,
          "time": 263.7500000000012,
          "velocity": 0.7874015748031497,
          "duration": 0.75
        },
        {
          "name": "G5",
          "midi": 79,
          "time": 264.0000000000012,
          "velocity": 0.7874015748031497,
          "duration": 0.5
        },
        {
          "name": "C5",
          "midi": 72,
          "time": 264.2500000000012,
          "velocity": 0.7874015748031497,
          "duration": 0.25
        },
        {
          "name": "G#5",
          "midi": 80,
          "time": 264.5000000000012,
          "velocity": 0.7874015748031497,
          "duration": 1
        },
        {
          "name": "D#5",
          "midi": 75,
          "time": 264.7500000000012,
          "velocity": 0.7874015748031497,
          "duration": 0.75
        },
        {
          "name": "F#5",
          "midi": 78,
          "time": 265.0000000000012,
          "velocity": 0.7874015748031497,
          "duration": 0.5
        },
        {
          "name": "C5",
          "midi": 72,
          "time": 265.2500000000012,
          "velocity": 0.7874015748031497,
          "duration": 0.25
        },
        {
          "name": "D5",
          "midi": 74,
          "time": 265.5000000000012,
          "velocity": 0.7874015748031497,
          "duration": 0.5
        },
        {
          "name": "B5",
          "midi": 83,
          "time": 265.7500000000012,
          "velocity": 0.7874015748031497,
          "duration": 0.75
        },
        {
          "name": "D5",
          "midi": 74,
          "time": 266.0000000000012,
          "velocity": 0.7874015748031497,
          "duration": 0.5
        },
        {
          "name": "D6",
          "midi": 86,
          "time": 266.0000000000012,
          "velocity": 0.7874015748031497,
          "duration": 0.5
        },
        {
          "name": "G5",
          "midi": 79,
          "time": 266.2500000000012,
          "velocity": 0.7874015748031497,
          "duration": 0.25
        },
        {
          "name": "E5",
          "midi": 76,
          "time": 266.5000000000012,
          "velocity": 0.7874015748031497,
          "duration": 1
        },
        {
          "name": "A#5",
          "midi": 82,
          "time": 266.7500000000012,
          "velocity": 0.7874015748031497,
          "duration": 0.75
        },
        {
          "name": "C6",
          "midi": 84,
          "time": 267.0000000000012,
          "velocity": 0.7874015748031497,
          "duration": 0.5
        },
        {
          "name": "C5",
          "midi": 72,
          "time": 267.0000000000012,
          "velocity": 0.7874015748031497,
          "duration": 0.5
        },
        {
          "name": "G5",
          "midi": 79,
          "time": 267.2500000000012,
          "velocity": 0.7874015748031497,
          "duration": 0.25
        },
        {
          "name": "F5",
          "midi": 77,
          "time": 267.5000000000012,
          "velocity": 0.7874015748031497,
          "duration": 0.25
        },
        {
          "name": "F5",
          "midi": 77,
          "time": 267.7500000000012,
          "velocity": 0.7874015748031497,
          "duration": 0.5
        },
        {
          "name": "C6",
          "midi": 84,
          "time": 268.0000000000012,
          "velocity": 0.7874015748031497,
          "duration": 0.5
        },
        {
          "name": "F5",
          "midi": 77,
          "time": 268.2500000000012,
          "velocity": 0.7874015748031497,
          "duration": 0.25
        },
        {
          "name": "D6",
          "midi": 86,
          "time": 268.5000000000012,
          "velocity": 0.7874015748031497,
          "duration": 1
        },
        {
          "name": "D#6",
          "midi": 87,
          "time": 268.7500000000012,
          "velocity": 0.7874015748031497,
          "duration": 0.75
        },
        {
          "name": "F6",
          "midi": 89,
          "time": 269.0000000000012,
          "velocity": 0.7874015748031497,
          "duration": 0.5
        },
        {
          "name": "A#6",
          "midi": 94,
          "time": 269.2500000000012,
          "velocity": 0.7874015748031497,
          "duration": 0.25
        },
        {
          "name": "A#5",
          "midi": 82,
          "time": 269.2500000000012,
          "velocity": 0.7874015748031497,
          "duration": 0.25
        },
        {
          "name": "D#5",
          "midi": 75,
          "time": 269.5000000000012,
          "velocity": 0.7874015748031497,
          "duration": 0.5
        },
        {
          "name": "A#4",
          "midi": 70,
          "time": 269.5000000000012,
          "velocity": 0.7874015748031497,
          "duration": 0.75
        },
        {
          "name": "A#5",
          "midi": 82,
          "time": 269.7500000000012,
          "velocity": 0.7874015748031497,
          "duration": 0.75
        },
        {
          "name": "D#5",
          "midi": 75,
          "time": 270.0000000000012,
          "velocity": 0.7874015748031497,
          "duration": 0.5
        },
        {
          "name": "A#4",
          "midi": 70,
          "time": 270.2500000000012,
          "velocity": 0.7874015748031497,
          "duration": 0.25
        },
        {
          "name": "G5",
          "midi": 79,
          "time": 270.5000000000012,
          "velocity": 0.7874015748031497,
          "duration": 1
        },
        {
          "name": "D#5",
          "midi": 75,
          "time": 270.7500000000012,
          "velocity": 0.7874015748031497,
          "duration": 0.75
        },
        {
          "name": "A#5",
          "midi": 82,
          "time": 271.0000000000012,
          "velocity": 0.7874015748031497,
          "duration": 0.5
        },
        {
          "name": "A#4",
          "midi": 70,
          "time": 271.2500000000012,
          "velocity": 0.7874015748031497,
          "duration": 0.25
        },
        {
          "name": "G#5",
          "midi": 80,
          "time": 271.5000000000012,
          "velocity": 0.7874015748031497,
          "duration": 0.5
        },
        {
          "name": "G#4",
          "midi": 68,
          "time": 271.7500000000012,
          "velocity": 0.7874015748031497,
          "duration": 0.5
        },
        {
          "name": "C5",
          "midi": 72,
          "time": 272.0000000000012,
          "velocity": 0.7874015748031497,
          "duration": 0.5
        },
        {
          "name": "F5",
          "midi": 77,
          "time": 272.2500000000012,
          "velocity": 0.7874015748031497,
          "duration": 0.5
        },
        {
          "name": "G5",
          "midi": 79,
          "time": 272.5000000000012,
          "velocity": 0.7874015748031497,
          "duration": 0.5
        },
        {
          "name": "G#5",
          "midi": 80,
          "time": 272.7500000000012,
          "velocity": 0.7874015748031497,
          "duration": 0.5
        },
        {
          "name": "C6",
          "midi": 84,
          "time": 273.0000000000012,
          "velocity": 0.7874015748031497,
          "duration": 0.5
        },
        {
          "name": "F6",
          "midi": 89,
          "time": 273.2500000000012,
          "velocity": 0.7874015748031497,
          "duration": 0.5
        },
        {
          "name": "C6",
          "midi": 84,
          "time": 273.5000000000012,
          "velocity": 0.7874015748031497,
          "duration": 0.5
        },
        {
          "name": "C5",
          "midi": 72,
          "time": 273.7500000000012,
          "velocity": 0.7874015748031497,
          "duration": 0.5
        },
        {
          "name": "D#5",
          "midi": 75,
          "time": 274.0000000000012,
          "velocity": 0.7874015748031497,
          "duration": 0.5
        },
        {
          "name": "G5",
          "midi": 79,
          "time": 274.2500000000012,
          "velocity": 0.7874015748031497,
          "duration": 0.5
        },
        {
          "name": "G#5",
          "midi": 80,
          "time": 274.5000000000012,
          "velocity": 0.7874015748031497,
          "duration": 0.5
        },
        {
          "name": "C6",
          "midi": 84,
          "time": 274.7500000000012,
          "velocity": 0.7874015748031497,
          "duration": 0.5
        },
        {
          "name": "D#6",
          "midi": 87,
          "time": 275.0000000000012,
          "velocity": 0.7874015748031497,
          "duration": 0.5
        },
        {
          "name": "G#6",
          "midi": 92,
          "time": 275.2500000000012,
          "velocity": 0.7874015748031497,
          "duration": 0.5
        },
        {
          "name": "G#5",
          "midi": 80,
          "time": 275.5000000000012,
          "velocity": 0.7874015748031497,
          "duration": 0.5
        },
        {
          "name": "G#4",
          "midi": 68,
          "time": 275.7500000000012,
          "velocity": 0.7874015748031497,
          "duration": 0.5
        },
        {
          "name": "C5",
          "midi": 72,
          "time": 276.0000000000012,
          "velocity": 0.7874015748031497,
          "duration": 0.5
        },
        {
          "name": "F5",
          "midi": 77,
          "time": 276.2500000000012,
          "velocity": 0.7874015748031497,
          "duration": 0.5
        },
        {
          "name": "G5",
          "midi": 79,
          "time": 276.5000000000012,
          "velocity": 0.7874015748031497,
          "duration": 0.5
        },
        {
          "name": "G#5",
          "midi": 80,
          "time": 276.7500000000012,
          "velocity": 0.7874015748031497,
          "duration": 0.5
        },
        {
          "name": "C6",
          "midi": 84,
          "time": 277.0000000000012,
          "velocity": 0.7874015748031497,
          "duration": 0.5
        },
        {
          "name": "F6",
          "midi": 89,
          "time": 277.2500000000012,
          "velocity": 0.7874015748031497,
          "duration": 0.5
        },
        {
          "name": "D#6",
          "midi": 87,
          "time": 277.5000000000012,
          "velocity": 0.7874015748031497,
          "duration": 0.5
        },
        {
          "name": "D#5",
          "midi": 75,
          "time": 277.7500000000012,
          "velocity": 0.7874015748031497,
          "duration": 0.5
        },
        {
          "name": "G#5",
          "midi": 80,
          "time": 278.0000000000012,
          "velocity": 0.7874015748031497,
          "duration": 0.5
        },
        {
          "name": "C6",
          "midi": 84,
          "time": 278.2500000000012,
          "velocity": 0.7874015748031497,
          "duration": 0.5
        },
        {
          "name": "G#5",
          "midi": 80,
          "time": 278.5000000000012,
          "velocity": 0.7874015748031497,
          "duration": 0.5
        },
        {
          "name": "C6",
          "midi": 84,
          "time": 278.7500000000012,
          "velocity": 0.7874015748031497,
          "duration": 0.5
        },
        {
          "name": "D#6",
          "midi": 87,
          "time": 279.0000000000012,
          "velocity": 0.7874015748031497,
          "duration": 0.5
        },
        {
          "name": "G#6",
          "midi": 92,
          "time": 279.2500000000012,
          "velocity": 0.7874015748031497,
          "duration": 0.5
        },
        {
          "name": "D6",
          "midi": 86,
          "time": 279.5000000000012,
          "velocity": 0.7874015748031497,
          "duration": 1
        },
        {
          "name": "D5",
          "midi": 74,
          "time": 279.7500000000012,
          "velocity": 0.7874015748031497,
          "duration": 0.5
        },
        {
          "name": "F5",
          "midi": 77,
          "time": 280.0000000000012,
          "velocity": 0.7874015748031497,
          "duration": 0.5
        },
        {
          "name": "B5",
          "midi": 83,
          "time": 280.2500000000012,
          "velocity": 0.7874015748031497,
          "duration": 0.5
        },
        {
          "name": "D6",
          "midi": 86,
          "time": 280.5000000000012,
          "velocity": 0.7874015748031497,
          "duration": 0.5
        },
        {
          "name": "D#6",
          "midi": 87,
          "time": 280.7500000000012,
          "velocity": 0.7874015748031497,
          "duration": 0.5
        },
        {
          "name": "F6",
          "midi": 89,
          "time": 281.0000000000012,
          "velocity": 0.7874015748031497,
          "duration": 0.5
        },
        {
          "name": "G#6",
          "midi": 92,
          "time": 281.2500000000012,
          "velocity": 0.7874015748031497,
          "duration": 0.5
        },
        {
          "name": "D#6",
          "midi": 87,
          "time": 281.5000000000012,
          "velocity": 0.7874015748031497,
          "duration": 0.5
        },
        {
          "name": "D#5",
          "midi": 75,
          "time": 281.7500000000012,
          "velocity": 0.7874015748031497,
          "duration": 0.5
        },
        {
          "name": "G5",
          "midi": 79,
          "time": 282.0000000000012,
          "velocity": 0.7874015748031497,
          "duration": 0.5
        },
        {
          "name": "C6",
          "midi": 84,
          "time": 282.2500000000012,
          "velocity": 0.7874015748031497,
          "duration": 0.5
        },
        {
          "name": "G5",
          "midi": 79,
          "time": 282.5000000000012,
          "velocity": 0.7874015748031497,
          "duration": 0.5
        },
        {
          "name": "C6",
          "midi": 84,
          "time": 282.7500000000012,
          "velocity": 0.7874015748031497,
          "duration": 0.5
        },
        {
          "name": "D#6",
          "midi": 87,
          "time": 283.0000000000012,
          "velocity": 0.7874015748031497,
          "duration": 0.5
        },
        {
          "name": "G6",
          "midi": 91,
          "time": 283.2500000000012,
          "velocity": 0.7874015748031497,
          "duration": 0.5
        },
        {
          "name": "F5",
          "midi": 77,
          "time": 283.5000000000012,
          "velocity": 0.7874015748031497,
          "duration": 0.5
        },
        {
          "name": "F6",
          "midi": 89,
          "time": 283.5000000000012,
          "velocity": 0.7874015748031497,
          "duration": 0.5
        },
        {
          "name": "G#5",
          "midi": 80,
          "time": 283.7500000000012,
          "velocity": 0.7874015748031497,
          "duration": 0.5
        },
        {
          "name": "C#6",
          "midi": 85,
          "time": 284.0000000000012,
          "velocity": 0.7874015748031497,
          "duration": 0.5
        },
        {
          "name": "G#5",
          "midi": 80,
          "time": 284.2500000000012,
          "velocity": 0.7874015748031497,
          "duration": 0.5
        },
        {
          "name": "F5",
          "midi": 77,
          "time": 284.5000000000012,
          "velocity": 0.7874015748031497,
          "duration": 0.5
        },
        {
          "name": "G5",
          "midi": 79,
          "time": 284.7500000000012,
          "velocity": 0.7874015748031497,
          "duration": 0.5
        },
        {
          "name": "G#5",
          "midi": 80,
          "time": 285.0000000000012,
          "velocity": 0.7874015748031497,
          "duration": 0.5
        },
        {
          "name": "C#6",
          "midi": 85,
          "time": 285.2500000000012,
          "velocity": 0.7874015748031497,
          "duration": 0.5
        },
        {
          "name": "F#6",
          "midi": 90,
          "time": 285.5000000000012,
          "velocity": 0.7874015748031497,
          "duration": 0.5
        },
        {
          "name": "D6",
          "midi": 86,
          "time": 285.7500000000012,
          "velocity": 0.7874015748031497,
          "duration": 0.5
        },
        {
          "name": "A5",
          "midi": 81,
          "time": 286.0000000000012,
          "velocity": 0.7874015748031497,
          "duration": 0.5
        },
        {
          "name": "F#5",
          "midi": 78,
          "time": 286.2500000000012,
          "velocity": 0.7874015748031497,
          "duration": 0.5
        },
        {
          "name": "A5",
          "midi": 81,
          "time": 286.5000000000012,
          "velocity": 0.7874015748031497,
          "duration": 0.5
        },
        {
          "name": "A#5",
          "midi": 82,
          "time": 286.7500000000012,
          "velocity": 0.7874015748031497,
          "duration": 0.5
        },
        {
          "name": "C6",
          "midi": 84,
          "time": 287.0000000000012,
          "velocity": 0.7874015748031497,
          "duration": 0.5
        },
        {
          "name": "F#6",
          "midi": 90,
          "time": 287.2500000000012,
          "velocity": 0.7874015748031497,
          "duration": 0.5
        },
        {
          "name": "E6",
          "midi": 88,
          "time": 287.5000000000012,
          "velocity": 0.7874015748031497,
          "duration": 0.5
        },
        {
          "name": "B5",
          "midi": 83,
          "time": 287.7500000000012,
          "velocity": 0.7874015748031497,
          "duration": 1
        },
        {
          "name": "E6",
          "midi": 88,
          "time": 288.0000000000012,
          "velocity": 0.7874015748031497,
          "duration": 0.5
        },
        {
          "name": "B6",
          "midi": 95,
          "time": 288.2500000000012,
          "velocity": 0.7874015748031497,
          "duration": 1
        },
        {
          "name": "D#6",
          "midi": 87,
          "time": 288.5000000000012,
          "velocity": 0.7874015748031497,
          "duration": 0.5
        },
        {
          "name": "A#5",
          "midi": 82,
          "time": 288.7500000000012,
          "velocity": 0.7874015748031497,
          "duration": 1
        },
        {
          "name": "D#6",
          "midi": 87,
          "time": 289.0000000000012,
          "velocity": 0.7874015748031497,
          "duration": 0.5
        },
        {
          "name": "A#6",
          "midi": 94,
          "time": 289.2500000000012,
          "velocity": 0.7874015748031497,
          "duration": 1
        },
        {
          "name": "D6",
          "midi": 86,
          "time": 289.5000000000012,
          "velocity": 0.7874015748031497,
          "duration": 0.5
        },
        {
          "name": "A5",
          "midi": 81,
          "time": 289.7500000000012,
          "velocity": 0.7874015748031497,
          "duration": 1
        },
        {
          "name": "D6",
          "midi": 86,
          "time": 290.0000000000012,
          "velocity": 0.7874015748031497,
          "duration": 0.5
        },
        {
          "name": "A6",
          "midi": 93,
          "time": 290.2500000000012,
          "velocity": 0.7874015748031497,
          "duration": 1
        },
        {
          "name": "C#6",
          "midi": 85,
          "time": 290.5000000000012,
          "velocity": 0.7874015748031497,
          "duration": 0.5
        },
        {
          "name": "G#5",
          "midi": 80,
          "time": 290.7500000000012,
          "velocity": 0.7874015748031497,
          "duration": 1
        },
        {
          "name": "C#6",
          "midi": 85,
          "time": 291.0000000000012,
          "velocity": 0.7874015748031497,
          "duration": 0.5
        },
        {
          "name": "G#6",
          "midi": 92,
          "time": 291.2500000000012,
          "velocity": 0.7874015748031497,
          "duration": 1
        },
        {
          "name": "C6",
          "midi": 84,
          "time": 291.5000000000012,
          "velocity": 0.7874015748031497,
          "duration": 0.5
        },
        {
          "name": "G5",
          "midi": 79,
          "time": 291.7500000000012,
          "velocity": 0.7874015748031497,
          "duration": 1
        },
        {
          "name": "C6",
          "midi": 84,
          "time": 292.0000000000012,
          "velocity": 0.7874015748031497,
          "duration": 0.5
        },
        {
          "name": "G6",
          "midi": 91,
          "time": 292.2500000000012,
          "velocity": 0.7874015748031497,
          "duration": 1
        },
        {
          "name": "B5",
          "midi": 83,
          "time": 292.5208333333345,
          "velocity": 0.7874015748031497,
          "duration": 0.5
        },
        {
          "name": "F#5",
          "midi": 78,
          "time": 292.7708333333345,
          "velocity": 0.7874015748031497,
          "duration": 1
        },
        {
          "name": "B5",
          "midi": 83,
          "time": 293.0208333333345,
          "velocity": 0.7874015748031497,
          "duration": 0.5
        },
        {
          "name": "F#6",
          "midi": 90,
          "time": 293.2708333333345,
          "velocity": 0.7874015748031497,
          "duration": 1
        },
        {
          "name": "A#5",
          "midi": 82,
          "time": 293.5208333333345,
          "velocity": 0.7874015748031497,
          "duration": 0.4791666666666856
        },
        {
          "name": "F5",
          "midi": 77,
          "time": 293.7708333333345,
          "velocity": 0.7874015748031497,
          "duration": 0.9791666666666856
        },
        {
          "name": "A#5",
          "midi": 82,
          "time": 294.0000000000012,
          "velocity": 0.7874015748031497,
          "duration": 0.5
        },
        {
          "name": "F6",
          "midi": 89,
          "time": 294.2708333333345,
          "velocity": 0.7874015748031497,
          "duration": 1
        },
        {
          "name": "A#5",
          "midi": 82,
          "time": 294.5000000000012,
          "velocity": 0.7874015748031497,
          "duration": 0.5
        },
        {
          "name": "F5",
          "midi": 77,
          "time": 294.7500000000012,
          "velocity": 0.7874015748031497,
          "duration": 0.5
        },
        {
          "name": "A#4",
          "midi": 70,
          "time": 294.7500000000012,
          "velocity": 0.7874015748031497,
          "duration": 0.5
        },
        {
          "name": "D5",
          "midi": 74,
          "time": 295.0000000000012,
          "velocity": 0.7874015748031497,
          "duration": 0.5
        },
        {
          "name": "G#5",
          "midi": 80,
          "time": 295.2500000000012,
          "velocity": 0.7874015748031497,
          "duration": 0.5
        },
        {
          "name": "G5",
          "midi": 79,
          "time": 295.5000000000012,
          "velocity": 0.7874015748031497,
          "duration": 1
        },
        {
          "name": "D5",
          "midi": 74,
          "time": 295.6250000000012,
          "velocity": 0.7874015748031497,
          "duration": 0.875
        },
        {
          "name": "B4",
          "midi": 71,
          "time": 295.7500000000012,
          "velocity": 0.7874015748031497,
          "duration": 0.75
        },
        {
          "name": "G4",
          "midi": 67,
          "time": 295.8750000000012,
          "velocity": 0.7874015748031497,
          "duration": 0.625
        },
        {
          "name": "G3",
          "midi": 55,
          "time": 296.2500000000012,
          "velocity": 0.7874015748031497,
          "duration": 1.75
        },
        {
          "name": "G#3",
          "midi": 56,
          "time": 296.5000000000012,
          "velocity": 0.7874015748031497,
          "duration": 0.5
        },
        {
          "name": "D4",
          "midi": 62,
          "time": 296.7500000000012,
          "velocity": 0.7874015748031497,
          "duration": 0.75
        },
        {
          "name": "G#3",
          "midi": 56,
          "time": 297.0000000000012,
          "velocity": 0.7874015748031497,
          "duration": 1.25
        },
        {
          "name": "B3",
          "midi": 59,
          "time": 297.2500000000012,
          "velocity": 0.7874015748031497,
          "duration": 0.25
        },
        {
          "name": "F4",
          "midi": 65,
          "time": 297.5000000000012,
          "velocity": 0.7874015748031497,
          "duration": 1.5
        },
        {
          "name": "B3",
          "midi": 59,
          "time": 297.7500000000012,
          "velocity": 0.7874015748031497,
          "duration": 3.75
        },
        {
          "name": "D4",
          "midi": 62,
          "time": 298.0000000000012,
          "velocity": 0.7874015748031497,
          "duration": 4
        },
        {
          "name": "G#4",
          "midi": 68,
          "time": 298.2500000000012,
          "velocity": 0.7874015748031497,
          "duration": 0.25
        },
        {
          "name": "G4",
          "midi": 67,
          "time": 298.5000000000012,
          "velocity": 0.7874015748031497,
          "duration": 4.5
        },
        {
          "name": "G#4",
          "midi": 68,
          "time": 298.7500000000012,
          "velocity": 0.7874015748031497,
          "duration": 0.5
        },
        {
          "name": "D5",
          "midi": 74,
          "time": 299.0000000000012,
          "velocity": 0.7874015748031497,
          "duration": 1.25
        },
        {
          "name": "G#4",
          "midi": 68,
          "time": 299.2500000000012,
          "velocity": 0.7874015748031497,
          "duration": 2.5
        },
        {
          "name": "B4",
          "midi": 71,
          "time": 299.5000000000012,
          "velocity": 0.7874015748031497,
          "duration": 0.5
        },
        {
          "name": "F5",
          "midi": 77,
          "time": 299.7500000000012,
          "velocity": 0.7874015748031497,
          "duration": 1.5
        },
        {
          "name": "B4",
          "midi": 71,
          "time": 300.0000000000012,
          "velocity": 0.7874015748031497,
          "duration": 0.5
        },
        {
          "name": "D5",
          "midi": 74,
          "time": 300.2500000000012,
          "velocity": 0.7874015748031497,
          "duration": 3
        },
        {
          "name": "G#5",
          "midi": 80,
          "time": 300.5000000000012,
          "velocity": 0.7874015748031497,
          "duration": 1
        },
        {
          "name": "B4",
          "midi": 71,
          "time": 300.7500000000012,
          "velocity": 0.7874015748031497,
          "duration": 2.5
        },
        {
          "name": "C5",
          "midi": 72,
          "time": 301.0000000000012,
          "velocity": 0.7874015748031497,
          "duration": 0.5
        },
        {
          "name": "F#5",
          "midi": 78,
          "time": 301.2500000000012,
          "velocity": 0.7874015748031497,
          "duration": 1
        },
        {
          "name": "C5",
          "midi": 72,
          "time": 301.5000000000012,
          "velocity": 0.7874015748031497,
          "duration": 2.25
        },
        {
          "name": "D#5",
          "midi": 75,
          "time": 301.7500000000012,
          "velocity": 0.7874015748031497,
          "duration": 0.5
        },
        {
          "name": "A5",
          "midi": 81,
          "time": 302.0000000000012,
          "velocity": 0.7874015748031497,
          "duration": 1.5
        },
        {
          "name": "D#5",
          "midi": 75,
          "time": 302.2500000000012,
          "velocity": 0.7874015748031497,
          "duration": 2.5
        },
        {
          "name": "F#5",
          "midi": 78,
          "time": 302.5000000000012,
          "velocity": 0.7874015748031497,
          "duration": 0.5
        },
        {
          "name": "C6",
          "midi": 84,
          "time": 302.7500000000012,
          "velocity": 0.7874015748031497,
          "duration": 0.75
        },
        {
          "name": "F#5",
          "midi": 78,
          "time": 303.0000000000012,
          "velocity": 0.7874015748031497,
          "duration": 2
        },
        {
          "name": "G5",
          "midi": 79,
          "time": 303.2500000000012,
          "velocity": 0.7874015748031497,
          "duration": 0.5
        },
        {
          "name": "C#6",
          "midi": 85,
          "time": 303.5000000000012,
          "velocity": 0.7874015748031497,
          "duration": 1
        },
        {
          "name": "G5",
          "midi": 79,
          "time": 303.7500000000012,
          "velocity": 0.7874015748031497,
          "duration": 2
        },
        {
          "name": "A#5",
          "midi": 82,
          "time": 304.0208333333345,
          "velocity": 0.7874015748031497,
          "duration": 0.4791666666666856
        },
        {
          "name": "E6",
          "midi": 88,
          "time": 304.2500000000012,
          "velocity": 0.7874015748031497,
          "duration": 1
        },
        {
          "name": "A#5",
          "midi": 82,
          "time": 304.5000000000012,
          "velocity": 0.7874015748031497,
          "duration": 2.25
        },
        {
          "name": "C#6",
          "midi": 85,
          "time": 304.7500000000012,
          "velocity": 0.7874015748031497,
          "duration": 0.5
        },
        {
          "name": "G6",
          "midi": 91,
          "time": 305.0000000000012,
          "velocity": 0.7874015748031497,
          "duration": 0.5
        },
        {
          "name": "C#6",
          "midi": 85,
          "time": 305.2500000000012,
          "velocity": 0.7874015748031497,
          "duration": 1.75
        },
        {
          "name": "D6",
          "midi": 86,
          "time": 305.5000000000012,
          "velocity": 0.7874015748031497,
          "duration": 0.5
        },
        {
          "name": "G#6",
          "midi": 92,
          "time": 305.7500000000012,
          "velocity": 0.7874015748031497,
          "duration": 0.75
        },
        {
          "name": "D6",
          "midi": 86,
          "time": 306.0000000000012,
          "velocity": 0.7874015748031497,
          "duration": 1.25
        },
        {
          "name": "F6",
          "midi": 89,
          "time": 306.2500000000012,
          "velocity": 0.7874015748031497,
          "duration": 0.25
        },
        {
          "name": "B6",
          "midi": 95,
          "time": 306.5000000000012,
          "velocity": 0.7874015748031497,
          "duration": 1
        },
        {
          "name": "F6",
          "midi": 89,
          "time": 306.7500000000012,
          "velocity": 0.7874015748031497,
          "duration": 0.75
        },
        {
          "name": "G#6",
          "midi": 92,
          "time": 307.0000000000012,
          "velocity": 0.7874015748031497,
          "duration": 0.5
        },
        {
          "name": "D7",
          "midi": 98,
          "time": 307.2500000000012,
          "velocity": 0.7874015748031497,
          "duration": 0.25
        },
        {
          "name": "G6",
          "midi": 91,
          "time": 307.5000000000012,
          "velocity": 0.7874015748031497,
          "duration": 2
        },
        {
          "name": "G7",
          "midi": 103,
          "time": 307.5000000000012,
          "velocity": 0.7874015748031497,
          "duration": 2
        },
        {
          "name": "F#7",
          "midi": 102,
          "time": 307.5000000000012,
          "velocity": 0.49606299212598426,
          "duration": 2
        },
        {
          "name": "G7",
          "midi": 103,
          "time": 309.5000000000012,
          "velocity": 0.7874015748031497,
          "duration": 2
        },
        {
          "name": "G6",
          "midi": 91,
          "time": 309.5000000000012,
          "velocity": 0.7874015748031497,
          "duration": 2
        },
        {
          "name": "F#7",
          "midi": 102,
          "time": 309.5000000000012,
          "velocity": 0.4881889763779528,
          "duration": 2
        },
        {
          "name": "G7",
          "midi": 103,
          "time": 311.5000000000012,
          "velocity": 0.7874015748031497,
          "duration": 2
        },
        {
          "name": "G6",
          "midi": 91,
          "time": 311.5000000000012,
          "velocity": 0.7874015748031497,
          "duration": 2
        },
        {
          "name": "F#7",
          "midi": 102,
          "time": 311.5000000000012,
          "velocity": 0.4881889763779528,
          "duration": 2
        },
        {
          "name": "G7",
          "midi": 103,
          "time": 313.5000000000012,
          "velocity": 0.7874015748031497,
          "duration": 2
        },
        {
          "name": "G6",
          "midi": 91,
          "time": 313.5000000000012,
          "velocity": 0.7874015748031497,
          "duration": 1.5
        },
        {
          "name": "F#7",
          "midi": 102,
          "time": 313.5000000000012,
          "velocity": 0.48031496062992124,
          "duration": 2
        },
        {
          "name": "G5",
          "midi": 79,
          "time": 314.0000000000012,
          "velocity": 0.7874015748031497,
          "duration": 0.5
        },
        {
          "name": "G4",
          "midi": 67,
          "time": 314.0000000000012,
          "velocity": 0.7874015748031497,
          "duration": 0.5
        },
        {
          "name": "D5",
          "midi": 74,
          "time": 314.5000000000012,
          "velocity": 0.7874015748031497,
          "duration": 0.5
        },
        {
          "name": "D6",
          "midi": 86,
          "time": 314.5000000000012,
          "velocity": 0.7874015748031497,
          "duration": 0.5
        },
        {
          "name": "G6",
          "midi": 91,
          "time": 315.0000000000012,
          "velocity": 0.7874015748031497,
          "duration": 0.5
        },
        {
          "name": "G5",
          "midi": 79,
          "time": 315.0000000000012,
          "velocity": 0.7874015748031497,
          "duration": 0.5
        },
        {
          "name": "G5",
          "midi": 79,
          "time": 315.5000000000012,
          "velocity": 0.7874015748031497,
          "duration": 0.75
        },
        {
          "name": "C6",
          "midi": 84,
          "time": 315.5000000000012,
          "velocity": 0.7874015748031497,
          "duration": 0.75
        },
        {
          "name": "D6",
          "midi": 86,
          "time": 315.5000000000012,
          "velocity": 0.7874015748031497,
          "duration": 0.75
        },
        {
          "name": "G6",
          "midi": 91,
          "time": 315.5000000000012,
          "velocity": 0.7874015748031497,
          "duration": 0.75
        },
        {
          "name": "F5",
          "midi": 77,
          "time": 316.2500000000012,
          "velocity": 0.7874015748031497,
          "duration": 0.25
        },
        {
          "name": "A#5",
          "midi": 82,
          "time": 316.2500000000012,
          "velocity": 0.7874015748031497,
          "duration": 0.25
        },
        {
          "name": "C6",
          "midi": 84,
          "time": 316.2500000000012,
          "velocity": 0.7874015748031497,
          "duration": 0.25
        },
        {
          "name": "F6",
          "midi": 89,
          "time": 316.2500000000012,
          "velocity": 0.7874015748031497,
          "duration": 0.25
        },
        {
          "name": "F5",
          "midi": 77,
          "time": 316.5000000000012,
          "velocity": 0.7874015748031497,
          "duration": 1
        },
        {
          "name": "F6",
          "midi": 89,
          "time": 316.5000000000012,
          "velocity": 0.7874015748031497,
          "duration": 0.75
        },
        {
          "name": "A#5",
          "midi": 82,
          "time": 316.7500000000012,
          "velocity": 0.7874015748031497,
          "duration": 0.75
        },
        {
          "name": "C6",
          "midi": 84,
          "time": 317.0000000000012,
          "velocity": 0.7874015748031497,
          "duration": 0.5
        },
        {
          "name": "F6",
          "midi": 89,
          "time": 317.2500000000012,
          "velocity": 0.7874015748031497,
          "duration": 0.25
        },
        {
          "name": "G6",
          "midi": 91,
          "time": 317.5000000000012,
          "velocity": 0.7874015748031497,
          "duration": 0.5
        },
        {
          "name": "C7",
          "midi": 96,
          "time": 317.5000000000012,
          "velocity": 0.7874015748031497,
          "duration": 0.5
        },
        {
          "name": "F6",
          "midi": 89,
          "time": 318.0000000000012,
          "velocity": 0.7874015748031497,
          "duration": 0.5
        },
        {
          "name": "F5",
          "midi": 77,
          "time": 318.0000000000012,
          "velocity": 0.7874015748031497,
          "duration": 0.5
        },
        {
          "name": "A#6",
          "midi": 94,
          "time": 318.5000000000012,
          "velocity": 0.7874015748031497,
          "duration": 0.5
        },
        {
          "name": "A#5",
          "midi": 82,
          "time": 318.5000000000012,
          "velocity": 0.7874015748031497,
          "duration": 0.5
        },
        {
          "name": "F6",
          "midi": 89,
          "time": 319.0000000000012,
          "velocity": 0.7874015748031497,
          "duration": 0.5
        },
        {
          "name": "F5",
          "midi": 77,
          "time": 319.0000000000012,
          "velocity": 0.7874015748031497,
          "duration": 0.5
        },
        {
          "name": "F5",
          "midi": 77,
          "time": 319.5000000000012,
          "velocity": 0.7874015748031497,
          "duration": 1
        },
        {
          "name": "A#5",
          "midi": 82,
          "time": 319.5000000000012,
          "velocity": 0.7874015748031497,
          "duration": 1
        },
        {
          "name": "C6",
          "midi": 84,
          "time": 319.5000000000012,
          "velocity": 0.7874015748031497,
          "duration": 1
        },
        {
          "name": "F6",
          "midi": 89,
          "time": 319.5000000000012,
          "velocity": 0.7874015748031497,
          "duration": 1
        },
        {
          "name": "D#6",
          "midi": 87,
          "time": 320.2500000000012,
          "velocity": 0.7874015748031497,
          "duration": 0.25
        },
        {
          "name": "G#5",
          "midi": 80,
          "time": 320.2500000000012,
          "velocity": 0.7874015748031497,
          "duration": 0.25
        },
        {
          "name": "D#5",
          "midi": 75,
          "time": 320.2500000000012,
          "velocity": 0.7874015748031497,
          "duration": 0.25
        },
        {
          "name": "D#6",
          "midi": 87,
          "time": 320.5000000000012,
          "velocity": 0.7874015748031497,
          "duration": 1
        },
        {
          "name": "A#5",
          "midi": 82,
          "time": 320.5000000000012,
          "velocity": 0.7874015748031497,
          "duration": 1
        },
        {
          "name": "G#5",
          "midi": 80,
          "time": 320.5000000000012,
          "velocity": 0.7874015748031497,
          "duration": 1
        },
        {
          "name": "D#5",
          "midi": 75,
          "time": 320.5000000000012,
          "velocity": 0.7874015748031497,
          "duration": 0.75
        },
        {
          "name": "D5",
          "midi": 74,
          "time": 321.0000000000012,
          "velocity": 0.7874015748031497,
          "duration": 0.5
        },
        {
          "name": "D#5",
          "midi": 75,
          "time": 321.2500000000012,
          "velocity": 0.7874015748031497,
          "duration": 0.75
        },
        {
          "name": "G#5",
          "midi": 80,
          "time": 321.5000000000012,
          "velocity": 0.7874015748031497,
          "duration": 0.75
        },
        {
          "name": "D#6",
          "midi": 87,
          "time": 322.0000000000012,
          "velocity": 0.7874015748031497,
          "duration": 0.5
        },
        {
          "name": "D#5",
          "midi": 75,
          "time": 322.0000000000012,
          "velocity": 0.7874015748031497,
          "duration": 0.5
        },
        {
          "name": "F6",
          "midi": 89,
          "time": 322.5000000000012,
          "velocity": 0.7874015748031497,
          "duration": 0.5
        },
        {
          "name": "F5",
          "midi": 77,
          "time": 322.5000000000012,
          "velocity": 0.7874015748031497,
          "duration": 0.5
        },
        {
          "name": "C7",
          "midi": 96,
          "time": 323.0000000000012,
          "velocity": 0.7874015748031497,
          "duration": 0.5
        },
        {
          "name": "C6",
          "midi": 84,
          "time": 323.0000000000012,
          "velocity": 0.7874015748031497,
          "duration": 0.5
        },
        {
          "name": "A#6",
          "midi": 94,
          "time": 323.5000000000012,
          "velocity": 0.7874015748031497,
          "duration": 1
        },
        {
          "name": "A#5",
          "midi": 82,
          "time": 323.5000000000012,
          "velocity": 0.7874015748031497,
          "duration": 1
        },
        {
          "name": "F6",
          "midi": 89,
          "time": 323.5000000000012,
          "velocity": 0.7874015748031497,
          "duration": 1
        },
        {
          "name": "D#6",
          "midi": 87,
          "time": 324.0000000000012,
          "velocity": 0.7874015748031497,
          "duration": 0.5
        },
        {
          "name": "D6",
          "midi": 86,
          "time": 324.2500000000012,
          "velocity": 0.7874015748031497,
          "duration": 0.25
        },
        {
          "name": "D#6",
          "midi": 87,
          "time": 324.5000000000012,
          "velocity": 0.7874015748031497,
          "duration": 1
        },
        {
          "name": "A#5",
          "midi": 82,
          "time": 324.5000000000012,
          "velocity": 0.7874015748031497,
          "duration": 1
        },
        {
          "name": "D#5",
          "midi": 75,
          "time": 324.5000000000012,
          "velocity": 0.7874015748031497,
          "duration": 1
        },
        {
          "name": "A6",
          "midi": 93,
          "time": 325.5000000000012,
          "velocity": 0.7874015748031497,
          "duration": 1
        },
        {
          "name": "E6",
          "midi": 88,
          "time": 325.5000000000012,
          "velocity": 0.7874015748031497,
          "duration": 1
        },
        {
          "name": "A5",
          "midi": 81,
          "time": 325.5000000000012,
          "velocity": 0.7874015748031497,
          "duration": 1
        },
        {
          "name": "D6",
          "midi": 86,
          "time": 326.0000000000012,
          "velocity": 0.7874015748031497,
          "duration": 0.5
        },
        {
          "name": "C#6",
          "midi": 85,
          "time": 326.2500000000012,
          "velocity": 0.7874015748031497,
          "duration": 0.25
        },
        {
          "name": "D6",
          "midi": 86,
          "time": 326.5000000000012,
          "velocity": 0.7874015748031497,
          "duration": 1
        },
        {
          "name": "A5",
          "midi": 81,
          "time": 326.5000000000012,
          "velocity": 0.7874015748031497,
          "duration": 1
        },
        {
          "name": "D5",
          "midi": 74,
          "time": 326.5000000000012,
          "velocity": 0.7874015748031497,
          "duration": 1
        },
        {
          "name": "G#6",
          "midi": 92,
          "time": 327.5000000000012,
          "velocity": 0.7874015748031497,
          "duration": 1
        },
        {
          "name": "E6",
          "midi": 88,
          "time": 327.5000000000012,
          "velocity": 0.7874015748031497,
          "duration": 1
        },
        {
          "name": "G#5",
          "midi": 80,
          "time": 327.5000000000012,
          "velocity": 0.7874015748031497,
          "duration": 1
        },
        {
          "name": "D6",
          "midi": 86,
          "time": 328.0000000000012,
          "velocity": 0.7874015748031497,
          "duration": 0.5
        },
        {
          "name": "C6",
          "midi": 84,
          "time": 328.2500000000012,
          "velocity": 0.7874015748031497,
          "duration": 0.25
        },
        {
          "name": "D6",
          "midi": 86,
          "time": 328.5000000000012,
          "velocity": 0.7874015748031497,
          "duration": 1
        },
        {
          "name": "G#5",
          "midi": 80,
          "time": 328.5000000000012,
          "velocity": 0.7874015748031497,
          "duration": 1
        },
        {
          "name": "D5",
          "midi": 74,
          "time": 328.5000000000012,
          "velocity": 0.7874015748031497,
          "duration": 1
        },
        {
          "name": "G5",
          "midi": 79,
          "time": 329.5000000000012,
          "velocity": 0.7874015748031497,
          "duration": 1
        },
        {
          "name": "D6",
          "midi": 86,
          "time": 329.5000000000012,
          "velocity": 0.7874015748031497,
          "duration": 1
        },
        {
          "name": "G6",
          "midi": 91,
          "time": 329.5000000000012,
          "velocity": 0.7874015748031497,
          "duration": 1
        },
        {
          "name": "C6",
          "midi": 84,
          "time": 330.0000000000012,
          "velocity": 0.7874015748031497,
          "duration": 0.5
        },
        {
          "name": "E5",
          "midi": 76,
          "time": 330.0000000000012,
          "velocity": 0.7874015748031497,
          "duration": 1.5
        },
        {
          "name": "B5",
          "midi": 83,
          "time": 330.2500000000012,
          "velocity": 0.7874015748031497,
          "duration": 0.25
        },
        {
          "name": "C6",
          "midi": 84,
          "time": 330.5000000000012,
          "velocity": 0.7874015748031497,
          "duration": 1
        },
        {
          "name": "G5",
          "midi": 79,
          "time": 330.5000000000012,
          "velocity": 0.7874015748031497,
          "duration": 1
        },
        {
          "name": "C5",
          "midi": 72,
          "time": 330.5000000000012,
          "velocity": 0.7874015748031497,
          "duration": 1
        },
        {
          "name": "G5",
          "midi": 79,
          "time": 331.5000000000012,
          "velocity": 0.7874015748031497,
          "duration": 1
        },
        {
          "name": "C6",
          "midi": 84,
          "time": 331.5000000000012,
          "velocity": 0.7874015748031497,
          "duration": 1
        },
        {
          "name": "G6",
          "midi": 91,
          "time": 331.5000000000012,
          "velocity": 0.7874015748031497,
          "duration": 1
        },
        {
          "name": "A6",
          "midi": 93,
          "time": 332.2500000000012,
          "velocity": 0.7874015748031497,
          "duration": 0.25
        },
        {
          "name": "F6",
          "midi": 89,
          "time": 332.2500000000012,
          "velocity": 0.7874015748031497,
          "duration": 0.25
        },
        {
          "name": "A5",
          "midi": 81,
          "time": 332.2500000000012,
          "velocity": 0.7874015748031497,
          "duration": 0.25
        },
        {
          "name": "A6",
          "midi": 93,
          "time": 332.5000000000012,
          "velocity": 0.7874015748031497,
          "duration": 0.75
        },
        {
          "name": "C6",
          "midi": 84,
          "time": 332.7500000000012,
          "velocity": 0.7874015748031497,
          "duration": 0.75
        },
        {
          "name": "F6",
          "midi": 89,
          "time": 333.0000000000012,
          "velocity": 0.7874015748031497,
          "duration": 0.5
        },
        {
          "name": "A6",
          "midi": 93,
          "time": 333.2500000000012,
          "velocity": 0.7874015748031497,
          "duration": 0.25
        },
        {
          "name": "C7",
          "midi": 96,
          "time": 333.5000000000012,
          "velocity": 0.7874015748031497,
          "duration": 0.5
        },
        {
          "name": "C6",
          "midi": 84,
          "time": 333.5000000000012,
          "velocity": 0.7874015748031497,
          "duration": 0.5
        },
        {
          "name": "F6",
          "midi": 89,
          "time": 334.0000000000012,
          "velocity": 0.7874015748031497,
          "duration": 0.5
        },
        {
          "name": "F5",
          "midi": 77,
          "time": 334.0000000000012,
          "velocity": 0.7874015748031497,
          "duration": 0.5
        },
        {
          "name": "G5",
          "midi": 79,
          "time": 334.5000000000012,
          "velocity": 0.7874015748031497,
          "duration": 0.5
        },
        {
          "name": "G6",
          "midi": 91,
          "time": 334.5000000000012,
          "velocity": 0.7874015748031497,
          "duration": 0.5
        },
        {
          "name": "A5",
          "midi": 81,
          "time": 335.0000000000012,
          "velocity": 0.7874015748031497,
          "duration": 0.5
        },
        {
          "name": "A6",
          "midi": 93,
          "time": 335.0000000000012,
          "velocity": 0.7874015748031497,
          "duration": 0.5
        },
        {
          "name": "A#6",
          "midi": 94,
          "time": 335.5000000000012,
          "velocity": 0.7874015748031497,
          "duration": 2
        },
        {
          "name": "A#5",
          "midi": 82,
          "time": 335.5000000000012,
          "velocity": 0.7874015748031497,
          "duration": 0.75
        },
        {
          "name": "F6",
          "midi": 89,
          "time": 335.7500000000012,
          "velocity": 0.7874015748031497,
          "duration": 0.75
        },
        {
          "name": "D6",
          "midi": 86,
          "time": 336.0000000000012,
          "velocity": 0.7874015748031497,
          "duration": 0.75
        },
        {
          "name": "A#5",
          "midi": 82,
          "time": 336.2500000000012,
          "velocity": 0.7874015748031497,
          "duration": 1.25
        },
        {
          "name": "F6",
          "midi": 89,
          "time": 336.5000000000012,
          "velocity": 0.7874015748031497,
          "duration": 1
        },
        {
          "name": "F5",
          "midi": 77,
          "time": 336.5000000000012,
          "velocity": 0.7874015748031497,
          "duration": 1
        },
        {
          "name": "D6",
          "midi": 86,
          "time": 336.7500000000012,
          "velocity": 0.7874015748031497,
          "duration": 0.75
        },
        {
          "name": "B5",
          "midi": 83,
          "time": 337.0000000000012,
          "velocity": 0.7874015748031497,
          "duration": 0.5
        },
        {
          "name": "G#5",
          "midi": 80,
          "time": 337.2500000000012,
          "velocity": 0.7874015748031497,
          "duration": 0.25
        },
        {
          "name": "F5",
          "midi": 77,
          "time": 337.5000000000012,
          "velocity": 0.7874015748031497,
          "duration": 1
        },
        {
          "name": "G#5",
          "midi": 80,
          "time": 337.5000000000012,
          "velocity": 0.7874015748031497,
          "duration": 1
        },
        {
          "name": "D#6",
          "midi": 87,
          "time": 337.5000000000012,
          "velocity": 0.7874015748031497,
          "duration": 1
        },
        {
          "name": "D5",
          "midi": 74,
          "time": 338.5000000000012,
          "velocity": 0.7874015748031497,
          "duration": 1
        },
        {
          "name": "F5",
          "midi": 77,
          "time": 338.7500000000012,
          "velocity": 0.7874015748031497,
          "duration": 0.75
        },
        {
          "name": "G#5",
          "midi": 80,
          "time": 339.0000000000012,
          "velocity": 0.7874015748031497,
          "duration": 0.5
        },
        {
          "name": "D6",
          "midi": 86,
          "time": 339.2500000000012,
          "velocity": 0.7874015748031497,
          "duration": 0.2708333333333144
        },
        {
          "name": "C6",
          "midi": 84,
          "time": 339.5000000000012,
          "velocity": 0.7874015748031497,
          "duration": 0.3333333333333144
        },
        {
          "name": "G5",
          "midi": 79,
          "time": 339.5000000000012,
          "velocity": 0.7874015748031497,
          "duration": 0.3333333333333144
        },
        {
          "name": "D#5",
          "midi": 75,
          "time": 339.5000000000012,
          "velocity": 0.7874015748031497,
          "duration": 0.3333333333333144
        },
        {
          "name": "C5",
          "midi": 72,
          "time": 339.5000000000012,
          "velocity": 0.7874015748031497,
          "duration": 0.3333333333333144
        },
        {
          "name": "D5",
          "midi": 74,
          "time": 339.8333333333345,
          "velocity": 0.7874015748031497,
          "duration": 0.3333333333333144
        },
        {
          "name": "G5",
          "midi": 79,
          "time": 339.8333333333345,
          "velocity": 0.7874015748031497,
          "duration": 0.3333333333333144
        },
        {
          "name": "A#5",
          "midi": 82,
          "time": 339.8333333333345,
          "velocity": 0.7874015748031497,
          "duration": 0.3333333333333144
        },
        {
          "name": "D6",
          "midi": 86,
          "time": 339.8333333333345,
          "velocity": 0.7874015748031497,
          "duration": 0.3333333333333144
        },
        {
          "name": "D#5",
          "midi": 75,
          "time": 340.1666666666678,
          "velocity": 0.7874015748031497,
          "duration": 0.3333333333333144
        },
        {
          "name": "G5",
          "midi": 79,
          "time": 340.1666666666678,
          "velocity": 0.7874015748031497,
          "duration": 0.3333333333333144
        },
        {
          "name": "C6",
          "midi": 84,
          "time": 340.1666666666678,
          "velocity": 0.7874015748031497,
          "duration": 0.3333333333333144
        },
        {
          "name": "D#6",
          "midi": 87,
          "time": 340.1666666666678,
          "velocity": 0.7874015748031497,
          "duration": 0.3333333333333144
        },
        {
          "name": "D5",
          "midi": 74,
          "time": 340.50000000000114,
          "velocity": 0.7874015748031497,
          "duration": 0.3333333333333144
        },
        {
          "name": "F5",
          "midi": 77,
          "time": 340.50000000000114,
          "velocity": 0.7874015748031497,
          "duration": 0.3333333333333144
        },
        {
          "name": "G#5",
          "midi": 80,
          "time": 340.50000000000114,
          "velocity": 0.7874015748031497,
          "duration": 0.3333333333333144
        },
        {
          "name": "D6",
          "midi": 86,
          "time": 340.50000000000114,
          "velocity": 0.7874015748031497,
          "duration": 0.3333333333333144
        },
        {
          "name": "F5",
          "midi": 77,
          "time": 340.83333333333445,
          "velocity": 0.7874015748031497,
          "duration": 0.3333333333333144
        },
        {
          "name": "G#5",
          "midi": 80,
          "time": 340.83333333333445,
          "velocity": 0.7874015748031497,
          "duration": 0.3333333333333144
        },
        {
          "name": "D6",
          "midi": 86,
          "time": 340.83333333333445,
          "velocity": 0.7874015748031497,
          "duration": 0.3333333333333144
        },
        {
          "name": "F6",
          "midi": 89,
          "time": 340.83333333333445,
          "velocity": 0.7874015748031497,
          "duration": 0.3333333333333144
        },
        {
          "name": "G#5",
          "midi": 80,
          "time": 341.16666666666777,
          "velocity": 0.7874015748031497,
          "duration": 0.3333333333333144
        },
        {
          "name": "B5",
          "midi": 83,
          "time": 341.16666666666777,
          "velocity": 0.7874015748031497,
          "duration": 0.3333333333333144
        },
        {
          "name": "D6",
          "midi": 86,
          "time": 341.16666666666777,
          "velocity": 0.7874015748031497,
          "duration": 0.3333333333333144
        },
        {
          "name": "G#6",
          "midi": 92,
          "time": 341.16666666666777,
          "velocity": 0.7874015748031497,
          "duration": 0.3333333333333144
        },
        {
          "name": "D5",
          "midi": 74,
          "time": 341.5000000000011,
          "velocity": 0.7874015748031497,
          "duration": 1
        },
        {
          "name": "G5",
          "midi": 79,
          "time": 341.5000000000011,
          "velocity": 0.7874015748031497,
          "duration": 1
        },
        {
          "name": "B5",
          "midi": 83,
          "time": 341.5000000000011,
          "velocity": 0.7874015748031497,
          "duration": 1
        },
        {
          "name": "D6",
          "midi": 86,
          "time": 341.5000000000011,
          "velocity": 0.7874015748031497,
          "duration": 1
        },
        {
          "name": "B4",
          "midi": 71,
          "time": 342.5000000000011,
          "velocity": 0.7874015748031497,
          "duration": 1
        },
        {
          "name": "D5",
          "midi": 74,
          "time": 342.5000000000011,
          "velocity": 0.7874015748031497,
          "duration": 1
        },
        {
          "name": "F5",
          "midi": 77,
          "time": 342.5000000000011,
          "velocity": 0.7874015748031497,
          "duration": 1
        },
        {
          "name": "B5",
          "midi": 83,
          "time": 342.5000000000011,
          "velocity": 0.7874015748031497,
          "duration": 1
        },
        {
          "name": "D#4",
          "midi": 63,
          "time": 345.5000000000011,
          "velocity": 0.7874015748031497,
          "duration": 2
        },
        {
          "name": "G4",
          "midi": 67,
          "time": 345.5000000000011,
          "velocity": 0.7874015748031497,
          "duration": 2
        },
        {
          "name": "C5",
          "midi": 72,
          "time": 345.5000000000011,
          "velocity": 0.7874015748031497,
          "duration": 2
        },
        {
          "name": "D#5",
          "midi": 75,
          "time": 345.5000000000011,
          "velocity": 0.7874015748031497,
          "duration": 2
        },
        {
          "name": "E4",
          "midi": 64,
          "time": 349.5000000000011,
          "velocity": 0.7874015748031497,
          "duration": 2
        },
        {
          "name": "G4",
          "midi": 67,
          "time": 349.5000000000011,
          "velocity": 0.7874015748031497,
          "duration": 2
        },
        {
          "name": "A#4",
          "midi": 70,
          "time": 349.5000000000011,
          "velocity": 0.7874015748031497,
          "duration": 2
        },
        {
          "name": "C5",
          "midi": 72,
          "time": 349.5000000000011,
          "velocity": 0.7874015748031497,
          "duration": 2
        },
        {
          "name": "E5",
          "midi": 76,
          "time": 349.5000000000011,
          "velocity": 0.7874015748031497,
          "duration": 2
        },
        {
          "name": "F4",
          "midi": 65,
          "time": 353.5000000000011,
          "velocity": 0.7874015748031497,
          "duration": 2
        },
        {
          "name": "G#4",
          "midi": 68,
          "time": 353.5000000000011,
          "velocity": 0.7874015748031497,
          "duration": 2
        },
        {
          "name": "C5",
          "midi": 72,
          "time": 353.5000000000011,
          "velocity": 0.7874015748031497,
          "duration": 2
        },
        {
          "name": "F5",
          "midi": 77,
          "time": 353.5000000000011,
          "velocity": 0.7874015748031497,
          "duration": 2
        },
        {
          "name": "G#5",
          "midi": 80,
          "time": 357.5000000000011,
          "velocity": 0.7874015748031497,
          "duration": 1
        },
        {
          "name": "D5",
          "midi": 74,
          "time": 357.5000000000011,
          "velocity": 0.7874015748031497,
          "duration": 2
        },
        {
          "name": "G#4",
          "midi": 68,
          "time": 357.5000000000011,
          "velocity": 0.7874015748031497,
          "duration": 2
        },
        {
          "name": "B2",
          "midi": 47,
          "time": 358.5000000000011,
          "velocity": 0.7874015748031497,
          "duration": 1
        },
        {
          "name": "D3",
          "midi": 50,
          "time": 358.5000000000011,
          "velocity": 0.7874015748031497,
          "duration": 1
        },
        {
          "name": "B3",
          "midi": 59,
          "time": 358.5000000000011,
          "velocity": 0.7874015748031497,
          "duration": 1
        },
        {
          "name": "G#3",
          "midi": 56,
          "time": 358.5000000000011,
          "velocity": 0.7874015748031497,
          "duration": 1
        },
        {
          "name": "C4",
          "midi": 60,
          "time": 359.5000000000011,
          "velocity": 0.5196850393700787,
          "duration": 2
        },
        {
          "name": "G3",
          "midi": 55,
          "time": 359.7500000000011,
          "velocity": 0.5354330708661418,
          "duration": 0.75
        },
        {
          "name": "G#3",
          "midi": 56,
          "time": 360.0000000000011,
          "velocity": 0.5433070866141733,
          "duration": 7.5
        },
        {
          "name": "F#3",
          "midi": 54,
          "time": 360.2500000000011,
          "velocity": 0.5511811023622047,
          "duration": 7.25
        },
        {
          "name": "G3",
          "midi": 55,
          "time": 360.5000000000011,
          "velocity": 0.5590551181102362,
          "duration": 7
        },
        {
          "name": "D4",
          "midi": 62,
          "time": 360.7500000000011,
          "velocity": 0.5669291338582677,
          "duration": 6.75
        },
        {
          "name": "D#4",
          "midi": 63,
          "time": 361.0000000000011,
          "velocity": 0.5748031496062992,
          "duration": 6.5
        },
        {
          "name": "B3",
          "midi": 59,
          "time": 361.2500000000011,
          "velocity": 0.5905511811023622,
          "duration": 6.25
        },
        {
          "name": "C4",
          "midi": 60,
          "time": 361.5000000000011,
          "velocity": 0.5984251968503937,
          "duration": 6
        },
        {
          "name": "G4",
          "midi": 67,
          "time": 361.7500000000011,
          "velocity": 0.6062992125984252,
          "duration": 0.75
        },
        {
          "name": "G#4",
          "midi": 68,
          "time": 362.0000000000011,
          "velocity": 0.6141732283464567,
          "duration": 5.5
        },
        {
          "name": "F#4",
          "midi": 66,
          "time": 362.2500000000011,
          "velocity": 0.6220472440944882,
          "duration": 5.25
        },
        {
          "name": "G4",
          "midi": 67,
          "time": 362.5000000000011,
          "velocity": 0.6299212598425197,
          "duration": 5
        },
        {
          "name": "D5",
          "midi": 74,
          "time": 362.7500000000011,
          "velocity": 0.6456692913385826,
          "duration": 4.75
        },
        {
          "name": "D#5",
          "midi": 75,
          "time": 363.0000000000011,
          "velocity": 0.6456692913385826,
          "duration": 4.5
        },
        {
          "name": "B4",
          "midi": 71,
          "time": 363.2500000000011,
          "velocity": 0.6614173228346457,
          "duration": 4.25
        },
        {
          "name": "C5",
          "midi": 72,
          "time": 363.5000000000011,
          "velocity": 0.6692913385826772,
          "duration": 4
        },
        {
          "name": "G5",
          "midi": 79,
          "time": 363.7500000000011,
          "velocity": 0.6771653543307087,
          "duration": 0.75
        },
        {
          "name": "G#5",
          "midi": 80,
          "time": 364.0000000000011,
          "velocity": 0.6850393700787402,
          "duration": 3.5
        },
        {
          "name": "F#5",
          "midi": 78,
          "time": 364.2500000000011,
          "velocity": 0.6929133858267716,
          "duration": 3.25
        },
        {
          "name": "G5",
          "midi": 79,
          "time": 364.5000000000011,
          "velocity": 0.7007874015748031,
          "duration": 3
        },
        {
          "name": "D6",
          "midi": 86,
          "time": 364.7500000000011,
          "velocity": 0.7165354330708661,
          "duration": 2.75
        },
        {
          "name": "D#6",
          "midi": 87,
          "time": 365.0000000000011,
          "velocity": 0.7244094488188977,
          "duration": 2.5
        },
        {
          "name": "B5",
          "midi": 83,
          "time": 365.2500000000011,
          "velocity": 0.7322834645669292,
          "duration": 2.25
        },
        {
          "name": "C6",
          "midi": 84,
          "time": 365.5000000000011,
          "velocity": 0.7401574803149606,
          "duration": 2
        },
        {
          "name": "G6",
          "midi": 91,
          "time": 365.7500000000011,
          "velocity": 0.7480314960629921,
          "duration": 0.75
        },
        {
          "name": "G#6",
          "midi": 92,
          "time": 366.0000000000011,
          "velocity": 0.7559055118110236,
          "duration": 1.5
        },
        {
          "name": "F#6",
          "midi": 90,
          "time": 366.2500000000011,
          "velocity": 0.7716535433070866,
          "duration": 1.25
        },
        {
          "name": "G6",
          "midi": 91,
          "time": 366.5000000000011,
          "velocity": 0.7716535433070866,
          "duration": 1
        },
        {
          "name": "D7",
          "midi": 98,
          "time": 366.7500000000011,
          "velocity": 0.7874015748031497,
          "duration": 0.75
        },
        {
          "name": "D#7",
          "midi": 99,
          "time": 367.0000000000011,
          "velocity": 0.7952755905511811,
          "duration": 0.5
        },
        {
          "name": "B6",
          "midi": 95,
          "time": 367.2500000000011,
          "velocity": 0.8031496062992126,
          "duration": 0.25
        },
        {
          "name": "C7",
          "midi": 96,
          "time": 367.7500000000011,
          "velocity": 0.7874015748031497,
          "duration": 0.5
        },
        {
          "name": "C6",
          "midi": 84,
          "time": 367.7500000000011,
          "velocity": 0.7874015748031497,
          "duration": 0.5
        },
        {
          "name": "G5",
          "midi": 79,
          "time": 368.2500000000011,
          "velocity": 0.7874015748031497,
          "duration": 0.5
        },
        {
          "name": "G6",
          "midi": 91,
          "time": 368.2500000000011,
          "velocity": 0.7874015748031497,
          "duration": 0.5
        },
        {
          "name": "G#6",
          "midi": 92,
          "time": 368.7500000000011,
          "velocity": 0.7874015748031497,
          "duration": 0.5
        },
        {
          "name": "G#5",
          "midi": 80,
          "time": 368.7500000000011,
          "velocity": 0.7874015748031497,
          "duration": 0.5
        },
        {
          "name": "F#5",
          "midi": 78,
          "time": 369.2500000000011,
          "velocity": 0.7874015748031497,
          "duration": 0.5
        },
        {
          "name": "F#6",
          "midi": 90,
          "time": 369.2500000000011,
          "velocity": 0.7874015748031497,
          "duration": 0.5
        },
        {
          "name": "G6",
          "midi": 91,
          "time": 369.7500000000011,
          "velocity": 0.7874015748031497,
          "duration": 0.5
        },
        {
          "name": "G5",
          "midi": 79,
          "time": 369.7500000000011,
          "velocity": 0.7874015748031497,
          "duration": 0.5
        },
        {
          "name": "D6",
          "midi": 86,
          "time": 370.2500000000011,
          "velocity": 0.7874015748031497,
          "duration": 0.5
        },
        {
          "name": "D5",
          "midi": 74,
          "time": 370.2500000000011,
          "velocity": 0.7874015748031497,
          "duration": 0.5
        },
        {
          "name": "D#6",
          "midi": 87,
          "time": 370.7500000000011,
          "velocity": 0.7874015748031497,
          "duration": 0.5
        },
        {
          "name": "D#5",
          "midi": 75,
          "time": 370.7500000000011,
          "velocity": 0.7874015748031497,
          "duration": 0.5
        },
        {
          "name": "B4",
          "midi": 71,
          "time": 371.2500000000011,
          "velocity": 0.7874015748031497,
          "duration": 0.5
        },
        {
          "name": "B5",
          "midi": 83,
          "time": 371.2500000000011,
          "velocity": 0.7874015748031497,
          "duration": 0.5
        },
        {
          "name": "C5",
          "midi": 72,
          "time": 371.5000000000011,
          "velocity": 0.7874015748031497,
          "duration": 0.5
        },
        {
          "name": "C6",
          "midi": 84,
          "time": 371.7500000000011,
          "velocity": 0.7874015748031497,
          "duration": 0.5
        },
        {
          "name": "G4",
          "midi": 67,
          "time": 372.0000000000011,
          "velocity": 0.7874015748031497,
          "duration": 0.5
        },
        {
          "name": "G5",
          "midi": 79,
          "time": 372.2500000000011,
          "velocity": 0.7874015748031497,
          "duration": 0.5
        },
        {
          "name": "G#4",
          "midi": 68,
          "time": 372.5000000000011,
          "velocity": 0.7874015748031497,
          "duration": 0.5
        },
        {
          "name": "G#5",
          "midi": 80,
          "time": 372.7500000000011,
          "velocity": 0.7874015748031497,
          "duration": 0.5
        },
        {
          "name": "F#4",
          "midi": 66,
          "time": 373.0000000000011,
          "velocity": 0.7874015748031497,
          "duration": 0.5
        },
        {
          "name": "F#5",
          "midi": 78,
          "time": 373.2500000000011,
          "velocity": 0.7874015748031497,
          "duration": 0.5
        },
        {
          "name": "G4",
          "midi": 67,
          "time": 373.5000000000011,
          "velocity": 0.7874015748031497,
          "duration": 0.5
        },
        {
          "name": "G5",
          "midi": 79,
          "time": 373.8125000000011,
          "velocity": 0.7874015748031497,
          "duration": 0.5
        },
        {
          "name": "D4",
          "midi": 62,
          "time": 374.0000000000011,
          "velocity": 0.7874015748031497,
          "duration": 0.5
        },
        {
          "name": "D5",
          "midi": 74,
          "time": 374.2500000000011,
          "velocity": 0.7874015748031497,
          "duration": 0.5
        },
        {
          "name": "D#4",
          "midi": 63,
          "time": 374.5000000000011,
          "velocity": 0.7874015748031497,
          "duration": 0.5
        },
        {
          "name": "D#5",
          "midi": 75,
          "time": 374.7500000000011,
          "velocity": 0.7874015748031497,
          "duration": 0.5
        },
        {
          "name": "B3",
          "midi": 59,
          "time": 375.0000000000011,
          "velocity": 0.7874015748031497,
          "duration": 0.5
        },
        {
          "name": "B4",
          "midi": 71,
          "time": 375.2500000000011,
          "velocity": 0.7874015748031497,
          "duration": 0.25
        },
        {
          "name": "C4",
          "midi": 60,
          "time": 375.5000000000011,
          "velocity": 0.7874015748031497,
          "duration": 2.25
        },
        {
          "name": "G4",
          "midi": 67,
          "time": 375.5000000000011,
          "velocity": 0.7874015748031497,
          "duration": 4
        },
        {
          "name": "C5",
          "midi": 72,
          "time": 375.5000000000011,
          "velocity": 0.7874015748031497,
          "duration": 2
        },
        {
          "name": "C7",
          "midi": 96,
          "time": 377.0000000000011,
          "velocity": 0.7874015748031497,
          "duration": 6.5
        },
        {
          "name": "C6",
          "midi": 84,
          "time": 377.2500000000011,
          "velocity": 0.7874015748031497,
          "duration": 6.25
        },
        {
          "name": "C5",
          "midi": 72,
          "time": 377.5000000000011,
          "velocity": 0.7874015748031497,
          "duration": 1
        },
        {
          "name": "C4",
          "midi": 60,
          "time": 377.7500000000011,
          "velocity": 0.7874015748031497,
          "duration": 1
        },
        {
          "name": "C3",
          "midi": 48,
          "time": 378.0000000000011,
          "velocity": 0.7874015748031497,
          "duration": 1
        },
        {
          "name": "C2",
          "midi": 36,
          "time": 378.2500000000011,
          "velocity": 0.7874015748031497,
          "duration": 1
        },
        {
          "name": "C5",
          "midi": 72,
          "time": 378.5000000000011,
          "velocity": 0.7874015748031497,
          "duration": 5
        },
        {
          "name": "C4",
          "midi": 60,
          "time": 378.7500000000011,
          "velocity": 0.7874015748031497,
          "duration": 4.75
        },
        {
          "name": "C3",
          "midi": 48,
          "time": 379.0000000000011,
          "velocity": 0.7874015748031497,
          "duration": 4.5
        },
        {
          "name": "C2",
          "midi": 36,
          "time": 379.2500000000011,
          "velocity": 0.7874015748031497,
          "duration": 16.25
        },
        {
          "name": "C3",
          "midi": 48,
          "time": 383.5000000000011,
          "velocity": 0.6377952755905512,
          "duration": 4
        },
        {
          "name": "D4",
          "midi": 62,
          "time": 383.5000000000011,
          "velocity": 0.6377952755905512,
          "duration": 3
        },
        {
          "name": "G3",
          "midi": 55,
          "time": 383.5000000000011,
          "velocity": 0.6377952755905512,
          "duration": 4
        },
        {
          "name": "G#3",
          "midi": 56,
          "time": 385.5000000000011,
          "velocity": 0.6220472440944882,
          "duration": 1
        },
        {
          "name": "A#3",
          "midi": 58,
          "time": 385.5000000000011,
          "velocity": 0.6220472440944882,
          "duration": 1
        },
        {
          "name": "F4",
          "midi": 65,
          "time": 385.5000000000011,
          "velocity": 0.6220472440944882,
          "duration": 1
        },
        {
          "name": "C4",
          "midi": 60,
          "time": 386.5000000000011,
          "velocity": 0.6141732283464567,
          "duration": 1
        },
        {
          "name": "D#4",
          "midi": 63,
          "time": 386.5000000000011,
          "velocity": 0.6141732283464567,
          "duration": 1
        },
        {
          "name": "F4",
          "midi": 65,
          "time": 386.5000000000011,
          "velocity": 0.6141732283464567,
          "duration": 4
        },
        {
          "name": "F3",
          "midi": 53,
          "time": 387.5000000000011,
          "velocity": 0.6062992125984252,
          "duration": 2
        },
        {
          "name": "G3",
          "midi": 55,
          "time": 387.5000000000011,
          "velocity": 0.6062992125984252,
          "duration": 4
        },
        {
          "name": "A#3",
          "midi": 58,
          "time": 387.5000000000011,
          "velocity": 0.6062992125984252,
          "duration": 10
        },
        {
          "name": "D#4",
          "midi": 63,
          "time": 387.5000000000011,
          "velocity": 0.6062992125984252,
          "duration": 3
        },
        {
          "name": "F3",
          "midi": 53,
          "time": 389.5000000000011,
          "velocity": 0.5905511811023622,
          "duration": 8
        },
        {
          "name": "G#3",
          "midi": 56,
          "time": 389.5000000000011,
          "velocity": 0.5905511811023622,
          "duration": 8
        },
        {
          "name": "C#4",
          "midi": 61,
          "time": 389.5000000000011,
          "velocity": 0.5905511811023622,
          "duration": 1
        },
        {
          "name": "C#4",
          "midi": 61,
          "time": 390.5000000000011,
          "velocity": 0.5748031496062992,
          "duration": 1
        },
        {
          "name": "D#4",
          "midi": 63,
          "time": 390.5000000000011,
          "velocity": 0.5748031496062992,
          "duration": 1
        },
        {
          "name": "G#4",
          "midi": 68,
          "time": 390.5000000000011,
          "velocity": 0.5748031496062992,
          "duration": 3
        },
        {
          "name": "G3",
          "midi": 55,
          "time": 391.5000000000011,
          "velocity": 0.5669291338582677,
          "duration": 6
        },
        {
          "name": "C4",
          "midi": 60,
          "time": 391.5000000000011,
          "velocity": 0.5669291338582677,
          "duration": 6
        },
        {
          "name": "D4",
          "midi": 62,
          "time": 391.5000000000011,
          "velocity": 0.5669291338582677,
          "duration": 6
        },
        {
          "name": "G4",
          "midi": 67,
          "time": 391.5000000000011,
          "velocity": 0.5669291338582677,
          "duration": 6
        },
        {
          "name": "G#3",
          "midi": 56,
          "time": 397.5000000000011,
          "velocity": 0.7874015748031497,
          "duration": 0.5
        },
        {
          "name": "G#2",
          "midi": 44,
          "time": 397.5000000000011,
          "velocity": 0.7874015748031497,
          "duration": 0.5
        },
        {
          "name": "F#3",
          "midi": 54,
          "time": 397.7500000000011,
          "velocity": 0.7874015748031497,
          "duration": 0.25
        },
        {
          "name": "F#2",
          "midi": 42,
          "time": 397.7500000000011,
          "velocity": 0.7874015748031497,
          "duration": 0.25
        },
        {
          "name": "G3",
          "midi": 55,
          "time": 398.0000000000011,
          "velocity": 0.7874015748031497,
          "duration": 0.5
        },
        {
          "name": "G2",
          "midi": 43,
          "time": 398.0000000000011,
          "velocity": 0.7874015748031497,
          "duration": 0.5
        },
        {
          "name": "C3",
          "midi": 48,
          "time": 398.2500000000011,
          "velocity": 0.7874015748031497,
          "duration": 0.25
        },
        {
          "name": "C2",
          "midi": 36,
          "time": 398.2500000000011,
          "velocity": 0.7874015748031497,
          "duration": 0.25
        }
      ],
      "controlChanges": {
        "1": [
          {
            "number": 1,
            "time": 0.40833333333333327,
            "value": 0
          }
        ],
        "6": [
          {
            "number": 6,
            "time": 0.4104166666666666,
            "value": 0.5039370078740157
          },
          {
            "number": 6,
            "time": 0.41874999999999996,
            "value": 0.5039370078740157
          },
          {
            "number": 6,
            "time": 0.42499999999999993,
            "value": 0.09448818897637795
          }
        ],
        "7": [
          {
            "number": 7,
            "time": 0.4020833333333333,
            "value": 0.7874015748031497
          }
        ],
        "10": [
          {
            "number": 10,
            "time": 0.39999999999999997,
            "value": 0.5039370078740157
          }
        ],
        "11": [
          {
            "number": 11,
            "time": 0.40624999999999994,
            "value": 1
          }
        ],
        "32": [
          {
            "number": 32,
            "time": 0.39375,
            "value": 0
          }
        ],
        "38": [
          {
            "number": 38,
            "time": 0.4104166666666666,
            "value": 0
          }
        ],
        "91": [
          {
            "number": 91,
            "time": 0.4041666666666666,
            "value": 0
          }
        ],
        "100": [
          {
            "number": 100,
            "time": 0.4104166666666666,
            "value": 0.007874015748031496
          },
          {
            "number": 100,
            "time": 0.41874999999999996,
            "value": 0.015748031496062992
          },
          {
            "number": 100,
            "time": 0.42499999999999993,
            "value": 0
          },
          {
            "number": 100,
            "time": 0.43333333333333324,
            "value": 1
          }
        ],
        "101": [
          {
            "number": 101,
            "time": 0.4104166666666666,
            "value": 0
          },
          {
            "number": 101,
            "time": 0.41874999999999996,
            "value": 0
          },
          {
            "number": 101,
            "time": 0.42499999999999993,
            "value": 0
          },
          {
            "number": 101,
            "time": 0.43333333333333324,
            "value": 1
          }
        ],
        "121": [
          {
            "number": 121,
            "time": 0.39166666666666666,
            "value": 0
          }
        ]
      },
      "id": 2,
      "name": "",
      "instrumentNumber": 0,
      "instrument": "acoustic grand piano",
      "instrumentFamily": "piano",
      "channelNumber": 0,
      "isPercussion": false
    },
    {
      "startTime": 10,
      "duration": 398.5000000000004,
      "length": 1089,
      "notes": [
        {
          "name": "G2",
          "midi": 43,
          "time": 10,
          "velocity": 0.7874015748031497,
          "duration": 2.4999999999999982
        },
        {
          "name": "C3",
          "midi": 48,
          "time": 10.166666666666666,
          "velocity": 0.7874015748031497,
          "duration": 2.333333333333332
        },
        {
          "name": "G3",
          "midi": 55,
          "time": 10.333333333333332,
          "velocity": 0.7874015748031497,
          "duration": 2.166666666666666
        },
        {
          "name": "C2",
          "midi": 36,
          "time": 12.249999999999998,
          "velocity": 0.7874015748031497,
          "duration": 0.25
        },
        {
          "name": "C1",
          "midi": 24,
          "time": 12.249999999999998,
          "velocity": 0.7874015748031497,
          "duration": 0.25
        },
        {
          "name": "C1",
          "midi": 24,
          "time": 12.499999999999998,
          "velocity": 0.7874015748031497,
          "duration": 2.9999999999999982
        },
        {
          "name": "C2",
          "midi": 36,
          "time": 12.499999999999998,
          "velocity": 0.7874015748031497,
          "duration": 2.9999999999999982
        },
        {
          "name": "G#2",
          "midi": 44,
          "time": 13.999999999999998,
          "velocity": 0.7874015748031497,
          "duration": 2.4999999999999982
        },
        {
          "name": "C#3",
          "midi": 49,
          "time": 14.166666666666664,
          "velocity": 0.7874015748031497,
          "duration": 2.333333333333332
        },
        {
          "name": "G#3",
          "midi": 56,
          "time": 14.33333333333333,
          "velocity": 0.7874015748031497,
          "duration": 2.166666666666666
        },
        {
          "name": "C2",
          "midi": 36,
          "time": 16.249999999999996,
          "velocity": 0.7874015748031497,
          "duration": 0.25
        },
        {
          "name": "C1",
          "midi": 24,
          "time": 16.249999999999996,
          "velocity": 0.7874015748031497,
          "duration": 0.25
        },
        {
          "name": "C1",
          "midi": 24,
          "time": 16.499999999999996,
          "velocity": 0.7874015748031497,
          "duration": 3.0000000000000036
        },
        {
          "name": "C2",
          "midi": 36,
          "time": 16.499999999999996,
          "velocity": 0.7874015748031497,
          "duration": 3.0000000000000036
        },
        {
          "name": "A#2",
          "midi": 46,
          "time": 17.999999999999996,
          "velocity": 0.7874015748031497,
          "duration": 2.5000000000000036
        },
        {
          "name": "F#3",
          "midi": 54,
          "time": 18.166666666666664,
          "velocity": 0.7874015748031497,
          "duration": 2.3333333333333357
        },
        {
          "name": "A#3",
          "midi": 58,
          "time": 18.333333333333332,
          "velocity": 0.7874015748031497,
          "duration": 2.166666666666668
        },
        {
          "name": "C2",
          "midi": 36,
          "time": 20.25,
          "velocity": 0.7874015748031497,
          "duration": 0.25
        },
        {
          "name": "C1",
          "midi": 24,
          "time": 20.25,
          "velocity": 0.7874015748031497,
          "duration": 0.25
        },
        {
          "name": "C1",
          "midi": 24,
          "time": 20.5,
          "velocity": 0.7874015748031497,
          "duration": 3.0000000000000036
        },
        {
          "name": "C2",
          "midi": 36,
          "time": 20.5,
          "velocity": 0.7874015748031497,
          "duration": 3.0000000000000036
        },
        {
          "name": "G#2",
          "midi": 44,
          "time": 22,
          "velocity": 0.7874015748031497,
          "duration": 2.500000000000007
        },
        {
          "name": "D#3",
          "midi": 51,
          "time": 22.166666666666668,
          "velocity": 0.7874015748031497,
          "duration": 2.3333333333333393
        },
        {
          "name": "G#3",
          "midi": 56,
          "time": 22.333333333333336,
          "velocity": 0.7874015748031497,
          "duration": 2.1666666666666714
        },
        {
          "name": "C#2",
          "midi": 37,
          "time": 23.500000000000004,
          "velocity": 0.7874015748031497,
          "duration": 0.8333333333333357
        },
        {
          "name": "C#3",
          "midi": 49,
          "time": 23.500000000000004,
          "velocity": 0.7874015748031497,
          "duration": 1.0000000000000036
        },
        {
          "name": "G1",
          "midi": 31,
          "time": 24.16666666666667,
          "velocity": 0.7874015748031497,
          "duration": 0.3333333333333357
        },
        {
          "name": "C#2",
          "midi": 37,
          "time": 24.33333333333334,
          "velocity": 0.7874015748031497,
          "duration": 0.16666666666666785
        },
        {
          "name": "C#1",
          "midi": 25,
          "time": 24.33333333333334,
          "velocity": 0.7874015748031497,
          "duration": 0.16666666666666785
        },
        {
          "name": "C1",
          "midi": 24,
          "time": 24.500000000000007,
          "velocity": 0.7874015748031497,
          "duration": 11
        },
        {
          "name": "C2",
          "midi": 36,
          "time": 24.500000000000007,
          "velocity": 0.7874015748031497,
          "duration": 11
        },
        {
          "name": "C3",
          "midi": 48,
          "time": 24.500000000000007,
          "velocity": 0.7874015748031497,
          "duration": 11
        },
        {
          "name": "F4",
          "midi": 65,
          "time": 31.500000000000007,
          "velocity": 0.47244094488188976,
          "duration": 2
        },
        {
          "name": "C4",
          "midi": 60,
          "time": 31.500000000000007,
          "velocity": 0.47244094488188976,
          "duration": 2
        },
        {
          "name": "G#3",
          "midi": 56,
          "time": 31.500000000000007,
          "velocity": 0.47244094488188976,
          "duration": 2
        },
        {
          "name": "D#4",
          "midi": 63,
          "time": 33.50000000000001,
          "velocity": 0.48031496062992124,
          "duration": 2
        },
        {
          "name": "A#3",
          "midi": 58,
          "time": 33.50000000000001,
          "velocity": 0.48031496062992124,
          "duration": 2
        },
        {
          "name": "G3",
          "midi": 55,
          "time": 33.50000000000001,
          "velocity": 0.48031496062992124,
          "duration": 2
        },
        {
          "name": "F4",
          "midi": 65,
          "time": 35.50000000000001,
          "velocity": 0.48031496062992124,
          "duration": 2
        },
        {
          "name": "E4",
          "midi": 64,
          "time": 37.50000000000001,
          "velocity": 0.4881889763779528,
          "duration": 2
        },
        {
          "name": "G3",
          "midi": 55,
          "time": 37.50000000000001,
          "velocity": 0.4881889763779528,
          "duration": 2
        },
        {
          "name": "G3",
          "midi": 55,
          "time": 39.50000000000001,
          "velocity": 0.4881889763779528,
          "duration": 2
        },
        {
          "name": "E4",
          "midi": 64,
          "time": 41.50000000000001,
          "velocity": 0.49606299212598426,
          "duration": 4
        },
        {
          "name": "A4",
          "midi": 69,
          "time": 45.50000000000001,
          "velocity": 0.5039370078740157,
          "duration": 2
        },
        {
          "name": "C5",
          "midi": 72,
          "time": 45.50000000000001,
          "velocity": 0.5039370078740157,
          "duration": 2
        },
        {
          "name": "B4",
          "midi": 71,
          "time": 47.50000000000001,
          "velocity": 0.5039370078740157,
          "duration": 4
        },
        {
          "name": "D5",
          "midi": 74,
          "time": 47.50000000000001,
          "velocity": 0.5039370078740157,
          "duration": 4
        },
        {
          "name": "G1",
          "midi": 31,
          "time": 51.50000000000001,
          "velocity": 0.7874015748031497,
          "duration": 12
        },
        {
          "name": "G2",
          "midi": 43,
          "time": 51.50000000000001,
          "velocity": 0.7874015748031497,
          "duration": 3
        },
        {
          "name": "G2",
          "midi": 43,
          "time": 54.50000000000001,
          "velocity": 0.7874015748031497,
          "duration": 8
        },
        {
          "name": "F2",
          "midi": 41,
          "time": 54.75000000000001,
          "velocity": 0.7874015748031497,
          "duration": 0.75
        },
        {
          "name": "D#2",
          "midi": 39,
          "time": 55.00000000000001,
          "velocity": 0.7874015748031497,
          "duration": 0.5
        },
        {
          "name": "C#2",
          "midi": 37,
          "time": 55.25000000000001,
          "velocity": 0.7874015748031497,
          "duration": 0.25
        },
        {
          "name": "C2",
          "midi": 36,
          "time": 55.50000000000001,
          "velocity": 0.7874015748031497,
          "duration": 1
        },
        {
          "name": "C3",
          "midi": 48,
          "time": 55.50000000000001,
          "velocity": 0.7874015748031497,
          "duration": 1
        },
        {
          "name": "C4",
          "midi": 60,
          "time": 56.50000000000001,
          "velocity": 0.7874015748031497,
          "duration": 1
        },
        {
          "name": "D#4",
          "midi": 63,
          "time": 56.50000000000001,
          "velocity": 0.7874015748031497,
          "duration": 1
        },
        {
          "name": "B3",
          "midi": 59,
          "time": 57.50000000000001,
          "velocity": 0.7874015748031497,
          "duration": 1
        },
        {
          "name": "D4",
          "midi": 62,
          "time": 57.50000000000001,
          "velocity": 0.7874015748031497,
          "duration": 1
        },
        {
          "name": "F#4",
          "midi": 66,
          "time": 57.50000000000001,
          "velocity": 0.7874015748031497,
          "duration": 1
        },
        {
          "name": "A#3",
          "midi": 58,
          "time": 58.50000000000001,
          "velocity": 0.7874015748031497,
          "duration": 1
        },
        {
          "name": "E4",
          "midi": 64,
          "time": 58.50000000000001,
          "velocity": 0.7874015748031497,
          "duration": 1
        },
        {
          "name": "G4",
          "midi": 67,
          "time": 58.50000000000001,
          "velocity": 0.7874015748031497,
          "duration": 1
        },
        {
          "name": "F4",
          "midi": 65,
          "time": 59.50000000000001,
          "velocity": 0.7874015748031497,
          "duration": 1
        },
        {
          "name": "C4",
          "midi": 60,
          "time": 59.50000000000001,
          "velocity": 0.7874015748031497,
          "duration": 1
        },
        {
          "name": "A3",
          "midi": 57,
          "time": 59.50000000000001,
          "velocity": 0.7874015748031497,
          "duration": 1
        },
        {
          "name": "G#3",
          "midi": 56,
          "time": 60.50000000000001,
          "velocity": 0.7874015748031497,
          "duration": 1
        },
        {
          "name": "G#4",
          "midi": 68,
          "time": 60.50000000000001,
          "velocity": 0.7874015748031497,
          "duration": 1
        },
        {
          "name": "D#4",
          "midi": 63,
          "time": 61.50000000000001,
          "velocity": 0.7874015748031497,
          "duration": 1
        },
        {
          "name": "G3",
          "midi": 55,
          "time": 61.50000000000001,
          "velocity": 0.7874015748031497,
          "duration": 1
        },
        {
          "name": "G3",
          "midi": 55,
          "time": 62.50000000000001,
          "velocity": 0.7874015748031497,
          "duration": 1
        },
        {
          "name": "G2",
          "midi": 43,
          "time": 62.50000000000001,
          "velocity": 0.7874015748031497,
          "duration": 1
        },
        {
          "name": "D#3",
          "midi": 51,
          "time": 63.00000000000001,
          "velocity": 0.7874015748031497,
          "duration": 1.499999999999993
        },
        {
          "name": "D#2",
          "midi": 39,
          "time": 63.00000000000001,
          "velocity": 0.7874015748031497,
          "duration": 2.499999999999993
        },
        {
          "name": "F3",
          "midi": 53,
          "time": 63.50000000000001,
          "velocity": 0.7874015748031497,
          "duration": 0.4999999999999929
        },
        {
          "name": "F2",
          "midi": 41,
          "time": 63.50000000000001,
          "velocity": 0.7874015748031497,
          "duration": 0.9999999999999929
        },
        {
          "name": "C3",
          "midi": 48,
          "time": 63.75000000000001,
          "velocity": 0.7874015748031497,
          "duration": 0.7499999999999929
        },
        {
          "name": "F3",
          "midi": 53,
          "time": 64,
          "velocity": 0.7874015748031497,
          "duration": 0.5
        },
        {
          "name": "G#3",
          "midi": 56,
          "time": 64.25,
          "velocity": 0.7874015748031497,
          "duration": 0.25
        },
        {
          "name": "C4",
          "midi": 60,
          "time": 64.5,
          "velocity": 0.7874015748031497,
          "duration": 1
        },
        {
          "name": "F4",
          "midi": 65,
          "time": 64.75,
          "velocity": 0.7874015748031497,
          "duration": 0.75
        },
        {
          "name": "G#4",
          "midi": 68,
          "time": 65,
          "velocity": 0.7874015748031497,
          "duration": 0.5
        },
        {
          "name": "C5",
          "midi": 72,
          "time": 65.25,
          "velocity": 0.7874015748031497,
          "duration": 0.25
        },
        {
          "name": "D#2",
          "midi": 39,
          "time": 65.5,
          "velocity": 0.7874015748031497,
          "duration": 2
        },
        {
          "name": "D#3",
          "midi": 51,
          "time": 65.5,
          "velocity": 0.7874015748031497,
          "duration": 0.5
        },
        {
          "name": "C3",
          "midi": 48,
          "time": 65.75,
          "velocity": 0.7874015748031497,
          "duration": 0.75
        },
        {
          "name": "D#3",
          "midi": 51,
          "time": 66,
          "velocity": 0.7874015748031497,
          "duration": 0.5
        },
        {
          "name": "G3",
          "midi": 55,
          "time": 66.25,
          "velocity": 0.7874015748031497,
          "duration": 0.25
        },
        {
          "name": "D#3",
          "midi": 51,
          "time": 66.5,
          "velocity": 0.7874015748031497,
          "duration": 0.75
        },
        {
          "name": "G3",
          "midi": 55,
          "time": 66.75,
          "velocity": 0.7874015748031497,
          "duration": 0.75
        },
        {
          "name": "C4",
          "midi": 60,
          "time": 67,
          "velocity": 0.7874015748031497,
          "duration": 0.5
        },
        {
          "name": "D#3",
          "midi": 51,
          "time": 67.25,
          "velocity": 0.7874015748031497,
          "duration": 2.25
        },
        {
          "name": "D2",
          "midi": 38,
          "time": 67.5,
          "velocity": 0.7874015748031497,
          "duration": 2
        },
        {
          "name": "D3",
          "midi": 50,
          "time": 67.5,
          "velocity": 0.7874015748031497,
          "duration": 2
        },
        {
          "name": "F3",
          "midi": 53,
          "time": 67.75,
          "velocity": 0.7874015748031497,
          "duration": 1.75
        },
        {
          "name": "G#3",
          "midi": 56,
          "time": 68,
          "velocity": 0.7874015748031497,
          "duration": 1.5
        },
        {
          "name": "B3",
          "midi": 59,
          "time": 68.25,
          "velocity": 0.7874015748031497,
          "duration": 1.25
        },
        {
          "name": "D4",
          "midi": 62,
          "time": 68.5,
          "velocity": 0.7874015748031497,
          "duration": 1
        },
        {
          "name": "F4",
          "midi": 65,
          "time": 68.75,
          "velocity": 0.7874015748031497,
          "duration": 0.75
        },
        {
          "name": "G#4",
          "midi": 68,
          "time": 69,
          "velocity": 0.7874015748031497,
          "duration": 0.5
        },
        {
          "name": "B4",
          "midi": 71,
          "time": 69.25,
          "velocity": 0.7874015748031497,
          "duration": 0.25
        },
        {
          "name": "G2",
          "midi": 43,
          "time": 69.5,
          "velocity": 0.7874015748031497,
          "duration": 2
        },
        {
          "name": "D3",
          "midi": 50,
          "time": 69.75,
          "velocity": 0.7874015748031497,
          "duration": 0.5
        },
        {
          "name": "G3",
          "midi": 55,
          "time": 70,
          "velocity": 0.7874015748031497,
          "duration": 1.5
        },
        {
          "name": "D3",
          "midi": 50,
          "time": 70.25,
          "velocity": 0.7874015748031497,
          "duration": 1.25
        },
        {
          "name": "B3",
          "midi": 59,
          "time": 70.5,
          "velocity": 0.7874015748031497,
          "duration": 1
        },
        {
          "name": "G#3",
          "midi": 56,
          "time": 70.75,
          "velocity": 0.7874015748031497,
          "duration": 0.75
        },
        {
          "name": "F3",
          "midi": 53,
          "time": 71,
          "velocity": 0.7874015748031497,
          "duration": 0.5
        },
        {
          "name": "C2",
          "midi": 36,
          "time": 71.5,
          "velocity": 0.7874015748031497,
          "duration": 8
        },
        {
          "name": "C3",
          "midi": 48,
          "time": 71.5,
          "velocity": 0.7874015748031497,
          "duration": 2
        },
        {
          "name": "C4",
          "midi": 60,
          "time": 72.5,
          "velocity": 0.7874015748031497,
          "duration": 1
        },
        {
          "name": "G#4",
          "midi": 68,
          "time": 72.5,
          "velocity": 0.7874015748031497,
          "duration": 1
        },
        {
          "name": "D#4",
          "midi": 63,
          "time": 72.5,
          "velocity": 0.7874015748031497,
          "duration": 1
        },
        {
          "name": "B3",
          "midi": 59,
          "time": 73.5,
          "velocity": 0.7874015748031497,
          "duration": 1
        },
        {
          "name": "D4",
          "midi": 62,
          "time": 73.5,
          "velocity": 0.7874015748031497,
          "duration": 1
        },
        {
          "name": "F#4",
          "midi": 66,
          "time": 73.5,
          "velocity": 0.7874015748031497,
          "duration": 1
        },
        {
          "name": "G4",
          "midi": 67,
          "time": 73.5,
          "velocity": 0.7874015748031497,
          "duration": 1
        },
        {
          "name": "A#3",
          "midi": 58,
          "time": 74.5,
          "velocity": 0.7874015748031497,
          "duration": 1
        },
        {
          "name": "E4",
          "midi": 64,
          "time": 74.5,
          "velocity": 0.7874015748031497,
          "duration": 1
        },
        {
          "name": "G4",
          "midi": 67,
          "time": 74.5,
          "velocity": 0.7874015748031497,
          "duration": 1
        },
        {
          "name": "A3",
          "midi": 57,
          "time": 75.5,
          "velocity": 0.7874015748031497,
          "duration": 1
        },
        {
          "name": "F4",
          "midi": 65,
          "time": 75.5,
          "velocity": 0.7874015748031497,
          "duration": 1
        },
        {
          "name": "A4",
          "midi": 69,
          "time": 75.5,
          "velocity": 0.7874015748031497,
          "duration": 1
        },
        {
          "name": "G#4",
          "midi": 68,
          "time": 76.5,
          "velocity": 0.7874015748031497,
          "duration": 1
        },
        {
          "name": "F4",
          "midi": 65,
          "time": 76.5,
          "velocity": 0.7874015748031497,
          "duration": 1
        },
        {
          "name": "G#3",
          "midi": 56,
          "time": 76.5,
          "velocity": 0.7874015748031497,
          "duration": 1
        },
        {
          "name": "D#4",
          "midi": 63,
          "time": 77.5,
          "velocity": 0.7874015748031497,
          "duration": 1
        },
        {
          "name": "G3",
          "midi": 55,
          "time": 77.5,
          "velocity": 0.7874015748031497,
          "duration": 1
        },
        {
          "name": "G3",
          "midi": 55,
          "time": 78.5,
          "velocity": 0.7874015748031497,
          "duration": 1
        },
        {
          "name": "G2",
          "midi": 43,
          "time": 78.5,
          "velocity": 0.7874015748031497,
          "duration": 1
        },
        {
          "name": "D#3",
          "midi": 51,
          "time": 79,
          "velocity": 0.7874015748031497,
          "duration": 0.5
        },
        {
          "name": "D#2",
          "midi": 39,
          "time": 79,
          "velocity": 0.7874015748031497,
          "duration": 0.5
        },
        {
          "name": "F3",
          "midi": 53,
          "time": 79.5,
          "velocity": 0.7874015748031497,
          "duration": 0.5
        },
        {
          "name": "F2",
          "midi": 41,
          "time": 79.5,
          "velocity": 0.7874015748031497,
          "duration": 2
        },
        {
          "name": "C3",
          "midi": 48,
          "time": 79.75,
          "velocity": 0.7874015748031497,
          "duration": 1.75
        },
        {
          "name": "F3",
          "midi": 53,
          "time": 80,
          "velocity": 0.7874015748031497,
          "duration": 1.5
        },
        {
          "name": "G#3",
          "midi": 56,
          "time": 80.25,
          "velocity": 0.7874015748031497,
          "duration": 1.25
        },
        {
          "name": "C4",
          "midi": 60,
          "time": 80.5,
          "velocity": 0.7874015748031497,
          "duration": 1
        },
        {
          "name": "F4",
          "midi": 65,
          "time": 80.75,
          "velocity": 0.7874015748031497,
          "duration": 0.75
        },
        {
          "name": "G#4",
          "midi": 68,
          "time": 81,
          "velocity": 0.7874015748031497,
          "duration": 0.5
        },
        {
          "name": "D#2",
          "midi": 39,
          "time": 81.5,
          "velocity": 0.7874015748031497,
          "duration": 2
        },
        {
          "name": "D#3",
          "midi": 51,
          "time": 81.5,
          "velocity": 0.7874015748031497,
          "duration": 0.5
        },
        {
          "name": "C3",
          "midi": 48,
          "time": 81.75,
          "velocity": 0.7874015748031497,
          "duration": 1.75
        },
        {
          "name": "D#3",
          "midi": 51,
          "time": 82,
          "velocity": 0.7874015748031497,
          "duration": 0.5
        },
        {
          "name": "G3",
          "midi": 55,
          "time": 82.25,
          "velocity": 0.7874015748031497,
          "duration": 0.5
        },
        {
          "name": "D#3",
          "midi": 51,
          "time": 82.5,
          "velocity": 0.7874015748031497,
          "duration": 0.75
        },
        {
          "name": "G3",
          "midi": 55,
          "time": 82.75,
          "velocity": 0.7874015748031497,
          "duration": 0.75
        },
        {
          "name": "C4",
          "midi": 60,
          "time": 83,
          "velocity": 0.7874015748031497,
          "duration": 0.5
        },
        {
          "name": "D#3",
          "midi": 51,
          "time": 83.25,
          "velocity": 0.7874015748031497,
          "duration": 0.25
        },
        {
          "name": "C#2",
          "midi": 37,
          "time": 83.5,
          "velocity": 0.7874015748031497,
          "duration": 2
        },
        {
          "name": "C#3",
          "midi": 49,
          "time": 83.5,
          "velocity": 0.7874015748031497,
          "duration": 0.5
        },
        {
          "name": "G#2",
          "midi": 44,
          "time": 83.75,
          "velocity": 0.7874015748031497,
          "duration": 1.75
        },
        {
          "name": "C#3",
          "midi": 49,
          "time": 84,
          "velocity": 0.7874015748031497,
          "duration": 1.5
        },
        {
          "name": "F3",
          "midi": 53,
          "time": 84.25,
          "velocity": 0.7874015748031497,
          "duration": 1.25
        },
        {
          "name": "G#3",
          "midi": 56,
          "time": 84.5,
          "velocity": 0.7874015748031497,
          "duration": 1
        },
        {
          "name": "C#4",
          "midi": 61,
          "time": 84.75,
          "velocity": 0.7874015748031497,
          "duration": 0.75
        },
        {
          "name": "F4",
          "midi": 65,
          "time": 85,
          "velocity": 0.7874015748031497,
          "duration": 0.5
        },
        {
          "name": "C2",
          "midi": 36,
          "time": 85.5,
          "velocity": 0.7874015748031497,
          "duration": 2
        },
        {
          "name": "D#3",
          "midi": 51,
          "time": 85.75,
          "velocity": 0.7874015748031497,
          "duration": 0.5
        },
        {
          "name": "G#3",
          "midi": 56,
          "time": 86,
          "velocity": 0.7874015748031497,
          "duration": 1.5
        },
        {
          "name": "D#3",
          "midi": 51,
          "time": 86.25,
          "velocity": 0.7874015748031497,
          "duration": 1.25
        },
        {
          "name": "C4",
          "midi": 60,
          "time": 86.75,
          "velocity": 0.7874015748031497,
          "duration": 0.25
        },
        {
          "name": "C#4",
          "midi": 61,
          "time": 87,
          "velocity": 0.7874015748031497,
          "duration": 0.25
        },
        {
          "name": "D#4",
          "midi": 63,
          "time": 87.25,
          "velocity": 0.7874015748031497,
          "duration": 0.25
        },
        {
          "name": "B1",
          "midi": 35,
          "time": 87.5,
          "velocity": 0.7874015748031497,
          "duration": 2
        },
        {
          "name": "B2",
          "midi": 47,
          "time": 87.5,
          "velocity": 0.7874015748031497,
          "duration": 0.5
        },
        {
          "name": "F2",
          "midi": 41,
          "time": 87.75,
          "velocity": 0.7874015748031497,
          "duration": 1.75
        },
        {
          "name": "B2",
          "midi": 47,
          "time": 88,
          "velocity": 0.7874015748031497,
          "duration": 1.5
        },
        {
          "name": "D3",
          "midi": 50,
          "time": 88.25,
          "velocity": 0.7874015748031497,
          "duration": 1.25
        },
        {
          "name": "F3",
          "midi": 53,
          "time": 88.5,
          "velocity": 0.7874015748031497,
          "duration": 1
        },
        {
          "name": "B3",
          "midi": 59,
          "time": 88.75,
          "velocity": 0.7874015748031497,
          "duration": 0.75
        },
        {
          "name": "D4",
          "midi": 62,
          "time": 89,
          "velocity": 0.7874015748031497,
          "duration": 0.5
        },
        {
          "name": "C2",
          "midi": 36,
          "time": 89.5,
          "velocity": 0.7874015748031497,
          "duration": 2
        },
        {
          "name": "D#3",
          "midi": 51,
          "time": 89.75,
          "velocity": 0.7874015748031497,
          "duration": 0.5
        },
        {
          "name": "G3",
          "midi": 55,
          "time": 90,
          "velocity": 0.7874015748031497,
          "duration": 0.5
        },
        {
          "name": "D#3",
          "midi": 51,
          "time": 90.25,
          "velocity": 0.7874015748031497,
          "duration": 1.25
        },
        {
          "name": "G3",
          "midi": 55,
          "time": 90.5,
          "velocity": 0.7874015748031497,
          "duration": 1
        },
        {
          "name": "C4",
          "midi": 60,
          "time": 90.75,
          "velocity": 0.7874015748031497,
          "duration": 0.75
        },
        {
          "name": "C#4",
          "midi": 61,
          "time": 91,
          "velocity": 0.7874015748031497,
          "duration": 1
        },
        {
          "name": "D#4",
          "midi": 63,
          "time": 91.25,
          "velocity": 0.7874015748031497,
          "duration": 1.75
        },
        {
          "name": "D4",
          "midi": 62,
          "time": 91.5,
          "velocity": 0.7874015748031497,
          "duration": 0.5
        },
        {
          "name": "D3",
          "midi": 50,
          "time": 91.5,
          "velocity": 0.7874015748031497,
          "duration": 0.5
        },
        {
          "name": "D2",
          "midi": 38,
          "time": 92,
          "velocity": 0.7874015748031497,
          "duration": 1.5
        },
        {
          "name": "D3",
          "midi": 50,
          "time": 92,
          "velocity": 0.7874015748031497,
          "duration": 1.5
        },
        {
          "name": "G#3",
          "midi": 56,
          "time": 92.5,
          "velocity": 0.7874015748031497,
          "duration": 1
        },
        {
          "name": "B3",
          "midi": 59,
          "time": 92.75,
          "velocity": 0.7874015748031497,
          "duration": 0.75
        },
        {
          "name": "D4",
          "midi": 62,
          "time": 93,
          "velocity": 0.7874015748031497,
          "duration": 0.5
        },
        {
          "name": "F4",
          "midi": 65,
          "time": 93.25,
          "velocity": 0.7874015748031497,
          "duration": 0.25
        },
        {
          "name": "G2",
          "midi": 43,
          "time": 93.5,
          "velocity": 0.7874015748031497,
          "duration": 1
        },
        {
          "name": "G1",
          "midi": 31,
          "time": 93.5,
          "velocity": 0.7874015748031497,
          "duration": 10
        },
        {
          "name": "D3",
          "midi": 50,
          "time": 93.75,
          "velocity": 0.7874015748031497,
          "duration": 0.75
        },
        {
          "name": "G3",
          "midi": 55,
          "time": 94,
          "velocity": 0.7874015748031497,
          "duration": 0.5
        },
        {
          "name": "C4",
          "midi": 60,
          "time": 94.25,
          "velocity": 0.7874015748031497,
          "duration": 0.25
        },
        {
          "name": "B3",
          "midi": 59,
          "time": 94.5,
          "velocity": 0.7874015748031497,
          "duration": 0.4375
        },
        {
          "name": "G#2",
          "midi": 44,
          "time": 94.75,
          "velocity": 0.7874015748031497,
          "duration": 0.25
        },
        {
          "name": "F3",
          "midi": 53,
          "time": 95,
          "velocity": 0.7874015748031497,
          "duration": 0.5
        },
        {
          "name": "F2",
          "midi": 41,
          "time": 95,
          "velocity": 0.7874015748031497,
          "duration": 0.5
        },
        {
          "name": "E2",
          "midi": 40,
          "time": 95.5,
          "velocity": 0.7874015748031497,
          "duration": 2
        },
        {
          "name": "E3",
          "midi": 52,
          "time": 95.5,
          "velocity": 0.7874015748031497,
          "duration": 2
        },
        {
          "name": "C3",
          "midi": 48,
          "time": 96,
          "velocity": 0.7874015748031497,
          "duration": 0.5
        },
        {
          "name": "C3",
          "midi": 48,
          "time": 96.5,
          "velocity": 0.7874015748031497,
          "duration": 1
        },
        {
          "name": "A#2",
          "midi": 46,
          "time": 97.5,
          "velocity": 0.7874015748031497,
          "duration": 2
        },
        {
          "name": "E3",
          "midi": 52,
          "time": 97.75,
          "velocity": 0.7874015748031497,
          "duration": 1.25
        },
        {
          "name": "G3",
          "midi": 55,
          "time": 98,
          "velocity": 0.7874015748031497,
          "duration": 1.5
        },
        {
          "name": "A#3",
          "midi": 58,
          "time": 98.25,
          "velocity": 0.7874015748031497,
          "duration": 1.25
        },
        {
          "name": "C4",
          "midi": 60,
          "time": 98.5,
          "velocity": 0.7874015748031497,
          "duration": 1
        },
        {
          "name": "E3",
          "midi": 52,
          "time": 99,
          "velocity": 0.7874015748031497,
          "duration": 0.5
        },
        {
          "name": "C3",
          "midi": 48,
          "time": 99.5,
          "velocity": 0.7874015748031497,
          "duration": 1
        },
        {
          "name": "F3",
          "midi": 53,
          "time": 99.5,
          "velocity": 0.7874015748031497,
          "duration": 0.75
        },
        {
          "name": "F2",
          "midi": 41,
          "time": 99.5,
          "velocity": 0.7874015748031497,
          "duration": 1
        },
        {
          "name": "F3",
          "midi": 53,
          "time": 100.25,
          "velocity": 0.7874015748031497,
          "duration": 0.25
        },
        {
          "name": "C4",
          "midi": 60,
          "time": 100.25,
          "velocity": 0.7874015748031497,
          "duration": 0.25
        },
        {
          "name": "F3",
          "midi": 53,
          "time": 100.5,
          "velocity": 0.7874015748031497,
          "duration": 0.5
        },
        {
          "name": "C4",
          "midi": 60,
          "time": 101,
          "velocity": 0.7874015748031497,
          "duration": 0.25
        },
        {
          "name": "C4",
          "midi": 60,
          "time": 101.25,
          "velocity": 0.7874015748031497,
          "duration": 0.25
        },
        {
          "name": "F4",
          "midi": 65,
          "time": 101.5,
          "velocity": 0.7874015748031497,
          "duration": 1
        },
        {
          "name": "F3",
          "midi": 53,
          "time": 101.5,
          "velocity": 0.7874015748031497,
          "duration": 1
        },
        {
          "name": "F3",
          "midi": 53,
          "time": 102.5,
          "velocity": 0.7874015748031497,
          "duration": 1
        },
        {
          "name": "D#3",
          "midi": 51,
          "time": 102.75,
          "velocity": 0.7874015748031497,
          "duration": 0.75
        },
        {
          "name": "D3",
          "midi": 50,
          "time": 103,
          "velocity": 0.7874015748031497,
          "duration": 0.5
        },
        {
          "name": "C3",
          "midi": 48,
          "time": 103.25,
          "velocity": 0.7874015748031497,
          "duration": 0.25
        },
        {
          "name": "B1",
          "midi": 35,
          "time": 103.5,
          "velocity": 0.7874015748031497,
          "duration": 16
        },
        {
          "name": "D3",
          "midi": 50,
          "time": 104,
          "velocity": 0.7874015748031497,
          "duration": 0.25
        },
        {
          "name": "D3",
          "midi": 50,
          "time": 104.25,
          "velocity": 0.7874015748031497,
          "duration": 0.25
        },
        {
          "name": "D3",
          "midi": 50,
          "time": 104.5,
          "velocity": 0.7874015748031497,
          "duration": 0.9791666666666714
        },
        {
          "name": "D2",
          "midi": 38,
          "time": 105.5,
          "velocity": 0.7874015748031497,
          "duration": 1
        },
        {
          "name": "B2",
          "midi": 47,
          "time": 105.75,
          "velocity": 0.7874015748031497,
          "duration": 0.75
        },
        {
          "name": "D3",
          "midi": 50,
          "time": 106,
          "velocity": 0.7874015748031497,
          "duration": 0.5
        },
        {
          "name": "D#3",
          "midi": 51,
          "time": 106.25,
          "velocity": 0.7874015748031497,
          "duration": 0.25
        },
        {
          "name": "F3",
          "midi": 53,
          "time": 106.5,
          "velocity": 0.7874015748031497,
          "duration": 1
        },
        {
          "name": "D3",
          "midi": 50,
          "time": 107,
          "velocity": 0.7874015748031497,
          "duration": 0.5
        },
        {
          "name": "D#3",
          "midi": 51,
          "time": 107.5,
          "velocity": 0.7874015748031497,
          "duration": 0.75
        },
        {
          "name": "D#4",
          "midi": 63,
          "time": 107.5,
          "velocity": 0.7874015748031497,
          "duration": 1
        },
        {
          "name": "A#3",
          "midi": 58,
          "time": 107.5,
          "velocity": 0.7874015748031497,
          "duration": 1
        },
        {
          "name": "D#3",
          "midi": 51,
          "time": 108.25,
          "velocity": 0.7874015748031497,
          "duration": 0.25
        },
        {
          "name": "A#2",
          "midi": 46,
          "time": 108.25,
          "velocity": 0.7874015748031497,
          "duration": 0.25
        },
        {
          "name": "D#3",
          "midi": 51,
          "time": 108.5,
          "velocity": 0.7874015748031497,
          "duration": 1
        },
        {
          "name": "A#2",
          "midi": 46,
          "time": 108.5,
          "velocity": 0.7874015748031497,
          "duration": 0.5
        },
        {
          "name": "A#2",
          "midi": 46,
          "time": 109,
          "velocity": 0.7874015748031497,
          "duration": 0.25
        },
        {
          "name": "A#2",
          "midi": 46,
          "time": 109.25,
          "velocity": 0.7874015748031497,
          "duration": 0.25
        },
        {
          "name": "D#3",
          "midi": 51,
          "time": 109.5,
          "velocity": 0.7874015748031497,
          "duration": 1
        },
        {
          "name": "D#4",
          "midi": 63,
          "time": 109.5,
          "velocity": 0.7874015748031497,
          "duration": 1
        },
        {
          "name": "D#2",
          "midi": 39,
          "time": 110.5,
          "velocity": 0.7874015748031497,
          "duration": 0.25
        },
        {
          "name": "D#3",
          "midi": 51,
          "time": 110.75,
          "velocity": 0.7874015748031497,
          "duration": 0.25
        },
        {
          "name": "A#2",
          "midi": 46,
          "time": 111,
          "velocity": 0.7874015748031497,
          "duration": 0.25
        },
        {
          "name": "A#3",
          "midi": 58,
          "time": 111.25,
          "velocity": 0.7874015748031497,
          "duration": 0.25
        },
        {
          "name": "C#3",
          "midi": 49,
          "time": 111.5,
          "velocity": 0.7874015748031497,
          "duration": 1
        },
        {
          "name": "E3",
          "midi": 52,
          "time": 111.75,
          "velocity": 0.7874015748031497,
          "duration": 0.75
        },
        {
          "name": "G3",
          "midi": 55,
          "time": 112,
          "velocity": 0.7874015748031497,
          "duration": 0.5
        },
        {
          "name": "A#3",
          "midi": 58,
          "time": 112.25,
          "velocity": 0.7874015748031497,
          "duration": 0.25
        },
        {
          "name": "E4",
          "midi": 64,
          "time": 112.5,
          "velocity": 0.7874015748031497,
          "duration": 1
        },
        {
          "name": "A#4",
          "midi": 70,
          "time": 112.5,
          "velocity": 0.7874015748031497,
          "duration": 1
        },
        {
          "name": "A#3",
          "midi": 58,
          "time": 113.5,
          "velocity": 0.7874015748031497,
          "duration": 2
        },
        {
          "name": "G#3",
          "midi": 56,
          "time": 114,
          "velocity": 0.7874015748031497,
          "duration": 0.5
        },
        {
          "name": "G3",
          "midi": 55,
          "time": 114.5,
          "velocity": 0.7874015748031497,
          "duration": 1
        },
        {
          "name": "E3",
          "midi": 52,
          "time": 114.75,
          "velocity": 0.7874015748031497,
          "duration": 0.25
        },
        {
          "name": "E3",
          "midi": 52,
          "time": 115,
          "velocity": 0.7874015748031497,
          "duration": 0.5
        },
        {
          "name": "A#2",
          "midi": 46,
          "time": 115.25,
          "velocity": 0.7874015748031497,
          "duration": 0.25
        },
        {
          "name": "F3",
          "midi": 53,
          "time": 115.5,
          "velocity": 0.7874015748031497,
          "duration": 1
        },
        {
          "name": "A#3",
          "midi": 58,
          "time": 115.5,
          "velocity": 0.7874015748031497,
          "duration": 1
        },
        {
          "name": "F4",
          "midi": 65,
          "time": 115.5,
          "velocity": 0.7874015748031497,
          "duration": 1
        },
        {
          "name": "C4",
          "midi": 60,
          "time": 116.25,
          "velocity": 0.7874015748031497,
          "duration": 0.25
        },
        {
          "name": "C3",
          "midi": 48,
          "time": 116.25,
          "velocity": 0.7874015748031497,
          "duration": 0.25
        },
        {
          "name": "C3",
          "midi": 48,
          "time": 116.5,
          "velocity": 0.7874015748031497,
          "duration": 2
        },
        {
          "name": "C4",
          "midi": 60,
          "time": 116.5,
          "velocity": 0.7874015748031497,
          "duration": 2
        },
        {
          "name": "F3",
          "midi": 53,
          "time": 117,
          "velocity": 0.7874015748031497,
          "duration": 0.25
        },
        {
          "name": "F2",
          "midi": 41,
          "time": 117,
          "velocity": 0.7874015748031497,
          "duration": 0.25
        },
        {
          "name": "F3",
          "midi": 53,
          "time": 117.25,
          "velocity": 0.7874015748031497,
          "duration": 0.25
        },
        {
          "name": "F2",
          "midi": 41,
          "time": 117.25,
          "velocity": 0.7874015748031497,
          "duration": 0.25
        },
        {
          "name": "F2",
          "midi": 41,
          "time": 117.5,
          "velocity": 0.7874015748031497,
          "duration": 2
        },
        {
          "name": "F3",
          "midi": 53,
          "time": 117.5,
          "velocity": 0.7874015748031497,
          "duration": 1
        },
        {
          "name": "G#3",
          "midi": 56,
          "time": 118.5,
          "velocity": 0.7874015748031497,
          "duration": 1
        },
        {
          "name": "F3",
          "midi": 53,
          "time": 118.5,
          "velocity": 0.7874015748031497,
          "duration": 1
        },
        {
          "name": "G#2",
          "midi": 44,
          "time": 118.5,
          "velocity": 0.7874015748031497,
          "duration": 1
        },
        {
          "name": "A#1",
          "midi": 34,
          "time": 119.5,
          "velocity": 0.7874015748031497,
          "duration": 2
        },
        {
          "name": "A#2",
          "midi": 46,
          "time": 119.5,
          "velocity": 0.7874015748031497,
          "duration": 1
        },
        {
          "name": "A#2",
          "midi": 46,
          "time": 120.5,
          "velocity": 0.7874015748031497,
          "duration": 1
        },
        {
          "name": "D#3",
          "midi": 51,
          "time": 120.75,
          "velocity": 0.7874015748031497,
          "duration": 0.75
        },
        {
          "name": "F3",
          "midi": 53,
          "time": 121,
          "velocity": 0.7874015748031497,
          "duration": 0.5
        },
        {
          "name": "G3",
          "midi": 55,
          "time": 121.25,
          "velocity": 0.7874015748031497,
          "duration": 0.25
        },
        {
          "name": "A#2",
          "midi": 46,
          "time": 121.5,
          "velocity": 0.7874015748031497,
          "duration": 2
        },
        {
          "name": "A#1",
          "midi": 34,
          "time": 121.5,
          "velocity": 0.7874015748031497,
          "duration": 2
        },
        {
          "name": "D4",
          "midi": 62,
          "time": 122.5,
          "velocity": 0.7874015748031497,
          "duration": 1
        },
        {
          "name": "A#3",
          "midi": 58,
          "time": 122.75,
          "velocity": 0.7874015748031497,
          "duration": 0.75
        },
        {
          "name": "F3",
          "midi": 53,
          "time": 123,
          "velocity": 0.7874015748031497,
          "duration": 0.5
        },
        {
          "name": "D3",
          "midi": 50,
          "time": 123.25,
          "velocity": 0.7874015748031497,
          "duration": 0.25
        },
        {
          "name": "D#3",
          "midi": 51,
          "time": 123.5,
          "velocity": 0.5590551181102362,
          "duration": 1
        },
        {
          "name": "G3",
          "midi": 55,
          "time": 123.75,
          "velocity": 0.5590551181102362,
          "duration": 0.5
        },
        {
          "name": "A#3",
          "midi": 58,
          "time": 124,
          "velocity": 0.5590551181102362,
          "duration": 1
        },
        {
          "name": "G3",
          "midi": 55,
          "time": 124.25,
          "velocity": 0.5590551181102362,
          "duration": 0.5
        },
        {
          "name": "D#3",
          "midi": 51,
          "time": 124.5,
          "velocity": 0.5590551181102362,
          "duration": 1
        },
        {
          "name": "G3",
          "midi": 55,
          "time": 124.75,
          "velocity": 0.5590551181102362,
          "duration": 0.5
        },
        {
          "name": "A#3",
          "midi": 58,
          "time": 125,
          "velocity": 0.5590551181102362,
          "duration": 1
        },
        {
          "name": "G3",
          "midi": 55,
          "time": 125.25,
          "velocity": 0.5590551181102362,
          "duration": 0.5
        },
        {
          "name": "D#3",
          "midi": 51,
          "time": 125.5,
          "velocity": 0.5590551181102362,
          "duration": 1
        },
        {
          "name": "G3",
          "midi": 55,
          "time": 125.75,
          "velocity": 0.5590551181102362,
          "duration": 0.5
        },
        {
          "name": "A#3",
          "midi": 58,
          "time": 126,
          "velocity": 0.5590551181102362,
          "duration": 1
        },
        {
          "name": "G3",
          "midi": 55,
          "time": 126.25,
          "velocity": 0.5590551181102362,
          "duration": 0.5
        },
        {
          "name": "D#3",
          "midi": 51,
          "time": 126.5,
          "velocity": 0.5590551181102362,
          "duration": 1
        },
        {
          "name": "G3",
          "midi": 55,
          "time": 126.75,
          "velocity": 0.5590551181102362,
          "duration": 0.5
        },
        {
          "name": "A#3",
          "midi": 58,
          "time": 127,
          "velocity": 0.5590551181102362,
          "duration": 1
        },
        {
          "name": "G3",
          "midi": 55,
          "time": 127.25,
          "velocity": 0.5590551181102362,
          "duration": 0.5
        },
        {
          "name": "C3",
          "midi": 48,
          "time": 127.5,
          "velocity": 0.5590551181102362,
          "duration": 1
        },
        {
          "name": "D#3",
          "midi": 51,
          "time": 127.75,
          "velocity": 0.5590551181102362,
          "duration": 0.5
        },
        {
          "name": "G#3",
          "midi": 56,
          "time": 128,
          "velocity": 0.5590551181102362,
          "duration": 1
        },
        {
          "name": "D#3",
          "midi": 51,
          "time": 128.25,
          "velocity": 0.5590551181102362,
          "duration": 0.5
        },
        {
          "name": "C3",
          "midi": 48,
          "time": 128.5,
          "velocity": 0.5590551181102362,
          "duration": 1
        },
        {
          "name": "D#3",
          "midi": 51,
          "time": 128.75,
          "velocity": 0.5590551181102362,
          "duration": 0.5
        },
        {
          "name": "G#3",
          "midi": 56,
          "time": 129,
          "velocity": 0.5590551181102362,
          "duration": 1
        },
        {
          "name": "D#3",
          "midi": 51,
          "time": 129.25,
          "velocity": 0.5590551181102362,
          "duration": 0.5
        },
        {
          "name": "B2",
          "midi": 47,
          "time": 129.5,
          "velocity": 0.5590551181102362,
          "duration": 1
        },
        {
          "name": "F3",
          "midi": 53,
          "time": 129.75,
          "velocity": 0.5590551181102362,
          "duration": 0.5
        },
        {
          "name": "G#3",
          "midi": 56,
          "time": 130,
          "velocity": 0.5590551181102362,
          "duration": 1
        },
        {
          "name": "F3",
          "midi": 53,
          "time": 130.25,
          "velocity": 0.5590551181102362,
          "duration": 0.5
        },
        {
          "name": "B2",
          "midi": 47,
          "time": 130.5,
          "velocity": 0.5590551181102362,
          "duration": 1
        },
        {
          "name": "F3",
          "midi": 53,
          "time": 130.75,
          "velocity": 0.5590551181102362,
          "duration": 0.5
        },
        {
          "name": "G#3",
          "midi": 56,
          "time": 131,
          "velocity": 0.5590551181102362,
          "duration": 1
        },
        {
          "name": "F3",
          "midi": 53,
          "time": 131.25,
          "velocity": 0.5590551181102362,
          "duration": 0.5
        },
        {
          "name": "A#2",
          "midi": 46,
          "time": 131.5,
          "velocity": 0.5590551181102362,
          "duration": 1
        },
        {
          "name": "D#3",
          "midi": 51,
          "time": 131.75,
          "velocity": 0.5590551181102362,
          "duration": 0.5
        },
        {
          "name": "G3",
          "midi": 55,
          "time": 132,
          "velocity": 0.5590551181102362,
          "duration": 1
        },
        {
          "name": "D#3",
          "midi": 51,
          "time": 132.25,
          "velocity": 0.5590551181102362,
          "duration": 0.5
        },
        {
          "name": "A#2",
          "midi": 46,
          "time": 132.5,
          "velocity": 0.5590551181102362,
          "duration": 1
        },
        {
          "name": "D#3",
          "midi": 51,
          "time": 132.75,
          "velocity": 0.5590551181102362,
          "duration": 0.5
        },
        {
          "name": "G3",
          "midi": 55,
          "time": 133,
          "velocity": 0.5590551181102362,
          "duration": 0.75
        },
        {
          "name": "D#3",
          "midi": 51,
          "time": 133.25,
          "velocity": 0.5590551181102362,
          "duration": 0.5
        },
        {
          "name": "C#3",
          "midi": 49,
          "time": 133.5,
          "velocity": 0.5590551181102362,
          "duration": 1
        },
        {
          "name": "G3",
          "midi": 55,
          "time": 133.75,
          "velocity": 0.5590551181102362,
          "duration": 0.5
        },
        {
          "name": "A#3",
          "midi": 58,
          "time": 134,
          "velocity": 0.5590551181102362,
          "duration": 1
        },
        {
          "name": "G3",
          "midi": 55,
          "time": 134.25,
          "velocity": 0.5590551181102362,
          "duration": 0.5
        },
        {
          "name": "C#3",
          "midi": 49,
          "time": 134.5,
          "velocity": 0.5590551181102362,
          "duration": 1
        },
        {
          "name": "G3",
          "midi": 55,
          "time": 134.75,
          "velocity": 0.5590551181102362,
          "duration": 0.5
        },
        {
          "name": "A#3",
          "midi": 58,
          "time": 135,
          "velocity": 0.5590551181102362,
          "duration": 1
        },
        {
          "name": "G3",
          "midi": 55,
          "time": 135.25,
          "velocity": 0.5590551181102362,
          "duration": 0.5
        },
        {
          "name": "A2",
          "midi": 45,
          "time": 135.5,
          "velocity": 0.5590551181102362,
          "duration": 1
        },
        {
          "name": "C3",
          "midi": 48,
          "time": 135.75,
          "velocity": 0.5590551181102362,
          "duration": 0.5
        },
        {
          "name": "F3",
          "midi": 53,
          "time": 136,
          "velocity": 0.5590551181102362,
          "duration": 1
        },
        {
          "name": "C3",
          "midi": 48,
          "time": 136.25,
          "velocity": 0.5590551181102362,
          "duration": 0.5
        },
        {
          "name": "A2",
          "midi": 45,
          "time": 136.5,
          "velocity": 0.5590551181102362,
          "duration": 1
        },
        {
          "name": "C3",
          "midi": 48,
          "time": 136.75,
          "velocity": 0.5590551181102362,
          "duration": 0.5
        },
        {
          "name": "F3",
          "midi": 53,
          "time": 137,
          "velocity": 0.5590551181102362,
          "duration": 0.75
        },
        {
          "name": "C3",
          "midi": 48,
          "time": 137.25,
          "velocity": 0.5590551181102362,
          "duration": 0.5
        },
        {
          "name": "B2",
          "midi": 47,
          "time": 137.5,
          "velocity": 0.5590551181102362,
          "duration": 1
        },
        {
          "name": "F3",
          "midi": 53,
          "time": 137.75,
          "velocity": 0.5590551181102362,
          "duration": 0.5
        },
        {
          "name": "G#3",
          "midi": 56,
          "time": 138,
          "velocity": 0.5590551181102362,
          "duration": 1
        },
        {
          "name": "F3",
          "midi": 53,
          "time": 138.25,
          "velocity": 0.5590551181102362,
          "duration": 0.5
        },
        {
          "name": "B2",
          "midi": 47,
          "time": 138.5,
          "velocity": 0.5590551181102362,
          "duration": 1
        },
        {
          "name": "F3",
          "midi": 53,
          "time": 138.75,
          "velocity": 0.5590551181102362,
          "duration": 0.5
        },
        {
          "name": "G#3",
          "midi": 56,
          "time": 139,
          "velocity": 0.5590551181102362,
          "duration": 1
        },
        {
          "name": "F3",
          "midi": 53,
          "time": 139.25,
          "velocity": 0.5590551181102362,
          "duration": 0.5
        },
        {
          "name": "D#3",
          "midi": 51,
          "time": 139.5,
          "velocity": 0.5590551181102362,
          "duration": 2.0000000000000284
        },
        {
          "name": "A#3",
          "midi": 58,
          "time": 139.83333333333334,
          "velocity": 0.5590551181102362,
          "duration": 3.6666666666667425
        },
        {
          "name": "D#4",
          "midi": 63,
          "time": 140.16666666666666,
          "velocity": 0.5590551181102362,
          "duration": 2.000000000000057
        },
        {
          "name": "F4",
          "midi": 65,
          "time": 140.5,
          "velocity": 0.5590551181102362,
          "duration": 2.000000000000057
        },
        {
          "name": "G4",
          "midi": 67,
          "time": 140.83333333333334,
          "velocity": 0.5590551181102362,
          "duration": 2.000000000000057
        },
        {
          "name": "A#4",
          "midi": 70,
          "time": 141.16666666666669,
          "velocity": 0.5590551181102362,
          "duration": 2.000000000000057
        },
        {
          "name": "D#3",
          "midi": 51,
          "time": 141.50000000000003,
          "velocity": 0.5590551181102362,
          "duration": 2.000000000000057
        },
        {
          "name": "C#4",
          "midi": 61,
          "time": 141.83333333333337,
          "velocity": 0.5590551181102362,
          "duration": 1.666666666666714
        },
        {
          "name": "D#4",
          "midi": 63,
          "time": 142.1666666666667,
          "velocity": 0.5590551181102362,
          "duration": 1.3333333333333712
        },
        {
          "name": "F4",
          "midi": 65,
          "time": 142.50000000000006,
          "velocity": 0.5590551181102362,
          "duration": 1.0000000000000284
        },
        {
          "name": "G4",
          "midi": 67,
          "time": 142.8333333333334,
          "velocity": 0.5590551181102362,
          "duration": 0.6666666666666856
        },
        {
          "name": "A#4",
          "midi": 70,
          "time": 143.16666666666674,
          "velocity": 0.5590551181102362,
          "duration": 0.3333333333333428
        },
        {
          "name": "D#3",
          "midi": 51,
          "time": 143.50000000000009,
          "velocity": 0.5590551181102362,
          "duration": 2.000000000000057
        },
        {
          "name": "C4",
          "midi": 60,
          "time": 143.83333333333343,
          "velocity": 0.5590551181102362,
          "duration": 3.666666666666771
        },
        {
          "name": "D#4",
          "midi": 63,
          "time": 144.16666666666677,
          "velocity": 0.5590551181102362,
          "duration": 2.000000000000057
        },
        {
          "name": "F4",
          "midi": 65,
          "time": 144.5000000000001,
          "velocity": 0.5590551181102362,
          "duration": 2.000000000000057
        },
        {
          "name": "G4",
          "midi": 67,
          "time": 144.83333333333346,
          "velocity": 0.5590551181102362,
          "duration": 2.000000000000057
        },
        {
          "name": "A#4",
          "midi": 70,
          "time": 145.1666666666668,
          "velocity": 0.5590551181102362,
          "duration": 2.000000000000057
        },
        {
          "name": "D#3",
          "midi": 51,
          "time": 145.50000000000014,
          "velocity": 0.5590551181102362,
          "duration": 2.000000000000057
        },
        {
          "name": "B3",
          "midi": 59,
          "time": 145.83333333333348,
          "velocity": 0.5590551181102362,
          "duration": 1.666666666666714
        },
        {
          "name": "D#4",
          "midi": 63,
          "time": 146.16666666666683,
          "velocity": 0.5590551181102362,
          "duration": 1.3333333333333712
        },
        {
          "name": "F4",
          "midi": 65,
          "time": 146.50000000000017,
          "velocity": 0.5590551181102362,
          "duration": 1.0000000000000284
        },
        {
          "name": "G4",
          "midi": 67,
          "time": 146.8333333333335,
          "velocity": 0.5590551181102362,
          "duration": 0.6666666666666856
        },
        {
          "name": "A#4",
          "midi": 70,
          "time": 147.16666666666686,
          "velocity": 0.5590551181102362,
          "duration": 0.3333333333333428
        },
        {
          "name": "D#3",
          "midi": 51,
          "time": 147.5000000000002,
          "velocity": 0.5590551181102362,
          "duration": 2.000000000000057
        },
        {
          "name": "A#3",
          "midi": 58,
          "time": 147.83333333333354,
          "velocity": 0.5590551181102362,
          "duration": 3.666666666666771
        },
        {
          "name": "D#4",
          "midi": 63,
          "time": 148.16666666666688,
          "velocity": 0.5590551181102362,
          "duration": 2.000000000000057
        },
        {
          "name": "F4",
          "midi": 65,
          "time": 148.50000000000023,
          "velocity": 0.5590551181102362,
          "duration": 2.000000000000057
        },
        {
          "name": "G4",
          "midi": 67,
          "time": 148.83333333333357,
          "velocity": 0.5590551181102362,
          "duration": 2.000000000000057
        },
        {
          "name": "A#4",
          "midi": 70,
          "time": 149.1666666666669,
          "velocity": 0.5590551181102362,
          "duration": 2.000000000000057
        },
        {
          "name": "D#3",
          "midi": 51,
          "time": 149.50000000000026,
          "velocity": 0.5590551181102362,
          "duration": 2.000000000000057
        },
        {
          "name": "C#4",
          "midi": 61,
          "time": 149.8333333333336,
          "velocity": 0.5590551181102362,
          "duration": 1.666666666666714
        },
        {
          "name": "D#4",
          "midi": 63,
          "time": 150.16666666666694,
          "velocity": 0.5590551181102362,
          "duration": 1.3333333333333712
        },
        {
          "name": "F4",
          "midi": 65,
          "time": 150.50000000000028,
          "velocity": 0.5590551181102362,
          "duration": 1.0000000000000284
        },
        {
          "name": "G4",
          "midi": 67,
          "time": 150.83333333333363,
          "velocity": 0.5590551181102362,
          "duration": 0.6666666666666856
        },
        {
          "name": "A#4",
          "midi": 70,
          "time": 151.16666666666697,
          "velocity": 0.5590551181102362,
          "duration": 0.3333333333333428
        },
        {
          "name": "D#3",
          "midi": 51,
          "time": 151.5000000000003,
          "velocity": 0.5590551181102362,
          "duration": 2.000000000000057
        },
        {
          "name": "B3",
          "midi": 59,
          "time": 151.83333333333366,
          "velocity": 0.5590551181102362,
          "duration": 2.000000000000057
        },
        {
          "name": "D#4",
          "midi": 63,
          "time": 152.166666666667,
          "velocity": 0.5590551181102362,
          "duration": 2.000000000000057
        },
        {
          "name": "F4",
          "midi": 65,
          "time": 152.50000000000034,
          "velocity": 0.5590551181102362,
          "duration": 2.000000000000057
        },
        {
          "name": "G4",
          "midi": 67,
          "time": 152.83333333333368,
          "velocity": 0.5590551181102362,
          "duration": 2.000000000000057
        },
        {
          "name": "B4",
          "midi": 71,
          "time": 153.16666666666703,
          "velocity": 0.5590551181102362,
          "duration": 2.000000000000057
        },
        {
          "name": "D#3",
          "midi": 51,
          "time": 153.50000000000037,
          "velocity": 0.5590551181102362,
          "duration": 2.000000000000057
        },
        {
          "name": "B3",
          "midi": 59,
          "time": 153.8333333333337,
          "velocity": 0.5590551181102362,
          "duration": 1.666666666666714
        },
        {
          "name": "D#4",
          "midi": 63,
          "time": 154.16666666666706,
          "velocity": 0.5590551181102362,
          "duration": 1.3333333333333712
        },
        {
          "name": "F4",
          "midi": 65,
          "time": 154.5000000000004,
          "velocity": 0.5590551181102362,
          "duration": 1.0000000000000284
        },
        {
          "name": "G4",
          "midi": 67,
          "time": 154.83333333333374,
          "velocity": 0.5590551181102362,
          "duration": 0.6666666666666856
        },
        {
          "name": "B4",
          "midi": 71,
          "time": 155.16666666666708,
          "velocity": 0.5590551181102362,
          "duration": 0.3333333333333428
        },
        {
          "name": "D3",
          "midi": 50,
          "time": 155.50000000000043,
          "velocity": 0.5590551181102362,
          "duration": 2.000000000000057
        },
        {
          "name": "F3",
          "midi": 53,
          "time": 155.83333333333377,
          "velocity": 0.5669291338582677,
          "duration": 1.3333333333333712
        },
        {
          "name": "A#3",
          "midi": 58,
          "time": 156.1666666666671,
          "velocity": 0.5748031496062992,
          "duration": 2.000000000000057
        },
        {
          "name": "D4",
          "midi": 62,
          "time": 156.50000000000045,
          "velocity": 0.5826771653543307,
          "duration": 2.000000000000057
        },
        {
          "name": "D#4",
          "midi": 63,
          "time": 156.8333333333338,
          "velocity": 0.5905511811023622,
          "duration": 2.000000000000057
        },
        {
          "name": "F4",
          "midi": 65,
          "time": 157.16666666666714,
          "velocity": 0.5984251968503937,
          "duration": 2.000000000000057
        },
        {
          "name": "F3",
          "midi": 53,
          "time": 157.16666666666714,
          "velocity": 0.5984251968503937,
          "duration": 0.6666666666666856
        },
        {
          "name": "A#4",
          "midi": 70,
          "time": 157.50000000000048,
          "velocity": 0.6062992125984252,
          "duration": 2.000000000000057
        },
        {
          "name": "C#3",
          "midi": 49,
          "time": 157.50000000000048,
          "velocity": 0.6062992125984252,
          "duration": 2.000000000000057
        },
        {
          "name": "F3",
          "midi": 53,
          "time": 157.83333333333383,
          "velocity": 0.6141732283464567,
          "duration": 1.666666666666714
        },
        {
          "name": "A#3",
          "midi": 58,
          "time": 158.16666666666717,
          "velocity": 0.6220472440944882,
          "duration": 1.3333333333333712
        },
        {
          "name": "C#4",
          "midi": 61,
          "time": 158.5000000000005,
          "velocity": 0.6299212598425197,
          "duration": 1.0000000000000284
        },
        {
          "name": "D#4",
          "midi": 63,
          "time": 158.83333333333385,
          "velocity": 0.6377952755905512,
          "duration": 0.6666666666666856
        },
        {
          "name": "F4",
          "midi": 65,
          "time": 159.1666666666672,
          "velocity": 0.6456692913385826,
          "duration": 0.3333333333333428
        },
        {
          "name": "C3",
          "midi": 48,
          "time": 159.50000000000054,
          "velocity": 0.6614173228346457,
          "duration": 2.000000000000057
        },
        {
          "name": "D#3",
          "midi": 51,
          "time": 159.83333333333388,
          "velocity": 0.6614173228346457,
          "duration": 1.666666666666714
        },
        {
          "name": "G#3",
          "midi": 56,
          "time": 160.16666666666723,
          "velocity": 0.6692913385826772,
          "duration": 1.3333333333333712
        },
        {
          "name": "C4",
          "midi": 60,
          "time": 160.50000000000057,
          "velocity": 0.6850393700787402,
          "duration": 1.0000000000000284
        },
        {
          "name": "D4",
          "midi": 62,
          "time": 160.8333333333339,
          "velocity": 0.6929133858267716,
          "duration": 0.6666666666666856
        },
        {
          "name": "D#4",
          "midi": 63,
          "time": 161.16666666666725,
          "velocity": 0.7007874015748031,
          "duration": 0.3333333333333428
        },
        {
          "name": "B2",
          "midi": 47,
          "time": 161.5000000000006,
          "velocity": 0.7086614173228346,
          "duration": 2
        },
        {
          "name": "D#3",
          "midi": 51,
          "time": 162.0000000000006,
          "velocity": 0.7165354330708661,
          "duration": 1.5
        },
        {
          "name": "G#3",
          "midi": 56,
          "time": 162.5000000000006,
          "velocity": 0.7322834645669292,
          "duration": 1
        },
        {
          "name": "B3",
          "midi": 59,
          "time": 163.0000000000006,
          "velocity": 0.7401574803149606,
          "duration": 0.5
        },
        {
          "name": "A#3",
          "midi": 58,
          "time": 163.5000000000006,
          "velocity": 0.7874015748031497,
          "duration": 4
        },
        {
          "name": "A#2",
          "midi": 46,
          "time": 163.5000000000006,
          "velocity": 0.7874015748031497,
          "duration": 4
        },
        {
          "name": "B3",
          "midi": 59,
          "time": 167.5000000000006,
          "velocity": 0.7874015748031497,
          "duration": 3.5
        },
        {
          "name": "B2",
          "midi": 47,
          "time": 167.5000000000006,
          "velocity": 0.7874015748031497,
          "duration": 3.5
        },
        {
          "name": "B3",
          "midi": 59,
          "time": 171.0000000000006,
          "velocity": 0.7874015748031497,
          "duration": 0.25
        },
        {
          "name": "B2",
          "midi": 47,
          "time": 171.0000000000006,
          "velocity": 0.7874015748031497,
          "duration": 0.25
        },
        {
          "name": "A#3",
          "midi": 58,
          "time": 171.5000000000006,
          "velocity": 0.7874015748031497,
          "duration": 4
        },
        {
          "name": "A#2",
          "midi": 46,
          "time": 171.5000000000006,
          "velocity": 0.7874015748031497,
          "duration": 4
        },
        {
          "name": "B3",
          "midi": 59,
          "time": 175.5000000000006,
          "velocity": 0.7874015748031497,
          "duration": 3.5
        },
        {
          "name": "B2",
          "midi": 47,
          "time": 175.5000000000006,
          "velocity": 0.7874015748031497,
          "duration": 3.5
        },
        {
          "name": "B3",
          "midi": 59,
          "time": 179.0000000000006,
          "velocity": 0.7874015748031497,
          "duration": 0.25
        },
        {
          "name": "B2",
          "midi": 47,
          "time": 179.0000000000006,
          "velocity": 0.7874015748031497,
          "duration": 0.25
        },
        {
          "name": "C4",
          "midi": 60,
          "time": 179.5000000000006,
          "velocity": 0.7874015748031497,
          "duration": 4
        },
        {
          "name": "C3",
          "midi": 48,
          "time": 179.54166666666725,
          "velocity": 0.7874015748031497,
          "duration": 3.458333333333343
        },
        {
          "name": "A#2",
          "midi": 46,
          "time": 183.0000000000006,
          "velocity": 0.7874015748031497,
          "duration": 4.5
        },
        {
          "name": "F2",
          "midi": 41,
          "time": 183.5000000000006,
          "velocity": 0.7874015748031497,
          "duration": 4
        },
        {
          "name": "F3",
          "midi": 53,
          "time": 183.5000000000006,
          "velocity": 0.7874015748031497,
          "duration": 3.5
        },
        {
          "name": "F3",
          "midi": 53,
          "time": 187.0000000000006,
          "velocity": 0.7874015748031497,
          "duration": 0.5
        },
        {
          "name": "F#3",
          "midi": 54,
          "time": 187.2500000000006,
          "velocity": 0.7874015748031497,
          "duration": 0.25
        },
        {
          "name": "G3",
          "midi": 55,
          "time": 187.5000000000006,
          "velocity": 0.7874015748031497,
          "duration": 4
        },
        {
          "name": "G2",
          "midi": 43,
          "time": 187.5000000000006,
          "velocity": 0.7874015748031497,
          "duration": 3.75
        },
        {
          "name": "G2",
          "midi": 43,
          "time": 191.2500000000006,
          "velocity": 0.7874015748031497,
          "duration": 0.25
        },
        {
          "name": "G1",
          "midi": 31,
          "time": 191.2500000000006,
          "velocity": 0.7874015748031497,
          "duration": 0.25
        },
        {
          "name": "G2",
          "midi": 43,
          "time": 191.5000000000006,
          "velocity": 0.7874015748031497,
          "duration": 2
        },
        {
          "name": "G1",
          "midi": 31,
          "time": 191.5000000000006,
          "velocity": 0.7874015748031497,
          "duration": 2
        },
        {
          "name": "G1",
          "midi": 31,
          "time": 193.5000000000006,
          "velocity": 0.7874015748031497,
          "duration": 0.5
        },
        {
          "name": "G2",
          "midi": 43,
          "time": 193.7500000000006,
          "velocity": 0.7874015748031497,
          "duration": 0.5
        },
        {
          "name": "G1",
          "midi": 31,
          "time": 194.0000000000006,
          "velocity": 0.7874015748031497,
          "duration": 0.5
        },
        {
          "name": "G#2",
          "midi": 44,
          "time": 194.2500000000006,
          "velocity": 0.7874015748031497,
          "duration": 0.5
        },
        {
          "name": "F1",
          "midi": 29,
          "time": 194.5000000000006,
          "velocity": 0.7874015748031497,
          "duration": 0.5
        },
        {
          "name": "F2",
          "midi": 41,
          "time": 194.7500000000006,
          "velocity": 0.7874015748031497,
          "duration": 0.5
        },
        {
          "name": "B0",
          "midi": 23,
          "time": 195.0000000000006,
          "velocity": 0.7874015748031497,
          "duration": 0.5
        },
        {
          "name": "B1",
          "midi": 35,
          "time": 195.2500000000006,
          "velocity": 0.7874015748031497,
          "duration": 0.5
        },
        {
          "name": "C2",
          "midi": 36,
          "time": 195.5000000000006,
          "velocity": 0.7874015748031497,
          "duration": 12.000000000000085
        },
        {
          "name": "C1",
          "midi": 24,
          "time": 195.5000000000006,
          "velocity": 0.7874015748031497,
          "duration": 12.000000000000085
        },
        {
          "name": "G#2",
          "midi": 44,
          "time": 200.5000000000006,
          "velocity": 0.7874015748031497,
          "duration": 0.3333333333333428
        },
        {
          "name": "G#3",
          "midi": 56,
          "time": 200.5000000000006,
          "velocity": 0.7874015748031497,
          "duration": 0.3333333333333428
        },
        {
          "name": "G#3",
          "midi": 56,
          "time": 200.83333333333394,
          "velocity": 0.7874015748031497,
          "duration": 0.3333333333333428
        },
        {
          "name": "G#2",
          "midi": 44,
          "time": 200.83333333333394,
          "velocity": 0.7874015748031497,
          "duration": 0.3333333333333428
        },
        {
          "name": "F#3",
          "midi": 54,
          "time": 201.50000000000063,
          "velocity": 0.7874015748031497,
          "duration": 0.3333333333333428
        },
        {
          "name": "F#2",
          "midi": 42,
          "time": 201.50000000000063,
          "velocity": 0.7874015748031497,
          "duration": 0.3333333333333428
        },
        {
          "name": "F#2",
          "midi": 42,
          "time": 201.83333333333397,
          "velocity": 0.7874015748031497,
          "duration": 0.3333333333333428
        },
        {
          "name": "F#3",
          "midi": 54,
          "time": 201.83333333333397,
          "velocity": 0.7874015748031497,
          "duration": 0.3333333333333428
        },
        {
          "name": "G3",
          "midi": 55,
          "time": 202.50000000000065,
          "velocity": 0.7874015748031497,
          "duration": 0.3333333333333428
        },
        {
          "name": "G2",
          "midi": 43,
          "time": 202.50000000000065,
          "velocity": 0.7874015748031497,
          "duration": 0.3333333333333428
        },
        {
          "name": "G3",
          "midi": 55,
          "time": 202.833333333334,
          "velocity": 0.7874015748031497,
          "duration": 0.6666666666666572
        },
        {
          "name": "G2",
          "midi": 43,
          "time": 202.833333333334,
          "velocity": 0.7874015748031497,
          "duration": 0.6666666666666572
        },
        {
          "name": "F2",
          "midi": 41,
          "time": 206.50000000000065,
          "velocity": 0.7874015748031497,
          "duration": 0.3333333333333428
        },
        {
          "name": "F3",
          "midi": 53,
          "time": 206.50000000000065,
          "velocity": 0.7874015748031497,
          "duration": 0.3333333333333428
        },
        {
          "name": "F3",
          "midi": 53,
          "time": 206.833333333334,
          "velocity": 0.7874015748031497,
          "duration": 0.3333333333333428
        },
        {
          "name": "F2",
          "midi": 41,
          "time": 206.833333333334,
          "velocity": 0.7874015748031497,
          "duration": 0.3333333333333428
        },
        {
          "name": "D3",
          "midi": 50,
          "time": 207.50000000000068,
          "velocity": 0.7874015748031497,
          "duration": 0.3333333333333428
        },
        {
          "name": "D2",
          "midi": 38,
          "time": 207.50000000000068,
          "velocity": 0.7874015748031497,
          "duration": 0.3333333333333428
        },
        {
          "name": "D2",
          "midi": 38,
          "time": 207.83333333333402,
          "velocity": 0.7874015748031497,
          "duration": 0.3333333333333428
        },
        {
          "name": "D3",
          "midi": 50,
          "time": 207.83333333333402,
          "velocity": 0.7874015748031497,
          "duration": 0.3333333333333428
        },
        {
          "name": "D#3",
          "midi": 51,
          "time": 208.5000000000007,
          "velocity": 0.7874015748031497,
          "duration": 0.3333333333333428
        },
        {
          "name": "D#2",
          "midi": 39,
          "time": 208.5000000000007,
          "velocity": 0.7874015748031497,
          "duration": 0.3333333333333428
        },
        {
          "name": "D#3",
          "midi": 51,
          "time": 208.83333333333405,
          "velocity": 0.7874015748031497,
          "duration": 0.6666666666666572
        },
        {
          "name": "D#2",
          "midi": 39,
          "time": 208.83333333333405,
          "velocity": 0.7874015748031497,
          "duration": 0.6666666666666572
        },
        {
          "name": "G1",
          "midi": 31,
          "time": 211.5000000000007,
          "velocity": 0.7874015748031497,
          "duration": 0.3333333333333428
        },
        {
          "name": "G2",
          "midi": 43,
          "time": 211.5000000000007,
          "velocity": 0.7874015748031497,
          "duration": 0.3333333333333428
        },
        {
          "name": "G2",
          "midi": 43,
          "time": 211.83333333333405,
          "velocity": 0.7874015748031497,
          "duration": 0.3333333333333428
        },
        {
          "name": "G1",
          "midi": 31,
          "time": 211.83333333333405,
          "velocity": 0.7874015748031497,
          "duration": 0.3333333333333428
        },
        {
          "name": "G#2",
          "midi": 44,
          "time": 212.50000000000074,
          "velocity": 0.7874015748031497,
          "duration": 0.3333333333333428
        },
        {
          "name": "G#1",
          "midi": 32,
          "time": 212.50000000000074,
          "velocity": 0.7874015748031497,
          "duration": 0.3333333333333428
        },
        {
          "name": "G#1",
          "midi": 32,
          "time": 212.83333333333408,
          "velocity": 0.7874015748031497,
          "duration": 0.3333333333333428
        },
        {
          "name": "G#2",
          "midi": 44,
          "time": 212.83333333333408,
          "velocity": 0.7874015748031497,
          "duration": 0.3333333333333428
        },
        {
          "name": "F#2",
          "midi": 42,
          "time": 213.50000000000077,
          "velocity": 0.7874015748031497,
          "duration": 0.3333333333333428
        },
        {
          "name": "F#1",
          "midi": 30,
          "time": 213.50000000000077,
          "velocity": 0.7874015748031497,
          "duration": 0.3333333333333428
        },
        {
          "name": "F#2",
          "midi": 42,
          "time": 213.8333333333341,
          "velocity": 0.7874015748031497,
          "duration": 0.3333333333333428
        },
        {
          "name": "F#1",
          "midi": 30,
          "time": 213.8333333333341,
          "velocity": 0.7874015748031497,
          "duration": 0.3333333333333428
        },
        {
          "name": "G1",
          "midi": 31,
          "time": 214.5000000000008,
          "velocity": 0.7874015748031497,
          "duration": 0.3333333333333428
        },
        {
          "name": "G2",
          "midi": 43,
          "time": 214.5000000000008,
          "velocity": 0.7874015748031497,
          "duration": 0.3333333333333428
        },
        {
          "name": "G1",
          "midi": 31,
          "time": 214.83333333333414,
          "velocity": 0.7874015748031497,
          "duration": 0.6666666666666572
        },
        {
          "name": "G2",
          "midi": 43,
          "time": 214.83333333333414,
          "velocity": 0.7874015748031497,
          "duration": 0.6666666666666572
        },
        {
          "name": "D#2",
          "midi": 39,
          "time": 217.5000000000008,
          "velocity": 0.7874015748031497,
          "duration": 0.3333333333333428
        },
        {
          "name": "D#1",
          "midi": 27,
          "time": 217.5000000000008,
          "velocity": 0.7874015748031497,
          "duration": 0.3333333333333428
        },
        {
          "name": "D#2",
          "midi": 39,
          "time": 217.83333333333414,
          "velocity": 0.7874015748031497,
          "duration": 0.3333333333333428
        },
        {
          "name": "D#1",
          "midi": 27,
          "time": 217.83333333333414,
          "velocity": 0.7874015748031497,
          "duration": 0.3333333333333428
        },
        {
          "name": "F2",
          "midi": 41,
          "time": 218.50000000000082,
          "velocity": 0.7874015748031497,
          "duration": 0.3333333333333428
        },
        {
          "name": "F1",
          "midi": 29,
          "time": 218.50000000000082,
          "velocity": 0.7874015748031497,
          "duration": 0.3333333333333428
        },
        {
          "name": "F2",
          "midi": 41,
          "time": 218.83333333333417,
          "velocity": 0.7874015748031497,
          "duration": 0.3333333333333428
        },
        {
          "name": "F1",
          "midi": 29,
          "time": 218.83333333333417,
          "velocity": 0.7874015748031497,
          "duration": 0.3333333333333428
        },
        {
          "name": "D2",
          "midi": 38,
          "time": 219.50000000000085,
          "velocity": 0.7874015748031497,
          "duration": 0.3333333333333428
        },
        {
          "name": "D1",
          "midi": 26,
          "time": 219.50000000000085,
          "velocity": 0.7874015748031497,
          "duration": 0.3333333333333428
        },
        {
          "name": "D2",
          "midi": 38,
          "time": 219.8333333333342,
          "velocity": 0.7874015748031497,
          "duration": 0.3333333333333428
        },
        {
          "name": "D1",
          "midi": 26,
          "time": 219.8333333333342,
          "velocity": 0.7874015748031497,
          "duration": 0.3333333333333428
        },
        {
          "name": "D#2",
          "midi": 39,
          "time": 220.50000000000088,
          "velocity": 0.7874015748031497,
          "duration": 0.3333333333333428
        },
        {
          "name": "D#1",
          "midi": 27,
          "time": 220.50000000000088,
          "velocity": 0.7874015748031497,
          "duration": 0.3333333333333428
        },
        {
          "name": "D#2",
          "midi": 39,
          "time": 220.83333333333422,
          "velocity": 0.7874015748031497,
          "duration": 0.3333333333333428
        },
        {
          "name": "D#1",
          "midi": 27,
          "time": 220.83333333333422,
          "velocity": 0.7874015748031497,
          "duration": 0.3333333333333428
        },
        {
          "name": "C2",
          "midi": 36,
          "time": 221.5000000000009,
          "velocity": 0.7874015748031497,
          "duration": 0.3333333333333428
        },
        {
          "name": "C1",
          "midi": 24,
          "time": 221.5000000000009,
          "velocity": 0.7874015748031497,
          "duration": 0.3333333333333428
        },
        {
          "name": "C2",
          "midi": 36,
          "time": 221.83333333333425,
          "velocity": 0.7874015748031497,
          "duration": 0.6666666666666572
        },
        {
          "name": "C1",
          "midi": 24,
          "time": 221.83333333333425,
          "velocity": 0.7874015748031497,
          "duration": 0.6666666666666572
        },
        {
          "name": "F2",
          "midi": 41,
          "time": 222.5000000000009,
          "velocity": 0.7874015748031497,
          "duration": 0.3333333333333428
        },
        {
          "name": "F1",
          "midi": 29,
          "time": 222.5000000000009,
          "velocity": 0.7874015748031497,
          "duration": 0.3333333333333428
        },
        {
          "name": "F2",
          "midi": 41,
          "time": 222.83333333333425,
          "velocity": 0.7874015748031497,
          "duration": 0.6666666666666572
        },
        {
          "name": "F1",
          "midi": 29,
          "time": 222.83333333333425,
          "velocity": 0.7874015748031497,
          "duration": 0.6666666666666572
        },
        {
          "name": "C2",
          "midi": 36,
          "time": 223.5000000000009,
          "velocity": 0.7874015748031497,
          "duration": 2.000000000000057
        },
        {
          "name": "C3",
          "midi": 48,
          "time": 223.5000000000009,
          "velocity": 0.7874015748031497,
          "duration": 2.000000000000057
        },
        {
          "name": "D2",
          "midi": 38,
          "time": 223.83333333333425,
          "velocity": 0.7874015748031497,
          "duration": 0.3333333333333428
        },
        {
          "name": "D#2",
          "midi": 39,
          "time": 224.1666666666676,
          "velocity": 0.7874015748031497,
          "duration": 0.3333333333333428
        },
        {
          "name": "G2",
          "midi": 43,
          "time": 224.50000000000094,
          "velocity": 0.7874015748031497,
          "duration": 0.3333333333333428
        },
        {
          "name": "D3",
          "midi": 50,
          "time": 224.83333333333428,
          "velocity": 0.7874015748031497,
          "duration": 0.3333333333333428
        },
        {
          "name": "G2",
          "midi": 43,
          "time": 225.16666666666762,
          "velocity": 0.7874015748031497,
          "duration": 0.3333333333333428
        },
        {
          "name": "F2",
          "midi": 41,
          "time": 225.50000000000097,
          "velocity": 0.7874015748031497,
          "duration": 2.000000000000057
        },
        {
          "name": "F3",
          "midi": 53,
          "time": 225.50000000000097,
          "velocity": 0.7874015748031497,
          "duration": 2.000000000000057
        },
        {
          "name": "G2",
          "midi": 43,
          "time": 225.8333333333343,
          "velocity": 0.7874015748031497,
          "duration": 0.3333333333333428
        },
        {
          "name": "G#2",
          "midi": 44,
          "time": 226.16666666666765,
          "velocity": 0.7874015748031497,
          "duration": 0.3333333333333428
        },
        {
          "name": "C3",
          "midi": 48,
          "time": 226.500000000001,
          "velocity": 0.7874015748031497,
          "duration": 0.3333333333333428
        },
        {
          "name": "G3",
          "midi": 55,
          "time": 226.83333333333434,
          "velocity": 0.7874015748031497,
          "duration": 0.3333333333333428
        },
        {
          "name": "C3",
          "midi": 48,
          "time": 227.16666666666768,
          "velocity": 0.7874015748031497,
          "duration": 0.3333333333333428
        },
        {
          "name": "A2",
          "midi": 45,
          "time": 227.50000000000102,
          "velocity": 0.7874015748031497,
          "duration": 2
        },
        {
          "name": "A3",
          "midi": 57,
          "time": 227.50000000000102,
          "velocity": 0.7874015748031497,
          "duration": 0.75
        },
        {
          "name": "D#3",
          "midi": 51,
          "time": 227.75000000000102,
          "velocity": 0.7874015748031497,
          "duration": 0.25
        },
        {
          "name": "F#3",
          "midi": 54,
          "time": 228.00000000000102,
          "velocity": 0.7874015748031497,
          "duration": 0.25
        },
        {
          "name": "A3",
          "midi": 57,
          "time": 228.25000000000102,
          "velocity": 0.7874015748031497,
          "duration": 0.25
        },
        {
          "name": "C4",
          "midi": 60,
          "time": 228.50000000000102,
          "velocity": 0.7874015748031497,
          "duration": 0.25
        },
        {
          "name": "A3",
          "midi": 57,
          "time": 228.75000000000102,
          "velocity": 0.7874015748031497,
          "duration": 0.25
        },
        {
          "name": "F#3",
          "midi": 54,
          "time": 229.00000000000102,
          "velocity": 0.7874015748031497,
          "duration": 0.25
        },
        {
          "name": "D#3",
          "midi": 51,
          "time": 229.25000000000102,
          "velocity": 0.7874015748031497,
          "duration": 0.25
        },
        {
          "name": "D3",
          "midi": 50,
          "time": 229.50000000000102,
          "velocity": 0.7874015748031497,
          "duration": 2
        },
        {
          "name": "D4",
          "midi": 62,
          "time": 229.50000000000102,
          "velocity": 0.7874015748031497,
          "duration": 0.75
        },
        {
          "name": "G#3",
          "midi": 56,
          "time": 229.75000000000102,
          "velocity": 0.7874015748031497,
          "duration": 0.25
        },
        {
          "name": "B3",
          "midi": 59,
          "time": 230.00000000000102,
          "velocity": 0.7874015748031497,
          "duration": 0.25
        },
        {
          "name": "D4",
          "midi": 62,
          "time": 230.25000000000102,
          "velocity": 0.7874015748031497,
          "duration": 0.25
        },
        {
          "name": "F4",
          "midi": 65,
          "time": 230.50000000000102,
          "velocity": 0.7874015748031497,
          "duration": 0.25
        },
        {
          "name": "D4",
          "midi": 62,
          "time": 230.75000000000102,
          "velocity": 0.7874015748031497,
          "duration": 0.25
        },
        {
          "name": "B3",
          "midi": 59,
          "time": 231.00000000000102,
          "velocity": 0.7874015748031497,
          "duration": 0.25
        },
        {
          "name": "G#3",
          "midi": 56,
          "time": 231.25000000000102,
          "velocity": 0.7874015748031497,
          "duration": 0.25
        },
        {
          "name": "G2",
          "midi": 43,
          "time": 231.50000000000102,
          "velocity": 0.7874015748031497,
          "duration": 4
        },
        {
          "name": "G1",
          "midi": 31,
          "time": 231.50000000000102,
          "velocity": 0.7874015748031497,
          "duration": 4
        },
        {
          "name": "B4",
          "midi": 71,
          "time": 232.50000000000102,
          "velocity": 0.7874015748031497,
          "duration": 1
        },
        {
          "name": "F5",
          "midi": 77,
          "time": 232.75000000000102,
          "velocity": 0.7874015748031497,
          "duration": 0.75
        },
        {
          "name": "G#4",
          "midi": 68,
          "time": 233.00000000000102,
          "velocity": 0.7874015748031497,
          "duration": 0.5
        },
        {
          "name": "D5",
          "midi": 74,
          "time": 233.25000000000102,
          "velocity": 0.7874015748031497,
          "duration": 0.25
        },
        {
          "name": "F4",
          "midi": 65,
          "time": 233.50000000000102,
          "velocity": 0.7874015748031497,
          "duration": 1
        },
        {
          "name": "B4",
          "midi": 71,
          "time": 233.75000000000102,
          "velocity": 0.7874015748031497,
          "duration": 0.75
        },
        {
          "name": "D4",
          "midi": 62,
          "time": 234.00000000000102,
          "velocity": 0.7874015748031497,
          "duration": 0.5
        },
        {
          "name": "G#4",
          "midi": 68,
          "time": 234.25000000000102,
          "velocity": 0.7874015748031497,
          "duration": 0.25
        },
        {
          "name": "B3",
          "midi": 59,
          "time": 234.50000000000102,
          "velocity": 0.7874015748031497,
          "duration": 1
        },
        {
          "name": "F4",
          "midi": 65,
          "time": 234.75000000000102,
          "velocity": 0.7874015748031497,
          "duration": 0.75
        },
        {
          "name": "G#3",
          "midi": 56,
          "time": 235.00000000000102,
          "velocity": 0.7874015748031497,
          "duration": 0.5
        },
        {
          "name": "D3",
          "midi": 50,
          "time": 235.25000000000102,
          "velocity": 0.7874015748031497,
          "duration": 0.25
        },
        {
          "name": "G2",
          "midi": 43,
          "time": 235.50000000000102,
          "velocity": 0.7874015748031497,
          "duration": 4
        },
        {
          "name": "G1",
          "midi": 31,
          "time": 235.50000000000102,
          "velocity": 0.7874015748031497,
          "duration": 4
        },
        {
          "name": "G#3",
          "midi": 56,
          "time": 236.50000000000102,
          "velocity": 0.7874015748031497,
          "duration": 0.5
        },
        {
          "name": "F3",
          "midi": 53,
          "time": 237.00000000000102,
          "velocity": 0.7874015748031497,
          "duration": 0.5
        },
        {
          "name": "D3",
          "midi": 50,
          "time": 237.50000000000102,
          "velocity": 0.7874015748031497,
          "duration": 0.5
        },
        {
          "name": "B2",
          "midi": 47,
          "time": 238.00000000000102,
          "velocity": 0.7874015748031497,
          "duration": 0.5
        },
        {
          "name": "G#2",
          "midi": 44,
          "time": 238.50000000000102,
          "velocity": 0.7874015748031497,
          "duration": 1
        },
        {
          "name": "G#3",
          "midi": 56,
          "time": 238.75000000000102,
          "velocity": 0.7874015748031497,
          "duration": 0.75
        },
        {
          "name": "F2",
          "midi": 41,
          "time": 239.00000000000102,
          "velocity": 0.7874015748031497,
          "duration": 0.5
        },
        {
          "name": "F3",
          "midi": 53,
          "time": 239.25000000000102,
          "velocity": 0.7874015748031497,
          "duration": 0.25
        },
        {
          "name": "G2",
          "midi": 43,
          "time": 239.50000000000102,
          "velocity": 0.7874015748031497,
          "duration": 1
        },
        {
          "name": "B2",
          "midi": 47,
          "time": 239.75000000000102,
          "velocity": 0.7874015748031497,
          "duration": 0.5
        },
        {
          "name": "D3",
          "midi": 50,
          "time": 240.00000000000102,
          "velocity": 0.7874015748031497,
          "duration": 1
        },
        {
          "name": "B2",
          "midi": 47,
          "time": 240.25000000000102,
          "velocity": 0.7874015748031497,
          "duration": 0.5
        },
        {
          "name": "G2",
          "midi": 43,
          "time": 240.50000000000102,
          "velocity": 0.7874015748031497,
          "duration": 1
        },
        {
          "name": "C3",
          "midi": 48,
          "time": 240.75000000000102,
          "velocity": 0.7874015748031497,
          "duration": 0.5
        },
        {
          "name": "D#3",
          "midi": 51,
          "time": 241.00000000000102,
          "velocity": 0.7874015748031497,
          "duration": 1
        },
        {
          "name": "C3",
          "midi": 48,
          "time": 241.25000000000102,
          "velocity": 0.7874015748031497,
          "duration": 0.5
        },
        {
          "name": "G2",
          "midi": 43,
          "time": 241.50000000000102,
          "velocity": 0.7874015748031497,
          "duration": 1
        },
        {
          "name": "C#3",
          "midi": 49,
          "time": 241.75000000000102,
          "velocity": 0.7874015748031497,
          "duration": 0.5
        },
        {
          "name": "E3",
          "midi": 52,
          "time": 242.00000000000102,
          "velocity": 0.7874015748031497,
          "duration": 1
        },
        {
          "name": "C#3",
          "midi": 49,
          "time": 242.25000000000102,
          "velocity": 0.7874015748031497,
          "duration": 0.5
        },
        {
          "name": "G2",
          "midi": 43,
          "time": 242.50000000000102,
          "velocity": 0.7874015748031497,
          "duration": 1
        },
        {
          "name": "D3",
          "midi": 50,
          "time": 242.75000000000102,
          "velocity": 0.7874015748031497,
          "duration": 0.5
        },
        {
          "name": "F3",
          "midi": 53,
          "time": 243.00000000000102,
          "velocity": 0.7874015748031497,
          "duration": 1
        },
        {
          "name": "D3",
          "midi": 50,
          "time": 243.25000000000102,
          "velocity": 0.7874015748031497,
          "duration": 0.5
        },
        {
          "name": "G2",
          "midi": 43,
          "time": 243.50000000000102,
          "velocity": 0.7874015748031497,
          "duration": 1
        },
        {
          "name": "D#3",
          "midi": 51,
          "time": 243.75000000000102,
          "velocity": 0.7874015748031497,
          "duration": 0.5
        },
        {
          "name": "F#3",
          "midi": 54,
          "time": 244.00000000000102,
          "velocity": 0.7874015748031497,
          "duration": 1
        },
        {
          "name": "D#3",
          "midi": 51,
          "time": 244.25000000000102,
          "velocity": 0.7874015748031497,
          "duration": 0.5
        },
        {
          "name": "G2",
          "midi": 43,
          "time": 244.50000000000102,
          "velocity": 0.7874015748031497,
          "duration": 1
        },
        {
          "name": "E3",
          "midi": 52,
          "time": 244.75000000000102,
          "velocity": 0.7874015748031497,
          "duration": 0.5
        },
        {
          "name": "G3",
          "midi": 55,
          "time": 245.00000000000102,
          "velocity": 0.7874015748031497,
          "duration": 0.5
        },
        {
          "name": "E3",
          "midi": 52,
          "time": 245.25000000000102,
          "velocity": 0.7874015748031497,
          "duration": 0.5
        },
        {
          "name": "G3",
          "midi": 55,
          "time": 245.50000000000102,
          "velocity": 0.7874015748031497,
          "duration": 1
        },
        {
          "name": "D3",
          "midi": 50,
          "time": 245.75000000000102,
          "velocity": 0.7874015748031497,
          "duration": 0.75
        },
        {
          "name": "B2",
          "midi": 47,
          "time": 246.00000000000102,
          "velocity": 0.7874015748031497,
          "duration": 0.5
        },
        {
          "name": "G#2",
          "midi": 44,
          "time": 246.25000000000102,
          "velocity": 0.7874015748031497,
          "duration": 0.25
        },
        {
          "name": "G2",
          "midi": 43,
          "time": 246.50000000000102,
          "velocity": 0.7874015748031497,
          "duration": 1
        },
        {
          "name": "F2",
          "midi": 41,
          "time": 246.75000000000102,
          "velocity": 0.7874015748031497,
          "duration": 0.75
        },
        {
          "name": "D#2",
          "midi": 39,
          "time": 247.00000000000102,
          "velocity": 0.7874015748031497,
          "duration": 0.5
        },
        {
          "name": "D2",
          "midi": 38,
          "time": 247.25000000000102,
          "velocity": 0.7874015748031497,
          "duration": 0.25
        },
        {
          "name": "C2",
          "midi": 36,
          "time": 247.50000000000102,
          "velocity": 0.7874015748031497,
          "duration": 8
        },
        {
          "name": "C3",
          "midi": 48,
          "time": 247.50000000000102,
          "velocity": 0.7874015748031497,
          "duration": 8
        },
        {
          "name": "C4",
          "midi": 60,
          "time": 248.50000000000102,
          "velocity": 0.7874015748031497,
          "duration": 1
        },
        {
          "name": "G#4",
          "midi": 68,
          "time": 248.50000000000102,
          "velocity": 0.7874015748031497,
          "duration": 1
        },
        {
          "name": "D#4",
          "midi": 63,
          "time": 248.50000000000102,
          "velocity": 0.7874015748031497,
          "duration": 1
        },
        {
          "name": "B3",
          "midi": 59,
          "time": 249.50000000000102,
          "velocity": 0.7874015748031497,
          "duration": 1
        },
        {
          "name": "D4",
          "midi": 62,
          "time": 249.50000000000102,
          "velocity": 0.7874015748031497,
          "duration": 1
        },
        {
          "name": "F#4",
          "midi": 66,
          "time": 249.50000000000102,
          "velocity": 0.7874015748031497,
          "duration": 1
        },
        {
          "name": "G4",
          "midi": 67,
          "time": 250.50000000000102,
          "velocity": 0.7874015748031497,
          "duration": 1
        },
        {
          "name": "E4",
          "midi": 64,
          "time": 250.50000000000102,
          "velocity": 0.7874015748031497,
          "duration": 1
        },
        {
          "name": "A#3",
          "midi": 58,
          "time": 250.50000000000102,
          "velocity": 0.7874015748031497,
          "duration": 1
        },
        {
          "name": "A3",
          "midi": 57,
          "time": 251.50000000000102,
          "velocity": 0.7874015748031497,
          "duration": 1
        },
        {
          "name": "C4",
          "midi": 60,
          "time": 251.50000000000102,
          "velocity": 0.7874015748031497,
          "duration": 1
        },
        {
          "name": "F4",
          "midi": 65,
          "time": 251.50000000000102,
          "velocity": 0.7874015748031497,
          "duration": 1
        },
        {
          "name": "G#3",
          "midi": 56,
          "time": 252.50000000000102,
          "velocity": 0.7874015748031497,
          "duration": 1
        },
        {
          "name": "F4",
          "midi": 65,
          "time": 252.50000000000102,
          "velocity": 0.7874015748031497,
          "duration": 1
        },
        {
          "name": "G#4",
          "midi": 68,
          "time": 252.50000000000102,
          "velocity": 0.7874015748031497,
          "duration": 1
        },
        {
          "name": "G3",
          "midi": 55,
          "time": 253.50000000000102,
          "velocity": 0.7874015748031497,
          "duration": 1
        },
        {
          "name": "D#4",
          "midi": 63,
          "time": 253.50000000000102,
          "velocity": 0.7874015748031497,
          "duration": 1
        },
        {
          "name": "G3",
          "midi": 55,
          "time": 254.50000000000102,
          "velocity": 0.7874015748031497,
          "duration": 1
        },
        {
          "name": "G2",
          "midi": 43,
          "time": 254.50000000000102,
          "velocity": 0.7874015748031497,
          "duration": 1
        },
        {
          "name": "D#2",
          "midi": 39,
          "time": 255.00000000000102,
          "velocity": 0.7874015748031497,
          "duration": 0.5
        },
        {
          "name": "D#3",
          "midi": 51,
          "time": 255.00000000000102,
          "velocity": 0.7874015748031497,
          "duration": 0.5
        },
        {
          "name": "F3",
          "midi": 53,
          "time": 255.50000000000102,
          "velocity": 0.7874015748031497,
          "duration": 0.5
        },
        {
          "name": "F2",
          "midi": 41,
          "time": 255.50000000000102,
          "velocity": 0.7874015748031497,
          "duration": 4
        },
        {
          "name": "C3",
          "midi": 48,
          "time": 255.75000000000102,
          "velocity": 0.7874015748031497,
          "duration": 0.75
        },
        {
          "name": "F3",
          "midi": 53,
          "time": 256.000000000001,
          "velocity": 0.7874015748031497,
          "duration": 0.5
        },
        {
          "name": "G#3",
          "midi": 56,
          "time": 256.250000000001,
          "velocity": 0.7874015748031497,
          "duration": 1.25
        },
        {
          "name": "C4",
          "midi": 60,
          "time": 256.500000000001,
          "velocity": 0.7874015748031497,
          "duration": 1
        },
        {
          "name": "F4",
          "midi": 65,
          "time": 256.750000000001,
          "velocity": 0.7874015748031497,
          "duration": 0.75
        },
        {
          "name": "G#4",
          "midi": 68,
          "time": 257.000000000001,
          "velocity": 0.7874015748031497,
          "duration": 0.5
        },
        {
          "name": "C5",
          "midi": 72,
          "time": 257.250000000001,
          "velocity": 0.7874015748031497,
          "duration": 0.25
        },
        {
          "name": "D#2",
          "midi": 39,
          "time": 257.500000000001,
          "velocity": 0.7874015748031497,
          "duration": 1
        },
        {
          "name": "D#3",
          "midi": 51,
          "time": 257.500000000001,
          "velocity": 0.7874015748031497,
          "duration": 0.5
        },
        {
          "name": "C3",
          "midi": 48,
          "time": 257.750000000001,
          "velocity": 0.7874015748031497,
          "duration": 0.75
        },
        {
          "name": "D#3",
          "midi": 51,
          "time": 258.000000000001,
          "velocity": 0.7874015748031497,
          "duration": 0.5
        },
        {
          "name": "G2",
          "midi": 43,
          "time": 258.250000000001,
          "velocity": 0.7874015748031497,
          "duration": 0.25
        },
        {
          "name": "D#3",
          "midi": 51,
          "time": 258.500000000001,
          "velocity": 0.7874015748031497,
          "duration": 0.75
        },
        {
          "name": "G3",
          "midi": 55,
          "time": 258.750000000001,
          "velocity": 0.7874015748031497,
          "duration": 0.75
        },
        {
          "name": "C4",
          "midi": 60,
          "time": 259.000000000001,
          "velocity": 0.7874015748031497,
          "duration": 0.5
        },
        {
          "name": "D#3",
          "midi": 51,
          "time": 259.250000000001,
          "velocity": 0.7874015748031497,
          "duration": 0.25
        },
        {
          "name": "D2",
          "midi": 38,
          "time": 259.500000000001,
          "velocity": 0.7874015748031497,
          "duration": 4
        },
        {
          "name": "D3",
          "midi": 50,
          "time": 259.500000000001,
          "velocity": 0.7874015748031497,
          "duration": 1
        },
        {
          "name": "F3",
          "midi": 53,
          "time": 259.750000000001,
          "velocity": 0.7874015748031497,
          "duration": 0.75
        },
        {
          "name": "G#3",
          "midi": 56,
          "time": 260.000000000001,
          "velocity": 0.7874015748031497,
          "duration": 0.5
        },
        {
          "name": "B3",
          "midi": 59,
          "time": 260.250000000001,
          "velocity": 0.7874015748031497,
          "duration": 0.25
        },
        {
          "name": "D4",
          "midi": 62,
          "time": 260.500000000001,
          "velocity": 0.7874015748031497,
          "duration": 1
        },
        {
          "name": "F4",
          "midi": 65,
          "time": 260.750000000001,
          "velocity": 0.7874015748031497,
          "duration": 0.75
        },
        {
          "name": "G#4",
          "midi": 68,
          "time": 261.000000000001,
          "velocity": 0.7874015748031497,
          "duration": 0.5
        },
        {
          "name": "B4",
          "midi": 71,
          "time": 261.250000000001,
          "velocity": 0.7874015748031497,
          "duration": 0.25
        },
        {
          "name": "G2",
          "midi": 43,
          "time": 261.500000000001,
          "velocity": 0.7874015748031497,
          "duration": 1
        },
        {
          "name": "D3",
          "midi": 50,
          "time": 261.750000000001,
          "velocity": 0.7874015748031497,
          "duration": 0.5
        },
        {
          "name": "G3",
          "midi": 55,
          "time": 262.000000000001,
          "velocity": 0.7874015748031497,
          "duration": 0.5
        },
        {
          "name": "D3",
          "midi": 50,
          "time": 262.250000000001,
          "velocity": 0.7874015748031497,
          "duration": 0.25
        },
        {
          "name": "B3",
          "midi": 59,
          "time": 262.500000000001,
          "velocity": 0.7874015748031497,
          "duration": 1
        },
        {
          "name": "G#3",
          "midi": 56,
          "time": 262.750000000001,
          "velocity": 0.7874015748031497,
          "duration": 0.75
        },
        {
          "name": "F3",
          "midi": 53,
          "time": 263.000000000001,
          "velocity": 0.7874015748031497,
          "duration": 0.5
        },
        {
          "name": "D3",
          "midi": 50,
          "time": 263.250000000001,
          "velocity": 0.7874015748031497,
          "duration": 0.25
        },
        {
          "name": "C2",
          "midi": 36,
          "time": 263.500000000001,
          "velocity": 0.7874015748031497,
          "duration": 8
        },
        {
          "name": "C3",
          "midi": 48,
          "time": 263.500000000001,
          "velocity": 0.7874015748031497,
          "duration": 8
        },
        {
          "name": "C4",
          "midi": 60,
          "time": 264.500000000001,
          "velocity": 0.7874015748031497,
          "duration": 1
        },
        {
          "name": "D#4",
          "midi": 63,
          "time": 264.500000000001,
          "velocity": 0.7874015748031497,
          "duration": 1
        },
        {
          "name": "B3",
          "midi": 59,
          "time": 265.500000000001,
          "velocity": 0.7874015748031497,
          "duration": 1
        },
        {
          "name": "D4",
          "midi": 62,
          "time": 265.500000000001,
          "velocity": 0.7874015748031497,
          "duration": 1
        },
        {
          "name": "F#4",
          "midi": 66,
          "time": 265.500000000001,
          "velocity": 0.7874015748031497,
          "duration": 1
        },
        {
          "name": "G4",
          "midi": 67,
          "time": 266.500000000001,
          "velocity": 0.7874015748031497,
          "duration": 1
        },
        {
          "name": "E4",
          "midi": 64,
          "time": 266.500000000001,
          "velocity": 0.7874015748031497,
          "duration": 1
        },
        {
          "name": "A#3",
          "midi": 58,
          "time": 266.500000000001,
          "velocity": 0.7874015748031497,
          "duration": 1
        },
        {
          "name": "A3",
          "midi": 57,
          "time": 267.500000000001,
          "velocity": 0.7874015748031497,
          "duration": 1
        },
        {
          "name": "F4",
          "midi": 65,
          "time": 267.500000000001,
          "velocity": 0.7874015748031497,
          "duration": 1
        },
        {
          "name": "A4",
          "midi": 69,
          "time": 267.500000000001,
          "velocity": 0.7874015748031497,
          "duration": 1
        },
        {
          "name": "G#4",
          "midi": 68,
          "time": 268.500000000001,
          "velocity": 0.7874015748031497,
          "duration": 1
        },
        {
          "name": "F4",
          "midi": 65,
          "time": 268.500000000001,
          "velocity": 0.7874015748031497,
          "duration": 1
        },
        {
          "name": "G#3",
          "midi": 56,
          "time": 268.500000000001,
          "velocity": 0.7874015748031497,
          "duration": 1
        },
        {
          "name": "D#4",
          "midi": 63,
          "time": 269.500000000001,
          "velocity": 0.7874015748031497,
          "duration": 1
        },
        {
          "name": "G3",
          "midi": 55,
          "time": 269.500000000001,
          "velocity": 0.7874015748031497,
          "duration": 1
        },
        {
          "name": "G3",
          "midi": 55,
          "time": 270.500000000001,
          "velocity": 0.7874015748031497,
          "duration": 1
        },
        {
          "name": "G2",
          "midi": 43,
          "time": 270.500000000001,
          "velocity": 0.7874015748031497,
          "duration": 1
        },
        {
          "name": "D#3",
          "midi": 51,
          "time": 271.000000000001,
          "velocity": 0.7874015748031497,
          "duration": 0.5
        },
        {
          "name": "D#2",
          "midi": 39,
          "time": 271.000000000001,
          "velocity": 0.7874015748031497,
          "duration": 0.5
        },
        {
          "name": "F3",
          "midi": 53,
          "time": 271.500000000001,
          "velocity": 0.7874015748031497,
          "duration": 0.5
        },
        {
          "name": "F2",
          "midi": 41,
          "time": 271.500000000001,
          "velocity": 0.7874015748031497,
          "duration": 2
        },
        {
          "name": "C3",
          "midi": 48,
          "time": 271.750000000001,
          "velocity": 0.7874015748031497,
          "duration": 0.75
        },
        {
          "name": "F3",
          "midi": 53,
          "time": 272.000000000001,
          "velocity": 0.7874015748031497,
          "duration": 0.5
        },
        {
          "name": "G#3",
          "midi": 56,
          "time": 272.250000000001,
          "velocity": 0.7874015748031497,
          "duration": 1.25
        },
        {
          "name": "C4",
          "midi": 60,
          "time": 272.500000000001,
          "velocity": 0.7874015748031497,
          "duration": 1
        },
        {
          "name": "F4",
          "midi": 65,
          "time": 272.750000000001,
          "velocity": 0.7874015748031497,
          "duration": 0.75
        },
        {
          "name": "G#4",
          "midi": 68,
          "time": 273.000000000001,
          "velocity": 0.7874015748031497,
          "duration": 0.5
        },
        {
          "name": "D#2",
          "midi": 39,
          "time": 273.500000000001,
          "velocity": 0.7874015748031497,
          "duration": 2
        },
        {
          "name": "D#3",
          "midi": 51,
          "time": 273.500000000001,
          "velocity": 0.7874015748031497,
          "duration": 0.5
        },
        {
          "name": "G#2",
          "midi": 44,
          "time": 273.750000000001,
          "velocity": 0.7874015748031497,
          "duration": 0.75
        },
        {
          "name": "D#3",
          "midi": 51,
          "time": 274.000000000001,
          "velocity": 0.7874015748031497,
          "duration": 0.5
        },
        {
          "name": "G3",
          "midi": 55,
          "time": 274.250000000001,
          "velocity": 0.7874015748031497,
          "duration": 0.5
        },
        {
          "name": "D#3",
          "midi": 51,
          "time": 274.500000000001,
          "velocity": 0.7874015748031497,
          "duration": 0.75
        },
        {
          "name": "G3",
          "midi": 55,
          "time": 274.750000000001,
          "velocity": 0.7874015748031497,
          "duration": 0.75
        },
        {
          "name": "C4",
          "midi": 60,
          "time": 275.000000000001,
          "velocity": 0.7874015748031497,
          "duration": 0.5
        },
        {
          "name": "D#3",
          "midi": 51,
          "time": 275.250000000001,
          "velocity": 0.7874015748031497,
          "duration": 0.25
        },
        {
          "name": "C#2",
          "midi": 37,
          "time": 275.500000000001,
          "velocity": 0.7874015748031497,
          "duration": 2
        },
        {
          "name": "C#3",
          "midi": 49,
          "time": 275.500000000001,
          "velocity": 0.7874015748031497,
          "duration": 0.5
        },
        {
          "name": "G#2",
          "midi": 44,
          "time": 275.750000000001,
          "velocity": 0.7874015748031497,
          "duration": 0.75
        },
        {
          "name": "C#3",
          "midi": 49,
          "time": 276.000000000001,
          "velocity": 0.7874015748031497,
          "duration": 0.5
        },
        {
          "name": "F3",
          "midi": 53,
          "time": 276.250000000001,
          "velocity": 0.7874015748031497,
          "duration": 1.25
        },
        {
          "name": "G#3",
          "midi": 56,
          "time": 276.500000000001,
          "velocity": 0.7874015748031497,
          "duration": 1
        },
        {
          "name": "C#4",
          "midi": 61,
          "time": 276.750000000001,
          "velocity": 0.7874015748031497,
          "duration": 0.75
        },
        {
          "name": "F4",
          "midi": 65,
          "time": 277.000000000001,
          "velocity": 0.7874015748031497,
          "duration": 0.5
        },
        {
          "name": "C2",
          "midi": 36,
          "time": 277.500000000001,
          "velocity": 0.7874015748031497,
          "duration": 2
        },
        {
          "name": "C3",
          "midi": 48,
          "time": 277.500000000001,
          "velocity": 0.7874015748031497,
          "duration": 1
        },
        {
          "name": "D#3",
          "midi": 51,
          "time": 277.750000000001,
          "velocity": 0.7874015748031497,
          "duration": 0.5
        },
        {
          "name": "G3",
          "midi": 55,
          "time": 278.000000000001,
          "velocity": 0.7874015748031497,
          "duration": 0.5
        },
        {
          "name": "D#3",
          "midi": 51,
          "time": 278.250000000001,
          "velocity": 0.7874015748031497,
          "duration": 0.5
        },
        {
          "name": "G3",
          "midi": 55,
          "time": 278.500000000001,
          "velocity": 0.7874015748031497,
          "duration": 1
        },
        {
          "name": "C4",
          "midi": 60,
          "time": 278.750000000001,
          "velocity": 0.7874015748031497,
          "duration": 0.75
        },
        {
          "name": "C#4",
          "midi": 61,
          "time": 279.000000000001,
          "velocity": 0.7874015748031497,
          "duration": 0.5
        },
        {
          "name": "D#4",
          "midi": 63,
          "time": 279.250000000001,
          "velocity": 0.7874015748031497,
          "duration": 0.25
        },
        {
          "name": "B1",
          "midi": 35,
          "time": 279.500000000001,
          "velocity": 0.7874015748031497,
          "duration": 2
        },
        {
          "name": "B2",
          "midi": 47,
          "time": 279.500000000001,
          "velocity": 0.7874015748031497,
          "duration": 0.5
        },
        {
          "name": "F2",
          "midi": 41,
          "time": 279.750000000001,
          "velocity": 0.7874015748031497,
          "duration": 0.75
        },
        {
          "name": "B2",
          "midi": 47,
          "time": 280.000000000001,
          "velocity": 0.7874015748031497,
          "duration": 0.5
        },
        {
          "name": "D3",
          "midi": 50,
          "time": 280.250000000001,
          "velocity": 0.7874015748031497,
          "duration": 0.5
        },
        {
          "name": "F3",
          "midi": 53,
          "time": 280.500000000001,
          "velocity": 0.7874015748031497,
          "duration": 0.5
        },
        {
          "name": "B3",
          "midi": 59,
          "time": 280.750000000001,
          "velocity": 0.7874015748031497,
          "duration": 0.5
        },
        {
          "name": "D4",
          "midi": 62,
          "time": 281.000000000001,
          "velocity": 0.7874015748031497,
          "duration": 0.5
        },
        {
          "name": "C2",
          "midi": 36,
          "time": 281.500000000001,
          "velocity": 0.7874015748031497,
          "duration": 2
        },
        {
          "name": "C3",
          "midi": 48,
          "time": 281.500000000001,
          "velocity": 0.7874015748031497,
          "duration": 1
        },
        {
          "name": "D#3",
          "midi": 51,
          "time": 281.750000000001,
          "velocity": 0.7874015748031497,
          "duration": 0.5
        },
        {
          "name": "G3",
          "midi": 55,
          "time": 282.000000000001,
          "velocity": 0.7874015748031497,
          "duration": 0.5
        },
        {
          "name": "D#3",
          "midi": 51,
          "time": 282.250000000001,
          "velocity": 0.7874015748031497,
          "duration": 0.5
        },
        {
          "name": "G3",
          "midi": 55,
          "time": 282.500000000001,
          "velocity": 0.7874015748031497,
          "duration": 1
        },
        {
          "name": "C4",
          "midi": 60,
          "time": 282.750000000001,
          "velocity": 0.7874015748031497,
          "duration": 0.75
        },
        {
          "name": "C#4",
          "midi": 61,
          "time": 283.000000000001,
          "velocity": 0.7874015748031497,
          "duration": 0.5
        },
        {
          "name": "D#4",
          "midi": 63,
          "time": 283.250000000001,
          "velocity": 0.7874015748031497,
          "duration": 0.25
        },
        {
          "name": "C#2",
          "midi": 37,
          "time": 283.500000000001,
          "velocity": 0.7874015748031497,
          "duration": 2
        },
        {
          "name": "C#3",
          "midi": 49,
          "time": 283.500000000001,
          "velocity": 0.7874015748031497,
          "duration": 0.5
        },
        {
          "name": "G#2",
          "midi": 44,
          "time": 283.750000000001,
          "velocity": 0.7874015748031497,
          "duration": 0.75
        },
        {
          "name": "C#3",
          "midi": 49,
          "time": 284.000000000001,
          "velocity": 0.7874015748031497,
          "duration": 0.5
        },
        {
          "name": "F3",
          "midi": 53,
          "time": 284.250000000001,
          "velocity": 0.7874015748031497,
          "duration": 0.5
        },
        {
          "name": "G#3",
          "midi": 56,
          "time": 284.500000000001,
          "velocity": 0.7874015748031497,
          "duration": 0.5
        },
        {
          "name": "C#4",
          "midi": 61,
          "time": 284.750000000001,
          "velocity": 0.7874015748031497,
          "duration": 0.5
        },
        {
          "name": "F4",
          "midi": 65,
          "time": 285.000000000001,
          "velocity": 0.7874015748031497,
          "duration": 0.5
        },
        {
          "name": "D3",
          "midi": 50,
          "time": 285.500000000001,
          "velocity": 0.7874015748031497,
          "duration": 1
        },
        {
          "name": "D2",
          "midi": 38,
          "time": 285.500000000001,
          "velocity": 0.7874015748031497,
          "duration": 2
        },
        {
          "name": "F#3",
          "midi": 54,
          "time": 285.750000000001,
          "velocity": 0.7874015748031497,
          "duration": 0.5
        },
        {
          "name": "A3",
          "midi": 57,
          "time": 286.000000000001,
          "velocity": 0.7874015748031497,
          "duration": 0.5
        },
        {
          "name": "F#3",
          "midi": 54,
          "time": 286.250000000001,
          "velocity": 0.7874015748031497,
          "duration": 0.5
        },
        {
          "name": "A3",
          "midi": 57,
          "time": 286.500000000001,
          "velocity": 0.7874015748031497,
          "duration": 1
        },
        {
          "name": "D4",
          "midi": 62,
          "time": 286.750000000001,
          "velocity": 0.7874015748031497,
          "duration": 0.75
        },
        {
          "name": "F#4",
          "midi": 66,
          "time": 287.000000000001,
          "velocity": 0.7874015748031497,
          "duration": 0.5
        },
        {
          "name": "A4",
          "midi": 69,
          "time": 287.250000000001,
          "velocity": 0.7874015748031497,
          "duration": 0.5
        },
        {
          "name": "G3",
          "midi": 55,
          "time": 287.500000000001,
          "velocity": 0.7874015748031497,
          "duration": 4
        },
        {
          "name": "G4",
          "midi": 67,
          "time": 287.500000000001,
          "velocity": 0.7874015748031497,
          "duration": 1
        },
        {
          "name": "E5",
          "midi": 76,
          "time": 287.750000000001,
          "velocity": 0.7874015748031497,
          "duration": 0.5
        },
        {
          "name": "G5",
          "midi": 79,
          "time": 288.000000000001,
          "velocity": 0.7874015748031497,
          "duration": 0.5
        },
        {
          "name": "E5",
          "midi": 76,
          "time": 288.250000000001,
          "velocity": 0.7874015748031497,
          "duration": 0.25
        },
        {
          "name": "G4",
          "midi": 67,
          "time": 288.500000000001,
          "velocity": 0.7874015748031497,
          "duration": 1
        },
        {
          "name": "D#5",
          "midi": 75,
          "time": 288.750000000001,
          "velocity": 0.7874015748031497,
          "duration": 0.5
        },
        {
          "name": "G5",
          "midi": 79,
          "time": 289.000000000001,
          "velocity": 0.7874015748031497,
          "duration": 0.5
        },
        {
          "name": "D#5",
          "midi": 75,
          "time": 289.250000000001,
          "velocity": 0.7874015748031497,
          "duration": 0.25
        },
        {
          "name": "F#4",
          "midi": 66,
          "time": 289.500000000001,
          "velocity": 0.7874015748031497,
          "duration": 1
        },
        {
          "name": "D5",
          "midi": 74,
          "time": 289.750000000001,
          "velocity": 0.7874015748031497,
          "duration": 0.5
        },
        {
          "name": "F#5",
          "midi": 78,
          "time": 290.000000000001,
          "velocity": 0.7874015748031497,
          "duration": 0.5
        },
        {
          "name": "D5",
          "midi": 74,
          "time": 290.250000000001,
          "velocity": 0.7874015748031497,
          "duration": 0.25
        },
        {
          "name": "F4",
          "midi": 65,
          "time": 290.500000000001,
          "velocity": 0.7874015748031497,
          "duration": 1
        },
        {
          "name": "C#5",
          "midi": 73,
          "time": 290.750000000001,
          "velocity": 0.7874015748031497,
          "duration": 0.5
        },
        {
          "name": "F5",
          "midi": 77,
          "time": 291.000000000001,
          "velocity": 0.7874015748031497,
          "duration": 0.5
        },
        {
          "name": "C#5",
          "midi": 73,
          "time": 291.250000000001,
          "velocity": 0.7874015748031497,
          "duration": 0.25
        },
        {
          "name": "E4",
          "midi": 64,
          "time": 291.500000000001,
          "velocity": 0.7874015748031497,
          "duration": 1
        },
        {
          "name": "C5",
          "midi": 72,
          "time": 291.750000000001,
          "velocity": 0.7874015748031497,
          "duration": 0.5
        },
        {
          "name": "E5",
          "midi": 76,
          "time": 292.000000000001,
          "velocity": 0.7874015748031497,
          "duration": 0.5
        },
        {
          "name": "C5",
          "midi": 72,
          "time": 292.250000000001,
          "velocity": 0.7874015748031497,
          "duration": 0.25
        },
        {
          "name": "D#4",
          "midi": 63,
          "time": 292.500000000001,
          "velocity": 0.7874015748031497,
          "duration": 1
        },
        {
          "name": "B4",
          "midi": 71,
          "time": 292.750000000001,
          "velocity": 0.7874015748031497,
          "duration": 0.5
        },
        {
          "name": "D#5",
          "midi": 75,
          "time": 293.000000000001,
          "velocity": 0.7874015748031497,
          "duration": 0.5
        },
        {
          "name": "B4",
          "midi": 71,
          "time": 293.250000000001,
          "velocity": 0.7874015748031497,
          "duration": 0.25
        },
        {
          "name": "D4",
          "midi": 62,
          "time": 293.500000000001,
          "velocity": 0.7874015748031497,
          "duration": 1
        },
        {
          "name": "A#4",
          "midi": 70,
          "time": 293.750000000001,
          "velocity": 0.7874015748031497,
          "duration": 0.5
        },
        {
          "name": "D5",
          "midi": 74,
          "time": 294.000000000001,
          "velocity": 0.7874015748031497,
          "duration": 0.5
        },
        {
          "name": "C4",
          "midi": 60,
          "time": 294.250000000001,
          "velocity": 0.7874015748031497,
          "duration": 0.5
        },
        {
          "name": "D3",
          "midi": 50,
          "time": 294.500000000001,
          "velocity": 0.7874015748031497,
          "duration": 1
        },
        {
          "name": "G#2",
          "midi": 44,
          "time": 295.000000000001,
          "velocity": 0.7874015748031497,
          "duration": 0.5
        },
        {
          "name": "D2",
          "midi": 38,
          "time": 295.250000000001,
          "velocity": 0.7874015748031497,
          "duration": 0.25
        },
        {
          "name": "G1",
          "midi": 31,
          "time": 295.500000000001,
          "velocity": 0.7874015748031497,
          "duration": 8
        },
        {
          "name": "D2",
          "midi": 38,
          "time": 295.500000000001,
          "velocity": 0.7874015748031497,
          "duration": 8
        },
        {
          "name": "G2",
          "midi": 43,
          "time": 295.500000000001,
          "velocity": 0.7874015748031497,
          "duration": 8
        },
        {
          "name": "C#3",
          "midi": 49,
          "time": 303.500000000001,
          "velocity": 0.7874015748031497,
          "duration": 1
        },
        {
          "name": "G2",
          "midi": 43,
          "time": 303.750000000001,
          "velocity": 0.7874015748031497,
          "duration": 2
        },
        {
          "name": "A#2",
          "midi": 46,
          "time": 304.02083333333434,
          "velocity": 0.7874015748031497,
          "duration": 0.4791666666666856
        },
        {
          "name": "E3",
          "midi": 52,
          "time": 304.250000000001,
          "velocity": 0.7874015748031497,
          "duration": 1
        },
        {
          "name": "A#2",
          "midi": 46,
          "time": 304.500000000001,
          "velocity": 0.7874015748031497,
          "duration": 2.25
        },
        {
          "name": "C#3",
          "midi": 49,
          "time": 304.750000000001,
          "velocity": 0.7874015748031497,
          "duration": 0.5
        },
        {
          "name": "G3",
          "midi": 55,
          "time": 305.000000000001,
          "velocity": 0.7874015748031497,
          "duration": 0.5
        },
        {
          "name": "C#3",
          "midi": 49,
          "time": 305.250000000001,
          "velocity": 0.7874015748031497,
          "duration": 1.75
        },
        {
          "name": "D3",
          "midi": 50,
          "time": 305.500000000001,
          "velocity": 0.7874015748031497,
          "duration": 0.5
        },
        {
          "name": "G#3",
          "midi": 56,
          "time": 305.750000000001,
          "velocity": 0.7874015748031497,
          "duration": 0.75
        },
        {
          "name": "D3",
          "midi": 50,
          "time": 306.000000000001,
          "velocity": 0.7874015748031497,
          "duration": 1.25
        },
        {
          "name": "F3",
          "midi": 53,
          "time": 306.250000000001,
          "velocity": 0.7874015748031497,
          "duration": 0.25
        },
        {
          "name": "B3",
          "midi": 59,
          "time": 306.500000000001,
          "velocity": 0.7874015748031497,
          "duration": 1
        },
        {
          "name": "G#3",
          "midi": 56,
          "time": 306.750000000001,
          "velocity": 0.7874015748031497,
          "duration": 0.75
        },
        {
          "name": "F3",
          "midi": 53,
          "time": 307.000000000001,
          "velocity": 0.7874015748031497,
          "duration": 0.5
        },
        {
          "name": "B2",
          "midi": 47,
          "time": 307.250000000001,
          "velocity": 0.7874015748031497,
          "duration": 0.25
        },
        {
          "name": "G2",
          "midi": 43,
          "time": 307.500000000001,
          "velocity": 0.7874015748031497,
          "duration": 0.3333333333333144
        },
        {
          "name": "G1",
          "midi": 31,
          "time": 307.83333333333434,
          "velocity": 0.7874015748031497,
          "duration": 0.3333333333333144
        },
        {
          "name": "G2",
          "midi": 43,
          "time": 307.83333333333434,
          "velocity": 0.7874015748031497,
          "duration": 0.3333333333333144
        },
        {
          "name": "G2",
          "midi": 43,
          "time": 308.16666666666765,
          "velocity": 0.7874015748031497,
          "duration": 0.3333333333333144
        },
        {
          "name": "G1",
          "midi": 31,
          "time": 308.16666666666765,
          "velocity": 0.7874015748031497,
          "duration": 0.3333333333333144
        },
        {
          "name": "G2",
          "midi": 43,
          "time": 308.50000000000097,
          "velocity": 0.7874015748031497,
          "duration": 0.3333333333333144
        },
        {
          "name": "G1",
          "midi": 31,
          "time": 308.50000000000097,
          "velocity": 0.7874015748031497,
          "duration": 0.3333333333333144
        },
        {
          "name": "G2",
          "midi": 43,
          "time": 308.8333333333343,
          "velocity": 0.7874015748031497,
          "duration": 0.3333333333333144
        },
        {
          "name": "G1",
          "midi": 31,
          "time": 308.8333333333343,
          "velocity": 0.7874015748031497,
          "duration": 0.3333333333333144
        },
        {
          "name": "G2",
          "midi": 43,
          "time": 309.1666666666676,
          "velocity": 0.7874015748031497,
          "duration": 0.3333333333333144
        },
        {
          "name": "G1",
          "midi": 31,
          "time": 309.1666666666676,
          "velocity": 0.7874015748031497,
          "duration": 0.3333333333333144
        },
        {
          "name": "G#2",
          "midi": 44,
          "time": 309.8333333333342,
          "velocity": 0.7874015748031497,
          "duration": 0.3333333333333144
        },
        {
          "name": "G#1",
          "midi": 32,
          "time": 309.8333333333342,
          "velocity": 0.7874015748031497,
          "duration": 0.3333333333333144
        },
        {
          "name": "G2",
          "midi": 43,
          "time": 309.8333333333342,
          "velocity": 0.36220472440944884,
          "duration": 0.3333333333333144
        },
        {
          "name": "G#2",
          "midi": 44,
          "time": 310.16666666666754,
          "velocity": 0.7874015748031497,
          "duration": 0.3333333333333144
        },
        {
          "name": "G#1",
          "midi": 32,
          "time": 310.16666666666754,
          "velocity": 0.7874015748031497,
          "duration": 0.3333333333333144
        },
        {
          "name": "G2",
          "midi": 43,
          "time": 310.16666666666754,
          "velocity": 0.36220472440944884,
          "duration": 0.3333333333333144
        },
        {
          "name": "G#2",
          "midi": 44,
          "time": 310.50000000000085,
          "velocity": 0.7874015748031497,
          "duration": 0.3333333333333144
        },
        {
          "name": "G#1",
          "midi": 32,
          "time": 310.50000000000085,
          "velocity": 0.7874015748031497,
          "duration": 0.3333333333333144
        },
        {
          "name": "G2",
          "midi": 43,
          "time": 310.50000000000085,
          "velocity": 0.3543307086614173,
          "duration": 0.3333333333333144
        },
        {
          "name": "G#2",
          "midi": 44,
          "time": 310.83333333333417,
          "velocity": 0.7874015748031497,
          "duration": 0.3333333333333144
        },
        {
          "name": "G#1",
          "midi": 32,
          "time": 310.83333333333417,
          "velocity": 0.7874015748031497,
          "duration": 0.3333333333333144
        },
        {
          "name": "G2",
          "midi": 43,
          "time": 310.83333333333417,
          "velocity": 0.3543307086614173,
          "duration": 0.3333333333333144
        },
        {
          "name": "G#1",
          "midi": 32,
          "time": 311.1666666666675,
          "velocity": 0.7874015748031497,
          "duration": 0.3333333333333144
        },
        {
          "name": "G#2",
          "midi": 44,
          "time": 311.1666666666675,
          "velocity": 0.7874015748031497,
          "duration": 0.3333333333333144
        },
        {
          "name": "G2",
          "midi": 43,
          "time": 311.1666666666675,
          "velocity": 0.3543307086614173,
          "duration": 0.3333333333333144
        },
        {
          "name": "A2",
          "midi": 45,
          "time": 311.8333333333341,
          "velocity": 0.7874015748031497,
          "duration": 0.3333333333333144
        },
        {
          "name": "A1",
          "midi": 33,
          "time": 311.8333333333341,
          "velocity": 0.7874015748031497,
          "duration": 0.3333333333333144
        },
        {
          "name": "G2",
          "midi": 43,
          "time": 311.8333333333341,
          "velocity": 0.3543307086614173,
          "duration": 0.3333333333333144
        },
        {
          "name": "D2",
          "midi": 38,
          "time": 311.8333333333341,
          "velocity": 0.3543307086614173,
          "duration": 0.3333333333333144
        },
        {
          "name": "A2",
          "midi": 45,
          "time": 312.1666666666674,
          "velocity": 0.7874015748031497,
          "duration": 0.3333333333333144
        },
        {
          "name": "A1",
          "midi": 33,
          "time": 312.1666666666674,
          "velocity": 0.7874015748031497,
          "duration": 0.3333333333333144
        },
        {
          "name": "G2",
          "midi": 43,
          "time": 312.1666666666674,
          "velocity": 0.3543307086614173,
          "duration": 0.3333333333333144
        },
        {
          "name": "D2",
          "midi": 38,
          "time": 312.1666666666674,
          "velocity": 0.3543307086614173,
          "duration": 0.3333333333333144
        },
        {
          "name": "A2",
          "midi": 45,
          "time": 312.50000000000074,
          "velocity": 0.7874015748031497,
          "duration": 0.3333333333333144
        },
        {
          "name": "A1",
          "midi": 33,
          "time": 312.50000000000074,
          "velocity": 0.7874015748031497,
          "duration": 0.3333333333333144
        },
        {
          "name": "G2",
          "midi": 43,
          "time": 312.50000000000074,
          "velocity": 0.3543307086614173,
          "duration": 0.3333333333333144
        },
        {
          "name": "D2",
          "midi": 38,
          "time": 312.50000000000074,
          "velocity": 0.3543307086614173,
          "duration": 0.3333333333333144
        },
        {
          "name": "A2",
          "midi": 45,
          "time": 312.83333333333405,
          "velocity": 0.7874015748031497,
          "duration": 0.3333333333333144
        },
        {
          "name": "A1",
          "midi": 33,
          "time": 312.83333333333405,
          "velocity": 0.7874015748031497,
          "duration": 0.3333333333333144
        },
        {
          "name": "G2",
          "midi": 43,
          "time": 312.83333333333405,
          "velocity": 0.3464566929133858,
          "duration": 0.3333333333333144
        },
        {
          "name": "D2",
          "midi": 38,
          "time": 312.83333333333405,
          "velocity": 0.3464566929133858,
          "duration": 0.3333333333333144
        },
        {
          "name": "A2",
          "midi": 45,
          "time": 313.16666666666737,
          "velocity": 0.7874015748031497,
          "duration": 0.3333333333333144
        },
        {
          "name": "A1",
          "midi": 33,
          "time": 313.16666666666737,
          "velocity": 0.7874015748031497,
          "duration": 0.3333333333333144
        },
        {
          "name": "G2",
          "midi": 43,
          "time": 313.16666666666737,
          "velocity": 0.3464566929133858,
          "duration": 0.3333333333333144
        },
        {
          "name": "D2",
          "midi": 38,
          "time": 313.16666666666737,
          "velocity": 0.3464566929133858,
          "duration": 0.3333333333333144
        },
        {
          "name": "G3",
          "midi": 55,
          "time": 313.5000000000007,
          "velocity": 0.7874015748031497,
          "duration": 0.5
        },
        {
          "name": "G4",
          "midi": 67,
          "time": 313.5000000000007,
          "velocity": 0.7874015748031497,
          "duration": 0.5
        },
        {
          "name": "G4",
          "midi": 67,
          "time": 314.0000000000007,
          "velocity": 0.7874015748031497,
          "duration": 0.5
        },
        {
          "name": "D4",
          "midi": 62,
          "time": 314.0000000000007,
          "velocity": 0.7874015748031497,
          "duration": 0.5
        },
        {
          "name": "D3",
          "midi": 50,
          "time": 314.0000000000007,
          "velocity": 0.7874015748031497,
          "duration": 0.5
        },
        {
          "name": "D4",
          "midi": 62,
          "time": 314.5000000000007,
          "velocity": 0.7874015748031497,
          "duration": 0.5
        },
        {
          "name": "D3",
          "midi": 50,
          "time": 314.5000000000007,
          "velocity": 0.7874015748031497,
          "duration": 0.5
        },
        {
          "name": "G3",
          "midi": 55,
          "time": 315.0000000000007,
          "velocity": 0.7874015748031497,
          "duration": 0.5
        },
        {
          "name": "G2",
          "midi": 43,
          "time": 315.0000000000007,
          "velocity": 0.7874015748031497,
          "duration": 0.5
        },
        {
          "name": "C3",
          "midi": 48,
          "time": 315.5000000000007,
          "velocity": 0.7874015748031497,
          "duration": 0.6666666666666856
        },
        {
          "name": "G3",
          "midi": 55,
          "time": 315.5000000000007,
          "velocity": 0.7874015748031497,
          "duration": 1
        },
        {
          "name": "C4",
          "midi": 60,
          "time": 315.5000000000007,
          "velocity": 0.7874015748031497,
          "duration": 1
        },
        {
          "name": "C3",
          "midi": 48,
          "time": 316.16666666666737,
          "velocity": 0.7874015748031497,
          "duration": 0.3333333333333144
        },
        {
          "name": "G2",
          "midi": 43,
          "time": 316.16666666666737,
          "velocity": 0.7874015748031497,
          "duration": 0.3333333333333144
        },
        {
          "name": "C2",
          "midi": 36,
          "time": 316.16666666666737,
          "velocity": 0.7874015748031497,
          "duration": 0.3333333333333144
        },
        {
          "name": "C2",
          "midi": 36,
          "time": 316.5000000000007,
          "velocity": 0.7874015748031497,
          "duration": 1
        },
        {
          "name": "G2",
          "midi": 43,
          "time": 316.5000000000007,
          "velocity": 0.7874015748031497,
          "duration": 0.5
        },
        {
          "name": "C3",
          "midi": 48,
          "time": 316.5000000000007,
          "velocity": 0.7874015748031497,
          "duration": 0.75
        },
        {
          "name": "G2",
          "midi": 43,
          "time": 317.0000000000007,
          "velocity": 0.7874015748031497,
          "duration": 0.5
        },
        {
          "name": "C3",
          "midi": 48,
          "time": 317.2500000000007,
          "velocity": 0.7874015748031497,
          "duration": 0.25
        },
        {
          "name": "G2",
          "midi": 43,
          "time": 317.5000000000007,
          "velocity": 0.7874015748031497,
          "duration": 2
        },
        {
          "name": "G3",
          "midi": 55,
          "time": 317.5000000000007,
          "velocity": 0.7874015748031497,
          "duration": 1
        },
        {
          "name": "C3",
          "midi": 48,
          "time": 318.0000000000007,
          "velocity": 0.7874015748031497,
          "duration": 1.5
        },
        {
          "name": "A#1",
          "midi": 34,
          "time": 318.5000000000007,
          "velocity": 0.7874015748031497,
          "duration": 1
        },
        {
          "name": "A#2",
          "midi": 46,
          "time": 319.0000000000007,
          "velocity": 0.7874015748031497,
          "duration": 0.5
        },
        {
          "name": "G#3",
          "midi": 56,
          "time": 319.5000000000007,
          "velocity": 0.7874015748031497,
          "duration": 1
        },
        {
          "name": "D#3",
          "midi": 51,
          "time": 319.5000000000007,
          "velocity": 0.7874015748031497,
          "duration": 1
        },
        {
          "name": "G#2",
          "midi": 44,
          "time": 319.5000000000007,
          "velocity": 0.7874015748031497,
          "duration": 0.75
        },
        {
          "name": "G#2",
          "midi": 44,
          "time": 320.2500000000007,
          "velocity": 0.7874015748031497,
          "duration": 0.25
        },
        {
          "name": "D#2",
          "midi": 39,
          "time": 320.2500000000007,
          "velocity": 0.7874015748031497,
          "duration": 0.25
        },
        {
          "name": "G#1",
          "midi": 32,
          "time": 320.2500000000007,
          "velocity": 0.7874015748031497,
          "duration": 0.25
        },
        {
          "name": "G#2",
          "midi": 44,
          "time": 320.5000000000007,
          "velocity": 0.7874015748031497,
          "duration": 0.5
        },
        {
          "name": "D#2",
          "midi": 39,
          "time": 320.5000000000007,
          "velocity": 0.7874015748031497,
          "duration": 0.5
        },
        {
          "name": "G#1",
          "midi": 32,
          "time": 320.5000000000007,
          "velocity": 0.7874015748031497,
          "duration": 0.5
        },
        {
          "name": "G#2",
          "midi": 44,
          "time": 321.0000000000007,
          "velocity": 0.7874015748031497,
          "duration": 0.5
        },
        {
          "name": "D#2",
          "midi": 39,
          "time": 321.0000000000007,
          "velocity": 0.7874015748031497,
          "duration": 0.5
        },
        {
          "name": "G#1",
          "midi": 32,
          "time": 321.0000000000007,
          "velocity": 0.7874015748031497,
          "duration": 0.5
        },
        {
          "name": "G#2",
          "midi": 44,
          "time": 321.5000000000007,
          "velocity": 0.7874015748031497,
          "duration": 1
        },
        {
          "name": "G#3",
          "midi": 56,
          "time": 321.5000000000007,
          "velocity": 0.7874015748031497,
          "duration": 1
        },
        {
          "name": "D#4",
          "midi": 63,
          "time": 322.0000000000007,
          "velocity": 0.7874015748031497,
          "duration": 0.5
        },
        {
          "name": "D#3",
          "midi": 51,
          "time": 322.0000000000007,
          "velocity": 0.7874015748031497,
          "duration": 0.5
        },
        {
          "name": "G#3",
          "midi": 56,
          "time": 322.5000000000007,
          "velocity": 0.7874015748031497,
          "duration": 1
        },
        {
          "name": "G#4",
          "midi": 68,
          "time": 322.5000000000007,
          "velocity": 0.7874015748031497,
          "duration": 1
        },
        {
          "name": "D#5",
          "midi": 75,
          "time": 323.0000000000007,
          "velocity": 0.7874015748031497,
          "duration": 0.5
        },
        {
          "name": "D#4",
          "midi": 63,
          "time": 323.0000000000007,
          "velocity": 0.7874015748031497,
          "duration": 0.5
        },
        {
          "name": "G3",
          "midi": 55,
          "time": 323.5000000000007,
          "velocity": 0.7874015748031497,
          "duration": 1
        },
        {
          "name": "G2",
          "midi": 43,
          "time": 323.5000000000007,
          "velocity": 0.7874015748031497,
          "duration": 1
        },
        {
          "name": "D#4",
          "midi": 63,
          "time": 324.0000000000007,
          "velocity": 0.7874015748031497,
          "duration": 0.5
        },
        {
          "name": "G4",
          "midi": 67,
          "time": 324.0000000000007,
          "velocity": 0.7874015748031497,
          "duration": 0.5
        },
        {
          "name": "G3",
          "midi": 55,
          "time": 324.5000000000007,
          "velocity": 0.7874015748031497,
          "duration": 1
        },
        {
          "name": "D#4",
          "midi": 63,
          "time": 324.7500000000007,
          "velocity": 0.7874015748031497,
          "duration": 0.75
        },
        {
          "name": "G4",
          "midi": 67,
          "time": 325.0000000000007,
          "velocity": 0.7874015748031497,
          "duration": 0.5
        },
        {
          "name": "A#4",
          "midi": 70,
          "time": 325.2500000000007,
          "velocity": 0.7874015748031497,
          "duration": 0.25
        },
        {
          "name": "F#3",
          "midi": 54,
          "time": 325.5000000000007,
          "velocity": 0.7874015748031497,
          "duration": 1
        },
        {
          "name": "F#2",
          "midi": 42,
          "time": 325.5000000000007,
          "velocity": 0.7874015748031497,
          "duration": 1
        },
        {
          "name": "D4",
          "midi": 62,
          "time": 326.0000000000007,
          "velocity": 0.7874015748031497,
          "duration": 0.5
        },
        {
          "name": "F#4",
          "midi": 66,
          "time": 326.0000000000007,
          "velocity": 0.7874015748031497,
          "duration": 0.5
        },
        {
          "name": "F#3",
          "midi": 54,
          "time": 326.5000000000007,
          "velocity": 0.7874015748031497,
          "duration": 1
        },
        {
          "name": "D4",
          "midi": 62,
          "time": 326.7500000000007,
          "velocity": 0.7874015748031497,
          "duration": 0.75
        },
        {
          "name": "F#4",
          "midi": 66,
          "time": 327.0000000000007,
          "velocity": 0.7874015748031497,
          "duration": 0.5
        },
        {
          "name": "A4",
          "midi": 69,
          "time": 327.2500000000007,
          "velocity": 0.7874015748031497,
          "duration": 0.25
        },
        {
          "name": "F3",
          "midi": 53,
          "time": 327.5000000000007,
          "velocity": 0.7874015748031497,
          "duration": 1
        },
        {
          "name": "F2",
          "midi": 41,
          "time": 327.5000000000007,
          "velocity": 0.7874015748031497,
          "duration": 1
        },
        {
          "name": "F4",
          "midi": 65,
          "time": 328.0000000000007,
          "velocity": 0.7874015748031497,
          "duration": 0.5
        },
        {
          "name": "D4",
          "midi": 62,
          "time": 328.0000000000007,
          "velocity": 0.7874015748031497,
          "duration": 0.5
        },
        {
          "name": "F3",
          "midi": 53,
          "time": 328.5000000000007,
          "velocity": 0.7874015748031497,
          "duration": 1
        },
        {
          "name": "D4",
          "midi": 62,
          "time": 328.7500000000007,
          "velocity": 0.7874015748031497,
          "duration": 0.75
        },
        {
          "name": "F4",
          "midi": 65,
          "time": 329.0000000000007,
          "velocity": 0.7874015748031497,
          "duration": 0.5
        },
        {
          "name": "G#4",
          "midi": 68,
          "time": 329.2500000000007,
          "velocity": 0.7874015748031497,
          "duration": 0.25
        },
        {
          "name": "E3",
          "midi": 52,
          "time": 329.5000000000007,
          "velocity": 0.7874015748031497,
          "duration": 1
        },
        {
          "name": "E2",
          "midi": 40,
          "time": 329.5000000000007,
          "velocity": 0.7874015748031497,
          "duration": 1
        },
        {
          "name": "C4",
          "midi": 60,
          "time": 330.0000000000007,
          "velocity": 0.7874015748031497,
          "duration": 0.5
        },
        {
          "name": "E4",
          "midi": 64,
          "time": 330.0000000000007,
          "velocity": 0.7874015748031497,
          "duration": 0.5
        },
        {
          "name": "E3",
          "midi": 52,
          "time": 330.5000000000007,
          "velocity": 0.7874015748031497,
          "duration": 1
        },
        {
          "name": "C4",
          "midi": 60,
          "time": 330.7500000000007,
          "velocity": 0.7874015748031497,
          "duration": 0.75
        },
        {
          "name": "E4",
          "midi": 64,
          "time": 331.0000000000007,
          "velocity": 0.7874015748031497,
          "duration": 0.5
        },
        {
          "name": "G4",
          "midi": 67,
          "time": 331.2500000000007,
          "velocity": 0.7874015748031497,
          "duration": 0.25
        },
        {
          "name": "D#4",
          "midi": 63,
          "time": 331.5000000000007,
          "velocity": 0.7874015748031497,
          "duration": 0.75
        },
        {
          "name": "C4",
          "midi": 60,
          "time": 331.5000000000007,
          "velocity": 0.7874015748031497,
          "duration": 0.75
        },
        {
          "name": "D#3",
          "midi": 51,
          "time": 331.5000000000007,
          "velocity": 0.7874015748031497,
          "duration": 0.75
        },
        {
          "name": "D#4",
          "midi": 63,
          "time": 332.2500000000007,
          "velocity": 0.7874015748031497,
          "duration": 0.25
        },
        {
          "name": "C4",
          "midi": 60,
          "time": 332.2500000000007,
          "velocity": 0.7874015748031497,
          "duration": 0.25
        },
        {
          "name": "D#3",
          "midi": 51,
          "time": 332.2500000000007,
          "velocity": 0.7874015748031497,
          "duration": 0.25
        },
        {
          "name": "D#4",
          "midi": 63,
          "time": 332.5000000000007,
          "velocity": 0.7874015748031497,
          "duration": 1.5
        },
        {
          "name": "C4",
          "midi": 60,
          "time": 332.5000000000007,
          "velocity": 0.7874015748031497,
          "duration": 0.5
        },
        {
          "name": "D#3",
          "midi": 51,
          "time": 332.5000000000007,
          "velocity": 0.7874015748031497,
          "duration": 1
        },
        {
          "name": "C4",
          "midi": 60,
          "time": 333.0000000000007,
          "velocity": 0.7874015748031497,
          "duration": 1
        },
        {
          "name": "F4",
          "midi": 65,
          "time": 333.2500000000007,
          "velocity": 0.7874015748031497,
          "duration": 0.75
        },
        {
          "name": "C5",
          "midi": 72,
          "time": 333.5000000000007,
          "velocity": 0.7874015748031497,
          "duration": 0.5
        },
        {
          "name": "D#4",
          "midi": 63,
          "time": 334.0000000000007,
          "velocity": 0.7874015748031497,
          "duration": 0.5
        },
        {
          "name": "C4",
          "midi": 60,
          "time": 334.0000000000007,
          "velocity": 0.7874015748031497,
          "duration": 0.5
        },
        {
          "name": "D#3",
          "midi": 51,
          "time": 334.0000000000007,
          "velocity": 0.7874015748031497,
          "duration": 0.5
        },
        {
          "name": "C3",
          "midi": 48,
          "time": 334.5000000000007,
          "velocity": 0.7874015748031497,
          "duration": 0.5
        },
        {
          "name": "C4",
          "midi": 60,
          "time": 334.5000000000007,
          "velocity": 0.7874015748031497,
          "duration": 0.5
        },
        {
          "name": "F3",
          "midi": 53,
          "time": 335.0000000000007,
          "velocity": 0.7874015748031497,
          "duration": 0.5
        },
        {
          "name": "F2",
          "midi": 41,
          "time": 335.0000000000007,
          "velocity": 0.7874015748031497,
          "duration": 0.5
        },
        {
          "name": "D2",
          "midi": 38,
          "time": 335.5000000000007,
          "velocity": 0.7874015748031497,
          "duration": 0.9999999999999432
        },
        {
          "name": "A#2",
          "midi": 46,
          "time": 335.833333333334,
          "velocity": 0.7874015748031497,
          "duration": 0.6666666666666288
        },
        {
          "name": "F3",
          "midi": 53,
          "time": 336.1666666666673,
          "velocity": 0.7874015748031497,
          "duration": 0.3333333333333144
        },
        {
          "name": "A#3",
          "midi": 58,
          "time": 336.5000000000006,
          "velocity": 0.7874015748031497,
          "duration": 1
        },
        {
          "name": "F4",
          "midi": 65,
          "time": 337.0000000000006,
          "velocity": 0.7874015748031497,
          "duration": 0.5
        },
        {
          "name": "F3",
          "midi": 53,
          "time": 337.0000000000006,
          "velocity": 0.7874015748031497,
          "duration": 0.5
        },
        {
          "name": "G#2",
          "midi": 44,
          "time": 337.5000000000006,
          "velocity": 0.7874015748031497,
          "duration": 1.9999999999998863
        },
        {
          "name": "D3",
          "midi": 50,
          "time": 337.83333333333394,
          "velocity": 0.7874015748031497,
          "duration": 1.3333333333332575
        },
        {
          "name": "F3",
          "midi": 53,
          "time": 338.16666666666725,
          "velocity": 0.7874015748031497,
          "duration": 0.6666666666666288
        },
        {
          "name": "G#3",
          "midi": 56,
          "time": 338.50000000000057,
          "velocity": 0.7874015748031497,
          "duration": 0.9999999999999432
        },
        {
          "name": "F3",
          "midi": 53,
          "time": 338.8333333333339,
          "velocity": 0.7874015748031497,
          "duration": 0.6666666666666288
        },
        {
          "name": "D3",
          "midi": 50,
          "time": 339.1666666666672,
          "velocity": 0.7874015748031497,
          "duration": 0.3333333333333144
        },
        {
          "name": "C3",
          "midi": 48,
          "time": 339.5000000000005,
          "velocity": 0.7874015748031497,
          "duration": 0.3333333333333144
        },
        {
          "name": "G2",
          "midi": 43,
          "time": 339.5000000000005,
          "velocity": 0.7874015748031497,
          "duration": 0.3333333333333144
        },
        {
          "name": "D#2",
          "midi": 39,
          "time": 339.5000000000005,
          "velocity": 0.7874015748031497,
          "duration": 0.3333333333333144
        },
        {
          "name": "D#3",
          "midi": 51,
          "time": 339.8333333333338,
          "velocity": 0.7874015748031497,
          "duration": 0.3333333333333144
        },
        {
          "name": "C3",
          "midi": 48,
          "time": 339.8333333333338,
          "velocity": 0.7874015748031497,
          "duration": 0.3333333333333144
        },
        {
          "name": "D#3",
          "midi": 51,
          "time": 340.16666666666714,
          "velocity": 0.7874015748031497,
          "duration": 0.3333333333333144
        },
        {
          "name": "G3",
          "midi": 55,
          "time": 340.16666666666714,
          "velocity": 0.7874015748031497,
          "duration": 0.3333333333333144
        },
        {
          "name": "F2",
          "midi": 41,
          "time": 340.50000000000045,
          "velocity": 0.7874015748031497,
          "duration": 0.3333333333333144
        },
        {
          "name": "G#2",
          "midi": 44,
          "time": 340.50000000000045,
          "velocity": 0.7874015748031497,
          "duration": 0.3333333333333144
        },
        {
          "name": "D3",
          "midi": 50,
          "time": 340.50000000000045,
          "velocity": 0.7874015748031497,
          "duration": 0.3333333333333144
        },
        {
          "name": "D3",
          "midi": 50,
          "time": 340.83333333333377,
          "velocity": 0.7874015748031497,
          "duration": 0.3333333333333144
        },
        {
          "name": "F3",
          "midi": 53,
          "time": 340.83333333333377,
          "velocity": 0.7874015748031497,
          "duration": 0.3333333333333144
        },
        {
          "name": "F3",
          "midi": 53,
          "time": 341.1666666666671,
          "velocity": 0.7874015748031497,
          "duration": 0.3333333333333144
        },
        {
          "name": "G#3",
          "midi": 56,
          "time": 341.1666666666671,
          "velocity": 0.7874015748031497,
          "duration": 0.3333333333333144
        },
        {
          "name": "B2",
          "midi": 47,
          "time": 341.5000000000004,
          "velocity": 0.7874015748031497,
          "duration": 0.3333333333333144
        },
        {
          "name": "B1",
          "midi": 35,
          "time": 341.5000000000004,
          "velocity": 0.7874015748031497,
          "duration": 0.3333333333333144
        },
        {
          "name": "G#2",
          "midi": 44,
          "time": 341.8333333333337,
          "velocity": 0.7874015748031497,
          "duration": 0.3333333333333144
        },
        {
          "name": "G#1",
          "midi": 32,
          "time": 341.8333333333337,
          "velocity": 0.7874015748031497,
          "duration": 0.3333333333333144
        },
        {
          "name": "G2",
          "midi": 43,
          "time": 342.166666666667,
          "velocity": 0.7874015748031497,
          "duration": 0.3333333333333144
        },
        {
          "name": "G1",
          "midi": 31,
          "time": 342.166666666667,
          "velocity": 0.7874015748031497,
          "duration": 0.3333333333333144
        },
        {
          "name": "F2",
          "midi": 41,
          "time": 342.50000000000034,
          "velocity": 0.7874015748031497,
          "duration": 0.3333333333333144
        },
        {
          "name": "F1",
          "midi": 29,
          "time": 342.50000000000034,
          "velocity": 0.7874015748031497,
          "duration": 0.3333333333333144
        },
        {
          "name": "D#2",
          "midi": 39,
          "time": 342.83333333333366,
          "velocity": 0.7874015748031497,
          "duration": 0.3333333333333144
        },
        {
          "name": "D#1",
          "midi": 27,
          "time": 342.83333333333366,
          "velocity": 0.7874015748031497,
          "duration": 0.3333333333333144
        },
        {
          "name": "D2",
          "midi": 38,
          "time": 343.16666666666697,
          "velocity": 0.7874015748031497,
          "duration": 0.3333333333333144
        },
        {
          "name": "D1",
          "midi": 26,
          "time": 343.16666666666697,
          "velocity": 0.7874015748031497,
          "duration": 0.3333333333333144
        },
        {
          "name": "C2",
          "midi": 36,
          "time": 343.5000000000003,
          "velocity": 0.7874015748031497,
          "duration": 3.6666666666666856
        },
        {
          "name": "C1",
          "midi": 24,
          "time": 343.5000000000003,
          "velocity": 0.7874015748031497,
          "duration": 3.6666666666666856
        },
        {
          "name": "G2",
          "midi": 43,
          "time": 345.0000000000003,
          "velocity": 0.7874015748031497,
          "duration": 2.5
        },
        {
          "name": "C3",
          "midi": 48,
          "time": 345.16666666666697,
          "velocity": 0.7874015748031497,
          "duration": 2.3333333333333144
        },
        {
          "name": "G3",
          "midi": 55,
          "time": 345.33333333333366,
          "velocity": 0.7874015748031497,
          "duration": 2.1666666666666288
        },
        {
          "name": "C2",
          "midi": 36,
          "time": 347.16666666666697,
          "velocity": 0.7874015748031497,
          "duration": 0.3333333333333144
        },
        {
          "name": "C1",
          "midi": 24,
          "time": 347.16666666666697,
          "velocity": 0.7874015748031497,
          "duration": 0.3333333333333144
        },
        {
          "name": "C2",
          "midi": 36,
          "time": 347.5000000000003,
          "velocity": 0.7874015748031497,
          "duration": 3.6666666666666856
        },
        {
          "name": "C1",
          "midi": 24,
          "time": 347.5000000000003,
          "velocity": 0.7874015748031497,
          "duration": 3.6666666666666856
        },
        {
          "name": "G2",
          "midi": 43,
          "time": 349.0000000000003,
          "velocity": 0.7874015748031497,
          "duration": 2.5
        },
        {
          "name": "C3",
          "midi": 48,
          "time": 349.16666666666697,
          "velocity": 0.7874015748031497,
          "duration": 2.3333333333333144
        },
        {
          "name": "G3",
          "midi": 55,
          "time": 349.33333333333366,
          "velocity": 0.7874015748031497,
          "duration": 2.1666666666666288
        },
        {
          "name": "C2",
          "midi": 36,
          "time": 351.16666666666697,
          "velocity": 0.7874015748031497,
          "duration": 0.3333333333333144
        },
        {
          "name": "C1",
          "midi": 24,
          "time": 351.16666666666697,
          "velocity": 0.7874015748031497,
          "duration": 0.3333333333333144
        },
        {
          "name": "C2",
          "midi": 36,
          "time": 351.5000000000003,
          "velocity": 0.7874015748031497,
          "duration": 3.6666666666667425
        },
        {
          "name": "C1",
          "midi": 24,
          "time": 351.5000000000003,
          "velocity": 0.7874015748031497,
          "duration": 3.6666666666667425
        },
        {
          "name": "G#2",
          "midi": 44,
          "time": 353.0000000000003,
          "velocity": 0.7874015748031497,
          "duration": 2.500000000000057
        },
        {
          "name": "C3",
          "midi": 48,
          "time": 353.16666666666697,
          "velocity": 0.7874015748031497,
          "duration": 2.3333333333333712
        },
        {
          "name": "F3",
          "midi": 53,
          "time": 353.33333333333366,
          "velocity": 0.7874015748031497,
          "duration": 2.1666666666666856
        },
        {
          "name": "G#3",
          "midi": 56,
          "time": 353.50000000000034,
          "velocity": 0.7874015748031497,
          "duration": 2
        },
        {
          "name": "C2",
          "midi": 36,
          "time": 355.166666666667,
          "velocity": 0.7874015748031497,
          "duration": 0.3333333333333144
        },
        {
          "name": "C1",
          "midi": 24,
          "time": 355.166666666667,
          "velocity": 0.7874015748031497,
          "duration": 0.3333333333333144
        },
        {
          "name": "C2",
          "midi": 36,
          "time": 355.50000000000034,
          "velocity": 0.7874015748031497,
          "duration": 3.000000000000057
        },
        {
          "name": "C1",
          "midi": 24,
          "time": 355.50000000000034,
          "velocity": 0.7874015748031497,
          "duration": 4.000000000000057
        },
        {
          "name": "G#2",
          "midi": 44,
          "time": 357.00000000000034,
          "velocity": 0.7874015748031497,
          "duration": 2.500000000000057
        },
        {
          "name": "D3",
          "midi": 50,
          "time": 357.166666666667,
          "velocity": 0.7874015748031497,
          "duration": 2.3333333333333712
        },
        {
          "name": "G#3",
          "midi": 56,
          "time": 357.3333333333337,
          "velocity": 0.7874015748031497,
          "duration": 2.1666666666666856
        },
        {
          "name": "C2",
          "midi": 36,
          "time": 358.5000000000004,
          "velocity": 0.7874015748031497,
          "duration": 1
        },
        {
          "name": "B1",
          "midi": 35,
          "time": 358.5000000000004,
          "velocity": 0.7874015748031497,
          "duration": 1
        },
        {
          "name": "C2",
          "midi": 36,
          "time": 359.5000000000004,
          "velocity": 0.3779527559055118,
          "duration": 0.5
        },
        {
          "name": "C1",
          "midi": 24,
          "time": 359.5000000000004,
          "velocity": 0.3779527559055118,
          "duration": 0.5
        },
        {
          "name": "C2",
          "midi": 36,
          "time": 360.0000000000004,
          "velocity": 0.4015748031496063,
          "duration": 0.5
        },
        {
          "name": "C1",
          "midi": 24,
          "time": 360.0000000000004,
          "velocity": 0.4015748031496063,
          "duration": 0.5
        },
        {
          "name": "C2",
          "midi": 36,
          "time": 360.5000000000004,
          "velocity": 0.41732283464566927,
          "duration": 0.5
        },
        {
          "name": "C1",
          "midi": 24,
          "time": 360.5000000000004,
          "velocity": 0.41732283464566927,
          "duration": 0.5
        },
        {
          "name": "C2",
          "midi": 36,
          "time": 361.0000000000004,
          "velocity": 0.4409448818897638,
          "duration": 0.5
        },
        {
          "name": "C1",
          "midi": 24,
          "time": 361.0000000000004,
          "velocity": 0.4409448818897638,
          "duration": 0.5
        },
        {
          "name": "C2",
          "midi": 36,
          "time": 361.5000000000004,
          "velocity": 0.4566929133858268,
          "duration": 0.5
        },
        {
          "name": "C1",
          "midi": 24,
          "time": 361.5000000000004,
          "velocity": 0.4566929133858268,
          "duration": 0.5
        },
        {
          "name": "C2",
          "midi": 36,
          "time": 362.0000000000004,
          "velocity": 0.48031496062992124,
          "duration": 0.5
        },
        {
          "name": "C1",
          "midi": 24,
          "time": 362.0000000000004,
          "velocity": 0.48031496062992124,
          "duration": 0.5
        },
        {
          "name": "C2",
          "midi": 36,
          "time": 362.5000000000004,
          "velocity": 0.49606299212598426,
          "duration": 0.5
        },
        {
          "name": "C1",
          "midi": 24,
          "time": 362.5000000000004,
          "velocity": 0.49606299212598426,
          "duration": 0.5
        },
        {
          "name": "C2",
          "midi": 36,
          "time": 363.0000000000004,
          "velocity": 0.5196850393700787,
          "duration": 0.5
        },
        {
          "name": "C1",
          "midi": 24,
          "time": 363.0000000000004,
          "velocity": 0.5196850393700787,
          "duration": 0.5
        },
        {
          "name": "C2",
          "midi": 36,
          "time": 363.5000000000004,
          "velocity": 0.5354330708661418,
          "duration": 0.5
        },
        {
          "name": "G2",
          "midi": 43,
          "time": 363.7500000000004,
          "velocity": 0.5433070866141733,
          "duration": 0.75
        },
        {
          "name": "G#2",
          "midi": 44,
          "time": 364.0000000000004,
          "velocity": 0.5590551181102362,
          "duration": 3.5
        },
        {
          "name": "F#2",
          "midi": 42,
          "time": 364.2500000000004,
          "velocity": 0.5590551181102362,
          "duration": 3.25
        },
        {
          "name": "G2",
          "midi": 43,
          "time": 364.5000000000004,
          "velocity": 0.5748031496062992,
          "duration": 3
        },
        {
          "name": "D3",
          "midi": 50,
          "time": 364.7500000000004,
          "velocity": 0.5826771653543307,
          "duration": 2.75
        },
        {
          "name": "D#3",
          "midi": 51,
          "time": 365.0000000000004,
          "velocity": 0.5905511811023622,
          "duration": 2.5
        },
        {
          "name": "B2",
          "midi": 47,
          "time": 365.2500000000004,
          "velocity": 0.5984251968503937,
          "duration": 2.25
        },
        {
          "name": "C3",
          "midi": 48,
          "time": 365.5000000000004,
          "velocity": 0.6141732283464567,
          "duration": 2
        },
        {
          "name": "G3",
          "midi": 55,
          "time": 365.7500000000004,
          "velocity": 0.6220472440944882,
          "duration": 0.75
        },
        {
          "name": "G#3",
          "midi": 56,
          "time": 366.0000000000004,
          "velocity": 0.6299212598425197,
          "duration": 1.5
        },
        {
          "name": "F#3",
          "midi": 54,
          "time": 366.2500000000004,
          "velocity": 0.6377952755905512,
          "duration": 1.25
        },
        {
          "name": "G3",
          "midi": 55,
          "time": 366.5000000000004,
          "velocity": 0.6535433070866141,
          "duration": 1
        },
        {
          "name": "D4",
          "midi": 62,
          "time": 366.7500000000004,
          "velocity": 0.6614173228346457,
          "duration": 0.75
        },
        {
          "name": "D#4",
          "midi": 63,
          "time": 367.0000000000004,
          "velocity": 0.6692913385826772,
          "duration": 0.5
        },
        {
          "name": "B3",
          "midi": 59,
          "time": 367.2500000000004,
          "velocity": 0.6771653543307087,
          "duration": 0.5
        },
        {
          "name": "C5",
          "midi": 72,
          "time": 367.5000000000004,
          "velocity": 0.7874015748031497,
          "duration": 0.5
        },
        {
          "name": "C4",
          "midi": 60,
          "time": 367.5000000000004,
          "velocity": 0.7874015748031497,
          "duration": 0.5
        },
        {
          "name": "G3",
          "midi": 55,
          "time": 368.0000000000004,
          "velocity": 0.7874015748031497,
          "duration": 0.5
        },
        {
          "name": "G4",
          "midi": 67,
          "time": 368.0000000000004,
          "velocity": 0.7874015748031497,
          "duration": 0.5
        },
        {
          "name": "G#4",
          "midi": 68,
          "time": 368.5000000000004,
          "velocity": 0.7874015748031497,
          "duration": 0.5
        },
        {
          "name": "G#3",
          "midi": 56,
          "time": 368.5000000000004,
          "velocity": 0.7874015748031497,
          "duration": 0.5
        },
        {
          "name": "F#3",
          "midi": 54,
          "time": 369.0000000000004,
          "velocity": 0.7874015748031497,
          "duration": 0.5
        },
        {
          "name": "F#4",
          "midi": 66,
          "time": 369.0000000000004,
          "velocity": 0.7874015748031497,
          "duration": 0.5
        },
        {
          "name": "G4",
          "midi": 67,
          "time": 369.5000000000004,
          "velocity": 0.7874015748031497,
          "duration": 0.5
        },
        {
          "name": "G3",
          "midi": 55,
          "time": 369.5000000000004,
          "velocity": 0.7874015748031497,
          "duration": 0.5
        },
        {
          "name": "D4",
          "midi": 62,
          "time": 370.0000000000004,
          "velocity": 0.7874015748031497,
          "duration": 0.5
        },
        {
          "name": "D3",
          "midi": 50,
          "time": 370.0000000000004,
          "velocity": 0.7874015748031497,
          "duration": 0.5
        },
        {
          "name": "D#4",
          "midi": 63,
          "time": 370.5000000000004,
          "velocity": 0.7874015748031497,
          "duration": 0.5
        },
        {
          "name": "D#3",
          "midi": 51,
          "time": 370.5000000000004,
          "velocity": 0.7874015748031497,
          "duration": 0.5
        },
        {
          "name": "B2",
          "midi": 47,
          "time": 371.0000000000004,
          "velocity": 0.7874015748031497,
          "duration": 0.5
        },
        {
          "name": "B3",
          "midi": 59,
          "time": 371.0000000000004,
          "velocity": 0.7874015748031497,
          "duration": 0.5
        },
        {
          "name": "C3",
          "midi": 48,
          "time": 371.5000000000004,
          "velocity": 0.7874015748031497,
          "duration": 0.5
        },
        {
          "name": "C4",
          "midi": 60,
          "time": 371.7500000000004,
          "velocity": 0.7874015748031497,
          "duration": 0.5
        },
        {
          "name": "G2",
          "midi": 43,
          "time": 372.0000000000004,
          "velocity": 0.7874015748031497,
          "duration": 0.5
        },
        {
          "name": "G3",
          "midi": 55,
          "time": 372.2500000000004,
          "velocity": 0.7874015748031497,
          "duration": 0.5
        },
        {
          "name": "G#2",
          "midi": 44,
          "time": 372.5000000000004,
          "velocity": 0.7874015748031497,
          "duration": 0.5
        },
        {
          "name": "G#3",
          "midi": 56,
          "time": 372.7500000000004,
          "velocity": 0.7874015748031497,
          "duration": 0.5
        },
        {
          "name": "F#2",
          "midi": 42,
          "time": 373.0000000000004,
          "velocity": 0.7874015748031497,
          "duration": 0.5
        },
        {
          "name": "F#3",
          "midi": 54,
          "time": 373.2500000000004,
          "velocity": 0.7874015748031497,
          "duration": 0.5
        },
        {
          "name": "G2",
          "midi": 43,
          "time": 373.5000000000004,
          "velocity": 0.7874015748031497,
          "duration": 0.5
        },
        {
          "name": "G3",
          "midi": 55,
          "time": 373.8125000000004,
          "velocity": 0.7874015748031497,
          "duration": 0.5
        },
        {
          "name": "D2",
          "midi": 38,
          "time": 374.0000000000004,
          "velocity": 0.7874015748031497,
          "duration": 0.5
        },
        {
          "name": "D3",
          "midi": 50,
          "time": 374.2500000000004,
          "velocity": 0.7874015748031497,
          "duration": 0.5
        },
        {
          "name": "D#2",
          "midi": 39,
          "time": 374.5000000000004,
          "velocity": 0.7874015748031497,
          "duration": 0.5
        },
        {
          "name": "D#3",
          "midi": 51,
          "time": 374.7500000000004,
          "velocity": 0.7874015748031497,
          "duration": 0.5
        },
        {
          "name": "B1",
          "midi": 35,
          "time": 375.0000000000004,
          "velocity": 0.7874015748031497,
          "duration": 0.5
        },
        {
          "name": "B2",
          "midi": 47,
          "time": 375.2500000000004,
          "velocity": 0.7874015748031497,
          "duration": 0.25
        },
        {
          "name": "C2",
          "midi": 36,
          "time": 375.5000000000004,
          "velocity": 0.7874015748031497,
          "duration": 4
        },
        {
          "name": "C3",
          "midi": 48,
          "time": 375.5000000000004,
          "velocity": 0.7874015748031497,
          "duration": 4
        },
        {
          "name": "C2",
          "midi": 36,
          "time": 379.5000000000004,
          "velocity": 0.7874015748031497,
          "duration": 12
        },
        {
          "name": "C1",
          "midi": 24,
          "time": 379.5000000000004,
          "velocity": 0.7874015748031497,
          "duration": 12
        },
        {
          "name": "G1",
          "midi": 31,
          "time": 397.5000000000004,
          "velocity": 0.7874015748031497,
          "duration": 0.5
        },
        {
          "name": "F1",
          "midi": 29,
          "time": 397.7500000000004,
          "velocity": 0.7874015748031497,
          "duration": 0.25
        },
        {
          "name": "F#1",
          "midi": 30,
          "time": 398.0000000000004,
          "velocity": 0.7874015748031497,
          "duration": 0.5
        },
        {
          "name": "B0",
          "midi": 23,
          "time": 398.2500000000004,
          "velocity": 0.7874015748031497,
          "duration": 0.25
        }
      ],
      "controlChanges": {
        "1": [
          {
            "number": 1,
            "time": 0.40833333333333327,
            "value": 0
          }
        ],
        "6": [
          {
            "number": 6,
            "time": 0.4104166666666666,
            "value": 0.5039370078740157
          },
          {
            "number": 6,
            "time": 0.41874999999999996,
            "value": 0.5039370078740157
          },
          {
            "number": 6,
            "time": 0.42499999999999993,
            "value": 0.09448818897637795
          }
        ],
        "7": [
          {
            "number": 7,
            "time": 0.4020833333333333,
            "value": 0.7874015748031497
          }
        ],
        "10": [
          {
            "number": 10,
            "time": 0.39999999999999997,
            "value": 0.5039370078740157
          }
        ],
        "11": [
          {
            "number": 11,
            "time": 0.40624999999999994,
            "value": 1
          }
        ],
        "32": [
          {
            "number": 32,
            "time": 0.39375,
            "value": 0
          }
        ],
        "38": [
          {
            "number": 38,
            "time": 0.4104166666666666,
            "value": 0
          }
        ],
        "91": [
          {
            "number": 91,
            "time": 0.4041666666666666,
            "value": 0
          }
        ],
        "100": [
          {
            "number": 100,
            "time": 0.4104166666666666,
            "value": 0.007874015748031496
          },
          {
            "number": 100,
            "time": 0.41874999999999996,
            "value": 0.015748031496062992
          },
          {
            "number": 100,
            "time": 0.42499999999999993,
            "value": 0
          },
          {
            "number": 100,
            "time": 0.43333333333333324,
            "value": 1
          }
        ],
        "101": [
          {
            "number": 101,
            "time": 0.4104166666666666,
            "value": 0
          },
          {
            "number": 101,
            "time": 0.41874999999999996,
            "value": 0
          },
          {
            "number": 101,
            "time": 0.42499999999999993,
            "value": 0
          },
          {
            "number": 101,
            "time": 0.43333333333333324,
            "value": 1
          }
        ],
        "121": [
          {
            "number": 121,
            "time": 0.39166666666666666,
            "value": 0
          }
        ]
      },
      "id": 3,
      "name": "",
      "instrumentNumber": 0,
      "instrument": "acoustic grand piano",
      "instrumentFamily": "piano",
      "channelNumber": 1,
      "isPercussion": false
    },
    {
      "startTime": 0,
      "duration": 0,
      "length": 0,
      "notes": [],
      "controlChanges": {
        "1": [
          {
            "number": 1,
            "time": 0.40833333333333327,
            "value": 0
          }
        ],
        "6": [
          {
            "number": 6,
            "time": 0.4104166666666666,
            "value": 0.5039370078740157
          },
          {
            "number": 6,
            "time": 0.41874999999999996,
            "value": 0.5039370078740157
          },
          {
            "number": 6,
            "time": 0.42499999999999993,
            "value": 0.09448818897637795
          }
        ],
        "7": [
          {
            "number": 7,
            "time": 0.4020833333333333,
            "value": 0.7874015748031497
          }
        ],
        "10": [
          {
            "number": 10,
            "time": 0.39999999999999997,
            "value": 0.5039370078740157
          }
        ],
        "11": [
          {
            "number": 11,
            "time": 0.40624999999999994,
            "value": 1
          }
        ],
        "32": [
          {
            "number": 32,
            "time": 0.39375,
            "value": 0
          }
        ],
        "38": [
          {
            "number": 38,
            "time": 0.4104166666666666,
            "value": 0
          }
        ],
        "91": [
          {
            "number": 91,
            "time": 0.4041666666666666,
            "value": 0
          }
        ],
        "100": [
          {
            "number": 100,
            "time": 0.4104166666666666,
            "value": 0.007874015748031496
          },
          {
            "number": 100,
            "time": 0.41874999999999996,
            "value": 0.015748031496062992
          },
          {
            "number": 100,
            "time": 0.42499999999999993,
            "value": 0
          },
          {
            "number": 100,
            "time": 0.43333333333333324,
            "value": 1
          }
        ],
        "101": [
          {
            "number": 101,
            "time": 0.4104166666666666,
            "value": 0
          },
          {
            "number": 101,
            "time": 0.41874999999999996,
            "value": 0
          },
          {
            "number": 101,
            "time": 0.42499999999999993,
            "value": 0
          },
          {
            "number": 101,
            "time": 0.43333333333333324,
            "value": 1
          }
        ],
        "121": [
          {
            "number": 121,
            "time": 0.39166666666666666,
            "value": 0
          }
        ]
      },
      "id": 4,
      "name": "",
      "instrumentNumber": 0,
      "instrument": "acoustic grand piano",
      "instrumentFamily": "piano",
      "channelNumber": 2,
      "isPercussion": false
    },
    {
      "startTime": 0,
      "duration": 0,
      "length": 0,
      "notes": [],
      "controlChanges": {
        "1": [
          {
            "number": 1,
            "time": 0.40833333333333327,
            "value": 0
          }
        ],
        "6": [
          {
            "number": 6,
            "time": 0.4104166666666666,
            "value": 0.5039370078740157
          },
          {
            "number": 6,
            "time": 0.41874999999999996,
            "value": 0.5039370078740157
          },
          {
            "number": 6,
            "time": 0.42499999999999993,
            "value": 0.09448818897637795
          }
        ],
        "7": [
          {
            "number": 7,
            "time": 0.4020833333333333,
            "value": 0.7874015748031497
          }
        ],
        "10": [
          {
            "number": 10,
            "time": 0.39999999999999997,
            "value": 0.5039370078740157
          }
        ],
        "11": [
          {
            "number": 11,
            "time": 0.40624999999999994,
            "value": 1
          }
        ],
        "32": [
          {
            "number": 32,
            "time": 0.39375,
            "value": 0
          }
        ],
        "38": [
          {
            "number": 38,
            "time": 0.4104166666666666,
            "value": 0
          }
        ],
        "91": [
          {
            "number": 91,
            "time": 0.4041666666666666,
            "value": 0
          }
        ],
        "100": [
          {
            "number": 100,
            "time": 0.4104166666666666,
            "value": 0.007874015748031496
          },
          {
            "number": 100,
            "time": 0.41874999999999996,
            "value": 0.015748031496062992
          },
          {
            "number": 100,
            "time": 0.42499999999999993,
            "value": 0
          },
          {
            "number": 100,
            "time": 0.43333333333333324,
            "value": 1
          }
        ],
        "101": [
          {
            "number": 101,
            "time": 0.4104166666666666,
            "value": 0
          },
          {
            "number": 101,
            "time": 0.41874999999999996,
            "value": 0
          },
          {
            "number": 101,
            "time": 0.42499999999999993,
            "value": 0
          },
          {
            "number": 101,
            "time": 0.43333333333333324,
            "value": 1
          }
        ],
        "121": [
          {
            "number": 121,
            "time": 0.39166666666666666,
            "value": 0
          }
        ]
      },
      "id": 5,
      "name": "",
      "instrumentNumber": 0,
      "instrument": "acoustic grand piano",
      "instrumentFamily": "piano",
      "channelNumber": 3,
      "isPercussion": false
    },
    {
      "startTime": 0,
      "duration": 0,
      "length": 0,
      "notes": [],
      "controlChanges": {
        "1": [
          {
            "number": 1,
            "time": 0.40833333333333327,
            "value": 0
          }
        ],
        "6": [
          {
            "number": 6,
            "time": 0.4104166666666666,
            "value": 0.5039370078740157
          },
          {
            "number": 6,
            "time": 0.41874999999999996,
            "value": 0.5039370078740157
          },
          {
            "number": 6,
            "time": 0.42499999999999993,
            "value": 0.09448818897637795
          }
        ],
        "7": [
          {
            "number": 7,
            "time": 0.4020833333333333,
            "value": 0.7874015748031497
          }
        ],
        "10": [
          {
            "number": 10,
            "time": 0.39999999999999997,
            "value": 0.5039370078740157
          }
        ],
        "11": [
          {
            "number": 11,
            "time": 0.40624999999999994,
            "value": 1
          }
        ],
        "32": [
          {
            "number": 32,
            "time": 0.39375,
            "value": 0
          }
        ],
        "38": [
          {
            "number": 38,
            "time": 0.4104166666666666,
            "value": 0
          }
        ],
        "91": [
          {
            "number": 91,
            "time": 0.4041666666666666,
            "value": 0
          }
        ],
        "100": [
          {
            "number": 100,
            "time": 0.4104166666666666,
            "value": 0.007874015748031496
          },
          {
            "number": 100,
            "time": 0.41874999999999996,
            "value": 0.015748031496062992
          },
          {
            "number": 100,
            "time": 0.42499999999999993,
            "value": 0
          },
          {
            "number": 100,
            "time": 0.43333333333333324,
            "value": 1
          }
        ],
        "101": [
          {
            "number": 101,
            "time": 0.4104166666666666,
            "value": 0
          },
          {
            "number": 101,
            "time": 0.41874999999999996,
            "value": 0
          },
          {
            "number": 101,
            "time": 0.42499999999999993,
            "value": 0
          },
          {
            "number": 101,
            "time": 0.43333333333333324,
            "value": 1
          }
        ],
        "121": [
          {
            "number": 121,
            "time": 0.39166666666666666,
            "value": 0
          }
        ]
      },
      "id": 6,
      "name": "",
      "instrumentNumber": 0,
      "instrument": "acoustic grand piano",
      "instrumentFamily": "piano",
      "channelNumber": 4,
      "isPercussion": false
    },
    {
      "startTime": 0,
      "duration": 0,
      "length": 0,
      "notes": [],
      "controlChanges": {
        "1": [
          {
            "number": 1,
            "time": 0.40833333333333327,
            "value": 0
          }
        ],
        "6": [
          {
            "number": 6,
            "time": 0.4104166666666666,
            "value": 0.5039370078740157
          },
          {
            "number": 6,
            "time": 0.41874999999999996,
            "value": 0.5039370078740157
          },
          {
            "number": 6,
            "time": 0.42499999999999993,
            "value": 0.09448818897637795
          }
        ],
        "7": [
          {
            "number": 7,
            "time": 0.4020833333333333,
            "value": 0.7874015748031497
          }
        ],
        "10": [
          {
            "number": 10,
            "time": 0.39999999999999997,
            "value": 0.5039370078740157
          }
        ],
        "11": [
          {
            "number": 11,
            "time": 0.40624999999999994,
            "value": 1
          }
        ],
        "32": [
          {
            "number": 32,
            "time": 0.39375,
            "value": 0
          }
        ],
        "38": [
          {
            "number": 38,
            "time": 0.4104166666666666,
            "value": 0
          }
        ],
        "91": [
          {
            "number": 91,
            "time": 0.4041666666666666,
            "value": 0
          }
        ],
        "100": [
          {
            "number": 100,
            "time": 0.4104166666666666,
            "value": 0.007874015748031496
          },
          {
            "number": 100,
            "time": 0.41874999999999996,
            "value": 0.015748031496062992
          },
          {
            "number": 100,
            "time": 0.42499999999999993,
            "value": 0
          },
          {
            "number": 100,
            "time": 0.43333333333333324,
            "value": 1
          }
        ],
        "101": [
          {
            "number": 101,
            "time": 0.4104166666666666,
            "value": 0
          },
          {
            "number": 101,
            "time": 0.41874999999999996,
            "value": 0
          },
          {
            "number": 101,
            "time": 0.42499999999999993,
            "value": 0
          },
          {
            "number": 101,
            "time": 0.43333333333333324,
            "value": 1
          }
        ],
        "121": [
          {
            "number": 121,
            "time": 0.39166666666666666,
            "value": 0
          }
        ]
      },
      "id": 7,
      "name": "",
      "instrumentNumber": 0,
      "instrument": "acoustic grand piano",
      "instrumentFamily": "piano",
      "channelNumber": 5,
      "isPercussion": false
    },
    {
      "startTime": 0,
      "duration": 0,
      "length": 0,
      "notes": [],
      "controlChanges": {
        "1": [
          {
            "number": 1,
            "time": 0.40833333333333327,
            "value": 0
          }
        ],
        "6": [
          {
            "number": 6,
            "time": 0.4104166666666666,
            "value": 0.5039370078740157
          },
          {
            "number": 6,
            "time": 0.41874999999999996,
            "value": 0.5039370078740157
          },
          {
            "number": 6,
            "time": 0.42499999999999993,
            "value": 0.09448818897637795
          }
        ],
        "7": [
          {
            "number": 7,
            "time": 0.4020833333333333,
            "value": 0.7874015748031497
          }
        ],
        "10": [
          {
            "number": 10,
            "time": 0.39999999999999997,
            "value": 0.5039370078740157
          }
        ],
        "11": [
          {
            "number": 11,
            "time": 0.40624999999999994,
            "value": 1
          }
        ],
        "32": [
          {
            "number": 32,
            "time": 0.39375,
            "value": 0
          }
        ],
        "38": [
          {
            "number": 38,
            "time": 0.4104166666666666,
            "value": 0
          }
        ],
        "91": [
          {
            "number": 91,
            "time": 0.4041666666666666,
            "value": 0
          }
        ],
        "100": [
          {
            "number": 100,
            "time": 0.4104166666666666,
            "value": 0.007874015748031496
          },
          {
            "number": 100,
            "time": 0.41874999999999996,
            "value": 0.015748031496062992
          },
          {
            "number": 100,
            "time": 0.42499999999999993,
            "value": 0
          },
          {
            "number": 100,
            "time": 0.43333333333333324,
            "value": 1
          }
        ],
        "101": [
          {
            "number": 101,
            "time": 0.4104166666666666,
            "value": 0
          },
          {
            "number": 101,
            "time": 0.41874999999999996,
            "value": 0
          },
          {
            "number": 101,
            "time": 0.42499999999999993,
            "value": 0
          },
          {
            "number": 101,
            "time": 0.43333333333333324,
            "value": 1
          }
        ],
        "121": [
          {
            "number": 121,
            "time": 0.39166666666666666,
            "value": 0
          }
        ]
      },
      "id": 8,
      "name": "",
      "instrumentNumber": 0,
      "instrument": "acoustic grand piano",
      "instrumentFamily": "piano",
      "channelNumber": 6,
      "isPercussion": false
    },
    {
      "startTime": 0,
      "duration": 0,
      "length": 0,
      "notes": [],
      "controlChanges": {
        "1": [
          {
            "number": 1,
            "time": 0.40833333333333327,
            "value": 0
          }
        ],
        "6": [
          {
            "number": 6,
            "time": 0.4104166666666666,
            "value": 0.5039370078740157
          },
          {
            "number": 6,
            "time": 0.41874999999999996,
            "value": 0.5039370078740157
          },
          {
            "number": 6,
            "time": 0.42499999999999993,
            "value": 0.09448818897637795
          }
        ],
        "7": [
          {
            "number": 7,
            "time": 0.4020833333333333,
            "value": 0.7874015748031497
          }
        ],
        "10": [
          {
            "number": 10,
            "time": 0.39999999999999997,
            "value": 0.5039370078740157
          }
        ],
        "11": [
          {
            "number": 11,
            "time": 0.40624999999999994,
            "value": 1
          }
        ],
        "32": [
          {
            "number": 32,
            "time": 0.39375,
            "value": 0
          }
        ],
        "38": [
          {
            "number": 38,
            "time": 0.4104166666666666,
            "value": 0
          }
        ],
        "91": [
          {
            "number": 91,
            "time": 0.4041666666666666,
            "value": 0
          }
        ],
        "100": [
          {
            "number": 100,
            "time": 0.4104166666666666,
            "value": 0.007874015748031496
          },
          {
            "number": 100,
            "time": 0.41874999999999996,
            "value": 0.015748031496062992
          },
          {
            "number": 100,
            "time": 0.42499999999999993,
            "value": 0
          },
          {
            "number": 100,
            "time": 0.43333333333333324,
            "value": 1
          }
        ],
        "101": [
          {
            "number": 101,
            "time": 0.4104166666666666,
            "value": 0
          },
          {
            "number": 101,
            "time": 0.41874999999999996,
            "value": 0
          },
          {
            "number": 101,
            "time": 0.42499999999999993,
            "value": 0
          },
          {
            "number": 101,
            "time": 0.43333333333333324,
            "value": 1
          }
        ],
        "121": [
          {
            "number": 121,
            "time": 0.39166666666666666,
            "value": 0
          }
        ]
      },
      "id": 9,
      "name": "",
      "instrumentNumber": 0,
      "instrument": "acoustic grand piano",
      "instrumentFamily": "piano",
      "channelNumber": 7,
      "isPercussion": false
    },
    {
      "startTime": 0,
      "duration": 0,
      "length": 0,
      "notes": [],
      "controlChanges": {
        "1": [
          {
            "number": 1,
            "time": 0.40833333333333327,
            "value": 0
          }
        ],
        "6": [
          {
            "number": 6,
            "time": 0.4104166666666666,
            "value": 0.5039370078740157
          },
          {
            "number": 6,
            "time": 0.41874999999999996,
            "value": 0.5039370078740157
          },
          {
            "number": 6,
            "time": 0.42499999999999993,
            "value": 0.09448818897637795
          }
        ],
        "7": [
          {
            "number": 7,
            "time": 0.4020833333333333,
            "value": 0.7874015748031497
          }
        ],
        "10": [
          {
            "number": 10,
            "time": 0.39999999999999997,
            "value": 0.5039370078740157
          }
        ],
        "11": [
          {
            "number": 11,
            "time": 0.40624999999999994,
            "value": 1
          }
        ],
        "32": [
          {
            "number": 32,
            "time": 0.39375,
            "value": 0
          }
        ],
        "38": [
          {
            "number": 38,
            "time": 0.4104166666666666,
            "value": 0
          }
        ],
        "91": [
          {
            "number": 91,
            "time": 0.4041666666666666,
            "value": 0
          }
        ],
        "100": [
          {
            "number": 100,
            "time": 0.4104166666666666,
            "value": 0.007874015748031496
          },
          {
            "number": 100,
            "time": 0.41874999999999996,
            "value": 0.015748031496062992
          },
          {
            "number": 100,
            "time": 0.42499999999999993,
            "value": 0
          },
          {
            "number": 100,
            "time": 0.43333333333333324,
            "value": 1
          }
        ],
        "101": [
          {
            "number": 101,
            "time": 0.4104166666666666,
            "value": 0
          },
          {
            "number": 101,
            "time": 0.41874999999999996,
            "value": 0
          },
          {
            "number": 101,
            "time": 0.42499999999999993,
            "value": 0
          },
          {
            "number": 101,
            "time": 0.43333333333333324,
            "value": 1
          }
        ],
        "121": [
          {
            "number": 121,
            "time": 0.39166666666666666,
            "value": 0
          }
        ]
      },
      "id": 10,
      "name": "",
      "instrumentNumber": 0,
      "instrument": "acoustic grand piano",
      "instrumentFamily": "piano",
      "channelNumber": 8,
      "isPercussion": false
    },
    {
      "startTime": 0,
      "duration": 0,
      "length": 0,
      "notes": [],
      "controlChanges": {
        "1": [
          {
            "number": 1,
            "time": 0.40833333333333327,
            "value": 0
          }
        ],
        "6": [
          {
            "number": 6,
            "time": 0.4104166666666666,
            "value": 0.5039370078740157
          },
          {
            "number": 6,
            "time": 0.41874999999999996,
            "value": 0.5039370078740157
          },
          {
            "number": 6,
            "time": 0.42499999999999993,
            "value": 0.09448818897637795
          }
        ],
        "7": [
          {
            "number": 7,
            "time": 0.4020833333333333,
            "value": 0.7874015748031497
          }
        ],
        "10": [
          {
            "number": 10,
            "time": 0.39999999999999997,
            "value": 0.5039370078740157
          }
        ],
        "11": [
          {
            "number": 11,
            "time": 0.40624999999999994,
            "value": 1
          }
        ],
        "32": [
          {
            "number": 32,
            "time": 0.39375,
            "value": 0
          }
        ],
        "38": [
          {
            "number": 38,
            "time": 0.4104166666666666,
            "value": 0
          }
        ],
        "91": [
          {
            "number": 91,
            "time": 0.4041666666666666,
            "value": 0
          }
        ],
        "100": [
          {
            "number": 100,
            "time": 0.4104166666666666,
            "value": 0.007874015748031496
          },
          {
            "number": 100,
            "time": 0.41874999999999996,
            "value": 0.015748031496062992
          },
          {
            "number": 100,
            "time": 0.42499999999999993,
            "value": 0
          },
          {
            "number": 100,
            "time": 0.43333333333333324,
            "value": 1
          }
        ],
        "101": [
          {
            "number": 101,
            "time": 0.4104166666666666,
            "value": 0
          },
          {
            "number": 101,
            "time": 0.41874999999999996,
            "value": 0
          },
          {
            "number": 101,
            "time": 0.42499999999999993,
            "value": 0
          },
          {
            "number": 101,
            "time": 0.43333333333333324,
            "value": 1
          }
        ],
        "121": [
          {
            "number": 121,
            "time": 0.39166666666666666,
            "value": 0
          }
        ]
      },
      "id": 11,
      "name": "",
      "instrumentNumber": 0,
      "instrument": "standard kit",
      "instrumentFamily": "drums",
      "channelNumber": 9,
      "isPercussion": true
    },
    {
      "startTime": 0,
      "duration": 0,
      "length": 0,
      "notes": [],
      "controlChanges": {
        "1": [
          {
            "number": 1,
            "time": 0.40833333333333327,
            "value": 0
          }
        ],
        "6": [
          {
            "number": 6,
            "time": 0.4104166666666666,
            "value": 0.5039370078740157
          },
          {
            "number": 6,
            "time": 0.41874999999999996,
            "value": 0.5039370078740157
          },
          {
            "number": 6,
            "time": 0.42499999999999993,
            "value": 0.09448818897637795
          }
        ],
        "7": [
          {
            "number": 7,
            "time": 0.4020833333333333,
            "value": 0.7874015748031497
          }
        ],
        "10": [
          {
            "number": 10,
            "time": 0.39999999999999997,
            "value": 0.5039370078740157
          }
        ],
        "11": [
          {
            "number": 11,
            "time": 0.40624999999999994,
            "value": 1
          }
        ],
        "32": [
          {
            "number": 32,
            "time": 0.39375,
            "value": 0
          }
        ],
        "38": [
          {
            "number": 38,
            "time": 0.4104166666666666,
            "value": 0
          }
        ],
        "91": [
          {
            "number": 91,
            "time": 0.4041666666666666,
            "value": 0
          }
        ],
        "100": [
          {
            "number": 100,
            "time": 0.4104166666666666,
            "value": 0.007874015748031496
          },
          {
            "number": 100,
            "time": 0.41874999999999996,
            "value": 0.015748031496062992
          },
          {
            "number": 100,
            "time": 0.42499999999999993,
            "value": 0
          },
          {
            "number": 100,
            "time": 0.43333333333333324,
            "value": 1
          }
        ],
        "101": [
          {
            "number": 101,
            "time": 0.4104166666666666,
            "value": 0
          },
          {
            "number": 101,
            "time": 0.41874999999999996,
            "value": 0
          },
          {
            "number": 101,
            "time": 0.42499999999999993,
            "value": 0
          },
          {
            "number": 101,
            "time": 0.43333333333333324,
            "value": 1
          }
        ],
        "121": [
          {
            "number": 121,
            "time": 0.39166666666666666,
            "value": 0
          }
        ]
      },
      "id": 12,
      "name": "",
      "instrumentNumber": 0,
      "instrument": "standard kit",
      "instrumentFamily": "drums",
      "channelNumber": 10,
      "isPercussion": true
    },
    {
      "startTime": 0,
      "duration": 0,
      "length": 0,
      "notes": [],
      "controlChanges": {
        "1": [
          {
            "number": 1,
            "time": 0.40833333333333327,
            "value": 0
          }
        ],
        "6": [
          {
            "number": 6,
            "time": 0.4104166666666666,
            "value": 0.5039370078740157
          },
          {
            "number": 6,
            "time": 0.41874999999999996,
            "value": 0.5039370078740157
          },
          {
            "number": 6,
            "time": 0.42499999999999993,
            "value": 0.09448818897637795
          }
        ],
        "7": [
          {
            "number": 7,
            "time": 0.4020833333333333,
            "value": 0.7874015748031497
          }
        ],
        "10": [
          {
            "number": 10,
            "time": 0.39999999999999997,
            "value": 0.5039370078740157
          }
        ],
        "11": [
          {
            "number": 11,
            "time": 0.40624999999999994,
            "value": 1
          }
        ],
        "32": [
          {
            "number": 32,
            "time": 0.39375,
            "value": 0
          }
        ],
        "38": [
          {
            "number": 38,
            "time": 0.4104166666666666,
            "value": 0
          }
        ],
        "91": [
          {
            "number": 91,
            "time": 0.4041666666666666,
            "value": 0
          }
        ],
        "100": [
          {
            "number": 100,
            "time": 0.4104166666666666,
            "value": 0.007874015748031496
          },
          {
            "number": 100,
            "time": 0.41874999999999996,
            "value": 0.015748031496062992
          },
          {
            "number": 100,
            "time": 0.42499999999999993,
            "value": 0
          },
          {
            "number": 100,
            "time": 0.43333333333333324,
            "value": 1
          }
        ],
        "101": [
          {
            "number": 101,
            "time": 0.4104166666666666,
            "value": 0
          },
          {
            "number": 101,
            "time": 0.41874999999999996,
            "value": 0
          },
          {
            "number": 101,
            "time": 0.42499999999999993,
            "value": 0
          },
          {
            "number": 101,
            "time": 0.43333333333333324,
            "value": 1
          }
        ],
        "121": [
          {
            "number": 121,
            "time": 0.39166666666666666,
            "value": 0
          }
        ]
      },
      "id": 13,
      "name": "",
      "instrumentNumber": 0,
      "instrument": "acoustic grand piano",
      "instrumentFamily": "piano",
      "channelNumber": 11,
      "isPercussion": false
    },
    {
      "startTime": 0,
      "duration": 0,
      "length": 0,
      "notes": [],
      "controlChanges": {
        "1": [
          {
            "number": 1,
            "time": 0.40833333333333327,
            "value": 0
          }
        ],
        "6": [
          {
            "number": 6,
            "time": 0.4104166666666666,
            "value": 0.5039370078740157
          },
          {
            "number": 6,
            "time": 0.41874999999999996,
            "value": 0.5039370078740157
          },
          {
            "number": 6,
            "time": 0.42499999999999993,
            "value": 0.09448818897637795
          }
        ],
        "7": [
          {
            "number": 7,
            "time": 0.4020833333333333,
            "value": 0.7874015748031497
          }
        ],
        "10": [
          {
            "number": 10,
            "time": 0.39999999999999997,
            "value": 0.5039370078740157
          }
        ],
        "11": [
          {
            "number": 11,
            "time": 0.40624999999999994,
            "value": 1
          }
        ],
        "32": [
          {
            "number": 32,
            "time": 0.39375,
            "value": 0
          }
        ],
        "38": [
          {
            "number": 38,
            "time": 0.4104166666666666,
            "value": 0
          }
        ],
        "91": [
          {
            "number": 91,
            "time": 0.4041666666666666,
            "value": 0
          }
        ],
        "100": [
          {
            "number": 100,
            "time": 0.4104166666666666,
            "value": 0.007874015748031496
          },
          {
            "number": 100,
            "time": 0.41874999999999996,
            "value": 0.015748031496062992
          },
          {
            "number": 100,
            "time": 0.42499999999999993,
            "value": 0
          },
          {
            "number": 100,
            "time": 0.43333333333333324,
            "value": 1
          }
        ],
        "101": [
          {
            "number": 101,
            "time": 0.4104166666666666,
            "value": 0
          },
          {
            "number": 101,
            "time": 0.41874999999999996,
            "value": 0
          },
          {
            "number": 101,
            "time": 0.42499999999999993,
            "value": 0
          },
          {
            "number": 101,
            "time": 0.43333333333333324,
            "value": 1
          }
        ],
        "121": [
          {
            "number": 121,
            "time": 0.39166666666666666,
            "value": 0
          }
        ]
      },
      "id": 14,
      "name": "",
      "instrumentNumber": 0,
      "instrument": "acoustic grand piano",
      "instrumentFamily": "piano",
      "channelNumber": 12,
      "isPercussion": false
    },
    {
      "startTime": 0,
      "duration": 0,
      "length": 0,
      "notes": [],
      "controlChanges": {
        "1": [
          {
            "number": 1,
            "time": 0.40833333333333327,
            "value": 0
          }
        ],
        "6": [
          {
            "number": 6,
            "time": 0.4104166666666666,
            "value": 0.5039370078740157
          },
          {
            "number": 6,
            "time": 0.41874999999999996,
            "value": 0.5039370078740157
          },
          {
            "number": 6,
            "time": 0.42499999999999993,
            "value": 0.09448818897637795
          }
        ],
        "7": [
          {
            "number": 7,
            "time": 0.4020833333333333,
            "value": 0.7874015748031497
          }
        ],
        "10": [
          {
            "number": 10,
            "time": 0.39999999999999997,
            "value": 0.5039370078740157
          }
        ],
        "11": [
          {
            "number": 11,
            "time": 0.40624999999999994,
            "value": 1
          }
        ],
        "32": [
          {
            "number": 32,
            "time": 0.39375,
            "value": 0
          }
        ],
        "38": [
          {
            "number": 38,
            "time": 0.4104166666666666,
            "value": 0
          }
        ],
        "91": [
          {
            "number": 91,
            "time": 0.4041666666666666,
            "value": 0
          }
        ],
        "100": [
          {
            "number": 100,
            "time": 0.4104166666666666,
            "value": 0.007874015748031496
          },
          {
            "number": 100,
            "time": 0.41874999999999996,
            "value": 0.015748031496062992
          },
          {
            "number": 100,
            "time": 0.42499999999999993,
            "value": 0
          },
          {
            "number": 100,
            "time": 0.43333333333333324,
            "value": 1
          }
        ],
        "101": [
          {
            "number": 101,
            "time": 0.4104166666666666,
            "value": 0
          },
          {
            "number": 101,
            "time": 0.41874999999999996,
            "value": 0
          },
          {
            "number": 101,
            "time": 0.42499999999999993,
            "value": 0
          },
          {
            "number": 101,
            "time": 0.43333333333333324,
            "value": 1
          }
        ],
        "121": [
          {
            "number": 121,
            "time": 0.39166666666666666,
            "value": 0
          }
        ]
      },
      "id": 15,
      "name": "",
      "instrumentNumber": 0,
      "instrument": "acoustic grand piano",
      "instrumentFamily": "piano",
      "channelNumber": 13,
      "isPercussion": false
    },
    {
      "startTime": 0,
      "duration": 0,
      "length": 0,
      "notes": [],
      "controlChanges": {
        "1": [
          {
            "number": 1,
            "time": 0.40833333333333327,
            "value": 0
          }
        ],
        "6": [
          {
            "number": 6,
            "time": 0.4104166666666666,
            "value": 0.5039370078740157
          },
          {
            "number": 6,
            "time": 0.41874999999999996,
            "value": 0.5039370078740157
          },
          {
            "number": 6,
            "time": 0.42499999999999993,
            "value": 0.09448818897637795
          }
        ],
        "7": [
          {
            "number": 7,
            "time": 0.4020833333333333,
            "value": 0.7874015748031497
          }
        ],
        "10": [
          {
            "number": 10,
            "time": 0.39999999999999997,
            "value": 0.5039370078740157
          }
        ],
        "11": [
          {
            "number": 11,
            "time": 0.40624999999999994,
            "value": 1
          }
        ],
        "32": [
          {
            "number": 32,
            "time": 0.39375,
            "value": 0
          }
        ],
        "38": [
          {
            "number": 38,
            "time": 0.4104166666666666,
            "value": 0
          }
        ],
        "91": [
          {
            "number": 91,
            "time": 0.4041666666666666,
            "value": 0
          }
        ],
        "100": [
          {
            "number": 100,
            "time": 0.4104166666666666,
            "value": 0.007874015748031496
          },
          {
            "number": 100,
            "time": 0.41874999999999996,
            "value": 0.015748031496062992
          },
          {
            "number": 100,
            "time": 0.42499999999999993,
            "value": 0
          },
          {
            "number": 100,
            "time": 0.43333333333333324,
            "value": 1
          }
        ],
        "101": [
          {
            "number": 101,
            "time": 0.4104166666666666,
            "value": 0
          },
          {
            "number": 101,
            "time": 0.41874999999999996,
            "value": 0
          },
          {
            "number": 101,
            "time": 0.42499999999999993,
            "value": 0
          },
          {
            "number": 101,
            "time": 0.43333333333333324,
            "value": 1
          }
        ],
        "121": [
          {
            "number": 121,
            "time": 0.39166666666666666,
            "value": 0
          }
        ]
      },
      "id": 16,
      "name": "",
      "instrumentNumber": 0,
      "instrument": "acoustic grand piano",
      "instrumentFamily": "piano",
      "channelNumber": 14,
      "isPercussion": false
    },
    {
      "startTime": 0,
      "duration": 0,
      "length": 0,
      "notes": [],
      "controlChanges": {
        "1": [
          {
            "number": 1,
            "time": 0.40833333333333327,
            "value": 0
          }
        ],
        "6": [
          {
            "number": 6,
            "time": 0.4104166666666666,
            "value": 0.5039370078740157
          },
          {
            "number": 6,
            "time": 0.41874999999999996,
            "value": 0.5039370078740157
          },
          {
            "number": 6,
            "time": 0.42499999999999993,
            "value": 0.09448818897637795
          }
        ],
        "7": [
          {
            "number": 7,
            "time": 0.4020833333333333,
            "value": 0.7874015748031497
          }
        ],
        "10": [
          {
            "number": 10,
            "time": 0.39999999999999997,
            "value": 0.5039370078740157
          }
        ],
        "11": [
          {
            "number": 11,
            "time": 0.40624999999999994,
            "value": 1
          }
        ],
        "32": [
          {
            "number": 32,
            "time": 0.39375,
            "value": 0
          }
        ],
        "38": [
          {
            "number": 38,
            "time": 0.4104166666666666,
            "value": 0
          }
        ],
        "91": [
          {
            "number": 91,
            "time": 0.4041666666666666,
            "value": 0
          }
        ],
        "100": [
          {
            "number": 100,
            "time": 0.4104166666666666,
            "value": 0.007874015748031496
          },
          {
            "number": 100,
            "time": 0.41874999999999996,
            "value": 0.015748031496062992
          },
          {
            "number": 100,
            "time": 0.42499999999999993,
            "value": 0
          },
          {
            "number": 100,
            "time": 0.43333333333333324,
            "value": 1
          }
        ],
        "101": [
          {
            "number": 101,
            "time": 0.4104166666666666,
            "value": 0
          },
          {
            "number": 101,
            "time": 0.41874999999999996,
            "value": 0
          },
          {
            "number": 101,
            "time": 0.42499999999999993,
            "value": 0
          },
          {
            "number": 101,
            "time": 0.43333333333333324,
            "value": 1
          }
        ],
        "121": [
          {
            "number": 121,
            "time": 0.39166666666666666,
            "value": 0
          }
        ]
      },
      "id": 17,
      "name": "",
      "instrumentNumber": 0,
      "instrument": "acoustic grand piano",
      "instrumentFamily": "piano",
      "channelNumber": 15,
      "isPercussion": false
    }
  ]
}